<?xml version="1.0" encoding="UTF-8" standalone="no"?><svg xmlns="http://www.w3.org/2000/svg" xmlns:xlink="http://www.w3.org/1999/xlink" contentScriptType="application/ecmascript" contentStyleType="text/css" height="205px" preserveAspectRatio="none" style="width:536px;height:205px;" version="1.1" viewBox="0 0 536 205" width="536px" zoomAndPan="magnify"><defs><filter height="300%" id="fm2d969sa7tsr" width="300%" x="-1" y="-1"><feGaussianBlur result="blurOut" stdDeviation="2.0"/><feColorMatrix in="blurOut" result="blurOut2" type="matrix" values="0 0 0 0 0 0 0 0 0 0 0 0 0 0 0 0 0 0 .4 0"/><feOffset dx="4.0" dy="4.0" in="blurOut2" result="blurOut3"/><feBlend in="SourceGraphic" in2="blurOut3" mode="normal"/></filter></defs><g><!--MD5=[99b8db98afdc2c8404e39242ef4c1e65]
class Platform--><rect codeLine="6" fill="#FEFECE" filter="url(#fm2d969sa7tsr)" height="53.8359" id="Platform" style="stroke:#A80036;stroke-width:1.5;" width="78" x="7" y="62"/><ellipse cx="22" cy="78" fill="#ADD1B2" rx="11" ry="11" style="stroke:#A80036;stroke-width:1.0;"/><path d="M24,74.5 Q24.2031,74 24.4375,73.75 Q24.6719,73.5 24.9375,73.5 Q25.4063,73.5 25.7031,73.7813 Q26,74.0625 26,74.7188 L26,76.2813 Q26,76.9375 25.7188,77.2188 Q25.4375,77.5 25,77.5 Q24.6094,77.5 24.3594,77.3281 Q24.1094,77.1563 24,76.7031 Q23.9531,76.3906 23.7813,76.2188 Q23.4688,75.8906 22.9063,75.7031 Q22.3438,75.5 21.7813,75.5 Q21.0781,75.5 20.4844,75.7813 Q19.9063,76.0625 19.4531,76.6875 Q19,77.3125 19,78.1719 L19,79.0938 Q19,80.125 19.8438,80.8125 Q20.6875,81.5 22.1875,81.5 Q23.0781,81.5 23.7031,81.2969 Q24.0625,81.1875 24.4688,80.8281 Q24.7344,80.625 24.875,80.5625 Q25.0156,80.5 25.1875,80.5 Q25.5156,80.5 25.75,80.7656 Q26,81.0156 26,81.375 Q26,81.7188 25.6563,82.125 Q25.1563,82.7188 24.3594,83.0469 Q23.3125,83.5 22.0313,83.5 Q20.5313,83.5 19.3281,82.9063 Q18.3594,82.4375 17.6719,81.4219 Q17,80.4063 17,79.2031 L17,78.1094 Q17,76.8594 17.5938,75.7656 Q18.2031,74.6719 19.25,74.0938 Q20.3125,73.5 21.5,73.5 Q22.2188,73.5 22.8438,73.75 Q23.4688,74 24,74.5 Z " fill="#000000"/><text fill="#000000" font-family="sans-serif" font-size="12" lengthAdjust="spacing" textLength="46" x="36" y="82.9102">Platform</text><line style="stroke:#A80036;stroke-width:1.5;" x1="8" x2="84" y1="94" y2="94"/><text fill="#000000" font-family="sans-serif" font-size="11" lengthAdjust="spacing" textLength="59" x="13" y="109.4189">-designation</text><!--MD5=[7421f545a0d8420c5bec41e74b387d9c]
class Employee--><rect codeLine="10" fill="#FEFECE" filter="url(#fm2d969sa7tsr)" height="109.1797" id="Employee" style="stroke:#A80036;stroke-width:1.5;" width="89" x="181" y="34.5"/><ellipse cx="196.9" cy="50.5" fill="#ADD1B2" rx="11" ry="11" style="stroke:#A80036;stroke-width:1.0;"/><path d="M198.9,47 Q199.1031,46.5 199.3375,46.25 Q199.5719,46 199.8375,46 Q200.3063,46 200.6031,46.2813 Q200.9,46.5625 200.9,47.2188 L200.9,48.7813 Q200.9,49.4375 200.6188,49.7188 Q200.3375,50 199.9,50 Q199.5094,50 199.2594,49.8281 Q199.0094,49.6563 198.9,49.2031 Q198.8531,48.8906 198.6813,48.7188 Q198.3688,48.3906 197.8063,48.2031 Q197.2438,48 196.6813,48 Q195.9781,48 195.3844,48.2813 Q194.8063,48.5625 194.3531,49.1875 Q193.9,49.8125 193.9,50.6719 L193.9,51.5938 Q193.9,52.625 194.7438,53.3125 Q195.5875,54 197.0875,54 Q197.9781,54 198.6031,53.7969 Q198.9625,53.6875 199.3688,53.3281 Q199.6344,53.125 199.775,53.0625 Q199.9156,53 200.0875,53 Q200.4156,53 200.65,53.2656 Q200.9,53.5156 200.9,53.875 Q200.9,54.2188 200.5563,54.625 Q200.0563,55.2188 199.2594,55.5469 Q198.2125,56 196.9313,56 Q195.4313,56 194.2281,55.4063 Q193.2594,54.9375 192.5719,53.9219 Q191.9,52.9063 191.9,51.7031 L191.9,50.6094 Q191.9,49.3594 192.4938,48.2656 Q193.1031,47.1719 194.15,46.5938 Q195.2125,46 196.4,46 Q197.1188,46 197.7438,46.25 Q198.3688,46.5 198.9,47 Z " fill="#000000"/><text fill="#000000" font-family="sans-serif" font-size="12" lengthAdjust="spacing" textLength="55" x="211.1" y="55.4102">Employee</text><line style="stroke:#A80036;stroke-width:1.5;" x1="182" x2="269" y1="66.5" y2="66.5"/><text fill="#000000" font-family="sans-serif" font-size="11" lengthAdjust="spacing" textLength="65" x="187" y="81.9189">-Employee ID;</text><text fill="#000000" font-family="sans-serif" font-size="11" lengthAdjust="spacing" textLength="34" x="187" y="95.7549">-Name;</text><text fill="#000000" font-family="sans-serif" font-size="11" lengthAdjust="spacing" textLength="49" x="187" y="109.5908">-Address;</text><text fill="#000000" font-family="sans-serif" font-size="11" lengthAdjust="spacing" textLength="77" x="187" y="123.4268">-Phone Number;</text><text fill="#000000" font-family="sans-serif" font-size="11" lengthAdjust="spacing" textLength="35" x="187" y="137.2627">-E-Mail;</text><!--MD5=[a96594a83e2ecdc78cbf17c2ddf01934]
class Category--><rect codeLine="19" fill="#FEFECE" filter="url(#fm2d969sa7tsr)" height="53.8359" id="Category" style="stroke:#A80036;stroke-width:1.5;" width="101" x="419" y="7"/><ellipse cx="443" cy="23" fill="#EB937F" rx="11" ry="11" style="stroke:#A80036;stroke-width:1.0;"/><path d="M441.5,24 L441.5,26 L445.5,26 L445.5,25 L445.5,24.5156 L446.125,24 L446.5,24 L446.875,24 L447.5,24.5156 L447.5,25 L447.5,28 L439.5,28 L439.0156,28 L438.5,27.375 L438.5,27 L438.5,26.625 L439.0156,26 L439.5,26 L439.5,26 L439.5,20 L439.5,20 L439.0156,20 L438.5,19.375 L438.5,19 L438.5,18.625 L439.0156,18 L439.5,18 L447.5,18 L447.5,21 L447.5,21.4844 L446.875,22 L446.5,22 L446.125,22 L445.5,21.4844 L445.5,21 L445.5,20 L441.5,20 L441.5,22 L442.5,22 L442.5,21.5156 L442.5,21.5156 L443.125,21 L443.5,21 L443.875,21 L444.5,21.5156 L444.5,22 L444.5,24 L444.5,24.4844 L443.875,25 L443.875,25 L443.5,25 L443.125,25 L442.5,24.4844 L442.5,24.4844 L442.5,24 L441.5,24 Z " fill="#000000"/><text fill="#000000" font-family="sans-serif" font-size="12" lengthAdjust="spacing" textLength="49" x="459" y="27.9102">Category</text><line style="stroke:#A80036;stroke-width:1.5;" x1="420" x2="519" y1="39" y2="39"/><text fill="#000000" font-family="sans-serif" font-size="11" lengthAdjust="spacing" textLength="89" x="425" y="54.4189">-Organization Role</text><!--MD5=[da547346deef918ea16944ba046651ef]
class Administrator--><rect codeLine="23" fill="#FEFECE" filter="url(#fm2d969sa7tsr)" height="95.3438" id="Administrator" style="stroke:#A80036;stroke-width:1.5;" width="105" x="417" y="96.5"/><ellipse cx="432" cy="112.5" fill="#ADD1B2" rx="11" ry="11" style="stroke:#A80036;stroke-width:1.0;"/><path d="M434,109 Q434.2031,108.5 434.4375,108.25 Q434.6719,108 434.9375,108 Q435.4063,108 435.7031,108.2813 Q436,108.5625 436,109.2188 L436,110.7813 Q436,111.4375 435.7188,111.7188 Q435.4375,112 435,112 Q434.6094,112 434.3594,111.8281 Q434.1094,111.6563 434,111.2031 Q433.9531,110.8906 433.7813,110.7188 Q433.4688,110.3906 432.9063,110.2031 Q432.3438,110 431.7813,110 Q431.0781,110 430.4844,110.2813 Q429.9063,110.5625 429.4531,111.1875 Q429,111.8125 429,112.6719 L429,113.5938 Q429,114.625 429.8438,115.3125 Q430.6875,116 432.1875,116 Q433.0781,116 433.7031,115.7969 Q434.0625,115.6875 434.4688,115.3281 Q434.7344,115.125 434.875,115.0625 Q435.0156,115 435.1875,115 Q435.5156,115 435.75,115.2656 Q436,115.5156 436,115.875 Q436,116.2188 435.6563,116.625 Q435.1563,117.2188 434.3594,117.5469 Q433.3125,118 432.0313,118 Q430.5313,118 429.3281,117.4063 Q428.3594,116.9375 427.6719,115.9219 Q427,114.9063 427,113.7031 L427,112.6094 Q427,111.3594 427.5938,110.2656 Q428.2031,109.1719 429.25,108.5938 Q430.3125,108 431.5,108 Q432.2188,108 432.8438,108.25 Q433.4688,108.5 434,109 Z " fill="#000000"/><text fill="#000000" font-family="sans-serif" font-size="12" lengthAdjust="spacing" textLength="73" x="446" y="117.4102">Administrator</text><line style="stroke:#A80036;stroke-width:1.5;" x1="418" x2="521" y1="128.5" y2="128.5"/><text fill="#000000" font-family="sans-serif" font-size="11" lengthAdjust="spacing" textLength="30" x="423" y="143.9189">-name</text><text fill="#000000" font-family="sans-serif" font-size="11" lengthAdjust="spacing" textLength="43" x="423" y="157.7549">-function</text><text fill="#000000" font-family="sans-serif" font-size="11" lengthAdjust="spacing" textLength="34" x="423" y="171.5908">-phone</text><text fill="#000000" font-family="sans-serif" font-size="11" lengthAdjust="spacing" textLength="28" x="423" y="185.4268">-email</text><!--MD5=[52273af76e8d5d694dcae9f1ae7a2c6f]
link Platform to Employee--><path codeLine="32" d="M85.08,89 C113.19,89 151.51,89 180.86,89 " fill="none" id="Platform-Employee" style="stroke:#A80036;stroke-width:1.0;"/><polygon fill="#000000" points="125,80.1758,115.9549,77.2369,115.9549,83.1147,125,80.1758" style="stroke:#000000;stroke-width:1.0;"/><text fill="#000000" font-family="sans-serif" font-size="13" lengthAdjust="spacing" textLength="21" x="129" y="85.4951">has</text><text fill="#000000" font-family="sans-serif" font-size="13" lengthAdjust="spacing" textLength="7" x="92.9307" y="104.0177">1</text><text fill="#000000" font-family="sans-serif" font-size="13" lengthAdjust="spacing" textLength="5" x="168.0524" y="103.8344">*</text><!--MD5=[eb26612de61dd8dbb0a120dc7fb20bfc]
link Employee to Category--><path codeLine="33" d="M270.04,79.1 C311.82,69.61 374.85,55.28 418.62,45.34 " fill="none" id="Employee-Category" style="stroke:#A80036;stroke-width:1.0;"/><polygon fill="#000000" points="309.8757,44.0679,300.4043,43.2062,301.7066,48.9379,309.8757,44.0679" style="stroke:#000000;stroke-width:1.0;"/><text fill="#000000" font-family="sans-serif" font-size="13" lengthAdjust="spacing" textLength="72" x="314" y="50.4951">classified as</text><text fill="#000000" font-family="sans-serif" font-size="13" lengthAdjust="spacing" textLength="5" x="278.125" y="92.2833">*</text><text fill="#000000" font-family="sans-serif" font-size="13" lengthAdjust="spacing" textLength="7" x="403.9728" y="61.5911">1</text><!--MD5=[b8a4f1f13c2d56b2385b1bfafed8418f]
link Employee to Administrator--><path codeLine="34" d="M270.04,98.9 C311.28,108.27 373.21,122.34 416.9,132.27 " fill="none" id="Employee-Administrator" style="stroke:#A80036;stroke-width:1.0;"/><polygon fill="#000000" points="326.3757,98.2837,318.2067,93.4136,316.9043,99.1454,326.3757,98.2837" style="stroke:#000000;stroke-width:1.0;"/><text fill="#000000" font-family="sans-serif" font-size="13" lengthAdjust="spacing" textLength="39" x="330.5" y="102.4951">can be</text><text fill="#000000" font-family="sans-serif" font-size="13" lengthAdjust="spacing" textLength="20" x="278.0506" y="115.0368">1..*</text><text fill="#000000" font-family="sans-serif" font-size="13" lengthAdjust="spacing" textLength="20" x="388.8794" y="145.2877">1..*</text><!--MD5=[b66eb79001060ac19e2fa81c577108ad]
@startuml
hide methods
left to right direction
skinparam classAttributeIconSize 0


class Platform {
  -designation
}

class Employee {
	-Employee ID;
	-Name;
	-Address;
	-Phone Number;
	-E-Mail;
	-Standard Occupational Classification (SOC) code.
}

enum Category {
  -Organization Role
}

class Administrator {
  -name
  -function
  -phone
  -email
}



Platform "1" - - "*" Employee : has >
Employee "*" - - "1" Category: classified as >
Employee "1..*" - - "1..*" Administrator: can be >



@enduml

PlantUML version 1.2021.4(Sun Apr 04 09:49:39 BST 2021)
(GPL source distribution)
Java Runtime: OpenJDK Runtime Environment
JVM: Dynamic Code Evolution 64-Bit Server VM
Default Encoding: Cp1252
Language: pt
Country: PT
--></g></svg>