<?xml version="1.0" encoding="UTF-8" standalone="no"?><svg xmlns="http://www.w3.org/2000/svg" xmlns:xlink="http://www.w3.org/1999/xlink" contentScriptType="application/ecmascript" contentStyleType="text/css" height="127.5px" preserveAspectRatio="none" style="width:620px;height:127px;" version="1.1" viewBox="0 0 620 127" width="620px" zoomAndPan="magnify"><defs><filter height="300%" id="frs43tbmpf504" width="300%" x="-1" y="-1"><feGaussianBlur result="blurOut" stdDeviation="2.5"/><feColorMatrix in="blurOut" result="blurOut2" type="matrix" values="0 0 0 0 0 0 0 0 0 0 0 0 0 0 0 0 0 0 .4 0"/><feOffset dx="5.0" dy="5.0" in="blurOut2" result="blurOut3"/><feBlend in="SourceGraphic" in2="blurOut3" mode="normal"/></filter></defs><g><!--MD5=[02e4b9b7573f1156f41e60aa5b4e25a4]
class Company--><rect codeLine="7" fill="#FEFECE" filter="url(#frs43tbmpf504)" height="67.2949" id="Company" style="stroke:#A80036;stroke-width:1.875;" width="106.25" x="8.75" y="26.25"/><ellipse cx="27.5" cy="46.25" fill="#ADD1B2" rx="13.75" ry="13.75" style="stroke:#A80036;stroke-width:1.25;"/><path d="M30,41.875 Q30.2539,41.25 30.5469,40.9375 Q30.8398,40.625 31.1719,40.625 Q31.7578,40.625 32.1289,40.9766 Q32.5,41.3281 32.5,42.1484 L32.5,44.1016 Q32.5,44.9219 32.1484,45.2734 Q31.7969,45.625 31.25,45.625 Q30.7617,45.625 30.4492,45.4102 Q30.1367,45.1953 30,44.6289 Q29.9414,44.2383 29.7266,44.0234 Q29.3359,43.6133 28.6328,43.3789 Q27.9297,43.125 27.2266,43.125 Q26.3477,43.125 25.6055,43.4766 Q24.8828,43.8281 24.3164,44.6094 Q23.75,45.3906 23.75,46.4648 L23.75,47.6172 Q23.75,48.9063 24.8047,49.7656 Q25.8594,50.625 27.7344,50.625 Q28.8477,50.625 29.6289,50.3711 Q30.0781,50.2344 30.5859,49.7852 Q30.918,49.5313 31.0938,49.4531 Q31.2695,49.375 31.4844,49.375 Q31.8945,49.375 32.1875,49.707 Q32.5,50.0195 32.5,50.4688 Q32.5,50.8984 32.0703,51.4063 Q31.4453,52.1484 30.4492,52.5586 Q29.1406,53.125 27.5391,53.125 Q25.6641,53.125 24.1602,52.3828 Q22.9492,51.7969 22.0898,50.5273 Q21.25,49.2578 21.25,47.7539 L21.25,46.3867 Q21.25,44.8242 21.9922,43.457 Q22.7539,42.0898 24.0625,41.3672 Q25.3906,40.625 26.875,40.625 Q27.7734,40.625 28.5547,40.9375 Q29.3359,41.25 30,41.875 Z " fill="#000000"/><text fill="#000000" font-family="sans-serif" font-size="15" lengthAdjust="spacing" textLength="66.25" x="45" y="52.3877">Company</text><line style="stroke:#A80036;stroke-width:1.875;" x1="10" x2="113.75" y1="66.25" y2="66.25"/><text fill="#000000" font-family="sans-serif" font-size="13.75" lengthAdjust="spacing" textLength="73.75" x="16.25" y="85.5237">-designation</text><!--MD5=[df38be88ccee13e832d6fafd6288a4ca]
class Test--><rect codeLine="11" fill="#FEFECE" filter="url(#frs43tbmpf504)" height="101.8848" id="Test" style="stroke:#A80036;stroke-width:1.875;" width="95" x="271.25" y="8.75"/><ellipse cx="301.25" cy="28.75" fill="#ADD1B2" rx="13.75" ry="13.75" style="stroke:#A80036;stroke-width:1.25;"/><path d="M303.75,24.375 Q304.0039,23.75 304.2969,23.4375 Q304.5898,23.125 304.9219,23.125 Q305.5078,23.125 305.8789,23.4766 Q306.25,23.8281 306.25,24.6484 L306.25,26.6016 Q306.25,27.4219 305.8984,27.7734 Q305.5469,28.125 305,28.125 Q304.5117,28.125 304.1992,27.9102 Q303.8867,27.6953 303.75,27.1289 Q303.6914,26.7383 303.4766,26.5234 Q303.0859,26.1133 302.3828,25.8789 Q301.6797,25.625 300.9766,25.625 Q300.0977,25.625 299.3555,25.9766 Q298.6328,26.3281 298.0664,27.1094 Q297.5,27.8906 297.5,28.9648 L297.5,30.1172 Q297.5,31.4063 298.5547,32.2656 Q299.6094,33.125 301.4844,33.125 Q302.5977,33.125 303.3789,32.8711 Q303.8281,32.7344 304.3359,32.2852 Q304.668,32.0313 304.8438,31.9531 Q305.0195,31.875 305.2344,31.875 Q305.6445,31.875 305.9375,32.207 Q306.25,32.5195 306.25,32.9688 Q306.25,33.3984 305.8203,33.9063 Q305.1953,34.6484 304.1992,35.0586 Q302.8906,35.625 301.2891,35.625 Q299.4141,35.625 297.9102,34.8828 Q296.6992,34.2969 295.8398,33.0273 Q295,31.7578 295,30.2539 L295,28.8867 Q295,27.3242 295.7422,25.957 Q296.5039,24.5898 297.8125,23.8672 Q299.1406,23.125 300.625,23.125 Q301.5234,23.125 302.3047,23.4375 Q303.0859,23.75 303.75,24.375 Z " fill="#000000"/><text fill="#000000" font-family="sans-serif" font-size="15" lengthAdjust="spacing" textLength="30" x="321.25" y="34.8877">Test</text><line style="stroke:#A80036;stroke-width:1.875;" x1="272.5" x2="365" y1="48.75" y2="48.75"/><text fill="#000000" font-family="sans-serif" font-size="13.75" lengthAdjust="spacing" textLength="58.75" x="278.75" y="68.0237">-nhsCode</text><text fill="#000000" font-family="sans-serif" font-size="13.75" lengthAdjust="spacing" textLength="80" x="278.75" y="85.3186">-internalCode</text><text fill="#000000" font-family="sans-serif" font-size="13.75" lengthAdjust="spacing" textLength="68.75" x="278.75" y="102.6135">-createdAT</text><!--MD5=[9681492165142af2a4a3a169d90ee8d4]
class Sample--><rect codeLine="17" fill="#FEFECE" filter="url(#frs43tbmpf504)" height="67.2949" id="Sample" style="stroke:#A80036;stroke-width:1.875;" width="116.25" x="486.25" y="26.25"/><ellipse cx="515.125" cy="46.25" fill="#ADD1B2" rx="13.75" ry="13.75" style="stroke:#A80036;stroke-width:1.25;"/><path d="M517.625,41.875 Q517.8789,41.25 518.1719,40.9375 Q518.4648,40.625 518.7969,40.625 Q519.3828,40.625 519.7539,40.9766 Q520.125,41.3281 520.125,42.1484 L520.125,44.1016 Q520.125,44.9219 519.7734,45.2734 Q519.4219,45.625 518.875,45.625 Q518.3867,45.625 518.0742,45.4102 Q517.7617,45.1953 517.625,44.6289 Q517.5664,44.2383 517.3516,44.0234 Q516.9609,43.6133 516.2578,43.3789 Q515.5547,43.125 514.8516,43.125 Q513.9727,43.125 513.2305,43.4766 Q512.5078,43.8281 511.9414,44.6094 Q511.375,45.3906 511.375,46.4648 L511.375,47.6172 Q511.375,48.9063 512.4297,49.7656 Q513.4844,50.625 515.3594,50.625 Q516.4727,50.625 517.2539,50.3711 Q517.7031,50.2344 518.2109,49.7852 Q518.543,49.5313 518.7188,49.4531 Q518.8945,49.375 519.1094,49.375 Q519.5195,49.375 519.8125,49.707 Q520.125,50.0195 520.125,50.4688 Q520.125,50.8984 519.6953,51.4063 Q519.0703,52.1484 518.0742,52.5586 Q516.7656,53.125 515.1641,53.125 Q513.2891,53.125 511.7852,52.3828 Q510.5742,51.7969 509.7148,50.5273 Q508.875,49.2578 508.875,47.7539 L508.875,46.3867 Q508.875,44.8242 509.6172,43.457 Q510.3789,42.0898 511.6875,41.3672 Q513.0156,40.625 514.5,40.625 Q515.3984,40.625 516.1797,40.9375 Q516.9609,41.25 517.625,41.875 Z " fill="#000000"/><text fill="#000000" font-family="sans-serif" font-size="15" lengthAdjust="spacing" textLength="53.75" x="534.875" y="52.3877">Sample</text><line style="stroke:#A80036;stroke-width:1.875;" x1="487.5" x2="601.25" y1="66.25" y2="66.25"/><text fill="#000000" font-family="sans-serif" font-size="13.75" lengthAdjust="spacing" textLength="101.25" x="493.75" y="85.5237">-barcodeNumber</text><!--MD5=[7e4bc624457760b649895ff2ead938fa]
link Company to Test--><path codeLine="21" d="M115.2125,60 C161,60 227.0125,60 271.0375,60 " fill="none" id="Company-Test" style="stroke:#A80036;stroke-width:1.25;"/><polygon fill="#000000" points="165,48.9697,153.6936,45.2961,153.6936,52.6434,165,48.9697" style="stroke:#000000;stroke-width:1.25;"/><text fill="#000000" font-family="sans-serif" font-size="16.25" lengthAdjust="spacing" textLength="62.5" x="170" y="55.6189">performs</text><text fill="#000000" font-family="sans-serif" font-size="16.25" lengthAdjust="spacing" textLength="8.75" x="125.1318" y="78.643">1</text><text fill="#000000" font-family="sans-serif" font-size="16.25" lengthAdjust="spacing" textLength="6.25" x="255.0966" y="78.8757">*</text><!--MD5=[b72ac8ab7fb5921fceb5036a3902baea]
link Test to Sample--><path codeLine="22" d="M366.775,60 C401.5375,60 449.125,60 486.1125,60 " fill="none" id="Test-Sample" style="stroke:#A80036;stroke-width:1.25;"/><polygon fill="#000000" points="416.25,48.9697,404.9436,45.2961,404.9436,52.6434,416.25,48.9697" style="stroke:#000000;stroke-width:1.25;"/><text fill="#000000" font-family="sans-serif" font-size="16.25" lengthAdjust="spacing" textLength="26.25" x="421.25" y="55.6189">has</text><text fill="#000000" font-family="sans-serif" font-size="16.25" lengthAdjust="spacing" textLength="30" x="376.4257" y="78.4809">1...*</text><text fill="#000000" font-family="sans-serif" font-size="16.25" lengthAdjust="spacing" textLength="6.25" x="470.0789" y="78.514">*</text><!--MD5=[b91348639d8a41e520e3172c8a273b17]
@startuml
'https://plantuml.com/sequence-diagram

hide methods
left to right direction
skinparam classAttributeIconSize 0

class Company {
 -designation
}

class Test {
  - nhsCode
  - internalCode
  - createdAT
 }

class Sample{
 -barcodeNumber
}

Company "1" - - "*" Test : performs >
Test "1...*" - - "*" Sample : has >
@enduml

@startuml

hide methods
left to right direction
skinparam classAttributeIconSize 0

class Company {
 -designation
}

class Test {
  - nhsCode
  - internalCode
  - createdAT
 }

class Sample{
 -barcodeNumber
}

Company "1" - - "*" Test : performs >
Test "1...*" - - "*" Sample : has >
@enduml

PlantUML version 1.2021.4(Sun Apr 04 09:49:39 BST 2021)
(GPL source distribution)
Java Runtime: OpenJDK Runtime Environment
JVM: Dynamic Code Evolution 64-Bit Server VM
Default Encoding: Cp1252
Language: pt
Country: PT
--></g></svg>