<?xml version="1.0" encoding="UTF-8" standalone="no"?><svg xmlns="http://www.w3.org/2000/svg" xmlns:xlink="http://www.w3.org/1999/xlink" contentScriptType="application/ecmascript" contentStyleType="text/css" height="220px" preserveAspectRatio="none" style="width:160px;height:220px;" version="1.1" viewBox="0 0 160 220" width="160px" zoomAndPan="magnify"><defs><filter height="300%" id="fb4bcmpjte9tc" width="300%" x="-1" y="-1"><feGaussianBlur result="blurOut" stdDeviation="2.0"/><feColorMatrix in="blurOut" result="blurOut2" type="matrix" values="0 0 0 0 0 0 0 0 0 0 0 0 0 0 0 0 0 0 .4 0"/><feOffset dx="4.0" dy="4.0" in="blurOut2" result="blurOut3"/><feBlend in="SourceGraphic" in2="blurOut3" mode="normal"/></filter></defs><g><!--MD5=[02e4b9b7573f1156f41e60aa5b4e25a4]
class Company--><rect codeLine="7" fill="#FEFECE" filter="url(#fb4bcmpjte9tc)" height="53.8359" id="Company" style="stroke:#A80036;stroke-width:1.5;" width="85" x="34" y="7"/><ellipse cx="49" cy="23" fill="#ADD1B2" rx="11" ry="11" style="stroke:#A80036;stroke-width:1.0;"/><path d="M51,19.5 Q51.2031,19 51.4375,18.75 Q51.6719,18.5 51.9375,18.5 Q52.4063,18.5 52.7031,18.7813 Q53,19.0625 53,19.7188 L53,21.2813 Q53,21.9375 52.7188,22.2188 Q52.4375,22.5 52,22.5 Q51.6094,22.5 51.3594,22.3281 Q51.1094,22.1563 51,21.7031 Q50.9531,21.3906 50.7813,21.2188 Q50.4688,20.8906 49.9063,20.7031 Q49.3438,20.5 48.7813,20.5 Q48.0781,20.5 47.4844,20.7813 Q46.9063,21.0625 46.4531,21.6875 Q46,22.3125 46,23.1719 L46,24.0938 Q46,25.125 46.8438,25.8125 Q47.6875,26.5 49.1875,26.5 Q50.0781,26.5 50.7031,26.2969 Q51.0625,26.1875 51.4688,25.8281 Q51.7344,25.625 51.875,25.5625 Q52.0156,25.5 52.1875,25.5 Q52.5156,25.5 52.75,25.7656 Q53,26.0156 53,26.375 Q53,26.7188 52.6563,27.125 Q52.1563,27.7188 51.3594,28.0469 Q50.3125,28.5 49.0313,28.5 Q47.5313,28.5 46.3281,27.9063 Q45.3594,27.4375 44.6719,26.4219 Q44,25.4063 44,24.2031 L44,23.1094 Q44,21.8594 44.5938,20.7656 Q45.2031,19.6719 46.25,19.0938 Q47.3125,18.5 48.5,18.5 Q49.2188,18.5 49.8438,18.75 Q50.4688,19 51,19.5 Z " fill="#000000"/><text fill="#000000" font-family="sans-serif" font-size="12" lengthAdjust="spacing" textLength="53" x="63" y="27.9102">Company</text><line style="stroke:#A80036;stroke-width:1.5;" x1="35" x2="118" y1="39" y2="39"/><text fill="#000000" font-family="sans-serif" font-size="11" lengthAdjust="spacing" textLength="59" x="40" y="54.4189">-designation</text><!--MD5=[36afb6bbd95a8ac778c4537c55a683d5]
class ParameterCategory--><rect codeLine="11" fill="#FEFECE" filter="url(#fb4bcmpjte9tc)" height="67.6719" id="ParameterCategory" style="stroke:#A80036;stroke-width:1.5;" width="139" x="7" y="139"/><ellipse cx="22" cy="155" fill="#ADD1B2" rx="11" ry="11" style="stroke:#A80036;stroke-width:1.0;"/><path d="M24,151.5 Q24.2031,151 24.4375,150.75 Q24.6719,150.5 24.9375,150.5 Q25.4063,150.5 25.7031,150.7813 Q26,151.0625 26,151.7188 L26,153.2813 Q26,153.9375 25.7188,154.2188 Q25.4375,154.5 25,154.5 Q24.6094,154.5 24.3594,154.3281 Q24.1094,154.1563 24,153.7031 Q23.9531,153.3906 23.7813,153.2188 Q23.4688,152.8906 22.9063,152.7031 Q22.3438,152.5 21.7813,152.5 Q21.0781,152.5 20.4844,152.7813 Q19.9063,153.0625 19.4531,153.6875 Q19,154.3125 19,155.1719 L19,156.0938 Q19,157.125 19.8438,157.8125 Q20.6875,158.5 22.1875,158.5 Q23.0781,158.5 23.7031,158.2969 Q24.0625,158.1875 24.4688,157.8281 Q24.7344,157.625 24.875,157.5625 Q25.0156,157.5 25.1875,157.5 Q25.5156,157.5 25.75,157.7656 Q26,158.0156 26,158.375 Q26,158.7188 25.6563,159.125 Q25.1563,159.7188 24.3594,160.0469 Q23.3125,160.5 22.0313,160.5 Q20.5313,160.5 19.3281,159.9063 Q18.3594,159.4375 17.6719,158.4219 Q17,157.4063 17,156.2031 L17,155.1094 Q17,153.8594 17.5938,152.7656 Q18.2031,151.6719 19.25,151.0938 Q20.3125,150.5 21.5,150.5 Q22.2188,150.5 22.8438,150.75 Q23.4688,151 24,151.5 Z " fill="#000000"/><text fill="#000000" font-family="sans-serif" font-size="12" lengthAdjust="spacing" textLength="107" x="36" y="159.9102">ParameterCategory</text><line style="stroke:#A80036;stroke-width:1.5;" x1="8" x2="145" y1="171" y2="171"/><text fill="#000000" font-family="sans-serif" font-size="11" lengthAdjust="spacing" textLength="28" x="13" y="186.4189">-code</text><text fill="#000000" font-family="sans-serif" font-size="11" lengthAdjust="spacing" textLength="30" x="13" y="200.2549">-name</text><!--MD5=[93b4f25fb503a8e0e9a46b1d30ff3f44]
link Company to ParameterCategory--><path codeLine="16" d="M76.5,61.09 C76.5,83.22 76.5,115.08 76.5,138.98 " fill="none" id="Company-ParameterCategory" style="stroke:#A80036;stroke-width:1.0;"/><polygon fill="#000000" points="81.5,105.1758,84.4389,96.1307,78.5611,96.1307,81.5,105.1758" style="stroke:#000000;stroke-width:1.0;"/><text fill="#000000" font-family="sans-serif" font-size="13" lengthAdjust="spacing" textLength="39" x="90.5" y="105.4951">adopts</text><text fill="#000000" font-family="sans-serif" font-size="13" lengthAdjust="spacing" textLength="7" x="68.7344" y="82.3175">1</text><text fill="#000000" font-family="sans-serif" font-size="13" lengthAdjust="spacing" textLength="5" x="71.0078" y="128.2693">*</text><!--MD5=[be55f52c3a6fc1e807eca72e6d5b7d71]
@startuml

hide methods

skinparam classAttributeIconSize 0


class Company {
  -designation
}

class ParameterCategory{
    -code
    -name
}

Company"1" - - "*"ParameterCategory :> adopts




@enduml

PlantUML version 1.2021.5(Sun Apr 25 12:20:28 BST 2021)
(GPL source distribution)
Java Runtime: OpenJDK Runtime Environment
JVM: Dynamic Code Evolution 64-Bit Server VM
Default Encoding: Cp1252
Language: en
Country: US
--></g></svg>