<?xml version="1.0" encoding="UTF-8" standalone="no"?><svg xmlns="http://www.w3.org/2000/svg" xmlns:xlink="http://www.w3.org/1999/xlink" contentScriptType="application/ecmascript" contentStyleType="text/css" height="623px" preserveAspectRatio="none" style="width:746px;height:623px;background:#FFFFFF;" version="1.1" viewBox="0 0 746 623" width="746px" zoomAndPan="magnify"><defs><filter height="300%" id="f14ieqyt9me340" width="300%" x="-1" y="-1"><feGaussianBlur result="blurOut" stdDeviation="2.0"/><feColorMatrix in="blurOut" result="blurOut2" type="matrix" values="0 0 0 0 0 0 0 0 0 0 0 0 0 0 0 0 0 0 .4 0"/><feOffset dx="4.0" dy="4.0" in="blurOut2" result="blurOut3"/><feBlend in="SourceGraphic" in2="blurOut3" mode="normal"/></filter></defs><g><!--MD5=[51e7be1fc67316e87ee401e666e38435]
class ClinicalTest--><rect codeLine="3" fill="#FEFECE" filter="url(#f14ieqyt9me340)" height="81.5078" id="ClinicalTest" style="stroke:#A80036;stroke-width:1.5;" width="104" x="384" y="368"/><ellipse cx="402.15" cy="384" fill="#ADD1B2" rx="11" ry="11" style="stroke:#A80036;stroke-width:1.0;"/><path d="M404.15,380.5 Q404.3531,380 404.5875,379.75 Q404.8219,379.5 405.0875,379.5 Q405.5563,379.5 405.8531,379.7813 Q406.15,380.0625 406.15,380.7188 L406.15,382.2813 Q406.15,382.9375 405.8688,383.2188 Q405.5875,383.5 405.15,383.5 Q404.7594,383.5 404.5094,383.3281 Q404.2594,383.1563 404.15,382.7031 Q404.1031,382.3906 403.9313,382.2188 Q403.6188,381.8906 403.0563,381.7031 Q402.4938,381.5 401.9313,381.5 Q401.2281,381.5 400.6344,381.7813 Q400.0563,382.0625 399.6031,382.6875 Q399.15,383.3125 399.15,384.1719 L399.15,385.0938 Q399.15,386.125 399.9938,386.8125 Q400.8375,387.5 402.3375,387.5 Q403.2281,387.5 403.8531,387.2969 Q404.2125,387.1875 404.6188,386.8281 Q404.8844,386.625 405.025,386.5625 Q405.1656,386.5 405.3375,386.5 Q405.6656,386.5 405.9,386.7656 Q406.15,387.0156 406.15,387.375 Q406.15,387.7188 405.8063,388.125 Q405.3063,388.7188 404.5094,389.0469 Q403.4625,389.5 402.1813,389.5 Q400.6813,389.5 399.4781,388.9063 Q398.5094,388.4375 397.8219,387.4219 Q397.15,386.4063 397.15,385.2031 L397.15,384.1094 Q397.15,382.8594 397.7438,381.7656 Q398.3531,380.6719 399.4,380.0938 Q400.4625,379.5 401.65,379.5 Q402.3688,379.5 402.9938,379.75 Q403.6188,380 404.15,380.5 Z " fill="#000000"/><text fill="#000000" font-family="sans-serif" font-size="12" lengthAdjust="spacing" textLength="65" x="416.85" y="388.9102">ClinicalTest</text><line style="stroke:#A80036;stroke-width:1.5;" x1="385" x2="487" y1="400" y2="400"/><rect fill="none" height="6" style="stroke:#C82930;stroke-width:1.0;" width="6" x="392" y="408"/><text fill="#000000" font-family="sans-serif" font-size="11" lengthAdjust="spacing" textLength="78" x="404" y="415.4189">labWereCreated</text><rect fill="none" height="6" style="stroke:#C82930;stroke-width:1.0;" width="6" x="392" y="421.8359"/><text fill="#000000" font-family="sans-serif" font-size="11" lengthAdjust="spacing" textLength="60" x="404" y="429.2549">internalCode</text><rect fill="none" height="6" style="stroke:#C82930;stroke-width:1.0;" width="6" x="392" y="435.6719"/><text fill="#000000" font-family="sans-serif" font-size="11" lengthAdjust="spacing" textLength="43" x="404" y="443.0908">nhsCode</text><!--MD5=[ed6624c6556d5e7b1bd23032162d20b7]
class Client--><rect codeLine="9" fill="#FEFECE" filter="url(#f14ieqyt9me340)" height="150.6875" id="Client" style="stroke:#A80036;stroke-width:1.5;" width="117" x="355.5" y="139"/><ellipse cx="394.35" cy="155" fill="#ADD1B2" rx="11" ry="11" style="stroke:#A80036;stroke-width:1.0;"/><path d="M396.35,151.5 Q396.5531,151 396.7875,150.75 Q397.0219,150.5 397.2875,150.5 Q397.7563,150.5 398.0531,150.7813 Q398.35,151.0625 398.35,151.7188 L398.35,153.2813 Q398.35,153.9375 398.0688,154.2188 Q397.7875,154.5 397.35,154.5 Q396.9594,154.5 396.7094,154.3281 Q396.4594,154.1563 396.35,153.7031 Q396.3031,153.3906 396.1313,153.2188 Q395.8188,152.8906 395.2563,152.7031 Q394.6938,152.5 394.1313,152.5 Q393.4281,152.5 392.8344,152.7813 Q392.2563,153.0625 391.8031,153.6875 Q391.35,154.3125 391.35,155.1719 L391.35,156.0938 Q391.35,157.125 392.1938,157.8125 Q393.0375,158.5 394.5375,158.5 Q395.4281,158.5 396.0531,158.2969 Q396.4125,158.1875 396.8188,157.8281 Q397.0844,157.625 397.225,157.5625 Q397.3656,157.5 397.5375,157.5 Q397.8656,157.5 398.1,157.7656 Q398.35,158.0156 398.35,158.375 Q398.35,158.7188 398.0063,159.125 Q397.5063,159.7188 396.7094,160.0469 Q395.6625,160.5 394.3813,160.5 Q392.8813,160.5 391.6781,159.9063 Q390.7094,159.4375 390.0219,158.4219 Q389.35,157.4063 389.35,156.2031 L389.35,155.1094 Q389.35,153.8594 389.9438,152.7656 Q390.5531,151.6719 391.6,151.0938 Q392.6625,150.5 393.85,150.5 Q394.5688,150.5 395.1938,150.75 Q395.8188,151 396.35,151.5 Z " fill="#000000"/><text fill="#000000" font-family="sans-serif" font-size="12" lengthAdjust="spacing" textLength="32" x="413.65" y="159.9102">Client</text><line style="stroke:#A80036;stroke-width:1.5;" x1="356.5" x2="471.5" y1="171" y2="171"/><rect fill="none" height="6" style="stroke:#C82930;stroke-width:1.0;" width="6" x="363.5" y="179"/><text fill="#000000" font-family="sans-serif" font-size="11" lengthAdjust="spacing" textLength="26" x="375.5" y="186.4189">name</text><rect fill="none" height="6" style="stroke:#C82930;stroke-width:1.0;" width="6" x="363.5" y="192.8359"/><text fill="#000000" font-family="sans-serif" font-size="11" lengthAdjust="spacing" textLength="55" x="375.5" y="200.2549">nhsNumber</text><rect fill="none" height="6" style="stroke:#C82930;stroke-width:1.0;" width="6" x="363.5" y="206.6719"/><text fill="#000000" font-family="sans-serif" font-size="11" lengthAdjust="spacing" textLength="11" x="375.5" y="214.0908">tin</text><rect fill="none" height="6" style="stroke:#C82930;stroke-width:1.0;" width="6" x="363.5" y="220.5078"/><text fill="#000000" font-family="sans-serif" font-size="11" lengthAdjust="spacing" textLength="91" x="375.5" y="227.9268">citizenCardNumber</text><rect fill="none" height="6" style="stroke:#C82930;stroke-width:1.0;" width="6" x="363.5" y="234.3438"/><text fill="#000000" font-family="sans-serif" font-size="11" lengthAdjust="spacing" textLength="42" x="375.5" y="241.7627">birthdate</text><rect fill="none" height="6" style="stroke:#C82930;stroke-width:1.0;" width="6" x="363.5" y="248.1797"/><text fill="#000000" font-family="sans-serif" font-size="11" lengthAdjust="spacing" textLength="18" x="375.5" y="255.5986">sex</text><rect fill="none" height="6" style="stroke:#C82930;stroke-width:1.0;" width="6" x="363.5" y="262.0156"/><text fill="#000000" font-family="sans-serif" font-size="11" lengthAdjust="spacing" textLength="67" x="375.5" y="269.4346">phoneNumber</text><rect fill="none" height="6" style="stroke:#C82930;stroke-width:1.0;" width="6" x="363.5" y="275.8516"/><text fill="#000000" font-family="sans-serif" font-size="11" lengthAdjust="spacing" textLength="24" x="375.5" y="283.2705">email</text><!--MD5=[20ddef7090025b04fb973268620c0974]
class DateTime--><rect codeLine="20" fill="#FEFECE" filter="url(#f14ieqyt9me340)" height="67.6719" id="DateTime" style="stroke:#A80036;stroke-width:1.5;" width="86" x="646" y="375"/><ellipse cx="661" cy="391" fill="#ADD1B2" rx="11" ry="11" style="stroke:#A80036;stroke-width:1.0;"/><path d="M663,387.5 Q663.2031,387 663.4375,386.75 Q663.6719,386.5 663.9375,386.5 Q664.4063,386.5 664.7031,386.7813 Q665,387.0625 665,387.7188 L665,389.2813 Q665,389.9375 664.7188,390.2188 Q664.4375,390.5 664,390.5 Q663.6094,390.5 663.3594,390.3281 Q663.1094,390.1563 663,389.7031 Q662.9531,389.3906 662.7813,389.2188 Q662.4688,388.8906 661.9063,388.7031 Q661.3438,388.5 660.7813,388.5 Q660.0781,388.5 659.4844,388.7813 Q658.9063,389.0625 658.4531,389.6875 Q658,390.3125 658,391.1719 L658,392.0938 Q658,393.125 658.8438,393.8125 Q659.6875,394.5 661.1875,394.5 Q662.0781,394.5 662.7031,394.2969 Q663.0625,394.1875 663.4688,393.8281 Q663.7344,393.625 663.875,393.5625 Q664.0156,393.5 664.1875,393.5 Q664.5156,393.5 664.75,393.7656 Q665,394.0156 665,394.375 Q665,394.7188 664.6563,395.125 Q664.1563,395.7188 663.3594,396.0469 Q662.3125,396.5 661.0313,396.5 Q659.5313,396.5 658.3281,395.9063 Q657.3594,395.4375 656.6719,394.4219 Q656,393.4063 656,392.2031 L656,391.1094 Q656,389.8594 656.5938,388.7656 Q657.2031,387.6719 658.25,387.0938 Q659.3125,386.5 660.5,386.5 Q661.2188,386.5 661.8438,386.75 Q662.4688,387 663,387.5 Z " fill="#000000"/><text fill="#000000" font-family="sans-serif" font-size="12" lengthAdjust="spacing" textLength="54" x="675" y="395.9102">DateTime</text><line style="stroke:#A80036;stroke-width:1.5;" x1="647" x2="731" y1="407" y2="407"/><rect fill="none" height="6" style="stroke:#C82930;stroke-width:1.0;" width="6" x="654" y="415"/><text fill="#000000" font-family="sans-serif" font-size="11" lengthAdjust="spacing" textLength="21" x="666" y="422.4189">date</text><rect fill="none" height="6" style="stroke:#C82930;stroke-width:1.0;" width="6" x="654" y="428.8359"/><text fill="#000000" font-family="sans-serif" font-size="11" lengthAdjust="spacing" textLength="19" x="666" y="436.2549">time</text><!--MD5=[0f07739f46effee96e095e9c408da841]
class TestParameter--><rect codeLine="25" fill="#FEFECE" filter="url(#f14ieqyt9me340)" height="40" id="TestParameter" style="stroke:#A80036;stroke-width:1.5;" width="114" x="69" y="389"/><ellipse cx="84" cy="405" fill="#ADD1B2" rx="11" ry="11" style="stroke:#A80036;stroke-width:1.0;"/><path d="M86,401.5 Q86.2031,401 86.4375,400.75 Q86.6719,400.5 86.9375,400.5 Q87.4063,400.5 87.7031,400.7813 Q88,401.0625 88,401.7188 L88,403.2813 Q88,403.9375 87.7188,404.2188 Q87.4375,404.5 87,404.5 Q86.6094,404.5 86.3594,404.3281 Q86.1094,404.1563 86,403.7031 Q85.9531,403.3906 85.7813,403.2188 Q85.4688,402.8906 84.9063,402.7031 Q84.3438,402.5 83.7813,402.5 Q83.0781,402.5 82.4844,402.7813 Q81.9063,403.0625 81.4531,403.6875 Q81,404.3125 81,405.1719 L81,406.0938 Q81,407.125 81.8438,407.8125 Q82.6875,408.5 84.1875,408.5 Q85.0781,408.5 85.7031,408.2969 Q86.0625,408.1875 86.4688,407.8281 Q86.7344,407.625 86.875,407.5625 Q87.0156,407.5 87.1875,407.5 Q87.5156,407.5 87.75,407.7656 Q88,408.0156 88,408.375 Q88,408.7188 87.6563,409.125 Q87.1563,409.7188 86.3594,410.0469 Q85.3125,410.5 84.0313,410.5 Q82.5313,410.5 81.3281,409.9063 Q80.3594,409.4375 79.6719,408.4219 Q79,407.4063 79,406.2031 L79,405.1094 Q79,403.8594 79.5938,402.7656 Q80.2031,401.6719 81.25,401.0938 Q82.3125,400.5 83.5,400.5 Q84.2188,400.5 84.8438,400.75 Q85.4688,401 86,401.5 Z " fill="#000000"/><text fill="#000000" font-family="sans-serif" font-size="12" lengthAdjust="spacing" textLength="82" x="98" y="409.9102">TestParameter</text><line style="stroke:#A80036;stroke-width:1.5;" x1="70" x2="182" y1="421" y2="421"/><!--MD5=[1f6362a5c8f21d8d6a0fce68f3a92a4e]
class Parameter--><rect codeLine="28" fill="#FEFECE" filter="url(#f14ieqyt9me340)" height="81.5078" id="Parameter" style="stroke:#A80036;stroke-width:1.5;" width="90" x="93" y="173.5"/><ellipse cx="108" cy="189.5" fill="#ADD1B2" rx="11" ry="11" style="stroke:#A80036;stroke-width:1.0;"/><path d="M110,186 Q110.2031,185.5 110.4375,185.25 Q110.6719,185 110.9375,185 Q111.4063,185 111.7031,185.2813 Q112,185.5625 112,186.2188 L112,187.7813 Q112,188.4375 111.7188,188.7188 Q111.4375,189 111,189 Q110.6094,189 110.3594,188.8281 Q110.1094,188.6563 110,188.2031 Q109.9531,187.8906 109.7813,187.7188 Q109.4688,187.3906 108.9063,187.2031 Q108.3438,187 107.7813,187 Q107.0781,187 106.4844,187.2813 Q105.9063,187.5625 105.4531,188.1875 Q105,188.8125 105,189.6719 L105,190.5938 Q105,191.625 105.8438,192.3125 Q106.6875,193 108.1875,193 Q109.0781,193 109.7031,192.7969 Q110.0625,192.6875 110.4688,192.3281 Q110.7344,192.125 110.875,192.0625 Q111.0156,192 111.1875,192 Q111.5156,192 111.75,192.2656 Q112,192.5156 112,192.875 Q112,193.2188 111.6563,193.625 Q111.1563,194.2188 110.3594,194.5469 Q109.3125,195 108.0313,195 Q106.5313,195 105.3281,194.4063 Q104.3594,193.9375 103.6719,192.9219 Q103,191.9063 103,190.7031 L103,189.6094 Q103,188.3594 103.5938,187.2656 Q104.2031,186.1719 105.25,185.5938 Q106.3125,185 107.5,185 Q108.2188,185 108.8438,185.25 Q109.4688,185.5 110,186 Z " fill="#000000"/><text fill="#000000" font-family="sans-serif" font-size="12" lengthAdjust="spacing" textLength="58" x="122" y="194.4102">Parameter</text><line style="stroke:#A80036;stroke-width:1.5;" x1="94" x2="182" y1="205.5" y2="205.5"/><rect fill="none" height="6" style="stroke:#C82930;stroke-width:1.0;" width="6" x="101" y="213.5"/><text fill="#000000" font-family="sans-serif" font-size="11" lengthAdjust="spacing" textLength="52" x="113" y="220.9189">shortName</text><rect fill="none" height="6" style="stroke:#C82930;stroke-width:1.0;" width="6" x="101" y="227.3359"/><text fill="#000000" font-family="sans-serif" font-size="11" lengthAdjust="spacing" textLength="24" x="113" y="234.7549">code</text><rect fill="none" height="6" style="stroke:#C82930;stroke-width:1.0;" width="6" x="101" y="241.1719"/><text fill="#000000" font-family="sans-serif" font-size="11" lengthAdjust="spacing" textLength="53" x="113" y="248.5908">description</text><!--MD5=[4e608140b854dae633589343bce77383]
class TestParameterResult--><rect codeLine="34" fill="#FEFECE" filter="url(#f14ieqyt9me340)" height="67.6719" id="TestParameterResult" style="stroke:#A80036;stroke-width:1.5;" width="150" x="7" y="535"/><ellipse cx="22" cy="551" fill="#ADD1B2" rx="11" ry="11" style="stroke:#A80036;stroke-width:1.0;"/><path d="M24,547.5 Q24.2031,547 24.4375,546.75 Q24.6719,546.5 24.9375,546.5 Q25.4063,546.5 25.7031,546.7813 Q26,547.0625 26,547.7188 L26,549.2813 Q26,549.9375 25.7188,550.2188 Q25.4375,550.5 25,550.5 Q24.6094,550.5 24.3594,550.3281 Q24.1094,550.1563 24,549.7031 Q23.9531,549.3906 23.7813,549.2188 Q23.4688,548.8906 22.9063,548.7031 Q22.3438,548.5 21.7813,548.5 Q21.0781,548.5 20.4844,548.7813 Q19.9063,549.0625 19.4531,549.6875 Q19,550.3125 19,551.1719 L19,552.0938 Q19,553.125 19.8438,553.8125 Q20.6875,554.5 22.1875,554.5 Q23.0781,554.5 23.7031,554.2969 Q24.0625,554.1875 24.4688,553.8281 Q24.7344,553.625 24.875,553.5625 Q25.0156,553.5 25.1875,553.5 Q25.5156,553.5 25.75,553.7656 Q26,554.0156 26,554.375 Q26,554.7188 25.6563,555.125 Q25.1563,555.7188 24.3594,556.0469 Q23.3125,556.5 22.0313,556.5 Q20.5313,556.5 19.3281,555.9063 Q18.3594,555.4375 17.6719,554.4219 Q17,553.4063 17,552.2031 L17,551.1094 Q17,549.8594 17.5938,548.7656 Q18.2031,547.6719 19.25,547.0938 Q20.3125,546.5 21.5,546.5 Q22.2188,546.5 22.8438,546.75 Q23.4688,547 24,547.5 Z " fill="#000000"/><text fill="#000000" font-family="sans-serif" font-size="12" lengthAdjust="spacing" textLength="118" x="36" y="555.9102">TestParameterResult</text><line style="stroke:#A80036;stroke-width:1.5;" x1="8" x2="156" y1="567" y2="567"/><rect fill="none" height="6" style="stroke:#C82930;stroke-width:1.0;" width="6" x="15" y="575"/><text fill="#000000" font-family="sans-serif" font-size="11" lengthAdjust="spacing" textLength="26" x="27" y="582.4189">value</text><rect fill="none" height="6" style="stroke:#C82930;stroke-width:1.0;" width="6" x="15" y="588.8359"/><text fill="#000000" font-family="sans-serif" font-size="11" lengthAdjust="spacing" textLength="29" x="27" y="596.2549">metric</text><!--MD5=[1c357e7e7fdba398bcadd6e61afe49f5]
class ReferenceValue--><rect codeLine="39" fill="#FEFECE" filter="url(#f14ieqyt9me340)" height="81.5078" id="ReferenceValue" style="stroke:#A80036;stroke-width:1.5;" width="120" x="228" y="528"/><ellipse cx="243" cy="544" fill="#ADD1B2" rx="11" ry="11" style="stroke:#A80036;stroke-width:1.0;"/><path d="M245,540.5 Q245.2031,540 245.4375,539.75 Q245.6719,539.5 245.9375,539.5 Q246.4063,539.5 246.7031,539.7813 Q247,540.0625 247,540.7188 L247,542.2813 Q247,542.9375 246.7188,543.2188 Q246.4375,543.5 246,543.5 Q245.6094,543.5 245.3594,543.3281 Q245.1094,543.1563 245,542.7031 Q244.9531,542.3906 244.7813,542.2188 Q244.4688,541.8906 243.9063,541.7031 Q243.3438,541.5 242.7813,541.5 Q242.0781,541.5 241.4844,541.7813 Q240.9063,542.0625 240.4531,542.6875 Q240,543.3125 240,544.1719 L240,545.0938 Q240,546.125 240.8438,546.8125 Q241.6875,547.5 243.1875,547.5 Q244.0781,547.5 244.7031,547.2969 Q245.0625,547.1875 245.4688,546.8281 Q245.7344,546.625 245.875,546.5625 Q246.0156,546.5 246.1875,546.5 Q246.5156,546.5 246.75,546.7656 Q247,547.0156 247,547.375 Q247,547.7188 246.6563,548.125 Q246.1563,548.7188 245.3594,549.0469 Q244.3125,549.5 243.0313,549.5 Q241.5313,549.5 240.3281,548.9063 Q239.3594,548.4375 238.6719,547.4219 Q238,546.4063 238,545.2031 L238,544.1094 Q238,542.8594 238.5938,541.7656 Q239.2031,540.6719 240.25,540.0938 Q241.3125,539.5 242.5,539.5 Q243.2188,539.5 243.8438,539.75 Q244.4688,540 245,540.5 Z " fill="#000000"/><text fill="#000000" font-family="sans-serif" font-size="12" lengthAdjust="spacing" textLength="88" x="257" y="548.9102">ReferenceValue</text><line style="stroke:#A80036;stroke-width:1.5;" x1="229" x2="347" y1="560" y2="560"/><rect fill="none" height="6" style="stroke:#C82930;stroke-width:1.0;" width="6" x="236" y="568"/><text fill="#000000" font-family="sans-serif" font-size="11" lengthAdjust="spacing" textLength="48" x="248" y="575.4189">maxValue</text><rect fill="none" height="6" style="stroke:#C82930;stroke-width:1.0;" width="6" x="236" y="581.8359"/><text fill="#000000" font-family="sans-serif" font-size="11" lengthAdjust="spacing" textLength="44" x="248" y="589.2549">minValue</text><rect fill="none" height="6" style="stroke:#C82930;stroke-width:1.0;" width="6" x="236" y="595.6719"/><text fill="#000000" font-family="sans-serif" font-size="11" lengthAdjust="spacing" textLength="29" x="248" y="603.0908">metric</text><!--MD5=[02e4b9b7573f1156f41e60aa5b4e25a4]
class Company--><rect codeLine="45" fill="#FEFECE" filter="url(#f14ieqyt9me340)" height="53.8359" id="Company" style="stroke:#A80036;stroke-width:1.5;" width="85" x="315.5" y="7"/><ellipse cx="330.5" cy="23" fill="#ADD1B2" rx="11" ry="11" style="stroke:#A80036;stroke-width:1.0;"/><path d="M332.5,19.5 Q332.7031,19 332.9375,18.75 Q333.1719,18.5 333.4375,18.5 Q333.9063,18.5 334.2031,18.7813 Q334.5,19.0625 334.5,19.7188 L334.5,21.2813 Q334.5,21.9375 334.2188,22.2188 Q333.9375,22.5 333.5,22.5 Q333.1094,22.5 332.8594,22.3281 Q332.6094,22.1563 332.5,21.7031 Q332.4531,21.3906 332.2813,21.2188 Q331.9688,20.8906 331.4063,20.7031 Q330.8438,20.5 330.2813,20.5 Q329.5781,20.5 328.9844,20.7813 Q328.4063,21.0625 327.9531,21.6875 Q327.5,22.3125 327.5,23.1719 L327.5,24.0938 Q327.5,25.125 328.3438,25.8125 Q329.1875,26.5 330.6875,26.5 Q331.5781,26.5 332.2031,26.2969 Q332.5625,26.1875 332.9688,25.8281 Q333.2344,25.625 333.375,25.5625 Q333.5156,25.5 333.6875,25.5 Q334.0156,25.5 334.25,25.7656 Q334.5,26.0156 334.5,26.375 Q334.5,26.7188 334.1563,27.125 Q333.6563,27.7188 332.8594,28.0469 Q331.8125,28.5 330.5313,28.5 Q329.0313,28.5 327.8281,27.9063 Q326.8594,27.4375 326.1719,26.4219 Q325.5,25.4063 325.5,24.2031 L325.5,23.1094 Q325.5,21.8594 326.0938,20.7656 Q326.7031,19.6719 327.75,19.0938 Q328.8125,18.5 330,18.5 Q330.7188,18.5 331.3438,18.75 Q331.9688,19 332.5,19.5 Z " fill="#000000"/><text fill="#000000" font-family="sans-serif" font-size="12" lengthAdjust="spacing" textLength="53" x="344.5" y="27.9102">Company</text><line style="stroke:#A80036;stroke-width:1.5;" x1="316.5" x2="399.5" y1="39" y2="39"/><rect fill="none" height="6" style="stroke:#C82930;stroke-width:1.0;" width="6" x="323.5" y="47"/><text fill="#000000" font-family="sans-serif" font-size="11" lengthAdjust="spacing" textLength="53" x="335.5" y="54.4189">description</text><!--MD5=[f69a48f7b38bde3533dca6607cc4e94a]
class TypeOfTest--><rect codeLine="49" fill="#FEFECE" filter="url(#f14ieqyt9me340)" height="81.5078" id="TypeOfTest" style="stroke:#A80036;stroke-width:1.5;" width="106" x="383" y="528"/><ellipse cx="403.4" cy="544" fill="#ADD1B2" rx="11" ry="11" style="stroke:#A80036;stroke-width:1.0;"/><path d="M405.4,540.5 Q405.6031,540 405.8375,539.75 Q406.0719,539.5 406.3375,539.5 Q406.8063,539.5 407.1031,539.7813 Q407.4,540.0625 407.4,540.7188 L407.4,542.2813 Q407.4,542.9375 407.1188,543.2188 Q406.8375,543.5 406.4,543.5 Q406.0094,543.5 405.7594,543.3281 Q405.5094,543.1563 405.4,542.7031 Q405.3531,542.3906 405.1813,542.2188 Q404.8688,541.8906 404.3063,541.7031 Q403.7438,541.5 403.1813,541.5 Q402.4781,541.5 401.8844,541.7813 Q401.3063,542.0625 400.8531,542.6875 Q400.4,543.3125 400.4,544.1719 L400.4,545.0938 Q400.4,546.125 401.2438,546.8125 Q402.0875,547.5 403.5875,547.5 Q404.4781,547.5 405.1031,547.2969 Q405.4625,547.1875 405.8688,546.8281 Q406.1344,546.625 406.275,546.5625 Q406.4156,546.5 406.5875,546.5 Q406.9156,546.5 407.15,546.7656 Q407.4,547.0156 407.4,547.375 Q407.4,547.7188 407.0563,548.125 Q406.5563,548.7188 405.7594,549.0469 Q404.7125,549.5 403.4313,549.5 Q401.9313,549.5 400.7281,548.9063 Q399.7594,548.4375 399.0719,547.4219 Q398.4,546.4063 398.4,545.2031 L398.4,544.1094 Q398.4,542.8594 398.9938,541.7656 Q399.6031,540.6719 400.65,540.0938 Q401.7125,539.5 402.9,539.5 Q403.6188,539.5 404.2438,539.75 Q404.8688,540 405.4,540.5 Z " fill="#000000"/><text fill="#000000" font-family="sans-serif" font-size="12" lengthAdjust="spacing" textLength="62" x="418.6" y="548.9102">TypeOfTest</text><line style="stroke:#A80036;stroke-width:1.5;" x1="384" x2="488" y1="560" y2="560"/><rect fill="none" height="6" style="stroke:#C82930;stroke-width:1.0;" width="6" x="391" y="568"/><text fill="#000000" font-family="sans-serif" font-size="11" lengthAdjust="spacing" textLength="24" x="403" y="575.4189">code</text><rect fill="none" height="6" style="stroke:#C82930;stroke-width:1.0;" width="6" x="391" y="581.8359"/><text fill="#000000" font-family="sans-serif" font-size="11" lengthAdjust="spacing" textLength="53" x="403" y="589.2549">description</text><rect fill="none" height="6" style="stroke:#C82930;stroke-width:1.0;" width="6" x="391" y="595.6719"/><text fill="#000000" font-family="sans-serif" font-size="11" lengthAdjust="spacing" textLength="80" x="403" y="603.0908">collectingMethod</text><!--MD5=[33e073aedc565e562ae12497760b1bba]
link Company to ClinicalTest--><path codeLine="55" d="M400.61,54.53 C432.23,71.71 472.74,100.06 490,139 C525.86,219.91 528.04,255.12 497,338 C492.99,348.72 486.51,358.87 479.24,367.96 " fill="none" id="Company-ClinicalTest" style="stroke:#A80036;stroke-width:1.0;"/><polygon fill="#000000" points="525.2166,219.5255,525.8663,210.0371,520.1651,211.4674,525.2166,219.5255" style="stroke:#000000;stroke-width:1.0;"/><text fill="#000000" font-family="sans-serif" font-size="13" lengthAdjust="spacing" textLength="50" x="533" y="219.9951">performs</text><text fill="#000000" font-family="sans-serif" font-size="13" lengthAdjust="spacing" textLength="7" x="408.5352" y="54.223">1</text><text fill="#000000" font-family="sans-serif" font-size="13" lengthAdjust="spacing" textLength="5" x="481.2422" y="357.0989">*</text><!--MD5=[6eee883fdf517d3604e8bd0f2058e9aa]
link Company to Client--><path codeLine="56" d="M366.26,61.34 C372.68,81.8 381.92,111.24 390.56,138.78 " fill="none" id="Company-Client" style="stroke:#A80036;stroke-width:1.0;"/><polygon fill="#000000" points="387.497,104.9464,387.593,95.4363,381.9848,97.1962,387.497,104.9464" style="stroke:#000000;stroke-width:1.0;"/><text fill="#000000" font-family="sans-serif" font-size="13" lengthAdjust="spacing" textLength="37" x="395" y="105.4951">knows</text><text fill="#000000" font-family="sans-serif" font-size="13" lengthAdjust="spacing" textLength="7" x="360.2417" y="82.1772">1</text><text fill="#000000" font-family="sans-serif" font-size="13" lengthAdjust="spacing" textLength="5" x="383.0065" y="128.0666">*</text><!--MD5=[883aa0335a777615fd4fc485b329f1a5]
link TestParameter to ClinicalTest--><path codeLine="57" d="M183.22,409 C240.6,409 328.2,409 383.76,409 " fill="none" id="TestParameter-ClinicalTest" style="stroke:#A80036;stroke-width:1.0;"/><polygon fill="#000000" points="221.5,397.1758,230.5451,400.1147,230.5451,394.2369,221.5,397.1758" style="stroke:#000000;stroke-width:1.0;"/><text fill="#000000" font-family="sans-serif" font-size="13" lengthAdjust="spacing" textLength="109" x="235.5" y="402.4951">request analysis of</text><text fill="#000000" font-family="sans-serif" font-size="13" lengthAdjust="spacing" textLength="5" x="190.8716" y="405.4926">*</text><text fill="#000000" font-family="sans-serif" font-size="13" lengthAdjust="spacing" textLength="5" x="371.0622" y="405.4294">*</text><!--MD5=[0e00e25ac6b8c14659aaff2cf7e5df08]
link TestParameter to TestParameterResult--><path codeLine="58" d="M120.69,429.06 C113.4,455.24 100.18,502.73 91.24,534.82 " fill="none" id="TestParameter-TestParameterResult" style="stroke:#A80036;stroke-width:1.0;"/><polygon fill="#000000" points="109.6587,493.9925,114.9163,486.0673,109.2539,484.4906,109.6587,493.9925" style="stroke:#000000;stroke-width:1.0;"/><text fill="#000000" font-family="sans-serif" font-size="13" lengthAdjust="spacing" textLength="49" x="120" y="494.4951">contains</text><text fill="#000000" font-family="sans-serif" font-size="13" lengthAdjust="spacing" textLength="7" x="111.2122" y="450.4964">1</text><text fill="#000000" font-family="sans-serif" font-size="13" lengthAdjust="spacing" textLength="22" x="68.8935" y="524.0778">0..1</text><!--MD5=[52200cc2361fa0ac0481dd6ffcdb824b]
link TestParameterResult to ReferenceValue--><path codeLine="59" d="M157.25,569 C180.46,569 205.71,569 227.78,569 " fill="none" id="TestParameterResult-ReferenceValue" style="stroke:#A80036;stroke-width:1.0;"/><polygon fill="#000000" points="184.5,557.1758,175.4549,554.2369,175.4549,560.1147,184.5,557.1758" style="stroke:#000000;stroke-width:1.0;"/><text fill="#000000" font-family="sans-serif" font-size="13" lengthAdjust="spacing" textLength="21" x="188.5" y="562.4951">has</text><text fill="#000000" font-family="sans-serif" font-size="13" lengthAdjust="spacing" textLength="7" x="165.002" y="565.7411">1</text><text fill="#000000" font-family="sans-serif" font-size="13" lengthAdjust="spacing" textLength="7" x="213.0141" y="565.5715">1</text><!--MD5=[7229b0ead0f808a3c310201be0551613]
link ClinicalTest to DateTime--><path codeLine="60" d="M488.38,391.41 C494.1,390.02 499.89,388.83 505.5,388 C532.54,384 601.55,383.46 628.5,388 C634.2,388.96 640.08,390.4 645.84,392.08 " fill="none" id="ClinicalTest-DateTime" style="stroke:#A80036;stroke-width:1.0;"/><polygon fill="#000000" points="537,373.1971,527.9675,370.2197,527.9424,376.0975,537,373.1971" style="stroke:#000000;stroke-width:1.0;"/><text fill="#000000" font-family="sans-serif" font-size="13" lengthAdjust="spacing" textLength="65" x="541" y="378.4951">validated at</text><text fill="#000000" font-family="sans-serif" font-size="13" lengthAdjust="spacing" textLength="7" x="495.8889" y="385.5232">1</text><text fill="#000000" font-family="sans-serif" font-size="13" lengthAdjust="spacing" textLength="7" x="631.1119" y="385.504">1</text><!--MD5=[7229b0ead0f808a3c310201be0551613]
link ClinicalTest to DateTime--><path codeLine="61" d="M488.11,409 C534.69,409 602.14,409 645.78,409 " fill="none" id="ClinicalTest-DateTime-1" style="stroke:#A80036;stroke-width:1.0;"/><polygon fill="#000000" points="515.5,397.1758,506.4549,394.2369,506.4549,400.1147,515.5,397.1758" style="stroke:#000000;stroke-width:1.0;"/><text fill="#000000" font-family="sans-serif" font-size="13" lengthAdjust="spacing" textLength="108" x="519.5" y="402.4951">results recorded at</text><text fill="#000000" font-family="sans-serif" font-size="13" lengthAdjust="spacing" textLength="7" x="495.9302" y="405.4294">1</text><text fill="#000000" font-family="sans-serif" font-size="13" lengthAdjust="spacing" textLength="7" x="631.042" y="405.2264">1</text><!--MD5=[7229b0ead0f808a3c310201be0551613]
link ClinicalTest to DateTime--><path codeLine="62" d="M488.34,424.63 C497.8,426.86 507.63,428.81 517,430 C561.09,435.62 573,436.29 617,430 C626.41,428.66 636.31,426.37 645.65,423.79 " fill="none" id="ClinicalTest-DateTime-2" style="stroke:#A80036;stroke-width:1.0;"/><polygon fill="#000000" points="526.9999,421.1491,517.9393,418.2585,517.9707,424.1363,526.9999,421.1491" style="stroke:#000000;stroke-width:1.0;"/><text fill="#000000" font-family="sans-serif" font-size="13" lengthAdjust="spacing" textLength="85" x="531" y="426.4951">report saved at</text><text fill="#000000" font-family="sans-serif" font-size="13" lengthAdjust="spacing" textLength="7" x="495.8435" y="423.2071">1</text><text fill="#000000" font-family="sans-serif" font-size="13" lengthAdjust="spacing" textLength="7" x="630.8905" y="441.116">1</text><!--MD5=[7229b0ead0f808a3c310201be0551613]
link ClinicalTest to DateTime--><path codeLine="63" d="M488.41,443.05 C497.62,447.57 507.34,451.5 517,454 C538.51,459.57 595.64,460.13 617,454 C626.92,451.16 636.8,446.5 645.91,441.24 " fill="none" id="ClinicalTest-DateTime-3" style="stroke:#A80036;stroke-width:1.0;"/><polygon fill="#000000" points="540.4997,445.1183,531.4214,442.2835,531.489,448.161,540.4997,445.1183" style="stroke:#000000;stroke-width:1.0;"/><text fill="#000000" font-family="sans-serif" font-size="13" lengthAdjust="spacing" textLength="58" x="544.5" y="450.4951">created at</text><text fill="#000000" font-family="sans-serif" font-size="13" lengthAdjust="spacing" textLength="7" x="495.9229" y="444.1023">1</text><text fill="#000000" font-family="sans-serif" font-size="13" lengthAdjust="spacing" textLength="7" x="630.9023" y="461.7098">1</text><!--MD5=[dab4a90b4cb7e97efbac2bbfae23b642]
link Parameter to TestParameter--><path codeLine="64" d="M135.48,255.85 C132.94,296.65 129.12,357.94 127.2,388.8 " fill="none" id="Parameter-TestParameter" style="stroke:#A80036;stroke-width:1.0;"/><polygon fill="#000000" points="137.3108,324.1854,133.8153,333.0304,139.6818,333.3957,137.3108,324.1854" style="stroke:#000000;stroke-width:1.0;"/><text fill="#000000" font-family="sans-serif" font-size="13" lengthAdjust="spacing" textLength="52" x="146" y="334.4951">analyses</text><text fill="#000000" font-family="sans-serif" font-size="13" lengthAdjust="spacing" textLength="7" x="127.5958" y="276.6554">1</text><text fill="#000000" font-family="sans-serif" font-size="13" lengthAdjust="spacing" textLength="7" x="119.5244" y="378.063">1</text><!--MD5=[9fed595b244b0ec31545e730958a589d]
link Client to ClinicalTest--><path codeLine="65" d="M422.54,290.2 C425.56,316.62 428.84,345.33 431.4,367.79 " fill="none" id="Client-ClinicalTest" style="stroke:#A80036;stroke-width:1.0;"/><polygon fill="#000000" points="433.5673,334.1435,435.461,324.8234,429.6211,325.4902,433.5673,334.1435" style="stroke:#000000;stroke-width:1.0;"/><text fill="#000000" font-family="sans-serif" font-size="13" lengthAdjust="spacing" textLength="46" x="442" y="334.4951">asks for</text><text fill="#000000" font-family="sans-serif" font-size="13" lengthAdjust="spacing" textLength="5" x="418.0779" y="311.1792">*</text><text fill="#000000" font-family="sans-serif" font-size="13" lengthAdjust="spacing" textLength="20" x="408.9819" y="357.2046">1..*</text><!--MD5=[12d76240d3c3c66074d4ec2ea8bf469c]
link Company to Parameter--><path codeLine="66" d="M315.33,40.11 C259,47.83 164.42,64.42 143,91 C124.7,113.7 124.56,147.19 128.37,173.42 " fill="none" id="Company-Parameter" style="stroke:#A80036;stroke-width:1.0;"/><polygon fill="#000000" points="143.9289,103.0786,152.9998,100.2203,149.5873,95.4344,143.9289,103.0786" style="stroke:#000000;stroke-width:1.0;"/><text fill="#000000" font-family="sans-serif" font-size="13" lengthAdjust="spacing" textLength="118" x="157" y="105.4951">capable of analysing</text><text fill="#000000" font-family="sans-serif" font-size="13" lengthAdjust="spacing" textLength="7" x="300.3945" y="37.3246">1</text><text fill="#000000" font-family="sans-serif" font-size="13" lengthAdjust="spacing" textLength="5" x="121.2852" y="162.552">*</text><!--MD5=[a94096a703f8cfafd35bb8e5123fbbe4]
link ClinicalTest to TypeOfTest--><path codeLine="67" d="M436,450.28 C436,474.05 436,504.04 436,527.79 " fill="none" id="ClinicalTest-TypeOfTest" style="stroke:#A80036;stroke-width:1.0;"/><polygon fill="#000000" points="441,494.1758,443.9389,485.1307,438.0611,485.1307,441,494.1758" style="stroke:#000000;stroke-width:1.0;"/><text fill="#000000" font-family="sans-serif" font-size="13" lengthAdjust="spacing" textLength="24" x="450" y="494.4951">is of</text><text fill="#000000" font-family="sans-serif" font-size="13" lengthAdjust="spacing" textLength="5" x="430.6328" y="471.0751">*</text><text fill="#000000" font-family="sans-serif" font-size="13" lengthAdjust="spacing" textLength="7" x="428.4203" y="517.2046">1</text><!--MD5=[147acf42fe9475025d9b6f56a55be7cf]
link Company to TypeOfTest--><path codeLine="68" d="M351.51,61.3 C346.69,82.21 340.55,112.28 338,139 C324.84,277.16 317.85,319.84 366,450 C376.17,477.48 392.72,505.79 407.18,527.79 " fill="none" id="Company-TypeOfTest" style="stroke:#A80036;stroke-width:1.0;"/><polygon fill="#000000" points="339.5925,334.1406,341.4389,324.8109,335.6024,325.5075,339.5925,334.1406" style="stroke:#000000;stroke-width:1.0;"/><text fill="#000000" font-family="sans-serif" font-size="13" lengthAdjust="spacing" textLength="53" x="348" y="334.4951">conducts</text><text fill="#000000" font-family="sans-serif" font-size="13" lengthAdjust="spacing" textLength="7" x="342.4496" y="82.1289">1</text><text fill="#000000" font-family="sans-serif" font-size="13" lengthAdjust="spacing" textLength="5" x="396.9926" y="517.2046">*</text><!--MD5=[7ec98ad9e9b62055c8c5852dfe65ef3d]
@startuml
hide methods

class ClinicalTest {
    -labWereCreated
    -internalCode
    -nhsCode
}

class Client {
    -name
    -nhsNumber
    -tin
    -citizenCardNumber
    -birthdate
    -sex
    -phoneNumber
    -email
}

class DateTime {
    -date
    -time
}

class TestParameter{
}

class Parameter {
    -shortName
    -code
    -description
}

class TestParameterResult {
    -value
    -metric
}

class ReferenceValue {
    -maxValue
    -minValue
    -metric
}

class Company {
    -description
}

class TypeOfTest {
    -code
    -description
    -collectingMethod
}

Company"1" - - "*"ClinicalTest : > performs
Company"1" - - "*"Client : > knows
ClinicalTest"*" -left- "*"TestParameter : > request analysis of
TestParameter"1" - - "0..1"TestParameterResult : > contains
TestParameterResult"1" -right- "1"ReferenceValue : > has
ClinicalTest"1" -right- "1"DateTime : > validated at
ClinicalTest"1" -right- "1"DateTime : > results recorded at
ClinicalTest"1" -right- "1"DateTime : > report saved at
ClinicalTest"1" -right- "1"DateTime : > created at
TestParameter"1" -up- "1"Parameter : > analyses
ClinicalTest"1..*" -up- "*"Client : < asks for
Company"1" - - "*"Parameter : > capable of analysing
ClinicalTest"*" - - "1"TypeOfTest : > is of
Company"1" - - "*"TypeOfTest : > conducts

@enduml

PlantUML version 1.2021.7(Sun May 23 13:40:07 BST 2021)
(GPL source distribution)
Java Runtime: OpenJDK Runtime Environment
JVM: Dynamic Code Evolution 64-Bit Server VM
Default Encoding: Cp1252
Language: en
Country: US
--></g></svg>