<?xml version="1.0" encoding="UTF-8" standalone="no"?><svg xmlns="http://www.w3.org/2000/svg" xmlns:xlink="http://www.w3.org/1999/xlink" contentScriptType="application/ecmascript" contentStyleType="text/css" height="1811px" preserveAspectRatio="none" style="width:1863px;height:1811px;background:#FFFFFF;" version="1.1" viewBox="0 0 1863 1811" width="1863px" zoomAndPan="magnify"><defs><filter height="300%" id="f1q1dm2nwesmca" width="300%" x="-1" y="-1"><feGaussianBlur result="blurOut" stdDeviation="2.0"/><feColorMatrix in="blurOut" result="blurOut2" type="matrix" values="0 0 0 0 0 0 0 0 0 0 0 0 0 0 0 0 0 0 .4 0"/><feOffset dx="4.0" dy="4.0" in="blurOut2" result="blurOut3"/><feBlend in="SourceGraphic" in2="blurOut3" mode="normal"/></filter></defs><g><rect fill="#FFFFFF" filter="url(#f1q1dm2nwesmca)" height="30.3516" style="stroke:#A80036;stroke-width:1.0;" width="10" x="336.5" y="121.9609"/><rect fill="#FFFFFF" filter="url(#f1q1dm2nwesmca)" height="1525.4141" style="stroke:#A80036;stroke-width:1.0;" width="10" x="336.5" y="182.6641"/><rect fill="#FFFFFF" filter="url(#f1q1dm2nwesmca)" height="301.7578" style="stroke:#A80036;stroke-width:1.0;" width="10" x="529.5" y="213.0156"/><rect fill="#FFFFFF" filter="url(#f1q1dm2nwesmca)" height="1132.6016" style="stroke:#A80036;stroke-width:1.0;" width="10" x="529.5" y="545.125"/><rect fill="#FFFFFF" filter="url(#f1q1dm2nwesmca)" height="28" style="stroke:#A80036;stroke-width:1.0;" width="10" x="534.5" y="608.8281"/><rect fill="#FFFFFF" filter="url(#f1q1dm2nwesmca)" height="275.1094" style="stroke:#A80036;stroke-width:1.0;" width="10" x="534.5" y="682.1797"/><rect fill="#FFFFFF" filter="url(#f1q1dm2nwesmca)" height="442.4219" style="stroke:#A80036;stroke-width:1.0;" width="10" x="534.5" y="987.6406"/><rect fill="#FFFFFF" filter="url(#f1q1dm2nwesmca)" height="239.4063" style="stroke:#A80036;stroke-width:1.0;" width="10" x="539.5" y="1091.3438"/><rect fill="#FFFFFF" filter="url(#f1q1dm2nwesmca)" height="28" style="stroke:#A80036;stroke-width:1.0;" width="10" x="544.5" y="1220.3984"/><rect fill="#FFFFFF" filter="url(#f1q1dm2nwesmca)" height="28" style="stroke:#A80036;stroke-width:1.0;" width="10" x="534.5" y="1545.0234"/><rect fill="#FFFFFF" filter="url(#f1q1dm2nwesmca)" height="30" style="stroke:#A80036;stroke-width:1.0;" width="10" x="819.5" y="243.3672"/><rect fill="#FFFFFF" filter="url(#f1q1dm2nwesmca)" height="30" style="stroke:#A80036;stroke-width:1.0;" width="10" x="819.5" y="303.7188"/><rect fill="#FFFFFF" filter="url(#f1q1dm2nwesmca)" height="30" style="stroke:#A80036;stroke-width:1.0;" width="10" x="819.5" y="364.0703"/><rect fill="#FFFFFF" filter="url(#f1q1dm2nwesmca)" height="30" style="stroke:#A80036;stroke-width:1.0;" width="10" x="819.5" y="424.4219"/><rect fill="#FFFFFF" filter="url(#f1q1dm2nwesmca)" height="30" style="stroke:#A80036;stroke-width:1.0;" width="10" x="819.5" y="484.7734"/><rect fill="#FFFFFF" filter="url(#f1q1dm2nwesmca)" height="30.3516" style="stroke:#A80036;stroke-width:1.0;" width="10" x="912.5" y="1399.7109"/><rect fill="#FFFFFF" filter="url(#f1q1dm2nwesmca)" height="30" style="stroke:#A80036;stroke-width:1.0;" width="10" x="912.5" y="1476.6719"/><rect fill="#FFFFFF" filter="url(#f1q1dm2nwesmca)" height="30" style="stroke:#A80036;stroke-width:1.0;" width="10" x="1010.5" y="836.1016"/><rect fill="#FFFFFF" filter="url(#f1q1dm2nwesmca)" height="30" style="stroke:#A80036;stroke-width:1.0;" width="10" x="1010.5" y="912.2891"/><rect fill="#FFFFFF" filter="url(#f1q1dm2nwesmca)" height="30" style="stroke:#A80036;stroke-width:1.0;" width="10" x="1200" y="1022.9922"/><rect fill="#FFFFFF" filter="url(#f1q1dm2nwesmca)" height="30" style="stroke:#A80036;stroke-width:1.0;" width="10" x="1422" y="1152.0469"/><rect fill="#FFFFFF" filter="url(#f1q1dm2nwesmca)" height="30" style="stroke:#A80036;stroke-width:1.0;" width="10" x="1541.5" y="1285.75"/><rect fill="#FFFFFF" filter="url(#f1q1dm2nwesmca)" height="30" style="stroke:#A80036;stroke-width:1.0;" width="10" x="1787" y="1610.375"/><rect fill="#FFFFFF" filter="url(#f1q1dm2nwesmca)" height="1088.25" style="stroke:#000000;stroke-width:2.0;" width="1439" x="410.5" y="560.125"/><rect fill="#FFFFFF" filter="url(#f1q1dm2nwesmca)" height="154.8906" style="stroke:#000000;stroke-width:2.0;" width="651" x="420.5" y="795.3984"/><rect fill="#FFFFFF" height="76.1875" style="stroke:none;stroke-width:1.0;" width="651" x="420.5" y="874.1016"/><rect fill="#FFFFFF" filter="url(#f1q1dm2nwesmca)" height="212.4063" style="stroke:#000000;stroke-width:2.0;" width="1197" x="420.5" y="1111.3438"/><line style="stroke:#A80036;stroke-width:1.0;stroke-dasharray:5.0,5.0;" x1="59" x2="59" y1="89.6094" y2="1726.0781"/><line style="stroke:#A80036;stroke-width:1.0;stroke-dasharray:5.0,5.0;" x1="341.5" x2="341.5" y1="89.6094" y2="1726.0781"/><line style="stroke:#A80036;stroke-width:1.0;stroke-dasharray:5.0,5.0;" x1="534.5" x2="534.5" y1="89.6094" y2="1726.0781"/><line style="stroke:#A80036;stroke-width:1.0;stroke-dasharray:5.0,5.0;" x1="824.5" x2="824.5" y1="89.6094" y2="1726.0781"/><line style="stroke:#A80036;stroke-width:1.0;stroke-dasharray:5.0,5.0;" x1="917.5" x2="917.5" y1="89.6094" y2="1726.0781"/><line style="stroke:#A80036;stroke-width:1.0;stroke-dasharray:5.0,5.0;" x1="1015.5" x2="1015.5" y1="89.6094" y2="1726.0781"/><line style="stroke:#A80036;stroke-width:1.0;stroke-dasharray:5.0,5.0;" x1="1100.5" x2="1100.5" y1="775.0938" y2="1726.0781"/><line style="stroke:#A80036;stroke-width:1.0;stroke-dasharray:5.0,5.0;" x1="1204.5" x2="1204.5" y1="89.6094" y2="1726.0781"/><line style="stroke:#A80036;stroke-width:1.0;stroke-dasharray:5.0,5.0;" x1="1324.5" x2="1324.5" y1="728.4844" y2="1726.0781"/><line style="stroke:#A80036;stroke-width:1.0;stroke-dasharray:5.0,5.0;" x1="1426.5" x2="1426.5" y1="89.6094" y2="1726.0781"/><line style="stroke:#A80036;stroke-width:1.0;stroke-dasharray:5.0,5.0;" x1="1546.5" x2="1546.5" y1="89.6094" y2="1726.0781"/><line style="stroke:#A80036;stroke-width:1.0;stroke-dasharray:5.0,5.0;" x1="1675.5" x2="1675.5" y1="1364.0547" y2="1726.0781"/><line style="stroke:#A80036;stroke-width:1.0;stroke-dasharray:5.0,5.0;" x1="1791.5" x2="1791.5" y1="1441.0156" y2="1726.0781"/><text fill="#000000" font-family="sans-serif" font-size="14" lengthAdjust="spacing" textLength="103" x="5" y="86.5332">Lab Coordinator</text><ellipse cx="59.5" cy="15" fill="#FEFECE" filter="url(#f1q1dm2nwesmca)" rx="8" ry="8" style="stroke:#A80036;stroke-width:2.0;"/><path d="M59.5,23 L59.5,50 M46.5,31 L72.5,31 M59.5,50 L46.5,65 M59.5,50 L72.5,65 " fill="none" filter="url(#f1q1dm2nwesmca)" style="stroke:#A80036;stroke-width:2.0;"/><text fill="#000000" font-family="sans-serif" font-size="14" lengthAdjust="spacing" textLength="103" x="5" y="1739.6113">Lab Coordinator</text><ellipse cx="59.5" cy="1752.6875" fill="#FEFECE" filter="url(#f1q1dm2nwesmca)" rx="8" ry="8" style="stroke:#A80036;stroke-width:2.0;"/><path d="M59.5,1760.6875 L59.5,1787.6875 M46.5,1768.6875 L72.5,1768.6875 M59.5,1787.6875 L46.5,1802.6875 M59.5,1787.6875 L72.5,1802.6875 " fill="none" filter="url(#f1q1dm2nwesmca)" style="stroke:#A80036;stroke-width:2.0;"/><rect fill="#FEFECE" filter="url(#f1q1dm2nwesmca)" height="31.6094" style="stroke:#A80036;stroke-width:1.5;" width="154" x="262.5" y="53"/><text fill="#000000" font-family="sans-serif" font-size="14" lengthAdjust="spacing" textLength="140" x="269.5" y="74.5332">:ImportTestFromCsvUI</text><rect fill="#FEFECE" filter="url(#f1q1dm2nwesmca)" height="31.6094" style="stroke:#A80036;stroke-width:1.5;" width="154" x="262.5" y="1725.0781"/><text fill="#000000" font-family="sans-serif" font-size="14" lengthAdjust="spacing" textLength="140" x="269.5" y="1746.6113">:ImportTestFromCsvUI</text><rect fill="#FEFECE" filter="url(#f1q1dm2nwesmca)" height="31.6094" style="stroke:#A80036;stroke-width:1.5;" width="204" x="430.5" y="53"/><text fill="#000000" font-family="sans-serif" font-size="14" lengthAdjust="spacing" textLength="190" x="437.5" y="74.5332">:ImportTestFromCsvController</text><rect fill="#FEFECE" filter="url(#f1q1dm2nwesmca)" height="31.6094" style="stroke:#A80036;stroke-width:1.5;" width="204" x="430.5" y="1725.0781"/><text fill="#000000" font-family="sans-serif" font-size="14" lengthAdjust="spacing" textLength="190" x="437.5" y="1746.6113">:ImportTestFromCsvController</text><rect fill="#FEFECE" filter="url(#f1q1dm2nwesmca)" height="31.6094" style="stroke:#A80036;stroke-width:1.5;" width="78" x="783.5" y="53"/><text fill="#000000" font-family="sans-serif" font-size="14" lengthAdjust="spacing" textLength="64" x="790.5" y="74.5332">:Company</text><rect fill="#FEFECE" filter="url(#f1q1dm2nwesmca)" height="31.6094" style="stroke:#A80036;stroke-width:1.5;" width="78" x="783.5" y="1725.0781"/><text fill="#000000" font-family="sans-serif" font-size="14" lengthAdjust="spacing" textLength="64" x="790.5" y="1746.6113">:Company</text><rect fill="#FEFECE" filter="url(#f1q1dm2nwesmca)" height="31.6094" style="stroke:#A80036;stroke-width:1.5;" width="80" x="875.5" y="53"/><text fill="#000000" font-family="sans-serif" font-size="14" lengthAdjust="spacing" textLength="66" x="882.5" y="74.5332">:TestStore</text><rect fill="#FEFECE" filter="url(#f1q1dm2nwesmca)" height="31.6094" style="stroke:#A80036;stroke-width:1.5;" width="80" x="875.5" y="1725.0781"/><text fill="#000000" font-family="sans-serif" font-size="14" lengthAdjust="spacing" textLength="66" x="882.5" y="1746.6113">:TestStore</text><rect fill="#FEFECE" filter="url(#f1q1dm2nwesmca)" height="31.6094" style="stroke:#A80036;stroke-width:1.5;" width="88" x="969.5" y="53"/><text fill="#000000" font-family="sans-serif" font-size="14" lengthAdjust="spacing" textLength="74" x="976.5" y="74.5332">:ClientStore</text><rect fill="#FEFECE" filter="url(#f1q1dm2nwesmca)" height="31.6094" style="stroke:#A80036;stroke-width:1.5;" width="88" x="969.5" y="1725.0781"/><text fill="#000000" font-family="sans-serif" font-size="14" lengthAdjust="spacing" textLength="74" x="976.5" y="1746.6113">:ClientStore</text><rect fill="#FEFECE" filter="url(#f1q1dm2nwesmca)" height="31.6094" style="stroke:#A80036;stroke-width:1.5;" width="54" x="1071.5" y="1725.0781"/><text fill="#000000" font-family="sans-serif" font-size="14" lengthAdjust="spacing" textLength="40" x="1078.5" y="1746.6113">:Client</text><rect fill="#FEFECE" filter="url(#f1q1dm2nwesmca)" height="31.6094" style="stroke:#A80036;stroke-width:1.5;" width="127" x="1139.5" y="53"/><text fill="#000000" font-family="sans-serif" font-size="14" lengthAdjust="spacing" textLength="113" x="1146.5" y="74.5332">:TypeOfTestStore</text><rect fill="#FEFECE" filter="url(#f1q1dm2nwesmca)" height="31.6094" style="stroke:#A80036;stroke-width:1.5;" width="127" x="1139.5" y="1725.0781"/><text fill="#000000" font-family="sans-serif" font-size="14" lengthAdjust="spacing" textLength="113" x="1146.5" y="1746.6113">:TypeOfTestStore</text><rect fill="#FEFECE" filter="url(#f1q1dm2nwesmca)" height="31.6094" style="stroke:#A80036;stroke-width:1.5;" width="84" x="1280.5" y="1725.0781"/><text fill="#000000" font-family="sans-serif" font-size="14" lengthAdjust="spacing" textLength="70" x="1287.5" y="1746.6113">:ClientDTO</text><rect fill="#FEFECE" filter="url(#f1q1dm2nwesmca)" height="31.6094" style="stroke:#A80036;stroke-width:1.5;" width="93" x="1378.5" y="53"/><text fill="#000000" font-family="sans-serif" font-size="14" lengthAdjust="spacing" textLength="79" x="1385.5" y="74.5332">:TypeOfTest</text><rect fill="#FEFECE" filter="url(#f1q1dm2nwesmca)" height="31.6094" style="stroke:#A80036;stroke-width:1.5;" width="93" x="1378.5" y="1725.0781"/><text fill="#000000" font-family="sans-serif" font-size="14" lengthAdjust="spacing" textLength="79" x="1385.5" y="1746.6113">:TypeOfTest</text><rect fill="#FEFECE" filter="url(#f1q1dm2nwesmca)" height="31.6094" style="stroke:#A80036;stroke-width:1.5;" width="118" x="1485.5" y="53"/><text fill="#000000" font-family="sans-serif" font-size="14" lengthAdjust="spacing" textLength="104" x="1492.5" y="74.5332">:ParameterStore</text><rect fill="#FEFECE" filter="url(#f1q1dm2nwesmca)" height="31.6094" style="stroke:#A80036;stroke-width:1.5;" width="118" x="1485.5" y="1725.0781"/><text fill="#000000" font-family="sans-serif" font-size="14" lengthAdjust="spacing" textLength="104" x="1492.5" y="1746.6113">:ParameterStore</text><rect fill="#FEFECE" filter="url(#f1q1dm2nwesmca)" height="31.6094" style="stroke:#A80036;stroke-width:1.5;" width="113" x="1617.5" y="1725.0781"/><text fill="#000000" font-family="sans-serif" font-size="14" lengthAdjust="spacing" textLength="99" x="1624.5" y="1746.6113">:ClinicalTestDto</text><rect fill="#FEFECE" filter="url(#f1q1dm2nwesmca)" height="31.6094" style="stroke:#A80036;stroke-width:1.5;" width="91" x="1744.5" y="1725.0781"/><text fill="#000000" font-family="sans-serif" font-size="14" lengthAdjust="spacing" textLength="77" x="1751.5" y="1746.6113">:ClinicalTest</text><rect fill="#FFFFFF" filter="url(#f1q1dm2nwesmca)" height="30.3516" style="stroke:#A80036;stroke-width:1.0;" width="10" x="336.5" y="121.9609"/><rect fill="#FFFFFF" filter="url(#f1q1dm2nwesmca)" height="1525.4141" style="stroke:#A80036;stroke-width:1.0;" width="10" x="336.5" y="182.6641"/><rect fill="#FFFFFF" filter="url(#f1q1dm2nwesmca)" height="301.7578" style="stroke:#A80036;stroke-width:1.0;" width="10" x="529.5" y="213.0156"/><rect fill="#FFFFFF" filter="url(#f1q1dm2nwesmca)" height="1132.6016" style="stroke:#A80036;stroke-width:1.0;" width="10" x="529.5" y="545.125"/><rect fill="#FFFFFF" filter="url(#f1q1dm2nwesmca)" height="28" style="stroke:#A80036;stroke-width:1.0;" width="10" x="534.5" y="608.8281"/><rect fill="#FFFFFF" filter="url(#f1q1dm2nwesmca)" height="275.1094" style="stroke:#A80036;stroke-width:1.0;" width="10" x="534.5" y="682.1797"/><rect fill="#FFFFFF" filter="url(#f1q1dm2nwesmca)" height="442.4219" style="stroke:#A80036;stroke-width:1.0;" width="10" x="534.5" y="987.6406"/><rect fill="#FFFFFF" filter="url(#f1q1dm2nwesmca)" height="239.4063" style="stroke:#A80036;stroke-width:1.0;" width="10" x="539.5" y="1091.3438"/><rect fill="#FFFFFF" filter="url(#f1q1dm2nwesmca)" height="28" style="stroke:#A80036;stroke-width:1.0;" width="10" x="544.5" y="1220.3984"/><rect fill="#FFFFFF" filter="url(#f1q1dm2nwesmca)" height="28" style="stroke:#A80036;stroke-width:1.0;" width="10" x="534.5" y="1545.0234"/><rect fill="#FFFFFF" filter="url(#f1q1dm2nwesmca)" height="30" style="stroke:#A80036;stroke-width:1.0;" width="10" x="819.5" y="243.3672"/><rect fill="#FFFFFF" filter="url(#f1q1dm2nwesmca)" height="30" style="stroke:#A80036;stroke-width:1.0;" width="10" x="819.5" y="303.7188"/><rect fill="#FFFFFF" filter="url(#f1q1dm2nwesmca)" height="30" style="stroke:#A80036;stroke-width:1.0;" width="10" x="819.5" y="364.0703"/><rect fill="#FFFFFF" filter="url(#f1q1dm2nwesmca)" height="30" style="stroke:#A80036;stroke-width:1.0;" width="10" x="819.5" y="424.4219"/><rect fill="#FFFFFF" filter="url(#f1q1dm2nwesmca)" height="30" style="stroke:#A80036;stroke-width:1.0;" width="10" x="819.5" y="484.7734"/><rect fill="#FFFFFF" filter="url(#f1q1dm2nwesmca)" height="30.3516" style="stroke:#A80036;stroke-width:1.0;" width="10" x="912.5" y="1399.7109"/><rect fill="#FFFFFF" filter="url(#f1q1dm2nwesmca)" height="30" style="stroke:#A80036;stroke-width:1.0;" width="10" x="912.5" y="1476.6719"/><rect fill="#FFFFFF" filter="url(#f1q1dm2nwesmca)" height="30" style="stroke:#A80036;stroke-width:1.0;" width="10" x="1010.5" y="836.1016"/><rect fill="#FFFFFF" filter="url(#f1q1dm2nwesmca)" height="30" style="stroke:#A80036;stroke-width:1.0;" width="10" x="1010.5" y="912.2891"/><rect fill="#FFFFFF" filter="url(#f1q1dm2nwesmca)" height="30" style="stroke:#A80036;stroke-width:1.0;" width="10" x="1200" y="1022.9922"/><rect fill="#FFFFFF" filter="url(#f1q1dm2nwesmca)" height="30" style="stroke:#A80036;stroke-width:1.0;" width="10" x="1422" y="1152.0469"/><rect fill="#FFFFFF" filter="url(#f1q1dm2nwesmca)" height="30" style="stroke:#A80036;stroke-width:1.0;" width="10" x="1541.5" y="1285.75"/><rect fill="#FFFFFF" filter="url(#f1q1dm2nwesmca)" height="30" style="stroke:#A80036;stroke-width:1.0;" width="10" x="1787" y="1610.375"/><polygon fill="#A80036" points="324.5,117.9609,334.5,121.9609,324.5,125.9609,328.5,121.9609" style="stroke:#A80036;stroke-width:1.0;"/><line style="stroke:#A80036;stroke-width:1.0;" x1="59.5" x2="330.5" y1="121.9609" y2="121.9609"/><text fill="#000000" font-family="sans-serif" font-size="13" font-weight="bold" lengthAdjust="spacing" textLength="7" x="66.5" y="117.1045">1</text><text fill="#000000" font-family="sans-serif" font-size="13" lengthAdjust="spacing" textLength="247" x="77.5" y="117.1045">needs to import clinical tests from CSV file</text><polygon fill="#A80036" points="70.5,148.3125,60.5,152.3125,70.5,156.3125,66.5,152.3125" style="stroke:#A80036;stroke-width:1.0;"/><line style="stroke:#A80036;stroke-width:1.0;stroke-dasharray:2.0,2.0;" x1="64.5" x2="340.5" y1="152.3125" y2="152.3125"/><text fill="#000000" font-family="sans-serif" font-size="13" font-weight="bold" lengthAdjust="spacing" textLength="7" x="76.5" y="147.4561">2</text><text fill="#000000" font-family="sans-serif" font-size="13" lengthAdjust="spacing" textLength="188" x="87.5" y="147.4561">ask for the CSV file system path</text><polygon fill="#A80036" points="324.5,178.6641,334.5,182.6641,324.5,186.6641,328.5,182.6641" style="stroke:#A80036;stroke-width:1.0;"/><line style="stroke:#A80036;stroke-width:1.0;" x1="59.5" x2="330.5" y1="182.6641" y2="182.6641"/><text fill="#000000" font-family="sans-serif" font-size="13" font-weight="bold" lengthAdjust="spacing" textLength="7" x="66.5" y="177.8076">3</text><text fill="#000000" font-family="sans-serif" font-size="13" lengthAdjust="spacing" textLength="85" x="77.5" y="177.8076">enters file path</text><polygon fill="#A80036" points="517.5,209.0156,527.5,213.0156,517.5,217.0156,521.5,213.0156" style="stroke:#A80036;stroke-width:1.0;"/><line style="stroke:#A80036;stroke-width:1.0;" x1="346.5" x2="523.5" y1="213.0156" y2="213.0156"/><text fill="#000000" font-family="sans-serif" font-size="13" font-weight="bold" lengthAdjust="spacing" textLength="7" x="353.5" y="208.1592">4</text><text fill="#000000" font-family="sans-serif" font-size="13" lengthAdjust="spacing" textLength="89" x="364.5" y="208.1592">searchCsvFile()</text><polygon fill="#A80036" points="807.5,239.3672,817.5,243.3672,807.5,247.3672,811.5,243.3672" style="stroke:#A80036;stroke-width:1.0;"/><line style="stroke:#A80036;stroke-width:1.0;" x1="539.5" x2="813.5" y1="243.3672" y2="243.3672"/><text fill="#000000" font-family="sans-serif" font-size="13" font-weight="bold" lengthAdjust="spacing" textLength="7" x="546.5" y="238.5107">5</text><text fill="#000000" font-family="sans-serif" font-size="13" lengthAdjust="spacing" textLength="82" x="557.5" y="238.5107">getTestStore()</text><polygon fill="#A80036" points="807.5,299.7188,817.5,303.7188,807.5,307.7188,811.5,303.7188" style="stroke:#A80036;stroke-width:1.0;"/><line style="stroke:#A80036;stroke-width:1.0;" x1="539.5" x2="813.5" y1="303.7188" y2="303.7188"/><text fill="#000000" font-family="sans-serif" font-size="13" font-weight="bold" lengthAdjust="spacing" textLength="7" x="546.5" y="298.8623">6</text><text fill="#000000" font-family="sans-serif" font-size="13" lengthAdjust="spacing" textLength="90" x="557.5" y="298.8623">getClientStore()</text><polygon fill="#A80036" points="807.5,360.0703,817.5,364.0703,807.5,368.0703,811.5,364.0703" style="stroke:#A80036;stroke-width:1.0;"/><line style="stroke:#A80036;stroke-width:1.0;" x1="539.5" x2="813.5" y1="364.0703" y2="364.0703"/><text fill="#000000" font-family="sans-serif" font-size="13" font-weight="bold" lengthAdjust="spacing" textLength="7" x="546.5" y="359.2139">7</text><text fill="#000000" font-family="sans-serif" font-size="13" lengthAdjust="spacing" textLength="210" x="557.5" y="359.2139">getClinicalAnalysisLaboratoryStore()</text><polygon fill="#A80036" points="807.5,420.4219,817.5,424.4219,807.5,428.4219,811.5,424.4219" style="stroke:#A80036;stroke-width:1.0;"/><line style="stroke:#A80036;stroke-width:1.0;" x1="539.5" x2="813.5" y1="424.4219" y2="424.4219"/><text fill="#000000" font-family="sans-serif" font-size="13" font-weight="bold" lengthAdjust="spacing" textLength="7" x="546.5" y="419.5654">8</text><text fill="#000000" font-family="sans-serif" font-size="13" lengthAdjust="spacing" textLength="123" x="557.5" y="419.5654">getTypeOfTestStore()</text><polygon fill="#A80036" points="807.5,480.7734,817.5,484.7734,807.5,488.7734,811.5,484.7734" style="stroke:#A80036;stroke-width:1.0;"/><line style="stroke:#A80036;stroke-width:1.0;" x1="539.5" x2="813.5" y1="484.7734" y2="484.7734"/><text fill="#000000" font-family="sans-serif" font-size="13" font-weight="bold" lengthAdjust="spacing" textLength="7" x="546.5" y="479.917">9</text><text fill="#000000" font-family="sans-serif" font-size="13" lengthAdjust="spacing" textLength="117" x="557.5" y="479.917">getParameterStore()</text><polygon fill="#A80036" points="517.5,541.125,527.5,545.125,517.5,549.125,521.5,545.125" style="stroke:#A80036;stroke-width:1.0;"/><line style="stroke:#A80036;stroke-width:1.0;" x1="346.5" x2="523.5" y1="545.125" y2="545.125"/><text fill="#000000" font-family="sans-serif" font-size="13" font-weight="bold" lengthAdjust="spacing" textLength="14" x="353.5" y="540.2686">10</text><text fill="#000000" font-family="sans-serif" font-size="13" lengthAdjust="spacing" textLength="141" x="371.5" y="540.2686">createTestFromCsvFile()</text><path d="M410.5,560.125 L483.5,560.125 L483.5,568.125 L473.5,578.125 L410.5,578.125 L410.5,560.125 " fill="#EEEEEE" style="stroke:#000000;stroke-width:1.0;"/><rect fill="none" height="1088.25" style="stroke:#000000;stroke-width:2.0;" width="1439" x="410.5" y="560.125"/><text fill="#000000" font-family="sans-serif" font-size="13" font-weight="bold" lengthAdjust="spacing" textLength="28" x="425.5" y="574.6201">loop</text><text fill="#000000" font-family="sans-serif" font-size="11" font-weight="bold" lengthAdjust="spacing" textLength="209" x="498.5" y="573.5439">[while there are more lines in the file]</text><line style="stroke:#A80036;stroke-width:1.0;" x1="544.5" x2="586.5" y1="600.8281" y2="600.8281"/><line style="stroke:#A80036;stroke-width:1.0;" x1="586.5" x2="586.5" y1="600.8281" y2="613.8281"/><line style="stroke:#A80036;stroke-width:1.0;" x1="545.5" x2="586.5" y1="613.8281" y2="613.8281"/><polygon fill="#A80036" points="555.5,609.8281,545.5,613.8281,555.5,617.8281,551.5,613.8281" style="stroke:#A80036;stroke-width:1.0;"/><text fill="#000000" font-family="sans-serif" font-size="13" font-weight="bold" lengthAdjust="spacing" textLength="14" x="551.5" y="595.9717">11</text><text fill="#000000" font-family="sans-serif" font-size="13" lengthAdjust="spacing" textLength="124" x="569.5" y="595.9717">lab = checkLab(labId)</text><line style="stroke:#A80036;stroke-width:1.0;" x1="539.5" x2="586.5" y1="669.1797" y2="669.1797"/><line style="stroke:#A80036;stroke-width:1.0;" x1="586.5" x2="586.5" y1="669.1797" y2="682.1797"/><line style="stroke:#A80036;stroke-width:1.0;" x1="545.5" x2="586.5" y1="682.1797" y2="682.1797"/><polygon fill="#A80036" points="555.5,678.1797,545.5,682.1797,555.5,686.1797,551.5,682.1797" style="stroke:#A80036;stroke-width:1.0;"/><text fill="#000000" font-family="sans-serif" font-size="13" font-weight="bold" lengthAdjust="spacing" textLength="14" x="551.5" y="664.3232">12</text><text fill="#000000" font-family="sans-serif" font-size="13" lengthAdjust="spacing" textLength="189" x="569.5" y="664.3232">client = registerClient(clientData)</text><polygon fill="#A80036" points="1268.5,713.5313,1278.5,717.5313,1268.5,721.5313,1272.5,717.5313" style="stroke:#A80036;stroke-width:1.0;"/><line style="stroke:#A80036;stroke-width:1.0;" x1="544.5" x2="1274.5" y1="717.5313" y2="717.5313"/><text fill="#000000" font-family="sans-serif" font-size="13" font-weight="bold" lengthAdjust="spacing" textLength="14" x="551.5" y="712.6748">13</text><text fill="#000000" font-family="sans-serif" font-size="13" lengthAdjust="spacing" textLength="663" x="569.5" y="712.6748">clientDTO = createClientDTO(name, citizenCardNumber, nhsNumber, tin, birthDate, phoneNumber, email, address)</text><rect fill="#FEFECE" filter="url(#f1q1dm2nwesmca)" height="31.6094" style="stroke:#A80036;stroke-width:1.5;" width="84" x="1280.5" y="695.1797"/><text fill="#000000" font-family="sans-serif" font-size="14" lengthAdjust="spacing" textLength="70" x="1287.5" y="716.7129">:ClientDTO</text><polygon fill="#A80036" points="1059.5,760.1406,1069.5,764.1406,1059.5,768.1406,1063.5,764.1406" style="stroke:#A80036;stroke-width:1.0;"/><line style="stroke:#A80036;stroke-width:1.0;" x1="544.5" x2="1065.5" y1="764.1406" y2="764.1406"/><text fill="#000000" font-family="sans-serif" font-size="13" font-weight="bold" lengthAdjust="spacing" textLength="14" x="551.5" y="759.2842">14</text><text fill="#000000" font-family="sans-serif" font-size="13" lengthAdjust="spacing" textLength="168" x="569.5" y="759.2842">client = newClient(clientDTO)</text><rect fill="#FEFECE" filter="url(#f1q1dm2nwesmca)" height="31.6094" style="stroke:#A80036;stroke-width:1.5;" width="54" x="1071.5" y="741.7891"/><text fill="#000000" font-family="sans-serif" font-size="14" lengthAdjust="spacing" textLength="40" x="1078.5" y="763.3223">:Client</text><path d="M420.5,795.3984 L485.5,795.3984 L485.5,803.3984 L475.5,813.3984 L420.5,813.3984 L420.5,795.3984 " fill="#EEEEEE" style="stroke:#000000;stroke-width:1.0;"/><rect fill="none" height="154.8906" style="stroke:#000000;stroke-width:2.0;" width="651" x="420.5" y="795.3984"/><text fill="#000000" font-family="sans-serif" font-size="13" font-weight="bold" lengthAdjust="spacing" textLength="20" x="435.5" y="809.8936">opt</text><text fill="#000000" font-family="sans-serif" font-size="11" font-weight="bold" lengthAdjust="spacing" textLength="123" x="500.5" y="808.8174">[if client doesn't exist]</text><polygon fill="#A80036" points="998.5,832.1016,1008.5,836.1016,998.5,840.1016,1002.5,836.1016" style="stroke:#A80036;stroke-width:1.0;"/><line style="stroke:#A80036;stroke-width:1.0;" x1="544.5" x2="1004.5" y1="836.1016" y2="836.1016"/><text fill="#000000" font-family="sans-serif" font-size="13" font-weight="bold" lengthAdjust="spacing" textLength="14" x="551.5" y="831.2451">15</text><text fill="#000000" font-family="sans-serif" font-size="13" lengthAdjust="spacing" textLength="98" x="569.5" y="831.2451">saveClient(client)</text><line style="stroke:#000000;stroke-width:1.0;stroke-dasharray:2.0,2.0;" x1="420.5" x2="1071.5" y1="875.1016" y2="875.1016"/><text fill="#000000" font-family="sans-serif" font-size="11" font-weight="bold" lengthAdjust="spacing" textLength="78" x="425.5" y="886.5205">[if client exist]</text><polygon fill="#A80036" points="998.5,908.2891,1008.5,912.2891,998.5,916.2891,1002.5,912.2891" style="stroke:#A80036;stroke-width:1.0;"/><line style="stroke:#A80036;stroke-width:1.0;" x1="544.5" x2="1004.5" y1="912.2891" y2="912.2891"/><text fill="#000000" font-family="sans-serif" font-size="13" font-weight="bold" lengthAdjust="spacing" textLength="14" x="551.5" y="907.4326">16</text><text fill="#000000" font-family="sans-serif" font-size="13" lengthAdjust="spacing" textLength="108" x="569.5" y="907.4326">getClientByTIN(tin)</text><line style="stroke:#A80036;stroke-width:1.0;" x1="539.5" x2="586.5" y1="974.6406" y2="974.6406"/><line style="stroke:#A80036;stroke-width:1.0;" x1="586.5" x2="586.5" y1="974.6406" y2="987.6406"/><line style="stroke:#A80036;stroke-width:1.0;" x1="545.5" x2="586.5" y1="987.6406" y2="987.6406"/><polygon fill="#A80036" points="555.5,983.6406,545.5,987.6406,555.5,991.6406,551.5,987.6406" style="stroke:#A80036;stroke-width:1.0;"/><text fill="#000000" font-family="sans-serif" font-size="13" font-weight="bold" lengthAdjust="spacing" textLength="14" x="551.5" y="969.7842">17</text><text fill="#000000" font-family="sans-serif" font-size="13" lengthAdjust="spacing" textLength="230" x="569.5" y="969.7842">test = createTest(testData, client, labId)</text><polygon fill="#A80036" points="1188,1018.9922,1198,1022.9922,1188,1026.9922,1192,1022.9922" style="stroke:#A80036;stroke-width:1.0;"/><line style="stroke:#A80036;stroke-width:1.0;" x1="544.5" x2="1194" y1="1022.9922" y2="1022.9922"/><text fill="#000000" font-family="sans-serif" font-size="13" font-weight="bold" lengthAdjust="spacing" textLength="14" x="551.5" y="1018.1357">18</text><text fill="#000000" font-family="sans-serif" font-size="13" lengthAdjust="spacing" textLength="332" x="569.5" y="1018.1357">clinicalTestType = getTestTypeByDescription(description)</text><line style="stroke:#A80036;stroke-width:1.0;" x1="544.5" x2="591.5" y1="1078.3438" y2="1078.3438"/><line style="stroke:#A80036;stroke-width:1.0;" x1="591.5" x2="591.5" y1="1078.3438" y2="1091.3438"/><line style="stroke:#A80036;stroke-width:1.0;" x1="550.5" x2="591.5" y1="1091.3438" y2="1091.3438"/><polygon fill="#A80036" points="560.5,1087.3438,550.5,1091.3438,560.5,1095.3438,556.5,1091.3438" style="stroke:#A80036;stroke-width:1.0;"/><text fill="#000000" font-family="sans-serif" font-size="13" font-weight="bold" lengthAdjust="spacing" textLength="14" x="556.5" y="1073.4873">19</text><text fill="#000000" font-family="sans-serif" font-size="13" lengthAdjust="spacing" textLength="156" x="574.5" y="1073.4873">getParameterList(testData)</text><path d="M420.5,1111.3438 L493.5,1111.3438 L493.5,1119.3438 L483.5,1129.3438 L420.5,1129.3438 L420.5,1111.3438 " fill="#EEEEEE" style="stroke:#000000;stroke-width:1.0;"/><rect fill="none" height="212.4063" style="stroke:#000000;stroke-width:2.0;" width="1197" x="420.5" y="1111.3438"/><text fill="#000000" font-family="sans-serif" font-size="13" font-weight="bold" lengthAdjust="spacing" textLength="28" x="435.5" y="1125.8389">loop</text><text fill="#000000" font-family="sans-serif" font-size="11" font-weight="bold" lengthAdjust="spacing" textLength="286" x="508.5" y="1124.7627">[for each parameter/parameter category of the test]</text><polygon fill="#A80036" points="1410,1148.0469,1420,1152.0469,1410,1156.0469,1414,1152.0469" style="stroke:#A80036;stroke-width:1.0;"/><line style="stroke:#A80036;stroke-width:1.0;" x1="549.5" x2="1416" y1="1152.0469" y2="1152.0469"/><text fill="#000000" font-family="sans-serif" font-size="13" font-weight="bold" lengthAdjust="spacing" textLength="14" x="556.5" y="1147.1904">20</text><text fill="#000000" font-family="sans-serif" font-size="13" lengthAdjust="spacing" textLength="239" x="574.5" y="1147.1904">lPC = getCategoryListByTheTypeOfTest()</text><line style="stroke:#A80036;stroke-width:1.0;" x1="554.5" x2="596.5" y1="1212.3984" y2="1212.3984"/><line style="stroke:#A80036;stroke-width:1.0;" x1="596.5" x2="596.5" y1="1212.3984" y2="1225.3984"/><line style="stroke:#A80036;stroke-width:1.0;" x1="555.5" x2="596.5" y1="1225.3984" y2="1225.3984"/><polygon fill="#A80036" points="565.5,1221.3984,555.5,1225.3984,565.5,1229.3984,561.5,1225.3984" style="stroke:#A80036;stroke-width:1.0;"/><text fill="#000000" font-family="sans-serif" font-size="13" font-weight="bold" lengthAdjust="spacing" textLength="14" x="561.5" y="1207.542">21</text><text fill="#000000" font-family="sans-serif" font-size="13" lengthAdjust="spacing" textLength="238" x="579.5" y="1207.542">checkCategoryExist(categoryName, lPC)</text><polygon fill="#A80036" points="1529.5,1281.75,1539.5,1285.75,1529.5,1289.75,1533.5,1285.75" style="stroke:#A80036;stroke-width:1.0;"/><line style="stroke:#A80036;stroke-width:1.0;" x1="549.5" x2="1535.5" y1="1285.75" y2="1285.75"/><text fill="#000000" font-family="sans-serif" font-size="13" font-weight="bold" lengthAdjust="spacing" textLength="14" x="556.5" y="1280.8936">22</text><text fill="#000000" font-family="sans-serif" font-size="13" lengthAdjust="spacing" textLength="234" x="574.5" y="1280.8936">parameter = getParameterByCode(code)</text><polygon fill="#A80036" points="1605.5,1349.1016,1615.5,1353.1016,1605.5,1357.1016,1609.5,1353.1016" style="stroke:#A80036;stroke-width:1.0;"/><line style="stroke:#A80036;stroke-width:1.0;" x1="544.5" x2="1611.5" y1="1353.1016" y2="1353.1016"/><text fill="#000000" font-family="sans-serif" font-size="13" font-weight="bold" lengthAdjust="spacing" textLength="14" x="551.5" y="1348.2451">23</text><text fill="#000000" font-family="sans-serif" font-size="13" lengthAdjust="spacing" textLength="981" x="569.5" y="1348.2451">testDto = createClinicalTestDTO(nhsCode, client, typeOfTest, parameterList, labWhereCreated, registDateHour, chemicalDateHour, sDoctorDateHour, validationDateHour)</text><rect fill="#FEFECE" filter="url(#f1q1dm2nwesmca)" height="31.6094" style="stroke:#A80036;stroke-width:1.5;" width="113" x="1617.5" y="1330.75"/><text fill="#000000" font-family="sans-serif" font-size="14" lengthAdjust="spacing" textLength="99" x="1624.5" y="1352.2832">:ClinicalTestDto</text><polygon fill="#A80036" points="900.5,1395.7109,910.5,1399.7109,900.5,1403.7109,904.5,1399.7109" style="stroke:#A80036;stroke-width:1.0;"/><line style="stroke:#A80036;stroke-width:1.0;" x1="544.5" x2="906.5" y1="1399.7109" y2="1399.7109"/><text fill="#000000" font-family="sans-serif" font-size="13" font-weight="bold" lengthAdjust="spacing" textLength="14" x="551.5" y="1394.8545">24</text><text fill="#000000" font-family="sans-serif" font-size="13" lengthAdjust="spacing" textLength="172" x="569.5" y="1394.8545">createTestWithDates(testDto)</text><polygon fill="#A80036" points="1732.5,1426.0625,1742.5,1430.0625,1732.5,1434.0625,1736.5,1430.0625" style="stroke:#A80036;stroke-width:1.0;"/><line style="stroke:#A80036;stroke-width:1.0;" x1="917.5" x2="1738.5" y1="1430.0625" y2="1430.0625"/><text fill="#000000" font-family="sans-serif" font-size="13" font-weight="bold" lengthAdjust="spacing" textLength="14" x="924.5" y="1425.2061">25</text><text fill="#000000" font-family="sans-serif" font-size="13" lengthAdjust="spacing" textLength="150" x="942.5" y="1425.2061">create(testDto, testCount)</text><rect fill="#FEFECE" filter="url(#f1q1dm2nwesmca)" height="31.6094" style="stroke:#A80036;stroke-width:1.5;" width="91" x="1744.5" y="1407.7109"/><text fill="#000000" font-family="sans-serif" font-size="14" lengthAdjust="spacing" textLength="77" x="1751.5" y="1429.2441">:ClinicalTest</text><polygon fill="#A80036" points="900.5,1472.6719,910.5,1476.6719,900.5,1480.6719,904.5,1476.6719" style="stroke:#A80036;stroke-width:1.0;"/><line style="stroke:#A80036;stroke-width:1.0;" x1="539.5" x2="906.5" y1="1476.6719" y2="1476.6719"/><text fill="#000000" font-family="sans-serif" font-size="13" font-weight="bold" lengthAdjust="spacing" textLength="14" x="546.5" y="1471.8154">26</text><text fill="#000000" font-family="sans-serif" font-size="13" lengthAdjust="spacing" textLength="81" x="564.5" y="1471.8154">saveTest(test)</text><line style="stroke:#A80036;stroke-width:1.0;" x1="544.5" x2="586.5" y1="1537.0234" y2="1537.0234"/><line style="stroke:#A80036;stroke-width:1.0;" x1="586.5" x2="586.5" y1="1537.0234" y2="1550.0234"/><line style="stroke:#A80036;stroke-width:1.0;" x1="545.5" x2="586.5" y1="1550.0234" y2="1550.0234"/><polygon fill="#A80036" points="555.5,1546.0234,545.5,1550.0234,555.5,1554.0234,551.5,1550.0234" style="stroke:#A80036;stroke-width:1.0;"/><text fill="#000000" font-family="sans-serif" font-size="13" font-weight="bold" lengthAdjust="spacing" textLength="14" x="551.5" y="1532.167">27</text><text fill="#000000" font-family="sans-serif" font-size="13" lengthAdjust="spacing" textLength="212" x="569.5" y="1532.167">addParameterResults(test, testData)</text><polygon fill="#A80036" points="1775,1606.375,1785,1610.375,1775,1614.375,1779,1610.375" style="stroke:#A80036;stroke-width:1.0;"/><line style="stroke:#A80036;stroke-width:1.0;" x1="539.5" x2="1781" y1="1610.375" y2="1610.375"/><text fill="#000000" font-family="sans-serif" font-size="13" font-weight="bold" lengthAdjust="spacing" textLength="14" x="546.5" y="1605.5186">28</text><text fill="#000000" font-family="sans-serif" font-size="13" lengthAdjust="spacing" textLength="320" x="564.5" y="1605.5186">addTestParameterResult(parameterCode, value, metric)</text><polygon fill="#A80036" points="357.5,1673.7266,347.5,1677.7266,357.5,1681.7266,353.5,1677.7266" style="stroke:#A80036;stroke-width:1.0;"/><line style="stroke:#A80036;stroke-width:1.0;stroke-dasharray:2.0,2.0;" x1="351.5" x2="533.5" y1="1677.7266" y2="1677.7266"/><text fill="#000000" font-family="sans-serif" font-size="13" font-weight="bold" lengthAdjust="spacing" textLength="14" x="363.5" y="1672.8701">29</text><text fill="#000000" font-family="sans-serif" font-size="13" lengthAdjust="spacing" textLength="14" x="381.5" y="1672.8701">ok</text><polygon fill="#A80036" points="70.5,1704.0781,60.5,1708.0781,70.5,1712.0781,66.5,1708.0781" style="stroke:#A80036;stroke-width:1.0;"/><line style="stroke:#A80036;stroke-width:1.0;stroke-dasharray:2.0,2.0;" x1="64.5" x2="340.5" y1="1708.0781" y2="1708.0781"/><text fill="#000000" font-family="sans-serif" font-size="13" font-weight="bold" lengthAdjust="spacing" textLength="14" x="76.5" y="1703.2217">30</text><text fill="#000000" font-family="sans-serif" font-size="13" lengthAdjust="spacing" textLength="206" x="94.5" y="1703.2217">informs (in)success of the operation</text><!--MD5=[a5707be7be38dc6b43bff403f3be66b1]
@startuml

autonumber

actor "Lab Coordinator" as LC
participant ":ImportTestFromCsvUI" as UI
participant ":ImportTestFromCsvController" as CTRL
participant ":Company" as COMP
participant ":TestStore" as TS
participant ":ClientStore" as CS
participant ":Client" as C
participant ":TypeOfTestStore" as TTS
participant ":ClientDTO" as CDTO
participant ":TypeOfTest" as TT
participant ":ParameterStore" as PS
participant ":ClinicalTestDto" as TDTO
participant ":ClinicalTest" as CT




LC -> UI : needs to import clinical tests from CSV file
activate UI
UI - -> LC : ask for the CSV file system path
deactivate UI
LC -> UI : enters file path
activate UI
UI -> CTRL : searchCsvFile()
activate CTRL
CTRL -> COMP : getTestStore()
activate COMP
deactivate COMP
CTRL -> COMP : getClientStore()
activate COMP
deactivate COMP
CTRL -> COMP : getClinicalAnalysisLaboratoryStore()
activate COMP
deactivate COMP
CTRL -> COMP : getTypeOfTestStore()
activate COMP
deactivate COMP
CTRL -> COMP : getParameterStore()
activate COMP
deactivate COMP
deactivate CTRL
UI -> CTRL : createTestFromCsvFile()
loop while there are more lines in the file
activate CTRL
CTRL -> CTRL : lab = checkLab(labId)
activate CTRL
deactivate CTRL
CTRL -> CTRL : client = registerClient(clientData)
activate CTRL
CTRL -> CDTO** : clientDTO = createClientDTO(name, citizenCardNumber, nhsNumber, tin, birthDate, phoneNumber, email, address)
CTRL -> C** : client = newClient(clientDTO)
opt if client doesn't exist
CTRL -> CS : saveClient(client)
activate CS
deactivate CS
else if client exist
CTRL -> CS : getClientByTIN(tin)
activate CS
deactivate CS
end opt
deactivate CTRL
CTRL -> CTRL : test = createTest(testData, client, labId)
activate CTRL
CTRL -> TTS : clinicalTestType = getTestTypeByDescription(description)
activate TTS
deactivate TTS
CTRL -> CTRL : getParameterList(testData)
activate CTRL
loop for each parameter/parameter category of the test
CTRL -> TT : lPC = getCategoryListByTheTypeOfTest()
activate TT
deactivate TT
CTRL -> CTRL : checkCategoryExist(categoryName, lPC)
activate CTRL
deactivate CTRL
CTRL -> PS : parameter = getParameterByCode(code)
activate PS
deactivate PS
end
deactivate CTRL
CTRL -> TDTO** : testDto = createClinicalTestDTO(nhsCode, client, typeOfTest, parameterList, labWhereCreated, registDateHour, chemicalDateHour, sDoctorDateHour, validationDateHour)
CTRL -> TS : createTestWithDates(testDto)
activate TS
TS -> CT** : create(testDto, testCount)
deactivate TS
deactivate CTRL
CTRL -> TS : saveTest(test)
activate TS
deactivate TS
CTRL -> CTRL : addParameterResults(test, testData)
activate CTRL
deactivate CTRL
CTRL -> CT : addTestParameterResult(parameterCode, value, metric)
activate CT
deactivate CT
end
CTRL - -> UI : ok
deactivate CTRL

UI - -> LC : informs (in)success of the operation
deactivate UI

@enduml

PlantUML version 1.2021.7(Sun May 23 13:40:07 BST 2021)
(GPL source distribution)
Java Runtime: OpenJDK Runtime Environment
JVM: Dynamic Code Evolution 64-Bit Server VM
Default Encoding: Cp1252
Language: en
Country: US
--></g></svg>