<?xml version="1.0" encoding="UTF-8" standalone="no"?><svg xmlns="http://www.w3.org/2000/svg" xmlns:xlink="http://www.w3.org/1999/xlink" contentScriptType="application/ecmascript" contentStyleType="text/css" height="316px" preserveAspectRatio="none" style="width:385px;height:316px;background:#FFFFFF;" version="1.1" viewBox="0 0 385 316" width="385px" zoomAndPan="magnify"><defs><filter height="300%" id="f5z2ed8wdu6oj" width="300%" x="-1" y="-1"><feGaussianBlur result="blurOut" stdDeviation="2.0"/><feColorMatrix in="blurOut" result="blurOut2" type="matrix" values="0 0 0 0 0 0 0 0 0 0 0 0 0 0 0 0 0 0 .4 0"/><feOffset dx="4.0" dy="4.0" in="blurOut2" result="blurOut3"/><feBlend in="SourceGraphic" in2="blurOut3" mode="normal"/></filter></defs><g><rect fill="#FFFFFF" filter="url(#f5z2ed8wdu6oj)" height="30.3516" style="stroke:#A80036;stroke-width:1.0;" width="10" x="336.5" y="121.9609"/><rect fill="#FFFFFF" filter="url(#f5z2ed8wdu6oj)" height="30.3516" style="stroke:#A80036;stroke-width:1.0;" width="10" x="336.5" y="182.6641"/><line style="stroke:#A80036;stroke-width:1.0;stroke-dasharray:5.0,5.0;" x1="59" x2="59" y1="89.6094" y2="231.0156"/><line style="stroke:#A80036;stroke-width:1.0;stroke-dasharray:5.0,5.0;" x1="341.5" x2="341.5" y1="89.6094" y2="231.0156"/><text fill="#000000" font-family="sans-serif" font-size="14" lengthAdjust="spacing" textLength="103" x="5" y="86.5332">Lab Coordinator</text><ellipse cx="59.5" cy="15" fill="#FEFECE" filter="url(#f5z2ed8wdu6oj)" rx="8" ry="8" style="stroke:#A80036;stroke-width:2.0;"/><path d="M59.5,23 L59.5,50 M46.5,31 L72.5,31 M59.5,50 L46.5,65 M59.5,50 L72.5,65 " fill="none" filter="url(#f5z2ed8wdu6oj)" style="stroke:#A80036;stroke-width:2.0;"/><text fill="#000000" font-family="sans-serif" font-size="14" lengthAdjust="spacing" textLength="103" x="5" y="244.5488">Lab Coordinator</text><ellipse cx="59.5" cy="257.625" fill="#FEFECE" filter="url(#f5z2ed8wdu6oj)" rx="8" ry="8" style="stroke:#A80036;stroke-width:2.0;"/><path d="M59.5,265.625 L59.5,292.625 M46.5,273.625 L72.5,273.625 M59.5,292.625 L46.5,307.625 M59.5,292.625 L72.5,307.625 " fill="none" filter="url(#f5z2ed8wdu6oj)" style="stroke:#A80036;stroke-width:2.0;"/><rect fill="#FEFECE" filter="url(#f5z2ed8wdu6oj)" height="31.6094" style="stroke:#A80036;stroke-width:1.5;" width="64" x="307.5" y="53"/><text fill="#000000" font-family="sans-serif" font-size="14" lengthAdjust="spacing" textLength="50" x="314.5" y="74.5332">:System</text><rect fill="#FEFECE" filter="url(#f5z2ed8wdu6oj)" height="31.6094" style="stroke:#A80036;stroke-width:1.5;" width="64" x="307.5" y="230.0156"/><text fill="#000000" font-family="sans-serif" font-size="14" lengthAdjust="spacing" textLength="50" x="314.5" y="251.5488">:System</text><rect fill="#FFFFFF" filter="url(#f5z2ed8wdu6oj)" height="30.3516" style="stroke:#A80036;stroke-width:1.0;" width="10" x="336.5" y="121.9609"/><rect fill="#FFFFFF" filter="url(#f5z2ed8wdu6oj)" height="30.3516" style="stroke:#A80036;stroke-width:1.0;" width="10" x="336.5" y="182.6641"/><polygon fill="#A80036" points="324.5,117.9609,334.5,121.9609,324.5,125.9609,328.5,121.9609" style="stroke:#A80036;stroke-width:1.0;"/><line style="stroke:#A80036;stroke-width:1.0;" x1="59.5" x2="330.5" y1="121.9609" y2="121.9609"/><text fill="#000000" font-family="sans-serif" font-size="13" font-weight="bold" lengthAdjust="spacing" textLength="7" x="66.5" y="117.1045">1</text><text fill="#000000" font-family="sans-serif" font-size="13" lengthAdjust="spacing" textLength="247" x="77.5" y="117.1045">needs to import clinical tests from CSV file</text><polygon fill="#A80036" points="70.5,148.3125,60.5,152.3125,70.5,156.3125,66.5,152.3125" style="stroke:#A80036;stroke-width:1.0;"/><line style="stroke:#A80036;stroke-width:1.0;stroke-dasharray:2.0,2.0;" x1="64.5" x2="340.5" y1="152.3125" y2="152.3125"/><text fill="#000000" font-family="sans-serif" font-size="13" font-weight="bold" lengthAdjust="spacing" textLength="7" x="76.5" y="147.4561">2</text><text fill="#000000" font-family="sans-serif" font-size="13" lengthAdjust="spacing" textLength="188" x="87.5" y="147.4561">ask for the CSV file system path</text><polygon fill="#A80036" points="324.5,178.6641,334.5,182.6641,324.5,186.6641,328.5,182.6641" style="stroke:#A80036;stroke-width:1.0;"/><line style="stroke:#A80036;stroke-width:1.0;" x1="59.5" x2="330.5" y1="182.6641" y2="182.6641"/><text fill="#000000" font-family="sans-serif" font-size="13" font-weight="bold" lengthAdjust="spacing" textLength="7" x="66.5" y="177.8076">3</text><text fill="#000000" font-family="sans-serif" font-size="13" lengthAdjust="spacing" textLength="85" x="77.5" y="177.8076">enters file path</text><polygon fill="#A80036" points="70.5,209.0156,60.5,213.0156,70.5,217.0156,66.5,213.0156" style="stroke:#A80036;stroke-width:1.0;"/><line style="stroke:#A80036;stroke-width:1.0;stroke-dasharray:2.0,2.0;" x1="64.5" x2="340.5" y1="213.0156" y2="213.0156"/><text fill="#000000" font-family="sans-serif" font-size="13" font-weight="bold" lengthAdjust="spacing" textLength="7" x="76.5" y="208.1592">4</text><text fill="#000000" font-family="sans-serif" font-size="13" lengthAdjust="spacing" textLength="206" x="87.5" y="208.1592">informs (in)success of the operation</text><!--MD5=[64696fd7010251eb582e466234558a3a]
@startuml

autonumber

actor "Lab Coordinator" as LC
participant ":System" as SYSTEM

LC -> SYSTEM : needs to import clinical tests from CSV file
activate SYSTEM
SYSTEM - -> LC : ask for the CSV file system path
deactivate SYSTEM
LC -> SYSTEM : enters file path
activate SYSTEM
SYSTEM - -> LC : informs (in)success of the operation
deactivate SYSTEM

@enduml

PlantUML version 1.2021.7(Sun May 23 13:40:07 BST 2021)
(GPL source distribution)
Java Runtime: OpenJDK Runtime Environment
JVM: Dynamic Code Evolution 64-Bit Server VM
Default Encoding: Cp1252
Language: en
Country: US
--></g></svg>