<?xml version="1.0" encoding="UTF-8" standalone="no"?><svg xmlns="http://www.w3.org/2000/svg" xmlns:xlink="http://www.w3.org/1999/xlink" contentScriptType="application/ecmascript" contentStyleType="text/css" height="578.75px" preserveAspectRatio="none" style="width:265px;height:578px;" version="1.1" viewBox="0 0 265 578" width="265px" zoomAndPan="magnify"><defs><filter height="300%" id="f6lsptm9cmsjj" width="300%" x="-1" y="-1"><feGaussianBlur result="blurOut" stdDeviation="2.5"/><feColorMatrix in="blurOut" result="blurOut2" type="matrix" values="0 0 0 0 0 0 0 0 0 0 0 0 0 0 0 0 0 0 .4 0"/><feOffset dx="5.0" dy="5.0" in="blurOut2" result="blurOut3"/><feBlend in="SourceGraphic" in2="blurOut3" mode="normal"/></filter></defs><g><!--MD5=[7421f545a0d8420c5bec41e74b387d9c]
class Employee--><rect codeLine="4" fill="#FEFECE" filter="url(#f6lsptm9cmsjj)" height="67.2949" id="Employee" style="stroke:#A80036;stroke-width:1.875;" width="238.75" x="8.75" y="312.5"/><ellipse cx="88.4375" cy="332.5" fill="#ADD1B2" rx="13.75" ry="13.75" style="stroke:#A80036;stroke-width:1.25;"/><path d="M90.9375,328.125 Q91.1914,327.5 91.4844,327.1875 Q91.7773,326.875 92.1094,326.875 Q92.6953,326.875 93.0664,327.2266 Q93.4375,327.5781 93.4375,328.3984 L93.4375,330.3516 Q93.4375,331.1719 93.0859,331.5234 Q92.7344,331.875 92.1875,331.875 Q91.6992,331.875 91.3867,331.6602 Q91.0742,331.4453 90.9375,330.8789 Q90.8789,330.4883 90.6641,330.2734 Q90.2734,329.8633 89.5703,329.6289 Q88.8672,329.375 88.1641,329.375 Q87.2852,329.375 86.543,329.7266 Q85.8203,330.0781 85.2539,330.8594 Q84.6875,331.6406 84.6875,332.7148 L84.6875,333.8672 Q84.6875,335.1563 85.7422,336.0156 Q86.7969,336.875 88.6719,336.875 Q89.7852,336.875 90.5664,336.6211 Q91.0156,336.4844 91.5234,336.0352 Q91.8555,335.7813 92.0313,335.7031 Q92.207,335.625 92.4219,335.625 Q92.832,335.625 93.125,335.957 Q93.4375,336.2695 93.4375,336.7188 Q93.4375,337.1484 93.0078,337.6563 Q92.3828,338.3984 91.3867,338.8086 Q90.0781,339.375 88.4766,339.375 Q86.6016,339.375 85.0977,338.6328 Q83.8867,338.0469 83.0273,336.7773 Q82.1875,335.5078 82.1875,334.0039 L82.1875,332.6367 Q82.1875,331.0742 82.9297,329.707 Q83.6914,328.3398 85,327.6172 Q86.3281,326.875 87.8125,326.875 Q88.7109,326.875 89.4922,327.1875 Q90.2734,327.5 90.9375,328.125 Z " fill="#000000"/><text fill="#000000" font-family="sans-serif" font-size="15" lengthAdjust="spacing" textLength="68.75" x="114.0625" y="338.6377">Employee</text><line style="stroke:#A80036;stroke-width:1.875;" x1="10" x2="246.25" y1="352.5" y2="352.5"/><rect fill="none" height="7.5" style="stroke:#C82930;stroke-width:1.25;" width="7.5" x="18.75" y="362.5"/><text fill="#000000" font-family="sans-serif" font-size="13.75" lengthAdjust="spacing" textLength="206.25" x="33.75" y="371.7737">Role clinicalChemistryTechnologist</text><!--MD5=[df38be88ccee13e832d6fafd6288a4ca]
class Test--><rect codeLine="8" fill="#FEFECE" filter="url(#f6lsptm9cmsjj)" height="205.6543" id="Test" style="stroke:#A80036;stroke-width:1.875;" width="171.25" x="42.5" y="8.75"/><ellipse cx="107.8125" cy="28.75" fill="#ADD1B2" rx="13.75" ry="13.75" style="stroke:#A80036;stroke-width:1.25;"/><path d="M110.3125,24.375 Q110.5664,23.75 110.8594,23.4375 Q111.1523,23.125 111.4844,23.125 Q112.0703,23.125 112.4414,23.4766 Q112.8125,23.8281 112.8125,24.6484 L112.8125,26.6016 Q112.8125,27.4219 112.4609,27.7734 Q112.1094,28.125 111.5625,28.125 Q111.0742,28.125 110.7617,27.9102 Q110.4492,27.6953 110.3125,27.1289 Q110.2539,26.7383 110.0391,26.5234 Q109.6484,26.1133 108.9453,25.8789 Q108.2422,25.625 107.5391,25.625 Q106.6602,25.625 105.918,25.9766 Q105.1953,26.3281 104.6289,27.1094 Q104.0625,27.8906 104.0625,28.9648 L104.0625,30.1172 Q104.0625,31.4063 105.1172,32.2656 Q106.1719,33.125 108.0469,33.125 Q109.1602,33.125 109.9414,32.8711 Q110.3906,32.7344 110.8984,32.2852 Q111.2305,32.0313 111.4063,31.9531 Q111.582,31.875 111.7969,31.875 Q112.207,31.875 112.5,32.207 Q112.8125,32.5195 112.8125,32.9688 Q112.8125,33.3984 112.3828,33.9063 Q111.7578,34.6484 110.7617,35.0586 Q109.4531,35.625 107.8516,35.625 Q105.9766,35.625 104.4727,34.8828 Q103.2617,34.2969 102.4023,33.0273 Q101.5625,31.7578 101.5625,30.2539 L101.5625,28.8867 Q101.5625,27.3242 102.3047,25.957 Q103.0664,24.5898 104.375,23.8672 Q105.7031,23.125 107.1875,23.125 Q108.0859,23.125 108.8672,23.4375 Q109.6484,23.75 110.3125,24.375 Z " fill="#000000"/><text fill="#000000" font-family="sans-serif" font-size="15" lengthAdjust="spacing" textLength="30" x="133.4375" y="34.8877">Test</text><line style="stroke:#A80036;stroke-width:1.875;" x1="43.75" x2="212.5" y1="48.75" y2="48.75"/><rect fill="none" height="7.5" style="stroke:#C82930;stroke-width:1.25;" width="7.5" x="52.5" y="58.75"/><text fill="#000000" font-family="sans-serif" font-size="13.75" lengthAdjust="spacing" textLength="60" x="67.5" y="68.0237">createdAt</text><rect fill="none" height="7.5" style="stroke:#C82930;stroke-width:1.25;" width="7.5" x="52.5" y="76.0449"/><text fill="#000000" font-family="sans-serif" font-size="13.75" lengthAdjust="spacing" textLength="122.5" x="67.5" y="85.3186">DateTime createdAt;</text><rect fill="none" height="7.5" style="stroke:#C82930;stroke-width:1.25;" width="7.5" x="52.5" y="93.3398"/><text fill="#000000" font-family="sans-serif" font-size="13.75" lengthAdjust="spacing" textLength="117.5" x="67.5" y="102.6135">String internalCode;</text><rect fill="none" height="7.5" style="stroke:#C82930;stroke-width:1.25;" width="7.5" x="52.5" y="110.6348"/><text fill="#000000" font-family="sans-serif" font-size="13.75" lengthAdjust="spacing" textLength="96.25" x="67.5" y="119.9084">String nhsCode;</text><rect fill="none" height="7.5" style="stroke:#C82930;stroke-width:1.25;" width="7.5" x="52.5" y="127.9297"/><text fill="#000000" font-family="sans-serif" font-size="13.75" lengthAdjust="spacing" textLength="122.5" x="67.5" y="137.2034">boolean reportDone;</text><rect fill="none" height="7.5" style="stroke:#C82930;stroke-width:1.25;" width="7.5" x="52.5" y="145.2246"/><text fill="#000000" font-family="sans-serif" font-size="13.75" lengthAdjust="spacing" textLength="120" x="67.5" y="154.4983">boolean resultDone;</text><rect fill="none" height="7.5" style="stroke:#C82930;stroke-width:1.25;" width="7.5" x="52.5" y="162.5195"/><text fill="#000000" font-family="sans-serif" font-size="13.75" lengthAdjust="spacing" textLength="83.75" x="67.5" y="171.7932">Report report;</text><rect fill="none" height="7.5" style="stroke:#C82930;stroke-width:1.25;" width="7.5" x="52.5" y="179.8145"/><text fill="#000000" font-family="sans-serif" font-size="13.75" lengthAdjust="spacing" textLength="78.75" x="67.5" y="189.0881">Result result;</text><rect fill="none" height="7.5" style="stroke:#C82930;stroke-width:1.25;" width="7.5" x="52.5" y="197.1094"/><text fill="#000000" font-family="sans-serif" font-size="13.75" lengthAdjust="spacing" textLength="138.75" x="67.5" y="206.3831">BufferedImage qrcode;</text><!--MD5=[2741598bdf59a7d7e0d5c97658fd3022]
class Result--><rect codeLine="20" fill="#FEFECE" filter="url(#f6lsptm9cmsjj)" height="84.5898" id="Result" style="stroke:#A80036;stroke-width:1.875;" width="105" x="75.625" y="477.5"/><ellipse cx="103.375" cy="497.5" fill="#ADD1B2" rx="13.75" ry="13.75" style="stroke:#A80036;stroke-width:1.25;"/><path d="M105.875,493.125 Q106.1289,492.5 106.4219,492.1875 Q106.7148,491.875 107.0469,491.875 Q107.6328,491.875 108.0039,492.2266 Q108.375,492.5781 108.375,493.3984 L108.375,495.3516 Q108.375,496.1719 108.0234,496.5234 Q107.6719,496.875 107.125,496.875 Q106.6367,496.875 106.3242,496.6602 Q106.0117,496.4453 105.875,495.8789 Q105.8164,495.4883 105.6016,495.2734 Q105.2109,494.8633 104.5078,494.6289 Q103.8047,494.375 103.1016,494.375 Q102.2227,494.375 101.4805,494.7266 Q100.7578,495.0781 100.1914,495.8594 Q99.625,496.6406 99.625,497.7148 L99.625,498.8672 Q99.625,500.1563 100.6797,501.0156 Q101.7344,501.875 103.6094,501.875 Q104.7227,501.875 105.5039,501.6211 Q105.9531,501.4844 106.4609,501.0352 Q106.793,500.7813 106.9688,500.7031 Q107.1445,500.625 107.3594,500.625 Q107.7695,500.625 108.0625,500.957 Q108.375,501.2695 108.375,501.7188 Q108.375,502.1484 107.9453,502.6563 Q107.3203,503.3984 106.3242,503.8086 Q105.0156,504.375 103.4141,504.375 Q101.5391,504.375 100.0352,503.6328 Q98.8242,503.0469 97.9648,501.7773 Q97.125,500.5078 97.125,499.0039 L97.125,497.6367 Q97.125,496.0742 97.8672,494.707 Q98.6289,493.3398 99.9375,492.6172 Q101.2656,491.875 102.75,491.875 Q103.6484,491.875 104.4297,492.1875 Q105.2109,492.5 105.875,493.125 Z " fill="#000000"/><text fill="#000000" font-family="sans-serif" font-size="15" lengthAdjust="spacing" textLength="45" x="122.875" y="503.6377">Result</text><line style="stroke:#A80036;stroke-width:1.875;" x1="76.875" x2="179.375" y1="517.5" y2="517.5"/><rect fill="none" height="7.5" style="stroke:#C82930;stroke-width:1.25;" width="7.5" x="85.625" y="527.5"/><text fill="#000000" font-family="sans-serif" font-size="13.75" lengthAdjust="spacing" textLength="60" x="100.625" y="536.7737">createdAt</text><rect fill="none" height="7.5" style="stroke:#C82930;stroke-width:1.25;" width="7.5" x="85.625" y="544.7949"/><text fill="#000000" font-family="sans-serif" font-size="13.75" lengthAdjust="spacing" textLength="72.5" x="100.625" y="554.0686">String result</text><!--MD5=[9d1bc556fe374e7e6be34761da84b3df]
link Employee to Result--><path codeLine="25" d="M128.125,380.1125 C128.125,407.775 128.125,447.6 128.125,477.475 " fill="none" id="Employee-Result" style="stroke:#A80036;stroke-width:1.25;"/><polygon fill="#000000" points="134.375,435.2197,138.0487,423.9134,130.7013,423.9134,134.375,435.2197" style="stroke:#000000;stroke-width:1.25;"/><text fill="#000000" font-family="sans-serif" font-size="16.25" lengthAdjust="spacing" textLength="33.75" x="145.625" y="435.6189">write</text><text fill="#000000" font-family="sans-serif" font-size="16.25" lengthAdjust="spacing" textLength="25" x="100.3906" y="406.6468">1..*</text><text fill="#000000" font-family="sans-serif" font-size="16.25" lengthAdjust="spacing" textLength="6.25" x="121.2598" y="464.0867">*</text><!--MD5=[2fe054cd67471b8fea8c71114980d435]
link Test to Employee--><path codeLine="26" d="M128.125,215.1625 C128.125,250.1625 128.125,286.8625 128.125,312.2875 " fill="none" id="Test-Employee" style="stroke:#A80036;stroke-width:1.25;"/><polygon fill="#000000" points="134.375,257.7197,130.7013,269.0261,138.0487,269.0261,134.375,257.7197" style="stroke:#000000;stroke-width:1.25;"/><text fill="#000000" font-family="sans-serif" font-size="16.25" lengthAdjust="spacing" textLength="52.5" x="145.625" y="270.6189">checks</text><text fill="#000000" font-family="sans-serif" font-size="16.25" lengthAdjust="spacing" textLength="6.25" x="121.626" y="241.1002">*</text><text fill="#000000" font-family="sans-serif" font-size="16.25" lengthAdjust="spacing" textLength="25" x="100.2344" y="299.0646">1..*</text><!--MD5=[aef9affd6601a001b54cbd00ae1ff2dc]
@startuml

hide methods

class Employee {
    - Role clinicalChemistryTechnologist
}

class Test {
    - createdAt
    - DateTime createdAt;
    - String internalCode;
    - String nhsCode;
    - boolean reportDone;
    - boolean resultDone;
    - Report report;
    - Result result;
    - BufferedImage qrcode;
}

class Result {
    -createdAt
    -String result
}

Employee"1..*" - - "*"Result : "> write"
Employee"1..*" -up- "*"Test : "> checks"

@enduml

PlantUML version 1.2021.5(Sun Apr 25 12:20:28 BST 2021)
(GPL source distribution)
Java Runtime: OpenJDK Runtime Environment
JVM: Dynamic Code Evolution 64-Bit Server VM
Default Encoding: Cp1252
Language: pt
Country: PT
--></g></svg>