<?xml version="1.0" encoding="UTF-8" standalone="no"?><svg xmlns="http://www.w3.org/2000/svg" xmlns:xlink="http://www.w3.org/1999/xlink" contentScriptType="application/ecmascript" contentStyleType="text/css" height="552.5px" preserveAspectRatio="none" style="width:1306px;height:552px;" version="1.1" viewBox="0 0 1306 552" width="1306.25px" zoomAndPan="magnify"><defs><filter height="300%" id="f12sssaju7xmyb" width="300%" x="-1" y="-1"><feGaussianBlur result="blurOut" stdDeviation="2.5"/><feColorMatrix in="blurOut" result="blurOut2" type="matrix" values="0 0 0 0 0 0 0 0 0 0 0 0 0 0 0 0 0 0 .4 0"/><feOffset dx="5.0" dy="5.0" in="blurOut2" result="blurOut3"/><feBlend in="SourceGraphic" in2="blurOut3" mode="normal"/></filter></defs><g><!--MD5=[ccf29c7df65147418d742a14dc5ab019]
class NewClinicalAnalysisUI--><rect codeLine="3" fill="#FEFECE" filter="url(#f12sssaju7xmyb)" height="60" id="NewClinicalAnalysisUI" style="stroke:#A80036;stroke-width:1.875;" width="195" x="365" y="8.75"/><ellipse cx="383.75" cy="28.75" fill="#ADD1B2" rx="13.75" ry="13.75" style="stroke:#A80036;stroke-width:1.25;"/><path d="M386.25,24.375 Q386.5039,23.75 386.7969,23.4375 Q387.0898,23.125 387.4219,23.125 Q388.0078,23.125 388.3789,23.4766 Q388.75,23.8281 388.75,24.6484 L388.75,26.6016 Q388.75,27.4219 388.3984,27.7734 Q388.0469,28.125 387.5,28.125 Q387.0117,28.125 386.6992,27.9102 Q386.3867,27.6953 386.25,27.1289 Q386.1914,26.7383 385.9766,26.5234 Q385.5859,26.1133 384.8828,25.8789 Q384.1797,25.625 383.4766,25.625 Q382.5977,25.625 381.8555,25.9766 Q381.1328,26.3281 380.5664,27.1094 Q380,27.8906 380,28.9648 L380,30.1172 Q380,31.4063 381.0547,32.2656 Q382.1094,33.125 383.9844,33.125 Q385.0977,33.125 385.8789,32.8711 Q386.3281,32.7344 386.8359,32.2852 Q387.168,32.0313 387.3438,31.9531 Q387.5195,31.875 387.7344,31.875 Q388.1445,31.875 388.4375,32.207 Q388.75,32.5195 388.75,32.9688 Q388.75,33.3984 388.3203,33.9063 Q387.6953,34.6484 386.6992,35.0586 Q385.3906,35.625 383.7891,35.625 Q381.9141,35.625 380.4102,34.8828 Q379.1992,34.2969 378.3398,33.0273 Q377.5,31.7578 377.5,30.2539 L377.5,28.8867 Q377.5,27.3242 378.2422,25.957 Q379.0039,24.5898 380.3125,23.8672 Q381.6406,23.125 383.125,23.125 Q384.0234,23.125 384.8047,23.4375 Q385.5859,23.75 386.25,24.375 Z " fill="#000000"/><text fill="#000000" font-family="sans-serif" font-size="15" lengthAdjust="spacing" textLength="155" x="401.25" y="34.8877">NewClinicalAnalysisUI</text><line style="stroke:#A80036;stroke-width:1.875;" x1="366.25" x2="558.75" y1="48.75" y2="48.75"/><line style="stroke:#A80036;stroke-width:1.875;" x1="366.25" x2="558.75" y1="58.75" y2="58.75"/><!--MD5=[a0a4e2ae028f69542006133c1fd484da]
class NewClinicalAnalysisController--><rect codeLine="6" fill="#FEFECE" filter="url(#f12sssaju7xmyb)" height="94.5898" id="NewClinicalAnalysisController" style="stroke:#A80036;stroke-width:1.875;" width="672.5" x="126.25" y="145"/><ellipse cx="353.4375" cy="165" fill="#ADD1B2" rx="13.75" ry="13.75" style="stroke:#A80036;stroke-width:1.25;"/><path d="M355.9375,160.625 Q356.1914,160 356.4844,159.6875 Q356.7773,159.375 357.1094,159.375 Q357.6953,159.375 358.0664,159.7266 Q358.4375,160.0781 358.4375,160.8984 L358.4375,162.8516 Q358.4375,163.6719 358.0859,164.0234 Q357.7344,164.375 357.1875,164.375 Q356.6992,164.375 356.3867,164.1602 Q356.0742,163.9453 355.9375,163.3789 Q355.8789,162.9883 355.6641,162.7734 Q355.2734,162.3633 354.5703,162.1289 Q353.8672,161.875 353.1641,161.875 Q352.2852,161.875 351.543,162.2266 Q350.8203,162.5781 350.2539,163.3594 Q349.6875,164.1406 349.6875,165.2148 L349.6875,166.3672 Q349.6875,167.6563 350.7422,168.5156 Q351.7969,169.375 353.6719,169.375 Q354.7852,169.375 355.5664,169.1211 Q356.0156,168.9844 356.5234,168.5352 Q356.8555,168.2813 357.0313,168.2031 Q357.207,168.125 357.4219,168.125 Q357.832,168.125 358.125,168.457 Q358.4375,168.7695 358.4375,169.2188 Q358.4375,169.6484 358.0078,170.1563 Q357.3828,170.8984 356.3867,171.3086 Q355.0781,171.875 353.4766,171.875 Q351.6016,171.875 350.0977,171.1328 Q348.8867,170.5469 348.0273,169.2773 Q347.1875,168.0078 347.1875,166.5039 L347.1875,165.1367 Q347.1875,163.5742 347.9297,162.207 Q348.6914,160.8398 350,160.1172 Q351.3281,159.375 352.8125,159.375 Q353.7109,159.375 354.4922,159.6875 Q355.2734,160 355.9375,160.625 Z " fill="#000000"/><text fill="#000000" font-family="sans-serif" font-size="15" lengthAdjust="spacing" textLength="207.5" x="379.0625" y="171.1377">NewClinicalAnalysisController</text><line style="stroke:#A80036;stroke-width:1.875;" x1="127.5" x2="797.5" y1="185" y2="185"/><line style="stroke:#A80036;stroke-width:1.875;" x1="127.5" x2="797.5" y1="195" y2="195"/><text fill="#000000" font-family="sans-serif" font-size="13.75" lengthAdjust="spacing" textLength="657.5" x="133.75" y="214.2737">+RegisterNewClinicalAnalysisLaboratory(laboratoryID, Name, Address, Phone Number,TIN Number, testType)</text><text fill="#000000" font-family="sans-serif" font-size="13.75" lengthAdjust="spacing" textLength="207.5" x="133.75" y="231.5686">+saveClinicalAnalysisLaboratory()</text><!--MD5=[1934a092c0e7d4da7dc7075b6f4b6b03]
class ClinicalAnalysisLaboratory--><rect codeLine="12" fill="#FEFECE" filter="url(#f12sssaju7xmyb)" height="198.3594" id="ClinicalAnalysisLaboratory" style="stroke:#A80036;stroke-width:1.875;" width="550" x="8.75" y="337.5"/><ellipse cx="187.8125" cy="357.5" fill="#ADD1B2" rx="13.75" ry="13.75" style="stroke:#A80036;stroke-width:1.25;"/><path d="M190.3125,353.125 Q190.5664,352.5 190.8594,352.1875 Q191.1523,351.875 191.4844,351.875 Q192.0703,351.875 192.4414,352.2266 Q192.8125,352.5781 192.8125,353.3984 L192.8125,355.3516 Q192.8125,356.1719 192.4609,356.5234 Q192.1094,356.875 191.5625,356.875 Q191.0742,356.875 190.7617,356.6602 Q190.4492,356.4453 190.3125,355.8789 Q190.2539,355.4883 190.0391,355.2734 Q189.6484,354.8633 188.9453,354.6289 Q188.2422,354.375 187.5391,354.375 Q186.6602,354.375 185.918,354.7266 Q185.1953,355.0781 184.6289,355.8594 Q184.0625,356.6406 184.0625,357.7148 L184.0625,358.8672 Q184.0625,360.1563 185.1172,361.0156 Q186.1719,361.875 188.0469,361.875 Q189.1602,361.875 189.9414,361.6211 Q190.3906,361.4844 190.8984,361.0352 Q191.2305,360.7813 191.4063,360.7031 Q191.582,360.625 191.7969,360.625 Q192.207,360.625 192.5,360.957 Q192.8125,361.2695 192.8125,361.7188 Q192.8125,362.1484 192.3828,362.6563 Q191.7578,363.3984 190.7617,363.8086 Q189.4531,364.375 187.8516,364.375 Q185.9766,364.375 184.4727,363.6328 Q183.2617,363.0469 182.4023,361.7773 Q181.5625,360.5078 181.5625,359.0039 L181.5625,357.6367 Q181.5625,356.0742 182.3047,354.707 Q183.0664,353.3398 184.375,352.6172 Q185.7031,351.875 187.1875,351.875 Q188.0859,351.875 188.8672,352.1875 Q189.6484,352.5 190.3125,353.125 Z " fill="#000000"/><text fill="#000000" font-family="sans-serif" font-size="15" lengthAdjust="spacing" textLength="181.25" x="213.4375" y="363.6377">ClinicalAnalysisLaboratory</text><line style="stroke:#A80036;stroke-width:1.875;" x1="10" x2="557.5" y1="377.5" y2="377.5"/><text fill="#000000" font-family="sans-serif" font-size="13.75" lengthAdjust="spacing" textLength="73.75" x="16.25" y="396.7737">-designation</text><text fill="#000000" font-family="sans-serif" font-size="13.75" lengthAdjust="spacing" textLength="77.5" x="16.25" y="414.0686">-laboratoryID</text><text fill="#000000" font-family="sans-serif" font-size="13.75" lengthAdjust="spacing" textLength="38.75" x="16.25" y="431.3635">-Name</text><text fill="#000000" font-family="sans-serif" font-size="13.75" lengthAdjust="spacing" textLength="57.5" x="16.25" y="448.6584">-Address</text><text fill="#000000" font-family="sans-serif" font-size="13.75" lengthAdjust="spacing" textLength="92.5" x="16.25" y="465.9534">-Phone Number</text><text fill="#000000" font-family="sans-serif" font-size="13.75" lengthAdjust="spacing" textLength="73.75" x="16.25" y="483.2483">-TIN Number</text><text fill="#000000" font-family="sans-serif" font-size="13.75" lengthAdjust="spacing" textLength="57.5" x="16.25" y="500.5432">-testType</text><line style="stroke:#A80036;stroke-width:1.875;" x1="10" x2="557.5" y1="508.5645" y2="508.5645"/><text fill="#000000" font-family="sans-serif" font-size="13.75" lengthAdjust="spacing" textLength="535" x="16.25" y="527.8381">+LaboratoryRegister(laboratoryID, Name, Address, Phone Number,TIN Number, testType)</text><!--MD5=[02e4b9b7573f1156f41e60aa5b4e25a4]
class Company--><rect codeLine="23" fill="#FEFECE" filter="url(#f12sssaju7xmyb)" height="94.5898" id="Company" style="stroke:#A80036;stroke-width:1.875;" width="243.75" x="843.125" y="145"/><ellipse cx="926.5625" cy="165" fill="#ADD1B2" rx="13.75" ry="13.75" style="stroke:#A80036;stroke-width:1.25;"/><path d="M929.0625,160.625 Q929.3164,160 929.6094,159.6875 Q929.9023,159.375 930.2344,159.375 Q930.8203,159.375 931.1914,159.7266 Q931.5625,160.0781 931.5625,160.8984 L931.5625,162.8516 Q931.5625,163.6719 931.2109,164.0234 Q930.8594,164.375 930.3125,164.375 Q929.8242,164.375 929.5117,164.1602 Q929.1992,163.9453 929.0625,163.3789 Q929.0039,162.9883 928.7891,162.7734 Q928.3984,162.3633 927.6953,162.1289 Q926.9922,161.875 926.2891,161.875 Q925.4102,161.875 924.668,162.2266 Q923.9453,162.5781 923.3789,163.3594 Q922.8125,164.1406 922.8125,165.2148 L922.8125,166.3672 Q922.8125,167.6563 923.8672,168.5156 Q924.9219,169.375 926.7969,169.375 Q927.9102,169.375 928.6914,169.1211 Q929.1406,168.9844 929.6484,168.5352 Q929.9805,168.2813 930.1563,168.2031 Q930.332,168.125 930.5469,168.125 Q930.957,168.125 931.25,168.457 Q931.5625,168.7695 931.5625,169.2188 Q931.5625,169.6484 931.1328,170.1563 Q930.5078,170.8984 929.5117,171.3086 Q928.2031,171.875 926.6016,171.875 Q924.7266,171.875 923.2227,171.1328 Q922.0117,170.5469 921.1523,169.2773 Q920.3125,168.0078 920.3125,166.5039 L920.3125,165.1367 Q920.3125,163.5742 921.0547,162.207 Q921.8164,160.8398 923.125,160.1172 Q924.4531,159.375 925.9375,159.375 Q926.8359,159.375 927.6172,159.6875 Q928.3984,160 929.0625,160.625 Z " fill="#000000"/><text fill="#000000" font-family="sans-serif" font-size="15" lengthAdjust="spacing" textLength="66.25" x="952.1875" y="171.1377">Company</text><line style="stroke:#A80036;stroke-width:1.875;" x1="844.375" x2="1085.625" y1="185" y2="185"/><text fill="#000000" font-family="sans-serif" font-size="13.75" lengthAdjust="spacing" textLength="73.75" x="850.625" y="204.2737">-designation</text><line style="stroke:#A80036;stroke-width:1.875;" x1="844.375" x2="1085.625" y1="212.2949" y2="212.2949"/><text fill="#000000" font-family="sans-serif" font-size="13.75" lengthAdjust="spacing" textLength="228.75" x="850.625" y="231.5686">+getClinicalAnalysisLaboratoryStore()</text><!--MD5=[438281daef332c5ccec4fb6cf3747e9a]
class ClinicalAnalysisLaboratoryStore--><rect codeLine="28" fill="#FEFECE" filter="url(#f12sssaju7xmyb)" height="129.1797" id="ClinicalAnalysisLaboratoryStore" style="stroke:#A80036;stroke-width:1.875;" width="647.5" x="641.25" y="372.5"/><ellipse cx="850.9375" cy="392.5" fill="#ADD1B2" rx="13.75" ry="13.75" style="stroke:#A80036;stroke-width:1.25;"/><path d="M853.4375,388.125 Q853.6914,387.5 853.9844,387.1875 Q854.2773,386.875 854.6094,386.875 Q855.1953,386.875 855.5664,387.2266 Q855.9375,387.5781 855.9375,388.3984 L855.9375,390.3516 Q855.9375,391.1719 855.5859,391.5234 Q855.2344,391.875 854.6875,391.875 Q854.1992,391.875 853.8867,391.6602 Q853.5742,391.4453 853.4375,390.8789 Q853.3789,390.4883 853.1641,390.2734 Q852.7734,389.8633 852.0703,389.6289 Q851.3672,389.375 850.6641,389.375 Q849.7852,389.375 849.043,389.7266 Q848.3203,390.0781 847.7539,390.8594 Q847.1875,391.6406 847.1875,392.7148 L847.1875,393.8672 Q847.1875,395.1563 848.2422,396.0156 Q849.2969,396.875 851.1719,396.875 Q852.2852,396.875 853.0664,396.6211 Q853.5156,396.4844 854.0234,396.0352 Q854.3555,395.7813 854.5313,395.7031 Q854.707,395.625 854.9219,395.625 Q855.332,395.625 855.625,395.957 Q855.9375,396.2695 855.9375,396.7188 Q855.9375,397.1484 855.5078,397.6563 Q854.8828,398.3984 853.8867,398.8086 Q852.5781,399.375 850.9766,399.375 Q849.1016,399.375 847.5977,398.6328 Q846.3867,398.0469 845.5273,396.7773 Q844.6875,395.5078 844.6875,394.0039 L844.6875,392.6367 Q844.6875,391.0742 845.4297,389.707 Q846.1914,388.3398 847.5,387.6172 Q848.8281,386.875 850.3125,386.875 Q851.2109,386.875 851.9922,387.1875 Q852.7734,387.5 853.4375,388.125 Z " fill="#000000"/><text fill="#000000" font-family="sans-serif" font-size="15" lengthAdjust="spacing" textLength="217.5" x="876.5625" y="398.6377">ClinicalAnalysisLaboratoryStore</text><line style="stroke:#A80036;stroke-width:1.875;" x1="642.5" x2="1287.5" y1="412.5" y2="412.5"/><line style="stroke:#A80036;stroke-width:1.875;" x1="642.5" x2="1287.5" y1="422.5" y2="422.5"/><text fill="#000000" font-family="sans-serif" font-size="13.75" lengthAdjust="spacing" textLength="223.75" x="648.75" y="441.7737">+validateClinicalAnalysisLaboratory()</text><text fill="#000000" font-family="sans-serif" font-size="13.75" lengthAdjust="spacing" textLength="200" x="648.75" y="459.0686">+addClinicalAnalysisLaboratory()</text><text fill="#000000" font-family="sans-serif" font-size="13.75" lengthAdjust="spacing" textLength="632.5" x="648.75" y="476.3635">+RegisterClinicalAnalysisLaboratory(laboratoryID, Name, Address, Phone Number, TIN Number, testType)</text><text fill="#000000" font-family="sans-serif" font-size="13.75" lengthAdjust="spacing" textLength="207.5" x="648.75" y="493.6584">+saveClinicalAnalysisLaboratory()</text><!--MD5=[0b76574de2992f76d68bca7e2a8f59c1]
link NewClinicalAnalysisUI to NewClinicalAnalysisController--><path codeLine="35" d="M462.5,68.8 C462.5,88.3875 462.5,114.8875 462.5,138.225 " fill="none" id="NewClinicalAnalysisUI-to-NewClinicalAnalysisController" style="stroke:#A80036;stroke-width:1.25;stroke-dasharray:7.0,7.0;"/><polygon fill="#A80036" points="462.5,144.7125,467.5,133.4625,462.5,138.4625,457.5,133.4625,462.5,144.7125" style="stroke:#A80036;stroke-width:1.25;"/><!--MD5=[d8ee19b5da130877602d73709562e6be]
link NewClinicalAnalysisController to Company--><path codeLine="36" d="M799.1375,192.5 C811.55,192.5 823.9625,192.5 836.375,192.5 " fill="none" id="NewClinicalAnalysisController-to-Company" style="stroke:#A80036;stroke-width:1.25;stroke-dasharray:7.0,7.0;"/><polygon fill="#A80036" points="842.875,192.5,831.625,187.5,836.625,192.5,831.625,197.5,842.875,192.5" style="stroke:#A80036;stroke-width:1.25;"/><!--MD5=[f379172a0573607dd0ae1a4ea50b9294]
link Company to ClinicalAnalysisLaboratoryStore--><path codeLine="37" d="M965,240.3875 C965,275.9625 965,325.5375 965,365.825 " fill="none" id="Company-to-ClinicalAnalysisLaboratoryStore" style="stroke:#A80036;stroke-width:1.25;"/><polygon fill="#A80036" points="965,372.2125,970,360.9625,965,365.9625,960,360.9625,965,372.2125" style="stroke:#A80036;stroke-width:1.25;"/><text fill="#000000" font-family="sans-serif" font-size="16.25" lengthAdjust="spacing" textLength="35" x="966.25" y="295.6189">uses</text><text fill="#000000" font-family="sans-serif" font-size="16.25" lengthAdjust="spacing" textLength="8.75" x="955.5527" y="266.5499">1</text><text fill="#000000" font-family="sans-serif" font-size="16.25" lengthAdjust="spacing" textLength="8.75" x="955.6621" y="359.0493">1</text><!--MD5=[20f2f02007c4c25439cbbcaa7bd17ed1]
reverse link ClinicalAnalysisLaboratory to ClinicalAnalysisLaboratoryStore--><path codeLine="38" d="M565.2,436.875 C590.1375,436.875 615.5,436.875 640.75,436.875 " fill="none" id="ClinicalAnalysisLaboratory-backto-ClinicalAnalysisLaboratoryStore" style="stroke:#A80036;stroke-width:1.25;"/><polygon fill="#A80036" points="558.875,436.875,570.125,441.875,565.125,436.875,570.125,431.875,558.875,436.875" style="stroke:#A80036;stroke-width:1.25;"/><text fill="#000000" font-family="sans-serif" font-size="16.25" lengthAdjust="spacing" textLength="36.25" x="581.875" y="428.7439">store</text><text fill="#000000" font-family="sans-serif" font-size="16.25" lengthAdjust="spacing" textLength="6.25" x="568.8746" y="433.3994">*</text><text fill="#000000" font-family="sans-serif" font-size="16.25" lengthAdjust="spacing" textLength="8.75" x="622.2439" y="433.4472">1</text><!--MD5=[191ba682c4ee216acf8d437856288f1a]
@startuml
skinparam classAttributeIconSize 0

class NewClinicalAnalysisUI{
}

class NewClinicalAnalysisController
{
    +RegisterNewClinicalAnalysisLaboratory(laboratoryID, Name, Address, Phone Number,TIN Number, testType)
    +saveClinicalAnalysisLaboratory()
}

class ClinicalAnalysisLaboratory{
    -designation
    -laboratoryID
    -Name
    -Address
    -Phone Number
    -TIN Number
    -testType
    +LaboratoryRegister(laboratoryID, Name, Address, Phone Number,TIN Number, testType)
}

class Company{
	-designation
	+getClinicalAnalysisLaboratoryStore()
}

class ClinicalAnalysisLaboratoryStore{
    + validateClinicalAnalysisLaboratory()
    +  addClinicalAnalysisLaboratory()
    + RegisterClinicalAnalysisLaboratory(laboratoryID, Name, Address, Phone Number, TIN Number, testType)
    + saveClinicalAnalysisLaboratory()
}

NewClinicalAnalysisUI ..> NewClinicalAnalysisController
NewClinicalAnalysisController .right.> Company
Company"1" - -> "1"ClinicalAnalysisLaboratoryStore : uses
ClinicalAnalysisLaboratoryStore"1" -left-> "*"ClinicalAnalysisLaboratory : store

@enduml

PlantUML version 1.2021.4(Sun Apr 04 09:49:39 BST 2021)
(GPL source distribution)
Java Runtime: OpenJDK Runtime Environment
JVM: OpenJDK 64-Bit Server VM
Default Encoding: Cp1252
Language: pt
Country: PT
--></g></svg>