<?xml version="1.0" encoding="UTF-8" standalone="no"?><svg xmlns="http://www.w3.org/2000/svg" xmlns:xlink="http://www.w3.org/1999/xlink" contentScriptType="application/ecmascript" contentStyleType="text/css" height="162.5px" preserveAspectRatio="none" style="width:966px;height:162px;" version="1.1" viewBox="0 0 966 162" width="966.25px" zoomAndPan="magnify"><defs><filter height="300%" id="fc64d68o4ccq9" width="300%" x="-1" y="-1"><feGaussianBlur result="blurOut" stdDeviation="2.5"/><feColorMatrix in="blurOut" result="blurOut2" type="matrix" values="0 0 0 0 0 0 0 0 0 0 0 0 0 0 0 0 0 0 .4 0"/><feOffset dx="5.0" dy="5.0" in="blurOut2" result="blurOut3"/><feBlend in="SourceGraphic" in2="blurOut3" mode="normal"/></filter></defs><g><!--MD5=[02e4b9b7573f1156f41e60aa5b4e25a4]
class Company--><rect codeLine="6" fill="#FEFECE" filter="url(#fc64d68o4ccq9)" height="67.2949" id="Company" style="stroke:#A80036;stroke-width:1.875;" width="106.25" x="8.75" y="43.125"/><ellipse cx="27.5" cy="63.125" fill="#ADD1B2" rx="13.75" ry="13.75" style="stroke:#A80036;stroke-width:1.25;"/><path d="M30,58.75 Q30.2539,58.125 30.5469,57.8125 Q30.8398,57.5 31.1719,57.5 Q31.7578,57.5 32.1289,57.8516 Q32.5,58.2031 32.5,59.0234 L32.5,60.9766 Q32.5,61.7969 32.1484,62.1484 Q31.7969,62.5 31.25,62.5 Q30.7617,62.5 30.4492,62.2852 Q30.1367,62.0703 30,61.5039 Q29.9414,61.1133 29.7266,60.8984 Q29.3359,60.4883 28.6328,60.2539 Q27.9297,60 27.2266,60 Q26.3477,60 25.6055,60.3516 Q24.8828,60.7031 24.3164,61.4844 Q23.75,62.2656 23.75,63.3398 L23.75,64.4922 Q23.75,65.7813 24.8047,66.6406 Q25.8594,67.5 27.7344,67.5 Q28.8477,67.5 29.6289,67.2461 Q30.0781,67.1094 30.5859,66.6602 Q30.918,66.4063 31.0938,66.3281 Q31.2695,66.25 31.4844,66.25 Q31.8945,66.25 32.1875,66.582 Q32.5,66.8945 32.5,67.3438 Q32.5,67.7734 32.0703,68.2813 Q31.4453,69.0234 30.4492,69.4336 Q29.1406,70 27.5391,70 Q25.6641,70 24.1602,69.2578 Q22.9492,68.6719 22.0898,67.4023 Q21.25,66.1328 21.25,64.6289 L21.25,63.2617 Q21.25,61.6992 21.9922,60.332 Q22.7539,58.9648 24.0625,58.2422 Q25.3906,57.5 26.875,57.5 Q27.7734,57.5 28.5547,57.8125 Q29.3359,58.125 30,58.75 Z " fill="#000000"/><text fill="#000000" font-family="sans-serif" font-size="15" lengthAdjust="spacing" textLength="66.25" x="45" y="69.2627">Company</text><line style="stroke:#A80036;stroke-width:1.875;" x1="10" x2="113.75" y1="83.125" y2="83.125"/><text fill="#000000" font-family="sans-serif" font-size="13.75" lengthAdjust="spacing" textLength="75" x="16.25" y="102.3987">-Designation</text><!--MD5=[da547346deef918ea16944ba046651ef]
class Administrator--><rect codeLine="10" fill="#FEFECE" filter="url(#fc64d68o4ccq9)" height="50" id="Administrator" style="stroke:#A80036;stroke-width:1.875;" width="131.25" x="246.25" y="51.875"/><ellipse cx="265" cy="71.875" fill="#ADD1B2" rx="13.75" ry="13.75" style="stroke:#A80036;stroke-width:1.25;"/><path d="M267.5,67.5 Q267.7539,66.875 268.0469,66.5625 Q268.3398,66.25 268.6719,66.25 Q269.2578,66.25 269.6289,66.6016 Q270,66.9531 270,67.7734 L270,69.7266 Q270,70.5469 269.6484,70.8984 Q269.2969,71.25 268.75,71.25 Q268.2617,71.25 267.9492,71.0352 Q267.6367,70.8203 267.5,70.2539 Q267.4414,69.8633 267.2266,69.6484 Q266.8359,69.2383 266.1328,69.0039 Q265.4297,68.75 264.7266,68.75 Q263.8477,68.75 263.1055,69.1016 Q262.3828,69.4531 261.8164,70.2344 Q261.25,71.0156 261.25,72.0898 L261.25,73.2422 Q261.25,74.5313 262.3047,75.3906 Q263.3594,76.25 265.2344,76.25 Q266.3477,76.25 267.1289,75.9961 Q267.5781,75.8594 268.0859,75.4102 Q268.418,75.1563 268.5938,75.0781 Q268.7695,75 268.9844,75 Q269.3945,75 269.6875,75.332 Q270,75.6445 270,76.0938 Q270,76.5234 269.5703,77.0313 Q268.9453,77.7734 267.9492,78.1836 Q266.6406,78.75 265.0391,78.75 Q263.1641,78.75 261.6602,78.0078 Q260.4492,77.4219 259.5898,76.1523 Q258.75,74.8828 258.75,73.3789 L258.75,72.0117 Q258.75,70.4492 259.4922,69.082 Q260.2539,67.7148 261.5625,66.9922 Q262.8906,66.25 264.375,66.25 Q265.2734,66.25 266.0547,66.5625 Q266.8359,66.875 267.5,67.5 Z " fill="#000000"/><text fill="#000000" font-family="sans-serif" font-size="15" lengthAdjust="spacing" textLength="91.25" x="282.5" y="78.0127">Administrator</text><line style="stroke:#A80036;stroke-width:1.875;" x1="247.5" x2="376.25" y1="91.875" y2="91.875"/><!--MD5=[1934a092c0e7d4da7dc7075b6f4b6b03]
class ClinicalAnalysisLaboratory--><rect codeLine="14" fill="#FEFECE" filter="url(#fc64d68o4ccq9)" height="136.4746" id="ClinicalAnalysisLaboratory" style="stroke:#A80036;stroke-width:1.875;" width="221.25" x="518.75" y="8.75"/><ellipse cx="537.5" cy="28.75" fill="#ADD1B2" rx="13.75" ry="13.75" style="stroke:#A80036;stroke-width:1.25;"/><path d="M540,24.375 Q540.2539,23.75 540.5469,23.4375 Q540.8398,23.125 541.1719,23.125 Q541.7578,23.125 542.1289,23.4766 Q542.5,23.8281 542.5,24.6484 L542.5,26.6016 Q542.5,27.4219 542.1484,27.7734 Q541.7969,28.125 541.25,28.125 Q540.7617,28.125 540.4492,27.9102 Q540.1367,27.6953 540,27.1289 Q539.9414,26.7383 539.7266,26.5234 Q539.3359,26.1133 538.6328,25.8789 Q537.9297,25.625 537.2266,25.625 Q536.3477,25.625 535.6055,25.9766 Q534.8828,26.3281 534.3164,27.1094 Q533.75,27.8906 533.75,28.9648 L533.75,30.1172 Q533.75,31.4063 534.8047,32.2656 Q535.8594,33.125 537.7344,33.125 Q538.8477,33.125 539.6289,32.8711 Q540.0781,32.7344 540.5859,32.2852 Q540.918,32.0313 541.0938,31.9531 Q541.2695,31.875 541.4844,31.875 Q541.8945,31.875 542.1875,32.207 Q542.5,32.5195 542.5,32.9688 Q542.5,33.3984 542.0703,33.9063 Q541.4453,34.6484 540.4492,35.0586 Q539.1406,35.625 537.5391,35.625 Q535.6641,35.625 534.1602,34.8828 Q532.9492,34.2969 532.0898,33.0273 Q531.25,31.7578 531.25,30.2539 L531.25,28.8867 Q531.25,27.3242 531.9922,25.957 Q532.7539,24.5898 534.0625,23.8672 Q535.3906,23.125 536.875,23.125 Q537.7734,23.125 538.5547,23.4375 Q539.3359,23.75 540,24.375 Z " fill="#000000"/><text fill="#000000" font-family="sans-serif" font-size="15" lengthAdjust="spacing" textLength="181.25" x="555" y="34.8877">ClinicalAnalysisLaboratory</text><line style="stroke:#A80036;stroke-width:1.875;" x1="520" x2="738.75" y1="48.75" y2="48.75"/><text fill="#000000" font-family="sans-serif" font-size="13.75" lengthAdjust="spacing" textLength="82.5" x="526.25" y="68.0237">-LaboratoryID</text><text fill="#000000" font-family="sans-serif" font-size="13.75" lengthAdjust="spacing" textLength="38.75" x="526.25" y="85.3186">-Name</text><text fill="#000000" font-family="sans-serif" font-size="13.75" lengthAdjust="spacing" textLength="57.5" x="526.25" y="102.6135">-Address</text><text fill="#000000" font-family="sans-serif" font-size="13.75" lengthAdjust="spacing" textLength="92.5" x="526.25" y="119.9084">-Phone Number</text><text fill="#000000" font-family="sans-serif" font-size="13.75" lengthAdjust="spacing" textLength="73.75" x="526.25" y="137.2034">-TIN Number</text><!--MD5=[aeb3272166074d8737a70b61b1e71682]
class TestType--><rect codeLine="22" fill="#FEFECE" filter="url(#fc64d68o4ccq9)" height="67.2949" id="TestType" style="stroke:#A80036;stroke-width:1.875;" width="102.5" x="846.25" y="43.125"/><ellipse cx="865" cy="63.125" fill="#ADD1B2" rx="13.75" ry="13.75" style="stroke:#A80036;stroke-width:1.25;"/><path d="M867.5,58.75 Q867.7539,58.125 868.0469,57.8125 Q868.3398,57.5 868.6719,57.5 Q869.2578,57.5 869.6289,57.8516 Q870,58.2031 870,59.0234 L870,60.9766 Q870,61.7969 869.6484,62.1484 Q869.2969,62.5 868.75,62.5 Q868.2617,62.5 867.9492,62.2852 Q867.6367,62.0703 867.5,61.5039 Q867.4414,61.1133 867.2266,60.8984 Q866.8359,60.4883 866.1328,60.2539 Q865.4297,60 864.7266,60 Q863.8477,60 863.1055,60.3516 Q862.3828,60.7031 861.8164,61.4844 Q861.25,62.2656 861.25,63.3398 L861.25,64.4922 Q861.25,65.7813 862.3047,66.6406 Q863.3594,67.5 865.2344,67.5 Q866.3477,67.5 867.1289,67.2461 Q867.5781,67.1094 868.0859,66.6602 Q868.418,66.4063 868.5938,66.3281 Q868.7695,66.25 868.9844,66.25 Q869.3945,66.25 869.6875,66.582 Q870,66.8945 870,67.3438 Q870,67.7734 869.5703,68.2813 Q868.9453,69.0234 867.9492,69.4336 Q866.6406,70 865.0391,70 Q863.1641,70 861.6602,69.2578 Q860.4492,68.6719 859.5898,67.4023 Q858.75,66.1328 858.75,64.6289 L858.75,63.2617 Q858.75,61.6992 859.4922,60.332 Q860.2539,58.9648 861.5625,58.2422 Q862.8906,57.5 864.375,57.5 Q865.2734,57.5 866.0547,57.8125 Q866.8359,58.125 867.5,58.75 Z " fill="#000000"/><text fill="#000000" font-family="sans-serif" font-size="15" lengthAdjust="spacing" textLength="62.5" x="882.5" y="69.2627">TestType</text><line style="stroke:#A80036;stroke-width:1.875;" x1="847.5" x2="947.5" y1="83.125" y2="83.125"/><text fill="#000000" font-family="sans-serif" font-size="13.75" lengthAdjust="spacing" textLength="75" x="853.75" y="102.3987">-Designation</text><!--MD5=[eaea43e34e45c5b9d20b595fc78f1f20]
link Company to Administrator--><path codeLine="27" d="M115.0125,76.875 C153.1375,76.875 205.2,76.875 246.025,76.875 " fill="none" id="Company-Administrator" style="stroke:#A80036;stroke-width:1.25;"/><polygon fill="#000000" points="165,65.8447,153.6936,62.1711,153.6936,69.5184,165,65.8447" style="stroke:#000000;stroke-width:1.25;"/><text fill="#000000" font-family="sans-serif" font-size="16.25" lengthAdjust="spacing" textLength="37.5" x="170" y="72.4939">owns</text><text fill="#000000" font-family="sans-serif" font-size="16.25" lengthAdjust="spacing" textLength="8.75" x="124.8975" y="95.518">1</text><text fill="#000000" font-family="sans-serif" font-size="16.25" lengthAdjust="spacing" textLength="6.25" x="230.0754" y="95.181">*</text><!--MD5=[23b8a99c177c2cd6d714b2cbaa81b3c4]
link Administrator to ClinicalAnalysisLaboratory--><path codeLine="28" d="M377.625,76.875 C418.225,76.875 471.65,76.875 518.725,76.875 " fill="none" id="Administrator-ClinicalAnalysisLaboratory" style="stroke:#A80036;stroke-width:1.25;"/><polygon fill="#000000" points="427.5,65.8447,416.1936,62.1711,416.1936,69.5184,427.5,65.8447" style="stroke:#000000;stroke-width:1.25;"/><text fill="#000000" font-family="sans-serif" font-size="16.25" lengthAdjust="spacing" textLength="47.5" x="432.5" y="72.4939">Create</text><text fill="#000000" font-family="sans-serif" font-size="16.25" lengthAdjust="spacing" textLength="25" x="387.6508" y="95.0533">1..*</text><text fill="#000000" font-family="sans-serif" font-size="16.25" lengthAdjust="spacing" textLength="6.25" x="502.3419" y="94.6441">*</text><!--MD5=[2eb961b30663a01bbfd8b4b9b8950031]
link ClinicalAnalysisLaboratory to TestType--><path codeLine="29" d="M740.2,76.875 C776.925,76.875 816.1,76.875 846.0125,76.875 " fill="none" id="ClinicalAnalysisLaboratory-TestType" style="stroke:#A80036;stroke-width:1.25;"/><text fill="#000000" font-family="sans-serif" font-size="16.25" lengthAdjust="spacing" textLength="28.75" x="778.75" y="72.4939">Has</text><text fill="#000000" font-family="sans-serif" font-size="16.25" lengthAdjust="spacing" textLength="6.25" x="749.9926" y="94.6125">*</text><text fill="#000000" font-family="sans-serif" font-size="16.25" lengthAdjust="spacing" textLength="6.25" x="830.0346" y="95.5826">*</text><!--MD5=[3f4bc31ff4e66a12e70b697c9ecb9162]
@startuml
hide methods
left to right direction
skinparam classAttributeIconSize 0


class Company {
  -Designation
}

class Administrator {

}

class ClinicalAnalysisLaboratory {
  -LaboratoryID
  -Name
  -Address
  -Phone Number
  -TIN Number
}

class TestType {
  -Designation
}


Company "1" - - "*" Administrator : owns >
Administrator"1..*" - - "*" ClinicalAnalysisLaboratory : Create >
ClinicalAnalysisLaboratory"*" - - "*" TestType : Has


@enduml

PlantUML version 1.2021.4(Sun Apr 04 09:49:39 BST 2021)
(GPL source distribution)
Java Runtime: OpenJDK Runtime Environment
JVM: OpenJDK 64-Bit Server VM
Default Encoding: Cp1252
Language: pt
Country: PT
--></g></svg>