<?xml version="1.0" encoding="UTF-8" standalone="no"?><svg xmlns="http://www.w3.org/2000/svg" xmlns:xlink="http://www.w3.org/1999/xlink" contentScriptType="application/ecmascript" contentStyleType="text/css" height="144px" preserveAspectRatio="none" style="width:785px;height:144px;" version="1.1" viewBox="0 0 785 144" width="785px" zoomAndPan="magnify"><defs><filter height="300%" id="fodkkt3d09idf" width="300%" x="-1" y="-1"><feGaussianBlur result="blurOut" stdDeviation="2.0"/><feColorMatrix in="blurOut" result="blurOut2" type="matrix" values="0 0 0 0 0 0 0 0 0 0 0 0 0 0 0 0 0 0 .4 0"/><feOffset dx="4.0" dy="4.0" in="blurOut2" result="blurOut3"/><feBlend in="SourceGraphic" in2="blurOut3" mode="normal"/></filter></defs><g><!--MD5=[02e4b9b7573f1156f41e60aa5b4e25a4]
class Company--><rect codeLine="6" fill="#FEFECE" filter="url(#fodkkt3d09idf)" height="67.6719" id="Company" style="stroke:#A80036;stroke-width:1.5;" width="85" x="7" y="34.5"/><ellipse cx="22" cy="50.5" fill="#ADD1B2" rx="11" ry="11" style="stroke:#A80036;stroke-width:1.0;"/><path d="M24,47 Q24.2031,46.5 24.4375,46.25 Q24.6719,46 24.9375,46 Q25.4063,46 25.7031,46.2813 Q26,46.5625 26,47.2188 L26,48.7813 Q26,49.4375 25.7188,49.7188 Q25.4375,50 25,50 Q24.6094,50 24.3594,49.8281 Q24.1094,49.6563 24,49.2031 Q23.9531,48.8906 23.7813,48.7188 Q23.4688,48.3906 22.9063,48.2031 Q22.3438,48 21.7813,48 Q21.0781,48 20.4844,48.2813 Q19.9063,48.5625 19.4531,49.1875 Q19,49.8125 19,50.6719 L19,51.5938 Q19,52.625 19.8438,53.3125 Q20.6875,54 22.1875,54 Q23.0781,54 23.7031,53.7969 Q24.0625,53.6875 24.4688,53.3281 Q24.7344,53.125 24.875,53.0625 Q25.0156,53 25.1875,53 Q25.5156,53 25.75,53.2656 Q26,53.5156 26,53.875 Q26,54.2188 25.6563,54.625 Q25.1563,55.2188 24.3594,55.5469 Q23.3125,56 22.0313,56 Q20.5313,56 19.3281,55.4063 Q18.3594,54.9375 17.6719,53.9219 Q17,52.9063 17,51.7031 L17,50.6094 Q17,49.3594 17.5938,48.2656 Q18.2031,47.1719 19.25,46.5938 Q20.3125,46 21.5,46 Q22.2188,46 22.8438,46.25 Q23.4688,46.5 24,47 Z " fill="#000000"/><text fill="#000000" font-family="sans-serif" font-size="12" lengthAdjust="spacing" textLength="53" x="36" y="55.4102">Company</text><line style="stroke:#A80036;stroke-width:1.5;" x1="8" x2="91" y1="66.5" y2="66.5"/><text fill="#000000" font-family="sans-serif" font-size="11" lengthAdjust="spacing" textLength="30" x="13" y="81.9189">-name</text><text fill="#000000" font-family="sans-serif" font-size="11" lengthAdjust="spacing" textLength="41" x="13" y="95.7549">-location</text><!--MD5=[da547346deef918ea16944ba046651ef]
class Administrator--><rect codeLine="11" fill="#FEFECE" filter="url(#fodkkt3d09idf)" height="40" id="Administrator" style="stroke:#A80036;stroke-width:1.5;" width="105" x="197" y="48.5"/><ellipse cx="212" cy="64.5" fill="#ADD1B2" rx="11" ry="11" style="stroke:#A80036;stroke-width:1.0;"/><path d="M214,61 Q214.2031,60.5 214.4375,60.25 Q214.6719,60 214.9375,60 Q215.4063,60 215.7031,60.2813 Q216,60.5625 216,61.2188 L216,62.7813 Q216,63.4375 215.7188,63.7188 Q215.4375,64 215,64 Q214.6094,64 214.3594,63.8281 Q214.1094,63.6563 214,63.2031 Q213.9531,62.8906 213.7813,62.7188 Q213.4688,62.3906 212.9063,62.2031 Q212.3438,62 211.7813,62 Q211.0781,62 210.4844,62.2813 Q209.9063,62.5625 209.4531,63.1875 Q209,63.8125 209,64.6719 L209,65.5938 Q209,66.625 209.8438,67.3125 Q210.6875,68 212.1875,68 Q213.0781,68 213.7031,67.7969 Q214.0625,67.6875 214.4688,67.3281 Q214.7344,67.125 214.875,67.0625 Q215.0156,67 215.1875,67 Q215.5156,67 215.75,67.2656 Q216,67.5156 216,67.875 Q216,68.2188 215.6563,68.625 Q215.1563,69.2188 214.3594,69.5469 Q213.3125,70 212.0313,70 Q210.5313,70 209.3281,69.4063 Q208.3594,68.9375 207.6719,67.9219 Q207,66.9063 207,65.7031 L207,64.6094 Q207,63.3594 207.5938,62.2656 Q208.2031,61.1719 209.25,60.5938 Q210.3125,60 211.5,60 Q212.2188,60 212.8438,60.25 Q213.4688,60.5 214,61 Z " fill="#000000"/><text fill="#000000" font-family="sans-serif" font-size="12" lengthAdjust="spacing" textLength="73" x="226" y="69.4102">Administrator</text><line style="stroke:#A80036;stroke-width:1.5;" x1="198" x2="301" y1="80.5" y2="80.5"/><!--MD5=[1934a092c0e7d4da7dc7075b6f4b6b03]
class ClinicalAnalysisLaboratory--><rect codeLine="15" fill="#FEFECE" filter="url(#fodkkt3d09idf)" height="123.0156" id="ClinicalAnalysisLaboratory" style="stroke:#A80036;stroke-width:1.5;" width="177" x="415" y="7"/><ellipse cx="430" cy="23" fill="#ADD1B2" rx="11" ry="11" style="stroke:#A80036;stroke-width:1.0;"/><path d="M432,19.5 Q432.2031,19 432.4375,18.75 Q432.6719,18.5 432.9375,18.5 Q433.4063,18.5 433.7031,18.7813 Q434,19.0625 434,19.7188 L434,21.2813 Q434,21.9375 433.7188,22.2188 Q433.4375,22.5 433,22.5 Q432.6094,22.5 432.3594,22.3281 Q432.1094,22.1563 432,21.7031 Q431.9531,21.3906 431.7813,21.2188 Q431.4688,20.8906 430.9063,20.7031 Q430.3438,20.5 429.7813,20.5 Q429.0781,20.5 428.4844,20.7813 Q427.9063,21.0625 427.4531,21.6875 Q427,22.3125 427,23.1719 L427,24.0938 Q427,25.125 427.8438,25.8125 Q428.6875,26.5 430.1875,26.5 Q431.0781,26.5 431.7031,26.2969 Q432.0625,26.1875 432.4688,25.8281 Q432.7344,25.625 432.875,25.5625 Q433.0156,25.5 433.1875,25.5 Q433.5156,25.5 433.75,25.7656 Q434,26.0156 434,26.375 Q434,26.7188 433.6563,27.125 Q433.1563,27.7188 432.3594,28.0469 Q431.3125,28.5 430.0313,28.5 Q428.5313,28.5 427.3281,27.9063 Q426.3594,27.4375 425.6719,26.4219 Q425,25.4063 425,24.2031 L425,23.1094 Q425,21.8594 425.5938,20.7656 Q426.2031,19.6719 427.25,19.0938 Q428.3125,18.5 429.5,18.5 Q430.2188,18.5 430.8438,18.75 Q431.4688,19 432,19.5 Z " fill="#000000"/><text fill="#000000" font-family="sans-serif" font-size="12" lengthAdjust="spacing" textLength="145" x="444" y="27.9102">ClinicalAnalysisLaboratory</text><line style="stroke:#A80036;stroke-width:1.5;" x1="416" x2="591" y1="39" y2="39"/><text fill="#000000" font-family="sans-serif" font-size="11" lengthAdjust="spacing" textLength="62" x="421" y="54.4189">-laboratoryID</text><text fill="#000000" font-family="sans-serif" font-size="11" lengthAdjust="spacing" textLength="30" x="421" y="68.2549">-name</text><text fill="#000000" font-family="sans-serif" font-size="11" lengthAdjust="spacing" textLength="44" x="421" y="82.0908">-address</text><text fill="#000000" font-family="sans-serif" font-size="11" lengthAdjust="spacing" textLength="71" x="421" y="95.9268">-phoneNumber</text><text fill="#000000" font-family="sans-serif" font-size="11" lengthAdjust="spacing" textLength="52" x="421" y="109.7627">-tinNumber</text><text fill="#000000" font-family="sans-serif" font-size="11" lengthAdjust="spacing" textLength="75" x="421" y="123.5986">-typeOfTestList</text><!--MD5=[f69a48f7b38bde3533dca6607cc4e94a]
class TypeOfTest--><rect codeLine="24" fill="#FEFECE" filter="url(#fodkkt3d09idf)" height="53.8359" id="TypeOfTest" style="stroke:#A80036;stroke-width:1.5;" width="94" x="677" y="41.5"/><ellipse cx="692" cy="57.5" fill="#ADD1B2" rx="11" ry="11" style="stroke:#A80036;stroke-width:1.0;"/><path d="M694,54 Q694.2031,53.5 694.4375,53.25 Q694.6719,53 694.9375,53 Q695.4063,53 695.7031,53.2813 Q696,53.5625 696,54.2188 L696,55.7813 Q696,56.4375 695.7188,56.7188 Q695.4375,57 695,57 Q694.6094,57 694.3594,56.8281 Q694.1094,56.6563 694,56.2031 Q693.9531,55.8906 693.7813,55.7188 Q693.4688,55.3906 692.9063,55.2031 Q692.3438,55 691.7813,55 Q691.0781,55 690.4844,55.2813 Q689.9063,55.5625 689.4531,56.1875 Q689,56.8125 689,57.6719 L689,58.5938 Q689,59.625 689.8438,60.3125 Q690.6875,61 692.1875,61 Q693.0781,61 693.7031,60.7969 Q694.0625,60.6875 694.4688,60.3281 Q694.7344,60.125 694.875,60.0625 Q695.0156,60 695.1875,60 Q695.5156,60 695.75,60.2656 Q696,60.5156 696,60.875 Q696,61.2188 695.6563,61.625 Q695.1563,62.2188 694.3594,62.5469 Q693.3125,63 692.0313,63 Q690.5313,63 689.3281,62.4063 Q688.3594,61.9375 687.6719,60.9219 Q687,59.9063 687,58.7031 L687,57.6094 Q687,56.3594 687.5938,55.2656 Q688.2031,54.1719 689.25,53.5938 Q690.3125,53 691.5,53 Q692.2188,53 692.8438,53.25 Q693.4688,53.5 694,54 Z " fill="#000000"/><text fill="#000000" font-family="sans-serif" font-size="12" lengthAdjust="spacing" textLength="62" x="706" y="62.4102">TypeOfTest</text><line style="stroke:#A80036;stroke-width:1.5;" x1="678" x2="770" y1="73.5" y2="73.5"/><text fill="#000000" font-family="sans-serif" font-size="11" lengthAdjust="spacing" textLength="60" x="683" y="88.9189">-Designation</text><!--MD5=[eaea43e34e45c5b9d20b595fc78f1f20]
link Company to Administrator--><path codeLine="29" d="M92.01,68.5 C122.51,68.5 164.16,68.5 196.82,68.5 " fill="none" id="Company-Administrator" style="stroke:#A80036;stroke-width:1.0;"/><polygon fill="#000000" points="132,59.6758,122.9549,56.7369,122.9549,62.6147,132,59.6758" style="stroke:#000000;stroke-width:1.0;"/><text fill="#000000" font-family="sans-serif" font-size="13" lengthAdjust="spacing" textLength="30" x="136" y="64.9951">owns</text><text fill="#000000" font-family="sans-serif" font-size="13" lengthAdjust="spacing" textLength="7" x="99.918" y="83.4285">1</text><text fill="#000000" font-family="sans-serif" font-size="13" lengthAdjust="spacing" textLength="5" x="184.0603" y="83.1448">*</text><!--MD5=[23b8a99c177c2cd6d714b2cbaa81b3c4]
link Administrator to ClinicalAnalysisLaboratory--><path codeLine="30" d="M302.1,68.5 C334.58,68.5 377.32,68.5 414.98,68.5 " fill="none" id="Administrator-ClinicalAnalysisLaboratory" style="stroke:#A80036;stroke-width:1.0;"/><polygon fill="#000000" points="342,59.6758,332.9549,56.7369,332.9549,62.6147,342,59.6758" style="stroke:#000000;stroke-width:1.0;"/><text fill="#000000" font-family="sans-serif" font-size="13" lengthAdjust="spacing" textLength="38" x="346" y="64.9951">Create</text><text fill="#000000" font-family="sans-serif" font-size="13" lengthAdjust="spacing" textLength="20" x="310.1206" y="83.0426">1..*</text><text fill="#000000" font-family="sans-serif" font-size="13" lengthAdjust="spacing" textLength="5" x="401.8735" y="82.7226">*</text><!--MD5=[6f6005759a62ca45f59bf4f95a5337fd]
link ClinicalAnalysisLaboratory to TypeOfTest--><path codeLine="31" d="M592.11,68.5 C621.08,68.5 652.17,68.5 676.77,68.5 " fill="none" id="ClinicalAnalysisLaboratory-TypeOfTest" style="stroke:#A80036;stroke-width:1.0;"/><text fill="#000000" font-family="sans-serif" font-size="13" lengthAdjust="spacing" textLength="23" x="623" y="64.9951">Has</text><text fill="#000000" font-family="sans-serif" font-size="13" lengthAdjust="spacing" textLength="5" x="599.9398" y="82.6971">*</text><text fill="#000000" font-family="sans-serif" font-size="13" lengthAdjust="spacing" textLength="5" x="664.1551" y="83.2596">*</text><!--MD5=[aa5fe5ab2bd87dc056bf65a524dfda3e]
@startuml
hide methods
left to right direction
skinparam classAttributeIconSize 0


class Company {
  -name
  -location
}

class Administrator {

}

class ClinicalAnalysisLaboratory {
  -laboratoryID
  -name
  -address
  -phoneNumber
  -tinNumber
  -typeOfTestList
}

class TypeOfTest {
  -Designation
}


Company "1" - - "*" Administrator : owns >
Administrator"1..*" - - "*" ClinicalAnalysisLaboratory : Create >
ClinicalAnalysisLaboratory"*" - - "*" TypeOfTest : Has


@enduml

PlantUML version 1.2021.5(Sun Apr 25 12:20:28 BST 2021)
(GPL source distribution)
Java Runtime: OpenJDK Runtime Environment
JVM: Dynamic Code Evolution 64-Bit Server VM
Default Encoding: Cp1252
Language: pt
Country: PT
--></g></svg>