<?xml version="1.0" encoding="UTF-8" standalone="no"?><svg xmlns="http://www.w3.org/2000/svg" xmlns:xlink="http://www.w3.org/1999/xlink" contentScriptType="application/ecmascript" contentStyleType="text/css" height="965px" preserveAspectRatio="none" style="width:1261px;height:965px;background:#FFFFFF;" version="1.1" viewBox="0 0 1261 965" width="1261.25px" zoomAndPan="magnify"><defs><filter height="300%" id="fwv22rwpybbpi" width="300%" x="-1" y="-1"><feGaussianBlur result="blurOut" stdDeviation="2.5"/><feColorMatrix in="blurOut" result="blurOut2" type="matrix" values="0 0 0 0 0 0 0 0 0 0 0 0 0 0 0 0 0 0 .4 0"/><feOffset dx="5.0" dy="5.0" in="blurOut2" result="blurOut3"/><feBlend in="SourceGraphic" in2="blurOut3" mode="normal"/></filter></defs><g><!--MD5=[9681dc6e01e10c6b4fe06895ae94f592]
cluster UI--><polygon fill="#FFFFFF" filter="url(#fwv22rwpybbpi)" points="720,7.5,745,7.5,753.75,37.0117,905,37.0117,905,157.5,720,157.5,720,7.5" style="stroke:#000000;stroke-width:1.875;"/><line style="stroke:#000000;stroke-width:1.875;" x1="720" x2="753.75" y1="37.0117" y2="37.0117"/><text fill="#000000" font-family="sans-serif" font-size="17.5" font-weight="bold" lengthAdjust="spacing" textLength="17.5" x="725" y="28.1665">UI</text><!--MD5=[1f2cfc53d9d308f53762fd0fcbaa4873]
cluster Controller--><polygon fill="#FFFFFF" filter="url(#fwv22rwpybbpi)" points="693.75,198.75,790,198.75,798.75,228.2617,931.25,228.2617,931.25,366.25,693.75,366.25,693.75,198.75" style="stroke:#000000;stroke-width:1.875;"/><line style="stroke:#000000;stroke-width:1.875;" x1="693.75" x2="798.75" y1="228.2617" y2="228.2617"/><text fill="#000000" font-family="sans-serif" font-size="17.5" font-weight="bold" lengthAdjust="spacing" textLength="88.75" x="698.75" y="219.4165">Controller</text><!--MD5=[121a8bf1197281ab89ed693fab589f94]
cluster Domain--><polygon fill="#FFFFFF" filter="url(#fwv22rwpybbpi)" points="20,428.75,92.5,428.75,101.25,458.2617,1240,458.2617,1240,956.25,20,956.25,20,428.75" style="stroke:#000000;stroke-width:1.875;"/><line style="stroke:#000000;stroke-width:1.875;" x1="20" x2="101.25" y1="458.2617" y2="458.2617"/><text fill="#000000" font-family="sans-serif" font-size="17.5" font-weight="bold" lengthAdjust="spacing" textLength="65" x="25" y="449.4165">Domain</text><!--MD5=[15636c1ca4a123c16a2a1a8e90aca7a9]
cluster Model--><polygon fill="#FFFFFF" filter="url(#fwv22rwpybbpi)" points="50,483.75,112.5,483.75,121.25,513.2617,940,513.2617,940,926.25,50,926.25,50,483.75" style="stroke:#000000;stroke-width:1.875;"/><line style="stroke:#000000;stroke-width:1.875;" x1="50" x2="121.25" y1="513.2617" y2="513.2617"/><text fill="#000000" font-family="sans-serif" font-size="17.5" font-weight="bold" lengthAdjust="spacing" textLength="55" x="55" y="504.4165">Model</text><!--MD5=[7ce1723ddb6e6233854253973eae5a71]
cluster Store--><polygon fill="#FFFFFF" filter="url(#fwv22rwpybbpi)" points="970,526.875,1025,526.875,1033.75,556.3867,1210,556.3867,1210,711.875,970,711.875,970,526.875" style="stroke:#000000;stroke-width:1.875;"/><line style="stroke:#000000;stroke-width:1.875;" x1="970" x2="1033.75" y1="556.3867" y2="556.3867"/><text fill="#000000" font-family="sans-serif" font-size="17.5" font-weight="bold" lengthAdjust="spacing" textLength="47.5" x="975" y="547.5415">Store</text><!--MD5=[9fb6dac11bbde13a6b7e8c4e5ea77cec]
class PerformanceUI--><rect codeLine="4" fill="#FEFECE" filter="url(#fwv22rwpybbpi)" height="60" id="PerformanceUI" style="stroke:#A80036;stroke-width:1.875;" width="143.75" x="740.625" y="77.5"/><ellipse cx="759.375" cy="97.5" fill="#ADD1B2" rx="13.75" ry="13.75" style="stroke:#A80036;stroke-width:1.25;"/><path d="M761.875,93.125 Q762.1289,92.5 762.4219,92.1875 Q762.7148,91.875 763.0469,91.875 Q763.6328,91.875 764.0039,92.2266 Q764.375,92.5781 764.375,93.3984 L764.375,95.3516 Q764.375,96.1719 764.0234,96.5234 Q763.6719,96.875 763.125,96.875 Q762.6367,96.875 762.3242,96.6602 Q762.0117,96.4453 761.875,95.8789 Q761.8164,95.4883 761.6016,95.2734 Q761.2109,94.8633 760.5078,94.6289 Q759.8047,94.375 759.1016,94.375 Q758.2227,94.375 757.4805,94.7266 Q756.7578,95.0781 756.1914,95.8594 Q755.625,96.6406 755.625,97.7148 L755.625,98.8672 Q755.625,100.1563 756.6797,101.0156 Q757.7344,101.875 759.6094,101.875 Q760.7227,101.875 761.5039,101.6211 Q761.9531,101.4844 762.4609,101.0352 Q762.793,100.7813 762.9688,100.7031 Q763.1445,100.625 763.3594,100.625 Q763.7695,100.625 764.0625,100.957 Q764.375,101.2695 764.375,101.7188 Q764.375,102.1484 763.9453,102.6563 Q763.3203,103.3984 762.3242,103.8086 Q761.0156,104.375 759.4141,104.375 Q757.5391,104.375 756.0352,103.6328 Q754.8242,103.0469 753.9648,101.7773 Q753.125,100.5078 753.125,99.0039 L753.125,97.6367 Q753.125,96.0742 753.8672,94.707 Q754.6289,93.3398 755.9375,92.6172 Q757.2656,91.875 758.75,91.875 Q759.6484,91.875 760.4297,92.1875 Q761.2109,92.5 761.875,93.125 Z " fill="#000000"/><text fill="#000000" font-family="sans-serif" font-size="15" lengthAdjust="spacing" textLength="103.75" x="776.875" y="103.6377">PerformanceUI</text><line style="stroke:#A80036;stroke-width:1.875;" x1="741.875" x2="883.125" y1="117.5" y2="117.5"/><line style="stroke:#A80036;stroke-width:1.875;" x1="741.875" x2="883.125" y1="127.5" y2="127.5"/><!--MD5=[61635451a40aa5589ddd4cd28847754f]
class PerformanceController--><rect codeLine="8" fill="#FEFECE" filter="url(#fwv22rwpybbpi)" height="77.2949" id="PerformanceController" style="stroke:#A80036;stroke-width:1.875;" width="196.25" x="714.375" y="268.75"/><ellipse cx="733.125" cy="288.75" fill="#ADD1B2" rx="13.75" ry="13.75" style="stroke:#A80036;stroke-width:1.25;"/><path d="M735.625,284.375 Q735.8789,283.75 736.1719,283.4375 Q736.4648,283.125 736.7969,283.125 Q737.3828,283.125 737.7539,283.4766 Q738.125,283.8281 738.125,284.6484 L738.125,286.6016 Q738.125,287.4219 737.7734,287.7734 Q737.4219,288.125 736.875,288.125 Q736.3867,288.125 736.0742,287.9102 Q735.7617,287.6953 735.625,287.1289 Q735.5664,286.7383 735.3516,286.5234 Q734.9609,286.1133 734.2578,285.8789 Q733.5547,285.625 732.8516,285.625 Q731.9727,285.625 731.2305,285.9766 Q730.5078,286.3281 729.9414,287.1094 Q729.375,287.8906 729.375,288.9648 L729.375,290.1172 Q729.375,291.4063 730.4297,292.2656 Q731.4844,293.125 733.3594,293.125 Q734.4727,293.125 735.2539,292.8711 Q735.7031,292.7344 736.2109,292.2852 Q736.543,292.0313 736.7188,291.9531 Q736.8945,291.875 737.1094,291.875 Q737.5195,291.875 737.8125,292.207 Q738.125,292.5195 738.125,292.9688 Q738.125,293.3984 737.6953,293.9063 Q737.0703,294.6484 736.0742,295.0586 Q734.7656,295.625 733.1641,295.625 Q731.2891,295.625 729.7852,294.8828 Q728.5742,294.2969 727.7148,293.0273 Q726.875,291.7578 726.875,290.2539 L726.875,288.8867 Q726.875,287.3242 727.6172,285.957 Q728.3789,284.5898 729.6875,283.8672 Q731.0156,283.125 732.5,283.125 Q733.3984,283.125 734.1797,283.4375 Q734.9609,283.75 735.625,284.375 Z " fill="#000000"/><text fill="#000000" font-family="sans-serif" font-size="15" lengthAdjust="spacing" textLength="156.25" x="750.625" y="294.8877">PerformanceController</text><line style="stroke:#A80036;stroke-width:1.875;" x1="715.625" x2="909.375" y1="308.75" y2="308.75"/><line style="stroke:#A80036;stroke-width:1.875;" x1="715.625" x2="909.375" y1="318.75" y2="318.75"/><text fill="#000000" font-family="sans-serif" font-size="13.75" lengthAdjust="spacing" textLength="122.5" x="721.875" y="338.0237">+newPerformance()</text><!--MD5=[51e7be1fc67316e87ee401e666e38435]
class ClinicalTest--><rect codeLine="15" fill="#FEFECE" filter="url(#fwv22rwpybbpi)" height="181.0645" id="ClinicalTest" style="stroke:#A80036;stroke-width:1.875;" width="213.75" x="705.625" y="553.75"/><ellipse cx="766.5625" cy="573.75" fill="#ADD1B2" rx="13.75" ry="13.75" style="stroke:#A80036;stroke-width:1.25;"/><path d="M769.0625,569.375 Q769.3164,568.75 769.6094,568.4375 Q769.9023,568.125 770.2344,568.125 Q770.8203,568.125 771.1914,568.4766 Q771.5625,568.8281 771.5625,569.6484 L771.5625,571.6016 Q771.5625,572.4219 771.2109,572.7734 Q770.8594,573.125 770.3125,573.125 Q769.8242,573.125 769.5117,572.9102 Q769.1992,572.6953 769.0625,572.1289 Q769.0039,571.7383 768.7891,571.5234 Q768.3984,571.1133 767.6953,570.8789 Q766.9922,570.625 766.2891,570.625 Q765.4102,570.625 764.668,570.9766 Q763.9453,571.3281 763.3789,572.1094 Q762.8125,572.8906 762.8125,573.9648 L762.8125,575.1172 Q762.8125,576.4063 763.8672,577.2656 Q764.9219,578.125 766.7969,578.125 Q767.9102,578.125 768.6914,577.8711 Q769.1406,577.7344 769.6484,577.2852 Q769.9805,577.0313 770.1563,576.9531 Q770.332,576.875 770.5469,576.875 Q770.957,576.875 771.25,577.207 Q771.5625,577.5195 771.5625,577.9688 Q771.5625,578.3984 771.1328,578.9063 Q770.5078,579.6484 769.5117,580.0586 Q768.2031,580.625 766.6016,580.625 Q764.7266,580.625 763.2227,579.8828 Q762.0117,579.2969 761.1523,578.0273 Q760.3125,576.7578 760.3125,575.2539 L760.3125,573.8867 Q760.3125,572.3242 761.0547,570.957 Q761.8164,569.5898 763.125,568.8672 Q764.4531,568.125 765.9375,568.125 Q766.8359,568.125 767.6172,568.4375 Q768.3984,568.75 769.0625,569.375 Z " fill="#000000"/><text fill="#000000" font-family="sans-serif" font-size="15" lengthAdjust="spacing" textLength="81.25" x="792.1875" y="579.8877">ClinicalTest</text><line style="stroke:#A80036;stroke-width:1.875;" x1="706.875" x2="918.125" y1="593.75" y2="593.75"/><text fill="#000000" font-family="sans-serif" font-size="13.75" lengthAdjust="spacing" textLength="72.5" x="713.125" y="613.0237">-Client client</text><text fill="#000000" font-family="sans-serif" font-size="13.75" lengthAdjust="spacing" textLength="112.5" x="713.125" y="630.3186">-List parameterList</text><text fill="#000000" font-family="sans-serif" font-size="13.75" lengthAdjust="spacing" textLength="96.25" x="713.125" y="647.6135">-Date createdAt</text><text fill="#000000" font-family="sans-serif" font-size="13.75" lengthAdjust="spacing" textLength="118.75" x="713.125" y="664.9084">-String internalCode</text><text fill="#000000" font-family="sans-serif" font-size="13.75" lengthAdjust="spacing" textLength="85" x="713.125" y="682.2034">-Report report</text><line style="stroke:#A80036;stroke-width:1.875;" x1="706.875" x2="918.125" y1="690.2246" y2="690.2246"/><text fill="#000000" font-family="sans-serif" font-size="13.75" lengthAdjust="spacing" textLength="98.75" x="713.125" y="709.4983">+addValidation()</text><text fill="#000000" font-family="sans-serif" font-size="13.75" lengthAdjust="spacing" textLength="198.75" x="713.125" y="726.7932">+changeStateValidationToDone()</text><!--MD5=[02e4b9b7573f1156f41e60aa5b4e25a4]
class Company--><rect codeLine="25" fill="#FEFECE" filter="url(#fwv22rwpybbpi)" height="111.8848" id="Company" style="stroke:#A80036;stroke-width:1.875;" width="157.5" x="448.75" y="588.125"/><ellipse cx="490.5625" cy="608.125" fill="#ADD1B2" rx="13.75" ry="13.75" style="stroke:#A80036;stroke-width:1.25;"/><path d="M493.0625,603.75 Q493.3164,603.125 493.6094,602.8125 Q493.9023,602.5 494.2344,602.5 Q494.8203,602.5 495.1914,602.8516 Q495.5625,603.2031 495.5625,604.0234 L495.5625,605.9766 Q495.5625,606.7969 495.2109,607.1484 Q494.8594,607.5 494.3125,607.5 Q493.8242,607.5 493.5117,607.2852 Q493.1992,607.0703 493.0625,606.5039 Q493.0039,606.1133 492.7891,605.8984 Q492.3984,605.4883 491.6953,605.2539 Q490.9922,605 490.2891,605 Q489.4102,605 488.668,605.3516 Q487.9453,605.7031 487.3789,606.4844 Q486.8125,607.2656 486.8125,608.3398 L486.8125,609.4922 Q486.8125,610.7813 487.8672,611.6406 Q488.9219,612.5 490.7969,612.5 Q491.9102,612.5 492.6914,612.2461 Q493.1406,612.1094 493.6484,611.6602 Q493.9805,611.4063 494.1563,611.3281 Q494.332,611.25 494.5469,611.25 Q494.957,611.25 495.25,611.582 Q495.5625,611.8945 495.5625,612.3438 Q495.5625,612.7734 495.1328,613.2813 Q494.5078,614.0234 493.5117,614.4336 Q492.2031,615 490.6016,615 Q488.7266,615 487.2227,614.2578 Q486.0117,613.6719 485.1523,612.4023 Q484.3125,611.1328 484.3125,609.6289 L484.3125,608.2617 Q484.3125,606.6992 485.0547,605.332 Q485.8164,603.9648 487.125,603.2422 Q488.4531,602.5 489.9375,602.5 Q490.8359,602.5 491.6172,602.8125 Q492.3984,603.125 493.0625,603.75 Z " fill="#000000"/><text fill="#000000" font-family="sans-serif" font-size="15" lengthAdjust="spacing" textLength="66.25" x="513.1875" y="614.2627">Company</text><line style="stroke:#A80036;stroke-width:1.875;" x1="450" x2="605" y1="628.125" y2="628.125"/><text fill="#000000" font-family="sans-serif" font-size="13.75" lengthAdjust="spacing" textLength="112.5" x="456.25" y="647.3987">-String designation</text><line style="stroke:#A80036;stroke-width:1.875;" x1="450" x2="605" y1="655.4199" y2="655.4199"/><text fill="#000000" font-family="sans-serif" font-size="13.75" lengthAdjust="spacing" textLength="142.5" x="456.25" y="674.6936">+Company(designation)</text><text fill="#000000" font-family="sans-serif" font-size="13.75" lengthAdjust="spacing" textLength="95" x="456.25" y="691.9885">+getTestStore()</text><!--MD5=[53e6cac2272ce2eb99d85cf2b2d574ee]
class Performance--><rect codeLine="31" fill="#FEFECE" filter="url(#fwv22rwpybbpi)" height="129.1797" id="Performance" style="stroke:#A80036;stroke-width:1.875;" width="335" x="70" y="580"/><ellipse cx="187.8125" cy="600" fill="#ADD1B2" rx="13.75" ry="13.75" style="stroke:#A80036;stroke-width:1.25;"/><path d="M190.3125,595.625 Q190.5664,595 190.8594,594.6875 Q191.1523,594.375 191.4844,594.375 Q192.0703,594.375 192.4414,594.7266 Q192.8125,595.0781 192.8125,595.8984 L192.8125,597.8516 Q192.8125,598.6719 192.4609,599.0234 Q192.1094,599.375 191.5625,599.375 Q191.0742,599.375 190.7617,599.1602 Q190.4492,598.9453 190.3125,598.3789 Q190.2539,597.9883 190.0391,597.7734 Q189.6484,597.3633 188.9453,597.1289 Q188.2422,596.875 187.5391,596.875 Q186.6602,596.875 185.918,597.2266 Q185.1953,597.5781 184.6289,598.3594 Q184.0625,599.1406 184.0625,600.2148 L184.0625,601.3672 Q184.0625,602.6563 185.1172,603.5156 Q186.1719,604.375 188.0469,604.375 Q189.1602,604.375 189.9414,604.1211 Q190.3906,603.9844 190.8984,603.5352 Q191.2305,603.2813 191.4063,603.2031 Q191.582,603.125 191.7969,603.125 Q192.207,603.125 192.5,603.457 Q192.8125,603.7695 192.8125,604.2188 Q192.8125,604.6484 192.3828,605.1563 Q191.7578,605.8984 190.7617,606.3086 Q189.4531,606.875 187.8516,606.875 Q185.9766,606.875 184.4727,606.1328 Q183.2617,605.5469 182.4023,604.2773 Q181.5625,603.0078 181.5625,601.5039 L181.5625,600.1367 Q181.5625,598.5742 182.3047,597.207 Q183.0664,595.8398 184.375,595.1172 Q185.7031,594.375 187.1875,594.375 Q188.0859,594.375 188.8672,594.6875 Q189.6484,595 190.3125,595.625 Z " fill="#000000"/><text fill="#000000" font-family="sans-serif" font-size="15" lengthAdjust="spacing" textLength="88.75" x="213.4375" y="606.1377">Performance</text><line style="stroke:#A80036;stroke-width:1.875;" x1="71.25" x2="403.75" y1="620" y2="620"/><line style="stroke:#A80036;stroke-width:1.875;" x1="71.25" x2="403.75" y1="630" y2="630"/><text fill="#000000" font-family="sans-serif" font-size="13.75" lengthAdjust="spacing" textLength="268.75" x="77.5" y="649.2737">+intervalTime(List&lt;ClinicalTest&gt; clinicalTests,</text><text fill="#000000" font-family="sans-serif" font-size="13.75" lengthAdjust="spacing" textLength="236.25" x="81.25" y="666.5686">DateTime initialDate, DateTime endDate)</text><text fill="#000000" font-family="sans-serif" font-size="13.75" lengthAdjust="spacing" textLength="320" x="77.5" y="683.8635">+bruteForceAlgorithm(List&lt;ClinicalTest&gt; clinicalTests,</text><text fill="#000000" font-family="sans-serif" font-size="13.75" lengthAdjust="spacing" textLength="240" x="81.25" y="701.1584">DateTime inicialDate, DateTime endDate)</text><!--MD5=[1f6362a5c8f21d8d6a0fce68f3a92a4e]
class Parameter--><rect codeLine="36" fill="#FEFECE" filter="url(#fwv22rwpybbpi)" height="94.5898" id="Parameter" style="stroke:#A80036;stroke-width:1.875;" width="112.5" x="637.5" y="811.25"/><ellipse cx="656.25" cy="831.25" fill="#ADD1B2" rx="13.75" ry="13.75" style="stroke:#A80036;stroke-width:1.25;"/><path d="M658.75,826.875 Q659.0039,826.25 659.2969,825.9375 Q659.5898,825.625 659.9219,825.625 Q660.5078,825.625 660.8789,825.9766 Q661.25,826.3281 661.25,827.1484 L661.25,829.1016 Q661.25,829.9219 660.8984,830.2734 Q660.5469,830.625 660,830.625 Q659.5117,830.625 659.1992,830.4102 Q658.8867,830.1953 658.75,829.6289 Q658.6914,829.2383 658.4766,829.0234 Q658.0859,828.6133 657.3828,828.3789 Q656.6797,828.125 655.9766,828.125 Q655.0977,828.125 654.3555,828.4766 Q653.6328,828.8281 653.0664,829.6094 Q652.5,830.3906 652.5,831.4648 L652.5,832.6172 Q652.5,833.9063 653.5547,834.7656 Q654.6094,835.625 656.4844,835.625 Q657.5977,835.625 658.3789,835.3711 Q658.8281,835.2344 659.3359,834.7852 Q659.668,834.5313 659.8438,834.4531 Q660.0195,834.375 660.2344,834.375 Q660.6445,834.375 660.9375,834.707 Q661.25,835.0195 661.25,835.4688 Q661.25,835.8984 660.8203,836.4063 Q660.1953,837.1484 659.1992,837.5586 Q657.8906,838.125 656.2891,838.125 Q654.4141,838.125 652.9102,837.3828 Q651.6992,836.7969 650.8398,835.5273 Q650,834.2578 650,832.7539 L650,831.3867 Q650,829.8242 650.7422,828.457 Q651.5039,827.0898 652.8125,826.3672 Q654.1406,825.625 655.625,825.625 Q656.5234,825.625 657.3047,825.9375 Q658.0859,826.25 658.75,826.875 Z " fill="#000000"/><text fill="#000000" font-family="sans-serif" font-size="15" lengthAdjust="spacing" textLength="72.5" x="673.75" y="837.3877">Parameter</text><line style="stroke:#A80036;stroke-width:1.875;" x1="638.75" x2="748.75" y1="851.25" y2="851.25"/><text fill="#000000" font-family="sans-serif" font-size="13.75" lengthAdjust="spacing" textLength="96.25" x="645" y="870.5237">-Date createdAt</text><line style="stroke:#A80036;stroke-width:1.875;" x1="638.75" x2="748.75" y1="878.5449" y2="878.5449"/><text fill="#000000" font-family="sans-serif" font-size="13.75" lengthAdjust="spacing" textLength="97.5" x="645" y="897.8186">+getCreatedAt()</text><!--MD5=[f00dbe8c0302c6aec2cb26b3c659c8fc]
class Report--><rect codeLine="40" fill="#FEFECE" filter="url(#fwv22rwpybbpi)" height="94.5898" id="Report" style="stroke:#A80036;stroke-width:1.875;" width="112.5" x="793.75" y="811.25"/><ellipse cx="824.3125" cy="831.25" fill="#ADD1B2" rx="13.75" ry="13.75" style="stroke:#A80036;stroke-width:1.25;"/><path d="M826.8125,826.875 Q827.0664,826.25 827.3594,825.9375 Q827.6523,825.625 827.9844,825.625 Q828.5703,825.625 828.9414,825.9766 Q829.3125,826.3281 829.3125,827.1484 L829.3125,829.1016 Q829.3125,829.9219 828.9609,830.2734 Q828.6094,830.625 828.0625,830.625 Q827.5742,830.625 827.2617,830.4102 Q826.9492,830.1953 826.8125,829.6289 Q826.7539,829.2383 826.5391,829.0234 Q826.1484,828.6133 825.4453,828.3789 Q824.7422,828.125 824.0391,828.125 Q823.1602,828.125 822.418,828.4766 Q821.6953,828.8281 821.1289,829.6094 Q820.5625,830.3906 820.5625,831.4648 L820.5625,832.6172 Q820.5625,833.9063 821.6172,834.7656 Q822.6719,835.625 824.5469,835.625 Q825.6602,835.625 826.4414,835.3711 Q826.8906,835.2344 827.3984,834.7852 Q827.7305,834.5313 827.9063,834.4531 Q828.082,834.375 828.2969,834.375 Q828.707,834.375 829,834.707 Q829.3125,835.0195 829.3125,835.4688 Q829.3125,835.8984 828.8828,836.4063 Q828.2578,837.1484 827.2617,837.5586 Q825.9531,838.125 824.3516,838.125 Q822.4766,838.125 820.9727,837.3828 Q819.7617,836.7969 818.9023,835.5273 Q818.0625,834.2578 818.0625,832.7539 L818.0625,831.3867 Q818.0625,829.8242 818.8047,828.457 Q819.5664,827.0898 820.875,826.3672 Q822.2031,825.625 823.6875,825.625 Q824.5859,825.625 825.3672,825.9375 Q826.1484,826.25 826.8125,826.875 Z " fill="#000000"/><text fill="#000000" font-family="sans-serif" font-size="15" lengthAdjust="spacing" textLength="46.25" x="844.4375" y="837.3877">Report</text><line style="stroke:#A80036;stroke-width:1.875;" x1="795" x2="905" y1="851.25" y2="851.25"/><text fill="#000000" font-family="sans-serif" font-size="13.75" lengthAdjust="spacing" textLength="96.25" x="801.25" y="870.5237">-Date createdAt</text><line style="stroke:#A80036;stroke-width:1.875;" x1="795" x2="905" y1="878.5449" y2="878.5449"/><text fill="#000000" font-family="sans-serif" font-size="13.75" lengthAdjust="spacing" textLength="97.5" x="801.25" y="897.8186">+getCreatedAt()</text><!--MD5=[4c0aa57da2b49f4d96495d7a88289668]
class PerformanceStore--><rect codeLine="47" fill="#FEFECE" filter="url(#fwv22rwpybbpi)" height="94.5898" id="PerformanceStore" style="stroke:#A80036;stroke-width:1.875;" width="198.75" x="990.625" y="596.875"/><ellipse cx="1024.5625" cy="616.875" fill="#ADD1B2" rx="13.75" ry="13.75" style="stroke:#A80036;stroke-width:1.25;"/><path d="M1027.0625,612.5 Q1027.3164,611.875 1027.6094,611.5625 Q1027.9023,611.25 1028.2344,611.25 Q1028.8203,611.25 1029.1914,611.6016 Q1029.5625,611.9531 1029.5625,612.7734 L1029.5625,614.7266 Q1029.5625,615.5469 1029.2109,615.8984 Q1028.8594,616.25 1028.3125,616.25 Q1027.8242,616.25 1027.5117,616.0352 Q1027.1992,615.8203 1027.0625,615.2539 Q1027.0039,614.8633 1026.7891,614.6484 Q1026.3984,614.2383 1025.6953,614.0039 Q1024.9922,613.75 1024.2891,613.75 Q1023.4102,613.75 1022.668,614.1016 Q1021.9453,614.4531 1021.3789,615.2344 Q1020.8125,616.0156 1020.8125,617.0898 L1020.8125,618.2422 Q1020.8125,619.5313 1021.8672,620.3906 Q1022.9219,621.25 1024.7969,621.25 Q1025.9102,621.25 1026.6914,620.9961 Q1027.1406,620.8594 1027.6484,620.4102 Q1027.9805,620.1563 1028.1563,620.0781 Q1028.332,620 1028.5469,620 Q1028.957,620 1029.25,620.332 Q1029.5625,620.6445 1029.5625,621.0938 Q1029.5625,621.5234 1029.1328,622.0313 Q1028.5078,622.7734 1027.5117,623.1836 Q1026.2031,623.75 1024.6016,623.75 Q1022.7266,623.75 1021.2227,623.0078 Q1020.0117,622.4219 1019.1523,621.1523 Q1018.3125,619.8828 1018.3125,618.3789 L1018.3125,617.0117 Q1018.3125,615.4492 1019.0547,614.082 Q1019.8164,612.7148 1021.125,611.9922 Q1022.4531,611.25 1023.9375,611.25 Q1024.8359,611.25 1025.6172,611.5625 Q1026.3984,611.875 1027.0625,612.5 Z " fill="#000000"/><text fill="#000000" font-family="sans-serif" font-size="15" lengthAdjust="spacing" textLength="125" x="1045.4375" y="623.0127">PerformanceStore</text><line style="stroke:#A80036;stroke-width:1.875;" x1="991.875" x2="1188.125" y1="636.875" y2="636.875"/><line style="stroke:#A80036;stroke-width:1.875;" x1="991.875" x2="1188.125" y1="646.875" y2="646.875"/><text fill="#000000" font-family="sans-serif" font-size="13.75" lengthAdjust="spacing" textLength="132.5" x="998.125" y="666.1487">+savePerformances()</text><text fill="#000000" font-family="sans-serif" font-size="13.75" lengthAdjust="spacing" textLength="183.75" x="998.125" y="683.4436">+getPerformanceByDate(date)</text><!--MD5=[02655fe311d5bf0e31cca58a2df6e816]
link PerformanceUI to PerformanceController--><path codeLine="55" d="M812.5,137.8875 C812.5,170.65 812.5,224.2125 812.5,262.1125 " fill="none" id="PerformanceUI-to-PerformanceController" style="stroke:#A80036;stroke-width:1.25;stroke-dasharray:7.0,7.0;"/><polygon fill="#A80036" points="812.5,268.5375,817.5321,257.3018,812.5179,262.2875,807.5322,257.2733,812.5,268.5375" style="stroke:#A80036;stroke-width:1.25;"/><!--MD5=[9ac6d9f3282be27d7bdc76bf2782d6c8]
link PerformanceController to PerformanceStore--><path codeLine="57" d="M862.5375,346.65 C887.2875,366.6625 916.7625,392.475 940,418.75 C988.025,473.05 1032.7875,543.675 1060.6875,591.05 " fill="none" id="PerformanceController-to-PerformanceStore" style="stroke:#A80036;stroke-width:1.25;stroke-dasharray:7.0,7.0;"/><polygon fill="#A80036" points="1064.0125,596.7125,1062.6377,584.4784,1060.8522,591.3204,1054.0103,589.5349,1064.0125,596.7125" style="stroke:#A80036;stroke-width:1.25;"/><!--MD5=[eb86c3a0a127319432e0b44b63285686]
link PerformanceController to Company--><path codeLine="58" d="M762.775,346.2625 C737.7,366.375 707.6375,392.3875 683.75,418.75 C637.5125,469.8 593.4875,535.0625 564.025,582.025 " fill="none" id="PerformanceController-to-Company" style="stroke:#A80036;stroke-width:1.25;stroke-dasharray:7.0,7.0;"/><polygon fill="#A80036" points="560.5125,587.6625,570.7045,580.7571,563.817,582.3575,562.2165,575.4699,560.5125,587.6625" style="stroke:#A80036;stroke-width:1.25;"/><!--MD5=[0c9476227090537d395e942fe1dd917b]
link PerformanceController to ClinicalTest--><path codeLine="59" d="M812.5,346.4625 C812.5,394.775 812.5,480.25 812.5,547.0875 " fill="none" id="PerformanceController-to-ClinicalTest" style="stroke:#A80036;stroke-width:1.25;stroke-dasharray:7.0,7.0;"/><polygon fill="#A80036" points="812.5,553.5,817.5,542.25,812.5,547.25,807.5,542.25,812.5,553.5" style="stroke:#A80036;stroke-width:1.25;"/><!--MD5=[33e073aedc565e562ae12497760b1bba]
link Company to ClinicalTest--><path codeLine="60" d="M606.5125,644.375 C635.1125,644.375 668.0125,644.375 699,644.375 " fill="none" id="Company-to-ClinicalTest" style="stroke:#A80036;stroke-width:1.25;"/><polygon fill="#A80036" points="705.575,644.375,694.325,639.375,699.325,644.375,694.325,649.375,705.575,644.375" style="stroke:#A80036;stroke-width:1.25;"/><text fill="#000000" font-family="sans-serif" font-size="16.25" lengthAdjust="spacing" textLength="53.75" x="629.0625" y="636.2439">perform</text><text fill="#000000" font-family="sans-serif" font-size="16.25" lengthAdjust="spacing" textLength="8.75" x="616.1542" y="640.1486">1</text><text fill="#000000" font-family="sans-serif" font-size="16.25" lengthAdjust="spacing" textLength="6.25" x="689.5237" y="640.3811">*</text><!--MD5=[c4b1d240d5a56274483aeb673ca43b39]
link Performance to PerformanceStore--><path codeLine="61" d="M279.075,579.575 C312.8,533.475 364.925,475.2125 427.5,448.75 C532.4,404.4 837.8625,398.3625 940,448.75 C999.5625,478.1375 1042.0375,543.7875 1066.25,590.9375 " fill="none" id="Performance-to-PerformanceStore" style="stroke:#A80036;stroke-width:1.25;"/><polygon fill="#A80036" points="1069.1125,596.5875,1068.4906,584.2921,1066.2889,591.0117,1059.5693,588.81,1069.1125,596.5875" style="stroke:#A80036;stroke-width:1.25;"/><text fill="#000000" font-family="sans-serif" font-size="16.25" lengthAdjust="spacing" textLength="26.25" x="438.125" y="404.3689">use</text><text fill="#000000" font-family="sans-serif" font-size="16.25" lengthAdjust="spacing" textLength="8.75" x="275.3237" y="566.3933">1</text><text fill="#000000" font-family="sans-serif" font-size="16.25" lengthAdjust="spacing" textLength="8.75" x="1055.8626" y="583.2387">1</text><!--MD5=[a3b32f1700d27ca9fe9d851045e18ac9]
reverse link ClinicalTest to Report--><path codeLine="63" d="M829.5875,742.1875 C833.8125,766.0625 838.15,790.5875 841.7375,810.8375 " fill="none" id="ClinicalTest-backto-Report" style="stroke:#A80036;stroke-width:1.25;"/><polygon fill="#A80036" points="828.4,735.475,825.4351,747.4237,829.4882,741.6295,835.2824,745.6826,828.4,735.475" style="stroke:#A80036;stroke-width:1.25;"/><!--MD5=[13186e010094279c24994f64ec076c56]
reverse link ClinicalTest to Parameter--><path codeLine="64" d="M759.0625,740.9625 C745.4625,765.225 731.45,790.2375 719.9,810.8375 " fill="none" id="ClinicalTest-backto-Parameter" style="stroke:#A80036;stroke-width:1.25;"/><polygon fill="#A80036" points="762.1375,735.475,752.2745,742.8428,759.081,740.9266,760.9971,747.7331,762.1375,735.475" style="stroke:#A80036;stroke-width:1.25;"/><!--MD5=[defcc4a1fa1d09f0dc169947fb924207]
@startuml
skinparam classAttributeIconSize 0

package UI {
class PerformanceUI{
}
}
package Controller {
class PerformanceController {
  + newPerformance()
}
}

package Domain {
package Model {
class ClinicalTest {
  - Client client
  - List parameterList
  - Date createdAt
  - String internalCode
  - Report report
  + addValidation()
  +changeStateValidationToDone()
}

class Company {
  - String designation
  + Company(designation)
  + getTestStore()
}

class Performance {
  +intervalTime(List<ClinicalTest> clinicalTests,\n DateTime initialDate, DateTime endDate)
  +bruteForceAlgorithm(List<ClinicalTest> clinicalTests,\n DateTime inicialDate, DateTime endDate)
}

class Parameter{
- Date createdAt
  + getCreatedAt()
}
class Report {
  - Date createdAt
  + getCreatedAt()
}

}
package Store {
class PerformanceStore {
    + savePerformances()
    + getPerformanceByDate(date)
}
}

}

PerformanceUI ..> PerformanceController

PerformanceController ..> PerformanceStore
PerformanceController ..> Company
PerformanceController ..> ClinicalTest
Company "1" -> "*"ClinicalTest :perform
Performance "1" -> "1" PerformanceStore : use

ClinicalTest <- - Report
ClinicalTest <- - Parameter

@enduml

PlantUML version 1.2021.7(Sun May 23 13:40:07 BST 2021)
(GPL source distribution)
Java Runtime: OpenJDK Runtime Environment
JVM: Dynamic Code Evolution 64-Bit Server VM
Default Encoding: Cp1252
Language: pt
Country: PT
--></g></svg>