<?xml version="1.0" encoding="UTF-8" standalone="no"?><svg xmlns="http://www.w3.org/2000/svg" xmlns:xlink="http://www.w3.org/1999/xlink" contentScriptType="application/ecmascript" contentStyleType="text/css" height="965px" preserveAspectRatio="none" style="width:1325px;height:965px;background:#FFFFFF;" version="1.1" viewBox="0 0 1325 965" width="1325px" zoomAndPan="magnify"><defs><filter height="300%" id="figwqlcplla7d" width="300%" x="-1" y="-1"><feGaussianBlur result="blurOut" stdDeviation="2.5"/><feColorMatrix in="blurOut" result="blurOut2" type="matrix" values="0 0 0 0 0 0 0 0 0 0 0 0 0 0 0 0 0 0 .4 0"/><feOffset dx="5.0" dy="5.0" in="blurOut2" result="blurOut3"/><feBlend in="SourceGraphic" in2="blurOut3" mode="normal"/></filter></defs><g><!--MD5=[9681dc6e01e10c6b4fe06895ae94f592]
cluster UI--><polygon fill="#FFFFFF" filter="url(#figwqlcplla7d)" points="783.75,7.5,808.75,7.5,817.5,37.0117,968.75,37.0117,968.75,157.5,783.75,157.5,783.75,7.5" style="stroke:#000000;stroke-width:1.875;"/><line style="stroke:#000000;stroke-width:1.875;" x1="783.75" x2="817.5" y1="37.0117" y2="37.0117"/><text fill="#000000" font-family="sans-serif" font-size="17.5" font-weight="bold" lengthAdjust="spacing" textLength="17.5" x="788.75" y="28.1665">UI</text><!--MD5=[1f2cfc53d9d308f53762fd0fcbaa4873]
cluster Controller--><polygon fill="#FFFFFF" filter="url(#figwqlcplla7d)" points="757.5,198.75,853.75,198.75,862.5,228.2617,995,228.2617,995,366.25,757.5,366.25,757.5,198.75" style="stroke:#000000;stroke-width:1.875;"/><line style="stroke:#000000;stroke-width:1.875;" x1="757.5" x2="862.5" y1="228.2617" y2="228.2617"/><text fill="#000000" font-family="sans-serif" font-size="17.5" font-weight="bold" lengthAdjust="spacing" textLength="88.75" x="762.5" y="219.4165">Controller</text><!--MD5=[121a8bf1197281ab89ed693fab589f94]
cluster Domain--><polygon fill="#FFFFFF" filter="url(#figwqlcplla7d)" points="20,428.75,92.5,428.75,101.25,458.2617,1303.75,458.2617,1303.75,956.25,20,956.25,20,428.75" style="stroke:#000000;stroke-width:1.875;"/><line style="stroke:#000000;stroke-width:1.875;" x1="20" x2="101.25" y1="458.2617" y2="458.2617"/><text fill="#000000" font-family="sans-serif" font-size="17.5" font-weight="bold" lengthAdjust="spacing" textLength="65" x="25" y="449.4165">Domain</text><!--MD5=[15636c1ca4a123c16a2a1a8e90aca7a9]
cluster Model--><polygon fill="#FFFFFF" filter="url(#figwqlcplla7d)" points="50,483.75,112.5,483.75,121.25,513.2617,1003.75,513.2617,1003.75,926.25,50,926.25,50,483.75" style="stroke:#000000;stroke-width:1.875;"/><line style="stroke:#000000;stroke-width:1.875;" x1="50" x2="121.25" y1="513.2617" y2="513.2617"/><text fill="#000000" font-family="sans-serif" font-size="17.5" font-weight="bold" lengthAdjust="spacing" textLength="55" x="55" y="504.4165">Model</text><!--MD5=[7ce1723ddb6e6233854253973eae5a71]
cluster Store--><polygon fill="#FFFFFF" filter="url(#figwqlcplla7d)" points="1033.75,526.875,1088.75,526.875,1097.5,556.3867,1273.75,556.3867,1273.75,711.875,1033.75,711.875,1033.75,526.875" style="stroke:#000000;stroke-width:1.875;"/><line style="stroke:#000000;stroke-width:1.875;" x1="1033.75" x2="1097.5" y1="556.3867" y2="556.3867"/><text fill="#000000" font-family="sans-serif" font-size="17.5" font-weight="bold" lengthAdjust="spacing" textLength="47.5" x="1038.75" y="547.5415">Store</text><!--MD5=[9fb6dac11bbde13a6b7e8c4e5ea77cec]
class PerformanceUI--><rect codeLine="4" fill="#FEFECE" filter="url(#figwqlcplla7d)" height="60" id="PerformanceUI" style="stroke:#A80036;stroke-width:1.875;" width="143.75" x="804.375" y="77.5"/><ellipse cx="823.125" cy="97.5" fill="#ADD1B2" rx="13.75" ry="13.75" style="stroke:#A80036;stroke-width:1.25;"/><path d="M825.625,93.125 Q825.8789,92.5 826.1719,92.1875 Q826.4648,91.875 826.7969,91.875 Q827.3828,91.875 827.7539,92.2266 Q828.125,92.5781 828.125,93.3984 L828.125,95.3516 Q828.125,96.1719 827.7734,96.5234 Q827.4219,96.875 826.875,96.875 Q826.3867,96.875 826.0742,96.6602 Q825.7617,96.4453 825.625,95.8789 Q825.5664,95.4883 825.3516,95.2734 Q824.9609,94.8633 824.2578,94.6289 Q823.5547,94.375 822.8516,94.375 Q821.9727,94.375 821.2305,94.7266 Q820.5078,95.0781 819.9414,95.8594 Q819.375,96.6406 819.375,97.7148 L819.375,98.8672 Q819.375,100.1563 820.4297,101.0156 Q821.4844,101.875 823.3594,101.875 Q824.4727,101.875 825.2539,101.6211 Q825.7031,101.4844 826.2109,101.0352 Q826.543,100.7813 826.7188,100.7031 Q826.8945,100.625 827.1094,100.625 Q827.5195,100.625 827.8125,100.957 Q828.125,101.2695 828.125,101.7188 Q828.125,102.1484 827.6953,102.6563 Q827.0703,103.3984 826.0742,103.8086 Q824.7656,104.375 823.1641,104.375 Q821.2891,104.375 819.7852,103.6328 Q818.5742,103.0469 817.7148,101.7773 Q816.875,100.5078 816.875,99.0039 L816.875,97.6367 Q816.875,96.0742 817.6172,94.707 Q818.3789,93.3398 819.6875,92.6172 Q821.0156,91.875 822.5,91.875 Q823.3984,91.875 824.1797,92.1875 Q824.9609,92.5 825.625,93.125 Z " fill="#000000"/><text fill="#000000" font-family="sans-serif" font-size="15" lengthAdjust="spacing" textLength="103.75" x="840.625" y="103.6377">PerformanceUI</text><line style="stroke:#A80036;stroke-width:1.875;" x1="805.625" x2="946.875" y1="117.5" y2="117.5"/><line style="stroke:#A80036;stroke-width:1.875;" x1="805.625" x2="946.875" y1="127.5" y2="127.5"/><!--MD5=[61635451a40aa5589ddd4cd28847754f]
class PerformanceController--><rect codeLine="8" fill="#FEFECE" filter="url(#figwqlcplla7d)" height="77.2949" id="PerformanceController" style="stroke:#A80036;stroke-width:1.875;" width="196.25" x="778.125" y="268.75"/><ellipse cx="796.875" cy="288.75" fill="#ADD1B2" rx="13.75" ry="13.75" style="stroke:#A80036;stroke-width:1.25;"/><path d="M799.375,284.375 Q799.6289,283.75 799.9219,283.4375 Q800.2148,283.125 800.5469,283.125 Q801.1328,283.125 801.5039,283.4766 Q801.875,283.8281 801.875,284.6484 L801.875,286.6016 Q801.875,287.4219 801.5234,287.7734 Q801.1719,288.125 800.625,288.125 Q800.1367,288.125 799.8242,287.9102 Q799.5117,287.6953 799.375,287.1289 Q799.3164,286.7383 799.1016,286.5234 Q798.7109,286.1133 798.0078,285.8789 Q797.3047,285.625 796.6016,285.625 Q795.7227,285.625 794.9805,285.9766 Q794.2578,286.3281 793.6914,287.1094 Q793.125,287.8906 793.125,288.9648 L793.125,290.1172 Q793.125,291.4063 794.1797,292.2656 Q795.2344,293.125 797.1094,293.125 Q798.2227,293.125 799.0039,292.8711 Q799.4531,292.7344 799.9609,292.2852 Q800.293,292.0313 800.4688,291.9531 Q800.6445,291.875 800.8594,291.875 Q801.2695,291.875 801.5625,292.207 Q801.875,292.5195 801.875,292.9688 Q801.875,293.3984 801.4453,293.9063 Q800.8203,294.6484 799.8242,295.0586 Q798.5156,295.625 796.9141,295.625 Q795.0391,295.625 793.5352,294.8828 Q792.3242,294.2969 791.4648,293.0273 Q790.625,291.7578 790.625,290.2539 L790.625,288.8867 Q790.625,287.3242 791.3672,285.957 Q792.1289,284.5898 793.4375,283.8672 Q794.7656,283.125 796.25,283.125 Q797.1484,283.125 797.9297,283.4375 Q798.7109,283.75 799.375,284.375 Z " fill="#000000"/><text fill="#000000" font-family="sans-serif" font-size="15" lengthAdjust="spacing" textLength="156.25" x="814.375" y="294.8877">PerformanceController</text><line style="stroke:#A80036;stroke-width:1.875;" x1="779.375" x2="973.125" y1="308.75" y2="308.75"/><line style="stroke:#A80036;stroke-width:1.875;" x1="779.375" x2="973.125" y1="318.75" y2="318.75"/><text fill="#000000" font-family="sans-serif" font-size="13.75" lengthAdjust="spacing" textLength="122.5" x="785.625" y="338.0237">+newPerformance()</text><!--MD5=[51e7be1fc67316e87ee401e666e38435]
class ClinicalTest--><rect codeLine="15" fill="#FEFECE" filter="url(#figwqlcplla7d)" height="181.0645" id="ClinicalTest" style="stroke:#A80036;stroke-width:1.875;" width="213.75" x="769.375" y="553.75"/><ellipse cx="830.3125" cy="573.75" fill="#ADD1B2" rx="13.75" ry="13.75" style="stroke:#A80036;stroke-width:1.25;"/><path d="M832.8125,569.375 Q833.0664,568.75 833.3594,568.4375 Q833.6523,568.125 833.9844,568.125 Q834.5703,568.125 834.9414,568.4766 Q835.3125,568.8281 835.3125,569.6484 L835.3125,571.6016 Q835.3125,572.4219 834.9609,572.7734 Q834.6094,573.125 834.0625,573.125 Q833.5742,573.125 833.2617,572.9102 Q832.9492,572.6953 832.8125,572.1289 Q832.7539,571.7383 832.5391,571.5234 Q832.1484,571.1133 831.4453,570.8789 Q830.7422,570.625 830.0391,570.625 Q829.1602,570.625 828.418,570.9766 Q827.6953,571.3281 827.1289,572.1094 Q826.5625,572.8906 826.5625,573.9648 L826.5625,575.1172 Q826.5625,576.4063 827.6172,577.2656 Q828.6719,578.125 830.5469,578.125 Q831.6602,578.125 832.4414,577.8711 Q832.8906,577.7344 833.3984,577.2852 Q833.7305,577.0313 833.9063,576.9531 Q834.082,576.875 834.2969,576.875 Q834.707,576.875 835,577.207 Q835.3125,577.5195 835.3125,577.9688 Q835.3125,578.3984 834.8828,578.9063 Q834.2578,579.6484 833.2617,580.0586 Q831.9531,580.625 830.3516,580.625 Q828.4766,580.625 826.9727,579.8828 Q825.7617,579.2969 824.9023,578.0273 Q824.0625,576.7578 824.0625,575.2539 L824.0625,573.8867 Q824.0625,572.3242 824.8047,570.957 Q825.5664,569.5898 826.875,568.8672 Q828.2031,568.125 829.6875,568.125 Q830.5859,568.125 831.3672,568.4375 Q832.1484,568.75 832.8125,569.375 Z " fill="#000000"/><text fill="#000000" font-family="sans-serif" font-size="15" lengthAdjust="spacing" textLength="81.25" x="855.9375" y="579.8877">ClinicalTest</text><line style="stroke:#A80036;stroke-width:1.875;" x1="770.625" x2="981.875" y1="593.75" y2="593.75"/><text fill="#000000" font-family="sans-serif" font-size="13.75" lengthAdjust="spacing" textLength="72.5" x="776.875" y="613.0237">-Client client</text><text fill="#000000" font-family="sans-serif" font-size="13.75" lengthAdjust="spacing" textLength="112.5" x="776.875" y="630.3186">-List parameterList</text><text fill="#000000" font-family="sans-serif" font-size="13.75" lengthAdjust="spacing" textLength="96.25" x="776.875" y="647.6135">-Date createdAt</text><text fill="#000000" font-family="sans-serif" font-size="13.75" lengthAdjust="spacing" textLength="118.75" x="776.875" y="664.9084">-String internalCode</text><text fill="#000000" font-family="sans-serif" font-size="13.75" lengthAdjust="spacing" textLength="85" x="776.875" y="682.2034">-Report report</text><line style="stroke:#A80036;stroke-width:1.875;" x1="770.625" x2="981.875" y1="690.2246" y2="690.2246"/><text fill="#000000" font-family="sans-serif" font-size="13.75" lengthAdjust="spacing" textLength="98.75" x="776.875" y="709.4983">+addValidation()</text><text fill="#000000" font-family="sans-serif" font-size="13.75" lengthAdjust="spacing" textLength="198.75" x="776.875" y="726.7932">+changeStateValidationToDone()</text><!--MD5=[02e4b9b7573f1156f41e60aa5b4e25a4]
class Company--><rect codeLine="25" fill="#FEFECE" filter="url(#figwqlcplla7d)" height="111.8848" id="Company" style="stroke:#A80036;stroke-width:1.875;" width="157.5" x="503.75" y="588.125"/><ellipse cx="545.5625" cy="608.125" fill="#ADD1B2" rx="13.75" ry="13.75" style="stroke:#A80036;stroke-width:1.25;"/><path d="M548.0625,603.75 Q548.3164,603.125 548.6094,602.8125 Q548.9023,602.5 549.2344,602.5 Q549.8203,602.5 550.1914,602.8516 Q550.5625,603.2031 550.5625,604.0234 L550.5625,605.9766 Q550.5625,606.7969 550.2109,607.1484 Q549.8594,607.5 549.3125,607.5 Q548.8242,607.5 548.5117,607.2852 Q548.1992,607.0703 548.0625,606.5039 Q548.0039,606.1133 547.7891,605.8984 Q547.3984,605.4883 546.6953,605.2539 Q545.9922,605 545.2891,605 Q544.4102,605 543.668,605.3516 Q542.9453,605.7031 542.3789,606.4844 Q541.8125,607.2656 541.8125,608.3398 L541.8125,609.4922 Q541.8125,610.7813 542.8672,611.6406 Q543.9219,612.5 545.7969,612.5 Q546.9102,612.5 547.6914,612.2461 Q548.1406,612.1094 548.6484,611.6602 Q548.9805,611.4063 549.1563,611.3281 Q549.332,611.25 549.5469,611.25 Q549.957,611.25 550.25,611.582 Q550.5625,611.8945 550.5625,612.3438 Q550.5625,612.7734 550.1328,613.2813 Q549.5078,614.0234 548.5117,614.4336 Q547.2031,615 545.6016,615 Q543.7266,615 542.2227,614.2578 Q541.0117,613.6719 540.1523,612.4023 Q539.3125,611.1328 539.3125,609.6289 L539.3125,608.2617 Q539.3125,606.6992 540.0547,605.332 Q540.8164,603.9648 542.125,603.2422 Q543.4531,602.5 544.9375,602.5 Q545.8359,602.5 546.6172,602.8125 Q547.3984,603.125 548.0625,603.75 Z " fill="#000000"/><text fill="#000000" font-family="sans-serif" font-size="15" lengthAdjust="spacing" textLength="66.25" x="568.1875" y="614.2627">Company</text><line style="stroke:#A80036;stroke-width:1.875;" x1="505" x2="660" y1="628.125" y2="628.125"/><text fill="#000000" font-family="sans-serif" font-size="13.75" lengthAdjust="spacing" textLength="112.5" x="511.25" y="647.3987">-String designation</text><line style="stroke:#A80036;stroke-width:1.875;" x1="505" x2="660" y1="655.4199" y2="655.4199"/><text fill="#000000" font-family="sans-serif" font-size="13.75" lengthAdjust="spacing" textLength="142.5" x="511.25" y="674.6936">+Company(designation)</text><text fill="#000000" font-family="sans-serif" font-size="13.75" lengthAdjust="spacing" textLength="95" x="511.25" y="691.9885">+getTestStore()</text><!--MD5=[53e6cac2272ce2eb99d85cf2b2d574ee]
class Performance--><rect codeLine="31" fill="#FEFECE" filter="url(#figwqlcplla7d)" height="111.8848" id="Performance" style="stroke:#A80036;stroke-width:1.875;" width="390" x="70" y="588.125"/><ellipse cx="215.3125" cy="608.125" fill="#ADD1B2" rx="13.75" ry="13.75" style="stroke:#A80036;stroke-width:1.25;"/><path d="M217.8125,603.75 Q218.0664,603.125 218.3594,602.8125 Q218.6523,602.5 218.9844,602.5 Q219.5703,602.5 219.9414,602.8516 Q220.3125,603.2031 220.3125,604.0234 L220.3125,605.9766 Q220.3125,606.7969 219.9609,607.1484 Q219.6094,607.5 219.0625,607.5 Q218.5742,607.5 218.2617,607.2852 Q217.9492,607.0703 217.8125,606.5039 Q217.7539,606.1133 217.5391,605.8984 Q217.1484,605.4883 216.4453,605.2539 Q215.7422,605 215.0391,605 Q214.1602,605 213.418,605.3516 Q212.6953,605.7031 212.1289,606.4844 Q211.5625,607.2656 211.5625,608.3398 L211.5625,609.4922 Q211.5625,610.7813 212.6172,611.6406 Q213.6719,612.5 215.5469,612.5 Q216.6602,612.5 217.4414,612.2461 Q217.8906,612.1094 218.3984,611.6602 Q218.7305,611.4063 218.9063,611.3281 Q219.082,611.25 219.2969,611.25 Q219.707,611.25 220,611.582 Q220.3125,611.8945 220.3125,612.3438 Q220.3125,612.7734 219.8828,613.2813 Q219.2578,614.0234 218.2617,614.4336 Q216.9531,615 215.3516,615 Q213.4766,615 211.9727,614.2578 Q210.7617,613.6719 209.9023,612.4023 Q209.0625,611.1328 209.0625,609.6289 L209.0625,608.2617 Q209.0625,606.6992 209.8047,605.332 Q210.5664,603.9648 211.875,603.2422 Q213.2031,602.5 214.6875,602.5 Q215.5859,602.5 216.3672,602.8125 Q217.1484,603.125 217.8125,603.75 Z " fill="#000000"/><text fill="#000000" font-family="sans-serif" font-size="15" lengthAdjust="spacing" textLength="88.75" x="240.9375" y="614.2627">Performance</text><line style="stroke:#A80036;stroke-width:1.875;" x1="71.25" x2="458.75" y1="628.125" y2="628.125"/><line style="stroke:#A80036;stroke-width:1.875;" x1="71.25" x2="458.75" y1="638.125" y2="638.125"/><text fill="#000000" font-family="sans-serif" font-size="13.75" lengthAdjust="spacing" textLength="268.75" x="77.5" y="657.3987">+intervalTime(List&lt;ClinicalTest&gt; clinicalTests,</text><text fill="#000000" font-family="sans-serif" font-size="13.75" lengthAdjust="spacing" textLength="236.25" x="81.25" y="674.6936">DateTime initialDate, DateTime endDate)</text><text fill="#000000" font-family="sans-serif" font-size="13.75" lengthAdjust="spacing" textLength="375" x="77.5" y="691.9885">+bruteForceAlgorithm(DateTime inicialDate, DateTime endDate)</text><!--MD5=[1f6362a5c8f21d8d6a0fce68f3a92a4e]
class Parameter--><rect codeLine="36" fill="#FEFECE" filter="url(#figwqlcplla7d)" height="94.5898" id="Parameter" style="stroke:#A80036;stroke-width:1.875;" width="112.5" x="701.25" y="811.25"/><ellipse cx="720" cy="831.25" fill="#ADD1B2" rx="13.75" ry="13.75" style="stroke:#A80036;stroke-width:1.25;"/><path d="M722.5,826.875 Q722.7539,826.25 723.0469,825.9375 Q723.3398,825.625 723.6719,825.625 Q724.2578,825.625 724.6289,825.9766 Q725,826.3281 725,827.1484 L725,829.1016 Q725,829.9219 724.6484,830.2734 Q724.2969,830.625 723.75,830.625 Q723.2617,830.625 722.9492,830.4102 Q722.6367,830.1953 722.5,829.6289 Q722.4414,829.2383 722.2266,829.0234 Q721.8359,828.6133 721.1328,828.3789 Q720.4297,828.125 719.7266,828.125 Q718.8477,828.125 718.1055,828.4766 Q717.3828,828.8281 716.8164,829.6094 Q716.25,830.3906 716.25,831.4648 L716.25,832.6172 Q716.25,833.9063 717.3047,834.7656 Q718.3594,835.625 720.2344,835.625 Q721.3477,835.625 722.1289,835.3711 Q722.5781,835.2344 723.0859,834.7852 Q723.418,834.5313 723.5938,834.4531 Q723.7695,834.375 723.9844,834.375 Q724.3945,834.375 724.6875,834.707 Q725,835.0195 725,835.4688 Q725,835.8984 724.5703,836.4063 Q723.9453,837.1484 722.9492,837.5586 Q721.6406,838.125 720.0391,838.125 Q718.1641,838.125 716.6602,837.3828 Q715.4492,836.7969 714.5898,835.5273 Q713.75,834.2578 713.75,832.7539 L713.75,831.3867 Q713.75,829.8242 714.4922,828.457 Q715.2539,827.0898 716.5625,826.3672 Q717.8906,825.625 719.375,825.625 Q720.2734,825.625 721.0547,825.9375 Q721.8359,826.25 722.5,826.875 Z " fill="#000000"/><text fill="#000000" font-family="sans-serif" font-size="15" lengthAdjust="spacing" textLength="72.5" x="737.5" y="837.3877">Parameter</text><line style="stroke:#A80036;stroke-width:1.875;" x1="702.5" x2="812.5" y1="851.25" y2="851.25"/><text fill="#000000" font-family="sans-serif" font-size="13.75" lengthAdjust="spacing" textLength="96.25" x="708.75" y="870.5237">-Date createdAt</text><line style="stroke:#A80036;stroke-width:1.875;" x1="702.5" x2="812.5" y1="878.5449" y2="878.5449"/><text fill="#000000" font-family="sans-serif" font-size="13.75" lengthAdjust="spacing" textLength="97.5" x="708.75" y="897.8186">+getCreatedAt()</text><!--MD5=[f00dbe8c0302c6aec2cb26b3c659c8fc]
class Report--><rect codeLine="40" fill="#FEFECE" filter="url(#figwqlcplla7d)" height="94.5898" id="Report" style="stroke:#A80036;stroke-width:1.875;" width="112.5" x="857.5" y="811.25"/><ellipse cx="888.0625" cy="831.25" fill="#ADD1B2" rx="13.75" ry="13.75" style="stroke:#A80036;stroke-width:1.25;"/><path d="M890.5625,826.875 Q890.8164,826.25 891.1094,825.9375 Q891.4023,825.625 891.7344,825.625 Q892.3203,825.625 892.6914,825.9766 Q893.0625,826.3281 893.0625,827.1484 L893.0625,829.1016 Q893.0625,829.9219 892.7109,830.2734 Q892.3594,830.625 891.8125,830.625 Q891.3242,830.625 891.0117,830.4102 Q890.6992,830.1953 890.5625,829.6289 Q890.5039,829.2383 890.2891,829.0234 Q889.8984,828.6133 889.1953,828.3789 Q888.4922,828.125 887.7891,828.125 Q886.9102,828.125 886.168,828.4766 Q885.4453,828.8281 884.8789,829.6094 Q884.3125,830.3906 884.3125,831.4648 L884.3125,832.6172 Q884.3125,833.9063 885.3672,834.7656 Q886.4219,835.625 888.2969,835.625 Q889.4102,835.625 890.1914,835.3711 Q890.6406,835.2344 891.1484,834.7852 Q891.4805,834.5313 891.6563,834.4531 Q891.832,834.375 892.0469,834.375 Q892.457,834.375 892.75,834.707 Q893.0625,835.0195 893.0625,835.4688 Q893.0625,835.8984 892.6328,836.4063 Q892.0078,837.1484 891.0117,837.5586 Q889.7031,838.125 888.1016,838.125 Q886.2266,838.125 884.7227,837.3828 Q883.5117,836.7969 882.6523,835.5273 Q881.8125,834.2578 881.8125,832.7539 L881.8125,831.3867 Q881.8125,829.8242 882.5547,828.457 Q883.3164,827.0898 884.625,826.3672 Q885.9531,825.625 887.4375,825.625 Q888.3359,825.625 889.1172,825.9375 Q889.8984,826.25 890.5625,826.875 Z " fill="#000000"/><text fill="#000000" font-family="sans-serif" font-size="15" lengthAdjust="spacing" textLength="46.25" x="908.1875" y="837.3877">Report</text><line style="stroke:#A80036;stroke-width:1.875;" x1="858.75" x2="968.75" y1="851.25" y2="851.25"/><text fill="#000000" font-family="sans-serif" font-size="13.75" lengthAdjust="spacing" textLength="96.25" x="865" y="870.5237">-Date createdAt</text><line style="stroke:#A80036;stroke-width:1.875;" x1="858.75" x2="968.75" y1="878.5449" y2="878.5449"/><text fill="#000000" font-family="sans-serif" font-size="13.75" lengthAdjust="spacing" textLength="97.5" x="865" y="897.8186">+getCreatedAt()</text><!--MD5=[4c0aa57da2b49f4d96495d7a88289668]
class PerformanceStore--><rect codeLine="47" fill="#FEFECE" filter="url(#figwqlcplla7d)" height="94.5898" id="PerformanceStore" style="stroke:#A80036;stroke-width:1.875;" width="198.75" x="1054.375" y="596.875"/><ellipse cx="1088.3125" cy="616.875" fill="#ADD1B2" rx="13.75" ry="13.75" style="stroke:#A80036;stroke-width:1.25;"/><path d="M1090.8125,612.5 Q1091.0664,611.875 1091.3594,611.5625 Q1091.6523,611.25 1091.9844,611.25 Q1092.5703,611.25 1092.9414,611.6016 Q1093.3125,611.9531 1093.3125,612.7734 L1093.3125,614.7266 Q1093.3125,615.5469 1092.9609,615.8984 Q1092.6094,616.25 1092.0625,616.25 Q1091.5742,616.25 1091.2617,616.0352 Q1090.9492,615.8203 1090.8125,615.2539 Q1090.7539,614.8633 1090.5391,614.6484 Q1090.1484,614.2383 1089.4453,614.0039 Q1088.7422,613.75 1088.0391,613.75 Q1087.1602,613.75 1086.418,614.1016 Q1085.6953,614.4531 1085.1289,615.2344 Q1084.5625,616.0156 1084.5625,617.0898 L1084.5625,618.2422 Q1084.5625,619.5313 1085.6172,620.3906 Q1086.6719,621.25 1088.5469,621.25 Q1089.6602,621.25 1090.4414,620.9961 Q1090.8906,620.8594 1091.3984,620.4102 Q1091.7305,620.1563 1091.9063,620.0781 Q1092.082,620 1092.2969,620 Q1092.707,620 1093,620.332 Q1093.3125,620.6445 1093.3125,621.0938 Q1093.3125,621.5234 1092.8828,622.0313 Q1092.2578,622.7734 1091.2617,623.1836 Q1089.9531,623.75 1088.3516,623.75 Q1086.4766,623.75 1084.9727,623.0078 Q1083.7617,622.4219 1082.9023,621.1523 Q1082.0625,619.8828 1082.0625,618.3789 L1082.0625,617.0117 Q1082.0625,615.4492 1082.8047,614.082 Q1083.5664,612.7148 1084.875,611.9922 Q1086.2031,611.25 1087.6875,611.25 Q1088.5859,611.25 1089.3672,611.5625 Q1090.1484,611.875 1090.8125,612.5 Z " fill="#000000"/><text fill="#000000" font-family="sans-serif" font-size="15" lengthAdjust="spacing" textLength="125" x="1109.1875" y="623.0127">PerformanceStore</text><line style="stroke:#A80036;stroke-width:1.875;" x1="1055.625" x2="1251.875" y1="636.875" y2="636.875"/><line style="stroke:#A80036;stroke-width:1.875;" x1="1055.625" x2="1251.875" y1="646.875" y2="646.875"/><text fill="#000000" font-family="sans-serif" font-size="13.75" lengthAdjust="spacing" textLength="132.5" x="1061.875" y="666.1487">+savePerformances()</text><text fill="#000000" font-family="sans-serif" font-size="13.75" lengthAdjust="spacing" textLength="183.75" x="1061.875" y="683.4436">+getPerformanceByDate(date)</text><!--MD5=[02655fe311d5bf0e31cca58a2df6e816]
link PerformanceUI to PerformanceController--><path codeLine="55" d="M876.25,137.8875 C876.25,170.65 876.25,224.2125 876.25,262.1125 " fill="none" id="PerformanceUI-to-PerformanceController" style="stroke:#A80036;stroke-width:1.25;stroke-dasharray:7.0,7.0;"/><polygon fill="#A80036" points="876.25,268.5375,881.2821,257.3018,876.2679,262.2875,871.2822,257.2733,876.25,268.5375" style="stroke:#A80036;stroke-width:1.25;"/><!--MD5=[9ac6d9f3282be27d7bdc76bf2782d6c8]
link PerformanceController to PerformanceStore--><path codeLine="57" d="M926.2875,346.65 C951.0375,366.6625 980.5125,392.475 1003.75,418.75 C1051.775,473.05 1096.5375,543.675 1124.4375,591.05 " fill="none" id="PerformanceController-to-PerformanceStore" style="stroke:#A80036;stroke-width:1.25;stroke-dasharray:7.0,7.0;"/><polygon fill="#A80036" points="1127.7625,596.7125,1126.3877,584.4784,1124.6022,591.3204,1117.7603,589.5349,1127.7625,596.7125" style="stroke:#A80036;stroke-width:1.25;"/><!--MD5=[eb86c3a0a127319432e0b44b63285686]
link PerformanceController to Company--><path codeLine="58" d="M826.8,346.525 C801.8125,366.7 771.725,392.7 747.5,418.75 C699.725,470.1375 653.1,535.35 621.675,582.2125 " fill="none" id="PerformanceController-to-Company" style="stroke:#A80036;stroke-width:1.25;stroke-dasharray:7.0,7.0;"/><polygon fill="#A80036" points="617.9125,587.8375,628.3287,581.2752,621.3917,582.6454,620.0214,575.7084,617.9125,587.8375" style="stroke:#A80036;stroke-width:1.25;"/><!--MD5=[0c9476227090537d395e942fe1dd917b]
link PerformanceController to ClinicalTest--><path codeLine="59" d="M876.25,346.4625 C876.25,394.775 876.25,480.25 876.25,547.0875 " fill="none" id="PerformanceController-to-ClinicalTest" style="stroke:#A80036;stroke-width:1.25;stroke-dasharray:7.0,7.0;"/><polygon fill="#A80036" points="876.25,553.5,881.25,542.25,876.25,547.25,871.25,542.25,876.25,553.5" style="stroke:#A80036;stroke-width:1.25;"/><!--MD5=[33e073aedc565e562ae12497760b1bba]
link Company to ClinicalTest--><path codeLine="60" d="M661.6,644.375 C692.6375,644.375 728.85,644.375 762.5875,644.375 " fill="none" id="Company-to-ClinicalTest" style="stroke:#A80036;stroke-width:1.25;"/><polygon fill="#A80036" points="768.85,644.375,757.6,639.375,762.6,644.375,757.6,649.375,768.85,644.375" style="stroke:#A80036;stroke-width:1.25;"/><text fill="#000000" font-family="sans-serif" font-size="16.25" lengthAdjust="spacing" textLength="62.5" x="684.0625" y="636.2439">performs</text><text fill="#000000" font-family="sans-serif" font-size="16.25" lengthAdjust="spacing" textLength="8.75" x="671.2518" y="640.1486">1</text><text fill="#000000" font-family="sans-serif" font-size="16.25" lengthAdjust="spacing" textLength="6.25" x="753.1018" y="640.4114">*</text><!--MD5=[c4b1d240d5a56274483aeb673ca43b39]
link Performance to PerformanceStore--><path codeLine="61" d="M307.45,587.9 C346.85,540.6 410.1875,476.4875 482.5,448.75 C590.65,407.2625 899.875,397.5 1003.75,448.75 C1063.3125,478.1375 1105.7875,543.7875 1130,590.9375 " fill="none" id="Performance-to-PerformanceStore" style="stroke:#A80036;stroke-width:1.25;"/><polygon fill="#A80036" points="1132.8625,596.5875,1132.2406,584.2921,1130.0389,591.0117,1123.3193,588.81,1132.8625,596.5875" style="stroke:#A80036;stroke-width:1.25;"/><text fill="#000000" font-family="sans-serif" font-size="16.25" lengthAdjust="spacing" textLength="35" x="488.75" y="404.3689">uses</text><text fill="#000000" font-family="sans-serif" font-size="16.25" lengthAdjust="spacing" textLength="8.75" x="304.5302" y="574.6707">1</text><text fill="#000000" font-family="sans-serif" font-size="16.25" lengthAdjust="spacing" textLength="8.75" x="1119.6126" y="583.2387">1</text><!--MD5=[a3b32f1700d27ca9fe9d851045e18ac9]
reverse link ClinicalTest to Report--><path codeLine="63" d="M893.3375,742.1875 C897.5625,766.0625 901.9,790.5875 905.4875,810.8375 " fill="none" id="ClinicalTest-backto-Report" style="stroke:#A80036;stroke-width:1.25;"/><polygon fill="#A80036" points="892.15,735.475,889.1851,747.4237,893.2382,741.6295,899.0324,745.6826,892.15,735.475" style="stroke:#A80036;stroke-width:1.25;"/><!--MD5=[13186e010094279c24994f64ec076c56]
reverse link ClinicalTest to Parameter--><path codeLine="64" d="M822.8125,740.9625 C809.2125,765.225 795.2,790.2375 783.65,810.8375 " fill="none" id="ClinicalTest-backto-Parameter" style="stroke:#A80036;stroke-width:1.25;"/><polygon fill="#A80036" points="825.8875,735.475,816.0245,742.8428,822.831,740.9266,824.7471,747.7331,825.8875,735.475" style="stroke:#A80036;stroke-width:1.25;"/><!--MD5=[ed200075492e37fd9df843aed113fc62]
@startuml
skinparam classAttributeIconSize 0

package UI {
class PerformanceUI{
}
}
package Controller {
class PerformanceController {
  + newPerformance()
}
}

package Domain {
package Model {
class ClinicalTest {
  - Client client
  - List parameterList
  - Date createdAt
  - String internalCode
  - Report report
  + addValidation()
  +changeStateValidationToDone()
}

class Company {
  - String designation
  + Company(designation)
  + getTestStore()
}

class Performance {
  +intervalTime(List<ClinicalTest> clinicalTests,\n DateTime initialDate, DateTime endDate)
  +bruteForceAlgorithm(DateTime inicialDate, DateTime endDate)
}

class Parameter{
- Date createdAt
  + getCreatedAt()
}
class Report {
  - Date createdAt
  + getCreatedAt()
}

}
package Store {
class PerformanceStore {
    + savePerformances()
    + getPerformanceByDate(date)
}
}

}

PerformanceUI ..> PerformanceController

PerformanceController ..> PerformanceStore
PerformanceController ..> Company
PerformanceController ..> ClinicalTest
Company "1" -> "*"ClinicalTest : performs
Performance "1" -> "1" PerformanceStore : uses

ClinicalTest <- - Report
ClinicalTest <- - Parameter

@enduml

PlantUML version 1.2021.7(Sun May 23 13:40:07 BST 2021)
(GPL source distribution)
Java Runtime: OpenJDK Runtime Environment
JVM: Dynamic Code Evolution 64-Bit Server VM
Default Encoding: Cp1252
Language: pt
Country: PT
--></g></svg>