<?xml version="1.0" encoding="UTF-8" standalone="no"?><svg xmlns="http://www.w3.org/2000/svg" xmlns:xlink="http://www.w3.org/1999/xlink" contentScriptType="application/ecmascript" contentStyleType="text/css" height="640px" preserveAspectRatio="none" style="width:226px;height:640px;background:#FFFFFF;" version="1.1" viewBox="0 0 226 640" width="226.25px" zoomAndPan="magnify"><defs><filter height="300%" id="f141p72gyimv2p" width="300%" x="-1" y="-1"><feGaussianBlur result="blurOut" stdDeviation="2.5"/><feColorMatrix in="blurOut" result="blurOut2" type="matrix" values="0 0 0 0 0 0 0 0 0 0 0 0 0 0 0 0 0 0 .4 0"/><feOffset dx="5.0" dy="5.0" in="blurOut2" result="blurOut3"/><feBlend in="SourceGraphic" in2="blurOut3" mode="normal"/></filter></defs><g><!--MD5=[02e4b9b7573f1156f41e60aa5b4e25a4]
class Company--><rect codeLine="3" fill="#FEFECE" filter="url(#f141p72gyimv2p)" height="67.2949" id="Company" style="stroke:#A80036;stroke-width:1.875;" width="106.25" x="46.875" y="8.75"/><ellipse cx="65.625" cy="28.75" fill="#ADD1B2" rx="13.75" ry="13.75" style="stroke:#A80036;stroke-width:1.25;"/><path d="M68.125,24.375 Q68.3789,23.75 68.6719,23.4375 Q68.9648,23.125 69.2969,23.125 Q69.8828,23.125 70.2539,23.4766 Q70.625,23.8281 70.625,24.6484 L70.625,26.6016 Q70.625,27.4219 70.2734,27.7734 Q69.9219,28.125 69.375,28.125 Q68.8867,28.125 68.5742,27.9102 Q68.2617,27.6953 68.125,27.1289 Q68.0664,26.7383 67.8516,26.5234 Q67.4609,26.1133 66.7578,25.8789 Q66.0547,25.625 65.3516,25.625 Q64.4727,25.625 63.7305,25.9766 Q63.0078,26.3281 62.4414,27.1094 Q61.875,27.8906 61.875,28.9648 L61.875,30.1172 Q61.875,31.4063 62.9297,32.2656 Q63.9844,33.125 65.8594,33.125 Q66.9727,33.125 67.7539,32.8711 Q68.2031,32.7344 68.7109,32.2852 Q69.043,32.0313 69.2188,31.9531 Q69.3945,31.875 69.6094,31.875 Q70.0195,31.875 70.3125,32.207 Q70.625,32.5195 70.625,32.9688 Q70.625,33.3984 70.1953,33.9063 Q69.5703,34.6484 68.5742,35.0586 Q67.2656,35.625 65.6641,35.625 Q63.7891,35.625 62.2852,34.8828 Q61.0742,34.2969 60.2148,33.0273 Q59.375,31.7578 59.375,30.2539 L59.375,28.8867 Q59.375,27.3242 60.1172,25.957 Q60.8789,24.5898 62.1875,23.8672 Q63.5156,23.125 65,23.125 Q65.8984,23.125 66.6797,23.4375 Q67.4609,23.75 68.125,24.375 Z " fill="#000000"/><text fill="#000000" font-family="sans-serif" font-size="15" lengthAdjust="spacing" textLength="66.25" x="83.125" y="34.8877">Company</text><line style="stroke:#A80036;stroke-width:1.875;" x1="48.125" x2="151.875" y1="48.75" y2="48.75"/><rect fill="none" height="7.5" style="stroke:#C82930;stroke-width:1.25;" width="7.5" x="56.875" y="58.75"/><text fill="#000000" font-family="sans-serif" font-size="13.75" lengthAdjust="spacing" textLength="66.25" x="71.875" y="68.0237">description</text><!--MD5=[51e7be1fc67316e87ee401e666e38435]
class ClinicalTest--><rect codeLine="7" fill="#FEFECE" filter="url(#f141p72gyimv2p)" height="101.8848" id="ClinicalTest" style="stroke:#A80036;stroke-width:1.875;" width="130" x="35" y="173.75"/><ellipse cx="57.6875" cy="193.75" fill="#ADD1B2" rx="13.75" ry="13.75" style="stroke:#A80036;stroke-width:1.25;"/><path d="M60.1875,189.375 Q60.4414,188.75 60.7344,188.4375 Q61.0273,188.125 61.3594,188.125 Q61.9453,188.125 62.3164,188.4766 Q62.6875,188.8281 62.6875,189.6484 L62.6875,191.6016 Q62.6875,192.4219 62.3359,192.7734 Q61.9844,193.125 61.4375,193.125 Q60.9492,193.125 60.6367,192.9102 Q60.3242,192.6953 60.1875,192.1289 Q60.1289,191.7383 59.9141,191.5234 Q59.5234,191.1133 58.8203,190.8789 Q58.1172,190.625 57.4141,190.625 Q56.5352,190.625 55.793,190.9766 Q55.0703,191.3281 54.5039,192.1094 Q53.9375,192.8906 53.9375,193.9648 L53.9375,195.1172 Q53.9375,196.4063 54.9922,197.2656 Q56.0469,198.125 57.9219,198.125 Q59.0352,198.125 59.8164,197.8711 Q60.2656,197.7344 60.7734,197.2852 Q61.1055,197.0313 61.2813,196.9531 Q61.457,196.875 61.6719,196.875 Q62.082,196.875 62.375,197.207 Q62.6875,197.5195 62.6875,197.9688 Q62.6875,198.3984 62.2578,198.9063 Q61.6328,199.6484 60.6367,200.0586 Q59.3281,200.625 57.7266,200.625 Q55.8516,200.625 54.3477,199.8828 Q53.1367,199.2969 52.2773,198.0273 Q51.4375,196.7578 51.4375,195.2539 L51.4375,193.8867 Q51.4375,192.3242 52.1797,190.957 Q52.9414,189.5898 54.25,188.8672 Q55.5781,188.125 57.0625,188.125 Q57.9609,188.125 58.7422,188.4375 Q59.5234,188.75 60.1875,189.375 Z " fill="#000000"/><text fill="#000000" font-family="sans-serif" font-size="15" lengthAdjust="spacing" textLength="81.25" x="76.0625" y="199.8877">ClinicalTest</text><line style="stroke:#A80036;stroke-width:1.875;" x1="36.25" x2="163.75" y1="213.75" y2="213.75"/><rect fill="none" height="7.5" style="stroke:#C82930;stroke-width:1.25;" width="7.5" x="45" y="223.75"/><text fill="#000000" font-family="sans-serif" font-size="13.75" lengthAdjust="spacing" textLength="97.5" x="60" y="233.0237">labWereCreated</text><rect fill="none" height="7.5" style="stroke:#C82930;stroke-width:1.25;" width="7.5" x="45" y="241.0449"/><text fill="#000000" font-family="sans-serif" font-size="13.75" lengthAdjust="spacing" textLength="75" x="60" y="250.3186">internalCode</text><rect fill="none" height="7.5" style="stroke:#C82930;stroke-width:1.25;" width="7.5" x="45" y="258.3398"/><text fill="#000000" font-family="sans-serif" font-size="13.75" lengthAdjust="spacing" textLength="53.75" x="60" y="267.6135">nhsCode</text><!--MD5=[53e6cac2272ce2eb99d85cf2b2d574ee]
class Performance--><rect codeLine="13" fill="#FEFECE" filter="url(#f141p72gyimv2p)" height="67.2949" id="Performance" style="stroke:#A80036;stroke-width:1.875;" width="182.5" x="8.75" y="373.75"/><ellipse cx="51.6875" cy="393.75" fill="#ADD1B2" rx="13.75" ry="13.75" style="stroke:#A80036;stroke-width:1.25;"/><path d="M54.1875,389.375 Q54.4414,388.75 54.7344,388.4375 Q55.0273,388.125 55.3594,388.125 Q55.9453,388.125 56.3164,388.4766 Q56.6875,388.8281 56.6875,389.6484 L56.6875,391.6016 Q56.6875,392.4219 56.3359,392.7734 Q55.9844,393.125 55.4375,393.125 Q54.9492,393.125 54.6367,392.9102 Q54.3242,392.6953 54.1875,392.1289 Q54.1289,391.7383 53.9141,391.5234 Q53.5234,391.1133 52.8203,390.8789 Q52.1172,390.625 51.4141,390.625 Q50.5352,390.625 49.793,390.9766 Q49.0703,391.3281 48.5039,392.1094 Q47.9375,392.8906 47.9375,393.9648 L47.9375,395.1172 Q47.9375,396.4063 48.9922,397.2656 Q50.0469,398.125 51.9219,398.125 Q53.0352,398.125 53.8164,397.8711 Q54.2656,397.7344 54.7734,397.2852 Q55.1055,397.0313 55.2813,396.9531 Q55.457,396.875 55.6719,396.875 Q56.082,396.875 56.375,397.207 Q56.6875,397.5195 56.6875,397.9688 Q56.6875,398.3984 56.2578,398.9063 Q55.6328,399.6484 54.6367,400.0586 Q53.3281,400.625 51.7266,400.625 Q49.8516,400.625 48.3477,399.8828 Q47.1367,399.2969 46.2773,398.0273 Q45.4375,396.7578 45.4375,395.2539 L45.4375,393.8867 Q45.4375,392.3242 46.1797,390.957 Q46.9414,389.5898 48.25,388.8672 Q49.5781,388.125 51.0625,388.125 Q51.9609,388.125 52.7422,388.4375 Q53.5234,388.75 54.1875,389.375 Z " fill="#000000"/><text fill="#000000" font-family="sans-serif" font-size="15" lengthAdjust="spacing" textLength="88.75" x="74.5625" y="399.8877">Performance</text><line style="stroke:#A80036;stroke-width:1.875;" x1="10" x2="190" y1="413.75" y2="413.75"/><rect fill="none" height="7.5" style="stroke:#C82930;stroke-width:1.25;" width="7.5" x="18.75" y="423.75"/><text fill="#000000" font-family="sans-serif" font-size="13.75" lengthAdjust="spacing" textLength="150" x="33.75" y="433.0237">GraphicsContext graphic</text><!--MD5=[20ddef7090025b04fb973268620c0974]
class DateTime--><rect codeLine="17" fill="#FEFECE" filter="url(#f141p72gyimv2p)" height="84.5898" id="DateTime" style="stroke:#A80036;stroke-width:1.875;" width="107.5" x="46.25" y="538.75"/><ellipse cx="65" cy="558.75" fill="#ADD1B2" rx="13.75" ry="13.75" style="stroke:#A80036;stroke-width:1.25;"/><path d="M67.5,554.375 Q67.7539,553.75 68.0469,553.4375 Q68.3398,553.125 68.6719,553.125 Q69.2578,553.125 69.6289,553.4766 Q70,553.8281 70,554.6484 L70,556.6016 Q70,557.4219 69.6484,557.7734 Q69.2969,558.125 68.75,558.125 Q68.2617,558.125 67.9492,557.9102 Q67.6367,557.6953 67.5,557.1289 Q67.4414,556.7383 67.2266,556.5234 Q66.8359,556.1133 66.1328,555.8789 Q65.4297,555.625 64.7266,555.625 Q63.8477,555.625 63.1055,555.9766 Q62.3828,556.3281 61.8164,557.1094 Q61.25,557.8906 61.25,558.9648 L61.25,560.1172 Q61.25,561.4063 62.3047,562.2656 Q63.3594,563.125 65.2344,563.125 Q66.3477,563.125 67.1289,562.8711 Q67.5781,562.7344 68.0859,562.2852 Q68.418,562.0313 68.5938,561.9531 Q68.7695,561.875 68.9844,561.875 Q69.3945,561.875 69.6875,562.207 Q70,562.5195 70,562.9688 Q70,563.3984 69.5703,563.9063 Q68.9453,564.6484 67.9492,565.0586 Q66.6406,565.625 65.0391,565.625 Q63.1641,565.625 61.6602,564.8828 Q60.4492,564.2969 59.5898,563.0273 Q58.75,561.7578 58.75,560.2539 L58.75,558.8867 Q58.75,557.3242 59.4922,555.957 Q60.2539,554.5898 61.5625,553.8672 Q62.8906,553.125 64.375,553.125 Q65.2734,553.125 66.0547,553.4375 Q66.8359,553.75 67.5,554.375 Z " fill="#000000"/><text fill="#000000" font-family="sans-serif" font-size="15" lengthAdjust="spacing" textLength="67.5" x="82.5" y="564.8877">DateTime</text><line style="stroke:#A80036;stroke-width:1.875;" x1="47.5" x2="152.5" y1="578.75" y2="578.75"/><rect fill="none" height="7.5" style="stroke:#C82930;stroke-width:1.25;" width="7.5" x="56.25" y="588.75"/><text fill="#000000" font-family="sans-serif" font-size="13.75" lengthAdjust="spacing" textLength="26.25" x="71.25" y="598.0237">date</text><rect fill="none" height="7.5" style="stroke:#C82930;stroke-width:1.25;" width="7.5" x="56.25" y="606.0449"/><text fill="#000000" font-family="sans-serif" font-size="13.75" lengthAdjust="spacing" textLength="23.75" x="71.25" y="615.3186">time</text><!--MD5=[33e073aedc565e562ae12497760b1bba]
link Company to ClinicalTest--><path codeLine="23" d="M100,76.35 C100,103.5 100,142.6125 100,173.725 " fill="none" id="Company-ClinicalTest" style="stroke:#A80036;stroke-width:1.25;"/><polygon fill="#000000" points="106.25,131.4697,109.9237,120.1634,102.5763,120.1634,106.25,131.4697" style="stroke:#000000;stroke-width:1.25;"/><text fill="#000000" font-family="sans-serif" font-size="16.25" lengthAdjust="spacing" textLength="62.5" x="117.5" y="131.8689">performs</text><text fill="#000000" font-family="sans-serif" font-size="16.25" lengthAdjust="spacing" textLength="8.75" x="90.293" y="102.8816">1</text><text fill="#000000" font-family="sans-serif" font-size="16.25" lengthAdjust="spacing" textLength="6.25" x="93.2129" y="160.1529">*</text><!--MD5=[16f4d3110b80304c693304768a01007e]
link ClinicalTest to Performance--><path codeLine="24" d="M100,276.3875 C100,307.3875 100,346.3 100,373.4 " fill="none" id="ClinicalTest-Performance" style="stroke:#A80036;stroke-width:1.25;"/><polygon fill="#000000" points="106.25,318.9697,102.5763,330.2761,109.9237,330.2761,106.25,318.9697" style="stroke:#000000;stroke-width:1.25;"/><text fill="#000000" font-family="sans-serif" font-size="16.25" lengthAdjust="spacing" textLength="93.75" x="117.5" y="331.8689">checks tests</text><text fill="#000000" font-family="sans-serif" font-size="16.25" lengthAdjust="spacing" textLength="8.75" x="90.6074" y="302.3501">1</text><text fill="#000000" font-family="sans-serif" font-size="16.25" lengthAdjust="spacing" textLength="6.25" x="93.0273" y="360.1453">*</text><!--MD5=[1cce616ddc0c739d222e7023d528dbc3]
link Performance to DateTime--><path codeLine="25" d="M100,441.3625 C100,469.025 100,508.85 100,538.725 " fill="none" id="Performance-DateTime" style="stroke:#A80036;stroke-width:1.25;"/><polygon fill="#000000" points="106.25,496.4697,109.9237,485.1634,102.5763,485.1634,106.25,496.4697" style="stroke:#000000;stroke-width:1.25;"/><text fill="#000000" font-family="sans-serif" font-size="16.25" lengthAdjust="spacing" textLength="98.75" x="117.5" y="496.8689">has interval of</text><text fill="#000000" font-family="sans-serif" font-size="16.25" lengthAdjust="spacing" textLength="8.75" x="90.293" y="467.8968">1</text><text fill="#000000" font-family="sans-serif" font-size="16.25" lengthAdjust="spacing" textLength="6.25" x="93.1348" y="525.3367">*</text><!--MD5=[c583ec6265175ec13d10bd1a669a7f0e]
@startuml
hide methods

class Company {
    -description
}

class ClinicalTest {
    -labWereCreated
    -internalCode
    -nhsCode
}

class Performance {
    -GraphicsContext graphic
}

class DateTime {
    -date
    -time
}


Company"1" - - "*"ClinicalTest : > performs
ClinicalTest"1" - - "*"Performance : < checks tests
Performance"1" - - "*"DateTime : > has interval of


@enduml

PlantUML version 1.2021.7(Sun May 23 13:40:07 BST 2021)
(GPL source distribution)
Java Runtime: OpenJDK Runtime Environment
JVM: Dynamic Code Evolution 64-Bit Server VM
Default Encoding: Cp1252
Language: pt
Country: PT
--></g></svg>