<?xml version="1.0" encoding="UTF-8" standalone="no"?><svg xmlns="http://www.w3.org/2000/svg" xmlns:xlink="http://www.w3.org/1999/xlink" contentScriptType="application/ecmascript" contentStyleType="text/css" height="511.25px" preserveAspectRatio="none" style="width:483px;height:511px;" version="1.1" viewBox="0 0 483 511" width="483.75px" zoomAndPan="magnify"><defs><filter height="300%" id="farcl2f5r9jm5" width="300%" x="-1" y="-1"><feGaussianBlur result="blurOut" stdDeviation="2.5"/><feColorMatrix in="blurOut" result="blurOut2" type="matrix" values="0 0 0 0 0 0 0 0 0 0 0 0 0 0 0 0 0 0 .4 0"/><feOffset dx="5.0" dy="5.0" in="blurOut2" result="blurOut3"/><feBlend in="SourceGraphic" in2="blurOut3" mode="normal"/></filter></defs><g><!--MD5=[a126dd63c8621c017159ae62771fbe54]
class RegisterEmployeeUI--><rect codeLine="3" fill="#FEFECE" filter="url(#farcl2f5r9jm5)" height="60" id="RegisterEmployeeUI" style="stroke:#A80036;stroke-width:1.875;" width="182.5" x="146.25" y="8.75"/><ellipse cx="165" cy="28.75" fill="#ADD1B2" rx="13.75" ry="13.75" style="stroke:#A80036;stroke-width:1.25;"/><path d="M167.5,24.375 Q167.7539,23.75 168.0469,23.4375 Q168.3398,23.125 168.6719,23.125 Q169.2578,23.125 169.6289,23.4766 Q170,23.8281 170,24.6484 L170,26.6016 Q170,27.4219 169.6484,27.7734 Q169.2969,28.125 168.75,28.125 Q168.2617,28.125 167.9492,27.9102 Q167.6367,27.6953 167.5,27.1289 Q167.4414,26.7383 167.2266,26.5234 Q166.8359,26.1133 166.1328,25.8789 Q165.4297,25.625 164.7266,25.625 Q163.8477,25.625 163.1055,25.9766 Q162.3828,26.3281 161.8164,27.1094 Q161.25,27.8906 161.25,28.9648 L161.25,30.1172 Q161.25,31.4063 162.3047,32.2656 Q163.3594,33.125 165.2344,33.125 Q166.3477,33.125 167.1289,32.8711 Q167.5781,32.7344 168.0859,32.2852 Q168.418,32.0313 168.5938,31.9531 Q168.7695,31.875 168.9844,31.875 Q169.3945,31.875 169.6875,32.207 Q170,32.5195 170,32.9688 Q170,33.3984 169.5703,33.9063 Q168.9453,34.6484 167.9492,35.0586 Q166.6406,35.625 165.0391,35.625 Q163.1641,35.625 161.6602,34.8828 Q160.4492,34.2969 159.5898,33.0273 Q158.75,31.7578 158.75,30.2539 L158.75,28.8867 Q158.75,27.3242 159.4922,25.957 Q160.2539,24.5898 161.5625,23.8672 Q162.8906,23.125 164.375,23.125 Q165.2734,23.125 166.0547,23.4375 Q166.8359,23.75 167.5,24.375 Z " fill="#000000"/><text fill="#000000" font-family="sans-serif" font-size="15" lengthAdjust="spacing" textLength="142.5" x="182.5" y="34.8877">RegisterEmployeeUI</text><line style="stroke:#A80036;stroke-width:1.875;" x1="147.5" x2="327.5" y1="48.75" y2="48.75"/><line style="stroke:#A80036;stroke-width:1.875;" x1="147.5" x2="327.5" y1="58.75" y2="58.75"/><!--MD5=[6a4e699b59c2ecf8286aba2faa72e4bd]
class RegisterEmployeeController--><rect codeLine="7" fill="#FEFECE" filter="url(#farcl2f5r9jm5)" height="94.5898" id="RegisterEmployeeController" style="stroke:#A80036;stroke-width:1.875;" width="457.5" x="8.75" y="143.75"/><ellipse cx="134.6875" cy="163.75" fill="#ADD1B2" rx="13.75" ry="13.75" style="stroke:#A80036;stroke-width:1.25;"/><path d="M137.1875,159.375 Q137.4414,158.75 137.7344,158.4375 Q138.0273,158.125 138.3594,158.125 Q138.9453,158.125 139.3164,158.4766 Q139.6875,158.8281 139.6875,159.6484 L139.6875,161.6016 Q139.6875,162.4219 139.3359,162.7734 Q138.9844,163.125 138.4375,163.125 Q137.9492,163.125 137.6367,162.9102 Q137.3242,162.6953 137.1875,162.1289 Q137.1289,161.7383 136.9141,161.5234 Q136.5234,161.1133 135.8203,160.8789 Q135.1172,160.625 134.4141,160.625 Q133.5352,160.625 132.793,160.9766 Q132.0703,161.3281 131.5039,162.1094 Q130.9375,162.8906 130.9375,163.9648 L130.9375,165.1172 Q130.9375,166.4063 131.9922,167.2656 Q133.0469,168.125 134.9219,168.125 Q136.0352,168.125 136.8164,167.8711 Q137.2656,167.7344 137.7734,167.2852 Q138.1055,167.0313 138.2813,166.9531 Q138.457,166.875 138.6719,166.875 Q139.082,166.875 139.375,167.207 Q139.6875,167.5195 139.6875,167.9688 Q139.6875,168.3984 139.2578,168.9063 Q138.6328,169.6484 137.6367,170.0586 Q136.3281,170.625 134.7266,170.625 Q132.8516,170.625 131.3477,169.8828 Q130.1367,169.2969 129.2773,168.0273 Q128.4375,166.7578 128.4375,165.2539 L128.4375,163.8867 Q128.4375,162.3242 129.1797,160.957 Q129.9414,159.5898 131.25,158.8672 Q132.5781,158.125 134.0625,158.125 Q134.9609,158.125 135.7422,158.4375 Q136.5234,158.75 137.1875,159.375 Z " fill="#000000"/><text fill="#000000" font-family="sans-serif" font-size="15" lengthAdjust="spacing" textLength="195" x="160.3125" y="169.8877">RegisterEmployeeController</text><line style="stroke:#A80036;stroke-width:1.875;" x1="10" x2="465" y1="183.75" y2="183.75"/><line style="stroke:#A80036;stroke-width:1.875;" x1="10" x2="465" y1="193.75" y2="193.75"/><text fill="#000000" font-family="sans-serif" font-size="13.75" lengthAdjust="spacing" textLength="442.5" x="16.25" y="213.0237">+Employee newEmployee(role, name, address, phoneNumber, email, soc)</text><text fill="#000000" font-family="sans-serif" font-size="13.75" lengthAdjust="spacing" textLength="240" x="16.25" y="230.3186">+validateEmployee(Employee employee)</text><!--MD5=[7421f545a0d8420c5bec41e74b387d9c]
class Employee--><rect codeLine="13" fill="#FEFECE" filter="url(#farcl2f5r9jm5)" height="181.0645" id="Employee" style="stroke:#A80036;stroke-width:1.875;" width="273.75" x="100.625" y="313.75"/><ellipse cx="197.8125" cy="333.75" fill="#ADD1B2" rx="13.75" ry="13.75" style="stroke:#A80036;stroke-width:1.25;"/><path d="M200.3125,329.375 Q200.5664,328.75 200.8594,328.4375 Q201.1523,328.125 201.4844,328.125 Q202.0703,328.125 202.4414,328.4766 Q202.8125,328.8281 202.8125,329.6484 L202.8125,331.6016 Q202.8125,332.4219 202.4609,332.7734 Q202.1094,333.125 201.5625,333.125 Q201.0742,333.125 200.7617,332.9102 Q200.4492,332.6953 200.3125,332.1289 Q200.2539,331.7383 200.0391,331.5234 Q199.6484,331.1133 198.9453,330.8789 Q198.2422,330.625 197.5391,330.625 Q196.6602,330.625 195.918,330.9766 Q195.1953,331.3281 194.6289,332.1094 Q194.0625,332.8906 194.0625,333.9648 L194.0625,335.1172 Q194.0625,336.4063 195.1172,337.2656 Q196.1719,338.125 198.0469,338.125 Q199.1602,338.125 199.9414,337.8711 Q200.3906,337.7344 200.8984,337.2852 Q201.2305,337.0313 201.4063,336.9531 Q201.582,336.875 201.7969,336.875 Q202.207,336.875 202.5,337.207 Q202.8125,337.5195 202.8125,337.9688 Q202.8125,338.3984 202.3828,338.9063 Q201.7578,339.6484 200.7617,340.0586 Q199.4531,340.625 197.8516,340.625 Q195.9766,340.625 194.4727,339.8828 Q193.2617,339.2969 192.4023,338.0273 Q191.5625,336.7578 191.5625,335.2539 L191.5625,333.8867 Q191.5625,332.3242 192.3047,330.957 Q193.0664,329.5898 194.375,328.8672 Q195.7031,328.125 197.1875,328.125 Q198.0859,328.125 198.8672,328.4375 Q199.6484,328.75 200.3125,329.375 Z " fill="#000000"/><text fill="#000000" font-family="sans-serif" font-size="15" lengthAdjust="spacing" textLength="68.75" x="223.4375" y="339.8877">Employee</text><line style="stroke:#A80036;stroke-width:1.875;" x1="101.875" x2="373.125" y1="353.75" y2="353.75"/><text fill="#000000" font-family="sans-serif" font-size="13.75" lengthAdjust="spacing" textLength="72.5" x="108.125" y="373.0237">EmployeeID;</text><text fill="#000000" font-family="sans-serif" font-size="13.75" lengthAdjust="spacing" textLength="37.5" x="108.125" y="390.3186">Name;</text><text fill="#000000" font-family="sans-serif" font-size="13.75" lengthAdjust="spacing" textLength="56.25" x="108.125" y="407.6135">Address;</text><text fill="#000000" font-family="sans-serif" font-size="13.75" lengthAdjust="spacing" textLength="91.25" x="108.125" y="424.9084">Phone Number;</text><text fill="#000000" font-family="sans-serif" font-size="13.75" lengthAdjust="spacing" textLength="38.75" x="108.125" y="442.2034">E-Mail;</text><text fill="#000000" font-family="sans-serif" font-size="13.75" lengthAdjust="spacing" textLength="258.75" x="108.125" y="459.4983">Standard Occupational Classification code;</text><line style="stroke:#A80036;stroke-width:1.875;" x1="101.875" x2="373.125" y1="467.5195" y2="467.5195"/><text fill="#000000" font-family="sans-serif" font-size="13.75" lengthAdjust="spacing" textLength="240" x="108.125" y="486.7932">+validateEmployee(Employee employee)</text><!--MD5=[3fd241ca11f270f6bde54c00b8a8581a]
link RegisterEmployeeUI to RegisterEmployeeController--><path codeLine="24" d="M237.5,68.925 C237.5,88.225 237.5,114.1625 237.5,137.0875 " fill="none" id="RegisterEmployeeUI-to-RegisterEmployeeController" style="stroke:#A80036;stroke-width:1.25;stroke-dasharray:7.0,7.0;"/><polygon fill="#A80036" points="237.5,143.4625,242.5,132.2125,237.5,137.2125,232.5,132.2125,237.5,143.4625" style="stroke:#A80036;stroke-width:1.25;"/><!--MD5=[7c63a46d16d075ca7ac66937a2a499f7]
link RegisterEmployeeController to Employee--><path codeLine="25" d="M237.5,239.25 C237.5,259.3 237.5,283.5 237.5,307.075 " fill="none" id="RegisterEmployeeController-to-Employee" style="stroke:#A80036;stroke-width:1.25;stroke-dasharray:7.0,7.0;"/><polygon fill="#A80036" points="237.5,313.7125,242.5,302.4625,237.5,307.4625,232.5,302.4625,237.5,313.7125" style="stroke:#A80036;stroke-width:1.25;"/><!--MD5=[008cdfc579e794f04d786d03d2c06438]
@startuml
skinparam classAttributeIconSize 0

class RegisterEmployeeUI
{
}

class RegisterEmployeeController
{
    +Employee newEmployee(role, name, address, phoneNumber, email, soc)
    +validateEmployee(Employee employee)
}

class Employee
{
	EmployeeID;
	Name;
	Address;
	Phone Number;
	E-Mail;
	Standard Occupational Classification code;
    +validateEmployee(Employee employee)
}

RegisterEmployeeUI ..> RegisterEmployeeController
RegisterEmployeeController ..> Employee
@enduml

PlantUML version 1.2021.5(Sun Apr 25 12:20:28 BST 2021)
(GPL source distribution)
Java Runtime: OpenJDK Runtime Environment
JVM: Dynamic Code Evolution 64-Bit Server VM
Default Encoding: Cp1252
Language: pt
Country: PT
--></g></svg>