<?xml version="1.0" encoding="UTF-8" standalone="no"?><svg xmlns="http://www.w3.org/2000/svg" xmlns:xlink="http://www.w3.org/1999/xlink" contentScriptType="application/ecmascript" contentStyleType="text/css" height="162.5px" preserveAspectRatio="none" style="width:697px;height:162px;" version="1.1" viewBox="0 0 697 162" width="697.5px" zoomAndPan="magnify"><defs><filter height="300%" id="fxxsub3olfjmr" width="300%" x="-1" y="-1"><feGaussianBlur result="blurOut" stdDeviation="2.5"/><feColorMatrix in="blurOut" result="blurOut2" type="matrix" values="0 0 0 0 0 0 0 0 0 0 0 0 0 0 0 0 0 0 .4 0"/><feOffset dx="5.0" dy="5.0" in="blurOut2" result="blurOut3"/><feBlend in="SourceGraphic" in2="blurOut3" mode="normal"/></filter></defs><g><!--MD5=[99b8db98afdc2c8404e39242ef4c1e65]
class Platform--><rect codeLine="6" fill="#FEFECE" filter="url(#fxxsub3olfjmr)" height="67.2949" id="Platform" style="stroke:#A80036;stroke-width:1.875;" width="97.5" x="8.75" y="43.125"/><ellipse cx="27.5" cy="63.125" fill="#ADD1B2" rx="13.75" ry="13.75" style="stroke:#A80036;stroke-width:1.25;"/><path d="M30,58.75 Q30.2539,58.125 30.5469,57.8125 Q30.8398,57.5 31.1719,57.5 Q31.7578,57.5 32.1289,57.8516 Q32.5,58.2031 32.5,59.0234 L32.5,60.9766 Q32.5,61.7969 32.1484,62.1484 Q31.7969,62.5 31.25,62.5 Q30.7617,62.5 30.4492,62.2852 Q30.1367,62.0703 30,61.5039 Q29.9414,61.1133 29.7266,60.8984 Q29.3359,60.4883 28.6328,60.2539 Q27.9297,60 27.2266,60 Q26.3477,60 25.6055,60.3516 Q24.8828,60.7031 24.3164,61.4844 Q23.75,62.2656 23.75,63.3398 L23.75,64.4922 Q23.75,65.7813 24.8047,66.6406 Q25.8594,67.5 27.7344,67.5 Q28.8477,67.5 29.6289,67.2461 Q30.0781,67.1094 30.5859,66.6602 Q30.918,66.4063 31.0938,66.3281 Q31.2695,66.25 31.4844,66.25 Q31.8945,66.25 32.1875,66.582 Q32.5,66.8945 32.5,67.3438 Q32.5,67.7734 32.0703,68.2813 Q31.4453,69.0234 30.4492,69.4336 Q29.1406,70 27.5391,70 Q25.6641,70 24.1602,69.2578 Q22.9492,68.6719 22.0898,67.4023 Q21.25,66.1328 21.25,64.6289 L21.25,63.2617 Q21.25,61.6992 21.9922,60.332 Q22.7539,58.9648 24.0625,58.2422 Q25.3906,57.5 26.875,57.5 Q27.7734,57.5 28.5547,57.8125 Q29.3359,58.125 30,58.75 Z " fill="#000000"/><text fill="#000000" font-family="sans-serif" font-size="15" lengthAdjust="spacing" textLength="57.5" x="45" y="69.2627">Platform</text><line style="stroke:#A80036;stroke-width:1.875;" x1="10" x2="105" y1="83.125" y2="83.125"/><text fill="#000000" font-family="sans-serif" font-size="13.75" lengthAdjust="spacing" textLength="73.75" x="16.25" y="102.3987">-designation</text><!--MD5=[7421f545a0d8420c5bec41e74b387d9c]
class Employee--><rect codeLine="10" fill="#FEFECE" filter="url(#fxxsub3olfjmr)" height="136.4746" id="Employee" style="stroke:#A80036;stroke-width:1.875;" width="111.25" x="226.25" y="8.75"/><ellipse cx="246.125" cy="28.75" fill="#ADD1B2" rx="13.75" ry="13.75" style="stroke:#A80036;stroke-width:1.25;"/><path d="M248.625,24.375 Q248.8789,23.75 249.1719,23.4375 Q249.4648,23.125 249.7969,23.125 Q250.3828,23.125 250.7539,23.4766 Q251.125,23.8281 251.125,24.6484 L251.125,26.6016 Q251.125,27.4219 250.7734,27.7734 Q250.4219,28.125 249.875,28.125 Q249.3867,28.125 249.0742,27.9102 Q248.7617,27.6953 248.625,27.1289 Q248.5664,26.7383 248.3516,26.5234 Q247.9609,26.1133 247.2578,25.8789 Q246.5547,25.625 245.8516,25.625 Q244.9727,25.625 244.2305,25.9766 Q243.5078,26.3281 242.9414,27.1094 Q242.375,27.8906 242.375,28.9648 L242.375,30.1172 Q242.375,31.4063 243.4297,32.2656 Q244.4844,33.125 246.3594,33.125 Q247.4727,33.125 248.2539,32.8711 Q248.7031,32.7344 249.2109,32.2852 Q249.543,32.0313 249.7188,31.9531 Q249.8945,31.875 250.1094,31.875 Q250.5195,31.875 250.8125,32.207 Q251.125,32.5195 251.125,32.9688 Q251.125,33.3984 250.6953,33.9063 Q250.0703,34.6484 249.0742,35.0586 Q247.7656,35.625 246.1641,35.625 Q244.2891,35.625 242.7852,34.8828 Q241.5742,34.2969 240.7148,33.0273 Q239.875,31.7578 239.875,30.2539 L239.875,28.8867 Q239.875,27.3242 240.6172,25.957 Q241.3789,24.5898 242.6875,23.8672 Q244.0156,23.125 245.5,23.125 Q246.3984,23.125 247.1797,23.4375 Q247.9609,23.75 248.625,24.375 Z " fill="#000000"/><text fill="#000000" font-family="sans-serif" font-size="15" lengthAdjust="spacing" textLength="68.75" x="263.875" y="34.8877">Employee</text><line style="stroke:#A80036;stroke-width:1.875;" x1="227.5" x2="336.25" y1="48.75" y2="48.75"/><text fill="#000000" font-family="sans-serif" font-size="13.75" lengthAdjust="spacing" textLength="81.25" x="233.75" y="68.0237">-Employee ID;</text><text fill="#000000" font-family="sans-serif" font-size="13.75" lengthAdjust="spacing" textLength="42.5" x="233.75" y="85.3186">-Name;</text><text fill="#000000" font-family="sans-serif" font-size="13.75" lengthAdjust="spacing" textLength="61.25" x="233.75" y="102.6135">-Address;</text><text fill="#000000" font-family="sans-serif" font-size="13.75" lengthAdjust="spacing" textLength="96.25" x="233.75" y="119.9084">-Phone Number;</text><text fill="#000000" font-family="sans-serif" font-size="13.75" lengthAdjust="spacing" textLength="43.75" x="233.75" y="137.2034">-E-Mail;</text><!--MD5=[12e90e92236ca84f203192a07d84ec5e]
class OrganizationRole--><rect codeLine="19" fill="#FEFECE" filter="url(#fxxsub3olfjmr)" height="67.2949" id="OrganizationRole" style="stroke:#A80036;stroke-width:1.875;" width="158.75" x="521.25" y="43.125"/><ellipse cx="540" cy="63.125" fill="#EB937F" rx="13.75" ry="13.75" style="stroke:#A80036;stroke-width:1.25;"/><path d="M538.125,64.375 L538.125,66.875 L543.125,66.875 L543.125,65.625 L543.125,65.0195 L543.9063,64.375 L544.375,64.375 L544.8438,64.375 L545.625,65.0195 L545.625,65.625 L545.625,69.375 L535.625,69.375 L535.0195,69.375 L534.375,68.5938 L534.375,68.125 L534.375,67.6563 L535.0195,66.875 L535.625,66.875 L535.625,66.875 L535.625,59.375 L535.625,59.375 L535.0195,59.375 L534.375,58.5938 L534.375,58.125 L534.375,57.6563 L535.0195,56.875 L535.625,56.875 L545.625,56.875 L545.625,60.625 L545.625,61.2305 L544.8438,61.875 L544.375,61.875 L543.9063,61.875 L543.125,61.2305 L543.125,60.625 L543.125,59.375 L538.125,59.375 L538.125,61.875 L539.375,61.875 L539.375,61.2695 L539.375,61.2695 L540.1563,60.625 L540.625,60.625 L541.0938,60.625 L541.875,61.2695 L541.875,61.875 L541.875,64.375 L541.875,64.9805 L541.0938,65.625 L541.0938,65.625 L540.625,65.625 L540.1563,65.625 L539.375,64.9805 L539.375,64.9805 L539.375,64.375 L538.125,64.375 Z " fill="#000000"/><text fill="#000000" font-family="sans-serif" font-size="15" lengthAdjust="spacing" textLength="118.75" x="557.5" y="69.2627">OrganizationRole</text><line style="stroke:#A80036;stroke-width:1.875;" x1="522.5" x2="678.75" y1="83.125" y2="83.125"/><text fill="#000000" font-family="sans-serif" font-size="13.75" lengthAdjust="spacing" textLength="137.5" x="528.75" y="102.3987">-OrganizationRole role;</text><!--MD5=[52273af76e8d5d694dcae9f1ae7a2c6f]
link Platform to Employee--><path codeLine="26" d="M106.35,76.875 C141.4875,76.875 189.3875,76.875 226.075,76.875 " fill="none" id="Platform-Employee" style="stroke:#A80036;stroke-width:1.25;"/><polygon fill="#000000" points="156.25,65.8447,144.9436,62.1711,144.9436,69.5184,156.25,65.8447" style="stroke:#000000;stroke-width:1.25;"/><text fill="#000000" font-family="sans-serif" font-size="16.25" lengthAdjust="spacing" textLength="26.25" x="161.25" y="72.4939">has</text><text fill="#000000" font-family="sans-serif" font-size="16.25" lengthAdjust="spacing" textLength="8.75" x="116.1634" y="95.6471">1</text><text fill="#000000" font-family="sans-serif" font-size="16.25" lengthAdjust="spacing" textLength="6.25" x="210.0655" y="95.4179">*</text><!--MD5=[241b49406f7a05442b1e788ffaf3787c]
link Employee to OrganizationRole--><path codeLine="27" d="M337.85,76.875 C388.4125,76.875 464.0875,76.875 521.05,76.875 " fill="none" id="Employee-OrganizationRole" style="stroke:#A80036;stroke-width:1.25;"/><polygon fill="#000000" points="387.5,65.8447,376.1936,62.1711,376.1936,69.5184,387.5,65.8447" style="stroke:#000000;stroke-width:1.25;"/><text fill="#000000" font-family="sans-serif" font-size="16.25" lengthAdjust="spacing" textLength="90" x="392.5" y="72.4939">classified as</text><text fill="#000000" font-family="sans-serif" font-size="16.25" lengthAdjust="spacing" textLength="6.25" x="347.6384" y="95.4179">*</text><text fill="#000000" font-family="sans-serif" font-size="16.25" lengthAdjust="spacing" textLength="8.75" x="502.5933" y="94.9374">1</text><!--MD5=[a7112d82497058646d0c4a47a20d37c8]
@startuml
hide methods
left to right direction
skinparam classAttributeIconSize 0


class Platform {
  -designation
}

class Employee {
	-Employee ID;
	-Name;
	-Address;
	-Phone Number;
	-E-Mail;
	-Standard Occupational Classification (SOC) code.
}

enum OrganizationRole {
  -OrganizationRole role;
}




Platform "1" - - "*" Employee : has >
Employee "*" - - "1" OrganizationRole: classified as >



@enduml

PlantUML version 1.2021.5(Sun Apr 25 12:20:28 BST 2021)
(GPL source distribution)
Java Runtime: OpenJDK Runtime Environment
JVM: Dynamic Code Evolution 64-Bit Server VM
Default Encoding: Cp1252
Language: pt
Country: PT
--></g></svg>