<?xml version="1.0" encoding="UTF-8" standalone="no"?><svg xmlns="http://www.w3.org/2000/svg" xmlns:xlink="http://www.w3.org/1999/xlink" contentScriptType="application/ecmascript" contentStyleType="text/css" height="387px" preserveAspectRatio="none" style="width:474px;height:387px;" version="1.1" viewBox="0 0 474 387" width="474px" zoomAndPan="magnify"><defs><filter height="300%" id="f163n5ycj22lxm" width="300%" x="-1" y="-1"><feGaussianBlur result="blurOut" stdDeviation="2.0"/><feColorMatrix in="blurOut" result="blurOut2" type="matrix" values="0 0 0 0 0 0 0 0 0 0 0 0 0 0 0 0 0 0 .4 0"/><feOffset dx="4.0" dy="4.0" in="blurOut2" result="blurOut3"/><feBlend in="SourceGraphic" in2="blurOut3" mode="normal"/></filter></defs><g><!--MD5=[6017f56a87b244e108fd0d8749edd53c]
class CreateParameterCategoryUI--><rect codeLine="3" fill="#FEFECE" filter="url(#f163n5ycj22lxm)" height="48" id="CreateParameterCategoryUI" style="stroke:#A80036;stroke-width:1.5;" width="188" x="33.5" y="7"/><ellipse cx="48.5" cy="23" fill="#ADD1B2" rx="11" ry="11" style="stroke:#A80036;stroke-width:1.0;"/><path d="M50.5,19.5 Q50.7031,19 50.9375,18.75 Q51.1719,18.5 51.4375,18.5 Q51.9063,18.5 52.2031,18.7813 Q52.5,19.0625 52.5,19.7188 L52.5,21.2813 Q52.5,21.9375 52.2188,22.2188 Q51.9375,22.5 51.5,22.5 Q51.1094,22.5 50.8594,22.3281 Q50.6094,22.1563 50.5,21.7031 Q50.4531,21.3906 50.2813,21.2188 Q49.9688,20.8906 49.4063,20.7031 Q48.8438,20.5 48.2813,20.5 Q47.5781,20.5 46.9844,20.7813 Q46.4063,21.0625 45.9531,21.6875 Q45.5,22.3125 45.5,23.1719 L45.5,24.0938 Q45.5,25.125 46.3438,25.8125 Q47.1875,26.5 48.6875,26.5 Q49.5781,26.5 50.2031,26.2969 Q50.5625,26.1875 50.9688,25.8281 Q51.2344,25.625 51.375,25.5625 Q51.5156,25.5 51.6875,25.5 Q52.0156,25.5 52.25,25.7656 Q52.5,26.0156 52.5,26.375 Q52.5,26.7188 52.1563,27.125 Q51.6563,27.7188 50.8594,28.0469 Q49.8125,28.5 48.5313,28.5 Q47.0313,28.5 45.8281,27.9063 Q44.8594,27.4375 44.1719,26.4219 Q43.5,25.4063 43.5,24.2031 L43.5,23.1094 Q43.5,21.8594 44.0938,20.7656 Q44.7031,19.6719 45.75,19.0938 Q46.8125,18.5 48,18.5 Q48.7188,18.5 49.3438,18.75 Q49.9688,19 50.5,19.5 Z " fill="#000000"/><text fill="#000000" font-family="sans-serif" font-size="12" lengthAdjust="spacing" textLength="156" x="62.5" y="27.9102">CreateParameterCategoryUI</text><line style="stroke:#A80036;stroke-width:1.5;" x1="34.5" x2="220.5" y1="39" y2="39"/><line style="stroke:#A80036;stroke-width:1.5;" x1="34.5" x2="220.5" y1="47" y2="47"/><!--MD5=[43bb81d93caae6cc68206df5797cd1c4]
class CreateParameterCategoryController--><rect codeLine="6" fill="#FEFECE" filter="url(#f163n5ycj22lxm)" height="75.6719" id="CreateParameterCategoryController" style="stroke:#A80036;stroke-width:1.5;" width="230" x="12.5" y="116"/><ellipse cx="27.5" cy="132" fill="#ADD1B2" rx="11" ry="11" style="stroke:#A80036;stroke-width:1.0;"/><path d="M29.5,128.5 Q29.7031,128 29.9375,127.75 Q30.1719,127.5 30.4375,127.5 Q30.9063,127.5 31.2031,127.7813 Q31.5,128.0625 31.5,128.7188 L31.5,130.2813 Q31.5,130.9375 31.2188,131.2188 Q30.9375,131.5 30.5,131.5 Q30.1094,131.5 29.8594,131.3281 Q29.6094,131.1563 29.5,130.7031 Q29.4531,130.3906 29.2813,130.2188 Q28.9688,129.8906 28.4063,129.7031 Q27.8438,129.5 27.2813,129.5 Q26.5781,129.5 25.9844,129.7813 Q25.4063,130.0625 24.9531,130.6875 Q24.5,131.3125 24.5,132.1719 L24.5,133.0938 Q24.5,134.125 25.3438,134.8125 Q26.1875,135.5 27.6875,135.5 Q28.5781,135.5 29.2031,135.2969 Q29.5625,135.1875 29.9688,134.8281 Q30.2344,134.625 30.375,134.5625 Q30.5156,134.5 30.6875,134.5 Q31.0156,134.5 31.25,134.7656 Q31.5,135.0156 31.5,135.375 Q31.5,135.7188 31.1563,136.125 Q30.6563,136.7188 29.8594,137.0469 Q28.8125,137.5 27.5313,137.5 Q26.0313,137.5 24.8281,136.9063 Q23.8594,136.4375 23.1719,135.4219 Q22.5,134.4063 22.5,133.2031 L22.5,132.1094 Q22.5,130.8594 23.0938,129.7656 Q23.7031,128.6719 24.75,128.0938 Q25.8125,127.5 27,127.5 Q27.7188,127.5 28.3438,127.75 Q28.9688,128 29.5,128.5 Z " fill="#000000"/><text fill="#000000" font-family="sans-serif" font-size="12" lengthAdjust="spacing" textLength="198" x="41.5" y="136.9102">CreateParameterCategoryController</text><line style="stroke:#A80036;stroke-width:1.5;" x1="13.5" x2="241.5" y1="148" y2="148"/><line style="stroke:#A80036;stroke-width:1.5;" x1="13.5" x2="241.5" y1="156" y2="156"/><text fill="#000000" font-family="sans-serif" font-size="11" lengthAdjust="spacing" textLength="217" x="18.5" y="171.4189">+createNewParameterCategory(code, name)</text><text fill="#000000" font-family="sans-serif" font-size="11" lengthAdjust="spacing" textLength="131" x="18.5" y="185.2549">+saveParameterCategory()</text><!--MD5=[36afb6bbd95a8ac778c4537c55a683d5]
class ParameterCategory--><rect codeLine="12" fill="#FEFECE" filter="url(#f163n5ycj22lxm)" height="89.5078" id="ParameterCategory" style="stroke:#A80036;stroke-width:1.5;" width="175" x="7" y="276.5"/><ellipse cx="38.2" cy="292.5" fill="#ADD1B2" rx="11" ry="11" style="stroke:#A80036;stroke-width:1.0;"/><path d="M40.2,289 Q40.4031,288.5 40.6375,288.25 Q40.8719,288 41.1375,288 Q41.6063,288 41.9031,288.2813 Q42.2,288.5625 42.2,289.2188 L42.2,290.7813 Q42.2,291.4375 41.9188,291.7188 Q41.6375,292 41.2,292 Q40.8094,292 40.5594,291.8281 Q40.3094,291.6563 40.2,291.2031 Q40.1531,290.8906 39.9813,290.7188 Q39.6688,290.3906 39.1063,290.2031 Q38.5438,290 37.9813,290 Q37.2781,290 36.6844,290.2813 Q36.1063,290.5625 35.6531,291.1875 Q35.2,291.8125 35.2,292.6719 L35.2,293.5938 Q35.2,294.625 36.0438,295.3125 Q36.8875,296 38.3875,296 Q39.2781,296 39.9031,295.7969 Q40.2625,295.6875 40.6688,295.3281 Q40.9344,295.125 41.075,295.0625 Q41.2156,295 41.3875,295 Q41.7156,295 41.95,295.2656 Q42.2,295.5156 42.2,295.875 Q42.2,296.2188 41.8563,296.625 Q41.3563,297.2188 40.5594,297.5469 Q39.5125,298 38.2313,298 Q36.7313,298 35.5281,297.4063 Q34.5594,296.9375 33.8719,295.9219 Q33.2,294.9063 33.2,293.7031 L33.2,292.6094 Q33.2,291.3594 33.7938,290.2656 Q34.4031,289.1719 35.45,288.5938 Q36.5125,288 37.7,288 Q38.4188,288 39.0438,288.25 Q39.6688,288.5 40.2,289 Z " fill="#000000"/><text fill="#000000" font-family="sans-serif" font-size="12" lengthAdjust="spacing" textLength="107" x="55.8" y="297.4102">ParameterCategory</text><line style="stroke:#A80036;stroke-width:1.5;" x1="8" x2="181" y1="308.5" y2="308.5"/><text fill="#000000" font-family="sans-serif" font-size="11" lengthAdjust="spacing" textLength="28" x="13" y="323.9189">-code</text><text fill="#000000" font-family="sans-serif" font-size="11" lengthAdjust="spacing" textLength="30" x="13" y="337.7549">-name</text><line style="stroke:#A80036;stroke-width:1.5;" x1="8" x2="181" y1="344.1719" y2="344.1719"/><text fill="#000000" font-family="sans-serif" font-size="11" lengthAdjust="spacing" textLength="163" x="13" y="359.5908">+ParameterCategory(code, name)</text><!--MD5=[02e4b9b7573f1156f41e60aa5b4e25a4]
class Company--><rect codeLine="18" fill="#FEFECE" filter="url(#f163n5ycj22lxm)" height="75.6719" id="Company" style="stroke:#A80036;stroke-width:1.5;" width="160" x="277.5" y="116"/><ellipse cx="326.75" cy="132" fill="#ADD1B2" rx="11" ry="11" style="stroke:#A80036;stroke-width:1.0;"/><path d="M328.75,128.5 Q328.9531,128 329.1875,127.75 Q329.4219,127.5 329.6875,127.5 Q330.1563,127.5 330.4531,127.7813 Q330.75,128.0625 330.75,128.7188 L330.75,130.2813 Q330.75,130.9375 330.4688,131.2188 Q330.1875,131.5 329.75,131.5 Q329.3594,131.5 329.1094,131.3281 Q328.8594,131.1563 328.75,130.7031 Q328.7031,130.3906 328.5313,130.2188 Q328.2188,129.8906 327.6563,129.7031 Q327.0938,129.5 326.5313,129.5 Q325.8281,129.5 325.2344,129.7813 Q324.6563,130.0625 324.2031,130.6875 Q323.75,131.3125 323.75,132.1719 L323.75,133.0938 Q323.75,134.125 324.5938,134.8125 Q325.4375,135.5 326.9375,135.5 Q327.8281,135.5 328.4531,135.2969 Q328.8125,135.1875 329.2188,134.8281 Q329.4844,134.625 329.625,134.5625 Q329.7656,134.5 329.9375,134.5 Q330.2656,134.5 330.5,134.7656 Q330.75,135.0156 330.75,135.375 Q330.75,135.7188 330.4063,136.125 Q329.9063,136.7188 329.1094,137.0469 Q328.0625,137.5 326.7813,137.5 Q325.2813,137.5 324.0781,136.9063 Q323.1094,136.4375 322.4219,135.4219 Q321.75,134.4063 321.75,133.2031 L321.75,132.1094 Q321.75,130.8594 322.3438,129.7656 Q322.9531,128.6719 324,128.0938 Q325.0625,127.5 326.25,127.5 Q326.9688,127.5 327.5938,127.75 Q328.2188,128 328.75,128.5 Z " fill="#000000"/><text fill="#000000" font-family="sans-serif" font-size="12" lengthAdjust="spacing" textLength="53" x="347.25" y="136.9102">Company</text><line style="stroke:#A80036;stroke-width:1.5;" x1="278.5" x2="436.5" y1="148" y2="148"/><text fill="#000000" font-family="sans-serif" font-size="11" lengthAdjust="spacing" textLength="59" x="283.5" y="163.4189">-designation</text><line style="stroke:#A80036;stroke-width:1.5;" x1="278.5" x2="436.5" y1="169.8359" y2="169.8359"/><text fill="#000000" font-family="sans-serif" font-size="11" lengthAdjust="spacing" textLength="148" x="283.5" y="185.2549">+getParameterCategoryStore()</text><!--MD5=[d802db621b5b215a6f0466f93cefcb42]
class ParameterCategoryStore--><rect codeLine="23" fill="#FEFECE" filter="url(#f163n5ycj22lxm)" height="103.3438" id="ParameterCategoryStore" style="stroke:#A80036;stroke-width:1.5;" width="206" x="254.5" y="270"/><ellipse cx="286.6" cy="286" fill="#ADD1B2" rx="11" ry="11" style="stroke:#A80036;stroke-width:1.0;"/><path d="M288.6,282.5 Q288.8031,282 289.0375,281.75 Q289.2719,281.5 289.5375,281.5 Q290.0063,281.5 290.3031,281.7813 Q290.6,282.0625 290.6,282.7188 L290.6,284.2813 Q290.6,284.9375 290.3188,285.2188 Q290.0375,285.5 289.6,285.5 Q289.2094,285.5 288.9594,285.3281 Q288.7094,285.1563 288.6,284.7031 Q288.5531,284.3906 288.3813,284.2188 Q288.0688,283.8906 287.5063,283.7031 Q286.9438,283.5 286.3813,283.5 Q285.6781,283.5 285.0844,283.7813 Q284.5063,284.0625 284.0531,284.6875 Q283.6,285.3125 283.6,286.1719 L283.6,287.0938 Q283.6,288.125 284.4438,288.8125 Q285.2875,289.5 286.7875,289.5 Q287.6781,289.5 288.3031,289.2969 Q288.6625,289.1875 289.0688,288.8281 Q289.3344,288.625 289.475,288.5625 Q289.6156,288.5 289.7875,288.5 Q290.1156,288.5 290.35,288.7656 Q290.6,289.0156 290.6,289.375 Q290.6,289.7188 290.2563,290.125 Q289.7563,290.7188 288.9594,291.0469 Q287.9125,291.5 286.6313,291.5 Q285.1313,291.5 283.9281,290.9063 Q282.9594,290.4375 282.2719,289.4219 Q281.6,288.4063 281.6,287.2031 L281.6,286.1094 Q281.6,284.8594 282.1938,283.7656 Q282.8031,282.6719 283.85,282.0938 Q284.9125,281.5 286.1,281.5 Q286.8188,281.5 287.4438,281.75 Q288.0688,282 288.6,282.5 Z " fill="#000000"/><text fill="#000000" font-family="sans-serif" font-size="12" lengthAdjust="spacing" textLength="136" x="304.4" y="290.9102">ParameterCategoryStore</text><line style="stroke:#A80036;stroke-width:1.5;" x1="255.5" x2="459.5" y1="302" y2="302"/><line style="stroke:#A80036;stroke-width:1.5;" x1="255.5" x2="459.5" y1="310" y2="310"/><text fill="#000000" font-family="sans-serif" font-size="11" lengthAdjust="spacing" textLength="194" x="260.5" y="325.4189">+createParameterCategory(code, name)</text><text fill="#000000" font-family="sans-serif" font-size="11" lengthAdjust="spacing" textLength="156" x="260.5" y="339.2549">+validateParameterCategory(pc)</text><text fill="#000000" font-family="sans-serif" font-size="11" lengthAdjust="spacing" textLength="143" x="260.5" y="353.0908">+saveParameterCategory(pc)</text><text fill="#000000" font-family="sans-serif" font-size="11" lengthAdjust="spacing" textLength="125" x="260.5" y="366.9268">+addParameterCategory()</text><!--MD5=[93b1b9218398b0464d36d46d0f539949]
link CreateParameterCategoryUI to CreateParameterCategoryController--><path codeLine="30" d="M127.5,55.04 C127.5,70.71 127.5,91.91 127.5,110.58 " fill="none" id="CreateParameterCategoryUI-to-CreateParameterCategoryController" style="stroke:#A80036;stroke-width:1.0;stroke-dasharray:7.0,7.0;"/><polygon fill="#A80036" points="127.5,115.77,131.5,106.77,127.5,110.77,123.5,106.77,127.5,115.77" style="stroke:#A80036;stroke-width:1.0;"/><!--MD5=[a00c31f7a5d66db29f7adf0293377a3b]
link CreateParameterCategoryController to Company--><path codeLine="31" d="M242.95,154 C252.73,154 262.51,154 272.29,154 " fill="none" id="CreateParameterCategoryController-to-Company" style="stroke:#A80036;stroke-width:1.0;stroke-dasharray:7.0,7.0;"/><polygon fill="#A80036" points="277.4,154,268.4,150,272.4,154,268.4,158,277.4,154" style="stroke:#A80036;stroke-width:1.0;"/><!--MD5=[d53d7490e5836ca5709858d7326f212b]
link Company to ParameterCategoryStore--><path codeLine="32" d="M357.5,192.14 C357.5,213.58 357.5,240.97 357.5,264.93 " fill="none" id="Company-to-ParameterCategoryStore" style="stroke:#A80036;stroke-width:1.0;"/><polygon fill="#A80036" points="357.5,269.99,361.5,260.99,357.5,264.99,353.5,260.99,357.5,269.99" style="stroke:#A80036;stroke-width:1.0;"/><text fill="#000000" font-family="sans-serif" font-size="13" lengthAdjust="spacing" textLength="28" x="358.5" y="236.4951">uses</text><text fill="#000000" font-family="sans-serif" font-size="13" lengthAdjust="spacing" textLength="7" x="349.9422" y="213.0428">1</text><text fill="#000000" font-family="sans-serif" font-size="13" lengthAdjust="spacing" textLength="7" x="350.0078" y="259.1171">1</text><!--MD5=[3b5e7c1cd53c32a2204fad7a0751c55b]
reverse link ParameterCategory to ParameterCategoryStore--><path codeLine="33" d="M187.26,321.5 C208.97,321.5 232.23,321.5 254.35,321.5 " fill="none" id="ParameterCategory-backto-ParameterCategoryStore" style="stroke:#A80036;stroke-width:1.0;"/><polygon fill="#A80036" points="182.08,321.5,191.08,325.5,187.08,321.5,191.08,317.5,182.08,321.5" style="stroke:#A80036;stroke-width:1.0;"/><text fill="#000000" font-family="sans-serif" font-size="13" lengthAdjust="spacing" textLength="36" x="200.25" y="314.9951">stores</text><text fill="#000000" font-family="sans-serif" font-size="13" lengthAdjust="spacing" textLength="5" x="190.1028" y="318.3202">*</text><text fill="#000000" font-family="sans-serif" font-size="13" lengthAdjust="spacing" textLength="7" x="239.5179" y="318.4079">1</text><!--MD5=[869a0022b647c5cba08cf9438b652be2]
link CreateParameterCategoryController to ParameterCategory--><path codeLine="34" d="M120.09,192.14 C115.43,215.55 109.35,246.04 104.28,271.43 " fill="none" id="CreateParameterCategoryController-to-ParameterCategory" style="stroke:#A80036;stroke-width:1.0;stroke-dasharray:7.0,7.0;"/><polygon fill="#A80036" points="103.29,276.44,108.9638,268.3897,104.2623,271.5355,101.1166,266.834,103.29,276.44" style="stroke:#A80036;stroke-width:1.0;"/><!--MD5=[be6e87e2c6f1800ec3da53612c46e11a]
link CreateParameterCategoryController to ParameterCategoryStore--><path codeLine="35" d="M179.12,192.14 C209.79,214.21 249.21,242.58 283.19,267.03 " fill="none" id="CreateParameterCategoryController-to-ParameterCategoryStore" style="stroke:#A80036;stroke-width:1.0;stroke-dasharray:7.0,7.0;"/><polygon fill="#A80036" points="287.31,269.99,282.3537,261.4791,283.2559,267.0636,277.6714,267.9658,287.31,269.99" style="stroke:#A80036;stroke-width:1.0;"/><!--MD5=[3376b8b7b558efc09b846ce6a6d640da]
@startuml
skinparam classAttributeIconSize 0

class CreateParameterCategoryUI{
}

class CreateParameterCategoryController
{
    +createNewParameterCategory(code, name)
    +saveParameterCategory()
}

class ParameterCategory{
    -code
    -name
    +ParameterCategory(code, name)
}

class Company{
	-designation
	+getParameterCategoryStore()
}

class ParameterCategoryStore{
    +createParameterCategory(code, name)
    +validateParameterCategory(pc)
    +saveParameterCategory(pc)
    +addParameterCategory()
}

CreateParameterCategoryUI ..> CreateParameterCategoryController
CreateParameterCategoryController .right.> Company
Company"1" - -> "1"ParameterCategoryStore : uses
ParameterCategoryStore"1" -left-> "*"ParameterCategory : stores
CreateParameterCategoryController ..> ParameterCategory
CreateParameterCategoryController ..> ParameterCategoryStore
@enduml

PlantUML version 1.2021.5(Sun Apr 25 12:20:28 BST 2021)
(GPL source distribution)
Java Runtime: OpenJDK Runtime Environment
JVM: Dynamic Code Evolution 64-Bit Server VM
Default Encoding: Cp1252
Language: en
Country: US
--></g></svg>