<?xml version="1.0" encoding="UTF-8" standalone="no"?><svg xmlns="http://www.w3.org/2000/svg" xmlns:xlink="http://www.w3.org/1999/xlink" contentScriptType="application/ecmascript" contentStyleType="text/css" height="385px" preserveAspectRatio="none" style="width:405px;height:385px;" version="1.1" viewBox="0 0 405 385" width="405px" zoomAndPan="magnify"><defs><filter height="300%" id="f1r89vodzcjpve" width="300%" x="-1" y="-1"><feGaussianBlur result="blurOut" stdDeviation="2.5"/><feColorMatrix in="blurOut" result="blurOut2" type="matrix" values="0 0 0 0 0 0 0 0 0 0 0 0 0 0 0 0 0 0 .4 0"/><feOffset dx="5.0" dy="5.0" in="blurOut2" result="blurOut3"/><feBlend in="SourceGraphic" in2="blurOut3" mode="normal"/></filter></defs><g><!--MD5=[02e4b9b7573f1156f41e60aa5b4e25a4]
class Company--><rect codeLine="6" fill="#FEFECE" filter="url(#f1r89vodzcjpve)" height="67.2949" id="Company" style="stroke:#A80036;stroke-width:1.875;" width="106.25" x="8.75" y="146.25"/><ellipse cx="27.5" cy="166.25" fill="#ADD1B2" rx="13.75" ry="13.75" style="stroke:#A80036;stroke-width:1.25;"/><path d="M30,161.875 Q30.2539,161.25 30.5469,160.9375 Q30.8398,160.625 31.1719,160.625 Q31.7578,160.625 32.1289,160.9766 Q32.5,161.3281 32.5,162.1484 L32.5,164.1016 Q32.5,164.9219 32.1484,165.2734 Q31.7969,165.625 31.25,165.625 Q30.7617,165.625 30.4492,165.4102 Q30.1367,165.1953 30,164.6289 Q29.9414,164.2383 29.7266,164.0234 Q29.3359,163.6133 28.6328,163.3789 Q27.9297,163.125 27.2266,163.125 Q26.3477,163.125 25.6055,163.4766 Q24.8828,163.8281 24.3164,164.6094 Q23.75,165.3906 23.75,166.4648 L23.75,167.6172 Q23.75,168.9063 24.8047,169.7656 Q25.8594,170.625 27.7344,170.625 Q28.8477,170.625 29.6289,170.3711 Q30.0781,170.2344 30.5859,169.7852 Q30.918,169.5313 31.0938,169.4531 Q31.2695,169.375 31.4844,169.375 Q31.8945,169.375 32.1875,169.707 Q32.5,170.0195 32.5,170.4688 Q32.5,170.8984 32.0703,171.4063 Q31.4453,172.1484 30.4492,172.5586 Q29.1406,173.125 27.5391,173.125 Q25.6641,173.125 24.1602,172.3828 Q22.9492,171.7969 22.0898,170.5273 Q21.25,169.2578 21.25,167.7539 L21.25,166.3867 Q21.25,164.8242 21.9922,163.457 Q22.7539,162.0898 24.0625,161.3672 Q25.3906,160.625 26.875,160.625 Q27.7734,160.625 28.5547,160.9375 Q29.3359,161.25 30,161.875 Z " fill="#000000"/><text fill="#000000" font-family="sans-serif" font-size="15" lengthAdjust="spacing" textLength="66.25" x="45" y="172.3877">Company</text><line style="stroke:#A80036;stroke-width:1.875;" x1="10" x2="113.75" y1="186.25" y2="186.25"/><text fill="#000000" font-family="sans-serif" font-size="13.75" lengthAdjust="spacing" textLength="73.75" x="16.25" y="205.5237">-designation</text><!--MD5=[7421f545a0d8420c5bec41e74b387d9c]
class Employee--><rect codeLine="10" fill="#FEFECE" filter="url(#f1r89vodzcjpve)" height="153.7695" id="Employee" style="stroke:#A80036;stroke-width:1.875;" width="108.75" x="256.875" y="103.125"/><ellipse cx="275.625" cy="123.125" fill="#ADD1B2" rx="13.75" ry="13.75" style="stroke:#A80036;stroke-width:1.25;"/><path d="M278.125,118.75 Q278.3789,118.125 278.6719,117.8125 Q278.9648,117.5 279.2969,117.5 Q279.8828,117.5 280.2539,117.8516 Q280.625,118.2031 280.625,119.0234 L280.625,120.9766 Q280.625,121.7969 280.2734,122.1484 Q279.9219,122.5 279.375,122.5 Q278.8867,122.5 278.5742,122.2852 Q278.2617,122.0703 278.125,121.5039 Q278.0664,121.1133 277.8516,120.8984 Q277.4609,120.4883 276.7578,120.2539 Q276.0547,120 275.3516,120 Q274.4727,120 273.7305,120.3516 Q273.0078,120.7031 272.4414,121.4844 Q271.875,122.2656 271.875,123.3398 L271.875,124.4922 Q271.875,125.7813 272.9297,126.6406 Q273.9844,127.5 275.8594,127.5 Q276.9727,127.5 277.7539,127.2461 Q278.2031,127.1094 278.7109,126.6602 Q279.043,126.4063 279.2188,126.3281 Q279.3945,126.25 279.6094,126.25 Q280.0195,126.25 280.3125,126.582 Q280.625,126.8945 280.625,127.3438 Q280.625,127.7734 280.1953,128.2813 Q279.5703,129.0234 278.5742,129.4336 Q277.2656,130 275.6641,130 Q273.7891,130 272.2852,129.2578 Q271.0742,128.6719 270.2148,127.4023 Q269.375,126.1328 269.375,124.6289 L269.375,123.2617 Q269.375,121.6992 270.1172,120.332 Q270.8789,118.9648 272.1875,118.2422 Q273.5156,117.5 275,117.5 Q275.8984,117.5 276.6797,117.8125 Q277.4609,118.125 278.125,118.75 Z " fill="#000000"/><text fill="#000000" font-family="sans-serif" font-size="15" lengthAdjust="spacing" textLength="68.75" x="293.125" y="129.2627">Employee</text><line style="stroke:#A80036;stroke-width:1.875;" x1="258.125" x2="364.375" y1="143.125" y2="143.125"/><text fill="#000000" font-family="sans-serif" font-size="13.75" lengthAdjust="spacing" textLength="76.25" x="264.375" y="162.3987">-employeeId;</text><text fill="#000000" font-family="sans-serif" font-size="13.75" lengthAdjust="spacing" textLength="41.25" x="264.375" y="179.6936">-name;</text><text fill="#000000" font-family="sans-serif" font-size="13.75" lengthAdjust="spacing" textLength="58.75" x="264.375" y="196.9885">-address;</text><text fill="#000000" font-family="sans-serif" font-size="13.75" lengthAdjust="spacing" textLength="92.5" x="264.375" y="214.2834">-phoneNumber;</text><text fill="#000000" font-family="sans-serif" font-size="13.75" lengthAdjust="spacing" textLength="38.75" x="264.375" y="231.5784">-email;</text><text fill="#000000" font-family="sans-serif" font-size="13.75" lengthAdjust="spacing" textLength="31.25" x="264.375" y="248.8733">-soc.</text><!--MD5=[7d96fd15f3014691d2fcaf89c5791e2a]
class SpecialistDoctor--><rect codeLine="19" fill="#FEFECE" filter="url(#f1r89vodzcjpve)" height="67.2949" id="SpecialistDoctor" style="stroke:#A80036;stroke-width:1.875;" width="152.5" x="235" y="301.25"/><ellipse cx="253.75" cy="321.25" fill="#ADD1B2" rx="13.75" ry="13.75" style="stroke:#A80036;stroke-width:1.25;"/><path d="M256.25,316.875 Q256.5039,316.25 256.7969,315.9375 Q257.0898,315.625 257.4219,315.625 Q258.0078,315.625 258.3789,315.9766 Q258.75,316.3281 258.75,317.1484 L258.75,319.1016 Q258.75,319.9219 258.3984,320.2734 Q258.0469,320.625 257.5,320.625 Q257.0117,320.625 256.6992,320.4102 Q256.3867,320.1953 256.25,319.6289 Q256.1914,319.2383 255.9766,319.0234 Q255.5859,318.6133 254.8828,318.3789 Q254.1797,318.125 253.4766,318.125 Q252.5977,318.125 251.8555,318.4766 Q251.1328,318.8281 250.5664,319.6094 Q250,320.3906 250,321.4648 L250,322.6172 Q250,323.9063 251.0547,324.7656 Q252.1094,325.625 253.9844,325.625 Q255.0977,325.625 255.8789,325.3711 Q256.3281,325.2344 256.8359,324.7852 Q257.168,324.5313 257.3438,324.4531 Q257.5195,324.375 257.7344,324.375 Q258.1445,324.375 258.4375,324.707 Q258.75,325.0195 258.75,325.4688 Q258.75,325.8984 258.3203,326.4063 Q257.6953,327.1484 256.6992,327.5586 Q255.3906,328.125 253.7891,328.125 Q251.9141,328.125 250.4102,327.3828 Q249.1992,326.7969 248.3398,325.5273 Q247.5,324.2578 247.5,322.7539 L247.5,321.3867 Q247.5,319.8242 248.2422,318.457 Q249.0039,317.0898 250.3125,316.3672 Q251.6406,315.625 253.125,315.625 Q254.0234,315.625 254.8047,315.9375 Q255.5859,316.25 256.25,316.875 Z " fill="#000000"/><text fill="#000000" font-family="sans-serif" font-size="15" lengthAdjust="spacing" textLength="112.5" x="271.25" y="327.3877">SpecialistDoctor</text><line style="stroke:#A80036;stroke-width:1.875;" x1="236.25" x2="386.25" y1="341.25" y2="341.25"/><text fill="#000000" font-family="sans-serif" font-size="13.75" lengthAdjust="spacing" textLength="122.5" x="242.5" y="360.5237">-doctorIndexNumber</text><!--MD5=[da547346deef918ea16944ba046651ef]
class Administrator--><rect fill="#FEFECE" filter="url(#f1r89vodzcjpve)" height="50" id="Administrator" style="stroke:#A80036;stroke-width:1.875;" width="131.25" x="245.625" y="8.75"/><ellipse cx="264.375" cy="28.75" fill="#ADD1B2" rx="13.75" ry="13.75" style="stroke:#A80036;stroke-width:1.25;"/><path d="M266.875,24.375 Q267.1289,23.75 267.4219,23.4375 Q267.7148,23.125 268.0469,23.125 Q268.6328,23.125 269.0039,23.4766 Q269.375,23.8281 269.375,24.6484 L269.375,26.6016 Q269.375,27.4219 269.0234,27.7734 Q268.6719,28.125 268.125,28.125 Q267.6367,28.125 267.3242,27.9102 Q267.0117,27.6953 266.875,27.1289 Q266.8164,26.7383 266.6016,26.5234 Q266.2109,26.1133 265.5078,25.8789 Q264.8047,25.625 264.1016,25.625 Q263.2227,25.625 262.4805,25.9766 Q261.7578,26.3281 261.1914,27.1094 Q260.625,27.8906 260.625,28.9648 L260.625,30.1172 Q260.625,31.4063 261.6797,32.2656 Q262.7344,33.125 264.6094,33.125 Q265.7227,33.125 266.5039,32.8711 Q266.9531,32.7344 267.4609,32.2852 Q267.793,32.0313 267.9688,31.9531 Q268.1445,31.875 268.3594,31.875 Q268.7695,31.875 269.0625,32.207 Q269.375,32.5195 269.375,32.9688 Q269.375,33.3984 268.9453,33.9063 Q268.3203,34.6484 267.3242,35.0586 Q266.0156,35.625 264.4141,35.625 Q262.5391,35.625 261.0352,34.8828 Q259.8242,34.2969 258.9648,33.0273 Q258.125,31.7578 258.125,30.2539 L258.125,28.8867 Q258.125,27.3242 258.8672,25.957 Q259.6289,24.5898 260.9375,23.8672 Q262.2656,23.125 263.75,23.125 Q264.6484,23.125 265.4297,23.4375 Q266.2109,23.75 266.875,24.375 Z " fill="#000000"/><text fill="#000000" font-family="sans-serif" font-size="15" lengthAdjust="spacing" textLength="91.25" x="281.875" y="34.8877">Administrator</text><line style="stroke:#A80036;stroke-width:1.875;" x1="246.875" x2="375.625" y1="48.75" y2="48.75"/><!--MD5=[09366576ee87d48d594df10cacc83f45]
link Company to Employee--><path codeLine="23" d="M115.475,180 C157.0875,180 215.05,180 256.8625,180 " fill="none" id="Company-Employee" style="stroke:#A80036;stroke-width:1.25;"/><polygon fill="#000000" points="165,168.9697,153.6936,165.2961,153.6936,172.6434,165,168.9697" style="stroke:#000000;stroke-width:1.25;"/><text fill="#000000" font-family="sans-serif" font-size="16.25" lengthAdjust="spacing" textLength="26.25" x="170" y="175.6189">has</text><text fill="#000000" font-family="sans-serif" font-size="16.25" lengthAdjust="spacing" textLength="8.75" x="125.0771" y="198.5785">1</text><text fill="#000000" font-family="sans-serif" font-size="16.25" lengthAdjust="spacing" textLength="6.25" x="240.7275" y="198.6237">*</text><!--MD5=[372bd27a178b4208a6d241b4516ac7e6]
reverse link Employee to SpecialistDoctor--><path codeLine="24" d="M311.25,282.1875 C311.25,288.4875 311.25,294.7875 311.25,301.1 " fill="none" id="Employee-backto-SpecialistDoctor" style="stroke:#A80036;stroke-width:1.25;"/><polygon fill="none" points="302.5,282.1,311.25,257.1,320,282.1,302.5,282.1" style="stroke:#A80036;stroke-width:1.25;"/><!--MD5=[8f7dd94d56b58fc07b233ccd3dd98f8c]
link Administrator to Employee--><path codeLine="25" d="M311.25,59.1375 C311.25,65.2875 311.25,71.4375 311.25,77.5875 " fill="none" id="Administrator-to-Employee" style="stroke:#A80036;stroke-width:1.25;"/><polygon fill="none" points="320,77.875,311.25,102.875,302.5,77.875,320,77.875" style="stroke:#A80036;stroke-width:1.25;"/><!--MD5=[df07683d9673ef8cca6a5550f600a60e]
@startuml
hide methods
left to right direction
skinparam classAttributeIconSize 0


class Company {
  -designation
}

class Employee {
	-employeeId;
	-name;
	-address;
	-phoneNumber;
	-email;
	-soc.
}

class SpecialistDoctor{
    -doctorIndexNumber
}

Company "1" - - "*" Employee : has >
SpecialistDoctor -left-|> Employee
Administrator -right-|> Employee



@enduml

PlantUML version 1.2021.5(Sun Apr 25 12:20:28 BST 2021)
(GPL source distribution)
Java Runtime: OpenJDK Runtime Environment
JVM: Dynamic Code Evolution 64-Bit Server VM
Default Encoding: Cp1252
Language: pt
Country: PT
--></g></svg>