<?xml version="1.0" encoding="UTF-8" standalone="no"?><svg xmlns="http://www.w3.org/2000/svg" xmlns:xlink="http://www.w3.org/1999/xlink" contentScriptType="application/ecmascript" contentStyleType="text/css" height="867.5px" preserveAspectRatio="none" style="width:523px;height:867px;" version="1.1" viewBox="0 0 523 867" width="523.75px" zoomAndPan="magnify"><defs><filter height="300%" id="flawhhzlk3fz3" width="300%" x="-1" y="-1"><feGaussianBlur result="blurOut" stdDeviation="2.5"/><feColorMatrix in="blurOut" result="blurOut2" type="matrix" values="0 0 0 0 0 0 0 0 0 0 0 0 0 0 0 0 0 0 .4 0"/><feOffset dx="5.0" dy="5.0" in="blurOut2" result="blurOut3"/><feBlend in="SourceGraphic" in2="blurOut3" mode="normal"/></filter></defs><g><!--MD5=[a126dd63c8621c017159ae62771fbe54]
class RegisterEmployeeUI--><rect codeLine="3" fill="#FEFECE" filter="url(#flawhhzlk3fz3)" height="60" id="RegisterEmployeeUI" style="stroke:#A80036;stroke-width:1.875;" width="182.5" x="121.25" y="8.75"/><ellipse cx="140" cy="28.75" fill="#ADD1B2" rx="13.75" ry="13.75" style="stroke:#A80036;stroke-width:1.25;"/><path d="M142.5,24.375 Q142.7539,23.75 143.0469,23.4375 Q143.3398,23.125 143.6719,23.125 Q144.2578,23.125 144.6289,23.4766 Q145,23.8281 145,24.6484 L145,26.6016 Q145,27.4219 144.6484,27.7734 Q144.2969,28.125 143.75,28.125 Q143.2617,28.125 142.9492,27.9102 Q142.6367,27.6953 142.5,27.1289 Q142.4414,26.7383 142.2266,26.5234 Q141.8359,26.1133 141.1328,25.8789 Q140.4297,25.625 139.7266,25.625 Q138.8477,25.625 138.1055,25.9766 Q137.3828,26.3281 136.8164,27.1094 Q136.25,27.8906 136.25,28.9648 L136.25,30.1172 Q136.25,31.4063 137.3047,32.2656 Q138.3594,33.125 140.2344,33.125 Q141.3477,33.125 142.1289,32.8711 Q142.5781,32.7344 143.0859,32.2852 Q143.418,32.0313 143.5938,31.9531 Q143.7695,31.875 143.9844,31.875 Q144.3945,31.875 144.6875,32.207 Q145,32.5195 145,32.9688 Q145,33.3984 144.5703,33.9063 Q143.9453,34.6484 142.9492,35.0586 Q141.6406,35.625 140.0391,35.625 Q138.1641,35.625 136.6602,34.8828 Q135.4492,34.2969 134.5898,33.0273 Q133.75,31.7578 133.75,30.2539 L133.75,28.8867 Q133.75,27.3242 134.4922,25.957 Q135.2539,24.5898 136.5625,23.8672 Q137.8906,23.125 139.375,23.125 Q140.2734,23.125 141.0547,23.4375 Q141.8359,23.75 142.5,24.375 Z " fill="#000000"/><text fill="#000000" font-family="sans-serif" font-size="15" lengthAdjust="spacing" textLength="142.5" x="157.5" y="34.8877">RegisterEmployeeUI</text><line style="stroke:#A80036;stroke-width:1.875;" x1="122.5" x2="302.5" y1="48.75" y2="48.75"/><line style="stroke:#A80036;stroke-width:1.875;" x1="122.5" x2="302.5" y1="58.75" y2="58.75"/><!--MD5=[6a4e699b59c2ecf8286aba2faa72e4bd]
class RegisterEmployeeController--><rect codeLine="7" fill="#FEFECE" filter="url(#flawhhzlk3fz3)" height="77.2949" id="RegisterEmployeeController" style="stroke:#A80036;stroke-width:1.875;" width="235" x="95" y="143.75"/><ellipse cx="113.75" cy="163.75" fill="#ADD1B2" rx="13.75" ry="13.75" style="stroke:#A80036;stroke-width:1.25;"/><path d="M116.25,159.375 Q116.5039,158.75 116.7969,158.4375 Q117.0898,158.125 117.4219,158.125 Q118.0078,158.125 118.3789,158.4766 Q118.75,158.8281 118.75,159.6484 L118.75,161.6016 Q118.75,162.4219 118.3984,162.7734 Q118.0469,163.125 117.5,163.125 Q117.0117,163.125 116.6992,162.9102 Q116.3867,162.6953 116.25,162.1289 Q116.1914,161.7383 115.9766,161.5234 Q115.5859,161.1133 114.8828,160.8789 Q114.1797,160.625 113.4766,160.625 Q112.5977,160.625 111.8555,160.9766 Q111.1328,161.3281 110.5664,162.1094 Q110,162.8906 110,163.9648 L110,165.1172 Q110,166.4063 111.0547,167.2656 Q112.1094,168.125 113.9844,168.125 Q115.0977,168.125 115.8789,167.8711 Q116.3281,167.7344 116.8359,167.2852 Q117.168,167.0313 117.3438,166.9531 Q117.5195,166.875 117.7344,166.875 Q118.1445,166.875 118.4375,167.207 Q118.75,167.5195 118.75,167.9688 Q118.75,168.3984 118.3203,168.9063 Q117.6953,169.6484 116.6992,170.0586 Q115.3906,170.625 113.7891,170.625 Q111.9141,170.625 110.4102,169.8828 Q109.1992,169.2969 108.3398,168.0273 Q107.5,166.7578 107.5,165.2539 L107.5,163.8867 Q107.5,162.3242 108.2422,160.957 Q109.0039,159.5898 110.3125,158.8672 Q111.6406,158.125 113.125,158.125 Q114.0234,158.125 114.8047,158.4375 Q115.5859,158.75 116.25,159.375 Z " fill="#000000"/><text fill="#000000" font-family="sans-serif" font-size="15" lengthAdjust="spacing" textLength="195" x="131.25" y="169.8877">RegisterEmployeeController</text><line style="stroke:#A80036;stroke-width:1.875;" x1="96.25" x2="328.75" y1="183.75" y2="183.75"/><line style="stroke:#A80036;stroke-width:1.875;" x1="96.25" x2="328.75" y1="193.75" y2="193.75"/><text fill="#000000" font-family="sans-serif" font-size="13.75" lengthAdjust="spacing" textLength="186.25" x="102.5" y="213.0237">+addUserToSystem(employee)</text><!--MD5=[7421f545a0d8420c5bec41e74b387d9c]
class Employee--><rect codeLine="12" fill="#FEFECE" filter="url(#flawhhzlk3fz3)" height="181.0645" id="Employee" style="stroke:#A80036;stroke-width:1.875;" width="193.75" x="115.625" y="670"/><ellipse cx="172.8125" cy="690" fill="#ADD1B2" rx="13.75" ry="13.75" style="stroke:#A80036;stroke-width:1.25;"/><path d="M175.3125,685.625 Q175.5664,685 175.8594,684.6875 Q176.1523,684.375 176.4844,684.375 Q177.0703,684.375 177.4414,684.7266 Q177.8125,685.0781 177.8125,685.8984 L177.8125,687.8516 Q177.8125,688.6719 177.4609,689.0234 Q177.1094,689.375 176.5625,689.375 Q176.0742,689.375 175.7617,689.1602 Q175.4492,688.9453 175.3125,688.3789 Q175.2539,687.9883 175.0391,687.7734 Q174.6484,687.3633 173.9453,687.1289 Q173.2422,686.875 172.5391,686.875 Q171.6602,686.875 170.918,687.2266 Q170.1953,687.5781 169.6289,688.3594 Q169.0625,689.1406 169.0625,690.2148 L169.0625,691.3672 Q169.0625,692.6563 170.1172,693.5156 Q171.1719,694.375 173.0469,694.375 Q174.1602,694.375 174.9414,694.1211 Q175.3906,693.9844 175.8984,693.5352 Q176.2305,693.2813 176.4063,693.2031 Q176.582,693.125 176.7969,693.125 Q177.207,693.125 177.5,693.457 Q177.8125,693.7695 177.8125,694.2188 Q177.8125,694.6484 177.3828,695.1563 Q176.7578,695.8984 175.7617,696.3086 Q174.4531,696.875 172.8516,696.875 Q170.9766,696.875 169.4727,696.1328 Q168.2617,695.5469 167.4023,694.2773 Q166.5625,693.0078 166.5625,691.5039 L166.5625,690.1367 Q166.5625,688.5742 167.3047,687.207 Q168.0664,685.8398 169.375,685.1172 Q170.7031,684.375 172.1875,684.375 Q173.0859,684.375 173.8672,684.6875 Q174.6484,685 175.3125,685.625 Z " fill="#000000"/><text fill="#000000" font-family="sans-serif" font-size="15" lengthAdjust="spacing" textLength="68.75" x="198.4375" y="696.1377">Employee</text><line style="stroke:#A80036;stroke-width:1.875;" x1="116.875" x2="308.125" y1="710" y2="710"/><text fill="#000000" font-family="sans-serif" font-size="13.75" lengthAdjust="spacing" textLength="77.5" x="123.125" y="729.2737">-employeeID;</text><text fill="#000000" font-family="sans-serif" font-size="13.75" lengthAdjust="spacing" textLength="41.25" x="123.125" y="746.5686">-name;</text><text fill="#000000" font-family="sans-serif" font-size="13.75" lengthAdjust="spacing" textLength="58.75" x="123.125" y="763.8635">-address;</text><text fill="#000000" font-family="sans-serif" font-size="13.75" lengthAdjust="spacing" textLength="92.5" x="123.125" y="781.1584">-phoneNumber;</text><text fill="#000000" font-family="sans-serif" font-size="13.75" lengthAdjust="spacing" textLength="38.75" x="123.125" y="798.4534">-email;</text><text fill="#000000" font-family="sans-serif" font-size="13.75" lengthAdjust="spacing" textLength="31.25" x="123.125" y="815.7483">-soc;</text><line style="stroke:#A80036;stroke-width:1.875;" x1="116.875" x2="308.125" y1="823.7695" y2="823.7695"/><text fill="#000000" font-family="sans-serif" font-size="13.75" lengthAdjust="spacing" textLength="178.75" x="123.125" y="843.0432">+validateEmployee(employee)</text><!--MD5=[02e4b9b7573f1156f41e60aa5b4e25a4]
class Company--><rect codeLine="23" fill="#FEFECE" filter="url(#flawhhzlk3fz3)" height="94.5898" id="Company" style="stroke:#A80036;stroke-width:1.875;" width="141.25" x="141.875" y="296.25"/><ellipse cx="176.375" cy="316.25" fill="#ADD1B2" rx="13.75" ry="13.75" style="stroke:#A80036;stroke-width:1.25;"/><path d="M178.875,311.875 Q179.1289,311.25 179.4219,310.9375 Q179.7148,310.625 180.0469,310.625 Q180.6328,310.625 181.0039,310.9766 Q181.375,311.3281 181.375,312.1484 L181.375,314.1016 Q181.375,314.9219 181.0234,315.2734 Q180.6719,315.625 180.125,315.625 Q179.6367,315.625 179.3242,315.4102 Q179.0117,315.1953 178.875,314.6289 Q178.8164,314.2383 178.6016,314.0234 Q178.2109,313.6133 177.5078,313.3789 Q176.8047,313.125 176.1016,313.125 Q175.2227,313.125 174.4805,313.4766 Q173.7578,313.8281 173.1914,314.6094 Q172.625,315.3906 172.625,316.4648 L172.625,317.6172 Q172.625,318.9063 173.6797,319.7656 Q174.7344,320.625 176.6094,320.625 Q177.7227,320.625 178.5039,320.3711 Q178.9531,320.2344 179.4609,319.7852 Q179.793,319.5313 179.9688,319.4531 Q180.1445,319.375 180.3594,319.375 Q180.7695,319.375 181.0625,319.707 Q181.375,320.0195 181.375,320.4688 Q181.375,320.8984 180.9453,321.4063 Q180.3203,322.1484 179.3242,322.5586 Q178.0156,323.125 176.4141,323.125 Q174.5391,323.125 173.0352,322.3828 Q171.8242,321.7969 170.9648,320.5273 Q170.125,319.2578 170.125,317.7539 L170.125,316.3867 Q170.125,314.8242 170.8672,313.457 Q171.6289,312.0898 172.9375,311.3672 Q174.2656,310.625 175.75,310.625 Q176.6484,310.625 177.4297,310.9375 Q178.2109,311.25 178.875,311.875 Z " fill="#000000"/><text fill="#000000" font-family="sans-serif" font-size="15" lengthAdjust="spacing" textLength="66.25" x="197.375" y="322.3877">Company</text><line style="stroke:#A80036;stroke-width:1.875;" x1="143.125" x2="281.875" y1="336.25" y2="336.25"/><text fill="#000000" font-family="sans-serif" font-size="13.75" lengthAdjust="spacing" textLength="75" x="149.375" y="355.5237">-description;</text><line style="stroke:#A80036;stroke-width:1.875;" x1="143.125" x2="281.875" y1="363.5449" y2="363.5449"/><text fill="#000000" font-family="sans-serif" font-size="13.75" lengthAdjust="spacing" textLength="126.25" x="149.375" y="382.8186">+getEmployeeStore()</text><!--MD5=[829fb52c07ade3ad64ef85b99d1fca10]
class EmployeeStore--><rect codeLine="28" fill="#FEFECE" filter="url(#flawhhzlk3fz3)" height="129.1797" id="EmployeeStore" style="stroke:#A80036;stroke-width:1.875;" width="407.5" x="8.75" y="466.25"/><ellipse cx="154.6875" cy="486.25" fill="#ADD1B2" rx="13.75" ry="13.75" style="stroke:#A80036;stroke-width:1.25;"/><path d="M157.1875,481.875 Q157.4414,481.25 157.7344,480.9375 Q158.0273,480.625 158.3594,480.625 Q158.9453,480.625 159.3164,480.9766 Q159.6875,481.3281 159.6875,482.1484 L159.6875,484.1016 Q159.6875,484.9219 159.3359,485.2734 Q158.9844,485.625 158.4375,485.625 Q157.9492,485.625 157.6367,485.4102 Q157.3242,485.1953 157.1875,484.6289 Q157.1289,484.2383 156.9141,484.0234 Q156.5234,483.6133 155.8203,483.3789 Q155.1172,483.125 154.4141,483.125 Q153.5352,483.125 152.793,483.4766 Q152.0703,483.8281 151.5039,484.6094 Q150.9375,485.3906 150.9375,486.4648 L150.9375,487.6172 Q150.9375,488.9063 151.9922,489.7656 Q153.0469,490.625 154.9219,490.625 Q156.0352,490.625 156.8164,490.3711 Q157.2656,490.2344 157.7734,489.7852 Q158.1055,489.5313 158.2813,489.4531 Q158.457,489.375 158.6719,489.375 Q159.082,489.375 159.375,489.707 Q159.6875,490.0195 159.6875,490.4688 Q159.6875,490.8984 159.2578,491.4063 Q158.6328,492.1484 157.6367,492.5586 Q156.3281,493.125 154.7266,493.125 Q152.8516,493.125 151.3477,492.3828 Q150.1367,491.7969 149.2773,490.5273 Q148.4375,489.2578 148.4375,487.7539 L148.4375,486.3867 Q148.4375,484.8242 149.1797,483.457 Q149.9414,482.0898 151.25,481.3672 Q152.5781,480.625 154.0625,480.625 Q154.9609,480.625 155.7422,480.9375 Q156.5234,481.25 157.1875,481.875 Z " fill="#000000"/><text fill="#000000" font-family="sans-serif" font-size="15" lengthAdjust="spacing" textLength="105" x="180.3125" y="492.3877">EmployeeStore</text><line style="stroke:#A80036;stroke-width:1.875;" x1="10" x2="415" y1="506.25" y2="506.25"/><line style="stroke:#A80036;stroke-width:1.875;" x1="10" x2="415" y1="516.25" y2="516.25"/><text fill="#000000" font-family="sans-serif" font-size="13.75" lengthAdjust="spacing" textLength="392.5" x="16.25" y="535.5237">+createEmployee(role, name, address, phoneNumber, email, soc)</text><text fill="#000000" font-family="sans-serif" font-size="13.75" lengthAdjust="spacing" textLength="178.75" x="16.25" y="552.8186">+validateEmployee(employee)</text><text fill="#000000" font-family="sans-serif" font-size="13.75" lengthAdjust="spacing" textLength="162.5" x="16.25" y="570.1135">+saveEmployee(employee)</text><text fill="#000000" font-family="sans-serif" font-size="13.75" lengthAdjust="spacing" textLength="155" x="16.25" y="587.4084">+addEmployee(employee)</text><!--MD5=[7d96fd15f3014691d2fcaf89c5791e2a]
class SpecialistDoctor--><rect codeLine="35" fill="#FEFECE" filter="url(#flawhhzlk3fz3)" height="77.2949" id="SpecialistDoctor" style="stroke:#A80036;stroke-width:1.875;" width="152.5" x="353.75" y="721.875"/><ellipse cx="372.5" cy="741.875" fill="#ADD1B2" rx="13.75" ry="13.75" style="stroke:#A80036;stroke-width:1.25;"/><path d="M375,737.5 Q375.2539,736.875 375.5469,736.5625 Q375.8398,736.25 376.1719,736.25 Q376.7578,736.25 377.1289,736.6016 Q377.5,736.9531 377.5,737.7734 L377.5,739.7266 Q377.5,740.5469 377.1484,740.8984 Q376.7969,741.25 376.25,741.25 Q375.7617,741.25 375.4492,741.0352 Q375.1367,740.8203 375,740.2539 Q374.9414,739.8633 374.7266,739.6484 Q374.3359,739.2383 373.6328,739.0039 Q372.9297,738.75 372.2266,738.75 Q371.3477,738.75 370.6055,739.1016 Q369.8828,739.4531 369.3164,740.2344 Q368.75,741.0156 368.75,742.0898 L368.75,743.2422 Q368.75,744.5313 369.8047,745.3906 Q370.8594,746.25 372.7344,746.25 Q373.8477,746.25 374.6289,745.9961 Q375.0781,745.8594 375.5859,745.4102 Q375.918,745.1563 376.0938,745.0781 Q376.2695,745 376.4844,745 Q376.8945,745 377.1875,745.332 Q377.5,745.6445 377.5,746.0938 Q377.5,746.5234 377.0703,747.0313 Q376.4453,747.7734 375.4492,748.1836 Q374.1406,748.75 372.5391,748.75 Q370.6641,748.75 369.1602,748.0078 Q367.9492,747.4219 367.0898,746.1523 Q366.25,744.8828 366.25,743.3789 L366.25,742.0117 Q366.25,740.4492 366.9922,739.082 Q367.7539,737.7148 369.0625,736.9922 Q370.3906,736.25 371.875,736.25 Q372.7734,736.25 373.5547,736.5625 Q374.3359,736.875 375,737.5 Z " fill="#000000"/><text fill="#000000" font-family="sans-serif" font-size="15" lengthAdjust="spacing" textLength="112.5" x="390" y="748.0127">SpecialistDoctor</text><line style="stroke:#A80036;stroke-width:1.875;" x1="355" x2="505" y1="761.875" y2="761.875"/><text fill="#000000" font-family="sans-serif" font-size="13.75" lengthAdjust="spacing" textLength="122.5" x="361.25" y="781.1487">-doctorIndexNumber</text><line style="stroke:#A80036;stroke-width:1.875;" x1="355" x2="505" y1="789.1699" y2="789.1699"/><!--MD5=[3fd241ca11f270f6bde54c00b8a8581a]
link RegisterEmployeeUI to RegisterEmployeeController--><path codeLine="39" d="M212.5,68.925 C212.5,88.3875 212.5,114.4125 212.5,136.525 " fill="none" id="RegisterEmployeeUI-to-RegisterEmployeeController" style="stroke:#A80036;stroke-width:1.25;stroke-dasharray:7.0,7.0;"/><polygon fill="#A80036" points="212.5,143.25,217.5,132,212.5,137,207.5,132,212.5,143.25" style="stroke:#A80036;stroke-width:1.25;"/><!--MD5=[969ee03aa52aee79b0e607297418cbd4]
link RegisterEmployeeController to Company--><path codeLine="40" d="M212.5,221.375 C212.5,241.65 212.5,267 212.5,289.2625 " fill="none" id="RegisterEmployeeController-to-Company" style="stroke:#A80036;stroke-width:1.25;stroke-dasharray:7.0,7.0;"/><polygon fill="#A80036" points="212.5,296.075,217.5,284.825,212.5,289.825,207.5,284.825,212.5,296.075" style="stroke:#A80036;stroke-width:1.25;"/><!--MD5=[ce859576cba61219b3cb4d2d23fdcd81]
link Company to EmployeeStore--><path codeLine="41" d="M212.5,391.525 C212.5,412.2 212.5,436.9625 212.5,459.775 " fill="none" id="Company-to-EmployeeStore" style="stroke:#A80036;stroke-width:1.25;"/><polygon fill="#A80036" points="212.5,466.15,217.5,454.9,212.5,459.9,207.5,454.9,212.5,466.15" style="stroke:#A80036;stroke-width:1.25;"/><!--MD5=[2f3bac1bdf76f0b867b8cadb6fadb6bc]
link EmployeeStore to Employee--><path codeLine="42" d="M212.5,595.25 C212.5,616.4 212.5,640.4625 212.5,663.5125 " fill="none" id="EmployeeStore-to-Employee" style="stroke:#A80036;stroke-width:1.25;"/><polygon fill="#A80036" points="212.5,669.9875,217.5,658.7375,212.5,663.7375,207.5,658.7375,212.5,669.9875" style="stroke:#A80036;stroke-width:1.25;"/><!--MD5=[372bd27a178b4208a6d241b4516ac7e6]
reverse link Employee to SpecialistDoctor--><path codeLine="43" d="M335.025,760.625 C341.175,760.625 347.3125,760.625 353.45,760.625 " fill="none" id="Employee-backto-SpecialistDoctor" style="stroke:#A80036;stroke-width:1.25;"/><polygon fill="none" points="334.775,769.375,309.775,760.625,334.775,751.875,334.775,769.375" style="stroke:#A80036;stroke-width:1.25;"/><!--MD5=[21804cdf1ba63560b635e43a15de73d2]
@startuml
skinparam classAttributeIconSize 0

class RegisterEmployeeUI
{
}

class RegisterEmployeeController
{
    +addUserToSystem(employee)
}

class Employee
{
	-employeeID;
	-name;
	-address;
	-phoneNumber;
	-email;
	-soc;
    +validateEmployee(employee)
}

class Company{
    -description;
    +getEmployeeStore()
}

class EmployeeStore{
    +createEmployee(role, name, address, phoneNumber, email, soc)
    +validateEmployee(employee)
    +saveEmployee(employee)
    +addEmployee(employee)
}

class SpecialistDoctor{
    -doctorIndexNumber
}

RegisterEmployeeUI ..> RegisterEmployeeController
RegisterEmployeeController ..> Company
Company - -> EmployeeStore
EmployeeStore - -> Employee
SpecialistDoctor -left-|> Employee

@enduml

PlantUML version 1.2021.5(Sun Apr 25 12:20:28 BST 2021)
(GPL source distribution)
Java Runtime: OpenJDK Runtime Environment
JVM: Dynamic Code Evolution 64-Bit Server VM
Default Encoding: Cp1252
Language: pt
Country: PT
--></g></svg>