<?xml version="1.0" encoding="UTF-8" standalone="no"?><svg xmlns="http://www.w3.org/2000/svg" xmlns:xlink="http://www.w3.org/1999/xlink" contentScriptType="application/ecmascript" contentStyleType="text/css" height="387px" preserveAspectRatio="none" style="width:469px;height:387px;" version="1.1" viewBox="0 0 469 387" width="469px" zoomAndPan="magnify"><defs><filter height="300%" id="f10djgluttzz6j" width="300%" x="-1" y="-1"><feGaussianBlur result="blurOut" stdDeviation="2.0"/><feColorMatrix in="blurOut" result="blurOut2" type="matrix" values="0 0 0 0 0 0 0 0 0 0 0 0 0 0 0 0 0 0 .4 0"/><feOffset dx="4.0" dy="4.0" in="blurOut2" result="blurOut3"/><feBlend in="SourceGraphic" in2="blurOut3" mode="normal"/></filter></defs><g><!--MD5=[6017f56a87b244e108fd0d8749edd53c]
class CreateParameterCategoryUI--><rect codeLine="3" fill="#FEFECE" filter="url(#f10djgluttzz6j)" height="48" id="CreateParameterCategoryUI" style="stroke:#A80036;stroke-width:1.5;" width="188" x="28" y="7"/><ellipse cx="43" cy="23" fill="#ADD1B2" rx="11" ry="11" style="stroke:#A80036;stroke-width:1.0;"/><path d="M45,19.5 Q45.2031,19 45.4375,18.75 Q45.6719,18.5 45.9375,18.5 Q46.4063,18.5 46.7031,18.7813 Q47,19.0625 47,19.7188 L47,21.2813 Q47,21.9375 46.7188,22.2188 Q46.4375,22.5 46,22.5 Q45.6094,22.5 45.3594,22.3281 Q45.1094,22.1563 45,21.7031 Q44.9531,21.3906 44.7813,21.2188 Q44.4688,20.8906 43.9063,20.7031 Q43.3438,20.5 42.7813,20.5 Q42.0781,20.5 41.4844,20.7813 Q40.9063,21.0625 40.4531,21.6875 Q40,22.3125 40,23.1719 L40,24.0938 Q40,25.125 40.8438,25.8125 Q41.6875,26.5 43.1875,26.5 Q44.0781,26.5 44.7031,26.2969 Q45.0625,26.1875 45.4688,25.8281 Q45.7344,25.625 45.875,25.5625 Q46.0156,25.5 46.1875,25.5 Q46.5156,25.5 46.75,25.7656 Q47,26.0156 47,26.375 Q47,26.7188 46.6563,27.125 Q46.1563,27.7188 45.3594,28.0469 Q44.3125,28.5 43.0313,28.5 Q41.5313,28.5 40.3281,27.9063 Q39.3594,27.4375 38.6719,26.4219 Q38,25.4063 38,24.2031 L38,23.1094 Q38,21.8594 38.5938,20.7656 Q39.2031,19.6719 40.25,19.0938 Q41.3125,18.5 42.5,18.5 Q43.2188,18.5 43.8438,18.75 Q44.4688,19 45,19.5 Z " fill="#000000"/><text fill="#000000" font-family="sans-serif" font-size="12" lengthAdjust="spacing" textLength="156" x="57" y="27.9102">CreateParameterCategoryUI</text><line style="stroke:#A80036;stroke-width:1.5;" x1="29" x2="215" y1="39" y2="39"/><line style="stroke:#A80036;stroke-width:1.5;" x1="29" x2="215" y1="47" y2="47"/><!--MD5=[43bb81d93caae6cc68206df5797cd1c4]
class CreateParameterCategoryController--><rect codeLine="6" fill="#FEFECE" filter="url(#f10djgluttzz6j)" height="75.6719" id="CreateParameterCategoryController" style="stroke:#A80036;stroke-width:1.5;" width="230" x="7" y="116"/><ellipse cx="22" cy="132" fill="#ADD1B2" rx="11" ry="11" style="stroke:#A80036;stroke-width:1.0;"/><path d="M24,128.5 Q24.2031,128 24.4375,127.75 Q24.6719,127.5 24.9375,127.5 Q25.4063,127.5 25.7031,127.7813 Q26,128.0625 26,128.7188 L26,130.2813 Q26,130.9375 25.7188,131.2188 Q25.4375,131.5 25,131.5 Q24.6094,131.5 24.3594,131.3281 Q24.1094,131.1563 24,130.7031 Q23.9531,130.3906 23.7813,130.2188 Q23.4688,129.8906 22.9063,129.7031 Q22.3438,129.5 21.7813,129.5 Q21.0781,129.5 20.4844,129.7813 Q19.9063,130.0625 19.4531,130.6875 Q19,131.3125 19,132.1719 L19,133.0938 Q19,134.125 19.8438,134.8125 Q20.6875,135.5 22.1875,135.5 Q23.0781,135.5 23.7031,135.2969 Q24.0625,135.1875 24.4688,134.8281 Q24.7344,134.625 24.875,134.5625 Q25.0156,134.5 25.1875,134.5 Q25.5156,134.5 25.75,134.7656 Q26,135.0156 26,135.375 Q26,135.7188 25.6563,136.125 Q25.1563,136.7188 24.3594,137.0469 Q23.3125,137.5 22.0313,137.5 Q20.5313,137.5 19.3281,136.9063 Q18.3594,136.4375 17.6719,135.4219 Q17,134.4063 17,133.2031 L17,132.1094 Q17,130.8594 17.5938,129.7656 Q18.2031,128.6719 19.25,128.0938 Q20.3125,127.5 21.5,127.5 Q22.2188,127.5 22.8438,127.75 Q23.4688,128 24,128.5 Z " fill="#000000"/><text fill="#000000" font-family="sans-serif" font-size="12" lengthAdjust="spacing" textLength="198" x="36" y="136.9102">CreateParameterCategoryController</text><line style="stroke:#A80036;stroke-width:1.5;" x1="8" x2="236" y1="148" y2="148"/><line style="stroke:#A80036;stroke-width:1.5;" x1="8" x2="236" y1="156" y2="156"/><text fill="#000000" font-family="sans-serif" font-size="11" lengthAdjust="spacing" textLength="217" x="13" y="171.4189">+createNewParameterCategory(code, name)</text><text fill="#000000" font-family="sans-serif" font-size="11" lengthAdjust="spacing" textLength="131" x="13" y="185.2549">+saveParameterCategory()</text><!--MD5=[36afb6bbd95a8ac778c4537c55a683d5]
class ParameterCategory--><rect codeLine="12" fill="#FEFECE" filter="url(#f10djgluttzz6j)" height="89.5078" id="ParameterCategory" style="stroke:#A80036;stroke-width:1.5;" width="175" x="8.5" y="276.5"/><ellipse cx="39.7" cy="292.5" fill="#ADD1B2" rx="11" ry="11" style="stroke:#A80036;stroke-width:1.0;"/><path d="M41.7,289 Q41.9031,288.5 42.1375,288.25 Q42.3719,288 42.6375,288 Q43.1063,288 43.4031,288.2813 Q43.7,288.5625 43.7,289.2188 L43.7,290.7813 Q43.7,291.4375 43.4188,291.7188 Q43.1375,292 42.7,292 Q42.3094,292 42.0594,291.8281 Q41.8094,291.6563 41.7,291.2031 Q41.6531,290.8906 41.4813,290.7188 Q41.1688,290.3906 40.6063,290.2031 Q40.0438,290 39.4813,290 Q38.7781,290 38.1844,290.2813 Q37.6063,290.5625 37.1531,291.1875 Q36.7,291.8125 36.7,292.6719 L36.7,293.5938 Q36.7,294.625 37.5438,295.3125 Q38.3875,296 39.8875,296 Q40.7781,296 41.4031,295.7969 Q41.7625,295.6875 42.1688,295.3281 Q42.4344,295.125 42.575,295.0625 Q42.7156,295 42.8875,295 Q43.2156,295 43.45,295.2656 Q43.7,295.5156 43.7,295.875 Q43.7,296.2188 43.3563,296.625 Q42.8563,297.2188 42.0594,297.5469 Q41.0125,298 39.7313,298 Q38.2313,298 37.0281,297.4063 Q36.0594,296.9375 35.3719,295.9219 Q34.7,294.9063 34.7,293.7031 L34.7,292.6094 Q34.7,291.3594 35.2938,290.2656 Q35.9031,289.1719 36.95,288.5938 Q38.0125,288 39.2,288 Q39.9188,288 40.5438,288.25 Q41.1688,288.5 41.7,289 Z " fill="#000000"/><text fill="#000000" font-family="sans-serif" font-size="12" lengthAdjust="spacing" textLength="107" x="57.3" y="297.4102">ParameterCategory</text><line style="stroke:#A80036;stroke-width:1.5;" x1="9.5" x2="182.5" y1="308.5" y2="308.5"/><text fill="#000000" font-family="sans-serif" font-size="11" lengthAdjust="spacing" textLength="28" x="14.5" y="323.9189">-code</text><text fill="#000000" font-family="sans-serif" font-size="11" lengthAdjust="spacing" textLength="30" x="14.5" y="337.7549">-name</text><line style="stroke:#A80036;stroke-width:1.5;" x1="9.5" x2="182.5" y1="344.1719" y2="344.1719"/><text fill="#000000" font-family="sans-serif" font-size="11" lengthAdjust="spacing" textLength="163" x="14.5" y="359.5908">+ParameterCategory(code, name)</text><!--MD5=[02e4b9b7573f1156f41e60aa5b4e25a4]
class Company--><rect codeLine="18" fill="#FEFECE" filter="url(#f10djgluttzz6j)" height="75.6719" id="Company" style="stroke:#A80036;stroke-width:1.5;" width="160" x="272" y="116"/><ellipse cx="321.25" cy="132" fill="#ADD1B2" rx="11" ry="11" style="stroke:#A80036;stroke-width:1.0;"/><path d="M323.25,128.5 Q323.4531,128 323.6875,127.75 Q323.9219,127.5 324.1875,127.5 Q324.6563,127.5 324.9531,127.7813 Q325.25,128.0625 325.25,128.7188 L325.25,130.2813 Q325.25,130.9375 324.9688,131.2188 Q324.6875,131.5 324.25,131.5 Q323.8594,131.5 323.6094,131.3281 Q323.3594,131.1563 323.25,130.7031 Q323.2031,130.3906 323.0313,130.2188 Q322.7188,129.8906 322.1563,129.7031 Q321.5938,129.5 321.0313,129.5 Q320.3281,129.5 319.7344,129.7813 Q319.1563,130.0625 318.7031,130.6875 Q318.25,131.3125 318.25,132.1719 L318.25,133.0938 Q318.25,134.125 319.0938,134.8125 Q319.9375,135.5 321.4375,135.5 Q322.3281,135.5 322.9531,135.2969 Q323.3125,135.1875 323.7188,134.8281 Q323.9844,134.625 324.125,134.5625 Q324.2656,134.5 324.4375,134.5 Q324.7656,134.5 325,134.7656 Q325.25,135.0156 325.25,135.375 Q325.25,135.7188 324.9063,136.125 Q324.4063,136.7188 323.6094,137.0469 Q322.5625,137.5 321.2813,137.5 Q319.7813,137.5 318.5781,136.9063 Q317.6094,136.4375 316.9219,135.4219 Q316.25,134.4063 316.25,133.2031 L316.25,132.1094 Q316.25,130.8594 316.8438,129.7656 Q317.4531,128.6719 318.5,128.0938 Q319.5625,127.5 320.75,127.5 Q321.4688,127.5 322.0938,127.75 Q322.7188,128 323.25,128.5 Z " fill="#000000"/><text fill="#000000" font-family="sans-serif" font-size="12" lengthAdjust="spacing" textLength="53" x="341.75" y="136.9102">Company</text><line style="stroke:#A80036;stroke-width:1.5;" x1="273" x2="431" y1="148" y2="148"/><text fill="#000000" font-family="sans-serif" font-size="11" lengthAdjust="spacing" textLength="59" x="278" y="163.4189">-designation</text><line style="stroke:#A80036;stroke-width:1.5;" x1="273" x2="431" y1="169.8359" y2="169.8359"/><text fill="#000000" font-family="sans-serif" font-size="11" lengthAdjust="spacing" textLength="148" x="278" y="185.2549">+getParameterCategoryStore()</text><!--MD5=[d802db621b5b215a6f0466f93cefcb42]
class ParameterCategoryStore--><rect codeLine="23" fill="#FEFECE" filter="url(#f10djgluttzz6j)" height="103.3438" id="ParameterCategoryStore" style="stroke:#A80036;stroke-width:1.5;" width="206" x="249" y="270"/><ellipse cx="281.1" cy="286" fill="#ADD1B2" rx="11" ry="11" style="stroke:#A80036;stroke-width:1.0;"/><path d="M283.1,282.5 Q283.3031,282 283.5375,281.75 Q283.7719,281.5 284.0375,281.5 Q284.5063,281.5 284.8031,281.7813 Q285.1,282.0625 285.1,282.7188 L285.1,284.2813 Q285.1,284.9375 284.8188,285.2188 Q284.5375,285.5 284.1,285.5 Q283.7094,285.5 283.4594,285.3281 Q283.2094,285.1563 283.1,284.7031 Q283.0531,284.3906 282.8813,284.2188 Q282.5688,283.8906 282.0063,283.7031 Q281.4438,283.5 280.8813,283.5 Q280.1781,283.5 279.5844,283.7813 Q279.0063,284.0625 278.5531,284.6875 Q278.1,285.3125 278.1,286.1719 L278.1,287.0938 Q278.1,288.125 278.9438,288.8125 Q279.7875,289.5 281.2875,289.5 Q282.1781,289.5 282.8031,289.2969 Q283.1625,289.1875 283.5688,288.8281 Q283.8344,288.625 283.975,288.5625 Q284.1156,288.5 284.2875,288.5 Q284.6156,288.5 284.85,288.7656 Q285.1,289.0156 285.1,289.375 Q285.1,289.7188 284.7563,290.125 Q284.2563,290.7188 283.4594,291.0469 Q282.4125,291.5 281.1313,291.5 Q279.6313,291.5 278.4281,290.9063 Q277.4594,290.4375 276.7719,289.4219 Q276.1,288.4063 276.1,287.2031 L276.1,286.1094 Q276.1,284.8594 276.6938,283.7656 Q277.3031,282.6719 278.35,282.0938 Q279.4125,281.5 280.6,281.5 Q281.3188,281.5 281.9438,281.75 Q282.5688,282 283.1,282.5 Z " fill="#000000"/><text fill="#000000" font-family="sans-serif" font-size="12" lengthAdjust="spacing" textLength="136" x="298.9" y="290.9102">ParameterCategoryStore</text><line style="stroke:#A80036;stroke-width:1.5;" x1="250" x2="454" y1="302" y2="302"/><line style="stroke:#A80036;stroke-width:1.5;" x1="250" x2="454" y1="310" y2="310"/><text fill="#000000" font-family="sans-serif" font-size="11" lengthAdjust="spacing" textLength="194" x="255" y="325.4189">+createParameterCategory(code, name)</text><text fill="#000000" font-family="sans-serif" font-size="11" lengthAdjust="spacing" textLength="156" x="255" y="339.2549">+validateParameterCategory(pc)</text><text fill="#000000" font-family="sans-serif" font-size="11" lengthAdjust="spacing" textLength="143" x="255" y="353.0908">+saveParameterCategory(pc)</text><text fill="#000000" font-family="sans-serif" font-size="11" lengthAdjust="spacing" textLength="125" x="255" y="366.9268">+addParameterCategory()</text><!--MD5=[93b1b9218398b0464d36d46d0f539949]
link CreateParameterCategoryUI to CreateParameterCategoryController--><path codeLine="30" d="M122,55.04 C122,70.71 122,91.91 122,110.58 " fill="none" id="CreateParameterCategoryUI-to-CreateParameterCategoryController" style="stroke:#A80036;stroke-width:1.0;stroke-dasharray:7.0,7.0;"/><polygon fill="#A80036" points="122,115.77,126,106.77,122,110.77,118,106.77,122,115.77" style="stroke:#A80036;stroke-width:1.0;"/><!--MD5=[a00c31f7a5d66db29f7adf0293377a3b]
link CreateParameterCategoryController to Company--><path codeLine="31" d="M237.45,154 C247.23,154 257.01,154 266.79,154 " fill="none" id="CreateParameterCategoryController-to-Company" style="stroke:#A80036;stroke-width:1.0;stroke-dasharray:7.0,7.0;"/><polygon fill="#A80036" points="271.9,154,262.9,150,266.9,154,262.9,158,271.9,154" style="stroke:#A80036;stroke-width:1.0;"/><!--MD5=[d53d7490e5836ca5709858d7326f212b]
link Company to ParameterCategoryStore--><path codeLine="32" d="M352,192.14 C352,213.58 352,240.97 352,264.93 " fill="none" id="Company-to-ParameterCategoryStore" style="stroke:#A80036;stroke-width:1.0;"/><polygon fill="#A80036" points="352,269.99,356,260.99,352,264.99,348,260.99,352,269.99" style="stroke:#A80036;stroke-width:1.0;"/><text fill="#000000" font-family="sans-serif" font-size="13" lengthAdjust="spacing" textLength="28" x="353" y="236.4951">uses</text><text fill="#000000" font-family="sans-serif" font-size="13" lengthAdjust="spacing" textLength="7" x="344.4422" y="213.0428">1</text><text fill="#000000" font-family="sans-serif" font-size="13" lengthAdjust="spacing" textLength="7" x="344.5078" y="259.1171">1</text><!--MD5=[3b5e7c1cd53c32a2204fad7a0751c55b]
reverse link ParameterCategory to ParameterCategoryStore--><path codeLine="33" d="M189.19,321.5 C208.61,321.5 229.18,321.5 248.93,321.5 " fill="none" id="ParameterCategory-backto-ParameterCategoryStore" style="stroke:#A80036;stroke-width:1.0;"/><polygon fill="#A80036" points="183.74,321.5,192.74,325.5,188.74,321.5,192.74,317.5,183.74,321.5" style="stroke:#A80036;stroke-width:1.0;"/><text fill="#000000" font-family="sans-serif" font-size="13" lengthAdjust="spacing" textLength="29" x="201.75" y="314.9951">store</text><text fill="#000000" font-family="sans-serif" font-size="13" lengthAdjust="spacing" textLength="5" x="191.495" y="318.3439">*</text><text fill="#000000" font-family="sans-serif" font-size="13" lengthAdjust="spacing" textLength="7" x="234.1038" y="318.4079">1</text><!--MD5=[ba48cdd415536dc68cda7842513398e2]
@startuml
skinparam classAttributeIconSize 0

class CreateParameterCategoryUI{
}

class CreateParameterCategoryController
{
    +createNewParameterCategory(code, name)
    +saveParameterCategory()
}

class ParameterCategory{
    -code
    -name
    +ParameterCategory(code, name)
}

class Company{
	-designation
	+getParameterCategoryStore()
}

class ParameterCategoryStore{
    +createParameterCategory(code, name)
    +validateParameterCategory(pc)
    +saveParameterCategory(pc)
    +addParameterCategory()
}

CreateParameterCategoryUI ..> CreateParameterCategoryController
CreateParameterCategoryController .right.> Company
Company"1" - -> "1"ParameterCategoryStore : uses
ParameterCategoryStore"1" -left-> "*"ParameterCategory : store

@enduml

PlantUML version 1.2021.00(Sun Jan 10 10:25:05 GMT 2021)
(GPL source distribution)
Java Runtime: OpenJDK Runtime Environment
JVM: OpenJDK 64-Bit Server VM
Default Encoding: Cp1252
Language: en
Country: US
--></g></svg>