<?xml version="1.0" encoding="UTF-8" standalone="no"?><svg xmlns="http://www.w3.org/2000/svg" xmlns:xlink="http://www.w3.org/1999/xlink" contentScriptType="application/ecmascript" contentStyleType="text/css" height="498px" preserveAspectRatio="none" style="width:334px;height:498px;" version="1.1" viewBox="0 0 334 498" width="334px" zoomAndPan="magnify"><defs><filter height="300%" id="f1snsw4ih83cuv" width="300%" x="-1" y="-1"><feGaussianBlur result="blurOut" stdDeviation="2.0"/><feColorMatrix in="blurOut" result="blurOut2" type="matrix" values="0 0 0 0 0 0 0 0 0 0 0 0 0 0 0 0 0 0 .4 0"/><feOffset dx="4.0" dy="4.0" in="blurOut2" result="blurOut3"/><feBlend in="SourceGraphic" in2="blurOut3" mode="normal"/></filter></defs><g><!--MD5=[02e4b9b7573f1156f41e60aa5b4e25a4]
class Company--><rect codeLine="7" fill="#FEFECE" filter="url(#f1snsw4ih83cuv)" height="53.8359" id="Company" style="stroke:#A80036;stroke-width:1.5;" width="85" x="129.55" y="7"/><ellipse cx="144.55" cy="23" fill="#ADD1B2" rx="11" ry="11" style="stroke:#A80036;stroke-width:1.0;"/><path d="M146.55,19.5 Q146.7531,19 146.9875,18.75 Q147.2219,18.5 147.4875,18.5 Q147.9563,18.5 148.2531,18.7813 Q148.55,19.0625 148.55,19.7188 L148.55,21.2813 Q148.55,21.9375 148.2688,22.2188 Q147.9875,22.5 147.55,22.5 Q147.1594,22.5 146.9094,22.3281 Q146.6594,22.1563 146.55,21.7031 Q146.5031,21.3906 146.3313,21.2188 Q146.0188,20.8906 145.4563,20.7031 Q144.8938,20.5 144.3313,20.5 Q143.6281,20.5 143.0344,20.7813 Q142.4563,21.0625 142.0031,21.6875 Q141.55,22.3125 141.55,23.1719 L141.55,24.0938 Q141.55,25.125 142.3938,25.8125 Q143.2375,26.5 144.7375,26.5 Q145.6281,26.5 146.2531,26.2969 Q146.6125,26.1875 147.0188,25.8281 Q147.2844,25.625 147.425,25.5625 Q147.5656,25.5 147.7375,25.5 Q148.0656,25.5 148.3,25.7656 Q148.55,26.0156 148.55,26.375 Q148.55,26.7188 148.2063,27.125 Q147.7063,27.7188 146.9094,28.0469 Q145.8625,28.5 144.5813,28.5 Q143.0813,28.5 141.8781,27.9063 Q140.9094,27.4375 140.2219,26.4219 Q139.55,25.4063 139.55,24.2031 L139.55,23.1094 Q139.55,21.8594 140.1438,20.7656 Q140.7531,19.6719 141.8,19.0938 Q142.8625,18.5 144.05,18.5 Q144.7688,18.5 145.3938,18.75 Q146.0188,19 146.55,19.5 Z " fill="#000000"/><text fill="#000000" font-family="sans-serif" font-size="12" lengthAdjust="spacing" textLength="53" x="158.55" y="27.9102">Company</text><line style="stroke:#A80036;stroke-width:1.5;" x1="130.55" x2="213.55" y1="39" y2="39"/><text fill="#000000" font-family="sans-serif" font-size="11" lengthAdjust="spacing" textLength="59" x="135.55" y="54.4189">-designation</text><!--MD5=[db6d18d8099558415abc41d00477ab92]
class Admin--><rect codeLine="11" fill="#FEFECE" filter="url(#f1snsw4ih83cuv)" height="40" id="Admin" style="stroke:#A80036;stroke-width:1.5;" width="67" x="34.55" y="139"/><ellipse cx="49.55" cy="155" fill="#ADD1B2" rx="11" ry="11" style="stroke:#A80036;stroke-width:1.0;"/><path d="M51.55,151.5 Q51.7531,151 51.9875,150.75 Q52.2219,150.5 52.4875,150.5 Q52.9563,150.5 53.2531,150.7813 Q53.55,151.0625 53.55,151.7188 L53.55,153.2813 Q53.55,153.9375 53.2688,154.2188 Q52.9875,154.5 52.55,154.5 Q52.1594,154.5 51.9094,154.3281 Q51.6594,154.1563 51.55,153.7031 Q51.5031,153.3906 51.3313,153.2188 Q51.0188,152.8906 50.4563,152.7031 Q49.8938,152.5 49.3313,152.5 Q48.6281,152.5 48.0344,152.7813 Q47.4563,153.0625 47.0031,153.6875 Q46.55,154.3125 46.55,155.1719 L46.55,156.0938 Q46.55,157.125 47.3938,157.8125 Q48.2375,158.5 49.7375,158.5 Q50.6281,158.5 51.2531,158.2969 Q51.6125,158.1875 52.0188,157.8281 Q52.2844,157.625 52.425,157.5625 Q52.5656,157.5 52.7375,157.5 Q53.0656,157.5 53.3,157.7656 Q53.55,158.0156 53.55,158.375 Q53.55,158.7188 53.2063,159.125 Q52.7063,159.7188 51.9094,160.0469 Q50.8625,160.5 49.5813,160.5 Q48.0813,160.5 46.8781,159.9063 Q45.9094,159.4375 45.2219,158.4219 Q44.55,157.4063 44.55,156.2031 L44.55,155.1094 Q44.55,153.8594 45.1438,152.7656 Q45.7531,151.6719 46.8,151.0938 Q47.8625,150.5 49.05,150.5 Q49.7688,150.5 50.3938,150.75 Q51.0188,151 51.55,151.5 Z " fill="#000000"/><text fill="#000000" font-family="sans-serif" font-size="12" lengthAdjust="spacing" textLength="35" x="63.55" y="159.9102">Admin</text><line style="stroke:#A80036;stroke-width:1.5;" x1="35.55" x2="100.55" y1="171" y2="171"/><!--MD5=[1f6362a5c8f21d8d6a0fce68f3a92a4e]
class Parameter--><rect codeLine="14" fill="#FEFECE" filter="url(#f1snsw4ih83cuv)" height="81.5078" id="Parameter" style="stroke:#A80036;stroke-width:1.5;" width="90" x="126.05" y="257"/><ellipse cx="141.05" cy="273" fill="#ADD1B2" rx="11" ry="11" style="stroke:#A80036;stroke-width:1.0;"/><path d="M143.05,269.5 Q143.2531,269 143.4875,268.75 Q143.7219,268.5 143.9875,268.5 Q144.4563,268.5 144.7531,268.7813 Q145.05,269.0625 145.05,269.7188 L145.05,271.2813 Q145.05,271.9375 144.7688,272.2188 Q144.4875,272.5 144.05,272.5 Q143.6594,272.5 143.4094,272.3281 Q143.1594,272.1563 143.05,271.7031 Q143.0031,271.3906 142.8313,271.2188 Q142.5188,270.8906 141.9563,270.7031 Q141.3938,270.5 140.8313,270.5 Q140.1281,270.5 139.5344,270.7813 Q138.9563,271.0625 138.5031,271.6875 Q138.05,272.3125 138.05,273.1719 L138.05,274.0938 Q138.05,275.125 138.8938,275.8125 Q139.7375,276.5 141.2375,276.5 Q142.1281,276.5 142.7531,276.2969 Q143.1125,276.1875 143.5188,275.8281 Q143.7844,275.625 143.925,275.5625 Q144.0656,275.5 144.2375,275.5 Q144.5656,275.5 144.8,275.7656 Q145.05,276.0156 145.05,276.375 Q145.05,276.7188 144.7063,277.125 Q144.2063,277.7188 143.4094,278.0469 Q142.3625,278.5 141.0813,278.5 Q139.5813,278.5 138.3781,277.9063 Q137.4094,277.4375 136.7219,276.4219 Q136.05,275.4063 136.05,274.2031 L136.05,273.1094 Q136.05,271.8594 136.6438,270.7656 Q137.2531,269.6719 138.3,269.0938 Q139.3625,268.5 140.55,268.5 Q141.2688,268.5 141.8938,268.75 Q142.5188,269 143.05,269.5 Z " fill="#000000"/><text fill="#000000" font-family="sans-serif" font-size="12" lengthAdjust="spacing" textLength="58" x="155.05" y="277.9102">Parameter</text><line style="stroke:#A80036;stroke-width:1.5;" x1="127.05" x2="215.05" y1="289" y2="289"/><text fill="#000000" font-family="sans-serif" font-size="11" lengthAdjust="spacing" textLength="28" x="132.05" y="304.4189">-code</text><text fill="#000000" font-family="sans-serif" font-size="11" lengthAdjust="spacing" textLength="56" x="132.05" y="318.2549">-shortName</text><text fill="#000000" font-family="sans-serif" font-size="11" lengthAdjust="spacing" textLength="57" x="132.05" y="332.0908">-description</text><!--MD5=[36afb6bbd95a8ac778c4537c55a683d5]
class ParameterCategory--><rect codeLine="20" fill="#FEFECE" filter="url(#f1snsw4ih83cuv)" height="67.6719" id="ParameterCategory" style="stroke:#A80036;stroke-width:1.5;" width="139" x="101.55" y="417"/><ellipse cx="116.55" cy="433" fill="#ADD1B2" rx="11" ry="11" style="stroke:#A80036;stroke-width:1.0;"/><path d="M118.55,429.5 Q118.7531,429 118.9875,428.75 Q119.2219,428.5 119.4875,428.5 Q119.9563,428.5 120.2531,428.7813 Q120.55,429.0625 120.55,429.7188 L120.55,431.2813 Q120.55,431.9375 120.2688,432.2188 Q119.9875,432.5 119.55,432.5 Q119.1594,432.5 118.9094,432.3281 Q118.6594,432.1563 118.55,431.7031 Q118.5031,431.3906 118.3313,431.2188 Q118.0188,430.8906 117.4563,430.7031 Q116.8938,430.5 116.3313,430.5 Q115.6281,430.5 115.0344,430.7813 Q114.4563,431.0625 114.0031,431.6875 Q113.55,432.3125 113.55,433.1719 L113.55,434.0938 Q113.55,435.125 114.3938,435.8125 Q115.2375,436.5 116.7375,436.5 Q117.6281,436.5 118.2531,436.2969 Q118.6125,436.1875 119.0188,435.8281 Q119.2844,435.625 119.425,435.5625 Q119.5656,435.5 119.7375,435.5 Q120.0656,435.5 120.3,435.7656 Q120.55,436.0156 120.55,436.375 Q120.55,436.7188 120.2063,437.125 Q119.7063,437.7188 118.9094,438.0469 Q117.8625,438.5 116.5813,438.5 Q115.0813,438.5 113.8781,437.9063 Q112.9094,437.4375 112.2219,436.4219 Q111.55,435.4063 111.55,434.2031 L111.55,433.1094 Q111.55,431.8594 112.1438,430.7656 Q112.7531,429.6719 113.8,429.0938 Q114.8625,428.5 116.05,428.5 Q116.7688,428.5 117.3938,428.75 Q118.0188,429 118.55,429.5 Z " fill="#000000"/><text fill="#000000" font-family="sans-serif" font-size="12" lengthAdjust="spacing" textLength="107" x="130.55" y="437.9102">ParameterCategory</text><line style="stroke:#A80036;stroke-width:1.5;" x1="102.55" x2="239.55" y1="449" y2="449"/><text fill="#000000" font-family="sans-serif" font-size="11" lengthAdjust="spacing" textLength="28" x="107.55" y="464.4189">-code</text><text fill="#000000" font-family="sans-serif" font-size="11" lengthAdjust="spacing" textLength="30" x="107.55" y="478.2549">-name</text><!--MD5=[f1c2b2c569abc5f56c317b9d8f3fddee]
link Company to Admin--><path codeLine="25" d="M129.4,52.43 C112.22,61.51 93.75,74.26 82.05,91 C72.24,105.02 69.04,124.47 68.11,138.8 " fill="none" id="Company-Admin" style="stroke:#A80036;stroke-width:1.0;"/><polygon fill="#000000" points="84.1564,104.2534,91.7877,98.5777,86.9942,95.1761,84.1564,104.2534" style="stroke:#000000;stroke-width:1.0;"/><text fill="#000000" font-family="sans-serif" font-size="13" lengthAdjust="spacing" textLength="49" x="96.05" y="105.4951">employs</text><text fill="#000000" font-family="sans-serif" font-size="13" lengthAdjust="spacing" textLength="7" x="114.468" y="51.7621">1</text><text fill="#000000" font-family="sans-serif" font-size="13" lengthAdjust="spacing" textLength="5" x="62.3933" y="128.063">*</text><!--MD5=[12d76240d3c3c66074d4ec2ea8bf469c]
link Company to Parameter--><path codeLine="26" d="M171.95,61.08 C171.77,106.9 171.41,202.14 171.2,256.56 " fill="none" id="Company-Parameter" style="stroke:#A80036;stroke-width:1.0;"/><polygon fill="#000000" points="178.0308,156.1757,181.0044,147.142,175.1266,147.1195,178.0308,156.1757" style="stroke:#000000;stroke-width:1.0;"/><text fill="#000000" font-family="sans-serif" font-size="13" lengthAdjust="spacing" textLength="59" x="186.05" y="156.4951">capable of</text><text fill="#000000" font-family="sans-serif" font-size="13" lengthAdjust="spacing" textLength="55" x="183.55" y="172.8467">analysing</text><text fill="#000000" font-family="sans-serif" font-size="13" lengthAdjust="spacing" textLength="7" x="164.1625" y="82.3053">1</text><text fill="#000000" font-family="sans-serif" font-size="13" lengthAdjust="spacing" textLength="5" x="165.8255" y="246.2429">*</text><!--MD5=[93b4f25fb503a8e0e9a46b1d30ff3f44]
link Company to ParameterCategory--><path codeLine="27" d="M200.27,61.17 C219.19,80.62 242.64,108.9 254.05,139 C290.31,234.75 264.16,266.66 267.05,369 C267.27,377 270.85,379.96 267.05,387 C260.7,398.75 251.1,408.67 240.39,416.91 " fill="none" id="Company-ParameterCategory" style="stroke:#A80036;stroke-width:1.0;"/><polygon fill="#000000" points="278.6103,223.1443,280.5171,213.8268,274.6763,214.4855,278.6103,223.1443" style="stroke:#000000;stroke-width:1.0;"/><text fill="#000000" font-family="sans-serif" font-size="13" lengthAdjust="spacing" textLength="39" x="287.05" y="223.4951">adopts</text><text fill="#000000" font-family="sans-serif" font-size="13" lengthAdjust="spacing" textLength="7" x="198.6775" y="82.415">1</text><text fill="#000000" font-family="sans-serif" font-size="13" lengthAdjust="spacing" textLength="5" x="248.5491" y="406.1856">*</text><!--MD5=[e1afea9e4efa714420cae843e9ccbf3c]
link Admin to Parameter--><path codeLine="28" d="M64.23,179.09 C62.41,193.18 62.11,212.37 70.05,227 C76.61,239.09 102.21,256.77 125.98,271.34 " fill="none" id="Admin-Parameter" style="stroke:#A80036;stroke-width:1.0;"/><polygon fill="#000000" points="72.2687,214.0207,74.8578,223.1721,79.7424,219.9025,72.2687,214.0207" style="stroke:#000000;stroke-width:1.0;"/><text fill="#000000" font-family="sans-serif" font-size="13" lengthAdjust="spacing" textLength="61" x="84.05" y="223.4951">created by</text><text fill="#000000" font-family="sans-serif" font-size="13" lengthAdjust="spacing" textLength="7" x="55.1713" y="200.5349">1</text><text fill="#000000" font-family="sans-serif" font-size="13" lengthAdjust="spacing" textLength="5" x="113.1012" y="263.1644">*</text><!--MD5=[6df8849671cb880f6936e94aa30db6f9]
link Parameter to ParameterCategory--><path codeLine="29" d="M171.05,339.07 C171.05,363.36 171.05,393.98 171.05,416.89 " fill="none" id="Parameter-ParameterCategory" style="stroke:#A80036;stroke-width:1.0;"/><polygon fill="#000000" points="176.05,383.1758,178.9889,374.1307,173.1111,374.1307,176.05,383.1758" style="stroke:#000000;stroke-width:1.0;"/><text fill="#000000" font-family="sans-serif" font-size="13" lengthAdjust="spacing" textLength="73" x="185.05" y="383.4951">shown under</text><text fill="#000000" font-family="sans-serif" font-size="13" lengthAdjust="spacing" textLength="5" x="165.6672" y="360.1436">*</text><text fill="#000000" font-family="sans-serif" font-size="13" lengthAdjust="spacing" textLength="7" x="163.3609" y="406.1616">1</text><!--MD5=[e6c6dc67a59b2936f5b2a641a4a0f477]
link Admin to ParameterCategory--><path codeLine="30" d="M56.75,179 C38.24,212.8 6,284.87 32.05,339 C47.91,371.98 78.87,398.21 107.56,416.87 " fill="none" id="Admin-ParameterCategory" style="stroke:#A80036;stroke-width:1.0;"/><polygon fill="#000000" points="36.0055,293.2861,35.0209,302.7455,40.7691,301.5177,36.0055,293.2861" style="stroke:#000000;stroke-width:1.0;"/><text fill="#000000" font-family="sans-serif" font-size="13" lengthAdjust="spacing" textLength="61" x="46.05" y="303.4951">created by</text><text fill="#000000" font-family="sans-serif" font-size="13" lengthAdjust="spacing" textLength="7" x="45.5875" y="200.4196">1</text><text fill="#000000" font-family="sans-serif" font-size="13" lengthAdjust="spacing" textLength="5" x="89.5682" y="406.1377">*</text><!--MD5=[4f985324806939fa891f25a5297d0046]
@startuml

hide methods

skinparam classAttributeIconSize 0


class Company {
  -designation
}

class Admin{
}

class Parameter{
    -code
    -shortName
    -description
}

class ParameterCategory{
    -code
    -name
}

Company"1" - - "*"Admin :> employs
Company"1" - - "*"Parameter :> capable of \n analysing
Company"1" - - "*"ParameterCategory :> adopts
Admin"1" - - "*"Parameter :< created by
Parameter"*" - - "1"ParameterCategory :> shown under
Admin"1" - - "*"ParameterCategory :< created by




@enduml

PlantUML version 1.2021.00(Sun Jan 10 10:25:05 GMT 2021)
(GPL source distribution)
Java Runtime: OpenJDK Runtime Environment
JVM: OpenJDK 64-Bit Server VM
Default Encoding: Cp1252
Language: en
Country: US
--></g></svg>