<?xml version="1.0" encoding="UTF-8" standalone="no"?><svg xmlns="http://www.w3.org/2000/svg" xmlns:xlink="http://www.w3.org/1999/xlink" contentScriptType="application/ecmascript" contentStyleType="text/css" height="812px" preserveAspectRatio="none" style="width:1607px;height:812px;" version="1.1" viewBox="0 0 1607 812" width="1607px" zoomAndPan="magnify"><defs><filter height="300%" id="fvew0rx321wzk" width="300%" x="-1" y="-1"><feGaussianBlur result="blurOut" stdDeviation="2.0"/><feColorMatrix in="blurOut" result="blurOut2" type="matrix" values="0 0 0 0 0 0 0 0 0 0 0 0 0 0 0 0 0 0 .4 0"/><feOffset dx="4.0" dy="4.0" in="blurOut2" result="blurOut3"/><feBlend in="SourceGraphic" in2="blurOut3" mode="normal"/></filter></defs><g><rect fill="#FFFFFF" filter="url(#fvew0rx321wzk)" height="30.3516" style="stroke:#A80036;stroke-width:1.0;" width="10" x="374.5" y="121.9609"/><rect fill="#FFFFFF" filter="url(#fvew0rx321wzk)" height="258.3672" style="stroke:#A80036;stroke-width:1.0;" width="10" x="374.5" y="182.6641"/><rect fill="#FFFFFF" filter="url(#fvew0rx321wzk)" height="237.7578" style="stroke:#A80036;stroke-width:1.0;" width="10" x="374.5" y="471.3828"/><rect fill="#FFFFFF" filter="url(#fvew0rx321wzk)" height="197.6641" style="stroke:#A80036;stroke-width:1.0;" width="10" x="773.5" y="213.0156"/><rect fill="#FFFFFF" filter="url(#fvew0rx321wzk)" height="170.0547" style="stroke:#A80036;stroke-width:1.0;" width="10" x="773.5" y="501.7344"/><rect fill="#FFFFFF" filter="url(#fvew0rx321wzk)" height="30" style="stroke:#A80036;stroke-width:1.0;" width="10" x="975.5" y="243.3672"/><rect fill="#FFFFFF" filter="url(#fvew0rx321wzk)" height="30.3516" style="stroke:#A80036;stroke-width:1.0;" width="10" x="1168.5" y="303.7188"/><rect fill="#FFFFFF" filter="url(#fvew0rx321wzk)" height="30" style="stroke:#A80036;stroke-width:1.0;" width="10" x="1168.5" y="380.6797"/><rect fill="#FFFFFF" filter="url(#fvew0rx321wzk)" height="139.7031" style="stroke:#A80036;stroke-width:1.0;" width="10" x="1168.5" y="532.0859"/><rect fill="#FFFFFF" filter="url(#fvew0rx321wzk)" height="28" style="stroke:#A80036;stroke-width:1.0;" width="10" x="1173.5" y="570.4375"/><rect fill="#FFFFFF" filter="url(#fvew0rx321wzk)" height="28" style="stroke:#A80036;stroke-width:1.0;" width="10" x="1173.5" y="643.7891"/><line style="stroke:#A80036;stroke-width:1.0;stroke-dasharray:5.0,5.0;" x1="49" x2="49" y1="89.6094" y2="727.1406"/><line style="stroke:#A80036;stroke-width:1.0;stroke-dasharray:5.0,5.0;" x1="379" x2="379" y1="89.6094" y2="727.1406"/><line style="stroke:#A80036;stroke-width:1.0;stroke-dasharray:5.0,5.0;" x1="778" x2="778" y1="89.6094" y2="727.1406"/><line style="stroke:#A80036;stroke-width:1.0;stroke-dasharray:5.0,5.0;" x1="980.5" x2="980.5" y1="89.6094" y2="727.1406"/><line style="stroke:#A80036;stroke-width:1.0;stroke-dasharray:5.0,5.0;" x1="1173.5" x2="1173.5" y1="89.6094" y2="727.1406"/><line style="stroke:#A80036;stroke-width:1.0;stroke-dasharray:5.0,5.0;" x1="1553.5" x2="1553.5" y1="345.0234" y2="727.1406"/><text fill="#000000" font-family="sans-serif" font-size="14" lengthAdjust="spacing" textLength="83" x="5" y="86.5332">Administrator</text><ellipse cx="49.5" cy="15" fill="#FEFECE" filter="url(#fvew0rx321wzk)" rx="8" ry="8" style="stroke:#A80036;stroke-width:2.0;"/><path d="M49.5,23 L49.5,50 M36.5,31 L62.5,31 M49.5,50 L36.5,65 M49.5,50 L62.5,65 " fill="none" filter="url(#fvew0rx321wzk)" style="stroke:#A80036;stroke-width:2.0;"/><text fill="#000000" font-family="sans-serif" font-size="14" lengthAdjust="spacing" textLength="83" x="5" y="740.6738">Administrator</text><ellipse cx="49.5" cy="753.75" fill="#FEFECE" filter="url(#fvew0rx321wzk)" rx="8" ry="8" style="stroke:#A80036;stroke-width:2.0;"/><path d="M49.5,761.75 L49.5,788.75 M36.5,769.75 L62.5,769.75 M49.5,788.75 L36.5,803.75 M49.5,788.75 L62.5,803.75 " fill="none" filter="url(#fvew0rx321wzk)" style="stroke:#A80036;stroke-width:2.0;"/><rect fill="#FEFECE" filter="url(#fvew0rx321wzk)" height="31.6094" style="stroke:#A80036;stroke-width:1.5;" width="165" x="295" y="53"/><text fill="#000000" font-family="sans-serif" font-size="14" lengthAdjust="spacing" textLength="151" x="302" y="74.5332">:CreateNewParameterUI</text><rect fill="#FEFECE" filter="url(#fvew0rx321wzk)" height="31.6094" style="stroke:#A80036;stroke-width:1.5;" width="165" x="295" y="726.1406"/><text fill="#000000" font-family="sans-serif" font-size="14" lengthAdjust="spacing" textLength="151" x="302" y="747.6738">:CreateNewParameterUI</text><rect fill="#FEFECE" filter="url(#fvew0rx321wzk)" height="31.6094" style="stroke:#A80036;stroke-width:1.5;" width="215" x="669" y="53"/><text fill="#000000" font-family="sans-serif" font-size="14" lengthAdjust="spacing" textLength="201" x="676" y="74.5332">:CreateNewParameterController</text><rect fill="#FEFECE" filter="url(#fvew0rx321wzk)" height="31.6094" style="stroke:#A80036;stroke-width:1.5;" width="215" x="669" y="726.1406"/><text fill="#000000" font-family="sans-serif" font-size="14" lengthAdjust="spacing" textLength="201" x="676" y="747.6738">:CreateNewParameterController</text><rect fill="#FEFECE" filter="url(#fvew0rx321wzk)" height="31.6094" style="stroke:#A80036;stroke-width:1.5;" width="78" x="939.5" y="53"/><text fill="#000000" font-family="sans-serif" font-size="14" lengthAdjust="spacing" textLength="64" x="946.5" y="74.5332">:Company</text><rect fill="#FEFECE" filter="url(#fvew0rx321wzk)" height="31.6094" style="stroke:#A80036;stroke-width:1.5;" width="78" x="939.5" y="726.1406"/><text fill="#000000" font-family="sans-serif" font-size="14" lengthAdjust="spacing" textLength="64" x="946.5" y="747.6738">:Company</text><rect fill="#FEFECE" filter="url(#fvew0rx321wzk)" height="31.6094" style="stroke:#A80036;stroke-width:1.5;" width="118" x="1112.5" y="53"/><text fill="#000000" font-family="sans-serif" font-size="14" lengthAdjust="spacing" textLength="104" x="1119.5" y="74.5332">:ParameterStore</text><rect fill="#FEFECE" filter="url(#fvew0rx321wzk)" height="31.6094" style="stroke:#A80036;stroke-width:1.5;" width="118" x="1112.5" y="726.1406"/><text fill="#000000" font-family="sans-serif" font-size="14" lengthAdjust="spacing" textLength="104" x="1119.5" y="747.6738">:ParameterStore</text><rect fill="#FEFECE" filter="url(#fvew0rx321wzk)" height="31.6094" style="stroke:#A80036;stroke-width:1.5;" width="84" x="1509.5" y="726.1406"/><text fill="#000000" font-family="sans-serif" font-size="14" lengthAdjust="spacing" textLength="70" x="1516.5" y="747.6738">:Parameter</text><rect fill="#FFFFFF" filter="url(#fvew0rx321wzk)" height="30.3516" style="stroke:#A80036;stroke-width:1.0;" width="10" x="374.5" y="121.9609"/><rect fill="#FFFFFF" filter="url(#fvew0rx321wzk)" height="258.3672" style="stroke:#A80036;stroke-width:1.0;" width="10" x="374.5" y="182.6641"/><rect fill="#FFFFFF" filter="url(#fvew0rx321wzk)" height="237.7578" style="stroke:#A80036;stroke-width:1.0;" width="10" x="374.5" y="471.3828"/><rect fill="#FFFFFF" filter="url(#fvew0rx321wzk)" height="197.6641" style="stroke:#A80036;stroke-width:1.0;" width="10" x="773.5" y="213.0156"/><rect fill="#FFFFFF" filter="url(#fvew0rx321wzk)" height="170.0547" style="stroke:#A80036;stroke-width:1.0;" width="10" x="773.5" y="501.7344"/><rect fill="#FFFFFF" filter="url(#fvew0rx321wzk)" height="30" style="stroke:#A80036;stroke-width:1.0;" width="10" x="975.5" y="243.3672"/><rect fill="#FFFFFF" filter="url(#fvew0rx321wzk)" height="30.3516" style="stroke:#A80036;stroke-width:1.0;" width="10" x="1168.5" y="303.7188"/><rect fill="#FFFFFF" filter="url(#fvew0rx321wzk)" height="30" style="stroke:#A80036;stroke-width:1.0;" width="10" x="1168.5" y="380.6797"/><rect fill="#FFFFFF" filter="url(#fvew0rx321wzk)" height="139.7031" style="stroke:#A80036;stroke-width:1.0;" width="10" x="1168.5" y="532.0859"/><rect fill="#FFFFFF" filter="url(#fvew0rx321wzk)" height="28" style="stroke:#A80036;stroke-width:1.0;" width="10" x="1173.5" y="570.4375"/><rect fill="#FFFFFF" filter="url(#fvew0rx321wzk)" height="28" style="stroke:#A80036;stroke-width:1.0;" width="10" x="1173.5" y="643.7891"/><polygon fill="#A80036" points="362.5,117.9609,372.5,121.9609,362.5,125.9609,366.5,121.9609" style="stroke:#A80036;stroke-width:1.0;"/><line style="stroke:#A80036;stroke-width:1.0;" x1="49.5" x2="368.5" y1="121.9609" y2="121.9609"/><text fill="#000000" font-family="sans-serif" font-size="13" font-weight="bold" lengthAdjust="spacing" textLength="7" x="56.5" y="117.1045">1</text><text fill="#000000" font-family="sans-serif" font-size="13" lengthAdjust="spacing" textLength="128" x="67.5" y="117.1045">Start a new parameter</text><polygon fill="#A80036" points="60.5,148.3125,50.5,152.3125,60.5,156.3125,56.5,152.3125" style="stroke:#A80036;stroke-width:1.0;"/><line style="stroke:#A80036;stroke-width:1.0;stroke-dasharray:2.0,2.0;" x1="54.5" x2="378.5" y1="152.3125" y2="152.3125"/><text fill="#000000" font-family="sans-serif" font-size="13" font-weight="bold" lengthAdjust="spacing" textLength="7" x="66.5" y="147.4561">2</text><text fill="#000000" font-family="sans-serif" font-size="13" lengthAdjust="spacing" textLength="290" x="77.5" y="147.4561">ask data (shortName, code, description, category)</text><polygon fill="#A80036" points="362.5,178.6641,372.5,182.6641,362.5,186.6641,366.5,182.6641" style="stroke:#A80036;stroke-width:1.0;"/><line style="stroke:#A80036;stroke-width:1.0;" x1="49.5" x2="368.5" y1="182.6641" y2="182.6641"/><text fill="#000000" font-family="sans-serif" font-size="13" font-weight="bold" lengthAdjust="spacing" textLength="7" x="56.5" y="177.8076">3</text><text fill="#000000" font-family="sans-serif" font-size="13" lengthAdjust="spacing" textLength="122" x="67.5" y="177.8076">insert requested data</text><polygon fill="#A80036" points="761.5,209.0156,771.5,213.0156,761.5,217.0156,765.5,213.0156" style="stroke:#A80036;stroke-width:1.0;"/><line style="stroke:#A80036;stroke-width:1.0;" x1="384.5" x2="767.5" y1="213.0156" y2="213.0156"/><text fill="#000000" font-family="sans-serif" font-size="13" font-weight="bold" lengthAdjust="spacing" textLength="7" x="391.5" y="208.1592">4</text><text fill="#000000" font-family="sans-serif" font-size="13" lengthAdjust="spacing" textLength="359" x="402.5" y="208.1592">CreateNewParameter(shortName, code, description, category)</text><polygon fill="#A80036" points="963.5,239.3672,973.5,243.3672,963.5,247.3672,967.5,243.3672" style="stroke:#A80036;stroke-width:1.0;"/><line style="stroke:#A80036;stroke-width:1.0;" x1="783.5" x2="969.5" y1="243.3672" y2="243.3672"/><text fill="#000000" font-family="sans-serif" font-size="13" font-weight="bold" lengthAdjust="spacing" textLength="7" x="790.5" y="238.5107">5</text><text fill="#000000" font-family="sans-serif" font-size="13" lengthAdjust="spacing" textLength="162" x="801.5" y="238.5107">store = getParameterStore()</text><polygon fill="#A80036" points="1156.5,299.7188,1166.5,303.7188,1156.5,307.7188,1160.5,303.7188" style="stroke:#A80036;stroke-width:1.0;"/><line style="stroke:#A80036;stroke-width:1.0;" x1="783.5" x2="1162.5" y1="303.7188" y2="303.7188"/><text fill="#000000" font-family="sans-serif" font-size="13" font-weight="bold" lengthAdjust="spacing" textLength="7" x="790.5" y="298.8623">6</text><text fill="#000000" font-family="sans-serif" font-size="13" lengthAdjust="spacing" textLength="355" x="801.5" y="298.8623">p = createParameter(shortName, code, description, category)</text><polygon fill="#A80036" points="1497.5,330.0703,1507.5,334.0703,1497.5,338.0703,1501.5,334.0703" style="stroke:#A80036;stroke-width:1.0;"/><line style="stroke:#A80036;stroke-width:1.0;stroke-dasharray:2.0,2.0;" x1="1173.5" x2="1503.5" y1="334.0703" y2="334.0703"/><text fill="#000000" font-family="sans-serif" font-size="13" font-weight="bold" lengthAdjust="spacing" textLength="7" x="1180.5" y="329.2139">7</text><text fill="#000000" font-family="sans-serif" font-size="13" lengthAdjust="spacing" textLength="296" x="1191.5" y="329.2139">Parameter(shortName, code, description, category)</text><rect fill="#FEFECE" filter="url(#fvew0rx321wzk)" height="31.6094" style="stroke:#A80036;stroke-width:1.5;" width="84" x="1509.5" y="311.7188"/><text fill="#000000" font-family="sans-serif" font-size="14" lengthAdjust="spacing" textLength="70" x="1516.5" y="333.252">:Parameter</text><polygon fill="#A80036" points="1156.5,376.6797,1166.5,380.6797,1156.5,384.6797,1160.5,380.6797" style="stroke:#A80036;stroke-width:1.0;"/><line style="stroke:#A80036;stroke-width:1.0;" x1="783.5" x2="1162.5" y1="380.6797" y2="380.6797"/><text fill="#000000" font-family="sans-serif" font-size="13" font-weight="bold" lengthAdjust="spacing" textLength="7" x="790.5" y="375.8232">8</text><text fill="#000000" font-family="sans-serif" font-size="13" lengthAdjust="spacing" textLength="118" x="801.5" y="375.8232">validateParameter(p)</text><polygon fill="#A80036" points="60.5,437.0313,50.5,441.0313,60.5,445.0313,56.5,441.0313" style="stroke:#A80036;stroke-width:1.0;"/><line style="stroke:#A80036;stroke-width:1.0;stroke-dasharray:2.0,2.0;" x1="54.5" x2="378.5" y1="441.0313" y2="441.0313"/><text fill="#000000" font-family="sans-serif" font-size="13" font-weight="bold" lengthAdjust="spacing" textLength="7" x="66.5" y="436.1748">9</text><text fill="#000000" font-family="sans-serif" font-size="13" lengthAdjust="spacing" textLength="228" x="77.5" y="436.1748">presents data and asks for confirmation</text><polygon fill="#A80036" points="362.5,467.3828,372.5,471.3828,362.5,475.3828,366.5,471.3828" style="stroke:#A80036;stroke-width:1.0;"/><line style="stroke:#A80036;stroke-width:1.0;" x1="49.5" x2="368.5" y1="471.3828" y2="471.3828"/><text fill="#000000" font-family="sans-serif" font-size="13" font-weight="bold" lengthAdjust="spacing" textLength="14" x="56.5" y="466.5264">10</text><text fill="#000000" font-family="sans-serif" font-size="13" lengthAdjust="spacing" textLength="78" x="74.5" y="466.5264">confirms data</text><polygon fill="#A80036" points="761.5,497.7344,771.5,501.7344,761.5,505.7344,765.5,501.7344" style="stroke:#A80036;stroke-width:1.0;"/><line style="stroke:#A80036;stroke-width:1.0;" x1="384.5" x2="767.5" y1="501.7344" y2="501.7344"/><text fill="#000000" font-family="sans-serif" font-size="13" font-weight="bold" lengthAdjust="spacing" textLength="14" x="391.5" y="496.8779">11</text><text fill="#000000" font-family="sans-serif" font-size="13" lengthAdjust="spacing" textLength="94" x="409.5" y="496.8779">saveParameter()</text><polygon fill="#A80036" points="1156.5,528.0859,1166.5,532.0859,1156.5,536.0859,1160.5,532.0859" style="stroke:#A80036;stroke-width:1.0;"/><line style="stroke:#A80036;stroke-width:1.0;" x1="783.5" x2="1162.5" y1="532.0859" y2="532.0859"/><text fill="#000000" font-family="sans-serif" font-size="13" font-weight="bold" lengthAdjust="spacing" textLength="14" x="790.5" y="527.2295">12</text><text fill="#000000" font-family="sans-serif" font-size="13" lengthAdjust="spacing" textLength="101" x="808.5" y="527.2295">saveParameter(p)</text><line style="stroke:#A80036;stroke-width:1.0;" x1="1183.5" x2="1225.5" y1="562.4375" y2="562.4375"/><line style="stroke:#A80036;stroke-width:1.0;" x1="1225.5" x2="1225.5" y1="562.4375" y2="575.4375"/><line style="stroke:#A80036;stroke-width:1.0;" x1="1184.5" x2="1225.5" y1="575.4375" y2="575.4375"/><polygon fill="#A80036" points="1194.5,571.4375,1184.5,575.4375,1194.5,579.4375,1190.5,575.4375" style="stroke:#A80036;stroke-width:1.0;"/><text fill="#000000" font-family="sans-serif" font-size="13" font-weight="bold" lengthAdjust="spacing" textLength="14" x="1190.5" y="557.5811">13</text><text fill="#000000" font-family="sans-serif" font-size="13" lengthAdjust="spacing" textLength="118" x="1208.5" y="557.5811">validateParameter(p)</text><line style="stroke:#A80036;stroke-width:1.0;" x1="1183.5" x2="1225.5" y1="635.7891" y2="635.7891"/><line style="stroke:#A80036;stroke-width:1.0;" x1="1225.5" x2="1225.5" y1="635.7891" y2="648.7891"/><line style="stroke:#A80036;stroke-width:1.0;" x1="1184.5" x2="1225.5" y1="648.7891" y2="648.7891"/><polygon fill="#A80036" points="1194.5,644.7891,1184.5,648.7891,1194.5,652.7891,1190.5,648.7891" style="stroke:#A80036;stroke-width:1.0;"/><text fill="#000000" font-family="sans-serif" font-size="13" font-weight="bold" lengthAdjust="spacing" textLength="14" x="1190.5" y="630.9326">14</text><text fill="#000000" font-family="sans-serif" font-size="13" lengthAdjust="spacing" textLength="96" x="1208.5" y="630.9326">addParameter(p)</text><polygon fill="#A80036" points="60.5,705.1406,50.5,709.1406,60.5,713.1406,56.5,709.1406" style="stroke:#A80036;stroke-width:1.0;"/><line style="stroke:#A80036;stroke-width:1.0;stroke-dasharray:2.0,2.0;" x1="54.5" x2="378.5" y1="709.1406" y2="709.1406"/><text fill="#000000" font-family="sans-serif" font-size="13" font-weight="bold" lengthAdjust="spacing" textLength="14" x="66.5" y="704.2842">15</text><text fill="#000000" font-family="sans-serif" font-size="13" lengthAdjust="spacing" textLength="152" x="84.5" y="704.2842">informs operation success</text><!--MD5=[78016fa2ad0bc2fa56d500d2c860b743]
@startuml
autonumber

actor "Administrator" as ADMIN

participant ":CreateNewParameterUI" as UI
participant ":CreateNewParameterController" as CTRL
participant ":Company" as COMP
participant ":ParameterStore" as PS
participant ":Parameter" as P



ADMIN -> UI : Start a new parameter
activate UI
UI - -> ADMIN : ask data (shortName, code, description, category)
deactivate UI
ADMIN -> UI : insert requested data
activate UI
    UI -> CTRL : CreateNewParameter(shortName, code, description, category)
    activate CTRL
        CTRL -> COMP : store = getParameterStore()
        activate COMP
        deactivate COMP
        CTRL -> PS : p = createParameter(shortName, code, description, category)
        activate PS
            PS - -> P** : Parameter(shortName, code, description, category)
        deactivate PS
        CTRL -> PS : validateParameter(p)
        activate PS
        deactivate PS
    deactivate CTRL
    UI - -> ADMIN : presents data and asks for confirmation
deactivate UI
ADMIN -> UI : confirms data
activate UI
    UI -> CTRL : saveParameter()
    activate CTRL
        CTRL -> PS : saveParameter(p)
        activate PS
            PS -> PS : validateParameter(p)
            activate PS
            deactivate PS
            PS -> PS : addParameter(p)
            activate PS
            deactivate PS
        deactivate PS
    deactivate CTRL
    UI - -> ADMIN : informs operation success
deactivate UI

@enduml

PlantUML version 1.2021.00(Sun Jan 10 10:25:05 GMT 2021)
(GPL source distribution)
Java Runtime: OpenJDK Runtime Environment
JVM: OpenJDK 64-Bit Server VM
Default Encoding: Cp1252
Language: en
Country: US
--></g></svg>