<?xml version="1.0" encoding="UTF-8" standalone="no"?><svg xmlns="http://www.w3.org/2000/svg" xmlns:xlink="http://www.w3.org/1999/xlink" contentScriptType="application/ecmascript" contentStyleType="text/css" height="637px" preserveAspectRatio="none" style="width:138px;height:637px;" version="1.1" viewBox="0 0 138 637" width="138px" zoomAndPan="magnify"><defs><filter height="300%" id="f5pl0oelzcoqa" width="300%" x="-1" y="-1"><feGaussianBlur result="blurOut" stdDeviation="2.0"/><feColorMatrix in="blurOut" result="blurOut2" type="matrix" values="0 0 0 0 0 0 0 0 0 0 0 0 0 0 0 0 0 0 .4 0"/><feOffset dx="4.0" dy="4.0" in="blurOut2" result="blurOut3"/><feBlend in="SourceGraphic" in2="blurOut3" mode="normal"/></filter></defs><g><!--MD5=[02e4b9b7573f1156f41e60aa5b4e25a4]
class Company--><rect codeLine="27" fill="#FEFECE" filter="url(#f5pl0oelzcoqa)" height="61.8359" id="Company" style="stroke:#A80036;stroke-width:1.5;" width="85" x="23" y="7"/><ellipse cx="38" cy="23" fill="#ADD1B2" rx="11" ry="11" style="stroke:#A80036;stroke-width:1.0;"/><path d="M40,19.5 Q40.2031,19 40.4375,18.75 Q40.6719,18.5 40.9375,18.5 Q41.4063,18.5 41.7031,18.7813 Q42,19.0625 42,19.7188 L42,21.2813 Q42,21.9375 41.7188,22.2188 Q41.4375,22.5 41,22.5 Q40.6094,22.5 40.3594,22.3281 Q40.1094,22.1563 40,21.7031 Q39.9531,21.3906 39.7813,21.2188 Q39.4688,20.8906 38.9063,20.7031 Q38.3438,20.5 37.7813,20.5 Q37.0781,20.5 36.4844,20.7813 Q35.9063,21.0625 35.4531,21.6875 Q35,22.3125 35,23.1719 L35,24.0938 Q35,25.125 35.8438,25.8125 Q36.6875,26.5 38.1875,26.5 Q39.0781,26.5 39.7031,26.2969 Q40.0625,26.1875 40.4688,25.8281 Q40.7344,25.625 40.875,25.5625 Q41.0156,25.5 41.1875,25.5 Q41.5156,25.5 41.75,25.7656 Q42,26.0156 42,26.375 Q42,26.7188 41.6563,27.125 Q41.1563,27.7188 40.3594,28.0469 Q39.3125,28.5 38.0313,28.5 Q36.5313,28.5 35.3281,27.9063 Q34.3594,27.4375 33.6719,26.4219 Q33,25.4063 33,24.2031 L33,23.1094 Q33,21.8594 33.5938,20.7656 Q34.2031,19.6719 35.25,19.0938 Q36.3125,18.5 37.5,18.5 Q38.2188,18.5 38.8438,18.75 Q39.4688,19 40,19.5 Z " fill="#000000"/><text fill="#000000" font-family="sans-serif" font-size="12" lengthAdjust="spacing" textLength="53" x="52" y="27.9102">Company</text><line style="stroke:#A80036;stroke-width:1.5;" x1="24" x2="107" y1="39" y2="39"/><rect fill="none" height="6" style="stroke:#C82930;stroke-width:1.0;" width="6" x="31" y="47"/><text fill="#000000" font-family="sans-serif" font-size="11" lengthAdjust="spacing" textLength="55" x="43" y="54.4189">designation</text><line style="stroke:#A80036;stroke-width:1.5;" x1="24" x2="107" y1="60.8359" y2="60.8359"/><!--MD5=[7421f545a0d8420c5bec41e74b387d9c]
class Employee--><rect codeLine="18" fill="#FEFECE" filter="url(#f5pl0oelzcoqa)" height="131.0156" id="Employee" style="stroke:#A80036;stroke-width:1.5;" width="93" x="19" y="147"/><ellipse cx="36.7" cy="163" fill="#ADD1B2" rx="11" ry="11" style="stroke:#A80036;stroke-width:1.0;"/><path d="M38.7,159.5 Q38.9031,159 39.1375,158.75 Q39.3719,158.5 39.6375,158.5 Q40.1063,158.5 40.4031,158.7813 Q40.7,159.0625 40.7,159.7188 L40.7,161.2813 Q40.7,161.9375 40.4188,162.2188 Q40.1375,162.5 39.7,162.5 Q39.3094,162.5 39.0594,162.3281 Q38.8094,162.1563 38.7,161.7031 Q38.6531,161.3906 38.4813,161.2188 Q38.1688,160.8906 37.6063,160.7031 Q37.0438,160.5 36.4813,160.5 Q35.7781,160.5 35.1844,160.7813 Q34.6063,161.0625 34.1531,161.6875 Q33.7,162.3125 33.7,163.1719 L33.7,164.0938 Q33.7,165.125 34.5438,165.8125 Q35.3875,166.5 36.8875,166.5 Q37.7781,166.5 38.4031,166.2969 Q38.7625,166.1875 39.1688,165.8281 Q39.4344,165.625 39.575,165.5625 Q39.7156,165.5 39.8875,165.5 Q40.2156,165.5 40.45,165.7656 Q40.7,166.0156 40.7,166.375 Q40.7,166.7188 40.3563,167.125 Q39.8563,167.7188 39.0594,168.0469 Q38.0125,168.5 36.7313,168.5 Q35.2313,168.5 34.0281,167.9063 Q33.0594,167.4375 32.3719,166.4219 Q31.7,165.4063 31.7,164.2031 L31.7,163.1094 Q31.7,161.8594 32.2938,160.7656 Q32.9031,159.6719 33.95,159.0938 Q35.0125,158.5 36.2,158.5 Q36.9188,158.5 37.5438,158.75 Q38.1688,159 38.7,159.5 Z " fill="#000000"/><text fill="#000000" font-family="sans-serif" font-size="12" lengthAdjust="spacing" textLength="55" x="51.3" y="167.9102">Employee</text><line style="stroke:#A80036;stroke-width:1.5;" x1="20" x2="111" y1="179" y2="179"/><rect fill="none" height="6" style="stroke:#C82930;stroke-width:1.0;" width="6" x="27" y="187"/><text fill="#000000" font-family="sans-serif" font-size="11" lengthAdjust="spacing" textLength="55" x="39" y="194.4189">employeeID</text><rect fill="none" height="6" style="stroke:#C82930;stroke-width:1.0;" width="6" x="27" y="200.8359"/><text fill="#000000" font-family="sans-serif" font-size="11" lengthAdjust="spacing" textLength="26" x="39" y="208.2549">name</text><rect fill="none" height="6" style="stroke:#C82930;stroke-width:1.0;" width="6" x="27" y="214.6719"/><text fill="#000000" font-family="sans-serif" font-size="11" lengthAdjust="spacing" textLength="40" x="39" y="222.0908">address</text><rect fill="none" height="6" style="stroke:#C82930;stroke-width:1.0;" width="6" x="27" y="228.5078"/><text fill="#000000" font-family="sans-serif" font-size="11" lengthAdjust="spacing" textLength="43" x="39" y="235.9268">socCode</text><rect fill="none" height="6" style="stroke:#C82930;stroke-width:1.0;" width="6" x="27" y="242.3438"/><text fill="#000000" font-family="sans-serif" font-size="11" lengthAdjust="spacing" textLength="67" x="39" y="249.7627">phoneNumber</text><rect fill="none" height="6" style="stroke:#C82930;stroke-width:1.0;" width="6" x="27" y="256.1797"/><text fill="#000000" font-family="sans-serif" font-size="11" lengthAdjust="spacing" textLength="24" x="39" y="263.5986">email</text><line style="stroke:#A80036;stroke-width:1.5;" x1="20" x2="111" y1="270.0156" y2="270.0156"/><!--MD5=[03960189e81aa2c066c762ffabbee709]
class Receptionist--><rect fill="#FEFECE" filter="url(#f5pl0oelzcoqa)" height="48" id="Receptionist" style="stroke:#A80036;stroke-width:1.5;" width="101" x="15" y="339"/><ellipse cx="30" cy="355" fill="#ADD1B2" rx="11" ry="11" style="stroke:#A80036;stroke-width:1.0;"/><path d="M32,351.5 Q32.2031,351 32.4375,350.75 Q32.6719,350.5 32.9375,350.5 Q33.4063,350.5 33.7031,350.7813 Q34,351.0625 34,351.7188 L34,353.2813 Q34,353.9375 33.7188,354.2188 Q33.4375,354.5 33,354.5 Q32.6094,354.5 32.3594,354.3281 Q32.1094,354.1563 32,353.7031 Q31.9531,353.3906 31.7813,353.2188 Q31.4688,352.8906 30.9063,352.7031 Q30.3438,352.5 29.7813,352.5 Q29.0781,352.5 28.4844,352.7813 Q27.9063,353.0625 27.4531,353.6875 Q27,354.3125 27,355.1719 L27,356.0938 Q27,357.125 27.8438,357.8125 Q28.6875,358.5 30.1875,358.5 Q31.0781,358.5 31.7031,358.2969 Q32.0625,358.1875 32.4688,357.8281 Q32.7344,357.625 32.875,357.5625 Q33.0156,357.5 33.1875,357.5 Q33.5156,357.5 33.75,357.7656 Q34,358.0156 34,358.375 Q34,358.7188 33.6563,359.125 Q33.1563,359.7188 32.3594,360.0469 Q31.3125,360.5 30.0313,360.5 Q28.5313,360.5 27.3281,359.9063 Q26.3594,359.4375 25.6719,358.4219 Q25,357.4063 25,356.2031 L25,355.1094 Q25,353.8594 25.5938,352.7656 Q26.2031,351.6719 27.25,351.0938 Q28.3125,350.5 29.5,350.5 Q30.2188,350.5 30.8438,350.75 Q31.4688,351 32,351.5 Z " fill="#000000"/><text fill="#000000" font-family="sans-serif" font-size="12" lengthAdjust="spacing" textLength="69" x="44" y="359.9102">Receptionist</text><line style="stroke:#A80036;stroke-width:1.5;" x1="16" x2="115" y1="371" y2="371"/><line style="stroke:#A80036;stroke-width:1.5;" x1="16" x2="115" y1="379" y2="379"/><!--MD5=[ed6624c6556d5e7b1bd23032162d20b7]
class Client--><rect codeLine="7" fill="#FEFECE" filter="url(#f5pl0oelzcoqa)" height="158.6875" id="Client" style="stroke:#A80036;stroke-width:1.5;" width="117" x="7" y="465"/><ellipse cx="45.85" cy="481" fill="#ADD1B2" rx="11" ry="11" style="stroke:#A80036;stroke-width:1.0;"/><path d="M47.85,477.5 Q48.0531,477 48.2875,476.75 Q48.5219,476.5 48.7875,476.5 Q49.2563,476.5 49.5531,476.7813 Q49.85,477.0625 49.85,477.7188 L49.85,479.2813 Q49.85,479.9375 49.5688,480.2188 Q49.2875,480.5 48.85,480.5 Q48.4594,480.5 48.2094,480.3281 Q47.9594,480.1563 47.85,479.7031 Q47.8031,479.3906 47.6313,479.2188 Q47.3188,478.8906 46.7563,478.7031 Q46.1938,478.5 45.6313,478.5 Q44.9281,478.5 44.3344,478.7813 Q43.7563,479.0625 43.3031,479.6875 Q42.85,480.3125 42.85,481.1719 L42.85,482.0938 Q42.85,483.125 43.6938,483.8125 Q44.5375,484.5 46.0375,484.5 Q46.9281,484.5 47.5531,484.2969 Q47.9125,484.1875 48.3188,483.8281 Q48.5844,483.625 48.725,483.5625 Q48.8656,483.5 49.0375,483.5 Q49.3656,483.5 49.6,483.7656 Q49.85,484.0156 49.85,484.375 Q49.85,484.7188 49.5063,485.125 Q49.0063,485.7188 48.2094,486.0469 Q47.1625,486.5 45.8813,486.5 Q44.3813,486.5 43.1781,485.9063 Q42.2094,485.4375 41.5219,484.4219 Q40.85,483.4063 40.85,482.2031 L40.85,481.1094 Q40.85,479.8594 41.4438,478.7656 Q42.0531,477.6719 43.1,477.0938 Q44.1625,476.5 45.35,476.5 Q46.0688,476.5 46.6938,476.75 Q47.3188,477 47.85,477.5 Z " fill="#000000"/><text fill="#000000" font-family="sans-serif" font-size="12" lengthAdjust="spacing" textLength="32" x="65.15" y="485.9102">Client</text><line style="stroke:#A80036;stroke-width:1.5;" x1="8" x2="123" y1="497" y2="497"/><rect fill="none" height="6" style="stroke:#C82930;stroke-width:1.0;" width="6" x="15" y="505"/><text fill="#000000" font-family="sans-serif" font-size="11" lengthAdjust="spacing" textLength="26" x="27" y="512.4189">name</text><rect fill="none" height="6" style="stroke:#C82930;stroke-width:1.0;" width="6" x="15" y="518.8359"/><text fill="#000000" font-family="sans-serif" font-size="11" lengthAdjust="spacing" textLength="91" x="27" y="526.2549">citizenCardNumber</text><rect fill="none" height="6" style="stroke:#C82930;stroke-width:1.0;" width="6" x="15" y="532.6719"/><text fill="#000000" font-family="sans-serif" font-size="11" lengthAdjust="spacing" textLength="55" x="27" y="540.0908">nhsNumber</text><rect fill="none" height="6" style="stroke:#C82930;stroke-width:1.0;" width="6" x="15" y="546.5078"/><text fill="#000000" font-family="sans-serif" font-size="11" lengthAdjust="spacing" textLength="48" x="27" y="553.9268">tinNumber</text><rect fill="none" height="6" style="stroke:#C82930;stroke-width:1.0;" width="6" x="15" y="560.3438"/><text fill="#000000" font-family="sans-serif" font-size="11" lengthAdjust="spacing" textLength="43" x="27" y="567.7627">birthDate</text><rect fill="none" height="6" style="stroke:#C82930;stroke-width:1.0;" width="6" x="15" y="574.1797"/><text fill="#000000" font-family="sans-serif" font-size="11" lengthAdjust="spacing" textLength="18" x="27" y="581.5986">sex</text><rect fill="none" height="6" style="stroke:#C82930;stroke-width:1.0;" width="6" x="15" y="588.0156"/><text fill="#000000" font-family="sans-serif" font-size="11" lengthAdjust="spacing" textLength="67" x="27" y="595.4346">phoneNumber</text><rect fill="none" height="6" style="stroke:#C82930;stroke-width:1.0;" width="6" x="15" y="601.8516"/><text fill="#000000" font-family="sans-serif" font-size="11" lengthAdjust="spacing" textLength="24" x="27" y="609.2705">email</text><line style="stroke:#A80036;stroke-width:1.5;" x1="8" x2="123" y1="615.6875" y2="615.6875"/><!--MD5=[09366576ee87d48d594df10cacc83f45]
link Company to Employee--><path codeLine="3" d="M65.5,69.05 C65.5,90.48 65.5,120.1 65.5,146.79 " fill="none" id="Company-Employee" style="stroke:#A80036;stroke-width:1.0;"/><polygon fill="#000000" points="70.5,113.1758,73.4389,104.1307,67.5611,104.1307,70.5,113.1758" style="stroke:#000000;stroke-width:1.0;"/><text fill="#000000" font-family="sans-serif" font-size="13" lengthAdjust="spacing" textLength="21" x="79.5" y="113.4951">has</text><!--MD5=[bfff716514ca687b645fe473c6e098a4]
reverse link Employee to Receptionist--><path codeLine="4" d="M65.5,298.27 C65.5,313.16 65.5,327.47 65.5,338.75 " fill="none" id="Employee-backto-Receptionist" style="stroke:#A80036;stroke-width:1.0;"/><polygon fill="none" points="58.5,298.2,65.5,278.2,72.5,298.2,58.5,298.2" style="stroke:#A80036;stroke-width:1.0;"/><!--MD5=[6a35157f4c730bda767e7c9f1b8b7f73]
link Receptionist to Client--><path codeLine="5" d="M65.5,387.1 C65.5,406.89 65.5,436.58 65.5,464.8 " fill="none" id="Receptionist-Client" style="stroke:#A80036;stroke-width:1.0;"/><polygon fill="#000000" points="70.5,431.1758,73.4389,422.1307,67.5611,422.1307,70.5,431.1758" style="stroke:#000000;stroke-width:1.0;"/><text fill="#000000" font-family="sans-serif" font-size="13" lengthAdjust="spacing" textLength="48" x="79.5" y="431.4951">add new</text><!--MD5=[f32ecf1f079cee1ff9da777aeafe2faa]
@startuml
'https://plantuml.com/sequence-diagram

Company - - Employee :> has
Employee <|- - Receptionist
Receptionist - - Client :> add new

class Client{
-name
-citizenCardNumber
-nhsNumber
-tinNumber
-birthDate
-sex
-phoneNumber
-email
}

class Employee{
-employeeID
-name
-address
-socCode
-phoneNumber
-email
}

class Company{
-designation
}
@enduml

@startuml

Company - - Employee :> has
Employee <|- - Receptionist
Receptionist - - Client :> add new

class Client{
-name
-citizenCardNumber
-nhsNumber
-tinNumber
-birthDate
-sex
-phoneNumber
-email
}

class Employee{
-employeeID
-name
-address
-socCode
-phoneNumber
-email
}

class Company{
-designation
}
@enduml

PlantUML version 1.2021.5(Sun Apr 25 12:20:28 BST 2021)
(GPL source distribution)
Java Runtime: OpenJDK Runtime Environment
JVM: Dynamic Code Evolution 64-Bit Server VM
Default Encoding: Cp1252
Language: pt
Country: PT
--></g></svg>