<?xml version="1.0" encoding="UTF-8" standalone="no"?><svg xmlns="http://www.w3.org/2000/svg" xmlns:xlink="http://www.w3.org/1999/xlink" contentScriptType="application/ecmascript" contentStyleType="text/css" height="445px" preserveAspectRatio="none" style="width:213px;height:445px;" version="1.1" viewBox="0 0 213 445" width="213px" zoomAndPan="magnify"><defs><filter height="300%" id="fkxjje6rerpby" width="300%" x="-1" y="-1"><feGaussianBlur result="blurOut" stdDeviation="2.0"/><feColorMatrix in="blurOut" result="blurOut2" type="matrix" values="0 0 0 0 0 0 0 0 0 0 0 0 0 0 0 0 0 0 .4 0"/><feOffset dx="4.0" dy="4.0" in="blurOut2" result="blurOut3"/><feBlend in="SourceGraphic" in2="blurOut3" mode="normal"/></filter></defs><g><!--MD5=[02e4b9b7573f1156f41e60aa5b4e25a4]
class Company--><rect codeLine="18" fill="#FEFECE" filter="url(#fkxjje6rerpby)" height="61.8359" id="Company" style="stroke:#A80036;stroke-width:1.5;" width="85" x="75" y="7"/><ellipse cx="90" cy="23" fill="#ADD1B2" rx="11" ry="11" style="stroke:#A80036;stroke-width:1.0;"/><path d="M92,19.5 Q92.2031,19 92.4375,18.75 Q92.6719,18.5 92.9375,18.5 Q93.4063,18.5 93.7031,18.7813 Q94,19.0625 94,19.7188 L94,21.2813 Q94,21.9375 93.7188,22.2188 Q93.4375,22.5 93,22.5 Q92.6094,22.5 92.3594,22.3281 Q92.1094,22.1563 92,21.7031 Q91.9531,21.3906 91.7813,21.2188 Q91.4688,20.8906 90.9063,20.7031 Q90.3438,20.5 89.7813,20.5 Q89.0781,20.5 88.4844,20.7813 Q87.9063,21.0625 87.4531,21.6875 Q87,22.3125 87,23.1719 L87,24.0938 Q87,25.125 87.8438,25.8125 Q88.6875,26.5 90.1875,26.5 Q91.0781,26.5 91.7031,26.2969 Q92.0625,26.1875 92.4688,25.8281 Q92.7344,25.625 92.875,25.5625 Q93.0156,25.5 93.1875,25.5 Q93.5156,25.5 93.75,25.7656 Q94,26.0156 94,26.375 Q94,26.7188 93.6563,27.125 Q93.1563,27.7188 92.3594,28.0469 Q91.3125,28.5 90.0313,28.5 Q88.5313,28.5 87.3281,27.9063 Q86.3594,27.4375 85.6719,26.4219 Q85,25.4063 85,24.2031 L85,23.1094 Q85,21.8594 85.5938,20.7656 Q86.2031,19.6719 87.25,19.0938 Q88.3125,18.5 89.5,18.5 Q90.2188,18.5 90.8438,18.75 Q91.4688,19 92,19.5 Z " fill="#000000"/><text fill="#000000" font-family="sans-serif" font-size="12" lengthAdjust="spacing" textLength="53" x="104" y="27.9102">Company</text><line style="stroke:#A80036;stroke-width:1.5;" x1="76" x2="159" y1="39" y2="39"/><rect fill="none" height="6" style="stroke:#C82930;stroke-width:1.0;" width="6" x="83" y="47"/><text fill="#000000" font-family="sans-serif" font-size="11" lengthAdjust="spacing" textLength="55" x="95" y="54.4189">designation</text><line style="stroke:#A80036;stroke-width:1.5;" x1="76" x2="159" y1="60.8359" y2="60.8359"/><!--MD5=[03960189e81aa2c066c762ffabbee709]
class Receptionist--><rect fill="#FEFECE" filter="url(#fkxjje6rerpby)" height="48" id="Receptionist" style="stroke:#A80036;stroke-width:1.5;" width="101" x="7" y="147"/><ellipse cx="22" cy="163" fill="#ADD1B2" rx="11" ry="11" style="stroke:#A80036;stroke-width:1.0;"/><path d="M24,159.5 Q24.2031,159 24.4375,158.75 Q24.6719,158.5 24.9375,158.5 Q25.4063,158.5 25.7031,158.7813 Q26,159.0625 26,159.7188 L26,161.2813 Q26,161.9375 25.7188,162.2188 Q25.4375,162.5 25,162.5 Q24.6094,162.5 24.3594,162.3281 Q24.1094,162.1563 24,161.7031 Q23.9531,161.3906 23.7813,161.2188 Q23.4688,160.8906 22.9063,160.7031 Q22.3438,160.5 21.7813,160.5 Q21.0781,160.5 20.4844,160.7813 Q19.9063,161.0625 19.4531,161.6875 Q19,162.3125 19,163.1719 L19,164.0938 Q19,165.125 19.8438,165.8125 Q20.6875,166.5 22.1875,166.5 Q23.0781,166.5 23.7031,166.2969 Q24.0625,166.1875 24.4688,165.8281 Q24.7344,165.625 24.875,165.5625 Q25.0156,165.5 25.1875,165.5 Q25.5156,165.5 25.75,165.7656 Q26,166.0156 26,166.375 Q26,166.7188 25.6563,167.125 Q25.1563,167.7188 24.3594,168.0469 Q23.3125,168.5 22.0313,168.5 Q20.5313,168.5 19.3281,167.9063 Q18.3594,167.4375 17.6719,166.4219 Q17,165.4063 17,164.2031 L17,163.1094 Q17,161.8594 17.5938,160.7656 Q18.2031,159.6719 19.25,159.0938 Q20.3125,158.5 21.5,158.5 Q22.2188,158.5 22.8438,158.75 Q23.4688,159 24,159.5 Z " fill="#000000"/><text fill="#000000" font-family="sans-serif" font-size="12" lengthAdjust="spacing" textLength="69" x="36" y="167.9102">Receptionist</text><line style="stroke:#A80036;stroke-width:1.5;" x1="8" x2="107" y1="179" y2="179"/><line style="stroke:#A80036;stroke-width:1.5;" x1="8" x2="107" y1="187" y2="187"/><!--MD5=[ed6624c6556d5e7b1bd23032162d20b7]
class Client--><rect codeLine="7" fill="#FEFECE" filter="url(#fkxjje6rerpby)" height="158.6875" id="Client" style="stroke:#A80036;stroke-width:1.5;" width="117" x="60" y="273"/><ellipse cx="98.85" cy="289" fill="#ADD1B2" rx="11" ry="11" style="stroke:#A80036;stroke-width:1.0;"/><path d="M100.85,285.5 Q101.0531,285 101.2875,284.75 Q101.5219,284.5 101.7875,284.5 Q102.2563,284.5 102.5531,284.7813 Q102.85,285.0625 102.85,285.7188 L102.85,287.2813 Q102.85,287.9375 102.5688,288.2188 Q102.2875,288.5 101.85,288.5 Q101.4594,288.5 101.2094,288.3281 Q100.9594,288.1563 100.85,287.7031 Q100.8031,287.3906 100.6313,287.2188 Q100.3188,286.8906 99.7563,286.7031 Q99.1938,286.5 98.6313,286.5 Q97.9281,286.5 97.3344,286.7813 Q96.7563,287.0625 96.3031,287.6875 Q95.85,288.3125 95.85,289.1719 L95.85,290.0938 Q95.85,291.125 96.6938,291.8125 Q97.5375,292.5 99.0375,292.5 Q99.9281,292.5 100.5531,292.2969 Q100.9125,292.1875 101.3188,291.8281 Q101.5844,291.625 101.725,291.5625 Q101.8656,291.5 102.0375,291.5 Q102.3656,291.5 102.6,291.7656 Q102.85,292.0156 102.85,292.375 Q102.85,292.7188 102.5063,293.125 Q102.0063,293.7188 101.2094,294.0469 Q100.1625,294.5 98.8813,294.5 Q97.3813,294.5 96.1781,293.9063 Q95.2094,293.4375 94.5219,292.4219 Q93.85,291.4063 93.85,290.2031 L93.85,289.1094 Q93.85,287.8594 94.4438,286.7656 Q95.0531,285.6719 96.1,285.0938 Q97.1625,284.5 98.35,284.5 Q99.0688,284.5 99.6938,284.75 Q100.3188,285 100.85,285.5 Z " fill="#000000"/><text fill="#000000" font-family="sans-serif" font-size="12" lengthAdjust="spacing" textLength="32" x="118.15" y="293.9102">Client</text><line style="stroke:#A80036;stroke-width:1.5;" x1="61" x2="176" y1="305" y2="305"/><rect fill="none" height="6" style="stroke:#C82930;stroke-width:1.0;" width="6" x="68" y="313"/><text fill="#000000" font-family="sans-serif" font-size="11" lengthAdjust="spacing" textLength="26" x="80" y="320.4189">name</text><rect fill="none" height="6" style="stroke:#C82930;stroke-width:1.0;" width="6" x="68" y="326.8359"/><text fill="#000000" font-family="sans-serif" font-size="11" lengthAdjust="spacing" textLength="91" x="80" y="334.2549">citizenCardNumber</text><rect fill="none" height="6" style="stroke:#C82930;stroke-width:1.0;" width="6" x="68" y="340.6719"/><text fill="#000000" font-family="sans-serif" font-size="11" lengthAdjust="spacing" textLength="55" x="80" y="348.0908">nhsNumber</text><rect fill="none" height="6" style="stroke:#C82930;stroke-width:1.0;" width="6" x="68" y="354.5078"/><text fill="#000000" font-family="sans-serif" font-size="11" lengthAdjust="spacing" textLength="48" x="80" y="361.9268">tinNumber</text><rect fill="none" height="6" style="stroke:#C82930;stroke-width:1.0;" width="6" x="68" y="368.3438"/><text fill="#000000" font-family="sans-serif" font-size="11" lengthAdjust="spacing" textLength="43" x="80" y="375.7627">birthDate</text><rect fill="none" height="6" style="stroke:#C82930;stroke-width:1.0;" width="6" x="68" y="382.1797"/><text fill="#000000" font-family="sans-serif" font-size="11" lengthAdjust="spacing" textLength="18" x="80" y="389.5986">sex</text><rect fill="none" height="6" style="stroke:#C82930;stroke-width:1.0;" width="6" x="68" y="396.0156"/><text fill="#000000" font-family="sans-serif" font-size="11" lengthAdjust="spacing" textLength="67" x="80" y="403.4346">phoneNumber</text><rect fill="none" height="6" style="stroke:#C82930;stroke-width:1.0;" width="6" x="68" y="409.8516"/><text fill="#000000" font-family="sans-serif" font-size="11" lengthAdjust="spacing" textLength="24" x="80" y="417.2705">email</text><line style="stroke:#A80036;stroke-width:1.5;" x1="61" x2="176" y1="423.6875" y2="423.6875"/><!--MD5=[5448e79142bdfcbfebd9929e0faf45a6]
link Company to Receptionist--><path codeLine="3" d="M103.73,69.05 C92.94,92.62 78.13,124.95 68.21,146.61 " fill="none" id="Company-Receptionist" style="stroke:#A80036;stroke-width:1.0;"/><polygon fill="#000000" points="92.4181,112.7217,98.8563,105.7217,93.5122,103.2743,92.4181,112.7217" style="stroke:#000000;stroke-width:1.0;"/><text fill="#000000" font-family="sans-serif" font-size="13" lengthAdjust="spacing" textLength="21" x="103.5" y="113.4951">has</text><!--MD5=[6eee883fdf517d3604e8bd0f2058e9aa]
link Company to Client--><path codeLine="4" d="M128.77,69.02 C142.28,108.75 161.98,181.02 152.5,243 C151.01,252.76 148.8,262.84 146.22,272.75 " fill="none" id="Company-Client" style="stroke:#A80036;stroke-width:1.0;"/><polygon fill="#000000" points="160.9267,176.1575,163.083,166.8946,157.2266,167.3963,160.9267,176.1575" style="stroke:#000000;stroke-width:1.0;"/><text fill="#000000" font-family="sans-serif" font-size="13" lengthAdjust="spacing" textLength="36" x="169.5" y="176.4951">stores</text><!--MD5=[6a35157f4c730bda767e7c9f1b8b7f73]
link Receptionist to Client--><path codeLine="5" d="M65.35,195.1 C72.08,214.89 82.17,244.58 91.75,272.8 " fill="none" id="Receptionist-Client" style="stroke:#A80036;stroke-width:1.0;"/><polygon fill="#000000" points="88.1085,238.91,87.9814,229.4003,82.416,231.2912,88.1085,238.91" style="stroke:#000000;stroke-width:1.0;"/><text fill="#000000" font-family="sans-serif" font-size="13" lengthAdjust="spacing" textLength="48" x="95.5" y="239.4951">add new</text><!--MD5=[e68364295422c84aa3ca3ac2e170c2cc]
@startuml
'https://plantuml.com/sequence-diagram

Company - - Receptionist :> has
Company - - Client :> stores
Receptionist - - Client :> add new

class Client{
-name
-citizenCardNumber
-nhsNumber
-tinNumber
-birthDate
-sex
-phoneNumber
-email
}

class Company{
-designation
}
@enduml

@startuml

Company - - Receptionist :> has
Company - - Client :> stores
Receptionist - - Client :> add new

class Client{
-name
-citizenCardNumber
-nhsNumber
-tinNumber
-birthDate
-sex
-phoneNumber
-email
}

class Company{
-designation
}
@enduml

PlantUML version 1.2021.5(Sun Apr 25 12:20:28 BST 2021)
(GPL source distribution)
Java Runtime: OpenJDK Runtime Environment
JVM: Dynamic Code Evolution 64-Bit Server VM
Default Encoding: Cp1252
Language: en
Country: US
--></g></svg>