<?xml version="1.0" encoding="UTF-8" standalone="no"?><svg xmlns="http://www.w3.org/2000/svg" xmlns:xlink="http://www.w3.org/1999/xlink" contentScriptType="application/ecmascript" contentStyleType="text/css" height="852.5px" preserveAspectRatio="none" style="width:578px;height:852px;" version="1.1" viewBox="0 0 578 852" width="578.75px" zoomAndPan="magnify"><defs><filter height="300%" id="fy1fsi02157o9" width="300%" x="-1" y="-1"><feGaussianBlur result="blurOut" stdDeviation="2.5"/><feColorMatrix in="blurOut" result="blurOut2" type="matrix" values="0 0 0 0 0 0 0 0 0 0 0 0 0 0 0 0 0 0 .4 0"/><feOffset dx="5.0" dy="5.0" in="blurOut2" result="blurOut3"/><feBlend in="SourceGraphic" in2="blurOut3" mode="normal"/></filter></defs><g><rect fill="#FFFFFF" filter="url(#fy1fsi02157o9)" height="37.9395" style="stroke:#A80036;stroke-width:1.25;" width="12.5" x="500" y="152.4512"/><rect fill="#FFFFFF" filter="url(#fy1fsi02157o9)" height="37.9395" style="stroke:#A80036;stroke-width:1.25;" width="12.5" x="500" y="228.3301"/><rect fill="#FFFFFF" filter="url(#fy1fsi02157o9)" height="37.9395" style="stroke:#A80036;stroke-width:1.25;" width="12.5" x="500" y="304.209"/><rect fill="#FFFFFF" filter="url(#fy1fsi02157o9)" height="107.5684" style="stroke:#A80036;stroke-width:1.25;" width="12.5" x="500" y="380.0879"/><rect fill="#FFFFFF" filter="url(#fy1fsi02157o9)" height="46.6895" style="stroke:#A80036;stroke-width:1.25;" width="12.5" x="500" y="525.5957"/><rect fill="#FFFFFF" filter="url(#fy1fsi02157o9)" height="125.0684" style="stroke:#A80036;stroke-width:1.25;" width="12.5" x="500" y="610.2246"/><rect fill="#FFFFFF" filter="url(#fy1fsi02157o9)" height="98.8184" style="stroke:#000000;stroke-width:2.5;" width="548.75" x="12.5" y="436.7773"/><line style="stroke:#A80036;stroke-width:1.25;stroke-dasharray:5.0,5.0;" x1="77.5" x2="77.5" y1="112.0117" y2="746.543"/><line style="stroke:#A80036;stroke-width:1.25;stroke-dasharray:5.0,5.0;" x1="506.25" x2="506.25" y1="112.0117" y2="746.543"/><text fill="#000000" font-family="sans-serif" font-size="17.5" lengthAdjust="spacing" textLength="97.5" x="25" y="108.1665">Receptionist</text><ellipse cx="77.5" cy="18.75" fill="#FEFECE" filter="url(#fy1fsi02157o9)" rx="10" ry="10" style="stroke:#A80036;stroke-width:2.5;"/><path d="M77.5,28.75 L77.5,62.5 M61.25,38.75 L93.75,38.75 M77.5,62.5 L61.25,81.25 M77.5,62.5 L93.75,81.25 " fill="none" filter="url(#fy1fsi02157o9)" style="stroke:#A80036;stroke-width:2.5;"/><text fill="#000000" font-family="sans-serif" font-size="17.5" lengthAdjust="spacing" textLength="97.5" x="25" y="763.4595">Receptionist</text><ellipse cx="77.5" cy="779.8047" fill="#FEFECE" filter="url(#fy1fsi02157o9)" rx="10" ry="10" style="stroke:#A80036;stroke-width:2.5;"/><path d="M77.5,789.8047 L77.5,823.5547 M61.25,799.8047 L93.75,799.8047 M77.5,823.5547 L61.25,842.3047 M77.5,823.5547 L93.75,842.3047 " fill="none" filter="url(#fy1fsi02157o9)" style="stroke:#A80036;stroke-width:2.5;"/><rect fill="#FEFECE" filter="url(#fy1fsi02157o9)" height="39.5117" style="stroke:#A80036;stroke-width:1.875;" width="80" x="463.75" y="66.25"/><text fill="#000000" font-family="sans-serif" font-size="17.5" lengthAdjust="spacing" textLength="62.5" x="472.5" y="93.1665">:System</text><rect fill="#FEFECE" filter="url(#fy1fsi02157o9)" height="39.5117" style="stroke:#A80036;stroke-width:1.875;" width="80" x="463.75" y="745.293"/><text fill="#000000" font-family="sans-serif" font-size="17.5" lengthAdjust="spacing" textLength="62.5" x="472.5" y="772.2095">:System</text><rect fill="#FFFFFF" filter="url(#fy1fsi02157o9)" height="37.9395" style="stroke:#A80036;stroke-width:1.25;" width="12.5" x="500" y="152.4512"/><rect fill="#FFFFFF" filter="url(#fy1fsi02157o9)" height="37.9395" style="stroke:#A80036;stroke-width:1.25;" width="12.5" x="500" y="228.3301"/><rect fill="#FFFFFF" filter="url(#fy1fsi02157o9)" height="37.9395" style="stroke:#A80036;stroke-width:1.25;" width="12.5" x="500" y="304.209"/><rect fill="#FFFFFF" filter="url(#fy1fsi02157o9)" height="107.5684" style="stroke:#A80036;stroke-width:1.25;" width="12.5" x="500" y="380.0879"/><rect fill="#FFFFFF" filter="url(#fy1fsi02157o9)" height="46.6895" style="stroke:#A80036;stroke-width:1.25;" width="12.5" x="500" y="525.5957"/><rect fill="#FFFFFF" filter="url(#fy1fsi02157o9)" height="125.0684" style="stroke:#A80036;stroke-width:1.25;" width="12.5" x="500" y="610.2246"/><polygon fill="#A80036" points="485,147.4512,497.5,152.4512,485,157.4512,490,152.4512" style="stroke:#A80036;stroke-width:1.25;"/><line style="stroke:#A80036;stroke-width:1.25;" x1="77.5" x2="492.5" y1="152.4512" y2="152.4512"/><text fill="#000000" font-family="sans-serif" font-size="16.25" font-weight="bold" lengthAdjust="spacing" textLength="8.75" x="86.25" y="146.3806">1</text><text fill="#000000" font-family="sans-serif" font-size="16.25" lengthAdjust="spacing" textLength="157.5" x="100" y="146.3806">Creation of a new test</text><polygon fill="#A80036" points="91.25,185.3906,78.75,190.3906,91.25,195.3906,86.25,190.3906" style="stroke:#A80036;stroke-width:1.25;"/><line style="stroke:#A80036;stroke-width:1.25;stroke-dasharray:2.0,2.0;" x1="83.75" x2="505" y1="190.3906" y2="190.3906"/><text fill="#000000" font-family="sans-serif" font-size="16.25" font-weight="bold" lengthAdjust="spacing" textLength="8.75" x="98.75" y="184.3201">2</text><text fill="#000000" font-family="sans-serif" font-size="16.25" lengthAdjust="spacing" textLength="321.25" x="112.5" y="184.3201">Asks for client TIN and Nhs Code of the Test</text><polygon fill="#A80036" points="485,223.3301,497.5,228.3301,485,233.3301,490,228.3301" style="stroke:#A80036;stroke-width:1.25;"/><line style="stroke:#A80036;stroke-width:1.25;" x1="77.5" x2="492.5" y1="228.3301" y2="228.3301"/><text fill="#000000" font-family="sans-serif" font-size="16.25" font-weight="bold" lengthAdjust="spacing" textLength="8.75" x="86.25" y="222.2595">3</text><text fill="#000000" font-family="sans-serif" font-size="16.25" lengthAdjust="spacing" textLength="211.25" x="100" y="222.2595">Introduces TIN and Nhs Code</text><polygon fill="#A80036" points="91.25,261.2695,78.75,266.2695,91.25,271.2695,86.25,266.2695" style="stroke:#A80036;stroke-width:1.25;"/><line style="stroke:#A80036;stroke-width:1.25;stroke-dasharray:2.0,2.0;" x1="83.75" x2="505" y1="266.2695" y2="266.2695"/><text fill="#000000" font-family="sans-serif" font-size="16.25" font-weight="bold" lengthAdjust="spacing" textLength="8.75" x="98.75" y="260.199">4</text><text fill="#000000" font-family="sans-serif" font-size="16.25" lengthAdjust="spacing" textLength="342.5" x="112.5" y="260.199">shows the client Data and asks for confirmation</text><polygon fill="#A80036" points="485,299.209,497.5,304.209,485,309.209,490,304.209" style="stroke:#A80036;stroke-width:1.25;"/><line style="stroke:#A80036;stroke-width:1.25;" x1="77.5" x2="492.5" y1="304.209" y2="304.209"/><text fill="#000000" font-family="sans-serif" font-size="16.25" font-weight="bold" lengthAdjust="spacing" textLength="8.75" x="86.25" y="298.1384">5</text><text fill="#000000" font-family="sans-serif" font-size="16.25" lengthAdjust="spacing" textLength="123.75" x="100" y="298.1384">confirm the client</text><polygon fill="#A80036" points="91.25,337.1484,78.75,342.1484,91.25,347.1484,86.25,342.1484" style="stroke:#A80036;stroke-width:1.25;"/><line style="stroke:#A80036;stroke-width:1.25;stroke-dasharray:2.0,2.0;" x1="83.75" x2="505" y1="342.1484" y2="342.1484"/><text fill="#000000" font-family="sans-serif" font-size="16.25" font-weight="bold" lengthAdjust="spacing" textLength="8.75" x="98.75" y="336.0779">6</text><text fill="#000000" font-family="sans-serif" font-size="16.25" lengthAdjust="spacing" textLength="161.25" x="112.5" y="336.0779">Shows type of test list</text><polygon fill="#A80036" points="485,375.0879,497.5,380.0879,485,385.0879,490,380.0879" style="stroke:#A80036;stroke-width:1.25;"/><line style="stroke:#A80036;stroke-width:1.25;" x1="77.5" x2="492.5" y1="380.0879" y2="380.0879"/><text fill="#000000" font-family="sans-serif" font-size="16.25" font-weight="bold" lengthAdjust="spacing" textLength="8.75" x="86.25" y="374.0173">7</text><text fill="#000000" font-family="sans-serif" font-size="16.25" lengthAdjust="spacing" textLength="155" x="100" y="374.0173">Selects a type of test</text><polygon fill="#A80036" points="91.25,413.0273,78.75,418.0273,91.25,423.0273,86.25,418.0273" style="stroke:#A80036;stroke-width:1.25;"/><line style="stroke:#A80036;stroke-width:1.25;stroke-dasharray:2.0,2.0;" x1="83.75" x2="498.75" y1="418.0273" y2="418.0273"/><text fill="#000000" font-family="sans-serif" font-size="16.25" font-weight="bold" lengthAdjust="spacing" textLength="8.75" x="98.75" y="411.9568">8</text><text fill="#000000" font-family="sans-serif" font-size="16.25" lengthAdjust="spacing" textLength="152.5" x="112.5" y="411.9568">Shows parameter list</text><path d="M12.5,436.7773 L103.75,436.7773 L103.75,446.7773 L91.25,459.2773 L12.5,459.2773 L12.5,436.7773 " fill="#EEEEEE" style="stroke:#000000;stroke-width:1.25;"/><rect fill="none" height="98.8184" style="stroke:#000000;stroke-width:2.5;" width="548.75" x="12.5" y="436.7773"/><text fill="#000000" font-family="sans-serif" font-size="16.25" font-weight="bold" lengthAdjust="spacing" textLength="35" x="31.25" y="454.8962">loop</text><polygon fill="#A80036" points="491.25,482.6563,503.75,487.6563,491.25,492.6563,496.25,487.6563" style="stroke:#A80036;stroke-width:1.25;"/><line style="stroke:#A80036;stroke-width:1.25;" x1="77.5" x2="498.75" y1="487.6563" y2="487.6563"/><text fill="#000000" font-family="sans-serif" font-size="16.25" font-weight="bold" lengthAdjust="spacing" textLength="8.75" x="86.25" y="481.5857">9</text><text fill="#000000" font-family="sans-serif" font-size="16.25" lengthAdjust="spacing" textLength="146.25" x="100" y="481.5857">Selects a parameter</text><polygon fill="#A80036" points="91.25,520.5957,78.75,525.5957,91.25,530.5957,86.25,525.5957" style="stroke:#A80036;stroke-width:1.25;"/><line style="stroke:#A80036;stroke-width:1.25;stroke-dasharray:2.0,2.0;" x1="83.75" x2="498.75" y1="525.5957" y2="525.5957"/><text fill="#000000" font-family="sans-serif" font-size="16.25" font-weight="bold" lengthAdjust="spacing" textLength="17.5" x="98.75" y="519.5251">10</text><text fill="#000000" font-family="sans-serif" font-size="16.25" lengthAdjust="spacing" textLength="123.75" x="121.25" y="519.5251">Parameter added</text><polygon fill="#A80036" points="91.25,567.2852,78.75,572.2852,91.25,577.2852,86.25,572.2852" style="stroke:#A80036;stroke-width:1.25;"/><line style="stroke:#A80036;stroke-width:1.25;stroke-dasharray:2.0,2.0;" x1="83.75" x2="505" y1="572.2852" y2="572.2852"/><text fill="#000000" font-family="sans-serif" font-size="16.25" font-weight="bold" lengthAdjust="spacing" textLength="17.5" x="98.75" y="566.2146">11</text><text fill="#000000" font-family="sans-serif" font-size="16.25" lengthAdjust="spacing" textLength="370" x="121.25" y="566.2146">Show parameter selected and asks for confirmation</text><polygon fill="#A80036" points="485,605.2246,497.5,610.2246,485,615.2246,490,610.2246" style="stroke:#A80036;stroke-width:1.25;"/><line style="stroke:#A80036;stroke-width:1.25;" x1="77.5" x2="492.5" y1="610.2246" y2="610.2246"/><text fill="#000000" font-family="sans-serif" font-size="16.25" font-weight="bold" lengthAdjust="spacing" textLength="17.5" x="86.25" y="604.1541">12</text><text fill="#000000" font-family="sans-serif" font-size="16.25" lengthAdjust="spacing" textLength="177.5" x="108.75" y="604.1541">Confirms the parameters</text><polygon fill="#A80036" points="91.25,643.1641,78.75,648.1641,91.25,653.1641,86.25,648.1641" style="stroke:#A80036;stroke-width:1.25;"/><line style="stroke:#A80036;stroke-width:1.25;stroke-dasharray:2.0,2.0;" x1="83.75" x2="498.75" y1="648.1641" y2="648.1641"/><text fill="#000000" font-family="sans-serif" font-size="16.25" font-weight="bold" lengthAdjust="spacing" textLength="17.5" x="98.75" y="642.0935">13</text><text fill="#000000" font-family="sans-serif" font-size="16.25" lengthAdjust="spacing" textLength="297.5" x="121.25" y="642.0935">Shows all data and requests confirmation</text><polygon fill="#A80036" points="485,681.1035,497.5,686.1035,485,691.1035,490,686.1035" style="stroke:#A80036;stroke-width:1.25;"/><line style="stroke:#A80036;stroke-width:1.25;" x1="77.5" x2="492.5" y1="686.1035" y2="686.1035"/><text fill="#000000" font-family="sans-serif" font-size="16.25" font-weight="bold" lengthAdjust="spacing" textLength="17.5" x="86.25" y="680.033">14</text><text fill="#000000" font-family="sans-serif" font-size="16.25" lengthAdjust="spacing" textLength="127.5" x="108.75" y="680.033">Confirms the data</text><polygon fill="#A80036" points="91.25,719.043,78.75,724.043,91.25,729.043,86.25,724.043" style="stroke:#A80036;stroke-width:1.25;"/><line style="stroke:#A80036;stroke-width:1.25;stroke-dasharray:2.0,2.0;" x1="83.75" x2="498.75" y1="724.043" y2="724.043"/><text fill="#000000" font-family="sans-serif" font-size="16.25" font-weight="bold" lengthAdjust="spacing" textLength="17.5" x="98.75" y="717.9724">15</text><text fill="#000000" font-family="sans-serif" font-size="16.25" lengthAdjust="spacing" textLength="190" x="121.25" y="717.9724">Informs operation success</text><!--MD5=[d2830ace59aea2ef503085f1215f99ee]
@startuml
autonumber
actor "Receptionist" as RE


RE -> ":System" : Creation of a new test
activate ":System"
":System" - -> RE : Asks for client TIN and Nhs Code of the Test
deactivate ":System"
RE -> ":System" : Introduces TIN and Nhs Code
activate ":System"
":System" - -> RE : shows the client Data and asks for confirmation
deactivate ":System"
RE -> ":System" : confirm the client
activate ":System"
":System" - -> RE : Shows type of test list

deactivate ":System"
RE -> ":System" : Selects a type of test
activate ":System"
":System" - -> RE : Shows parameter list
loop
RE -> ":System" : Selects a parameter
deactivate ":System"
":System" - -> RE : Parameter added
activate ":System"
end
":System" - -> RE : Show parameter selected and asks for confirmation
deactivate ":System"



RE -> ":System" : Confirms the parameters
activate ":System"
":System" - -> RE : Shows all data and requests confirmation
RE -> ":System" : Confirms the data
":System" - -> RE : Informs operation success

@enduml

PlantUML version 1.2021.4(Sun Apr 04 09:49:39 BST 2021)
(GPL source distribution)
Java Runtime: OpenJDK Runtime Environment
JVM: OpenJDK 64-Bit Server VM
Default Encoding: Cp1252
Language: pt
Country: PT
--></g></svg>