<?xml version="1.0" encoding="UTF-8" standalone="no"?><svg xmlns="http://www.w3.org/2000/svg" xmlns:xlink="http://www.w3.org/1999/xlink" contentScriptType="application/ecmascript" contentStyleType="text/css" height="927.5px" preserveAspectRatio="none" style="width:1516px;height:927px;" version="1.1" viewBox="0 0 1516 927" width="1516.25px" zoomAndPan="magnify"><defs><filter height="300%" id="f1mq9qatj7kf4c" width="300%" x="-1" y="-1"><feGaussianBlur result="blurOut" stdDeviation="2.5"/><feColorMatrix in="blurOut" result="blurOut2" type="matrix" values="0 0 0 0 0 0 0 0 0 0 0 0 0 0 0 0 0 0 .4 0"/><feOffset dx="5.0" dy="5.0" in="blurOut2" result="blurOut3"/><feBlend in="SourceGraphic" in2="blurOut3" mode="normal"/></filter></defs><g><!--MD5=[92f70f89e9f3cc4b172fe964212d1829]
class CreateTestUI--><rect codeLine="4" fill="#FEFECE" filter="url(#f1mq9qatj7kf4c)" height="60" id="CreateTestUI" style="stroke:#A80036;stroke-width:1.875;" width="131.25" x="800.625" y="8.75"/><ellipse cx="819.375" cy="28.75" fill="#ADD1B2" rx="13.75" ry="13.75" style="stroke:#A80036;stroke-width:1.25;"/><path d="M821.875,24.375 Q822.1289,23.75 822.4219,23.4375 Q822.7148,23.125 823.0469,23.125 Q823.6328,23.125 824.0039,23.4766 Q824.375,23.8281 824.375,24.6484 L824.375,26.6016 Q824.375,27.4219 824.0234,27.7734 Q823.6719,28.125 823.125,28.125 Q822.6367,28.125 822.3242,27.9102 Q822.0117,27.6953 821.875,27.1289 Q821.8164,26.7383 821.6016,26.5234 Q821.2109,26.1133 820.5078,25.8789 Q819.8047,25.625 819.1016,25.625 Q818.2227,25.625 817.4805,25.9766 Q816.7578,26.3281 816.1914,27.1094 Q815.625,27.8906 815.625,28.9648 L815.625,30.1172 Q815.625,31.4063 816.6797,32.2656 Q817.7344,33.125 819.6094,33.125 Q820.7227,33.125 821.5039,32.8711 Q821.9531,32.7344 822.4609,32.2852 Q822.793,32.0313 822.9688,31.9531 Q823.1445,31.875 823.3594,31.875 Q823.7695,31.875 824.0625,32.207 Q824.375,32.5195 824.375,32.9688 Q824.375,33.3984 823.9453,33.9063 Q823.3203,34.6484 822.3242,35.0586 Q821.0156,35.625 819.4141,35.625 Q817.5391,35.625 816.0352,34.8828 Q814.8242,34.2969 813.9648,33.0273 Q813.125,31.7578 813.125,30.2539 L813.125,28.8867 Q813.125,27.3242 813.8672,25.957 Q814.6289,24.5898 815.9375,23.8672 Q817.2656,23.125 818.75,23.125 Q819.6484,23.125 820.4297,23.4375 Q821.2109,23.75 821.875,24.375 Z " fill="#000000"/><text fill="#000000" font-family="sans-serif" font-size="15" lengthAdjust="spacing" textLength="91.25" x="836.875" y="34.8877">CreateTestUI</text><line style="stroke:#A80036;stroke-width:1.875;" x1="801.875" x2="930.625" y1="48.75" y2="48.75"/><line style="stroke:#A80036;stroke-width:1.875;" x1="801.875" x2="930.625" y1="58.75" y2="58.75"/><!--MD5=[55cb992be19579b505cea3c5691093cb]
class ClientStore--><rect codeLine="8" fill="#FEFECE" filter="url(#f1mq9qatj7kf4c)" height="77.2949" id="ClientStore" style="stroke:#A80036;stroke-width:1.875;" width="132.5" x="520" y="654.375"/><ellipse cx="546.0625" cy="674.375" fill="#ADD1B2" rx="13.75" ry="13.75" style="stroke:#A80036;stroke-width:1.25;"/><path d="M548.5625,670 Q548.8164,669.375 549.1094,669.0625 Q549.4023,668.75 549.7344,668.75 Q550.3203,668.75 550.6914,669.1016 Q551.0625,669.4531 551.0625,670.2734 L551.0625,672.2266 Q551.0625,673.0469 550.7109,673.3984 Q550.3594,673.75 549.8125,673.75 Q549.3242,673.75 549.0117,673.5352 Q548.6992,673.3203 548.5625,672.7539 Q548.5039,672.3633 548.2891,672.1484 Q547.8984,671.7383 547.1953,671.5039 Q546.4922,671.25 545.7891,671.25 Q544.9102,671.25 544.168,671.6016 Q543.4453,671.9531 542.8789,672.7344 Q542.3125,673.5156 542.3125,674.5898 L542.3125,675.7422 Q542.3125,677.0313 543.3672,677.8906 Q544.4219,678.75 546.2969,678.75 Q547.4102,678.75 548.1914,678.4961 Q548.6406,678.3594 549.1484,677.9102 Q549.4805,677.6563 549.6563,677.5781 Q549.832,677.5 550.0469,677.5 Q550.457,677.5 550.75,677.832 Q551.0625,678.1445 551.0625,678.5938 Q551.0625,679.0234 550.6328,679.5313 Q550.0078,680.2734 549.0117,680.6836 Q547.7031,681.25 546.1016,681.25 Q544.2266,681.25 542.7227,680.5078 Q541.5117,679.9219 540.6523,678.6523 Q539.8125,677.3828 539.8125,675.8789 L539.8125,674.5117 Q539.8125,672.9492 540.5547,671.582 Q541.3164,670.2148 542.625,669.4922 Q543.9531,668.75 545.4375,668.75 Q546.3359,668.75 547.1172,669.0625 Q547.8984,669.375 548.5625,670 Z " fill="#000000"/><text fill="#000000" font-family="sans-serif" font-size="15" lengthAdjust="spacing" textLength="76.25" x="565.1875" y="680.5127">ClientStore</text><line style="stroke:#A80036;stroke-width:1.875;" x1="521.25" x2="651.25" y1="694.375" y2="694.375"/><line style="stroke:#A80036;stroke-width:1.875;" x1="521.25" x2="651.25" y1="704.375" y2="704.375"/><text fill="#000000" font-family="sans-serif" font-size="13.75" lengthAdjust="spacing" textLength="117.5" x="527.5" y="723.6487">+getClientByTIN(tin)</text><!--MD5=[02e4b9b7573f1156f41e60aa5b4e25a4]
class Company--><rect codeLine="13" fill="#FEFECE" filter="url(#f1mq9qatj7kf4c)" height="129.1797" id="Company" style="stroke:#A80036;stroke-width:1.875;" width="145" x="397.5" y="402.5"/><ellipse cx="433.6875" cy="422.5" fill="#ADD1B2" rx="13.75" ry="13.75" style="stroke:#A80036;stroke-width:1.25;"/><path d="M436.1875,418.125 Q436.4414,417.5 436.7344,417.1875 Q437.0273,416.875 437.3594,416.875 Q437.9453,416.875 438.3164,417.2266 Q438.6875,417.5781 438.6875,418.3984 L438.6875,420.3516 Q438.6875,421.1719 438.3359,421.5234 Q437.9844,421.875 437.4375,421.875 Q436.9492,421.875 436.6367,421.6602 Q436.3242,421.4453 436.1875,420.8789 Q436.1289,420.4883 435.9141,420.2734 Q435.5234,419.8633 434.8203,419.6289 Q434.1172,419.375 433.4141,419.375 Q432.5352,419.375 431.793,419.7266 Q431.0703,420.0781 430.5039,420.8594 Q429.9375,421.6406 429.9375,422.7148 L429.9375,423.8672 Q429.9375,425.1563 430.9922,426.0156 Q432.0469,426.875 433.9219,426.875 Q435.0352,426.875 435.8164,426.6211 Q436.2656,426.4844 436.7734,426.0352 Q437.1055,425.7813 437.2813,425.7031 Q437.457,425.625 437.6719,425.625 Q438.082,425.625 438.375,425.957 Q438.6875,426.2695 438.6875,426.7188 Q438.6875,427.1484 438.2578,427.6563 Q437.6328,428.3984 436.6367,428.8086 Q435.3281,429.375 433.7266,429.375 Q431.8516,429.375 430.3477,428.6328 Q429.1367,428.0469 428.2773,426.7773 Q427.4375,425.5078 427.4375,424.0039 L427.4375,422.6367 Q427.4375,421.0742 428.1797,419.707 Q428.9414,418.3398 430.25,417.6172 Q431.5781,416.875 433.0625,416.875 Q433.9609,416.875 434.7422,417.1875 Q435.5234,417.5 436.1875,418.125 Z " fill="#000000"/><text fill="#000000" font-family="sans-serif" font-size="15" lengthAdjust="spacing" textLength="66.25" x="455.0625" y="428.6377">Company</text><line style="stroke:#A80036;stroke-width:1.875;" x1="398.75" x2="541.25" y1="442.5" y2="442.5"/><text fill="#000000" font-family="sans-serif" font-size="13.75" lengthAdjust="spacing" textLength="73.75" x="405" y="461.7737">-designation</text><line style="stroke:#A80036;stroke-width:1.875;" x1="398.75" x2="541.25" y1="469.7949" y2="469.7949"/><text fill="#000000" font-family="sans-serif" font-size="13.75" lengthAdjust="spacing" textLength="101.25" x="405" y="489.0686">+getClientStore()</text><text fill="#000000" font-family="sans-serif" font-size="13.75" lengthAdjust="spacing" textLength="130" x="405" y="506.3635">+getParameterStore()</text><text fill="#000000" font-family="sans-serif" font-size="13.75" lengthAdjust="spacing" textLength="125" x="405" y="523.6584">+getTestTypeStore()</text><!--MD5=[5e1e8a05fc56bf5d2b271193c1a467fb]
class CreateTestController--><rect codeLine="22" fill="#FEFECE" filter="url(#f1mq9qatj7kf4c)" height="181.0645" id="CreateTestController" style="stroke:#A80036;stroke-width:1.875;" width="305" x="713.75" y="145"/><ellipse cx="789.0625" cy="165" fill="#ADD1B2" rx="13.75" ry="13.75" style="stroke:#A80036;stroke-width:1.25;"/><path d="M791.5625,160.625 Q791.8164,160 792.1094,159.6875 Q792.4023,159.375 792.7344,159.375 Q793.3203,159.375 793.6914,159.7266 Q794.0625,160.0781 794.0625,160.8984 L794.0625,162.8516 Q794.0625,163.6719 793.7109,164.0234 Q793.3594,164.375 792.8125,164.375 Q792.3242,164.375 792.0117,164.1602 Q791.6992,163.9453 791.5625,163.3789 Q791.5039,162.9883 791.2891,162.7734 Q790.8984,162.3633 790.1953,162.1289 Q789.4922,161.875 788.7891,161.875 Q787.9102,161.875 787.168,162.2266 Q786.4453,162.5781 785.8789,163.3594 Q785.3125,164.1406 785.3125,165.2148 L785.3125,166.3672 Q785.3125,167.6563 786.3672,168.5156 Q787.4219,169.375 789.2969,169.375 Q790.4102,169.375 791.1914,169.1211 Q791.6406,168.9844 792.1484,168.5352 Q792.4805,168.2813 792.6563,168.2031 Q792.832,168.125 793.0469,168.125 Q793.457,168.125 793.75,168.457 Q794.0625,168.7695 794.0625,169.2188 Q794.0625,169.6484 793.6328,170.1563 Q793.0078,170.8984 792.0117,171.3086 Q790.7031,171.875 789.1016,171.875 Q787.2266,171.875 785.7227,171.1328 Q784.5117,170.5469 783.6523,169.2773 Q782.8125,168.0078 782.8125,166.5039 L782.8125,165.1367 Q782.8125,163.5742 783.5547,162.207 Q784.3164,160.8398 785.625,160.1172 Q786.9531,159.375 788.4375,159.375 Q789.3359,159.375 790.1172,159.6875 Q790.8984,160 791.5625,160.625 Z " fill="#000000"/><text fill="#000000" font-family="sans-serif" font-size="15" lengthAdjust="spacing" textLength="143.75" x="814.6875" y="171.1377">CreateTestController</text><line style="stroke:#A80036;stroke-width:1.875;" x1="715" x2="1017.5" y1="185" y2="185"/><line style="stroke:#A80036;stroke-width:1.875;" x1="715" x2="1017.5" y1="195" y2="195"/><text fill="#000000" font-family="sans-serif" font-size="13.75" lengthAdjust="spacing" textLength="290" x="721.25" y="214.2737">+getClientByTINAndSaveNhsCode(tin, nhsCode)</text><text fill="#000000" font-family="sans-serif" font-size="13.75" lengthAdjust="spacing" textLength="128.75" x="721.25" y="231.5686">+getTypeOfTestList()</text><text fill="#000000" font-family="sans-serif" font-size="13.75" lengthAdjust="spacing" textLength="141.25" x="721.25" y="248.8635">+addTypeOfTest(code)</text><text fill="#000000" font-family="sans-serif" font-size="13.75" lengthAdjust="spacing" textLength="118.75" x="721.25" y="266.1584">+getParameterList()</text><text fill="#000000" font-family="sans-serif" font-size="13.75" lengthAdjust="spacing" textLength="131.25" x="721.25" y="283.4534">+addParameter(code)</text><text fill="#000000" font-family="sans-serif" font-size="13.75" lengthAdjust="spacing" textLength="82.5" x="721.25" y="300.7483">+createTest()</text><text fill="#000000" font-family="sans-serif" font-size="13.75" lengthAdjust="spacing" textLength="73.75" x="721.25" y="318.0432">+saveTest()</text><!--MD5=[0f6f7964b844a64b0496af0dda7914bd]
class TestStore--><rect codeLine="34" fill="#FEFECE" filter="url(#f1mq9qatj7kf4c)" height="129.1797" id="TestStore" style="stroke:#A80036;stroke-width:1.875;" width="467.5" x="8.75" y="628.75"/><ellipse cx="204.0625" cy="648.75" fill="#ADD1B2" rx="13.75" ry="13.75" style="stroke:#A80036;stroke-width:1.25;"/><path d="M206.5625,644.375 Q206.8164,643.75 207.1094,643.4375 Q207.4023,643.125 207.7344,643.125 Q208.3203,643.125 208.6914,643.4766 Q209.0625,643.8281 209.0625,644.6484 L209.0625,646.6016 Q209.0625,647.4219 208.7109,647.7734 Q208.3594,648.125 207.8125,648.125 Q207.3242,648.125 207.0117,647.9102 Q206.6992,647.6953 206.5625,647.1289 Q206.5039,646.7383 206.2891,646.5234 Q205.8984,646.1133 205.1953,645.8789 Q204.4922,645.625 203.7891,645.625 Q202.9102,645.625 202.168,645.9766 Q201.4453,646.3281 200.8789,647.1094 Q200.3125,647.8906 200.3125,648.9648 L200.3125,650.1172 Q200.3125,651.4063 201.3672,652.2656 Q202.4219,653.125 204.2969,653.125 Q205.4102,653.125 206.1914,652.8711 Q206.6406,652.7344 207.1484,652.2852 Q207.4805,652.0313 207.6563,651.9531 Q207.832,651.875 208.0469,651.875 Q208.457,651.875 208.75,652.207 Q209.0625,652.5195 209.0625,652.9688 Q209.0625,653.3984 208.6328,653.9063 Q208.0078,654.6484 207.0117,655.0586 Q205.7031,655.625 204.1016,655.625 Q202.2266,655.625 200.7227,654.8828 Q199.5117,654.2969 198.6523,653.0273 Q197.8125,651.7578 197.8125,650.2539 L197.8125,648.8867 Q197.8125,647.3242 198.5547,645.957 Q199.3164,644.5898 200.625,643.8672 Q201.9531,643.125 203.4375,643.125 Q204.3359,643.125 205.1172,643.4375 Q205.8984,643.75 206.5625,644.375 Z " fill="#000000"/><text fill="#000000" font-family="sans-serif" font-size="15" lengthAdjust="spacing" textLength="66.25" x="229.6875" y="654.8877">TestStore</text><line style="stroke:#A80036;stroke-width:1.875;" x1="10" x2="475" y1="668.75" y2="668.75"/><line style="stroke:#A80036;stroke-width:1.875;" x1="10" x2="475" y1="678.75" y2="678.75"/><text fill="#000000" font-family="sans-serif" font-size="13.75" lengthAdjust="spacing" textLength="452.5" x="16.25" y="698.0237">+createTest(nhsCode, client, typeOfTest, parameterList, labWhereCreated)</text><text fill="#000000" font-family="sans-serif" font-size="13.75" lengthAdjust="spacing" textLength="112.5" x="16.25" y="715.3186">+validateTest(test)</text><text fill="#000000" font-family="sans-serif" font-size="13.75" lengthAdjust="spacing" textLength="96.25" x="16.25" y="732.6135">+saveTest(test)</text><text fill="#000000" font-family="sans-serif" font-size="13.75" lengthAdjust="spacing" textLength="88.75" x="16.25" y="749.9084">+addTest(test)</text><!--MD5=[724ead17d3ca940995455a91cefd1e12]
class TestTypeMapper--><rect codeLine="41" fill="#FEFECE" filter="url(#f1mq9qatj7kf4c)" height="77.2949" id="TestTypeMapper" style="stroke:#A80036;stroke-width:1.875;" width="153.75" x="586.875" y="428.125"/><ellipse cx="605.625" cy="448.125" fill="#ADD1B2" rx="13.75" ry="13.75" style="stroke:#A80036;stroke-width:1.25;"/><path d="M608.125,443.75 Q608.3789,443.125 608.6719,442.8125 Q608.9648,442.5 609.2969,442.5 Q609.8828,442.5 610.2539,442.8516 Q610.625,443.2031 610.625,444.0234 L610.625,445.9766 Q610.625,446.7969 610.2734,447.1484 Q609.9219,447.5 609.375,447.5 Q608.8867,447.5 608.5742,447.2852 Q608.2617,447.0703 608.125,446.5039 Q608.0664,446.1133 607.8516,445.8984 Q607.4609,445.4883 606.7578,445.2539 Q606.0547,445 605.3516,445 Q604.4727,445 603.7305,445.3516 Q603.0078,445.7031 602.4414,446.4844 Q601.875,447.2656 601.875,448.3398 L601.875,449.4922 Q601.875,450.7813 602.9297,451.6406 Q603.9844,452.5 605.8594,452.5 Q606.9727,452.5 607.7539,452.2461 Q608.2031,452.1094 608.7109,451.6602 Q609.043,451.4063 609.2188,451.3281 Q609.3945,451.25 609.6094,451.25 Q610.0195,451.25 610.3125,451.582 Q610.625,451.8945 610.625,452.3438 Q610.625,452.7734 610.1953,453.2813 Q609.5703,454.0234 608.5742,454.4336 Q607.2656,455 605.6641,455 Q603.7891,455 602.2852,454.2578 Q601.0742,453.6719 600.2148,452.4023 Q599.375,451.1328 599.375,449.6289 L599.375,448.2617 Q599.375,446.6992 600.1172,445.332 Q600.8789,443.9648 602.1875,443.2422 Q603.5156,442.5 605,442.5 Q605.8984,442.5 606.6797,442.8125 Q607.4609,443.125 608.125,443.75 Z " fill="#000000"/><text fill="#000000" font-family="sans-serif" font-size="15" lengthAdjust="spacing" textLength="113.75" x="623.125" y="454.2627">TestTypeMapper</text><line style="stroke:#A80036;stroke-width:1.875;" x1="588.125" x2="739.375" y1="468.125" y2="468.125"/><line style="stroke:#A80036;stroke-width:1.875;" x1="588.125" x2="739.375" y1="478.125" y2="478.125"/><text fill="#000000" font-family="sans-serif" font-size="13.75" lengthAdjust="spacing" textLength="128.75" x="594.375" y="497.3987">+toDTO(testTypeList)</text><!--MD5=[e0569d1bc34b9d21face98cd33d75fba]
class ParameterMapper--><rect codeLine="45" fill="#FEFECE" filter="url(#f1mq9qatj7kf4c)" height="77.2949" id="ParameterMapper" style="stroke:#A80036;stroke-width:1.875;" width="163.75" x="784.375" y="428.125"/><ellipse cx="803.125" cy="448.125" fill="#ADD1B2" rx="13.75" ry="13.75" style="stroke:#A80036;stroke-width:1.25;"/><path d="M805.625,443.75 Q805.8789,443.125 806.1719,442.8125 Q806.4648,442.5 806.7969,442.5 Q807.3828,442.5 807.7539,442.8516 Q808.125,443.2031 808.125,444.0234 L808.125,445.9766 Q808.125,446.7969 807.7734,447.1484 Q807.4219,447.5 806.875,447.5 Q806.3867,447.5 806.0742,447.2852 Q805.7617,447.0703 805.625,446.5039 Q805.5664,446.1133 805.3516,445.8984 Q804.9609,445.4883 804.2578,445.2539 Q803.5547,445 802.8516,445 Q801.9727,445 801.2305,445.3516 Q800.5078,445.7031 799.9414,446.4844 Q799.375,447.2656 799.375,448.3398 L799.375,449.4922 Q799.375,450.7813 800.4297,451.6406 Q801.4844,452.5 803.3594,452.5 Q804.4727,452.5 805.2539,452.2461 Q805.7031,452.1094 806.2109,451.6602 Q806.543,451.4063 806.7188,451.3281 Q806.8945,451.25 807.1094,451.25 Q807.5195,451.25 807.8125,451.582 Q808.125,451.8945 808.125,452.3438 Q808.125,452.7734 807.6953,453.2813 Q807.0703,454.0234 806.0742,454.4336 Q804.7656,455 803.1641,455 Q801.2891,455 799.7852,454.2578 Q798.5742,453.6719 797.7148,452.4023 Q796.875,451.1328 796.875,449.6289 L796.875,448.2617 Q796.875,446.6992 797.6172,445.332 Q798.3789,443.9648 799.6875,443.2422 Q801.0156,442.5 802.5,442.5 Q803.3984,442.5 804.1797,442.8125 Q804.9609,443.125 805.625,443.75 Z " fill="#000000"/><text fill="#000000" font-family="sans-serif" font-size="15" lengthAdjust="spacing" textLength="123.75" x="820.625" y="454.2627">ParameterMapper</text><line style="stroke:#A80036;stroke-width:1.875;" x1="785.625" x2="946.875" y1="468.125" y2="468.125"/><line style="stroke:#A80036;stroke-width:1.875;" x1="785.625" x2="946.875" y1="478.125" y2="478.125"/><text fill="#000000" font-family="sans-serif" font-size="13.75" lengthAdjust="spacing" textLength="137.5" x="791.875" y="497.3987">+toDTO(parameterList)</text><!--MD5=[f69a48f7b38bde3533dca6607cc4e94a]
class TypeOfTest--><rect codeLine="50" fill="#FEFECE" filter="url(#f1mq9qatj7kf4c)" height="77.2949" id="TypeOfTest" style="stroke:#A80036;stroke-width:1.875;" width="237.5" x="992.5" y="428.125"/><ellipse cx="1067.1875" cy="448.125" fill="#ADD1B2" rx="13.75" ry="13.75" style="stroke:#A80036;stroke-width:1.25;"/><path d="M1069.6875,443.75 Q1069.9414,443.125 1070.2344,442.8125 Q1070.5273,442.5 1070.8594,442.5 Q1071.4453,442.5 1071.8164,442.8516 Q1072.1875,443.2031 1072.1875,444.0234 L1072.1875,445.9766 Q1072.1875,446.7969 1071.8359,447.1484 Q1071.4844,447.5 1070.9375,447.5 Q1070.4492,447.5 1070.1367,447.2852 Q1069.8242,447.0703 1069.6875,446.5039 Q1069.6289,446.1133 1069.4141,445.8984 Q1069.0234,445.4883 1068.3203,445.2539 Q1067.6172,445 1066.9141,445 Q1066.0352,445 1065.293,445.3516 Q1064.5703,445.7031 1064.0039,446.4844 Q1063.4375,447.2656 1063.4375,448.3398 L1063.4375,449.4922 Q1063.4375,450.7813 1064.4922,451.6406 Q1065.5469,452.5 1067.4219,452.5 Q1068.5352,452.5 1069.3164,452.2461 Q1069.7656,452.1094 1070.2734,451.6602 Q1070.6055,451.4063 1070.7813,451.3281 Q1070.957,451.25 1071.1719,451.25 Q1071.582,451.25 1071.875,451.582 Q1072.1875,451.8945 1072.1875,452.3438 Q1072.1875,452.7734 1071.7578,453.2813 Q1071.1328,454.0234 1070.1367,454.4336 Q1068.8281,455 1067.2266,455 Q1065.3516,455 1063.8477,454.2578 Q1062.6367,453.6719 1061.7773,452.4023 Q1060.9375,451.1328 1060.9375,449.6289 L1060.9375,448.2617 Q1060.9375,446.6992 1061.6797,445.332 Q1062.4414,443.9648 1063.75,443.2422 Q1065.0781,442.5 1066.5625,442.5 Q1067.4609,442.5 1068.2422,442.8125 Q1069.0234,443.125 1069.6875,443.75 Z " fill="#000000"/><text fill="#000000" font-family="sans-serif" font-size="15" lengthAdjust="spacing" textLength="77.5" x="1092.8125" y="454.2627">TypeOfTest</text><line style="stroke:#A80036;stroke-width:1.875;" x1="993.75" x2="1228.75" y1="468.125" y2="468.125"/><line style="stroke:#A80036;stroke-width:1.875;" x1="993.75" x2="1228.75" y1="478.125" y2="478.125"/><text fill="#000000" font-family="sans-serif" font-size="13.75" lengthAdjust="spacing" textLength="222.5" x="1000" y="497.3987">+getCategoryListByTheTypeOfTest()</text><!--MD5=[b9cabbedd84757019d72e276cc5bea1e]
class TypeOfTestStore--><rect codeLine="54" fill="#FEFECE" filter="url(#f1mq9qatj7kf4c)" height="77.2949" id="TypeOfTestStore" style="stroke:#A80036;stroke-width:1.875;" width="200" x="768.75" y="654.375"/><ellipse cx="808.3125" cy="674.375" fill="#ADD1B2" rx="13.75" ry="13.75" style="stroke:#A80036;stroke-width:1.25;"/><path d="M810.8125,670 Q811.0664,669.375 811.3594,669.0625 Q811.6523,668.75 811.9844,668.75 Q812.5703,668.75 812.9414,669.1016 Q813.3125,669.4531 813.3125,670.2734 L813.3125,672.2266 Q813.3125,673.0469 812.9609,673.3984 Q812.6094,673.75 812.0625,673.75 Q811.5742,673.75 811.2617,673.5352 Q810.9492,673.3203 810.8125,672.7539 Q810.7539,672.3633 810.5391,672.1484 Q810.1484,671.7383 809.4453,671.5039 Q808.7422,671.25 808.0391,671.25 Q807.1602,671.25 806.418,671.6016 Q805.6953,671.9531 805.1289,672.7344 Q804.5625,673.5156 804.5625,674.5898 L804.5625,675.7422 Q804.5625,677.0313 805.6172,677.8906 Q806.6719,678.75 808.5469,678.75 Q809.6602,678.75 810.4414,678.4961 Q810.8906,678.3594 811.3984,677.9102 Q811.7305,677.6563 811.9063,677.5781 Q812.082,677.5 812.2969,677.5 Q812.707,677.5 813,677.832 Q813.3125,678.1445 813.3125,678.5938 Q813.3125,679.0234 812.8828,679.5313 Q812.2578,680.2734 811.2617,680.6836 Q809.9531,681.25 808.3516,681.25 Q806.4766,681.25 804.9727,680.5078 Q803.7617,679.9219 802.9023,678.6523 Q802.0625,677.3828 802.0625,675.8789 L802.0625,674.5117 Q802.0625,672.9492 802.8047,671.582 Q803.5664,670.2148 804.875,669.4922 Q806.2031,668.75 807.6875,668.75 Q808.5859,668.75 809.3672,669.0625 Q810.1484,669.375 810.8125,670 Z " fill="#000000"/><text fill="#000000" font-family="sans-serif" font-size="15" lengthAdjust="spacing" textLength="113.75" x="830.4375" y="680.5127">TypeOfTestStore</text><line style="stroke:#A80036;stroke-width:1.875;" x1="770" x2="967.5" y1="694.375" y2="694.375"/><line style="stroke:#A80036;stroke-width:1.875;" x1="770" x2="967.5" y1="704.375" y2="704.375"/><text fill="#000000" font-family="sans-serif" font-size="13.75" lengthAdjust="spacing" textLength="185" x="776.25" y="723.6487">+getTypeOfTestByCode(code)</text><!--MD5=[be7802b157a16874d39c59ca0e2b25be]
class ParameterStore--><rect codeLine="59" fill="#FEFECE" filter="url(#f1mq9qatj7kf4c)" height="94.5898" id="ParameterStore" style="stroke:#A80036;stroke-width:1.875;" width="281.25" x="1091.875" y="645.625"/><ellipse cx="1172.8125" cy="665.625" fill="#ADD1B2" rx="13.75" ry="13.75" style="stroke:#A80036;stroke-width:1.25;"/><path d="M1175.3125,661.25 Q1175.5664,660.625 1175.8594,660.3125 Q1176.1523,660 1176.4844,660 Q1177.0703,660 1177.4414,660.3516 Q1177.8125,660.7031 1177.8125,661.5234 L1177.8125,663.4766 Q1177.8125,664.2969 1177.4609,664.6484 Q1177.1094,665 1176.5625,665 Q1176.0742,665 1175.7617,664.7852 Q1175.4492,664.5703 1175.3125,664.0039 Q1175.2539,663.6133 1175.0391,663.3984 Q1174.6484,662.9883 1173.9453,662.7539 Q1173.2422,662.5 1172.5391,662.5 Q1171.6602,662.5 1170.918,662.8516 Q1170.1953,663.2031 1169.6289,663.9844 Q1169.0625,664.7656 1169.0625,665.8398 L1169.0625,666.9922 Q1169.0625,668.2813 1170.1172,669.1406 Q1171.1719,670 1173.0469,670 Q1174.1602,670 1174.9414,669.7461 Q1175.3906,669.6094 1175.8984,669.1602 Q1176.2305,668.9063 1176.4063,668.8281 Q1176.582,668.75 1176.7969,668.75 Q1177.207,668.75 1177.5,669.082 Q1177.8125,669.3945 1177.8125,669.8438 Q1177.8125,670.2734 1177.3828,670.7813 Q1176.7578,671.5234 1175.7617,671.9336 Q1174.4531,672.5 1172.8516,672.5 Q1170.9766,672.5 1169.4727,671.7578 Q1168.2617,671.1719 1167.4023,669.9023 Q1166.5625,668.6328 1166.5625,667.1289 L1166.5625,665.7617 Q1166.5625,664.1992 1167.3047,662.832 Q1168.0664,661.4648 1169.375,660.7422 Q1170.7031,660 1172.1875,660 Q1173.0859,660 1173.8672,660.3125 Q1174.6484,660.625 1175.3125,661.25 Z " fill="#000000"/><text fill="#000000" font-family="sans-serif" font-size="15" lengthAdjust="spacing" textLength="108.75" x="1198.4375" y="671.7627">ParameterStore</text><line style="stroke:#A80036;stroke-width:1.875;" x1="1093.125" x2="1371.875" y1="685.625" y2="685.625"/><line style="stroke:#A80036;stroke-width:1.875;" x1="1093.125" x2="1371.875" y1="695.625" y2="695.625"/><text fill="#000000" font-family="sans-serif" font-size="13.75" lengthAdjust="spacing" textLength="175" x="1099.375" y="714.8987">+getParameterByCode(code)</text><text fill="#000000" font-family="sans-serif" font-size="13.75" lengthAdjust="spacing" textLength="266.25" x="1099.375" y="732.1936">+getParameterListByTheCategory(category)</text><!--MD5=[6ef91cd45517c28008c17021de9a54ec]
class CATest--><rect codeLine="64" fill="#FEFECE" filter="url(#f1mq9qatj7kf4c)" height="77.2949" id="CATest" style="stroke:#A80036;stroke-width:1.875;" width="441.25" x="636.875" y="833.75"/><ellipse cx="827.1875" cy="853.75" fill="#ADD1B2" rx="13.75" ry="13.75" style="stroke:#A80036;stroke-width:1.25;"/><path d="M829.6875,849.375 Q829.9414,848.75 830.2344,848.4375 Q830.5273,848.125 830.8594,848.125 Q831.4453,848.125 831.8164,848.4766 Q832.1875,848.8281 832.1875,849.6484 L832.1875,851.6016 Q832.1875,852.4219 831.8359,852.7734 Q831.4844,853.125 830.9375,853.125 Q830.4492,853.125 830.1367,852.9102 Q829.8242,852.6953 829.6875,852.1289 Q829.6289,851.7383 829.4141,851.5234 Q829.0234,851.1133 828.3203,850.8789 Q827.6172,850.625 826.9141,850.625 Q826.0352,850.625 825.293,850.9766 Q824.5703,851.3281 824.0039,852.1094 Q823.4375,852.8906 823.4375,853.9648 L823.4375,855.1172 Q823.4375,856.4063 824.4922,857.2656 Q825.5469,858.125 827.4219,858.125 Q828.5352,858.125 829.3164,857.8711 Q829.7656,857.7344 830.2734,857.2852 Q830.6055,857.0313 830.7813,856.9531 Q830.957,856.875 831.1719,856.875 Q831.582,856.875 831.875,857.207 Q832.1875,857.5195 832.1875,857.9688 Q832.1875,858.3984 831.7578,858.9063 Q831.1328,859.6484 830.1367,860.0586 Q828.8281,860.625 827.2266,860.625 Q825.3516,860.625 823.8477,859.8828 Q822.6367,859.2969 821.7773,858.0273 Q820.9375,856.7578 820.9375,855.2539 L820.9375,853.8867 Q820.9375,852.3242 821.6797,850.957 Q822.4414,849.5898 823.75,848.8672 Q825.0781,848.125 826.5625,848.125 Q827.4609,848.125 828.2422,848.4375 Q829.0234,848.75 829.6875,849.375 Z " fill="#000000"/><text fill="#000000" font-family="sans-serif" font-size="15" lengthAdjust="spacing" textLength="50" x="852.8125" y="859.8877">CATest</text><line style="stroke:#A80036;stroke-width:1.875;" x1="638.125" x2="1076.875" y1="873.75" y2="873.75"/><line style="stroke:#A80036;stroke-width:1.875;" x1="638.125" x2="1076.875" y1="883.75" y2="883.75"/><text fill="#000000" font-family="sans-serif" font-size="13.75" lengthAdjust="spacing" textLength="426.25" x="644.375" y="903.0237">+create(nhsCode, client, typeOfTest, parameterList, labWhereCreated)</text><!--MD5=[530b2bbbe0543e9500e772e9984c0ae9]
link CreateTestUI to CreateTestController--><path codeLine="70" d="M866.25,69.1 C866.25,87.75 866.25,113.1125 866.25,138.375 " fill="none" id="CreateTestUI-to-CreateTestController" style="stroke:#A80036;stroke-width:1.25;stroke-dasharray:7.0,7.0;"/><polygon fill="#A80036" points="866.25,144.7875,871.2821,133.5518,866.2679,138.5375,861.2822,133.5233,866.25,144.7875" style="stroke:#A80036;stroke-width:1.25;"/><!--MD5=[1e599a7b02367bd15a30ec01145a73b9]
link CreateTestController to Company--><path codeLine="72" d="M713.5125,317.625 C665.5,343.8625 612.6,373.6625 565,402.5 C559.5375,405.8125 553.95,409.2875 548.3375,412.8375 " fill="none" id="CreateTestController-to-Company" style="stroke:#A80036;stroke-width:1.25;stroke-dasharray:7.0,7.0;"/><polygon fill="#A80036" points="542.7375,416.4,554.9119,414.5705,548.0082,413.0411,549.5376,406.1374,542.7375,416.4" style="stroke:#A80036;stroke-width:1.25;"/><!--MD5=[7f6cf7f175eae0af66201860de5de971]
link Company to TestStore--><path codeLine="74" d="M405.4125,531.65 C376.1125,560.4625 341.425,594.5875 311.6,623.925 " fill="none" id="Company-to-TestStore" style="stroke:#A80036;stroke-width:1.25;"/><polygon fill="#A80036" points="306.85,628.5875,318.3845,624.2844,311.3138,624.2129,311.3853,617.1422,306.85,628.5875" style="stroke:#A80036;stroke-width:1.25;"/><text fill="#000000" font-family="sans-serif" font-size="16.25" lengthAdjust="spacing" textLength="26.25" x="365" y="586.8689">use</text><text fill="#000000" font-family="sans-serif" font-size="16.25" lengthAdjust="spacing" textLength="8.75" x="387.3957" y="558.5674">1</text><text fill="#000000" font-family="sans-serif" font-size="16.25" lengthAdjust="spacing" textLength="8.75" x="306.534" y="614.9752">1</text><!--MD5=[a11230341c8e65219708844feaa40162]
link Company to ClientStore--><path codeLine="75" d="M503,531.65 C522.425,569.0125 546.4625,615.3 563.7125,648.5 " fill="none" id="Company-to-ClientStore" style="stroke:#A80036;stroke-width:1.25;"/><polygon fill="#A80036" points="566.6375,654.1375,565.8747,641.8501,563.7501,648.5944,557.0058,646.4699,566.6375,654.1375" style="stroke:#A80036;stroke-width:1.25;"/><text fill="#000000" font-family="sans-serif" font-size="16.25" lengthAdjust="spacing" textLength="26.25" x="533.75" y="586.8689">use</text><text fill="#000000" font-family="sans-serif" font-size="16.25" lengthAdjust="spacing" textLength="8.75" x="498.0965" y="558.5674">1</text><text fill="#000000" font-family="sans-serif" font-size="16.25" lengthAdjust="spacing" textLength="8.75" x="552.9401" y="640.9692">1</text><!--MD5=[d7936936df9ef919cf4d565dcbb77636]
link Company to TypeOfTestStore--><path codeLine="76" d="M542.6625,517.4625 C550.1375,522.225 557.675,526.9 565,531.25 C638.5125,574.9625 724.9625,620.1 786.7875,651.35 " fill="none" id="Company-to-TypeOfTestStore" style="stroke:#A80036;stroke-width:1.25;"/><polygon fill="#A80036" points="792.7,654.325,784.8981,644.8017,787.117,651.5156,780.4031,653.7345,792.7,654.325" style="stroke:#A80036;stroke-width:1.25;"/><text fill="#000000" font-family="sans-serif" font-size="16.25" lengthAdjust="spacing" textLength="26.25" x="665" y="586.8689">use</text><text fill="#000000" font-family="sans-serif" font-size="16.25" lengthAdjust="spacing" textLength="8.75" x="552.5329" y="519.5323">1</text><text fill="#000000" font-family="sans-serif" font-size="16.25" lengthAdjust="spacing" textLength="8.75" x="766.357" y="640.5894">1</text><!--MD5=[daf3d7412afa2c7651483be0b6e971d1]
link Company to ParameterStore--><path codeLine="77" d="M542.6875,520.125 C550.0375,524.25 557.5375,528.0375 565,531.25 C609.5125,550.3875 942.9375,617.225 990,628.75 C1020.9,636.3125 1053.9375,644.7125 1085.3625,652.8375 " fill="none" id="Company-to-ParameterStore" style="stroke:#A80036;stroke-width:1.25;"/><polygon fill="#A80036" points="1091.625,654.4625,1081.9922,646.7962,1085.5755,652.8921,1079.4796,656.4754,1091.625,654.4625" style="stroke:#A80036;stroke-width:1.25;"/><text fill="#000000" font-family="sans-serif" font-size="16.25" lengthAdjust="spacing" textLength="26.25" x="812.5" y="586.8689">use</text><text fill="#000000" font-family="sans-serif" font-size="16.25" lengthAdjust="spacing" textLength="8.75" x="552.5611" y="545.0984">1</text><text fill="#000000" font-family="sans-serif" font-size="16.25" lengthAdjust="spacing" textLength="8.75" x="1073.116" y="648.0904">1</text><!--MD5=[aeee5baa48c62fcaae3f9cc5af359d2e]
link CreateTestController to CATest--><path codeLine="79" d="M1019.0375,256.825 C1108.35,274.1375 1219.9,305.9375 1305,363.75 C1453.4875,464.625 1508.0375,618.0375 1395,757.5 C1355.25,806.55 1212.8625,835.2875 1084.625,851.6125 " fill="none" id="CreateTestController-to-CATest" style="stroke:#A80036;stroke-width:1.25;stroke-dasharray:7.0,7.0;"/><polygon fill="#A80036" points="1078.1375,852.425,1089.9271,855.9701,1084.3379,851.6388,1088.6692,846.0495,1078.1375,852.425" style="stroke:#A80036;stroke-width:1.25;"/><!--MD5=[bb834861019513a5c3c3d91dd7fce220]
link CreateTestController to TestStore--><path codeLine="80" d="M713.5375,263.6875 C569.6125,292.225 368.6,341.625 317.5,402.5 C265.5625,464.375 249.05,557.9875 244.1,621.8625 " fill="none" id="CreateTestController-to-TestStore" style="stroke:#A80036;stroke-width:1.25;stroke-dasharray:7.0,7.0;"/><polygon fill="#A80036" points="243.625,628.3375,249.416,617.4735,244.0716,622.1035,239.4416,616.759,243.625,628.3375" style="stroke:#A80036;stroke-width:1.25;"/><!--MD5=[a7e83f8ce8a89b7604467eac403f328b]
link CreateTestController to TypeOfTestStore--><path codeLine="81" d="M1018.8625,260.7 C1103.025,282.475 1200.7,323.9125 1252.5,402.5 C1284,450.275 1284.2,483.6125 1252.5,531.25 C1236.075,555.925 1082.9375,615 975.1625,654.2125 " fill="none" id="CreateTestController-to-TypeOfTestStore" style="stroke:#A80036;stroke-width:1.25;stroke-dasharray:7.0,7.0;"/><polygon fill="#A80036" points="969.1,656.4125,981.3822,657.2549,974.9716,654.2709,977.9556,647.8603,969.1,656.4125" style="stroke:#A80036;stroke-width:1.25;"/><!--MD5=[816033eb33a7980b6e219a70260e6348]
link CreateTestController to ClientStore--><path codeLine="82" d="M713.325,245.9 C601.5,261.175 455.775,300.8625 375,402.5 C322.6125,468.4125 307.5625,524.4 358.75,591.25 C397.5875,641.975 439.7375,601.475 497.5,628.75 C510.1,634.7 522.8125,642.4625 534.5125,650.4875 " fill="none" id="CreateTestController-to-ClientStore" style="stroke:#A80036;stroke-width:1.25;stroke-dasharray:7.0,7.0;"/><polygon fill="#A80036" points="539.8125,654.1875,533.4412,643.6533,534.6848,650.6142,527.7239,651.8577,539.8125,654.1875" style="stroke:#A80036;stroke-width:1.25;"/><!--MD5=[7f71e9253d7fc92f5f32c8b21cbc461c]
link CreateTestController to ParameterStore--><path codeLine="83" d="M1018.925,244.6125 C1122.8625,259.425 1249.7,299.1 1296.25,402.5 C1331.5375,480.8875 1293.5875,580.25 1262.9875,639.7875 " fill="none" id="CreateTestController-to-ParameterStore" style="stroke:#A80036;stroke-width:1.25;stroke-dasharray:7.0,7.0;"/><polygon fill="#A80036" points="1260.05,645.425,1269.6919,637.7701,1262.9447,639.8858,1260.8291,633.1386,1260.05,645.425" style="stroke:#A80036;stroke-width:1.25;"/><!--MD5=[36b6a665c17e13d43600f7dd234dc26e]
link CreateTestController to ParameterMapper--><path codeLine="84" d="M866.25,326.3 C866.25,359.0125 866.25,394.5875 866.25,421.6 " fill="none" id="CreateTestController-to-ParameterMapper" style="stroke:#A80036;stroke-width:1.25;stroke-dasharray:7.0,7.0;"/><polygon fill="#A80036" points="866.25,427.925,871.25,416.675,866.25,421.675,861.25,416.675,866.25,427.925" style="stroke:#A80036;stroke-width:1.25;"/><!--MD5=[1852e085d05103c88dd4c70d5f11b88c]
link CreateTestController to TypeOfTest--><path codeLine="85" d="M962.025,326.3 C997.95,359.8375 1037.1,396.3875 1066.2875,423.6375 " fill="none" id="CreateTestController-to-TypeOfTest" style="stroke:#A80036;stroke-width:1.25;stroke-dasharray:7.0,7.0;"/><polygon fill="#A80036" points="1070.875,427.925,1066.0638,416.593,1066.3065,423.6599,1059.2396,423.9026,1070.875,427.925" style="stroke:#A80036;stroke-width:1.25;"/><!--MD5=[e0b8a41bfc3d5c8029c654e548a9b285]
link CreateTestController to TestTypeMapper--><path codeLine="86" d="M787.0875,326.3 C757.6375,359.5625 725.575,395.7875 701.5125,422.9625 " fill="none" id="CreateTestController-to-TestTypeMapper" style="stroke:#A80036;stroke-width:1.25;stroke-dasharray:7.0,7.0;"/><polygon fill="#A80036" points="697.1125,427.925,708.314,422.8172,701.2559,423.2458,700.8273,416.1878,697.1125,427.925" style="stroke:#A80036;stroke-width:1.25;"/><!--MD5=[456fdd6027b3679f9d3961547da5f10a]
link TestStore to CATest--><path codeLine="88" d="M462.3625,757.6125 C548.55,782.4 644.775,810.0625 720.675,831.9 " fill="none" id="TestStore-to-CATest" style="stroke:#A80036;stroke-width:1.25;"/><polygon fill="#A80036" points="727.025,833.725,717.5815,825.8268,721.0155,832.008,714.8342,835.442,727.025,833.725" style="stroke:#A80036;stroke-width:1.25;"/><!--MD5=[10fbae209fc802a32152c4eac998534b]
@startuml
skinparam classAttributeIconSize 0


class CreateTestUI {
}


class ClientStore {
+ getClientByTIN(tin)
}


class Company {
- designation
+ getClientStore()
+ getParameterStore()
+ getTestTypeStore()
}



class CreateTestController {
  + getClientByTINAndSaveNhsCode(tin, nhsCode)
  + getTypeOfTestList()
  + addTypeOfTest(code)
  + getParameterList()
  + addParameter(code)
  + createTest()
  + saveTest()

}


class TestStore {
    + createTest(nhsCode, client, typeOfTest, parameterList, labWhereCreated)
    + validateTest(test)
    + saveTest(test)
    + addTest(test)
}

class TestTypeMapper {
    +toDTO(testTypeList)
}

class ParameterMapper {
  +toDTO(parameterList)
}


class TypeOfTest {
  + getCategoryListByTheTypeOfTest()
}

class TypeOfTestStore {
  + getTypeOfTestByCode(code)
}


class ParameterStore {
  + getParameterByCode(code)
  + getParameterListByTheCategory(category)
}

class CATest {
  + create(nhsCode, client, typeOfTest, parameterList, labWhereCreated)
}



CreateTestUI ..> CreateTestController

CreateTestController ..> Company

Company "1" - -> "1" TestStore : use
Company "1" - -> "1" ClientStore : use
Company "1" - -> "1" TypeOfTestStore : use
Company "1" - -> "1" ParameterStore : use

CreateTestController ..> CATest
CreateTestController ..> TestStore
CreateTestController ..> TypeOfTestStore
CreateTestController ..> ClientStore
CreateTestController ..> ParameterStore
CreateTestController ..> ParameterMapper
CreateTestController ..> TypeOfTest
CreateTestController ..> TestTypeMapper

TestStore - -> CATest



@enduml

PlantUML version 1.2021.4(Sun Apr 04 09:49:39 BST 2021)
(GPL source distribution)
Java Runtime: OpenJDK Runtime Environment
JVM: OpenJDK 64-Bit Server VM
Default Encoding: Cp1252
Language: pt
Country: PT
--></g></svg>