<?xml version="1.0" encoding="UTF-8" standalone="no"?><svg xmlns="http://www.w3.org/2000/svg" xmlns:xlink="http://www.w3.org/1999/xlink" contentScriptType="application/ecmascript" contentStyleType="text/css" height="433.75px" preserveAspectRatio="none" style="width:1011px;height:433px;" version="1.1" viewBox="0 0 1011 433" width="1011.25px" zoomAndPan="magnify"><defs><filter height="300%" id="f1qjlt3dcnaivy" width="300%" x="-1" y="-1"><feGaussianBlur result="blurOut" stdDeviation="2.5"/><feColorMatrix in="blurOut" result="blurOut2" type="matrix" values="0 0 0 0 0 0 0 0 0 0 0 0 0 0 0 0 0 0 .4 0"/><feOffset dx="5.0" dy="5.0" in="blurOut2" result="blurOut3"/><feBlend in="SourceGraphic" in2="blurOut3" mode="normal"/></filter></defs><g><!--MD5=[02e4b9b7573f1156f41e60aa5b4e25a4]
class Company--><rect codeLine="5" fill="#FEFECE" filter="url(#f1qjlt3dcnaivy)" height="67.2949" id="Company" style="stroke:#A80036;stroke-width:1.875;" width="106.25" x="11.875" y="155.625"/><ellipse cx="30.625" cy="175.625" fill="#ADD1B2" rx="13.75" ry="13.75" style="stroke:#A80036;stroke-width:1.25;"/><path d="M33.125,171.25 Q33.3789,170.625 33.6719,170.3125 Q33.9648,170 34.2969,170 Q34.8828,170 35.2539,170.3516 Q35.625,170.7031 35.625,171.5234 L35.625,173.4766 Q35.625,174.2969 35.2734,174.6484 Q34.9219,175 34.375,175 Q33.8867,175 33.5742,174.7852 Q33.2617,174.5703 33.125,174.0039 Q33.0664,173.6133 32.8516,173.3984 Q32.4609,172.9883 31.7578,172.7539 Q31.0547,172.5 30.3516,172.5 Q29.4727,172.5 28.7305,172.8516 Q28.0078,173.2031 27.4414,173.9844 Q26.875,174.7656 26.875,175.8398 L26.875,176.9922 Q26.875,178.2813 27.9297,179.1406 Q28.9844,180 30.8594,180 Q31.9727,180 32.7539,179.7461 Q33.2031,179.6094 33.7109,179.1602 Q34.043,178.9063 34.2188,178.8281 Q34.3945,178.75 34.6094,178.75 Q35.0195,178.75 35.3125,179.082 Q35.625,179.3945 35.625,179.8438 Q35.625,180.2734 35.1953,180.7813 Q34.5703,181.5234 33.5742,181.9336 Q32.2656,182.5 30.6641,182.5 Q28.7891,182.5 27.2852,181.7578 Q26.0742,181.1719 25.2148,179.9023 Q24.375,178.6328 24.375,177.1289 L24.375,175.7617 Q24.375,174.1992 25.1172,172.832 Q25.8789,171.4648 27.1875,170.7422 Q28.5156,170 30,170 Q30.8984,170 31.6797,170.3125 Q32.4609,170.625 33.125,171.25 Z " fill="#000000"/><text fill="#000000" font-family="sans-serif" font-size="15" lengthAdjust="spacing" textLength="66.25" x="48.125" y="181.7627">Company</text><line style="stroke:#A80036;stroke-width:1.875;" x1="13.125" x2="116.875" y1="195.625" y2="195.625"/><text fill="#000000" font-family="sans-serif" font-size="13.75" lengthAdjust="spacing" textLength="73.75" x="19.375" y="214.8987">-designation</text><!--MD5=[df38be88ccee13e832d6fafd6288a4ca]
class Test--><rect codeLine="9" fill="#FEFECE" filter="url(#f1qjlt3dcnaivy)" height="101.8848" id="Test" style="stroke:#A80036;stroke-width:1.875;" width="95" x="277.5" y="219.375"/><ellipse cx="307.5" cy="239.375" fill="#ADD1B2" rx="13.75" ry="13.75" style="stroke:#A80036;stroke-width:1.25;"/><path d="M310,235 Q310.2539,234.375 310.5469,234.0625 Q310.8398,233.75 311.1719,233.75 Q311.7578,233.75 312.1289,234.1016 Q312.5,234.4531 312.5,235.2734 L312.5,237.2266 Q312.5,238.0469 312.1484,238.3984 Q311.7969,238.75 311.25,238.75 Q310.7617,238.75 310.4492,238.5352 Q310.1367,238.3203 310,237.7539 Q309.9414,237.3633 309.7266,237.1484 Q309.3359,236.7383 308.6328,236.5039 Q307.9297,236.25 307.2266,236.25 Q306.3477,236.25 305.6055,236.6016 Q304.8828,236.9531 304.3164,237.7344 Q303.75,238.5156 303.75,239.5898 L303.75,240.7422 Q303.75,242.0313 304.8047,242.8906 Q305.8594,243.75 307.7344,243.75 Q308.8477,243.75 309.6289,243.4961 Q310.0781,243.3594 310.5859,242.9102 Q310.918,242.6563 311.0938,242.5781 Q311.2695,242.5 311.4844,242.5 Q311.8945,242.5 312.1875,242.832 Q312.5,243.1445 312.5,243.5938 Q312.5,244.0234 312.0703,244.5313 Q311.4453,245.2734 310.4492,245.6836 Q309.1406,246.25 307.5391,246.25 Q305.6641,246.25 304.1602,245.5078 Q302.9492,244.9219 302.0898,243.6523 Q301.25,242.3828 301.25,240.8789 L301.25,239.5117 Q301.25,237.9492 301.9922,236.582 Q302.7539,235.2148 304.0625,234.4922 Q305.3906,233.75 306.875,233.75 Q307.7734,233.75 308.5547,234.0625 Q309.3359,234.375 310,235 Z " fill="#000000"/><text fill="#000000" font-family="sans-serif" font-size="15" lengthAdjust="spacing" textLength="30" x="327.5" y="245.5127">Test</text><line style="stroke:#A80036;stroke-width:1.875;" x1="278.75" x2="371.25" y1="259.375" y2="259.375"/><text fill="#000000" font-family="sans-serif" font-size="13.75" lengthAdjust="spacing" textLength="58.75" x="285" y="278.6487">-nhsCode</text><text fill="#000000" font-family="sans-serif" font-size="13.75" lengthAdjust="spacing" textLength="80" x="285" y="295.9436">-internalCode</text><text fill="#000000" font-family="sans-serif" font-size="13.75" lengthAdjust="spacing" textLength="68.75" x="285" y="313.2385">-createdAT</text><!--MD5=[f69a48f7b38bde3533dca6607cc4e94a]
class TypeOfTest--><rect codeLine="15" fill="#FEFECE" filter="url(#f1qjlt3dcnaivy)" height="101.8848" id="TypeOfTest" style="stroke:#A80036;stroke-width:1.875;" width="120" x="589.375" y="241.875"/><ellipse cx="609.25" cy="261.875" fill="#ADD1B2" rx="13.75" ry="13.75" style="stroke:#A80036;stroke-width:1.25;"/><path d="M611.75,257.5 Q612.0039,256.875 612.2969,256.5625 Q612.5898,256.25 612.9219,256.25 Q613.5078,256.25 613.8789,256.6016 Q614.25,256.9531 614.25,257.7734 L614.25,259.7266 Q614.25,260.5469 613.8984,260.8984 Q613.5469,261.25 613,261.25 Q612.5117,261.25 612.1992,261.0352 Q611.8867,260.8203 611.75,260.2539 Q611.6914,259.8633 611.4766,259.6484 Q611.0859,259.2383 610.3828,259.0039 Q609.6797,258.75 608.9766,258.75 Q608.0977,258.75 607.3555,259.1016 Q606.6328,259.4531 606.0664,260.2344 Q605.5,261.0156 605.5,262.0898 L605.5,263.2422 Q605.5,264.5313 606.5547,265.3906 Q607.6094,266.25 609.4844,266.25 Q610.5977,266.25 611.3789,265.9961 Q611.8281,265.8594 612.3359,265.4102 Q612.668,265.1563 612.8438,265.0781 Q613.0195,265 613.2344,265 Q613.6445,265 613.9375,265.332 Q614.25,265.6445 614.25,266.0938 Q614.25,266.5234 613.8203,267.0313 Q613.1953,267.7734 612.1992,268.1836 Q610.8906,268.75 609.2891,268.75 Q607.4141,268.75 605.9102,268.0078 Q604.6992,267.4219 603.8398,266.1523 Q603,264.8828 603,263.3789 L603,262.0117 Q603,260.4492 603.7422,259.082 Q604.5039,257.7148 605.8125,256.9922 Q607.1406,256.25 608.625,256.25 Q609.5234,256.25 610.3047,256.5625 Q611.0859,256.875 611.75,257.5 Z " fill="#000000"/><text fill="#000000" font-family="sans-serif" font-size="15" lengthAdjust="spacing" textLength="77.5" x="627" y="268.0127">TypeOfTest</text><line style="stroke:#A80036;stroke-width:1.875;" x1="590.625" x2="708.125" y1="281.875" y2="281.875"/><text fill="#000000" font-family="sans-serif" font-size="13.75" lengthAdjust="spacing" textLength="35" x="596.875" y="301.1487">-code</text><text fill="#000000" font-family="sans-serif" font-size="13.75" lengthAdjust="spacing" textLength="71.25" x="596.875" y="318.4436">-description</text><text fill="#000000" font-family="sans-serif" font-size="13.75" lengthAdjust="spacing" textLength="105" x="596.875" y="335.7385">-collectingMethod</text><!--MD5=[ed6624c6556d5e7b1bd23032162d20b7]
class Client--><rect codeLine="23" fill="#FEFECE" filter="url(#f1qjlt3dcnaivy)" height="188.3594" id="Client" style="stroke:#A80036;stroke-width:1.875;" width="133.75" x="582.5" y="8.75"/><ellipse cx="625.4375" cy="28.75" fill="#ADD1B2" rx="13.75" ry="13.75" style="stroke:#A80036;stroke-width:1.25;"/><path d="M627.9375,24.375 Q628.1914,23.75 628.4844,23.4375 Q628.7773,23.125 629.1094,23.125 Q629.6953,23.125 630.0664,23.4766 Q630.4375,23.8281 630.4375,24.6484 L630.4375,26.6016 Q630.4375,27.4219 630.0859,27.7734 Q629.7344,28.125 629.1875,28.125 Q628.6992,28.125 628.3867,27.9102 Q628.0742,27.6953 627.9375,27.1289 Q627.8789,26.7383 627.6641,26.5234 Q627.2734,26.1133 626.5703,25.8789 Q625.8672,25.625 625.1641,25.625 Q624.2852,25.625 623.543,25.9766 Q622.8203,26.3281 622.2539,27.1094 Q621.6875,27.8906 621.6875,28.9648 L621.6875,30.1172 Q621.6875,31.4063 622.7422,32.2656 Q623.7969,33.125 625.6719,33.125 Q626.7852,33.125 627.5664,32.8711 Q628.0156,32.7344 628.5234,32.2852 Q628.8555,32.0313 629.0313,31.9531 Q629.207,31.875 629.4219,31.875 Q629.832,31.875 630.125,32.207 Q630.4375,32.5195 630.4375,32.9688 Q630.4375,33.3984 630.0078,33.9063 Q629.3828,34.6484 628.3867,35.0586 Q627.0781,35.625 625.4766,35.625 Q623.6016,35.625 622.0977,34.8828 Q620.8867,34.2969 620.0273,33.0273 Q619.1875,31.7578 619.1875,30.2539 L619.1875,28.8867 Q619.1875,27.3242 619.9297,25.957 Q620.6914,24.5898 622,23.8672 Q623.3281,23.125 624.8125,23.125 Q625.7109,23.125 626.4922,23.4375 Q627.2734,23.75 627.9375,24.375 Z " fill="#000000"/><text fill="#000000" font-family="sans-serif" font-size="15" lengthAdjust="spacing" textLength="40" x="648.3125" y="34.8877">Client</text><line style="stroke:#A80036;stroke-width:1.875;" x1="583.75" x2="715" y1="48.75" y2="48.75"/><text fill="#000000" font-family="sans-serif" font-size="13.75" lengthAdjust="spacing" textLength="37.5" x="590" y="68.0237">-name</text><text fill="#000000" font-family="sans-serif" font-size="13.75" lengthAdjust="spacing" textLength="118.75" x="590" y="85.3186">-citizenCardNumber</text><text fill="#000000" font-family="sans-serif" font-size="13.75" lengthAdjust="spacing" textLength="73.75" x="590" y="102.6135">-nhsNumber</text><text fill="#000000" font-family="sans-serif" font-size="13.75" lengthAdjust="spacing" textLength="58.75" x="590" y="119.9084">-birthDate</text><text fill="#000000" font-family="sans-serif" font-size="13.75" lengthAdjust="spacing" textLength="27.5" x="590" y="137.2034">-sex</text><text fill="#000000" font-family="sans-serif" font-size="13.75" lengthAdjust="spacing" textLength="18.75" x="590" y="154.4983">-tin</text><text fill="#000000" font-family="sans-serif" font-size="13.75" lengthAdjust="spacing" textLength="88.75" x="590" y="171.7932">-phoneNumber</text><text fill="#000000" font-family="sans-serif" font-size="13.75" lengthAdjust="spacing" textLength="35" x="590" y="189.0881">-email</text><!--MD5=[1f6362a5c8f21d8d6a0fce68f3a92a4e]
class Parameter--><rect codeLine="34" fill="#FEFECE" filter="url(#f1qjlt3dcnaivy)" height="101.8848" id="Parameter" style="stroke:#A80036;stroke-width:1.875;" width="112.5" x="8.75" y="274.375"/><ellipse cx="27.5" cy="294.375" fill="#ADD1B2" rx="13.75" ry="13.75" style="stroke:#A80036;stroke-width:1.25;"/><path d="M30,290 Q30.2539,289.375 30.5469,289.0625 Q30.8398,288.75 31.1719,288.75 Q31.7578,288.75 32.1289,289.1016 Q32.5,289.4531 32.5,290.2734 L32.5,292.2266 Q32.5,293.0469 32.1484,293.3984 Q31.7969,293.75 31.25,293.75 Q30.7617,293.75 30.4492,293.5352 Q30.1367,293.3203 30,292.7539 Q29.9414,292.3633 29.7266,292.1484 Q29.3359,291.7383 28.6328,291.5039 Q27.9297,291.25 27.2266,291.25 Q26.3477,291.25 25.6055,291.6016 Q24.8828,291.9531 24.3164,292.7344 Q23.75,293.5156 23.75,294.5898 L23.75,295.7422 Q23.75,297.0313 24.8047,297.8906 Q25.8594,298.75 27.7344,298.75 Q28.8477,298.75 29.6289,298.4961 Q30.0781,298.3594 30.5859,297.9102 Q30.918,297.6563 31.0938,297.5781 Q31.2695,297.5 31.4844,297.5 Q31.8945,297.5 32.1875,297.832 Q32.5,298.1445 32.5,298.5938 Q32.5,299.0234 32.0703,299.5313 Q31.4453,300.2734 30.4492,300.6836 Q29.1406,301.25 27.5391,301.25 Q25.6641,301.25 24.1602,300.5078 Q22.9492,299.9219 22.0898,298.6523 Q21.25,297.3828 21.25,295.8789 L21.25,294.5117 Q21.25,292.9492 21.9922,291.582 Q22.7539,290.2148 24.0625,289.4922 Q25.3906,288.75 26.875,288.75 Q27.7734,288.75 28.5547,289.0625 Q29.3359,289.375 30,290 Z " fill="#000000"/><text fill="#000000" font-family="sans-serif" font-size="15" lengthAdjust="spacing" textLength="72.5" x="45" y="300.5127">Parameter</text><line style="stroke:#A80036;stroke-width:1.875;" x1="10" x2="120" y1="314.375" y2="314.375"/><text fill="#000000" font-family="sans-serif" font-size="13.75" lengthAdjust="spacing" textLength="37.5" x="16.25" y="333.6487">-name</text><text fill="#000000" font-family="sans-serif" font-size="13.75" lengthAdjust="spacing" textLength="35" x="16.25" y="350.9436">-code</text><text fill="#000000" font-family="sans-serif" font-size="13.75" lengthAdjust="spacing" textLength="71.25" x="16.25" y="368.2385">-description</text><!--MD5=[36afb6bbd95a8ac778c4537c55a683d5]
class ParameterCategory--><rect codeLine="40" fill="#FEFECE" filter="url(#f1qjlt3dcnaivy)" height="84.5898" id="ParameterCategory" style="stroke:#A80036;stroke-width:1.875;" width="173.75" x="820" y="331.875"/><ellipse cx="838.75" cy="351.875" fill="#ADD1B2" rx="13.75" ry="13.75" style="stroke:#A80036;stroke-width:1.25;"/><path d="M841.25,347.5 Q841.5039,346.875 841.7969,346.5625 Q842.0898,346.25 842.4219,346.25 Q843.0078,346.25 843.3789,346.6016 Q843.75,346.9531 843.75,347.7734 L843.75,349.7266 Q843.75,350.5469 843.3984,350.8984 Q843.0469,351.25 842.5,351.25 Q842.0117,351.25 841.6992,351.0352 Q841.3867,350.8203 841.25,350.2539 Q841.1914,349.8633 840.9766,349.6484 Q840.5859,349.2383 839.8828,349.0039 Q839.1797,348.75 838.4766,348.75 Q837.5977,348.75 836.8555,349.1016 Q836.1328,349.4531 835.5664,350.2344 Q835,351.0156 835,352.0898 L835,353.2422 Q835,354.5313 836.0547,355.3906 Q837.1094,356.25 838.9844,356.25 Q840.0977,356.25 840.8789,355.9961 Q841.3281,355.8594 841.8359,355.4102 Q842.168,355.1563 842.3438,355.0781 Q842.5195,355 842.7344,355 Q843.1445,355 843.4375,355.332 Q843.75,355.6445 843.75,356.0938 Q843.75,356.5234 843.3203,357.0313 Q842.6953,357.7734 841.6992,358.1836 Q840.3906,358.75 838.7891,358.75 Q836.9141,358.75 835.4102,358.0078 Q834.1992,357.4219 833.3398,356.1523 Q832.5,354.8828 832.5,353.3789 L832.5,352.0117 Q832.5,350.4492 833.2422,349.082 Q834.0039,347.7148 835.3125,346.9922 Q836.6406,346.25 838.125,346.25 Q839.0234,346.25 839.8047,346.5625 Q840.5859,346.875 841.25,347.5 Z " fill="#000000"/><text fill="#000000" font-family="sans-serif" font-size="15" lengthAdjust="spacing" textLength="133.75" x="856.25" y="358.0127">ParameterCategory</text><line style="stroke:#A80036;stroke-width:1.875;" x1="821.25" x2="992.5" y1="371.875" y2="371.875"/><text fill="#000000" font-family="sans-serif" font-size="13.75" lengthAdjust="spacing" textLength="35" x="827.5" y="391.1487">-code</text><text fill="#000000" font-family="sans-serif" font-size="13.75" lengthAdjust="spacing" textLength="37.5" x="827.5" y="408.4436">-name</text><!--MD5=[7e4bc624457760b649895ff2ead938fa]
link Company to Test--><path codeLine="46" d="M118.3625,205.8125 C164.95,220.5125 232.575,241.8625 277.3375,255.975 " fill="none" id="Company-Test" style="stroke:#A80036;stroke-width:1.25;"/><polygon fill="#000000" points="170.9603,210.2254,161.2834,203.3198,159.0725,210.3266,170.9603,210.2254" style="stroke:#000000;stroke-width:1.25;"/><text fill="#000000" font-family="sans-serif" font-size="16.25" lengthAdjust="spacing" textLength="62.5" x="176.25" y="214.9939">performs</text><text fill="#000000" font-family="sans-serif" font-size="16.25" lengthAdjust="spacing" textLength="8.75" x="128.2861" y="227.2807">1</text><text fill="#000000" font-family="sans-serif" font-size="16.25" lengthAdjust="spacing" textLength="6.25" x="261.4061" y="272.058">*</text><!--MD5=[14ee0e434cef03b3d48ccfb011c195a6]
link Test to TypeOfTest--><path codeLine="47" d="M372.7125,273.875 C429.8125,277.8625 526.7875,284.6375 589.1,289 " fill="none" id="Test-TypeOfTest" style="stroke:#A80036;stroke-width:1.25;"/><polygon fill="#000000" points="465.6098,265.0305,454.5871,260.5774,454.0748,267.9069,465.6098,265.0305" style="stroke:#000000;stroke-width:1.25;"/><text fill="#000000" font-family="sans-serif" font-size="16.25" lengthAdjust="spacing" textLength="30" x="470.625" y="271.2439">is of</text><text fill="#000000" font-family="sans-serif" font-size="16.25" lengthAdjust="spacing" textLength="6.25" x="382.4034" y="293.3702">*</text><text fill="#000000" font-family="sans-serif" font-size="16.25" lengthAdjust="spacing" textLength="8.75" x="570.4505" y="306.8493">1</text><!--MD5=[3994f36c72829dbcddd1cf7021dddf61]
link Test to Client--><path codeLine="48" d="M372.7375,250.85 C417.6,231.3 487.0375,199.8125 545,168.125 C557.25,161.425 570.05,153.8625 582.2875,146.325 " fill="none" id="Test-Client" style="stroke:#A80036;stroke-width:1.25;"/><polygon fill="#000000" points="433.0928,154.305,421.3355,156.0643,424.6151,162.6391,433.0928,154.305" style="stroke:#000000;stroke-width:1.25;"/><text fill="#000000" font-family="sans-serif" font-size="16.25" lengthAdjust="spacing" textLength="93.75" x="438.75" y="163.7439">requested by</text><text fill="#000000" font-family="sans-serif" font-size="16.25" lengthAdjust="spacing" textLength="25" x="382.3379" y="266.2451">1..*</text><text fill="#000000" font-family="sans-serif" font-size="16.25" lengthAdjust="spacing" textLength="8.75" x="563.9347" y="170.3984">1</text><!--MD5=[6df8849671cb880f6936e94aa30db6f9]
link Parameter to ParameterCategory--><path codeLine="49" d="M121.3875,330.75 C164,334.65 224.475,340.0625 277.5,344.375 C412.975,355.3875 446.7375,360.3 582.5,366.875 C662.925,370.775 754.7125,372.6625 819.8625,373.5625 " fill="none" id="Parameter-ParameterCategory" style="stroke:#A80036;stroke-width:1.25;"/><polygon fill="#000000" points="422.4883,344.9771,411.4279,340.6186,410.9784,347.9522,422.4883,344.9771" style="stroke:#000000;stroke-width:1.25;"/><text fill="#000000" font-family="sans-serif" font-size="16.25" lengthAdjust="spacing" textLength="116.25" x="427.5" y="351.2439">presented under</text><text fill="#000000" font-family="sans-serif" font-size="16.25" lengthAdjust="spacing" textLength="25" x="131.0748" y="349.82">1..*</text><text fill="#000000" font-family="sans-serif" font-size="16.25" lengthAdjust="spacing" textLength="8.75" x="801.117" y="391.4827">1</text><!--MD5=[4265453a012991a726928e22789b8a83]
link Parameter to Test--><path codeLine="50" d="M121.4875,313.825 C165.7125,304.375 227.35,291.2125 270.925,281.9125 " fill="none" id="Parameter-to-Test" style="stroke:#A80036;stroke-width:1.25;"/><polygon fill="#A80036" points="277.225,280.5625,265.1806,278.0139,271.1119,281.8635,267.2623,287.7948,277.225,280.5625" style="stroke:#A80036;stroke-width:1.25;"/><polygon fill="#000000" points="189.2372,277.0395,177.4129,275.8081,178.9474,282.9934,189.2372,277.0395" style="stroke:#000000;stroke-width:1.25;"/><text fill="#000000" font-family="sans-serif" font-size="16.25" lengthAdjust="spacing" textLength="26.25" x="194.375" y="284.9939">has</text><text fill="#000000" font-family="sans-serif" font-size="16.25" lengthAdjust="spacing" textLength="25" x="131.1889" y="330.5149">1..*</text><text fill="#000000" font-family="sans-serif" font-size="16.25" lengthAdjust="spacing" textLength="8.75" x="258.8598" y="301.2046">1</text><!--MD5=[334b578e13447cb92b44420585535b5d]
link TypeOfTest to ParameterCategory--><path codeLine="51" d="M709.45,311.8625 C740.3125,321.7 778.8375,333.975 813.55,345.0375 " fill="none" id="TypeOfTest-to-ParameterCategory" style="stroke:#A80036;stroke-width:1.25;"/><polygon fill="#A80036" points="819.5375,346.95,810.3493,338.7562,813.5855,345.0432,807.2984,348.2794,819.5375,346.95" style="stroke:#A80036;stroke-width:1.25;"/><text fill="#000000" font-family="sans-serif" font-size="16.25" lengthAdjust="spacing" textLength="26.25" x="755" y="321.2439">has</text><text fill="#000000" font-family="sans-serif" font-size="16.25" lengthAdjust="spacing" textLength="8.75" x="719.3189" y="333.2126">1</text><text fill="#000000" font-family="sans-serif" font-size="16.25" lengthAdjust="spacing" textLength="25" x="785.0217" y="362.1986">1..*</text><!--MD5=[6eee883fdf517d3604e8bd0f2058e9aa]
link Company to Client--><path codeLine="52" d="M118.4,181.65 C222.675,166.1875 457.05,131.45 575.975,113.825 " fill="none" id="Company-to-Client" style="stroke:#A80036;stroke-width:1.25;"/><polygon fill="#A80036" points="582.25,112.8875,570.3925,109.5765,576.0664,113.7963,571.8466,119.4702,582.25,112.8875" style="stroke:#A80036;stroke-width:1.25;"/><text fill="#000000" font-family="sans-serif" font-size="16.25" lengthAdjust="spacing" textLength="46.25" x="301.875" y="139.9939">knows</text><text fill="#000000" font-family="sans-serif" font-size="16.25" lengthAdjust="spacing" textLength="8.75" x="127.969" y="198.9491">1</text><text fill="#000000" font-family="sans-serif" font-size="16.25" lengthAdjust="spacing" textLength="25" x="547.5457" y="132.2155">1..*</text><!--MD5=[8fdc08fe5213c55657d7ba8842d37a8a]
@startuml
hide methods
left to right direction
skinparam classAttributeIconSize 0

class Company {
 -designation
}

class Test {
  - nhsCode
  - internalCode
  - createdAT
 }

class TypeOfTest {
  -code
  -description
  -collectingMethod
}



class Client {
  - name
  - citizenCardNumber
  - nhsNumber
  - birthDate
  - sex
  - tin
  - phoneNumber
  - email
}

class Parameter {
-name
-code
-description
}

class ParameterCategory {
-code
-name
}


Company "1" - - "*" Test : performs >
Test "*" - - "1" TypeOfTest: is of >
Test "1..*" - - "1" Client: requested by >
Parameter "1..*" - - "1" ParameterCategory: presented under >
Parameter "1..*" - -> "1" Test : has >
TypeOfTest "1" - -> "1..*" ParameterCategory :  has
Company "1" - -> "1..*" Client : knows

@enduml

PlantUML version 1.2021.4(Sun Apr 04 09:49:39 BST 2021)
(GPL source distribution)
Java Runtime: OpenJDK Runtime Environment
JVM: OpenJDK 64-Bit Server VM
Default Encoding: Cp1252
Language: pt
Country: PT
--></g></svg>