<?xml version="1.0" encoding="UTF-8" standalone="no"?><svg xmlns="http://www.w3.org/2000/svg" xmlns:xlink="http://www.w3.org/1999/xlink" contentScriptType="application/ecmascript" contentStyleType="text/css" height="1488.75px" preserveAspectRatio="none" style="width:1631px;height:1488px;" version="1.1" viewBox="0 0 1631 1488" width="1631.25px" zoomAndPan="magnify"><defs><filter height="300%" id="fal7dcpqofdlu" width="300%" x="-1" y="-1"><feGaussianBlur result="blurOut" stdDeviation="2.5"/><feColorMatrix in="blurOut" result="blurOut2" type="matrix" values="0 0 0 0 0 0 0 0 0 0 0 0 0 0 0 0 0 0 .4 0"/><feOffset dx="5.0" dy="5.0" in="blurOut2" result="blurOut3"/><feBlend in="SourceGraphic" in2="blurOut3" mode="normal"/></filter></defs><g><!--MD5=[d1151b490b47c26d82d7d928d07b6146]
class RecordResultUI--><rect codeLine="2" fill="#FEFECE" filter="url(#fal7dcpqofdlu)" height="60" id="RecordResultUI" style="stroke:#A80036;stroke-width:1.875;" width="150" x="511.875" y="8.75"/><ellipse cx="530.625" cy="28.75" fill="#ADD1B2" rx="13.75" ry="13.75" style="stroke:#A80036;stroke-width:1.25;"/><path d="M533.125,24.375 Q533.3789,23.75 533.6719,23.4375 Q533.9648,23.125 534.2969,23.125 Q534.8828,23.125 535.2539,23.4766 Q535.625,23.8281 535.625,24.6484 L535.625,26.6016 Q535.625,27.4219 535.2734,27.7734 Q534.9219,28.125 534.375,28.125 Q533.8867,28.125 533.5742,27.9102 Q533.2617,27.6953 533.125,27.1289 Q533.0664,26.7383 532.8516,26.5234 Q532.4609,26.1133 531.7578,25.8789 Q531.0547,25.625 530.3516,25.625 Q529.4727,25.625 528.7305,25.9766 Q528.0078,26.3281 527.4414,27.1094 Q526.875,27.8906 526.875,28.9648 L526.875,30.1172 Q526.875,31.4063 527.9297,32.2656 Q528.9844,33.125 530.8594,33.125 Q531.9727,33.125 532.7539,32.8711 Q533.2031,32.7344 533.7109,32.2852 Q534.043,32.0313 534.2188,31.9531 Q534.3945,31.875 534.6094,31.875 Q535.0195,31.875 535.3125,32.207 Q535.625,32.5195 535.625,32.9688 Q535.625,33.3984 535.1953,33.9063 Q534.5703,34.6484 533.5742,35.0586 Q532.2656,35.625 530.6641,35.625 Q528.7891,35.625 527.2852,34.8828 Q526.0742,34.2969 525.2148,33.0273 Q524.375,31.7578 524.375,30.2539 L524.375,28.8867 Q524.375,27.3242 525.1172,25.957 Q525.8789,24.5898 527.1875,23.8672 Q528.5156,23.125 530,23.125 Q530.8984,23.125 531.6797,23.4375 Q532.4609,23.75 533.125,24.375 Z " fill="#000000"/><text fill="#000000" font-family="sans-serif" font-size="15" lengthAdjust="spacing" textLength="110" x="548.125" y="34.8877">RecordResultUI</text><line style="stroke:#A80036;stroke-width:1.875;" x1="513.125" x2="660.625" y1="48.75" y2="48.75"/><line style="stroke:#A80036;stroke-width:1.875;" x1="513.125" x2="660.625" y1="58.75" y2="58.75"/><!--MD5=[b7749eeb332e823be77fccb8e3a3d9bf]
class RecordResultController--><rect codeLine="5" fill="#FEFECE" filter="url(#fal7dcpqofdlu)" height="129.1797" id="RecordResultController" style="stroke:#A80036;stroke-width:1.875;" width="366.25" x="403.75" y="145"/><ellipse cx="500.3125" cy="165" fill="#ADD1B2" rx="13.75" ry="13.75" style="stroke:#A80036;stroke-width:1.25;"/><path d="M502.8125,160.625 Q503.0664,160 503.3594,159.6875 Q503.6523,159.375 503.9844,159.375 Q504.5703,159.375 504.9414,159.7266 Q505.3125,160.0781 505.3125,160.8984 L505.3125,162.8516 Q505.3125,163.6719 504.9609,164.0234 Q504.6094,164.375 504.0625,164.375 Q503.5742,164.375 503.2617,164.1602 Q502.9492,163.9453 502.8125,163.3789 Q502.7539,162.9883 502.5391,162.7734 Q502.1484,162.3633 501.4453,162.1289 Q500.7422,161.875 500.0391,161.875 Q499.1602,161.875 498.418,162.2266 Q497.6953,162.5781 497.1289,163.3594 Q496.5625,164.1406 496.5625,165.2148 L496.5625,166.3672 Q496.5625,167.6563 497.6172,168.5156 Q498.6719,169.375 500.5469,169.375 Q501.6602,169.375 502.4414,169.1211 Q502.8906,168.9844 503.3984,168.5352 Q503.7305,168.2813 503.9063,168.2031 Q504.082,168.125 504.2969,168.125 Q504.707,168.125 505,168.457 Q505.3125,168.7695 505.3125,169.2188 Q505.3125,169.6484 504.8828,170.1563 Q504.2578,170.8984 503.2617,171.3086 Q501.9531,171.875 500.3516,171.875 Q498.4766,171.875 496.9727,171.1328 Q495.7617,170.5469 494.9023,169.2773 Q494.0625,168.0078 494.0625,166.5039 L494.0625,165.1367 Q494.0625,163.5742 494.8047,162.207 Q495.5664,160.8398 496.875,160.1172 Q498.2031,159.375 499.6875,159.375 Q500.5859,159.375 501.3672,159.6875 Q502.1484,160 502.8125,160.625 Z " fill="#000000"/><text fill="#000000" font-family="sans-serif" font-size="15" lengthAdjust="spacing" textLength="162.5" x="525.9375" y="171.1377">RecordResultController</text><line style="stroke:#A80036;stroke-width:1.875;" x1="405" x2="768.75" y1="185" y2="185"/><line style="stroke:#A80036;stroke-width:1.875;" x1="405" x2="768.75" y1="195" y2="195"/><ellipse cx="417.5" cy="208.75" fill="#84BE84" rx="3.75" ry="3.75" style="stroke:#038048;stroke-width:1.25;"/><text fill="#000000" font-family="sans-serif" font-size="13.75" lengthAdjust="spacing" textLength="173.75" x="428.75" y="214.2737">getListOfTestWithoutResult()</text><ellipse cx="417.5" cy="226.0449" fill="#84BE84" rx="3.75" ry="3.75" style="stroke:#038048;stroke-width:1.25;"/><text fill="#000000" font-family="sans-serif" font-size="13.75" lengthAdjust="spacing" textLength="130" x="428.75" y="231.5686">getTest(internalCode)</text><ellipse cx="417.5" cy="243.3398" fill="#84BE84" rx="3.75" ry="3.75" style="stroke:#038048;stroke-width:1.25;"/><text fill="#000000" font-family="sans-serif" font-size="13.75" lengthAdjust="spacing" textLength="333.75" x="428.75" y="248.8635">addParameterTestResult(parameterCode, value, metric)</text><ellipse cx="417.5" cy="260.6348" fill="#84BE84" rx="3.75" ry="3.75" style="stroke:#038048;stroke-width:1.25;"/><text fill="#000000" font-family="sans-serif" font-size="13.75" lengthAdjust="spacing" textLength="170" x="428.75" y="266.1584">changeStateToResultDone()</text><!--MD5=[02e4b9b7573f1156f41e60aa5b4e25a4]
class Company--><rect codeLine="12" fill="#FEFECE" filter="url(#fal7dcpqofdlu)" height="94.5898" id="Company" style="stroke:#A80036;stroke-width:1.875;" width="120" x="433.125" y="350"/><ellipse cx="458.0625" cy="370" fill="#ADD1B2" rx="13.75" ry="13.75" style="stroke:#A80036;stroke-width:1.25;"/><path d="M460.5625,365.625 Q460.8164,365 461.1094,364.6875 Q461.4023,364.375 461.7344,364.375 Q462.3203,364.375 462.6914,364.7266 Q463.0625,365.0781 463.0625,365.8984 L463.0625,367.8516 Q463.0625,368.6719 462.7109,369.0234 Q462.3594,369.375 461.8125,369.375 Q461.3242,369.375 461.0117,369.1602 Q460.6992,368.9453 460.5625,368.3789 Q460.5039,367.9883 460.2891,367.7734 Q459.8984,367.3633 459.1953,367.1289 Q458.4922,366.875 457.7891,366.875 Q456.9102,366.875 456.168,367.2266 Q455.4453,367.5781 454.8789,368.3594 Q454.3125,369.1406 454.3125,370.2148 L454.3125,371.3672 Q454.3125,372.6563 455.3672,373.5156 Q456.4219,374.375 458.2969,374.375 Q459.4102,374.375 460.1914,374.1211 Q460.6406,373.9844 461.1484,373.5352 Q461.4805,373.2813 461.6563,373.2031 Q461.832,373.125 462.0469,373.125 Q462.457,373.125 462.75,373.457 Q463.0625,373.7695 463.0625,374.2188 Q463.0625,374.6484 462.6328,375.1563 Q462.0078,375.8984 461.0117,376.3086 Q459.7031,376.875 458.1016,376.875 Q456.2266,376.875 454.7227,376.1328 Q453.5117,375.5469 452.6523,374.2773 Q451.8125,373.0078 451.8125,371.5039 L451.8125,370.1367 Q451.8125,368.5742 452.5547,367.207 Q453.3164,365.8398 454.625,365.1172 Q455.9531,364.375 457.4375,364.375 Q458.3359,364.375 459.1172,364.6875 Q459.8984,365 460.5625,365.625 Z " fill="#000000"/><text fill="#000000" font-family="sans-serif" font-size="15" lengthAdjust="spacing" textLength="66.25" x="476.9375" y="376.1377">Company</text><line style="stroke:#A80036;stroke-width:1.875;" x1="434.375" x2="551.875" y1="390" y2="390"/><rect fill="none" height="7.5" style="stroke:#C82930;stroke-width:1.25;" width="7.5" x="443.125" y="400"/><text fill="#000000" font-family="sans-serif" font-size="13.75" lengthAdjust="spacing" textLength="66.25" x="458.125" y="409.2737">description</text><line style="stroke:#A80036;stroke-width:1.875;" x1="434.375" x2="551.875" y1="417.2949" y2="417.2949"/><ellipse cx="446.875" cy="431.0449" fill="#84BE84" rx="3.75" ry="3.75" style="stroke:#038048;stroke-width:1.25;"/><text fill="#000000" font-family="sans-serif" font-size="13.75" lengthAdjust="spacing" textLength="87.5" x="458.125" y="436.5686">getTestStore()</text><!--MD5=[0f6f7964b844a64b0496af0dda7914bd]
class TestStore--><rect codeLine="17" fill="#FEFECE" filter="url(#fal7dcpqofdlu)" height="94.5898" id="TestStore" style="stroke:#A80036;stroke-width:1.875;" width="188.75" x="556.25" y="542.5"/><ellipse cx="612.1875" cy="562.5" fill="#ADD1B2" rx="13.75" ry="13.75" style="stroke:#A80036;stroke-width:1.25;"/><path d="M614.6875,558.125 Q614.9414,557.5 615.2344,557.1875 Q615.5273,556.875 615.8594,556.875 Q616.4453,556.875 616.8164,557.2266 Q617.1875,557.5781 617.1875,558.3984 L617.1875,560.3516 Q617.1875,561.1719 616.8359,561.5234 Q616.4844,561.875 615.9375,561.875 Q615.4492,561.875 615.1367,561.6602 Q614.8242,561.4453 614.6875,560.8789 Q614.6289,560.4883 614.4141,560.2734 Q614.0234,559.8633 613.3203,559.6289 Q612.6172,559.375 611.9141,559.375 Q611.0352,559.375 610.293,559.7266 Q609.5703,560.0781 609.0039,560.8594 Q608.4375,561.6406 608.4375,562.7148 L608.4375,563.8672 Q608.4375,565.1563 609.4922,566.0156 Q610.5469,566.875 612.4219,566.875 Q613.5352,566.875 614.3164,566.6211 Q614.7656,566.4844 615.2734,566.0352 Q615.6055,565.7813 615.7813,565.7031 Q615.957,565.625 616.1719,565.625 Q616.582,565.625 616.875,565.957 Q617.1875,566.2695 617.1875,566.7188 Q617.1875,567.1484 616.7578,567.6563 Q616.1328,568.3984 615.1367,568.8086 Q613.8281,569.375 612.2266,569.375 Q610.3516,569.375 608.8477,568.6328 Q607.6367,568.0469 606.7773,566.7773 Q605.9375,565.5078 605.9375,564.0039 L605.9375,562.6367 Q605.9375,561.0742 606.6797,559.707 Q607.4414,558.3398 608.75,557.6172 Q610.0781,556.875 611.5625,556.875 Q612.4609,556.875 613.2422,557.1875 Q614.0234,557.5 614.6875,558.125 Z " fill="#000000"/><text fill="#000000" font-family="sans-serif" font-size="15" lengthAdjust="spacing" textLength="66.25" x="637.8125" y="568.6377">TestStore</text><line style="stroke:#A80036;stroke-width:1.875;" x1="557.5" x2="743.75" y1="582.5" y2="582.5"/><line style="stroke:#A80036;stroke-width:1.875;" x1="557.5" x2="743.75" y1="592.5" y2="592.5"/><ellipse cx="570" cy="606.25" fill="#84BE84" rx="3.75" ry="3.75" style="stroke:#038048;stroke-width:1.25;"/><text fill="#000000" font-family="sans-serif" font-size="13.75" lengthAdjust="spacing" textLength="137.5" x="581.25" y="611.7737">getTestWithoutResult()</text><ellipse cx="570" cy="623.5449" fill="#84BE84" rx="3.75" ry="3.75" style="stroke:#038048;stroke-width:1.25;"/><text fill="#000000" font-family="sans-serif" font-size="13.75" lengthAdjust="spacing" textLength="156.25" x="581.25" y="629.0686">getTestByCode(testCode)</text><!--MD5=[f97b8c00cb514ace9cb97c2a996fb712]
class TestListMapper--><rect codeLine="22" fill="#FEFECE" filter="url(#fal7dcpqofdlu)" height="77.2949" id="TestListMapper" style="stroke:#A80036;stroke-width:1.875;" width="156.25" x="686.25" y="358.75"/><ellipse cx="709.5" cy="378.75" fill="#ADD1B2" rx="13.75" ry="13.75" style="stroke:#A80036;stroke-width:1.25;"/><path d="M712,374.375 Q712.2539,373.75 712.5469,373.4375 Q712.8398,373.125 713.1719,373.125 Q713.7578,373.125 714.1289,373.4766 Q714.5,373.8281 714.5,374.6484 L714.5,376.6016 Q714.5,377.4219 714.1484,377.7734 Q713.7969,378.125 713.25,378.125 Q712.7617,378.125 712.4492,377.9102 Q712.1367,377.6953 712,377.1289 Q711.9414,376.7383 711.7266,376.5234 Q711.3359,376.1133 710.6328,375.8789 Q709.9297,375.625 709.2266,375.625 Q708.3477,375.625 707.6055,375.9766 Q706.8828,376.3281 706.3164,377.1094 Q705.75,377.8906 705.75,378.9648 L705.75,380.1172 Q705.75,381.4063 706.8047,382.2656 Q707.8594,383.125 709.7344,383.125 Q710.8477,383.125 711.6289,382.8711 Q712.0781,382.7344 712.5859,382.2852 Q712.918,382.0313 713.0938,381.9531 Q713.2695,381.875 713.4844,381.875 Q713.8945,381.875 714.1875,382.207 Q714.5,382.5195 714.5,382.9688 Q714.5,383.3984 714.0703,383.9063 Q713.4453,384.6484 712.4492,385.0586 Q711.1406,385.625 709.5391,385.625 Q707.6641,385.625 706.1602,384.8828 Q704.9492,384.2969 704.0898,383.0273 Q703.25,381.7578 703.25,380.2539 L703.25,378.8867 Q703.25,377.3242 703.9922,375.957 Q704.7539,374.5898 706.0625,373.8672 Q707.3906,373.125 708.875,373.125 Q709.7734,373.125 710.5547,373.4375 Q711.3359,373.75 712,374.375 Z " fill="#000000"/><text fill="#000000" font-family="sans-serif" font-size="15" lengthAdjust="spacing" textLength="106.25" x="728" y="384.8877">TestListMapper</text><line style="stroke:#A80036;stroke-width:1.875;" x1="687.5" x2="841.25" y1="398.75" y2="398.75"/><line style="stroke:#A80036;stroke-width:1.875;" x1="687.5" x2="841.25" y1="408.75" y2="408.75"/><ellipse cx="700" cy="422.5" fill="#84BE84" rx="3.75" ry="3.75" style="stroke:#038048;stroke-width:1.25;"/><text fill="#000000" font-family="sans-serif" font-size="13.75" lengthAdjust="spacing" textLength="123.75" x="711.25" y="428.0237">toDto(lTestNoResult)</text><!--MD5=[df38be88ccee13e832d6fafd6288a4ca]
class Test--><rect codeLine="26" fill="#FEFECE" filter="url(#fal7dcpqofdlu)" height="163.7695" id="Test" style="stroke:#A80036;stroke-width:1.875;" width="281.25" x="306.25" y="735"/><ellipse cx="426.5625" cy="755" fill="#ADD1B2" rx="13.75" ry="13.75" style="stroke:#A80036;stroke-width:1.25;"/><path d="M429.0625,750.625 Q429.3164,750 429.6094,749.6875 Q429.9023,749.375 430.2344,749.375 Q430.8203,749.375 431.1914,749.7266 Q431.5625,750.0781 431.5625,750.8984 L431.5625,752.8516 Q431.5625,753.6719 431.2109,754.0234 Q430.8594,754.375 430.3125,754.375 Q429.8242,754.375 429.5117,754.1602 Q429.1992,753.9453 429.0625,753.3789 Q429.0039,752.9883 428.7891,752.7734 Q428.3984,752.3633 427.6953,752.1289 Q426.9922,751.875 426.2891,751.875 Q425.4102,751.875 424.668,752.2266 Q423.9453,752.5781 423.3789,753.3594 Q422.8125,754.1406 422.8125,755.2148 L422.8125,756.3672 Q422.8125,757.6563 423.8672,758.5156 Q424.9219,759.375 426.7969,759.375 Q427.9102,759.375 428.6914,759.1211 Q429.1406,758.9844 429.6484,758.5352 Q429.9805,758.2813 430.1563,758.2031 Q430.332,758.125 430.5469,758.125 Q430.957,758.125 431.25,758.457 Q431.5625,758.7695 431.5625,759.2188 Q431.5625,759.6484 431.1328,760.1563 Q430.5078,760.8984 429.5117,761.3086 Q428.2031,761.875 426.6016,761.875 Q424.7266,761.875 423.2227,761.1328 Q422.0117,760.5469 421.1523,759.2773 Q420.3125,758.0078 420.3125,756.5039 L420.3125,755.1367 Q420.3125,753.5742 421.0547,752.207 Q421.8164,750.8398 423.125,750.1172 Q424.4531,749.375 425.9375,749.375 Q426.8359,749.375 427.6172,749.6875 Q428.3984,750 429.0625,750.625 Z " fill="#000000"/><text fill="#000000" font-family="sans-serif" font-size="15" lengthAdjust="spacing" textLength="30" x="452.1875" y="761.1377">Test</text><line style="stroke:#A80036;stroke-width:1.875;" x1="307.5" x2="586.25" y1="775" y2="775"/><rect fill="none" height="7.5" style="stroke:#C82930;stroke-width:1.25;" width="7.5" x="316.25" y="785"/><text fill="#000000" font-family="sans-serif" font-size="13.75" lengthAdjust="spacing" textLength="60" x="331.25" y="794.2737">createdAt</text><rect fill="none" height="7.5" style="stroke:#C82930;stroke-width:1.25;" width="7.5" x="316.25" y="802.2949"/><text fill="#000000" font-family="sans-serif" font-size="13.75" lengthAdjust="spacing" textLength="75" x="331.25" y="811.5686">internalCode</text><rect fill="none" height="7.5" style="stroke:#C82930;stroke-width:1.25;" width="7.5" x="316.25" y="819.5898"/><text fill="#000000" font-family="sans-serif" font-size="13.75" lengthAdjust="spacing" textLength="53.75" x="331.25" y="828.8635">nhsCode</text><line style="stroke:#A80036;stroke-width:1.875;" x1="307.5" x2="586.25" y1="836.8848" y2="836.8848"/><ellipse cx="320" cy="850.6348" fill="#84BE84" rx="3.75" ry="3.75" style="stroke:#038048;stroke-width:1.25;"/><text fill="#000000" font-family="sans-serif" font-size="13.75" lengthAdjust="spacing" textLength="248.75" x="331.25" y="856.1584">addTestResult(paramCode, value, metric)</text><ellipse cx="320" cy="867.9297" fill="#84BE84" rx="3.75" ry="3.75" style="stroke:#038048;stroke-width:1.25;"/><text fill="#000000" font-family="sans-serif" font-size="13.75" lengthAdjust="spacing" textLength="170" x="331.25" y="873.4534">changeStateToResultDone()</text><rect fill="#F24D5C" height="7.5" style="stroke:#C82930;stroke-width:1.25;" width="7.5" x="316.25" y="881.4746"/><text fill="#000000" font-family="sans-serif" font-size="13.75" lengthAdjust="spacing" textLength="232.5" x="331.25" y="890.7483">getTestParameterByCode(paramCode)</text><!--MD5=[20ddef7090025b04fb973268620c0974]
class DateTime--><rect codeLine="37" fill="#FEFECE" filter="url(#fal7dcpqofdlu)" height="111.8848" id="DateTime" style="stroke:#A80036;stroke-width:1.875;" width="188.75" x="8.75" y="760.625"/><ellipse cx="64.0625" cy="780.625" fill="#ADD1B2" rx="13.75" ry="13.75" style="stroke:#A80036;stroke-width:1.25;"/><path d="M66.5625,776.25 Q66.8164,775.625 67.1094,775.3125 Q67.4023,775 67.7344,775 Q68.3203,775 68.6914,775.3516 Q69.0625,775.7031 69.0625,776.5234 L69.0625,778.4766 Q69.0625,779.2969 68.7109,779.6484 Q68.3594,780 67.8125,780 Q67.3242,780 67.0117,779.7852 Q66.6992,779.5703 66.5625,779.0039 Q66.5039,778.6133 66.2891,778.3984 Q65.8984,777.9883 65.1953,777.7539 Q64.4922,777.5 63.7891,777.5 Q62.9102,777.5 62.168,777.8516 Q61.4453,778.2031 60.8789,778.9844 Q60.3125,779.7656 60.3125,780.8398 L60.3125,781.9922 Q60.3125,783.2813 61.3672,784.1406 Q62.4219,785 64.2969,785 Q65.4102,785 66.1914,784.7461 Q66.6406,784.6094 67.1484,784.1602 Q67.4805,783.9063 67.6563,783.8281 Q67.832,783.75 68.0469,783.75 Q68.457,783.75 68.75,784.082 Q69.0625,784.3945 69.0625,784.8438 Q69.0625,785.2734 68.6328,785.7813 Q68.0078,786.5234 67.0117,786.9336 Q65.7031,787.5 64.1016,787.5 Q62.2266,787.5 60.7227,786.7578 Q59.5117,786.1719 58.6523,784.9023 Q57.8125,783.6328 57.8125,782.1289 L57.8125,780.7617 Q57.8125,779.1992 58.5547,777.832 Q59.3164,776.4648 60.625,775.7422 Q61.9531,775 63.4375,775 Q64.3359,775 65.1172,775.3125 Q65.8984,775.625 66.5625,776.25 Z " fill="#000000"/><text fill="#000000" font-family="sans-serif" font-size="15" lengthAdjust="spacing" textLength="67.5" x="89.6875" y="786.7627">DateTime</text><line style="stroke:#A80036;stroke-width:1.875;" x1="10" x2="196.25" y1="800.625" y2="800.625"/><rect fill="none" height="7.5" style="stroke:#C82930;stroke-width:1.25;" width="7.5" x="18.75" y="810.625"/><text fill="#000000" font-family="sans-serif" font-size="13.75" lengthAdjust="spacing" textLength="26.25" x="33.75" y="819.8987">date</text><rect fill="none" height="7.5" style="stroke:#C82930;stroke-width:1.25;" width="7.5" x="18.75" y="827.9199"/><text fill="#000000" font-family="sans-serif" font-size="13.75" lengthAdjust="spacing" textLength="23.75" x="33.75" y="837.1936">time</text><line style="stroke:#A80036;stroke-width:1.875;" x1="10" x2="196.25" y1="845.2148" y2="845.2148"/><ellipse cx="22.5" cy="858.9648" fill="#84BE84" rx="3.75" ry="3.75" style="stroke:#038048;stroke-width:1.25;"/><text fill="#000000" font-family="sans-serif" font-size="13.75" lengthAdjust="spacing" textLength="156.25" x="33.75" y="864.4885">registerCurrentDateTime()</text><!--MD5=[aeb3272166074d8737a70b61b1e71682]
class TestType--><rect codeLine="43" fill="#FEFECE" filter="url(#fal7dcpqofdlu)" height="129.1797" id="TestType" style="stroke:#A80036;stroke-width:1.875;" width="152.5" x="666.875" y="752.5"/><ellipse cx="708.125" cy="772.5" fill="#ADD1B2" rx="13.75" ry="13.75" style="stroke:#A80036;stroke-width:1.25;"/><path d="M710.625,768.125 Q710.8789,767.5 711.1719,767.1875 Q711.4648,766.875 711.7969,766.875 Q712.3828,766.875 712.7539,767.2266 Q713.125,767.5781 713.125,768.3984 L713.125,770.3516 Q713.125,771.1719 712.7734,771.5234 Q712.4219,771.875 711.875,771.875 Q711.3867,771.875 711.0742,771.6602 Q710.7617,771.4453 710.625,770.8789 Q710.5664,770.4883 710.3516,770.2734 Q709.9609,769.8633 709.2578,769.6289 Q708.5547,769.375 707.8516,769.375 Q706.9727,769.375 706.2305,769.7266 Q705.5078,770.0781 704.9414,770.8594 Q704.375,771.6406 704.375,772.7148 L704.375,773.8672 Q704.375,775.1563 705.4297,776.0156 Q706.4844,776.875 708.3594,776.875 Q709.4727,776.875 710.2539,776.6211 Q710.7031,776.4844 711.2109,776.0352 Q711.543,775.7813 711.7188,775.7031 Q711.8945,775.625 712.1094,775.625 Q712.5195,775.625 712.8125,775.957 Q713.125,776.2695 713.125,776.7188 Q713.125,777.1484 712.6953,777.6563 Q712.0703,778.3984 711.0742,778.8086 Q709.7656,779.375 708.1641,779.375 Q706.2891,779.375 704.7852,778.6328 Q703.5742,778.0469 702.7148,776.7773 Q701.875,775.5078 701.875,774.0039 L701.875,772.6367 Q701.875,771.0742 702.6172,769.707 Q703.3789,768.3398 704.6875,767.6172 Q706.0156,766.875 707.5,766.875 Q708.3984,766.875 709.1797,767.1875 Q709.9609,767.5 710.625,768.125 Z " fill="#000000"/><text fill="#000000" font-family="sans-serif" font-size="15" lengthAdjust="spacing" textLength="62.5" x="730.625" y="778.6377">TestType</text><line style="stroke:#A80036;stroke-width:1.875;" x1="668.125" x2="818.125" y1="792.5" y2="792.5"/><rect fill="none" height="7.5" style="stroke:#C82930;stroke-width:1.25;" width="7.5" x="676.875" y="802.5"/><text fill="#000000" font-family="sans-serif" font-size="13.75" lengthAdjust="spacing" textLength="30" x="691.875" y="811.7737">code</text><rect fill="none" height="7.5" style="stroke:#C82930;stroke-width:1.25;" width="7.5" x="676.875" y="819.7949"/><text fill="#000000" font-family="sans-serif" font-size="13.75" lengthAdjust="spacing" textLength="66.25" x="691.875" y="829.0686">description</text><rect fill="none" height="7.5" style="stroke:#C82930;stroke-width:1.25;" width="7.5" x="676.875" y="837.0898"/><text fill="#000000" font-family="sans-serif" font-size="13.75" lengthAdjust="spacing" textLength="100" x="691.875" y="846.3635">collectingMethod</text><line style="stroke:#A80036;stroke-width:1.875;" x1="668.125" x2="818.125" y1="854.3848" y2="854.3848"/><ellipse cx="680.625" cy="868.1348" fill="#84BE84" rx="3.75" ry="3.75" style="stroke:#038048;stroke-width:1.25;"/><text fill="#000000" font-family="sans-serif" font-size="13.75" lengthAdjust="spacing" textLength="120" x="691.875" y="873.6584">getExternalModule()</text><!--MD5=[4e608140b854dae633589343bce77383]
class TestParameterResult--><rect codeLine="50" fill="#FEFECE" filter="url(#fal7dcpqofdlu)" height="129.1797" id="TestParameterResult" style="stroke:#A80036;stroke-width:1.875;" width="303.75" x="286.25" y="1185"/><ellipse cx="359.0625" cy="1205" fill="#ADD1B2" rx="13.75" ry="13.75" style="stroke:#A80036;stroke-width:1.25;"/><path d="M361.5625,1200.625 Q361.8164,1200 362.1094,1199.6875 Q362.4023,1199.375 362.7344,1199.375 Q363.3203,1199.375 363.6914,1199.7266 Q364.0625,1200.0781 364.0625,1200.8984 L364.0625,1202.8516 Q364.0625,1203.6719 363.7109,1204.0234 Q363.3594,1204.375 362.8125,1204.375 Q362.3242,1204.375 362.0117,1204.1602 Q361.6992,1203.9453 361.5625,1203.3789 Q361.5039,1202.9883 361.2891,1202.7734 Q360.8984,1202.3633 360.1953,1202.1289 Q359.4922,1201.875 358.7891,1201.875 Q357.9102,1201.875 357.168,1202.2266 Q356.4453,1202.5781 355.8789,1203.3594 Q355.3125,1204.1406 355.3125,1205.2148 L355.3125,1206.3672 Q355.3125,1207.6563 356.3672,1208.5156 Q357.4219,1209.375 359.2969,1209.375 Q360.4102,1209.375 361.1914,1209.1211 Q361.6406,1208.9844 362.1484,1208.5352 Q362.4805,1208.2813 362.6563,1208.2031 Q362.832,1208.125 363.0469,1208.125 Q363.457,1208.125 363.75,1208.457 Q364.0625,1208.7695 364.0625,1209.2188 Q364.0625,1209.6484 363.6328,1210.1563 Q363.0078,1210.8984 362.0117,1211.3086 Q360.7031,1211.875 359.1016,1211.875 Q357.2266,1211.875 355.7227,1211.1328 Q354.5117,1210.5469 353.6523,1209.2773 Q352.8125,1208.0078 352.8125,1206.5039 L352.8125,1205.1367 Q352.8125,1203.5742 353.5547,1202.207 Q354.3164,1200.8398 355.625,1200.1172 Q356.9531,1199.375 358.4375,1199.375 Q359.3359,1199.375 360.1172,1199.6875 Q360.8984,1200 361.5625,1200.625 Z " fill="#000000"/><text fill="#000000" font-family="sans-serif" font-size="15" lengthAdjust="spacing" textLength="147.5" x="384.6875" y="1211.1377">TestParameterResult</text><line style="stroke:#A80036;stroke-width:1.875;" x1="287.5" x2="588.75" y1="1225" y2="1225"/><rect fill="none" height="7.5" style="stroke:#C82930;stroke-width:1.25;" width="7.5" x="296.25" y="1235"/><text fill="#000000" font-family="sans-serif" font-size="13.75" lengthAdjust="spacing" textLength="60" x="311.25" y="1244.2737">createdAt</text><rect fill="none" height="7.5" style="stroke:#C82930;stroke-width:1.25;" width="7.5" x="296.25" y="1252.2949"/><text fill="#000000" font-family="sans-serif" font-size="13.75" lengthAdjust="spacing" textLength="32.5" x="311.25" y="1261.5686">value</text><rect fill="none" height="7.5" style="stroke:#C82930;stroke-width:1.25;" width="7.5" x="296.25" y="1269.5898"/><text fill="#000000" font-family="sans-serif" font-size="13.75" lengthAdjust="spacing" textLength="36.25" x="311.25" y="1278.8635">metric</text><line style="stroke:#A80036;stroke-width:1.875;" x1="287.5" x2="588.75" y1="1286.8848" y2="1286.8848"/><ellipse cx="300" cy="1300.6348" fill="#84BE84" rx="3.75" ry="3.75" style="stroke:#038048;stroke-width:1.25;"/><text fill="#000000" font-family="sans-serif" font-size="13.75" lengthAdjust="spacing" textLength="271.25" x="311.25" y="1306.1584">TestParameterResult(value, metric, refValue)</text><!--MD5=[1c357e7e7fdba398bcadd6e61afe49f5]
class ReferenceValue--><rect codeLine="57" fill="#FEFECE" filter="url(#fal7dcpqofdlu)" height="60" id="ReferenceValue" style="stroke:#A80036;stroke-width:1.875;" width="150" x="363.125" y="1411.25"/><ellipse cx="381.875" cy="1431.25" fill="#ADD1B2" rx="13.75" ry="13.75" style="stroke:#A80036;stroke-width:1.25;"/><path d="M384.375,1426.875 Q384.6289,1426.25 384.9219,1425.9375 Q385.2148,1425.625 385.5469,1425.625 Q386.1328,1425.625 386.5039,1425.9766 Q386.875,1426.3281 386.875,1427.1484 L386.875,1429.1016 Q386.875,1429.9219 386.5234,1430.2734 Q386.1719,1430.625 385.625,1430.625 Q385.1367,1430.625 384.8242,1430.4102 Q384.5117,1430.1953 384.375,1429.6289 Q384.3164,1429.2383 384.1016,1429.0234 Q383.7109,1428.6133 383.0078,1428.3789 Q382.3047,1428.125 381.6016,1428.125 Q380.7227,1428.125 379.9805,1428.4766 Q379.2578,1428.8281 378.6914,1429.6094 Q378.125,1430.3906 378.125,1431.4648 L378.125,1432.6172 Q378.125,1433.9063 379.1797,1434.7656 Q380.2344,1435.625 382.1094,1435.625 Q383.2227,1435.625 384.0039,1435.3711 Q384.4531,1435.2344 384.9609,1434.7852 Q385.293,1434.5313 385.4688,1434.4531 Q385.6445,1434.375 385.8594,1434.375 Q386.2695,1434.375 386.5625,1434.707 Q386.875,1435.0195 386.875,1435.4688 Q386.875,1435.8984 386.4453,1436.4063 Q385.8203,1437.1484 384.8242,1437.5586 Q383.5156,1438.125 381.9141,1438.125 Q380.0391,1438.125 378.5352,1437.3828 Q377.3242,1436.7969 376.4648,1435.5273 Q375.625,1434.2578 375.625,1432.7539 L375.625,1431.3867 Q375.625,1429.8242 376.3672,1428.457 Q377.1289,1427.0898 378.4375,1426.3672 Q379.7656,1425.625 381.25,1425.625 Q382.1484,1425.625 382.9297,1425.9375 Q383.7109,1426.25 384.375,1426.875 Z " fill="#000000"/><text fill="#000000" font-family="sans-serif" font-size="15" lengthAdjust="spacing" textLength="110" x="399.375" y="1437.3877">ReferenceValue</text><line style="stroke:#A80036;stroke-width:1.875;" x1="364.375" x2="511.875" y1="1451.25" y2="1451.25"/><line style="stroke:#A80036;stroke-width:1.875;" x1="364.375" x2="511.875" y1="1461.25" y2="1461.25"/><!--MD5=[0f07739f46effee96e095e9c408da841]
class TestParameter--><rect codeLine="61" fill="#FEFECE" filter="url(#fal7dcpqofdlu)" height="94.5898" id="TestParameter" style="stroke:#A80036;stroke-width:1.875;" width="265" x="305.625" y="983.75"/><ellipse cx="381.5625" cy="1003.75" fill="#ADD1B2" rx="13.75" ry="13.75" style="stroke:#A80036;stroke-width:1.25;"/><path d="M384.0625,999.375 Q384.3164,998.75 384.6094,998.4375 Q384.9023,998.125 385.2344,998.125 Q385.8203,998.125 386.1914,998.4766 Q386.5625,998.8281 386.5625,999.6484 L386.5625,1001.6016 Q386.5625,1002.4219 386.2109,1002.7734 Q385.8594,1003.125 385.3125,1003.125 Q384.8242,1003.125 384.5117,1002.9102 Q384.1992,1002.6953 384.0625,1002.1289 Q384.0039,1001.7383 383.7891,1001.5234 Q383.3984,1001.1133 382.6953,1000.8789 Q381.9922,1000.625 381.2891,1000.625 Q380.4102,1000.625 379.668,1000.9766 Q378.9453,1001.3281 378.3789,1002.1094 Q377.8125,1002.8906 377.8125,1003.9648 L377.8125,1005.1172 Q377.8125,1006.4063 378.8672,1007.2656 Q379.9219,1008.125 381.7969,1008.125 Q382.9102,1008.125 383.6914,1007.8711 Q384.1406,1007.7344 384.6484,1007.2852 Q384.9805,1007.0313 385.1563,1006.9531 Q385.332,1006.875 385.5469,1006.875 Q385.957,1006.875 386.25,1007.207 Q386.5625,1007.5195 386.5625,1007.9688 Q386.5625,1008.3984 386.1328,1008.9063 Q385.5078,1009.6484 384.5117,1010.0586 Q383.2031,1010.625 381.6016,1010.625 Q379.7266,1010.625 378.2227,1009.8828 Q377.0117,1009.2969 376.1523,1008.0273 Q375.3125,1006.7578 375.3125,1005.2539 L375.3125,1003.8867 Q375.3125,1002.3242 376.0547,1000.957 Q376.8164,999.5898 378.125,998.8672 Q379.4531,998.125 380.9375,998.125 Q381.8359,998.125 382.6172,998.4375 Q383.3984,998.75 384.0625,999.375 Z " fill="#000000"/><text fill="#000000" font-family="sans-serif" font-size="15" lengthAdjust="spacing" textLength="102.5" x="407.1875" y="1009.8877">TestParameter</text><line style="stroke:#A80036;stroke-width:1.875;" x1="306.875" x2="569.375" y1="1023.75" y2="1023.75"/><line style="stroke:#A80036;stroke-width:1.875;" x1="306.875" x2="569.375" y1="1033.75" y2="1033.75"/><ellipse cx="319.375" cy="1047.5" fill="#84BE84" rx="3.75" ry="3.75" style="stroke:#038048;stroke-width:1.25;"/><text fill="#000000" font-family="sans-serif" font-size="13.75" lengthAdjust="spacing" textLength="90" x="330.625" y="1053.0237">getParameter()</text><ellipse cx="319.375" cy="1064.7949" fill="#84BE84" rx="3.75" ry="3.75" style="stroke:#038048;stroke-width:1.25;"/><text fill="#000000" font-family="sans-serif" font-size="13.75" lengthAdjust="spacing" textLength="232.5" x="330.625" y="1070.3186">addTestResult(value, metric, refValue)</text><!--MD5=[1f6362a5c8f21d8d6a0fce68f3a92a4e]
class Parameter--><rect codeLine="66" fill="#FEFECE" filter="url(#fal7dcpqofdlu)" height="111.8848" id="Parameter" style="stroke:#A80036;stroke-width:1.875;" width="112.5" x="88.125" y="975"/><ellipse cx="106.875" cy="995" fill="#ADD1B2" rx="13.75" ry="13.75" style="stroke:#A80036;stroke-width:1.25;"/><path d="M109.375,990.625 Q109.6289,990 109.9219,989.6875 Q110.2148,989.375 110.5469,989.375 Q111.1328,989.375 111.5039,989.7266 Q111.875,990.0781 111.875,990.8984 L111.875,992.8516 Q111.875,993.6719 111.5234,994.0234 Q111.1719,994.375 110.625,994.375 Q110.1367,994.375 109.8242,994.1602 Q109.5117,993.9453 109.375,993.3789 Q109.3164,992.9883 109.1016,992.7734 Q108.7109,992.3633 108.0078,992.1289 Q107.3047,991.875 106.6016,991.875 Q105.7227,991.875 104.9805,992.2266 Q104.2578,992.5781 103.6914,993.3594 Q103.125,994.1406 103.125,995.2148 L103.125,996.3672 Q103.125,997.6563 104.1797,998.5156 Q105.2344,999.375 107.1094,999.375 Q108.2227,999.375 109.0039,999.1211 Q109.4531,998.9844 109.9609,998.5352 Q110.293,998.2813 110.4688,998.2031 Q110.6445,998.125 110.8594,998.125 Q111.2695,998.125 111.5625,998.457 Q111.875,998.7695 111.875,999.2188 Q111.875,999.6484 111.4453,1000.1563 Q110.8203,1000.8984 109.8242,1001.3086 Q108.5156,1001.875 106.9141,1001.875 Q105.0391,1001.875 103.5352,1001.1328 Q102.3242,1000.5469 101.4648,999.2773 Q100.625,998.0078 100.625,996.5039 L100.625,995.1367 Q100.625,993.5742 101.3672,992.207 Q102.1289,990.8398 103.4375,990.1172 Q104.7656,989.375 106.25,989.375 Q107.1484,989.375 107.9297,989.6875 Q108.7109,990 109.375,990.625 Z " fill="#000000"/><text fill="#000000" font-family="sans-serif" font-size="15" lengthAdjust="spacing" textLength="72.5" x="124.375" y="1001.1377">Parameter</text><line style="stroke:#A80036;stroke-width:1.875;" x1="89.375" x2="199.375" y1="1015" y2="1015"/><rect fill="none" height="7.5" style="stroke:#C82930;stroke-width:1.25;" width="7.5" x="98.125" y="1025"/><text fill="#000000" font-family="sans-serif" font-size="13.75" lengthAdjust="spacing" textLength="30" x="113.125" y="1034.2737">code</text><rect fill="none" height="7.5" style="stroke:#C82930;stroke-width:1.25;" width="7.5" x="98.125" y="1042.2949"/><text fill="#000000" font-family="sans-serif" font-size="13.75" lengthAdjust="spacing" textLength="32.5" x="113.125" y="1051.5686">name</text><rect fill="none" height="7.5" style="stroke:#C82930;stroke-width:1.25;" width="7.5" x="98.125" y="1059.5898"/><text fill="#000000" font-family="sans-serif" font-size="13.75" lengthAdjust="spacing" textLength="66.25" x="113.125" y="1068.8635">description</text><line style="stroke:#A80036;stroke-width:1.875;" x1="89.375" x2="199.375" y1="1076.8848" y2="1076.8848"/><!--MD5=[8f188b89eff49accb0f38c057b38a9f2]
class ExternalModule--><rect codeLine="72" fill="#FEFECE" filter="url(#fal7dcpqofdlu)" height="77.2949" id="ExternalModule" style="stroke:#A80036;stroke-width:1.875;" width="300" x="956.875" y="778.125"/><ellipse cx="1048.4375" cy="798.125" fill="#B4A7E5" rx="13.75" ry="13.75" style="stroke:#A80036;stroke-width:1.25;"/><path d="M1049.6875,794.375 L1049.6875,801.875 L1052.1875,801.875 L1052.793,801.875 L1053.4375,802.6563 L1053.4375,803.125 L1053.4375,803.5938 L1052.793,804.375 L1052.1875,804.375 L1044.6875,804.375 L1044.082,804.375 L1043.4375,803.5938 L1043.4375,803.125 L1043.4375,802.6563 L1044.082,801.875 L1044.6875,801.875 L1047.1875,801.875 L1047.1875,794.375 L1044.6875,794.375 L1044.082,794.375 L1043.4375,793.5938 L1043.4375,793.125 L1043.4375,792.6563 L1044.082,791.875 L1044.6875,791.875 L1052.1875,791.875 L1052.793,791.875 L1053.4375,792.6563 L1053.4375,793.125 L1053.4375,793.5938 L1052.793,794.375 L1052.1875,794.375 L1049.6875,794.375 Z " fill="#000000"/><text fill="#000000" font-family="sans-serif" font-size="15" font-style="italic" lengthAdjust="spacing" textLength="106.25" x="1074.0625" y="804.2627">ExternalModule</text><line style="stroke:#A80036;stroke-width:1.875;" x1="958.125" x2="1255.625" y1="818.125" y2="818.125"/><line style="stroke:#A80036;stroke-width:1.875;" x1="958.125" x2="1255.625" y1="828.125" y2="828.125"/><ellipse cx="970.625" cy="841.875" fill="#84BE84" rx="3.75" ry="3.75" style="stroke:#038048;stroke-width:1.25;"/><text fill="#000000" font-family="sans-serif" font-size="13.75" lengthAdjust="spacing" textLength="267.5" x="981.875" y="847.3987">ReferenceValue getReferenceValue(param)</text><!--MD5=[0f11f0f60ee567100a99d4d7b98e8e2f]
class ExternalModuleAdapter1--><rect codeLine="76" fill="#FEFECE" filter="url(#fal7dcpqofdlu)" height="77.2949" id="ExternalModuleAdapter1" style="stroke:#A80036;stroke-width:1.875;" width="300" x="614.375" y="992.5"/><ellipse cx="675.9375" cy="1012.5" fill="#ADD1B2" rx="13.75" ry="13.75" style="stroke:#A80036;stroke-width:1.25;"/><path d="M678.4375,1008.125 Q678.6914,1007.5 678.9844,1007.1875 Q679.2773,1006.875 679.6094,1006.875 Q680.1953,1006.875 680.5664,1007.2266 Q680.9375,1007.5781 680.9375,1008.3984 L680.9375,1010.3516 Q680.9375,1011.1719 680.5859,1011.5234 Q680.2344,1011.875 679.6875,1011.875 Q679.1992,1011.875 678.8867,1011.6602 Q678.5742,1011.4453 678.4375,1010.8789 Q678.3789,1010.4883 678.1641,1010.2734 Q677.7734,1009.8633 677.0703,1009.6289 Q676.3672,1009.375 675.6641,1009.375 Q674.7852,1009.375 674.043,1009.7266 Q673.3203,1010.0781 672.7539,1010.8594 Q672.1875,1011.6406 672.1875,1012.7148 L672.1875,1013.8672 Q672.1875,1015.1563 673.2422,1016.0156 Q674.2969,1016.875 676.1719,1016.875 Q677.2852,1016.875 678.0664,1016.6211 Q678.5156,1016.4844 679.0234,1016.0352 Q679.3555,1015.7813 679.5313,1015.7031 Q679.707,1015.625 679.9219,1015.625 Q680.332,1015.625 680.625,1015.957 Q680.9375,1016.2695 680.9375,1016.7188 Q680.9375,1017.1484 680.5078,1017.6563 Q679.8828,1018.3984 678.8867,1018.8086 Q677.5781,1019.375 675.9766,1019.375 Q674.1016,1019.375 672.5977,1018.6328 Q671.3867,1018.0469 670.5273,1016.7773 Q669.6875,1015.5078 669.6875,1014.0039 L669.6875,1012.6367 Q669.6875,1011.0742 670.4297,1009.707 Q671.1914,1008.3398 672.5,1007.6172 Q673.8281,1006.875 675.3125,1006.875 Q676.2109,1006.875 676.9922,1007.1875 Q677.7734,1007.5 678.4375,1008.125 Z " fill="#000000"/><text fill="#000000" font-family="sans-serif" font-size="15" lengthAdjust="spacing" textLength="166.25" x="701.5625" y="1018.6377">ExternalModuleAdapter1</text><line style="stroke:#A80036;stroke-width:1.875;" x1="615.625" x2="913.125" y1="1032.5" y2="1032.5"/><line style="stroke:#A80036;stroke-width:1.875;" x1="615.625" x2="913.125" y1="1042.5" y2="1042.5"/><ellipse cx="628.125" cy="1056.25" fill="#84BE84" rx="3.75" ry="3.75" style="stroke:#038048;stroke-width:1.25;"/><text fill="#000000" font-family="sans-serif" font-size="13.75" lengthAdjust="spacing" textLength="267.5" x="639.375" y="1061.7737">ReferenceValue getReferenceValue(param)</text><!--MD5=[2191233c03d1d98f88ead7aa4dd76da0]
class ExternalModuleAdapter2--><rect codeLine="80" fill="#FEFECE" filter="url(#fal7dcpqofdlu)" height="77.2949" id="ExternalModuleAdapter2" style="stroke:#A80036;stroke-width:1.875;" width="300" x="958.125" y="992.5"/><ellipse cx="1019.6875" cy="1012.5" fill="#ADD1B2" rx="13.75" ry="13.75" style="stroke:#A80036;stroke-width:1.25;"/><path d="M1022.1875,1008.125 Q1022.4414,1007.5 1022.7344,1007.1875 Q1023.0273,1006.875 1023.3594,1006.875 Q1023.9453,1006.875 1024.3164,1007.2266 Q1024.6875,1007.5781 1024.6875,1008.3984 L1024.6875,1010.3516 Q1024.6875,1011.1719 1024.3359,1011.5234 Q1023.9844,1011.875 1023.4375,1011.875 Q1022.9492,1011.875 1022.6367,1011.6602 Q1022.3242,1011.4453 1022.1875,1010.8789 Q1022.1289,1010.4883 1021.9141,1010.2734 Q1021.5234,1009.8633 1020.8203,1009.6289 Q1020.1172,1009.375 1019.4141,1009.375 Q1018.5352,1009.375 1017.793,1009.7266 Q1017.0703,1010.0781 1016.5039,1010.8594 Q1015.9375,1011.6406 1015.9375,1012.7148 L1015.9375,1013.8672 Q1015.9375,1015.1563 1016.9922,1016.0156 Q1018.0469,1016.875 1019.9219,1016.875 Q1021.0352,1016.875 1021.8164,1016.6211 Q1022.2656,1016.4844 1022.7734,1016.0352 Q1023.1055,1015.7813 1023.2813,1015.7031 Q1023.457,1015.625 1023.6719,1015.625 Q1024.082,1015.625 1024.375,1015.957 Q1024.6875,1016.2695 1024.6875,1016.7188 Q1024.6875,1017.1484 1024.2578,1017.6563 Q1023.6328,1018.3984 1022.6367,1018.8086 Q1021.3281,1019.375 1019.7266,1019.375 Q1017.8516,1019.375 1016.3477,1018.6328 Q1015.1367,1018.0469 1014.2773,1016.7773 Q1013.4375,1015.5078 1013.4375,1014.0039 L1013.4375,1012.6367 Q1013.4375,1011.0742 1014.1797,1009.707 Q1014.9414,1008.3398 1016.25,1007.6172 Q1017.5781,1006.875 1019.0625,1006.875 Q1019.9609,1006.875 1020.7422,1007.1875 Q1021.5234,1007.5 1022.1875,1008.125 Z " fill="#000000"/><text fill="#000000" font-family="sans-serif" font-size="15" lengthAdjust="spacing" textLength="166.25" x="1045.3125" y="1018.6377">ExternalModuleAdapter2</text><line style="stroke:#A80036;stroke-width:1.875;" x1="959.375" x2="1256.875" y1="1032.5" y2="1032.5"/><line style="stroke:#A80036;stroke-width:1.875;" x1="959.375" x2="1256.875" y1="1042.5" y2="1042.5"/><ellipse cx="971.875" cy="1056.25" fill="#84BE84" rx="3.75" ry="3.75" style="stroke:#038048;stroke-width:1.25;"/><text fill="#000000" font-family="sans-serif" font-size="13.75" lengthAdjust="spacing" textLength="267.5" x="983.125" y="1061.7737">ReferenceValue getReferenceValue(param)</text><!--MD5=[63386ce01156be326996be41135b9514]
class ExternalModuleAdapter3--><rect codeLine="84" fill="#FEFECE" filter="url(#fal7dcpqofdlu)" height="77.2949" id="ExternalModuleAdapter3" style="stroke:#A80036;stroke-width:1.875;" width="300" x="1306.875" y="992.5"/><ellipse cx="1368.4375" cy="1012.5" fill="#ADD1B2" rx="13.75" ry="13.75" style="stroke:#A80036;stroke-width:1.25;"/><path d="M1370.9375,1008.125 Q1371.1914,1007.5 1371.4844,1007.1875 Q1371.7773,1006.875 1372.1094,1006.875 Q1372.6953,1006.875 1373.0664,1007.2266 Q1373.4375,1007.5781 1373.4375,1008.3984 L1373.4375,1010.3516 Q1373.4375,1011.1719 1373.0859,1011.5234 Q1372.7344,1011.875 1372.1875,1011.875 Q1371.6992,1011.875 1371.3867,1011.6602 Q1371.0742,1011.4453 1370.9375,1010.8789 Q1370.8789,1010.4883 1370.6641,1010.2734 Q1370.2734,1009.8633 1369.5703,1009.6289 Q1368.8672,1009.375 1368.1641,1009.375 Q1367.2852,1009.375 1366.543,1009.7266 Q1365.8203,1010.0781 1365.2539,1010.8594 Q1364.6875,1011.6406 1364.6875,1012.7148 L1364.6875,1013.8672 Q1364.6875,1015.1563 1365.7422,1016.0156 Q1366.7969,1016.875 1368.6719,1016.875 Q1369.7852,1016.875 1370.5664,1016.6211 Q1371.0156,1016.4844 1371.5234,1016.0352 Q1371.8555,1015.7813 1372.0313,1015.7031 Q1372.207,1015.625 1372.4219,1015.625 Q1372.832,1015.625 1373.125,1015.957 Q1373.4375,1016.2695 1373.4375,1016.7188 Q1373.4375,1017.1484 1373.0078,1017.6563 Q1372.3828,1018.3984 1371.3867,1018.8086 Q1370.0781,1019.375 1368.4766,1019.375 Q1366.6016,1019.375 1365.0977,1018.6328 Q1363.8867,1018.0469 1363.0273,1016.7773 Q1362.1875,1015.5078 1362.1875,1014.0039 L1362.1875,1012.6367 Q1362.1875,1011.0742 1362.9297,1009.707 Q1363.6914,1008.3398 1365,1007.6172 Q1366.3281,1006.875 1367.8125,1006.875 Q1368.7109,1006.875 1369.4922,1007.1875 Q1370.2734,1007.5 1370.9375,1008.125 Z " fill="#000000"/><text fill="#000000" font-family="sans-serif" font-size="15" lengthAdjust="spacing" textLength="166.25" x="1394.0625" y="1018.6377">ExternalModuleAdapter3</text><line style="stroke:#A80036;stroke-width:1.875;" x1="1308.125" x2="1605.625" y1="1032.5" y2="1032.5"/><line style="stroke:#A80036;stroke-width:1.875;" x1="1308.125" x2="1605.625" y1="1042.5" y2="1042.5"/><ellipse cx="1320.625" cy="1056.25" fill="#84BE84" rx="3.75" ry="3.75" style="stroke:#038048;stroke-width:1.25;"/><text fill="#000000" font-family="sans-serif" font-size="13.75" lengthAdjust="spacing" textLength="267.5" x="1331.875" y="1061.7737">ReferenceValue getReferenceValue(param)</text><!--MD5=[451383fa0f9a56f3a5d7f9dbcfb0de33]
class ExternalModule1API--><rect codeLine="88" fill="#FEFECE" filter="url(#fal7dcpqofdlu)" height="111.8848" id="ExternalModule1API" style="stroke:#A80036;stroke-width:1.875;" width="243.75" x="642.5" y="1193.125"/><ellipse cx="691.625" cy="1213.125" fill="#ADD1B2" rx="13.75" ry="13.75" style="stroke:#A80036;stroke-width:1.25;"/><path d="M694.125,1208.75 Q694.3789,1208.125 694.6719,1207.8125 Q694.9648,1207.5 695.2969,1207.5 Q695.8828,1207.5 696.2539,1207.8516 Q696.625,1208.2031 696.625,1209.0234 L696.625,1210.9766 Q696.625,1211.7969 696.2734,1212.1484 Q695.9219,1212.5 695.375,1212.5 Q694.8867,1212.5 694.5742,1212.2852 Q694.2617,1212.0703 694.125,1211.5039 Q694.0664,1211.1133 693.8516,1210.8984 Q693.4609,1210.4883 692.7578,1210.2539 Q692.0547,1210 691.3516,1210 Q690.4727,1210 689.7305,1210.3516 Q689.0078,1210.7031 688.4414,1211.4844 Q687.875,1212.2656 687.875,1213.3398 L687.875,1214.4922 Q687.875,1215.7813 688.9297,1216.6406 Q689.9844,1217.5 691.8594,1217.5 Q692.9727,1217.5 693.7539,1217.2461 Q694.2031,1217.1094 694.7109,1216.6602 Q695.043,1216.4063 695.2188,1216.3281 Q695.3945,1216.25 695.6094,1216.25 Q696.0195,1216.25 696.3125,1216.582 Q696.625,1216.8945 696.625,1217.3438 Q696.625,1217.7734 696.1953,1218.2813 Q695.5703,1219.0234 694.5742,1219.4336 Q693.2656,1220 691.6641,1220 Q689.7891,1220 688.2852,1219.2578 Q687.0742,1218.6719 686.2148,1217.4023 Q685.375,1216.1328 685.375,1214.6289 L685.375,1213.2617 Q685.375,1211.6992 686.1172,1210.332 Q686.8789,1208.9648 688.1875,1208.2422 Q689.5156,1207.5 691,1207.5 Q691.8984,1207.5 692.6797,1207.8125 Q693.4609,1208.125 694.125,1208.75 Z " fill="#000000"/><text fill="#000000" font-family="sans-serif" font-size="15" lengthAdjust="spacing" textLength="136.25" x="715.875" y="1219.2627">ExternalModule1API</text><line style="stroke:#A80036;stroke-width:1.875;" x1="643.75" x2="885" y1="1233.125" y2="1233.125"/><line style="stroke:#A80036;stroke-width:1.875;" x1="643.75" x2="885" y1="1243.125" y2="1243.125"/><ellipse cx="656.25" cy="1256.875" fill="#84BE84" rx="3.75" ry="3.75" style="stroke:#038048;stroke-width:1.25;"/><text fill="#000000" font-family="sans-serif" font-size="13.75" lengthAdjust="spacing" textLength="141.25" x="667.5" y="1262.3987">getMetricsFor(paramID)</text><ellipse cx="656.25" cy="1274.1699" fill="#84BE84" rx="3.75" ry="3.75" style="stroke:#038048;stroke-width:1.25;"/><text fill="#000000" font-family="sans-serif" font-size="13.75" lengthAdjust="spacing" textLength="161.25" x="667.5" y="1279.6936">getReferenceFor(paramID)</text><ellipse cx="656.25" cy="1291.4648" fill="#84BE84" rx="3.75" ry="3.75" style="stroke:#038048;stroke-width:1.25;"/><text fill="#000000" font-family="sans-serif" font-size="13.75" lengthAdjust="spacing" textLength="211.25" x="667.5" y="1296.9885">getReferenceFor(paramID, onDate)</text><!--MD5=[c2db872d8177dd5e15eeb53e86d83378]
class ExternalModule2API--><rect codeLine="94" fill="#FEFECE" filter="url(#fal7dcpqofdlu)" height="111.8848" id="ExternalModule2API" style="stroke:#A80036;stroke-width:1.875;" width="310" x="950.625" y="1193.125"/><ellipse cx="1032.1875" cy="1213.125" fill="#ADD1B2" rx="13.75" ry="13.75" style="stroke:#A80036;stroke-width:1.25;"/><path d="M1034.6875,1208.75 Q1034.9414,1208.125 1035.2344,1207.8125 Q1035.5273,1207.5 1035.8594,1207.5 Q1036.4453,1207.5 1036.8164,1207.8516 Q1037.1875,1208.2031 1037.1875,1209.0234 L1037.1875,1210.9766 Q1037.1875,1211.7969 1036.8359,1212.1484 Q1036.4844,1212.5 1035.9375,1212.5 Q1035.4492,1212.5 1035.1367,1212.2852 Q1034.8242,1212.0703 1034.6875,1211.5039 Q1034.6289,1211.1133 1034.4141,1210.8984 Q1034.0234,1210.4883 1033.3203,1210.2539 Q1032.6172,1210 1031.9141,1210 Q1031.0352,1210 1030.293,1210.3516 Q1029.5703,1210.7031 1029.0039,1211.4844 Q1028.4375,1212.2656 1028.4375,1213.3398 L1028.4375,1214.4922 Q1028.4375,1215.7813 1029.4922,1216.6406 Q1030.5469,1217.5 1032.4219,1217.5 Q1033.5352,1217.5 1034.3164,1217.2461 Q1034.7656,1217.1094 1035.2734,1216.6602 Q1035.6055,1216.4063 1035.7813,1216.3281 Q1035.957,1216.25 1036.1719,1216.25 Q1036.582,1216.25 1036.875,1216.582 Q1037.1875,1216.8945 1037.1875,1217.3438 Q1037.1875,1217.7734 1036.7578,1218.2813 Q1036.1328,1219.0234 1035.1367,1219.4336 Q1033.8281,1220 1032.2266,1220 Q1030.3516,1220 1028.8477,1219.2578 Q1027.6367,1218.6719 1026.7773,1217.4023 Q1025.9375,1216.1328 1025.9375,1214.6289 L1025.9375,1213.2617 Q1025.9375,1211.6992 1026.6797,1210.332 Q1027.4414,1208.9648 1028.75,1208.2422 Q1030.0781,1207.5 1031.5625,1207.5 Q1032.4609,1207.5 1033.2422,1207.8125 Q1034.0234,1208.125 1034.6875,1208.75 Z " fill="#000000"/><text fill="#000000" font-family="sans-serif" font-size="15" lengthAdjust="spacing" textLength="136.25" x="1057.8125" y="1219.2627">ExternalModule2API</text><line style="stroke:#A80036;stroke-width:1.875;" x1="951.875" x2="1259.375" y1="1233.125" y2="1233.125"/><line style="stroke:#A80036;stroke-width:1.875;" x1="951.875" x2="1259.375" y1="1243.125" y2="1243.125"/><ellipse cx="964.375" cy="1256.875" fill="#84BE84" rx="3.75" ry="3.75" style="stroke:#038048;stroke-width:1.25;"/><text fill="#000000" font-family="sans-serif" font-size="13.75" lengthAdjust="spacing" textLength="277.5" x="975.625" y="1262.3987">getMaxReferenceValue(paramID, accessKey)</text><ellipse cx="964.375" cy="1274.1699" fill="#84BE84" rx="3.75" ry="3.75" style="stroke:#038048;stroke-width:1.25;"/><text fill="#000000" font-family="sans-serif" font-size="13.75" lengthAdjust="spacing" textLength="272.5" x="975.625" y="1279.6936">getMinReferenceValue(paramID, accessKey)</text><ellipse cx="964.375" cy="1291.4648" fill="#84BE84" rx="3.75" ry="3.75" style="stroke:#038048;stroke-width:1.25;"/><text fill="#000000" font-family="sans-serif" font-size="13.75" lengthAdjust="spacing" textLength="201.25" x="975.625" y="1296.9885">usedMetric(paramID, accessKey)</text><!--MD5=[684eca265d68b7682ab3f1c4bd898418]
class ExternalModule3API--><rect codeLine="100" fill="#FEFECE" filter="url(#fal7dcpqofdlu)" height="111.8848" id="ExternalModule3API" style="stroke:#A80036;stroke-width:1.875;" width="310" x="1304.375" y="1193.125"/><ellipse cx="1385.9375" cy="1213.125" fill="#ADD1B2" rx="13.75" ry="13.75" style="stroke:#A80036;stroke-width:1.25;"/><path d="M1388.4375,1208.75 Q1388.6914,1208.125 1388.9844,1207.8125 Q1389.2773,1207.5 1389.6094,1207.5 Q1390.1953,1207.5 1390.5664,1207.8516 Q1390.9375,1208.2031 1390.9375,1209.0234 L1390.9375,1210.9766 Q1390.9375,1211.7969 1390.5859,1212.1484 Q1390.2344,1212.5 1389.6875,1212.5 Q1389.1992,1212.5 1388.8867,1212.2852 Q1388.5742,1212.0703 1388.4375,1211.5039 Q1388.3789,1211.1133 1388.1641,1210.8984 Q1387.7734,1210.4883 1387.0703,1210.2539 Q1386.3672,1210 1385.6641,1210 Q1384.7852,1210 1384.043,1210.3516 Q1383.3203,1210.7031 1382.7539,1211.4844 Q1382.1875,1212.2656 1382.1875,1213.3398 L1382.1875,1214.4922 Q1382.1875,1215.7813 1383.2422,1216.6406 Q1384.2969,1217.5 1386.1719,1217.5 Q1387.2852,1217.5 1388.0664,1217.2461 Q1388.5156,1217.1094 1389.0234,1216.6602 Q1389.3555,1216.4063 1389.5313,1216.3281 Q1389.707,1216.25 1389.9219,1216.25 Q1390.332,1216.25 1390.625,1216.582 Q1390.9375,1216.8945 1390.9375,1217.3438 Q1390.9375,1217.7734 1390.5078,1218.2813 Q1389.8828,1219.0234 1388.8867,1219.4336 Q1387.5781,1220 1385.9766,1220 Q1384.1016,1220 1382.5977,1219.2578 Q1381.3867,1218.6719 1380.5273,1217.4023 Q1379.6875,1216.1328 1379.6875,1214.6289 L1379.6875,1213.2617 Q1379.6875,1211.6992 1380.4297,1210.332 Q1381.1914,1208.9648 1382.5,1208.2422 Q1383.8281,1207.5 1385.3125,1207.5 Q1386.2109,1207.5 1386.9922,1207.8125 Q1387.7734,1208.125 1388.4375,1208.75 Z " fill="#000000"/><text fill="#000000" font-family="sans-serif" font-size="15" lengthAdjust="spacing" textLength="136.25" x="1411.5625" y="1219.2627">ExternalModule3API</text><line style="stroke:#A80036;stroke-width:1.875;" x1="1305.625" x2="1613.125" y1="1233.125" y2="1233.125"/><line style="stroke:#A80036;stroke-width:1.875;" x1="1305.625" x2="1613.125" y1="1243.125" y2="1243.125"/><ellipse cx="1318.125" cy="1256.875" fill="#84BE84" rx="3.75" ry="3.75" style="stroke:#038048;stroke-width:1.25;"/><text fill="#000000" font-family="sans-serif" font-size="13.75" lengthAdjust="spacing" textLength="277.5" x="1329.375" y="1262.3987">getMaxReferenceValue(paramID, accessKey)</text><ellipse cx="1318.125" cy="1274.1699" fill="#84BE84" rx="3.75" ry="3.75" style="stroke:#038048;stroke-width:1.25;"/><text fill="#000000" font-family="sans-serif" font-size="13.75" lengthAdjust="spacing" textLength="272.5" x="1329.375" y="1279.6936">getMinReferenceValue(paramID, accessKey)</text><ellipse cx="1318.125" cy="1291.4648" fill="#84BE84" rx="3.75" ry="3.75" style="stroke:#038048;stroke-width:1.25;"/><text fill="#000000" font-family="sans-serif" font-size="13.75" lengthAdjust="spacing" textLength="201.25" x="1329.375" y="1296.9885">usedMetric(paramID, accessKey)</text><!--MD5=[f5428fd05aad57864ae2f1af42726350]
link RecordResultUI to RecordResultController--><path codeLine="106" d="M586.875,68.9 C586.875,87.95 586.875,113.775 586.875,138 " fill="none" id="RecordResultUI-to-RecordResultController" style="stroke:#A80036;stroke-width:1.25;stroke-dasharray:7.0,7.0;"/><polygon fill="#A80036" points="586.875,144.7875,591.875,133.5375,586.875,138.5375,581.875,133.5375,586.875,144.7875" style="stroke:#A80036;stroke-width:1.25;"/><!--MD5=[ad94b30c163beda945d4742c60cadd9b]
link RecordResultController to Company--><path codeLine="107" d="M554.875,273.9875 C543.425,296.65 530.675,321.9125 519.725,343.575 " fill="none" id="RecordResultController-to-Company" style="stroke:#A80036;stroke-width:1.25;stroke-dasharray:7.0,7.0;"/><polygon fill="#A80036" points="516.7,349.575,526.2432,341.7975,519.5236,343.9992,517.3219,337.2796,516.7,349.575" style="stroke:#A80036;stroke-width:1.25;"/><!--MD5=[614914ea2818ba632179bffb6284c7a6]
link RecordResultController to TestStore--><path codeLine="108" d="M597.55,273.9125 C609.9125,347.2375 630.05,466.75 641.65,535.5 " fill="none" id="RecordResultController-to-TestStore" style="stroke:#A80036;stroke-width:1.25;stroke-dasharray:7.0,7.0;"/><polygon fill="#A80036" points="642.7375,541.9875,645.7696,530.0556,641.684,535.8269,635.9127,531.7413,642.7375,541.9875" style="stroke:#A80036;stroke-width:1.25;"/><!--MD5=[665b3ac1e69064d2dddebc651e5d2c37]
link RecordResultController to TestListMapper--><path codeLine="109" d="M647.4625,273.9875 C672.7,300.375 701.3125,330.3125 723.925,353.95 " fill="none" id="RecordResultController-to-TestListMapper" style="stroke:#A80036;stroke-width:1.25;stroke-dasharray:7.0,7.0;"/><polygon fill="#A80036" points="728.3625,358.5875,724.1995,347.0017,724.0424,354.071,716.973,353.9139,728.3625,358.5875" style="stroke:#A80036;stroke-width:1.25;"/><!--MD5=[a8c4228888174c409606ef1b96aaf4a1]
link RecordResultController to Test--><path codeLine="110" d="M475.8125,273.8 C449.6375,294.4625 425.1625,319.975 410.625,350 C351.9375,471.225 384.675,631.1625 414.9,728.5375 " fill="none" id="RecordResultController-to-Test" style="stroke:#A80036;stroke-width:1.25;stroke-dasharray:7.0,7.0;"/><polygon fill="#A80036" points="416.875,734.8625,418.271,722.6308,415.0006,728.9002,408.7313,725.6298,416.875,734.8625" style="stroke:#A80036;stroke-width:1.25;"/><!--MD5=[7e4bc624457760b649895ff2ead938fa]
link Company to Test--><path codeLine="112" d="M484.4625,445.225 C479.475,473.3 473.4125,509.8625 469.375,542.5 C461.725,604.4375 456,674.6 452.25,728.3125 " fill="none" id="Company-to-Test" style="stroke:#A80036;stroke-width:1.25;"/><polygon fill="#A80036" points="451.8,734.775,457.591,723.911,452.2466,728.541,447.6166,723.1965,451.8,734.775" style="stroke:#A80036;stroke-width:1.25;"/><text fill="#000000" font-family="sans-serif" font-size="16.25" lengthAdjust="spacing" textLength="62.5" x="470.625" y="596.8689">performs</text><text fill="#000000" font-family="sans-serif" font-size="16.25" lengthAdjust="spacing" textLength="8.75" x="473.6346" y="471.3615">1</text><text fill="#000000" font-family="sans-serif" font-size="16.25" lengthAdjust="spacing" textLength="6.25" x="445.7469" y="721.5934">*</text><!--MD5=[7f6cf7f175eae0af66201860de5de971]
link Company to TestStore--><path codeLine="113" d="M512.7375,445.1 C522.225,464.675 534.75,487.0375 549.375,505 C558.825,516.6125 570.0875,527.775 581.6,537.95 " fill="none" id="Company-to-TestStore" style="stroke:#A80036;stroke-width:1.25;"/><polygon fill="#A80036" points="586.55,542.25,581.352,531.0901,581.8376,538.1445,574.7832,538.63,586.55,542.25" style="stroke:#A80036;stroke-width:1.25;"/><text fill="#000000" font-family="sans-serif" font-size="16.25" lengthAdjust="spacing" textLength="35" x="550.625" y="500.6189">uses</text><text fill="#000000" font-family="sans-serif" font-size="16.25" lengthAdjust="spacing" textLength="8.75" x="506.5112" y="471.5793">1</text><text fill="#000000" font-family="sans-serif" font-size="16.25" lengthAdjust="spacing" textLength="8.75" x="565.6073" y="528.9078">1</text><!--MD5=[b0f4f6db8206580012ef9cd998ed01c5]
link TestStore to Test--><path codeLine="114" d="M608.4125,637.7375 C584.2875,664.3 553.275,698.45 524.8875,729.7125 " fill="none" id="TestStore-to-Test" style="stroke:#A80036;stroke-width:1.25;"/><polygon fill="#A80036" points="520.3625,734.7,531.625,729.7282,524.5623,730.0713,524.2191,723.0086,520.3625,734.7" style="stroke:#A80036;stroke-width:1.25;"/><text fill="#000000" font-family="sans-serif" font-size="16.25" lengthAdjust="spacing" textLength="36.25" x="574.375" y="693.1189">store</text><text fill="#000000" font-family="sans-serif" font-size="16.25" lengthAdjust="spacing" textLength="8.75" x="592.2376" y="663.876">1</text><text fill="#000000" font-family="sans-serif" font-size="16.25" lengthAdjust="spacing" textLength="6.25" x="521.8084" y="721.5102">*</text><!--MD5=[bb5d376eb0637d7b3af24afa61bf03d0]
reverse link DateTime to Test--><path codeLine="115" d="M203.85,816.875 C235.8,816.875 271.7375,816.875 305.975,816.875 " fill="none" id="DateTime-backto-Test" style="stroke:#A80036;stroke-width:1.25;"/><polygon fill="#A80036" points="197.5125,816.875,208.7625,821.875,203.7625,816.875,208.7625,811.875,197.5125,816.875" style="stroke:#A80036;stroke-width:1.25;"/><text fill="#000000" font-family="sans-serif" font-size="16.25" lengthAdjust="spacing" textLength="62.5" x="220.625" y="808.7439">registers</text><text fill="#000000" font-family="sans-serif" font-size="16.25" lengthAdjust="spacing" textLength="6.25" x="207.5685" y="812.767">*</text><text fill="#000000" font-family="sans-serif" font-size="16.25" lengthAdjust="spacing" textLength="8.75" x="287.4643" y="813.0861">1</text><!--MD5=[c2c2ccc97fe06aa0672aa10f0c0d0d1b]
reverse link ExternalModule to ExternalModuleAdapter1--><path codeLine="116" d="M1024.475,869.1 C963.1125,907.0625 880.7,958.0375 825.225,992.3625 " fill="none" id="ExternalModule-backto-ExternalModuleAdapter1" style="stroke:#A80036;stroke-width:1.25;stroke-dasharray:7.0,7.0;"/><polygon fill="none" points="1020.175,861.475,1046.0375,855.7625,1029.375,876.35,1020.175,861.475" style="stroke:#A80036;stroke-width:1.25;"/><!--MD5=[e762491942221b7e6cccce8a5f133053]
reverse link ExternalModule to ExternalModuleAdapter2--><path codeLine="117" d="M1107.25,881.2125 C1107.4625,917.4125 1107.725,961.6625 1107.9,992.45 " fill="none" id="ExternalModule-backto-ExternalModuleAdapter2" style="stroke:#A80036;stroke-width:1.25;stroke-dasharray:7.0,7.0;"/><polygon fill="none" points="1098.5,881.05,1107.1,856,1116,880.95,1098.5,881.05" style="stroke:#A80036;stroke-width:1.25;"/><!--MD5=[1d0e74bf7655fc5437023a6d82ac8590]
reverse link ExternalModule to ExternalModuleAdapter3--><path codeLine="118" d="M1190.675,868.85 C1253.425,906.8375 1337.8875,957.9625 1394.7,992.3625 " fill="none" id="ExternalModule-backto-ExternalModuleAdapter3" style="stroke:#A80036;stroke-width:1.25;stroke-dasharray:7.0,7.0;"/><polygon fill="none" points="1185.9,876.1875,1169.05,855.7625,1194.9625,861.225,1185.9,876.1875" style="stroke:#A80036;stroke-width:1.25;"/><!--MD5=[58f1a4fa5a8f4314e8210b69ec05dc13]
link ExternalModuleAdapter1 to ExternalModule1API--><path codeLine="119" d="M764.375,1070.0625 C764.375,1102.1125 764.375,1148.8375 764.375,1186.375 " fill="none" id="ExternalModuleAdapter1-to-ExternalModule1API" style="stroke:#A80036;stroke-width:1.25;"/><polygon fill="#A80036" points="764.375,1192.8,769.375,1181.55,764.375,1186.55,759.375,1181.55,764.375,1192.8" style="stroke:#A80036;stroke-width:1.25;"/><!--MD5=[a71efa0de9a7d719e8e2d63d4ca16127]
link ExternalModuleAdapter2 to ExternalModule2API--><path codeLine="120" d="M1107.6875,1070.0625 C1107.3125,1102.1125 1106.775,1148.8375 1106.3375,1186.375 " fill="none" id="ExternalModuleAdapter2-to-ExternalModule2API" style="stroke:#A80036;stroke-width:1.25;"/><polygon fill="#A80036" points="1106.2625,1192.8,1111.3907,1181.6079,1106.3339,1186.5504,1101.3914,1181.4936,1106.2625,1192.8" style="stroke:#A80036;stroke-width:1.25;"/><!--MD5=[525de1d813f0141c9ef89d09db668bb4]
link ExternalModuleAdapter3 to ExternalModule3API--><path codeLine="121" d="M1457.3125,1070.0625 C1457.6875,1102.1125 1458.225,1148.8375 1458.6625,1186.375 " fill="none" id="ExternalModuleAdapter3-to-ExternalModule3API" style="stroke:#A80036;stroke-width:1.25;"/><polygon fill="#A80036" points="1458.7375,1192.8,1463.6086,1181.4936,1458.6661,1186.5504,1453.6093,1181.6079,1458.7375,1192.8" style="stroke:#A80036;stroke-width:1.25;"/><!--MD5=[71e6920dcc27afae8f25537cd5357b5f]
link TestType to ExternalModule--><path codeLine="122" d="M819.375,816.875 C857.4,816.875 904.85,816.875 950.175,816.875 " fill="none" id="TestType-to-ExternalModule" style="stroke:#A80036;stroke-width:1.25;"/><polygon fill="#A80036" points="956.85,816.875,945.6,811.875,950.6,816.875,945.6,821.875,956.85,816.875" style="stroke:#A80036;stroke-width:1.25;"/><text fill="#000000" font-family="sans-serif" font-size="16.25" lengthAdjust="spacing" textLength="88.75" x="843.75" y="808.7439">make use of</text><text fill="#000000" font-family="sans-serif" font-size="16.25" lengthAdjust="spacing" textLength="6.25" x="829.5449" y="812.4633">*</text><text fill="#000000" font-family="sans-serif" font-size="16.25" lengthAdjust="spacing" textLength="8.75" x="938.2088" y="813.1239">1</text><!--MD5=[e981d4f96c4342412d1e68160b30cf70]
link Test to TestType--><path codeLine="123" d="M587.625,816.875 C612.6,816.875 637.85,816.875 660.5375,816.875 " fill="none" id="Test-to-TestType" style="stroke:#A80036;stroke-width:1.25;"/><polygon fill="#A80036" points="666.8625,816.875,655.6125,811.875,660.6125,816.875,655.6125,821.875,666.8625,816.875" style="stroke:#A80036;stroke-width:1.25;"/><text fill="#000000" font-family="sans-serif" font-size="16.25" lengthAdjust="spacing" textLength="30" x="612.1875" y="808.7439">is of</text><text fill="#000000" font-family="sans-serif" font-size="16.25" lengthAdjust="spacing" textLength="6.25" x="597.2916" y="813.0861">*</text><text fill="#000000" font-family="sans-serif" font-size="16.25" lengthAdjust="spacing" textLength="8.75" x="648.2848" y="812.5257">1</text><!--MD5=[f24c888dadeb846430474fe80a58922b]
link Test to TestParameter--><path codeLine="124" d="M443.5375,898.825 C442.4625,924.9125 441.3,953.1625 440.325,976.7375 " fill="none" id="Test-to-TestParameter" style="stroke:#A80036;stroke-width:1.25;"/><polygon fill="#A80036" points="440.05,983.2625,445.5271,972.2369,440.3176,977.0182,435.5363,971.8087,440.05,983.2625" style="stroke:#A80036;stroke-width:1.25;"/><text fill="#000000" font-family="sans-serif" font-size="16.25" lengthAdjust="spacing" textLength="8.75" x="433.9439" y="925.7739">1</text><text fill="#000000" font-family="sans-serif" font-size="16.25" lengthAdjust="spacing" textLength="25" x="413.2324" y="970.2378">1..*</text><!--MD5=[0e00e25ac6b8c14659aaff2cf7e5df08]
link TestParameter to TestParameterResult--><path codeLine="125" d="M438.125,1078.7625 C438.125,1107.7625 438.125,1145.7 438.125,1178.3125 " fill="none" id="TestParameter-to-TestParameterResult" style="stroke:#A80036;stroke-width:1.25;"/><polygon fill="#A80036" points="438.125,1184.7625,443.125,1173.5125,438.125,1178.5125,433.125,1173.5125,438.125,1184.7625" style="stroke:#A80036;stroke-width:1.25;"/><text fill="#000000" font-family="sans-serif" font-size="16.25" lengthAdjust="spacing" textLength="61.25" x="439.375" y="1143.1189">contains</text><text fill="#000000" font-family="sans-serif" font-size="16.25" lengthAdjust="spacing" textLength="8.75" x="428.6504" y="1105.2273">1</text><text fill="#000000" font-family="sans-serif" font-size="16.25" lengthAdjust="spacing" textLength="27.5" x="408.7773" y="1171.606">0..1</text><!--MD5=[ad334d1782af96659f761ffdd3e3c1a7]
reverse link Parameter to TestParameter--><path codeLine="126" d="M207.075,1031.25 C235.825,1031.25 271.0625,1031.25 305.2875,1031.25 " fill="none" id="Parameter-backto-TestParameter" style="stroke:#A80036;stroke-width:1.25;"/><polygon fill="#A80036" points="200.6625,1031.25,211.9125,1036.25,206.9125,1031.25,211.9125,1026.25,200.6625,1031.25" style="stroke:#A80036;stroke-width:1.25;"/><text fill="#000000" font-family="sans-serif" font-size="16.25" lengthAdjust="spacing" textLength="58.75" x="223.75" y="1023.1189">refers to</text><text fill="#000000" font-family="sans-serif" font-size="16.25" lengthAdjust="spacing" textLength="8.75" x="210.7097" y="1026.55">1</text><text fill="#000000" font-family="sans-serif" font-size="16.25" lengthAdjust="spacing" textLength="6.25" x="289.4776" y="1027.4456">*</text><!--MD5=[52200cc2361fa0ac0481dd6ffcdb824b]
link TestParameterResult to ReferenceValue--><path codeLine="127" d="M438.125,1314.2125 C438.125,1344.2 438.125,1378.8625 438.125,1404.2 " fill="none" id="TestParameterResult-to-ReferenceValue" style="stroke:#A80036;stroke-width:1.25;"/><polygon fill="#A80036" points="438.125,1410.7625,443.125,1399.5125,438.125,1404.5125,433.125,1399.5125,438.125,1410.7625" style="stroke:#A80036;stroke-width:1.25;"/><text fill="#000000" font-family="sans-serif" font-size="16.25" lengthAdjust="spacing" textLength="53.75" x="439.375" y="1369.3689">records</text><text fill="#000000" font-family="sans-serif" font-size="16.25" lengthAdjust="spacing" textLength="8.75" x="428.7871" y="1341.1383">1</text><text fill="#000000" font-family="sans-serif" font-size="16.25" lengthAdjust="spacing" textLength="8.75" x="428.3086" y="1397.8161">1</text><!--MD5=[b01dd065a26bb6a9bc7afa3c9234b90e]
@startuml

class RecordResultUI {
}

class RecordResultController {
    +getListOfTestWithoutResult()
    +getTest(internalCode)
    +addParameterTestResult(parameterCode, value, metric)
    +changeStateToResultDone()
}

class Company {
    -description
    +getTestStore()
}

class TestStore {
    +getTestWithoutResult()
    +getTestByCode(testCode)
}

class TestListMapper {
    +toDto(lTestNoResult)
}

class Test {
    -createdAt
    -internalCode
    -nhsCode
    +addTestResult(paramCode, value, metric)
    +changeStateToResultDone()
    -getTestParameterByCode(paramCode)
}



class DateTime {
    -date
    -time
    +registerCurrentDateTime()
}

class TestType {
    -code
    -description
    -collectingMethod
    +getExternalModule()
}

class TestParameterResult {
    -createdAt
    -value
    -metric
    +TestParameterResult(value, metric, refValue)
}

class ReferenceValue {

}

class TestParameter {
    +getParameter()
    +addTestResult(value, metric, refValue)
}

class Parameter {
    -code
    -name
    -description
}

interface ExternalModule {
    +ReferenceValue getReferenceValue(param)
}

class ExternalModuleAdapter1 {
    +ReferenceValue getReferenceValue(param)
}

class ExternalModuleAdapter2 {
    +ReferenceValue getReferenceValue(param)
}

class ExternalModuleAdapter3 {
    +ReferenceValue getReferenceValue(param)
}

class ExternalModule1API {
    +getMetricsFor(paramID)
    +getReferenceFor(paramID)
    +getReferenceFor(paramID, onDate)
}

class ExternalModule2API {
    +getMaxReferenceValue(paramID, accessKey)
    +getMinReferenceValue(paramID, accessKey)
    +usedMetric(paramID, accessKey)
}

class ExternalModule3API {
    +getMaxReferenceValue(paramID, accessKey)
    +getMinReferenceValue(paramID, accessKey)
    +usedMetric(paramID, accessKey)
}

RecordResultUI ..> RecordResultController
RecordResultController ..> Company
RecordResultController ..> TestStore
RecordResultController ..> TestListMapper
RecordResultController ..> Test

Company"1" - -> "*"Test : "performs"
Company"1" - -> "1"TestStore : "uses"
TestStore"1" - -> "*"Test : "store"
Test"1" -left-> "*"DateTime : registers
ExternalModule <|.. ExternalModuleAdapter1
ExternalModule <|.. ExternalModuleAdapter2
ExternalModule <|.. ExternalModuleAdapter3
ExternalModuleAdapter1 -down-> ExternalModule1API
ExternalModuleAdapter2 -down-> ExternalModule2API
ExternalModuleAdapter3 -down-> ExternalModule3API
TestType"*" -> "1"ExternalModule : "make use of"
Test"*" -> "1"TestType : is of
Test"1" -down-> "1..*" TestParameter
TestParameter"1" - -> "0..1" TestParameterResult : contains
TestParameter"*" -left-> "1" Parameter : refers to
TestParameterResult"1" - -> "1"ReferenceValue : records
@enduml

PlantUML version 1.2021.5(Sun Apr 25 12:20:28 BST 2021)
(GPL source distribution)
Java Runtime: OpenJDK Runtime Environment
JVM: Dynamic Code Evolution 64-Bit Server VM
Default Encoding: Cp1252
Language: pt
Country: PT
--></g></svg>