<?xml version="1.0" encoding="UTF-8" standalone="no"?><svg xmlns="http://www.w3.org/2000/svg" xmlns:xlink="http://www.w3.org/1999/xlink" contentScriptType="application/ecmascript" contentStyleType="text/css" height="649px" preserveAspectRatio="none" style="width:903px;height:649px;" version="1.1" viewBox="0 0 903 649" width="903px" zoomAndPan="magnify"><defs><filter height="300%" id="fr3wy0ti1ooex" width="300%" x="-1" y="-1"><feGaussianBlur result="blurOut" stdDeviation="2.0"/><feColorMatrix in="blurOut" result="blurOut2" type="matrix" values="0 0 0 0 0 0 0 0 0 0 0 0 0 0 0 0 0 0 .4 0"/><feOffset dx="4.0" dy="4.0" in="blurOut2" result="blurOut3"/><feBlend in="SourceGraphic" in2="blurOut3" mode="normal"/></filter></defs><g><!--MD5=[1f2cfc53d9d308f53762fd0fcbaa4873]
cluster Controller--><polygon fill="#FFFFFF" filter="url(#fr3wy0ti1ooex)" points="416,173,493,173,500,196.6094,612,196.6094,612,293,416,293,416,173" style="stroke:#000000;stroke-width:1.5;"/><line style="stroke:#000000;stroke-width:1.5;" x1="416" x2="500" y1="196.6094" y2="196.6094"/><text fill="#000000" font-family="sans-serif" font-size="14" font-weight="bold" lengthAdjust="spacing" textLength="71" x="420" y="189.5332">Controller</text><!--MD5=[701152d03fbf85133a1de050cfdbc7fd]
cluster Mappers--><polygon fill="#FFFFFF" filter="url(#fr3wy0ti1ooex)" points="126,6,194,6,201,29.6094,657,29.6094,657,140,126,140,126,6" style="stroke:#000000;stroke-width:1.5;"/><line style="stroke:#000000;stroke-width:1.5;" x1="126" x2="201" y1="29.6094" y2="29.6094"/><text fill="#000000" font-family="sans-serif" font-size="14" font-weight="bold" lengthAdjust="spacing" textLength="62" x="130" y="22.5332">Mappers</text><!--MD5=[121a8bf1197281ab89ed693fab589f94]
cluster Domain--><polygon fill="#FFFFFF" filter="url(#fr3wy0ti1ooex)" points="16,343,74,343,81,366.6094,886,366.6094,886,642,16,642,16,343" style="stroke:#000000;stroke-width:1.5;"/><line style="stroke:#000000;stroke-width:1.5;" x1="16" x2="81" y1="366.6094" y2="366.6094"/><text fill="#000000" font-family="sans-serif" font-size="14" font-weight="bold" lengthAdjust="spacing" textLength="52" x="20" y="359.5332">Domain</text><!--MD5=[15636c1ca4a123c16a2a1a8e90aca7a9]
cluster Model--><polygon fill="#FFFFFF" filter="url(#fr3wy0ti1ooex)" points="40,387,90,387,97,410.6094,528,410.6094,528,618,40,618,40,387" style="stroke:#000000;stroke-width:1.5;"/><line style="stroke:#000000;stroke-width:1.5;" x1="40" x2="97" y1="410.6094" y2="410.6094"/><text fill="#000000" font-family="sans-serif" font-size="14" font-weight="bold" lengthAdjust="spacing" textLength="44" x="44" y="403.5332">Model</text><!--MD5=[7ce1723ddb6e6233854253973eae5a71]
cluster Store--><polygon fill="#FFFFFF" filter="url(#fr3wy0ti1ooex)" points="569,421.5,613,421.5,620,445.1094,862,445.1094,862,583.5,569,583.5,569,421.5" style="stroke:#000000;stroke-width:1.5;"/><line style="stroke:#000000;stroke-width:1.5;" x1="569" x2="620" y1="445.1094" y2="445.1094"/><text fill="#000000" font-family="sans-serif" font-size="14" font-weight="bold" lengthAdjust="spacing" textLength="38" x="573" y="438.0332">Store</text><!--MD5=[9681dc6e01e10c6b4fe06895ae94f592]
cluster UI--><polygon fill="#FFFFFF" filter="url(#fr3wy0ti1ooex)" points="681,13,701,13,708,36.6094,867,36.6094,867,133,681,133,681,13" style="stroke:#000000;stroke-width:1.5;"/><line style="stroke:#000000;stroke-width:1.5;" x1="681" x2="708" y1="36.6094" y2="36.6094"/><text fill="#000000" font-family="sans-serif" font-size="14" font-weight="bold" lengthAdjust="spacing" textLength="14" x="685" y="29.5332">UI</text><!--MD5=[3190a0737d220ffc592f921e7f8b611b]
class CheckResultsController--><rect codeLine="3" fill="#FEFECE" filter="url(#fr3wy0ti1ooex)" height="48" id="CheckResultsController" style="stroke:#A80036;stroke-width:1.5;" width="164" x="432" y="229"/><ellipse cx="447" cy="245" fill="#ADD1B2" rx="11" ry="11" style="stroke:#A80036;stroke-width:1.0;"/><path d="M449,241.5 Q449.2031,241 449.4375,240.75 Q449.6719,240.5 449.9375,240.5 Q450.4063,240.5 450.7031,240.7813 Q451,241.0625 451,241.7188 L451,243.2813 Q451,243.9375 450.7188,244.2188 Q450.4375,244.5 450,244.5 Q449.6094,244.5 449.3594,244.3281 Q449.1094,244.1563 449,243.7031 Q448.9531,243.3906 448.7813,243.2188 Q448.4688,242.8906 447.9063,242.7031 Q447.3438,242.5 446.7813,242.5 Q446.0781,242.5 445.4844,242.7813 Q444.9063,243.0625 444.4531,243.6875 Q444,244.3125 444,245.1719 L444,246.0938 Q444,247.125 444.8438,247.8125 Q445.6875,248.5 447.1875,248.5 Q448.0781,248.5 448.7031,248.2969 Q449.0625,248.1875 449.4688,247.8281 Q449.7344,247.625 449.875,247.5625 Q450.0156,247.5 450.1875,247.5 Q450.5156,247.5 450.75,247.7656 Q451,248.0156 451,248.375 Q451,248.7188 450.6563,249.125 Q450.1563,249.7188 449.3594,250.0469 Q448.3125,250.5 447.0313,250.5 Q445.5313,250.5 444.3281,249.9063 Q443.3594,249.4375 442.6719,248.4219 Q442,247.4063 442,246.2031 L442,245.1094 Q442,243.8594 442.5938,242.7656 Q443.2031,241.6719 444.25,241.0938 Q445.3125,240.5 446.5,240.5 Q447.2188,240.5 447.8438,240.75 Q448.4688,241 449,241.5 Z " fill="#000000"/><text fill="#000000" font-family="sans-serif" font-size="12" lengthAdjust="spacing" textLength="132" x="461" y="249.9102">CheckResultsController</text><line style="stroke:#A80036;stroke-width:1.5;" x1="433" x2="595" y1="261" y2="261"/><line style="stroke:#A80036;stroke-width:1.5;" x1="433" x2="595" y1="269" y2="269"/><!--MD5=[d9af5e34e5bc78cd5a2caff02363fedd]
class ClientMapper--><rect codeLine="8" fill="#FEFECE" filter="url(#fr3wy0ti1ooex)" height="61.8359" id="ClientMapper" style="stroke:#A80036;stroke-width:1.5;" width="210" x="142" y="62"/><ellipse cx="206.25" cy="78" fill="#ADD1B2" rx="11" ry="11" style="stroke:#A80036;stroke-width:1.0;"/><path d="M208.25,74.5 Q208.4531,74 208.6875,73.75 Q208.9219,73.5 209.1875,73.5 Q209.6563,73.5 209.9531,73.7813 Q210.25,74.0625 210.25,74.7188 L210.25,76.2813 Q210.25,76.9375 209.9688,77.2188 Q209.6875,77.5 209.25,77.5 Q208.8594,77.5 208.6094,77.3281 Q208.3594,77.1563 208.25,76.7031 Q208.2031,76.3906 208.0313,76.2188 Q207.7188,75.8906 207.1563,75.7031 Q206.5938,75.5 206.0313,75.5 Q205.3281,75.5 204.7344,75.7813 Q204.1563,76.0625 203.7031,76.6875 Q203.25,77.3125 203.25,78.1719 L203.25,79.0938 Q203.25,80.125 204.0938,80.8125 Q204.9375,81.5 206.4375,81.5 Q207.3281,81.5 207.9531,81.2969 Q208.3125,81.1875 208.7188,80.8281 Q208.9844,80.625 209.125,80.5625 Q209.2656,80.5 209.4375,80.5 Q209.7656,80.5 210,80.7656 Q210.25,81.0156 210.25,81.375 Q210.25,81.7188 209.9063,82.125 Q209.4063,82.7188 208.6094,83.0469 Q207.5625,83.5 206.2813,83.5 Q204.7813,83.5 203.5781,82.9063 Q202.6094,82.4375 201.9219,81.4219 Q201.25,80.4063 201.25,79.2031 L201.25,78.1094 Q201.25,76.8594 201.8438,75.7656 Q202.4531,74.6719 203.5,74.0938 Q204.5625,73.5 205.75,73.5 Q206.4688,73.5 207.0938,73.75 Q207.7188,74 208.25,74.5 Z " fill="#000000"/><text fill="#000000" font-family="sans-serif" font-size="12" lengthAdjust="spacing" textLength="73" x="226.75" y="82.9102">ClientMapper</text><line style="stroke:#A80036;stroke-width:1.5;" x1="143" x2="351" y1="94" y2="94"/><line style="stroke:#A80036;stroke-width:1.5;" x1="143" x2="351" y1="102" y2="102"/><text fill="#000000" font-family="sans-serif" font-size="11" lengthAdjust="spacing" textLength="198" x="148" y="117.4189">+List&lt;String&gt;toDTO(List&lt;Client&gt; listClient)</text><!--MD5=[0816dbe07522757147e27e2a6a931429]
class TestFinalizedMapper--><rect codeLine="11" fill="#FEFECE" filter="url(#fr3wy0ti1ooex)" height="61.8359" id="TestFinalizedMapper" style="stroke:#A80036;stroke-width:1.5;" width="253" x="387.5" y="62"/><ellipse cx="452.75" cy="78" fill="#ADD1B2" rx="11" ry="11" style="stroke:#A80036;stroke-width:1.0;"/><path d="M454.75,74.5 Q454.9531,74 455.1875,73.75 Q455.4219,73.5 455.6875,73.5 Q456.1563,73.5 456.4531,73.7813 Q456.75,74.0625 456.75,74.7188 L456.75,76.2813 Q456.75,76.9375 456.4688,77.2188 Q456.1875,77.5 455.75,77.5 Q455.3594,77.5 455.1094,77.3281 Q454.8594,77.1563 454.75,76.7031 Q454.7031,76.3906 454.5313,76.2188 Q454.2188,75.8906 453.6563,75.7031 Q453.0938,75.5 452.5313,75.5 Q451.8281,75.5 451.2344,75.7813 Q450.6563,76.0625 450.2031,76.6875 Q449.75,77.3125 449.75,78.1719 L449.75,79.0938 Q449.75,80.125 450.5938,80.8125 Q451.4375,81.5 452.9375,81.5 Q453.8281,81.5 454.4531,81.2969 Q454.8125,81.1875 455.2188,80.8281 Q455.4844,80.625 455.625,80.5625 Q455.7656,80.5 455.9375,80.5 Q456.2656,80.5 456.5,80.7656 Q456.75,81.0156 456.75,81.375 Q456.75,81.7188 456.4063,82.125 Q455.9063,82.7188 455.1094,83.0469 Q454.0625,83.5 452.7813,83.5 Q451.2813,83.5 450.0781,82.9063 Q449.1094,82.4375 448.4219,81.4219 Q447.75,80.4063 447.75,79.2031 L447.75,78.1094 Q447.75,76.8594 448.3438,75.7656 Q448.9531,74.6719 450,74.0938 Q451.0625,73.5 452.25,73.5 Q452.9688,73.5 453.5938,73.75 Q454.2188,74 454.75,74.5 Z " fill="#000000"/><text fill="#000000" font-family="sans-serif" font-size="12" lengthAdjust="spacing" textLength="114" x="473.25" y="82.9102">TestFinalizedMapper</text><line style="stroke:#A80036;stroke-width:1.5;" x1="388.5" x2="639.5" y1="94" y2="94"/><line style="stroke:#A80036;stroke-width:1.5;" x1="388.5" x2="639.5" y1="102" y2="102"/><text fill="#000000" font-family="sans-serif" font-size="11" lengthAdjust="spacing" textLength="241" x="393.5" y="117.4189">+List&lt;String&gt;toDTO(List&lt;ClinicalTest&gt; lTestsDone)</text><!--MD5=[6ef91cd45517c28008c17021de9a54ec]
class CATest--><rect codeLine="17" fill="#FEFECE" filter="url(#fr3wy0ti1ooex)" height="117.1797" id="CATest" style="stroke:#A80036;stroke-width:1.5;" width="107" x="404.5" y="464"/><ellipse cx="435.25" cy="480" fill="#ADD1B2" rx="11" ry="11" style="stroke:#A80036;stroke-width:1.0;"/><path d="M437.25,476.5 Q437.4531,476 437.6875,475.75 Q437.9219,475.5 438.1875,475.5 Q438.6563,475.5 438.9531,475.7813 Q439.25,476.0625 439.25,476.7188 L439.25,478.2813 Q439.25,478.9375 438.9688,479.2188 Q438.6875,479.5 438.25,479.5 Q437.8594,479.5 437.6094,479.3281 Q437.3594,479.1563 437.25,478.7031 Q437.2031,478.3906 437.0313,478.2188 Q436.7188,477.8906 436.1563,477.7031 Q435.5938,477.5 435.0313,477.5 Q434.3281,477.5 433.7344,477.7813 Q433.1563,478.0625 432.7031,478.6875 Q432.25,479.3125 432.25,480.1719 L432.25,481.0938 Q432.25,482.125 433.0938,482.8125 Q433.9375,483.5 435.4375,483.5 Q436.3281,483.5 436.9531,483.2969 Q437.3125,483.1875 437.7188,482.8281 Q437.9844,482.625 438.125,482.5625 Q438.2656,482.5 438.4375,482.5 Q438.7656,482.5 439,482.7656 Q439.25,483.0156 439.25,483.375 Q439.25,483.7188 438.9063,484.125 Q438.4063,484.7188 437.6094,485.0469 Q436.5625,485.5 435.2813,485.5 Q433.7813,485.5 432.5781,484.9063 Q431.6094,484.4375 430.9219,483.4219 Q430.25,482.4063 430.25,481.2031 L430.25,480.1094 Q430.25,478.8594 430.8438,477.7656 Q431.4531,476.6719 432.5,476.0938 Q433.5625,475.5 434.75,475.5 Q435.4688,475.5 436.0938,475.75 Q436.7188,476 437.25,476.5 Z " fill="#000000"/><text fill="#000000" font-family="sans-serif" font-size="12" lengthAdjust="spacing" textLength="40" x="452.75" y="484.9102">CATest</text><line style="stroke:#A80036;stroke-width:1.5;" x1="405.5" x2="510.5" y1="496" y2="496"/><text fill="#000000" font-family="sans-serif" font-size="11" lengthAdjust="spacing" textLength="58" x="410.5" y="511.4189">-Client client</text><text fill="#000000" font-family="sans-serif" font-size="11" lengthAdjust="spacing" textLength="90" x="410.5" y="525.2549">-List parameterList</text><text fill="#000000" font-family="sans-serif" font-size="11" lengthAdjust="spacing" textLength="77" x="410.5" y="539.0908">-Date createdAt</text><text fill="#000000" font-family="sans-serif" font-size="11" lengthAdjust="spacing" textLength="95" x="410.5" y="552.9268">-String internalCode</text><text fill="#000000" font-family="sans-serif" font-size="11" lengthAdjust="spacing" textLength="68" x="410.5" y="566.7627">-Report report</text><line style="stroke:#A80036;stroke-width:1.5;" x1="405.5" x2="510.5" y1="573.1797" y2="573.1797"/><!--MD5=[02e4b9b7573f1156f41e60aa5b4e25a4]
class Company--><rect codeLine="25" fill="#FEFECE" filter="url(#fr3wy0ti1ooex)" height="103.3438" id="Company" style="stroke:#A80036;stroke-width:1.5;" width="126" x="199" y="471"/><ellipse cx="232.45" cy="487" fill="#ADD1B2" rx="11" ry="11" style="stroke:#A80036;stroke-width:1.0;"/><path d="M234.45,483.5 Q234.6531,483 234.8875,482.75 Q235.1219,482.5 235.3875,482.5 Q235.8563,482.5 236.1531,482.7813 Q236.45,483.0625 236.45,483.7188 L236.45,485.2813 Q236.45,485.9375 236.1688,486.2188 Q235.8875,486.5 235.45,486.5 Q235.0594,486.5 234.8094,486.3281 Q234.5594,486.1563 234.45,485.7031 Q234.4031,485.3906 234.2313,485.2188 Q233.9188,484.8906 233.3563,484.7031 Q232.7938,484.5 232.2313,484.5 Q231.5281,484.5 230.9344,484.7813 Q230.3563,485.0625 229.9031,485.6875 Q229.45,486.3125 229.45,487.1719 L229.45,488.0938 Q229.45,489.125 230.2938,489.8125 Q231.1375,490.5 232.6375,490.5 Q233.5281,490.5 234.1531,490.2969 Q234.5125,490.1875 234.9188,489.8281 Q235.1844,489.625 235.325,489.5625 Q235.4656,489.5 235.6375,489.5 Q235.9656,489.5 236.2,489.7656 Q236.45,490.0156 236.45,490.375 Q236.45,490.7188 236.1063,491.125 Q235.6063,491.7188 234.8094,492.0469 Q233.7625,492.5 232.4813,492.5 Q230.9813,492.5 229.7781,491.9063 Q228.8094,491.4375 228.1219,490.4219 Q227.45,489.4063 227.45,488.2031 L227.45,487.1094 Q227.45,485.8594 228.0438,484.7656 Q228.6531,483.6719 229.7,483.0938 Q230.7625,482.5 231.95,482.5 Q232.6688,482.5 233.2938,482.75 Q233.9188,483 234.45,483.5 Z " fill="#000000"/><text fill="#000000" font-family="sans-serif" font-size="12" lengthAdjust="spacing" textLength="53" x="250.55" y="491.9102">Company</text><line style="stroke:#A80036;stroke-width:1.5;" x1="200" x2="324" y1="503" y2="503"/><text fill="#000000" font-family="sans-serif" font-size="11" lengthAdjust="spacing" textLength="90" x="205" y="518.4189">-String designation</text><text fill="#000000" font-family="sans-serif" font-size="11" lengthAdjust="spacing" textLength="73" x="205" y="532.2549">+getClientStore</text><line style="stroke:#A80036;stroke-width:1.5;" x1="200" x2="324" y1="538.6719" y2="538.6719"/><text fill="#000000" font-family="sans-serif" font-size="11" lengthAdjust="spacing" textLength="114" x="205" y="554.0908">+Company(designation)</text><text fill="#000000" font-family="sans-serif" font-size="11" lengthAdjust="spacing" textLength="76" x="205" y="567.9268">+getTestStore()</text><!--MD5=[ed6624c6556d5e7b1bd23032162d20b7]
class Client--><rect codeLine="31" fill="#FEFECE" filter="url(#fr3wy0ti1ooex)" height="158.6875" id="Client" style="stroke:#A80036;stroke-width:1.5;" width="107" x="56.5" y="443"/><ellipse cx="90.85" cy="459" fill="#ADD1B2" rx="11" ry="11" style="stroke:#A80036;stroke-width:1.0;"/><path d="M92.85,455.5 Q93.0531,455 93.2875,454.75 Q93.5219,454.5 93.7875,454.5 Q94.2563,454.5 94.5531,454.7813 Q94.85,455.0625 94.85,455.7188 L94.85,457.2813 Q94.85,457.9375 94.5688,458.2188 Q94.2875,458.5 93.85,458.5 Q93.4594,458.5 93.2094,458.3281 Q92.9594,458.1563 92.85,457.7031 Q92.8031,457.3906 92.6313,457.2188 Q92.3188,456.8906 91.7563,456.7031 Q91.1938,456.5 90.6313,456.5 Q89.9281,456.5 89.3344,456.7813 Q88.7563,457.0625 88.3031,457.6875 Q87.85,458.3125 87.85,459.1719 L87.85,460.0938 Q87.85,461.125 88.6938,461.8125 Q89.5375,462.5 91.0375,462.5 Q91.9281,462.5 92.5531,462.2969 Q92.9125,462.1875 93.3188,461.8281 Q93.5844,461.625 93.725,461.5625 Q93.8656,461.5 94.0375,461.5 Q94.3656,461.5 94.6,461.7656 Q94.85,462.0156 94.85,462.375 Q94.85,462.7188 94.5063,463.125 Q94.0063,463.7188 93.2094,464.0469 Q92.1625,464.5 90.8813,464.5 Q89.3813,464.5 88.1781,463.9063 Q87.2094,463.4375 86.5219,462.4219 Q85.85,461.4063 85.85,460.2031 L85.85,459.1094 Q85.85,457.8594 86.4438,456.7656 Q87.0531,455.6719 88.1,455.0938 Q89.1625,454.5 90.35,454.5 Q91.0688,454.5 91.6938,454.75 Q92.3188,455 92.85,455.5 Z " fill="#000000"/><text fill="#000000" font-family="sans-serif" font-size="12" lengthAdjust="spacing" textLength="32" x="109.15" y="463.9102">Client</text><line style="stroke:#A80036;stroke-width:1.5;" x1="57.5" x2="162.5" y1="475" y2="475"/><text fill="#000000" font-family="sans-serif" font-size="11" lengthAdjust="spacing" textLength="30" x="62.5" y="490.4189">-name</text><text fill="#000000" font-family="sans-serif" font-size="11" lengthAdjust="spacing" textLength="95" x="62.5" y="504.2549">-citizenCardNumber</text><text fill="#000000" font-family="sans-serif" font-size="11" lengthAdjust="spacing" textLength="59" x="62.5" y="518.0908">-nhsNumber</text><text fill="#000000" font-family="sans-serif" font-size="11" lengthAdjust="spacing" textLength="52" x="62.5" y="531.9268">-tinNumber</text><text fill="#000000" font-family="sans-serif" font-size="11" lengthAdjust="spacing" textLength="47" x="62.5" y="545.7627">-birthDate</text><text fill="#000000" font-family="sans-serif" font-size="11" lengthAdjust="spacing" textLength="22" x="62.5" y="559.5986">-sex</text><text fill="#000000" font-family="sans-serif" font-size="11" lengthAdjust="spacing" textLength="71" x="62.5" y="573.4346">-phoneNumber</text><text fill="#000000" font-family="sans-serif" font-size="11" lengthAdjust="spacing" textLength="28" x="62.5" y="587.2705">-email</text><line style="stroke:#A80036;stroke-width:1.5;" x1="57.5" x2="162.5" y1="593.6875" y2="593.6875"/><!--MD5=[0f6f7964b844a64b0496af0dda7914bd]
class TestStore--><rect codeLine="44" fill="#FEFECE" filter="url(#fr3wy0ti1ooex)" height="61.8359" id="TestStore" style="stroke:#A80036;stroke-width:1.5;" width="119" x="585.5" y="491.5"/><ellipse cx="615.8" cy="507.5" fill="#ADD1B2" rx="11" ry="11" style="stroke:#A80036;stroke-width:1.0;"/><path d="M617.8,504 Q618.0031,503.5 618.2375,503.25 Q618.4719,503 618.7375,503 Q619.2063,503 619.5031,503.2813 Q619.8,503.5625 619.8,504.2188 L619.8,505.7813 Q619.8,506.4375 619.5188,506.7188 Q619.2375,507 618.8,507 Q618.4094,507 618.1594,506.8281 Q617.9094,506.6563 617.8,506.2031 Q617.7531,505.8906 617.5813,505.7188 Q617.2688,505.3906 616.7063,505.2031 Q616.1438,505 615.5813,505 Q614.8781,505 614.2844,505.2813 Q613.7063,505.5625 613.2531,506.1875 Q612.8,506.8125 612.8,507.6719 L612.8,508.5938 Q612.8,509.625 613.6438,510.3125 Q614.4875,511 615.9875,511 Q616.8781,511 617.5031,510.7969 Q617.8625,510.6875 618.2688,510.3281 Q618.5344,510.125 618.675,510.0625 Q618.8156,510 618.9875,510 Q619.3156,510 619.55,510.2656 Q619.8,510.5156 619.8,510.875 Q619.8,511.2188 619.4563,511.625 Q618.9563,512.2188 618.1594,512.5469 Q617.1125,513 615.8313,513 Q614.3313,513 613.1281,512.4063 Q612.1594,511.9375 611.4719,510.9219 Q610.8,509.9063 610.8,508.7031 L610.8,507.6094 Q610.8,506.3594 611.3938,505.2656 Q612.0031,504.1719 613.05,503.5938 Q614.1125,503 615.3,503 Q616.0188,503 616.6438,503.25 Q617.2688,503.5 617.8,504 Z " fill="#000000"/><text fill="#000000" font-family="sans-serif" font-size="12" lengthAdjust="spacing" textLength="53" x="633.2" y="512.4102">TestStore</text><line style="stroke:#A80036;stroke-width:1.5;" x1="586.5" x2="703.5" y1="523.5" y2="523.5"/><line style="stroke:#A80036;stroke-width:1.5;" x1="586.5" x2="703.5" y1="531.5" y2="531.5"/><text fill="#000000" font-family="sans-serif" font-size="11" lengthAdjust="spacing" textLength="107" x="591.5" y="546.9189">+getClientTests(client)</text><!--MD5=[55cb992be19579b505cea3c5691093cb]
class ClientStore--><rect codeLine="48" fill="#FEFECE" filter="url(#fr3wy0ti1ooex)" height="89.5078" id="ClientStore" style="stroke:#A80036;stroke-width:1.5;" width="106" x="740" y="477.5"/><ellipse cx="760.85" cy="493.5" fill="#ADD1B2" rx="11" ry="11" style="stroke:#A80036;stroke-width:1.0;"/><path d="M762.85,490 Q763.0531,489.5 763.2875,489.25 Q763.5219,489 763.7875,489 Q764.2563,489 764.5531,489.2813 Q764.85,489.5625 764.85,490.2188 L764.85,491.7813 Q764.85,492.4375 764.5688,492.7188 Q764.2875,493 763.85,493 Q763.4594,493 763.2094,492.8281 Q762.9594,492.6563 762.85,492.2031 Q762.8031,491.8906 762.6313,491.7188 Q762.3188,491.3906 761.7563,491.2031 Q761.1938,491 760.6313,491 Q759.9281,491 759.3344,491.2813 Q758.7563,491.5625 758.3031,492.1875 Q757.85,492.8125 757.85,493.6719 L757.85,494.5938 Q757.85,495.625 758.6938,496.3125 Q759.5375,497 761.0375,497 Q761.9281,497 762.5531,496.7969 Q762.9125,496.6875 763.3188,496.3281 Q763.5844,496.125 763.725,496.0625 Q763.8656,496 764.0375,496 Q764.3656,496 764.6,496.2656 Q764.85,496.5156 764.85,496.875 Q764.85,497.2188 764.5063,497.625 Q764.0063,498.2188 763.2094,498.5469 Q762.1625,499 760.8813,499 Q759.3813,499 758.1781,498.4063 Q757.2094,497.9375 756.5219,496.9219 Q755.85,495.9063 755.85,494.7031 L755.85,493.6094 Q755.85,492.3594 756.4438,491.2656 Q757.0531,490.1719 758.1,489.5938 Q759.1625,489 760.35,489 Q761.0688,489 761.6938,489.25 Q762.3188,489.5 762.85,490 Z " fill="#000000"/><text fill="#000000" font-family="sans-serif" font-size="12" lengthAdjust="spacing" textLength="61" x="776.15" y="498.4102">ClientStore</text><line style="stroke:#A80036;stroke-width:1.5;" x1="741" x2="845" y1="509.5" y2="509.5"/><line style="stroke:#A80036;stroke-width:1.5;" x1="741" x2="845" y1="517.5" y2="517.5"/><text fill="#000000" font-family="sans-serif" font-size="11" lengthAdjust="spacing" textLength="92" x="746" y="532.9189">+getClientByEmail()</text><text fill="#000000" font-family="sans-serif" font-size="11" lengthAdjust="spacing" textLength="94" x="746" y="546.7549">+getClientByTIN(tin)</text><text fill="#000000" font-family="sans-serif" font-size="11" lengthAdjust="spacing" textLength="72" x="746" y="560.5908">+getClientList()</text><!--MD5=[3493a461f4042028c188b9f371cf5dc3]
class CheckTestsResultsUI--><rect codeLine="58" fill="#FEFECE" filter="url(#fr3wy0ti1ooex)" height="48" id="CheckTestsResultsUI" style="stroke:#A80036;stroke-width:1.5;" width="153" x="697.5" y="69"/><ellipse cx="712.5" cy="85" fill="#ADD1B2" rx="11" ry="11" style="stroke:#A80036;stroke-width:1.0;"/><path d="M714.5,81.5 Q714.7031,81 714.9375,80.75 Q715.1719,80.5 715.4375,80.5 Q715.9063,80.5 716.2031,80.7813 Q716.5,81.0625 716.5,81.7188 L716.5,83.2813 Q716.5,83.9375 716.2188,84.2188 Q715.9375,84.5 715.5,84.5 Q715.1094,84.5 714.8594,84.3281 Q714.6094,84.1563 714.5,83.7031 Q714.4531,83.3906 714.2813,83.2188 Q713.9688,82.8906 713.4063,82.7031 Q712.8438,82.5 712.2813,82.5 Q711.5781,82.5 710.9844,82.7813 Q710.4063,83.0625 709.9531,83.6875 Q709.5,84.3125 709.5,85.1719 L709.5,86.0938 Q709.5,87.125 710.3438,87.8125 Q711.1875,88.5 712.6875,88.5 Q713.5781,88.5 714.2031,88.2969 Q714.5625,88.1875 714.9688,87.8281 Q715.2344,87.625 715.375,87.5625 Q715.5156,87.5 715.6875,87.5 Q716.0156,87.5 716.25,87.7656 Q716.5,88.0156 716.5,88.375 Q716.5,88.7188 716.1563,89.125 Q715.6563,89.7188 714.8594,90.0469 Q713.8125,90.5 712.5313,90.5 Q711.0313,90.5 709.8281,89.9063 Q708.8594,89.4375 708.1719,88.4219 Q707.5,87.4063 707.5,86.2031 L707.5,85.1094 Q707.5,83.8594 708.0938,82.7656 Q708.7031,81.6719 709.75,81.0938 Q710.8125,80.5 712,80.5 Q712.7188,80.5 713.3438,80.75 Q713.9688,81 714.5,81.5 Z " fill="#000000"/><text fill="#000000" font-family="sans-serif" font-size="12" lengthAdjust="spacing" textLength="121" x="726.5" y="89.9102">CheckTestsResultsUI</text><line style="stroke:#A80036;stroke-width:1.5;" x1="698.5" x2="849.5" y1="101" y2="101"/><line style="stroke:#A80036;stroke-width:1.5;" x1="698.5" x2="849.5" y1="109" y2="109"/><!--MD5=[80804ada72c4847879cf4b5995ce59d1]
link CheckTestsResultsUI to CheckResultsController--><path codeLine="65" d="M735.92,117.14 C688.13,146.18 606.43,195.83 556.61,226.11 " fill="none" id="CheckTestsResultsUI-to-CheckResultsController" style="stroke:#A80036;stroke-width:1.0;stroke-dasharray:7.0,7.0;"/><polygon fill="#A80036" points="552.19,228.79,561.9576,227.5273,556.461,226.1903,557.798,220.6937,552.19,228.79" style="stroke:#A80036;stroke-width:1.0;"/><!--MD5=[2726067fa758e89b7b792b15b395b8e6]
link CheckResultsController to TestStore--><path codeLine="67" d="M543.7,277.11 C553.79,286.16 564.42,297.21 572,309 C608.36,365.55 628.85,442.28 638.36,486.38 " fill="none" id="CheckResultsController-to-TestStore" style="stroke:#A80036;stroke-width:1.0;stroke-dasharray:7.0,7.0;"/><polygon fill="#A80036" points="639.41,491.33,641.4701,481.699,638.3799,486.4373,633.6417,483.3471,639.41,491.33" style="stroke:#A80036;stroke-width:1.0;"/><!--MD5=[0ba50439a055e162ae2b1f42f1453209]
link CheckResultsController to ClientStore--><path codeLine="68" d="M596.13,269.26 C638.49,280.9 688.22,300.96 722,335 C758.94,372.22 777.01,430.61 785.62,472.14 " fill="none" id="CheckResultsController-to-ClientStore" style="stroke:#A80036;stroke-width:1.0;stroke-dasharray:7.0,7.0;"/><polygon fill="#A80036" points="786.63,477.12,788.7765,467.5079,785.6439,472.2182,780.9336,469.0856,786.63,477.12" style="stroke:#A80036;stroke-width:1.0;"/><!--MD5=[a9e07f67fb2f8bd4f082fa1d2bc4c173]
link CheckResultsController to Company--><path codeLine="69" d="M431.52,258.56 C392.3,264.92 347.63,278.9 318,309 C277.2,350.45 265.14,417.89 262.05,465.67 " fill="none" id="CheckResultsController-to-Company" style="stroke:#A80036;stroke-width:1.0;stroke-dasharray:7.0,7.0;"/><polygon fill="#A80036" points="261.75,470.81,266.2818,462.0657,262.0495,465.819,258.2962,461.5866,261.75,470.81" style="stroke:#A80036;stroke-width:1.0;"/><!--MD5=[1d150f64c169a349aa98ad58d545e3ba]
reverse link TestFinalizedMapper to CheckResultsController--><path codeLine="70" d="M514,129.22 C514,159.55 514,202.47 514,228.7 " fill="none" id="TestFinalizedMapper-backto-CheckResultsController" style="stroke:#A80036;stroke-width:1.0;stroke-dasharray:7.0,7.0;"/><polygon fill="#A80036" points="514,124.09,510,133.09,514,129.09,518,133.09,514,124.09" style="stroke:#A80036;stroke-width:1.0;"/><!--MD5=[d0acba4585c1aa8aec94bf5a437e4360]
reverse link ClientMapper to CheckResultsController--><path codeLine="71" d="M302.45,126.81 C354.03,157.34 429.56,202.03 475.04,228.94 " fill="none" id="ClientMapper-backto-CheckResultsController" style="stroke:#A80036;stroke-width:1.0;stroke-dasharray:7.0,7.0;"/><polygon fill="#A80036" points="297.85,124.09,303.5607,132.1142,302.1538,126.6351,307.6329,125.2281,297.85,124.09" style="stroke:#A80036;stroke-width:1.0;"/><!--MD5=[58ebce8eb2efbde8374366f1ab2593bf]
link CheckResultsController to CATest--><path codeLine="72" d="M509.13,277.27 C500.75,317.31 483.33,400.52 471.16,458.63 " fill="none" id="CheckResultsController-to-CATest" style="stroke:#A80036;stroke-width:1.0;stroke-dasharray:7.0,7.0;"/><polygon fill="#A80036" points="470.07,463.82,475.8383,455.8371,471.1001,458.9273,468.0099,454.189,470.07,463.82" style="stroke:#A80036;stroke-width:1.0;"/><!--MD5=[b5448f23018a6d7e214c98e0b8cf6735]
link Company to CATest--><path codeLine="73" d="M325.09,522.5 C348.82,522.5 375.68,522.5 399.01,522.5 " fill="none" id="Company-to-CATest" style="stroke:#A80036;stroke-width:1.0;"/><polygon fill="#A80036" points="404.24,522.5,395.24,518.5,399.24,522.5,395.24,526.5,404.24,522.5" style="stroke:#A80036;stroke-width:1.0;"/><text fill="#000000" font-family="sans-serif" font-size="13" lengthAdjust="spacing" textLength="43" x="343.25" y="515.9951">perform</text><text fill="#000000" font-family="sans-serif" font-size="13" lengthAdjust="spacing" textLength="7" x="333.2057" y="519.0206">1</text><text fill="#000000" font-family="sans-serif" font-size="13" lengthAdjust="spacing" textLength="5" x="391.3284" y="518.8822">*</text><!--MD5=[7f6cf7f175eae0af66201860de5de971]
link Company to TestStore--><path codeLine="74" d="M283.97,470.88 C304.23,430.59 338.53,377.48 387,353 C442.94,324.75 472.51,323.88 528,353 C581.39,381.02 615.22,445.68 632.08,486.55 " fill="none" id="Company-to-TestStore" style="stroke:#A80036;stroke-width:1.0;"/><polygon fill="#A80036" points="634.05,491.41,634.3587,481.566,632.1635,486.7795,626.95,484.5844,634.05,491.41" style="stroke:#A80036;stroke-width:1.0;"/><text fill="#000000" font-family="sans-serif" font-size="13" lengthAdjust="spacing" textLength="21" x="541.5" y="323.4951">use</text><text fill="#000000" font-family="sans-serif" font-size="13" lengthAdjust="spacing" textLength="7" x="279.5673" y="459.9916">1</text><text fill="#000000" font-family="sans-serif" font-size="13" lengthAdjust="spacing" textLength="7" x="623.8891" y="480.4106">1</text><!--MD5=[456fdd6027b3679f9d3961547da5f10a]
link TestStore to CATest--><path codeLine="76" d="M585.5,522.5 C563.54,522.5 538.69,522.5 516.79,522.5 " fill="none" id="TestStore-to-CATest" style="stroke:#A80036;stroke-width:1.0;"/><polygon fill="#A80036" points="511.59,522.5,520.59,526.5,516.59,522.5,520.59,518.5,511.59,522.5" style="stroke:#A80036;stroke-width:1.0;"/><text fill="#000000" font-family="sans-serif" font-size="13" lengthAdjust="spacing" textLength="37" x="530" y="515.9951">knows</text><text fill="#000000" font-family="sans-serif" font-size="13" lengthAdjust="spacing" textLength="7" x="570.4281" y="519.0031">1</text><text fill="#000000" font-family="sans-serif" font-size="13" lengthAdjust="spacing" textLength="7" x="519.6183" y="518.8822">1</text><!--MD5=[1d934105a045dbf126514c6917bd5072]
link ClientStore to Client--><path codeLine="77" d="M787.86,477.35 C780.63,437.12 763.31,380.48 722,353 C672.05,319.77 232.04,319.89 182,353 C153.02,372.18 135.67,405.62 125.3,437.76 " fill="none" id="ClientStore-to-Client" style="stroke:#A80036;stroke-width:1.0;"/><polygon fill="#A80036" points="123.69,442.91,130.205,435.5239,125.1895,438.1401,122.5732,433.1247,123.69,442.91" style="stroke:#A80036;stroke-width:1.0;"/><text fill="#000000" font-family="sans-serif" font-size="13" lengthAdjust="spacing" textLength="37" x="326.5" y="323.4951">knows</text><text fill="#000000" font-family="sans-serif" font-size="13" lengthAdjust="spacing" textLength="7" x="779.537" y="466.7711">1</text><text fill="#000000" font-family="sans-serif" font-size="13" lengthAdjust="spacing" textLength="7" x="117.6612" y="432.0883">1</text><!--MD5=[9e756cd47139d2a946acacc6d829c20d]
@startuml
skinparam classAttributeIconSize 0
package Controller {
class CheckResultsController {

}
}
package Mappers {
class ClientMapper {
  + List<String>toDTO(List<Client> listClient)
}
class TestFinalizedMapper {
  + List<String>toDTO(List<ClinicalTest> lTestsDone)
}
}
package Domain {
package Model {
class CATest {
  - Client client
  - List parameterList
  - Date createdAt
  - String internalCode
  - Report report
}

class Company {
  - String designation
  + Company(designation)
  + getTestStore()
  +getClientStore
  }
  class Client{
  -name
  -citizenCardNumber
  -nhsNumber
  -tinNumber
  -birthDate
  -sex
  -phoneNumber
  -email
}

}
package Store {
class TestStore {
    +getClientTests(client)

}
class ClientStore{
    +getClientByEmail()
    +getClientByTIN(tin)
    +getClientList()
}
}

}

package UI {
class CheckTestsResultsUI{
}
}




CheckTestsResultsUI ..> CheckResultsController

CheckResultsController ..> TestStore
CheckResultsController ..> ClientStore
CheckResultsController ..> Company
CheckResultsController .up.> TestFinalizedMapper
CheckResultsController .up.> ClientMapper
CheckResultsController ..> CATest
Company "1" -> "*"CATest :perform
Company "1" -> "1" TestStore : use

TestStore "1" -> "1" CATest : knows
ClientStore "1" -> "1" Client : knows




@enduml

PlantUML version 1.2021.5(Sun Apr 25 12:20:28 BST 2021)
(GPL source distribution)
Java Runtime: OpenJDK Runtime Environment
JVM: Dynamic Code Evolution 64-Bit Server VM
Default Encoding: Cp1252
Language: pt
Country: PT
--></g></svg>