<?xml version="1.0" encoding="UTF-8" standalone="no"?><svg xmlns="http://www.w3.org/2000/svg" xmlns:xlink="http://www.w3.org/1999/xlink" contentScriptType="application/ecmascript" contentStyleType="text/css" height="855.6px" preserveAspectRatio="none" style="width:719px;height:855px;" version="1.1" viewBox="0 0 719 855" width="719.4px" zoomAndPan="magnify"><defs><filter height="300%" id="f12a4bmheykbvi" width="300%" x="-1" y="-1"><feGaussianBlur result="blurOut" stdDeviation="1.2"/><feColorMatrix in="blurOut" result="blurOut2" type="matrix" values="0 0 0 0 0 0 0 0 0 0 0 0 0 0 0 0 0 0 .4 0"/><feOffset dx="2.4" dy="2.4" in="blurOut2" result="blurOut3"/><feBlend in="SourceGraphic" in2="blurOut3" mode="normal"/></filter></defs><g><!--MD5=[02e4b9b7573f1156f41e60aa5b4e25a4]
class Company--><rect codeLine="84" fill="#FEFECE" filter="url(#f12a4bmheykbvi)" height="45.4031" id="Company" style="stroke:#A80036;stroke-width:0.8999999999999999;" width="51" x="515.514" y="4.2"/><ellipse cx="524.514" cy="13.8" fill="#ADD1B2" rx="6.6" ry="6.6" style="stroke:#A80036;stroke-width:0.6;"/><path d="M525.714,11.7 Q525.8359,11.4 525.9765,11.25 Q526.1171,11.1 526.2765,11.1 Q526.5578,11.1 526.7359,11.2687 Q526.914,11.4375 526.914,11.8312 L526.914,12.7687 Q526.914,13.1625 526.7453,13.3312 Q526.5765,13.5 526.314,13.5 Q526.0796,13.5 525.9296,13.3969 Q525.7796,13.2938 525.714,13.0219 Q525.6859,12.8344 525.5828,12.7313 Q525.3953,12.5344 525.0578,12.4219 Q524.7203,12.3 524.3828,12.3 Q523.9609,12.3 523.6046,12.4688 Q523.2578,12.6375 522.9859,13.0125 Q522.714,13.3875 522.714,13.9031 L522.714,14.4562 Q522.714,15.075 523.2203,15.4875 Q523.7265,15.9 524.6265,15.9 Q525.1609,15.9 525.5359,15.7781 Q525.7515,15.7125 525.9953,15.4969 Q526.1546,15.375 526.239,15.3375 Q526.3234,15.3 526.4265,15.3 Q526.6234,15.3 526.764,15.4594 Q526.914,15.6094 526.914,15.825 Q526.914,16.0313 526.7078,16.275 Q526.4078,16.6312 525.9296,16.8281 Q525.3015,17.1 524.5328,17.1 Q523.6328,17.1 522.9109,16.7438 Q522.3296,16.4625 521.9171,15.8531 Q521.514,15.2437 521.514,14.5219 L521.514,13.8656 Q521.514,13.1156 521.8703,12.4594 Q522.2359,11.8031 522.864,11.4562 Q523.5015,11.1 524.214,11.1 Q524.6453,11.1 525.0203,11.25 Q525.3953,11.4 525.714,11.7 Z " fill="#000000"/><text fill="#000000" font-family="sans-serif" font-size="7.2" lengthAdjust="spacing" textLength="31.8" x="532.914" y="16.7461">Company</text><line style="stroke:#A80036;stroke-width:0.8999999999999999;" x1="516.114" x2="565.914" y1="23.4" y2="23.4"/><rect fill="none" height="3.6" style="stroke:#C82930;stroke-width:0.6;" width="3.6" x="520.314" y="28.2"/><text fill="#000000" font-family="sans-serif" font-size="6.6" lengthAdjust="spacing" textLength="15.6" x="527.514" y="32.6514">name</text><rect fill="none" height="3.6" style="stroke:#C82930;stroke-width:0.6;" width="3.6" x="520.314" y="36.5016"/><text fill="#000000" font-family="sans-serif" font-size="6.6" lengthAdjust="spacing" textLength="22.2" x="527.514" y="40.9529">location</text><line style="stroke:#A80036;stroke-width:0.8999999999999999;" x1="516.114" x2="565.914" y1="44.8031" y2="44.8031"/><!--MD5=[7421f545a0d8420c5bec41e74b387d9c]
class Employee--><rect codeLine="56" fill="#FEFECE" filter="url(#f12a4bmheykbvi)" height="78.6094" id="Employee" style="stroke:#A80036;stroke-width:0.8999999999999999;" width="55.8" x="298.914" y="172.2"/><ellipse cx="309.534" cy="181.8" fill="#ADD1B2" rx="6.6" ry="6.6" style="stroke:#A80036;stroke-width:0.6;"/><path d="M310.734,179.7 Q310.8559,179.4 310.9965,179.25 Q311.1371,179.1 311.2965,179.1 Q311.5778,179.1 311.7559,179.2687 Q311.934,179.4375 311.934,179.8312 L311.934,180.7687 Q311.934,181.1625 311.7653,181.3312 Q311.5965,181.5 311.334,181.5 Q311.0996,181.5 310.9496,181.3969 Q310.7996,181.2938 310.734,181.0219 Q310.7059,180.8344 310.6027,180.7313 Q310.4152,180.5344 310.0778,180.4219 Q309.7403,180.3 309.4027,180.3 Q308.9809,180.3 308.6246,180.4688 Q308.2777,180.6375 308.0059,181.0125 Q307.734,181.3875 307.734,181.9031 L307.734,182.4562 Q307.734,183.075 308.2403,183.4875 Q308.7465,183.9 309.6465,183.9 Q310.1809,183.9 310.5559,183.7781 Q310.7715,183.7125 311.0153,183.4969 Q311.1746,183.375 311.259,183.3375 Q311.3434,183.3 311.4465,183.3 Q311.6434,183.3 311.784,183.4594 Q311.934,183.6094 311.934,183.825 Q311.934,184.0313 311.7277,184.275 Q311.4278,184.6313 310.9496,184.8281 Q310.3215,185.1 309.5528,185.1 Q308.6527,185.1 307.9309,184.7438 Q307.3496,184.4625 306.9371,183.8531 Q306.534,183.2438 306.534,182.5219 L306.534,181.8656 Q306.534,181.1156 306.8903,180.4594 Q307.2559,179.8031 307.884,179.4562 Q308.5215,179.1 309.234,179.1 Q309.6652,179.1 310.0402,179.25 Q310.4152,179.4 310.734,179.7 Z " fill="#000000"/><text fill="#000000" font-family="sans-serif" font-size="7.2" lengthAdjust="spacing" textLength="33" x="318.294" y="184.7461">Employee</text><line style="stroke:#A80036;stroke-width:0.8999999999999999;" x1="299.514" x2="354.114" y1="191.4" y2="191.4"/><rect fill="none" height="3.6" style="stroke:#C82930;stroke-width:0.6;" width="3.6" x="303.714" y="196.2"/><text fill="#000000" font-family="sans-serif" font-size="6.6" lengthAdjust="spacing" textLength="33" x="310.914" y="200.6514">employeeID</text><rect fill="none" height="3.6" style="stroke:#C82930;stroke-width:0.6;" width="3.6" x="303.714" y="204.5016"/><text fill="#000000" font-family="sans-serif" font-size="6.6" lengthAdjust="spacing" textLength="15.6" x="310.914" y="208.9529">name</text><rect fill="none" height="3.6" style="stroke:#C82930;stroke-width:0.6;" width="3.6" x="303.714" y="212.8031"/><text fill="#000000" font-family="sans-serif" font-size="6.6" lengthAdjust="spacing" textLength="24" x="310.914" y="217.2545">address</text><rect fill="none" height="3.6" style="stroke:#C82930;stroke-width:0.6;" width="3.6" x="303.714" y="221.1047"/><text fill="#000000" font-family="sans-serif" font-size="6.6" lengthAdjust="spacing" textLength="25.8" x="310.914" y="225.5561">socCode</text><rect fill="none" height="3.6" style="stroke:#C82930;stroke-width:0.6;" width="3.6" x="303.714" y="229.4063"/><text fill="#000000" font-family="sans-serif" font-size="6.6" lengthAdjust="spacing" textLength="40.2" x="310.914" y="233.8576">phoneNumber</text><rect fill="none" height="3.6" style="stroke:#C82930;stroke-width:0.6;" width="3.6" x="303.714" y="237.7078"/><text fill="#000000" font-family="sans-serif" font-size="6.6" lengthAdjust="spacing" textLength="14.4" x="310.914" y="242.1592">email</text><line style="stroke:#A80036;stroke-width:0.8999999999999999;" x1="299.514" x2="354.114" y1="246.0094" y2="246.0094"/><!--MD5=[ed6624c6556d5e7b1bd23032162d20b7]
class Client--><rect codeLine="37" fill="#FEFECE" filter="url(#f12a4bmheykbvi)" height="86.9109" id="Client" style="stroke:#A80036;stroke-width:0.8999999999999999;" width="55.8" x="145.314" y="760.8"/><ellipse cx="162.144" cy="770.4" fill="#ADD1B2" rx="6.6" ry="6.6" style="stroke:#A80036;stroke-width:0.6;"/><path d="M163.344,768.3 Q163.4659,768 163.6065,767.85 Q163.7471,767.7 163.9065,767.7 Q164.1878,767.7 164.3659,767.8688 Q164.544,768.0375 164.544,768.4313 L164.544,769.3688 Q164.544,769.7625 164.3753,769.9313 Q164.2065,770.1 163.944,770.1 Q163.7096,770.1 163.5596,769.9969 Q163.4096,769.8938 163.344,769.6219 Q163.3159,769.4344 163.2128,769.3313 Q163.0253,769.1344 162.6878,769.0219 Q162.3503,768.9 162.0128,768.9 Q161.5909,768.9 161.2346,769.0688 Q160.8878,769.2375 160.6159,769.6125 Q160.344,769.9875 160.344,770.5031 L160.344,771.0563 Q160.344,771.675 160.8503,772.0875 Q161.3565,772.5 162.2565,772.5 Q162.7909,772.5 163.1659,772.3781 Q163.3815,772.3125 163.6253,772.0969 Q163.7846,771.975 163.869,771.9375 Q163.9534,771.9 164.0565,771.9 Q164.2534,771.9 164.394,772.0594 Q164.544,772.2094 164.544,772.425 Q164.544,772.6313 164.3378,772.875 Q164.0378,773.2312 163.5596,773.4281 Q162.9315,773.7 162.1628,773.7 Q161.2628,773.7 160.5409,773.3438 Q159.9596,773.0625 159.5471,772.4531 Q159.144,771.8438 159.144,771.1219 L159.144,770.4656 Q159.144,769.7156 159.5003,769.0594 Q159.8659,768.4031 160.494,768.0563 Q161.1315,767.7 161.844,767.7 Q162.2753,767.7 162.6503,767.85 Q163.0253,768 163.344,768.3 Z " fill="#000000"/><text fill="#000000" font-family="sans-serif" font-size="7.2" lengthAdjust="spacing" textLength="19.2" x="172.284" y="773.3461">Client</text><line style="stroke:#A80036;stroke-width:0.8999999999999999;" x1="145.914" x2="200.514" y1="780" y2="780"/><rect fill="none" height="3.6" style="stroke:#C82930;stroke-width:0.6;" width="3.6" x="150.114" y="784.8"/><text fill="#000000" font-family="sans-serif" font-size="6.6" lengthAdjust="spacing" textLength="33" x="157.314" y="789.2514">nhsNumber</text><rect fill="none" height="3.6" style="stroke:#C82930;stroke-width:0.6;" width="3.6" x="150.114" y="793.1016"/><text fill="#000000" font-family="sans-serif" font-size="6.6" lengthAdjust="spacing" textLength="15.6" x="157.314" y="797.5529">name</text><rect fill="none" height="3.6" style="stroke:#C82930;stroke-width:0.6;" width="3.6" x="150.114" y="801.4031"/><text fill="#000000" font-family="sans-serif" font-size="6.6" lengthAdjust="spacing" textLength="6.6" x="157.314" y="805.8545">tin</text><rect fill="none" height="3.6" style="stroke:#C82930;stroke-width:0.6;" width="3.6" x="150.114" y="809.7047"/><text fill="#000000" font-family="sans-serif" font-size="6.6" lengthAdjust="spacing" textLength="25.8" x="157.314" y="814.1561">birthDate</text><rect fill="none" height="3.6" style="stroke:#C82930;stroke-width:0.6;" width="3.6" x="150.114" y="818.0063"/><text fill="#000000" font-family="sans-serif" font-size="6.6" lengthAdjust="spacing" textLength="10.8" x="157.314" y="822.4576">sex</text><rect fill="none" height="3.6" style="stroke:#C82930;stroke-width:0.6;" width="3.6" x="150.114" y="826.3078"/><text fill="#000000" font-family="sans-serif" font-size="6.6" lengthAdjust="spacing" textLength="40.2" x="157.314" y="830.7592">phoneNumber</text><rect fill="none" height="3.6" style="stroke:#C82930;stroke-width:0.6;" width="3.6" x="150.114" y="834.6094"/><text fill="#000000" font-family="sans-serif" font-size="6.6" lengthAdjust="spacing" textLength="14.4" x="157.314" y="839.0607">email</text><line style="stroke:#A80036;stroke-width:0.8999999999999999;" x1="145.914" x2="200.514" y1="842.9109" y2="842.9109"/><!--MD5=[28d9d7ef96b34fdc6ab3814c5cef79ce]
class ClinicalAnalysisLab--><rect codeLine="65" fill="#FEFECE" filter="url(#f12a4bmheykbvi)" height="70.3078" id="ClinicalAnalysisLab" style="stroke:#A80036;stroke-width:0.8999999999999999;" width="84" x="439.614" y="399.6"/><ellipse cx="448.614" cy="409.2" fill="#ADD1B2" rx="6.6" ry="6.6" style="stroke:#A80036;stroke-width:0.6;"/><path d="M449.814,407.1 Q449.9359,406.8 450.0765,406.65 Q450.2171,406.5 450.3765,406.5 Q450.6578,406.5 450.8359,406.6688 Q451.014,406.8375 451.014,407.2313 L451.014,408.1688 Q451.014,408.5625 450.8453,408.7313 Q450.6765,408.9 450.414,408.9 Q450.1796,408.9 450.0296,408.7969 Q449.8796,408.6937 449.814,408.4219 Q449.7859,408.2344 449.6828,408.1312 Q449.4953,407.9344 449.1578,407.8219 Q448.8203,407.7 448.4828,407.7 Q448.0609,407.7 447.7046,407.8688 Q447.3578,408.0375 447.0859,408.4125 Q446.814,408.7875 446.814,409.3031 L446.814,409.8563 Q446.814,410.475 447.3203,410.8875 Q447.8265,411.3 448.7265,411.3 Q449.2609,411.3 449.6359,411.1781 Q449.8515,411.1125 450.0953,410.8969 Q450.2546,410.775 450.339,410.7375 Q450.4234,410.7 450.5265,410.7 Q450.7234,410.7 450.864,410.8594 Q451.014,411.0094 451.014,411.225 Q451.014,411.4313 450.8078,411.675 Q450.5078,412.0313 450.0296,412.2281 Q449.4015,412.5 448.6328,412.5 Q447.7328,412.5 447.0109,412.1438 Q446.4296,411.8625 446.0171,411.2531 Q445.614,410.6438 445.614,409.9219 L445.614,409.2656 Q445.614,408.5156 445.9703,407.8594 Q446.3359,407.2031 446.964,406.8563 Q447.6015,406.5 448.314,406.5 Q448.7453,406.5 449.1203,406.65 Q449.4953,406.8 449.814,407.1 Z " fill="#000000"/><text fill="#000000" font-family="sans-serif" font-size="7.2" lengthAdjust="spacing" textLength="64.8" x="457.014" y="412.1461">ClinicalAnalysisLab</text><line style="stroke:#A80036;stroke-width:0.8999999999999999;" x1="440.214" x2="523.014" y1="418.8" y2="418.8"/><rect fill="none" height="3.6" style="stroke:#C82930;stroke-width:0.6;" width="3.6" x="444.414" y="423.6"/><text fill="#000000" font-family="sans-serif" font-size="6.6" lengthAdjust="spacing" textLength="13.2" x="451.614" y="428.0514">labId</text><rect fill="none" height="3.6" style="stroke:#C82930;stroke-width:0.6;" width="3.6" x="444.414" y="431.9016"/><text fill="#000000" font-family="sans-serif" font-size="6.6" lengthAdjust="spacing" textLength="15.6" x="451.614" y="436.3529">name</text><rect fill="none" height="3.6" style="stroke:#C82930;stroke-width:0.6;" width="3.6" x="444.414" y="440.2031"/><text fill="#000000" font-family="sans-serif" font-size="6.6" lengthAdjust="spacing" textLength="24" x="451.614" y="444.6545">address</text><rect fill="none" height="3.6" style="stroke:#C82930;stroke-width:0.6;" width="3.6" x="444.414" y="448.5047"/><text fill="#000000" font-family="sans-serif" font-size="6.6" lengthAdjust="spacing" textLength="40.2" x="451.614" y="452.9561">phoneNumber</text><rect fill="none" height="3.6" style="stroke:#C82930;stroke-width:0.6;" width="3.6" x="444.414" y="456.8063"/><text fill="#000000" font-family="sans-serif" font-size="6.6" lengthAdjust="spacing" textLength="28.8" x="451.614" y="461.2576">tinNumber</text><line style="stroke:#A80036;stroke-width:0.8999999999999999;" x1="440.214" x2="523.014" y1="465.1078" y2="465.1078"/><!--MD5=[01931d41e78f8996acd44f6f0fd8de28]
class MedicalLabTechnician--><rect fill="#FEFECE" filter="url(#f12a4bmheykbvi)" height="28.8" id="MedicalLabTechnician" style="stroke:#A80036;stroke-width:0.8999999999999999;" width="93" x="358.914" y="301.8"/><ellipse cx="367.914" cy="311.4" fill="#ADD1B2" rx="6.6" ry="6.6" style="stroke:#A80036;stroke-width:0.6;"/><path d="M369.114,309.3 Q369.2359,309 369.3765,308.85 Q369.5171,308.7 369.6765,308.7 Q369.9578,308.7 370.1359,308.8688 Q370.314,309.0375 370.314,309.4313 L370.314,310.3688 Q370.314,310.7625 370.1453,310.9313 Q369.9765,311.1 369.714,311.1 Q369.4796,311.1 369.3296,310.9969 Q369.1796,310.8938 369.114,310.6219 Q369.0859,310.4344 368.9828,310.3313 Q368.7953,310.1344 368.4578,310.0219 Q368.1203,309.9 367.7828,309.9 Q367.3609,309.9 367.0046,310.0687 Q366.6578,310.2375 366.3859,310.6125 Q366.114,310.9875 366.114,311.5031 L366.114,312.0563 Q366.114,312.675 366.6203,313.0875 Q367.1265,313.5 368.0265,313.5 Q368.5609,313.5 368.9359,313.3781 Q369.1515,313.3125 369.3953,313.0969 Q369.5546,312.975 369.639,312.9375 Q369.7234,312.9 369.8265,312.9 Q370.0234,312.9 370.164,313.0594 Q370.314,313.2094 370.314,313.425 Q370.314,313.6312 370.1078,313.875 Q369.8078,314.2313 369.3296,314.4281 Q368.7015,314.7 367.9328,314.7 Q367.0328,314.7 366.3109,314.3438 Q365.7296,314.0625 365.3171,313.4531 Q364.914,312.8438 364.914,312.1219 L364.914,311.4656 Q364.914,310.7156 365.2703,310.0594 Q365.6359,309.4031 366.264,309.0563 Q366.9015,308.7 367.614,308.7 Q368.0453,308.7 368.4203,308.85 Q368.7953,309 369.114,309.3 Z " fill="#000000"/><text fill="#000000" font-family="sans-serif" font-size="7.2" lengthAdjust="spacing" textLength="73.8" x="376.314" y="314.3461">MedicalLabTechnician</text><line style="stroke:#A80036;stroke-width:0.8999999999999999;" x1="359.514" x2="451.314" y1="321" y2="321"/><line style="stroke:#A80036;stroke-width:0.8999999999999999;" x1="359.514" x2="451.314" y1="325.8" y2="325.8"/><!--MD5=[03960189e81aa2c066c762ffabbee709]
class Receptionist--><rect fill="#FEFECE" filter="url(#f12a4bmheykbvi)" height="28.8" id="Receptionist" style="stroke:#A80036;stroke-width:0.8999999999999999;" width="60.6" x="162.114" y="301.8"/><ellipse cx="171.114" cy="311.4" fill="#ADD1B2" rx="6.6" ry="6.6" style="stroke:#A80036;stroke-width:0.6;"/><path d="M172.314,309.3 Q172.4359,309 172.5765,308.85 Q172.7171,308.7 172.8765,308.7 Q173.1578,308.7 173.3359,308.8688 Q173.514,309.0375 173.514,309.4313 L173.514,310.3688 Q173.514,310.7625 173.3453,310.9313 Q173.1765,311.1 172.914,311.1 Q172.6796,311.1 172.5296,310.9969 Q172.3796,310.8938 172.314,310.6219 Q172.2859,310.4344 172.1828,310.3313 Q171.9953,310.1344 171.6578,310.0219 Q171.3203,309.9 170.9827,309.9 Q170.5609,309.9 170.2046,310.0687 Q169.8577,310.2375 169.5859,310.6125 Q169.314,310.9875 169.314,311.5031 L169.314,312.0563 Q169.314,312.675 169.8203,313.0875 Q170.3265,313.5 171.2265,313.5 Q171.7609,313.5 172.1359,313.3781 Q172.3515,313.3125 172.5953,313.0969 Q172.7546,312.975 172.839,312.9375 Q172.9234,312.9 173.0265,312.9 Q173.2234,312.9 173.364,313.0594 Q173.514,313.2094 173.514,313.425 Q173.514,313.6312 173.3078,313.875 Q173.0078,314.2313 172.5296,314.4281 Q171.9015,314.7 171.1328,314.7 Q170.2327,314.7 169.5109,314.3438 Q168.9296,314.0625 168.5171,313.4531 Q168.114,312.8438 168.114,312.1219 L168.114,311.4656 Q168.114,310.7156 168.4703,310.0594 Q168.8359,309.4031 169.464,309.0563 Q170.1015,308.7 170.814,308.7 Q171.2453,308.7 171.6203,308.85 Q171.9953,309 172.314,309.3 Z " fill="#000000"/><text fill="#000000" font-family="sans-serif" font-size="7.2" lengthAdjust="spacing" textLength="41.4" x="179.514" y="314.3461">Receptionist</text><line style="stroke:#A80036;stroke-width:0.8999999999999999;" x1="162.714" x2="222.114" y1="321" y2="321"/><line style="stroke:#A80036;stroke-width:0.8999999999999999;" x1="162.714" x2="222.114" y1="325.8" y2="325.8"/><!--MD5=[40e890504ae8504489f671c0e1cb46b0]
class TestRequest--><rect codeLine="79" fill="#FEFECE" filter="url(#f12a4bmheykbvi)" height="45.4031" id="TestRequest" style="stroke:#A80036;stroke-width:0.8999999999999999;" width="61.8" x="162.114" y="411.9"/><ellipse cx="171.114" cy="421.5" fill="#ADD1B2" rx="6.6" ry="6.6" style="stroke:#A80036;stroke-width:0.6;"/><path d="M172.314,419.4 Q172.4359,419.1 172.5765,418.95 Q172.7171,418.8 172.8765,418.8 Q173.1578,418.8 173.3359,418.9688 Q173.514,419.1375 173.514,419.5313 L173.514,420.4688 Q173.514,420.8625 173.3453,421.0313 Q173.1765,421.2 172.914,421.2 Q172.6796,421.2 172.5296,421.0969 Q172.3796,420.9938 172.314,420.7219 Q172.2859,420.5344 172.1828,420.4313 Q171.9953,420.2344 171.6578,420.1219 Q171.3203,420 170.9827,420 Q170.5609,420 170.2046,420.1688 Q169.8577,420.3375 169.5859,420.7125 Q169.314,421.0875 169.314,421.6031 L169.314,422.1563 Q169.314,422.775 169.8203,423.1875 Q170.3265,423.6 171.2265,423.6 Q171.7609,423.6 172.1359,423.4781 Q172.3515,423.4125 172.5953,423.1969 Q172.7546,423.075 172.839,423.0375 Q172.9234,423 173.0265,423 Q173.2234,423 173.364,423.1594 Q173.514,423.3094 173.514,423.525 Q173.514,423.7313 173.3078,423.975 Q173.0078,424.3313 172.5296,424.5281 Q171.9015,424.8 171.1328,424.8 Q170.2327,424.8 169.5109,424.4437 Q168.9296,424.1625 168.5171,423.5531 Q168.114,422.9437 168.114,422.2219 L168.114,421.5656 Q168.114,420.8156 168.4703,420.1594 Q168.8359,419.5031 169.464,419.1563 Q170.1015,418.8 170.814,418.8 Q171.2453,418.8 171.6203,418.95 Q171.9953,419.1 172.314,419.4 Z " fill="#000000"/><text fill="#000000" font-family="sans-serif" font-size="7.2" lengthAdjust="spacing" textLength="42.6" x="179.514" y="424.4461">TestRequest</text><line style="stroke:#A80036;stroke-width:0.8999999999999999;" x1="162.714" x2="223.314" y1="431.1" y2="431.1"/><rect fill="none" height="3.6" style="stroke:#C82930;stroke-width:0.6;" width="3.6" x="166.914" y="435.9"/><text fill="#000000" font-family="sans-serif" font-size="6.6" lengthAdjust="spacing" textLength="35.4" x="174.114" y="440.3514">requestDate</text><rect fill="none" height="3.6" style="stroke:#C82930;stroke-width:0.6;" width="3.6" x="166.914" y="444.2016"/><text fill="#000000" font-family="sans-serif" font-size="6.6" lengthAdjust="spacing" textLength="25.2" x="174.114" y="448.6529">testType</text><line style="stroke:#A80036;stroke-width:0.8999999999999999;" x1="162.714" x2="223.314" y1="452.5031" y2="452.5031"/><!--MD5=[d093ac04eae792ab9dd475c65e92d910]
class Headquarter--><rect codeLine="89" fill="#FEFECE" filter="url(#f12a4bmheykbvi)" height="37.1016" id="Headquarter" style="stroke:#A80036;stroke-width:0.8999999999999999;" width="60.6" x="99.714" y="8.4"/><ellipse cx="108.714" cy="18" fill="#ADD1B2" rx="6.6" ry="6.6" style="stroke:#A80036;stroke-width:0.6;"/><path d="M109.914,15.9 Q110.0359,15.6 110.1765,15.45 Q110.3171,15.3 110.4765,15.3 Q110.7578,15.3 110.9359,15.4688 Q111.114,15.6375 111.114,16.0313 L111.114,16.9688 Q111.114,17.3625 110.9453,17.5313 Q110.7765,17.7 110.514,17.7 Q110.2796,17.7 110.1296,17.5969 Q109.9796,17.4938 109.914,17.2219 Q109.8859,17.0344 109.7828,16.9313 Q109.5953,16.7344 109.2578,16.6219 Q108.9203,16.5 108.5827,16.5 Q108.1609,16.5 107.8046,16.6688 Q107.4577,16.8375 107.1859,17.2125 Q106.914,17.5875 106.914,18.1031 L106.914,18.6563 Q106.914,19.275 107.4203,19.6875 Q107.9265,20.1 108.8265,20.1 Q109.3609,20.1 109.7359,19.9781 Q109.9515,19.9125 110.1953,19.6969 Q110.3546,19.575 110.439,19.5375 Q110.5234,19.5 110.6265,19.5 Q110.8234,19.5 110.964,19.6594 Q111.114,19.8094 111.114,20.025 Q111.114,20.2313 110.9078,20.475 Q110.6078,20.8313 110.1296,21.0281 Q109.5015,21.3 108.7328,21.3 Q107.8327,21.3 107.1109,20.9437 Q106.5296,20.6625 106.1171,20.0531 Q105.714,19.4437 105.714,18.7219 L105.714,18.0656 Q105.714,17.3156 106.0703,16.6594 Q106.4359,16.0031 107.064,15.6563 Q107.7015,15.3 108.414,15.3 Q108.8453,15.3 109.2203,15.45 Q109.5953,15.6 109.914,15.9 Z " fill="#000000"/><text fill="#000000" font-family="sans-serif" font-size="7.2" lengthAdjust="spacing" textLength="41.4" x="117.114" y="20.9461">Headquarter</text><line style="stroke:#A80036;stroke-width:0.8999999999999999;" x1="100.314" x2="159.714" y1="27.6" y2="27.6"/><rect fill="none" height="3.6" style="stroke:#C82930;stroke-width:0.6;" width="3.6" x="104.514" y="32.4"/><text fill="#000000" font-family="sans-serif" font-size="6.6" lengthAdjust="spacing" textLength="22.2" x="111.714" y="36.8514">location</text><line style="stroke:#A80036;stroke-width:0.8999999999999999;" x1="100.314" x2="159.714" y1="40.7016" y2="40.7016"/><!--MD5=[a8cdb1e9a553f5119d5d6ee12fd8c3d3]
class ChemicalLab--><rect codeLine="72" fill="#FEFECE" filter="url(#f12a4bmheykbvi)" height="62.0062" id="ChemicalLab" style="stroke:#A80036;stroke-width:0.8999999999999999;" width="63.6" x="281.814" y="559.8"/><ellipse cx="290.814" cy="569.4" fill="#ADD1B2" rx="6.6" ry="6.6" style="stroke:#A80036;stroke-width:0.6;"/><path d="M292.014,567.3 Q292.1359,567 292.2765,566.85 Q292.4171,566.7 292.5765,566.7 Q292.8578,566.7 293.0359,566.8688 Q293.214,567.0375 293.214,567.4313 L293.214,568.3688 Q293.214,568.7625 293.0453,568.9313 Q292.8765,569.1 292.614,569.1 Q292.3796,569.1 292.2296,568.9969 Q292.0796,568.8938 292.014,568.6219 Q291.9859,568.4344 291.8828,568.3313 Q291.6953,568.1344 291.3578,568.0219 Q291.0203,567.9 290.6828,567.9 Q290.2609,567.9 289.9046,568.0688 Q289.5578,568.2375 289.2859,568.6125 Q289.014,568.9875 289.014,569.5031 L289.014,570.0563 Q289.014,570.675 289.5203,571.0875 Q290.0265,571.5 290.9265,571.5 Q291.4609,571.5 291.8359,571.3781 Q292.0515,571.3125 292.2953,571.0969 Q292.4546,570.975 292.539,570.9375 Q292.6234,570.9 292.7265,570.9 Q292.9234,570.9 293.064,571.0594 Q293.214,571.2094 293.214,571.425 Q293.214,571.6313 293.0078,571.875 Q292.7078,572.2312 292.2296,572.4281 Q291.6015,572.7 290.8328,572.7 Q289.9328,572.7 289.2109,572.3438 Q288.6296,572.0625 288.2171,571.4531 Q287.814,570.8438 287.814,570.1219 L287.814,569.4656 Q287.814,568.7156 288.1703,568.0594 Q288.5359,567.4031 289.164,567.0563 Q289.8015,566.7 290.514,566.7 Q290.9453,566.7 291.3203,566.85 Q291.6953,567 292.014,567.3 Z " fill="#000000"/><text fill="#000000" font-family="sans-serif" font-size="7.2" lengthAdjust="spacing" textLength="44.4" x="299.214" y="572.3461">ChemicalLab</text><line style="stroke:#A80036;stroke-width:0.8999999999999999;" x1="282.414" x2="344.814" y1="579" y2="579"/><rect fill="none" height="3.6" style="stroke:#C82930;stroke-width:0.6;" width="3.6" x="286.614" y="583.8"/><text fill="#000000" font-family="sans-serif" font-size="6.6" lengthAdjust="spacing" textLength="15.6" x="293.814" y="588.2514">name</text><rect fill="none" height="3.6" style="stroke:#C82930;stroke-width:0.6;" width="3.6" x="286.614" y="592.1016"/><text fill="#000000" font-family="sans-serif" font-size="6.6" lengthAdjust="spacing" textLength="24" x="293.814" y="596.5529">address</text><rect fill="none" height="3.6" style="stroke:#C82930;stroke-width:0.6;" width="3.6" x="286.614" y="600.4031"/><text fill="#000000" font-family="sans-serif" font-size="6.6" lengthAdjust="spacing" textLength="40.2" x="293.814" y="604.8545">phoneNumber</text><rect fill="none" height="3.6" style="stroke:#C82930;stroke-width:0.6;" width="3.6" x="286.614" y="608.7047"/><text fill="#000000" font-family="sans-serif" font-size="6.6" lengthAdjust="spacing" textLength="28.8" x="293.814" y="613.1561">tinNumber</text><line style="stroke:#A80036;stroke-width:0.8999999999999999;" x1="282.414" x2="344.814" y1="617.0063" y2="617.0063"/><!--MD5=[012ee2a8bf3ae2b319009b06f951c2e5]
class ClinicalChemistryTechnologist--><rect fill="#FEFECE" filter="url(#f12a4bmheykbvi)" height="28.8" id="ClinicalChemistryTechnologist" style="stroke:#A80036;stroke-width:0.8999999999999999;" width="120" x="268.614" y="352.8"/><ellipse cx="277.614" cy="362.4" fill="#ADD1B2" rx="6.6" ry="6.6" style="stroke:#A80036;stroke-width:0.6;"/><path d="M278.814,360.3 Q278.9359,360 279.0765,359.85 Q279.2171,359.7 279.3765,359.7 Q279.6577,359.7 279.8359,359.8688 Q280.014,360.0375 280.014,360.4313 L280.014,361.3688 Q280.014,361.7625 279.8452,361.9313 Q279.6765,362.1 279.414,362.1 Q279.1796,362.1 279.0296,361.9969 Q278.8796,361.8938 278.814,361.6219 Q278.7859,361.4344 278.6828,361.3313 Q278.4953,361.1344 278.1577,361.0219 Q277.8203,360.9 277.4828,360.9 Q277.0609,360.9 276.7046,361.0687 Q276.3578,361.2375 276.0859,361.6125 Q275.814,361.9875 275.814,362.5031 L275.814,363.0563 Q275.814,363.675 276.3203,364.0875 Q276.8265,364.5 277.7265,364.5 Q278.2609,364.5 278.6359,364.3781 Q278.8515,364.3125 279.0952,364.0969 Q279.2546,363.975 279.339,363.9375 Q279.4234,363.9 279.5265,363.9 Q279.7234,363.9 279.864,364.0594 Q280.014,364.2094 280.014,364.425 Q280.014,364.6312 279.8078,364.875 Q279.5078,365.2313 279.0296,365.4281 Q278.4015,365.7 277.6328,365.7 Q276.7328,365.7 276.0109,365.3438 Q275.4296,365.0625 275.0171,364.4531 Q274.614,363.8438 274.614,363.1219 L274.614,362.4656 Q274.614,361.7156 274.9702,361.0594 Q275.3359,360.4031 275.964,360.0563 Q276.6015,359.7 277.314,359.7 Q277.7453,359.7 278.1203,359.85 Q278.4953,360 278.814,360.3 Z " fill="#000000"/><text fill="#000000" font-family="sans-serif" font-size="7.2" lengthAdjust="spacing" textLength="100.8" x="286.014" y="365.3461">ClinicalChemistryTechnologist</text><line style="stroke:#A80036;stroke-width:0.8999999999999999;" x1="269.214" x2="388.014" y1="372" y2="372"/><line style="stroke:#A80036;stroke-width:0.8999999999999999;" x1="269.214" x2="388.014" y1="376.8" y2="376.8"/><!--MD5=[c886e9f626b1f684543f4c5ec86b9c7b]
class LabCoordinator--><rect fill="#FEFECE" filter="url(#f12a4bmheykbvi)" height="28.8" id="LabCoordinator" style="stroke:#A80036;stroke-width:0.8999999999999999;" width="70.8" x="160.614" y="500.4"/><ellipse cx="169.614" cy="510" fill="#ADD1B2" rx="6.6" ry="6.6" style="stroke:#A80036;stroke-width:0.6;"/><path d="M170.814,507.9 Q170.9359,507.6 171.0765,507.45 Q171.2171,507.3 171.3765,507.3 Q171.6578,507.3 171.8359,507.4688 Q172.014,507.6375 172.014,508.0313 L172.014,508.9688 Q172.014,509.3625 171.8453,509.5313 Q171.6765,509.7 171.414,509.7 Q171.1796,509.7 171.0296,509.5969 Q170.8796,509.4938 170.814,509.2219 Q170.7859,509.0344 170.6828,508.9313 Q170.4953,508.7344 170.1578,508.6219 Q169.8203,508.5 169.4827,508.5 Q169.0609,508.5 168.7046,508.6688 Q168.3577,508.8375 168.0859,509.2125 Q167.814,509.5875 167.814,510.1031 L167.814,510.6563 Q167.814,511.275 168.3203,511.6875 Q168.8265,512.1 169.7265,512.1 Q170.2609,512.1 170.6359,511.9781 Q170.8515,511.9125 171.0953,511.6969 Q171.2546,511.575 171.339,511.5375 Q171.4234,511.5 171.5265,511.5 Q171.7234,511.5 171.864,511.6594 Q172.014,511.8094 172.014,512.025 Q172.014,512.2312 171.8078,512.475 Q171.5078,512.8313 171.0296,513.0281 Q170.4015,513.3 169.6328,513.3 Q168.7327,513.3 168.0109,512.9438 Q167.4296,512.6625 167.0171,512.0531 Q166.614,511.4437 166.614,510.7219 L166.614,510.0656 Q166.614,509.3156 166.9703,508.6594 Q167.3359,508.0031 167.964,507.6563 Q168.6015,507.3 169.314,507.3 Q169.7453,507.3 170.1203,507.45 Q170.4953,507.6 170.814,507.9 Z " fill="#000000"/><text fill="#000000" font-family="sans-serif" font-size="7.2" lengthAdjust="spacing" textLength="51.6" x="178.014" y="512.9461">LabCoordinator</text><line style="stroke:#A80036;stroke-width:0.8999999999999999;" x1="161.214" x2="230.814" y1="519.6" y2="519.6"/><line style="stroke:#A80036;stroke-width:0.8999999999999999;" x1="161.214" x2="230.814" y1="524.4" y2="524.4"/><!--MD5=[db6d18d8099558415abc41d00477ab92]
class Admin--><rect fill="#FEFECE" filter="url(#f12a4bmheykbvi)" height="28.8" id="Admin" style="stroke:#A80036;stroke-width:0.8999999999999999;" width="40.2" x="472.914" y="301.8"/><ellipse cx="481.914" cy="311.4" fill="#ADD1B2" rx="6.6" ry="6.6" style="stroke:#A80036;stroke-width:0.6;"/><path d="M483.114,309.3 Q483.2359,309 483.3765,308.85 Q483.5171,308.7 483.6765,308.7 Q483.9578,308.7 484.1359,308.8688 Q484.314,309.0375 484.314,309.4313 L484.314,310.3688 Q484.314,310.7625 484.1453,310.9313 Q483.9765,311.1 483.714,311.1 Q483.4796,311.1 483.3296,310.9969 Q483.1796,310.8938 483.114,310.6219 Q483.0859,310.4344 482.9828,310.3313 Q482.7953,310.1344 482.4578,310.0219 Q482.1203,309.9 481.7828,309.9 Q481.3609,309.9 481.0046,310.0687 Q480.6578,310.2375 480.3859,310.6125 Q480.114,310.9875 480.114,311.5031 L480.114,312.0563 Q480.114,312.675 480.6203,313.0875 Q481.1265,313.5 482.0265,313.5 Q482.5609,313.5 482.9359,313.3781 Q483.1515,313.3125 483.3953,313.0969 Q483.5546,312.975 483.639,312.9375 Q483.7234,312.9 483.8265,312.9 Q484.0234,312.9 484.164,313.0594 Q484.314,313.2094 484.314,313.425 Q484.314,313.6312 484.1078,313.875 Q483.8078,314.2313 483.3296,314.4281 Q482.7015,314.7 481.9328,314.7 Q481.0328,314.7 480.3109,314.3438 Q479.7296,314.0625 479.3171,313.4531 Q478.914,312.8438 478.914,312.1219 L478.914,311.4656 Q478.914,310.7156 479.2703,310.0594 Q479.6359,309.4031 480.264,309.0563 Q480.9015,308.7 481.614,308.7 Q482.0453,308.7 482.4203,308.85 Q482.7953,309 483.114,309.3 Z " fill="#000000"/><text fill="#000000" font-family="sans-serif" font-size="7.2" lengthAdjust="spacing" textLength="21" x="490.314" y="314.3461">Admin</text><line style="stroke:#A80036;stroke-width:0.8999999999999999;" x1="473.514" x2="512.514" y1="321" y2="321"/><line style="stroke:#A80036;stroke-width:0.8999999999999999;" x1="473.514" x2="512.514" y1="325.8" y2="325.8"/><!--MD5=[7d96fd15f3014691d2fcaf89c5791e2a]
class SpecialistDoctor--><rect codeLine="106" fill="#FEFECE" filter="url(#f12a4bmheykbvi)" height="37.1016" id="SpecialistDoctor" style="stroke:#A80036;stroke-width:0.8999999999999999;" width="73.2" x="25.014" y="297.6"/><ellipse cx="34.014" cy="307.2" fill="#ADD1B2" rx="6.6" ry="6.6" style="stroke:#A80036;stroke-width:0.6;"/><path d="M35.214,305.1 Q35.3359,304.8 35.4765,304.65 Q35.6171,304.5 35.7765,304.5 Q36.0578,304.5 36.2359,304.6688 Q36.414,304.8375 36.414,305.2313 L36.414,306.1688 Q36.414,306.5625 36.2453,306.7313 Q36.0765,306.9 35.814,306.9 Q35.5796,306.9 35.4296,306.7969 Q35.2796,306.6937 35.214,306.4219 Q35.1859,306.2344 35.0828,306.1312 Q34.8953,305.9344 34.5578,305.8219 Q34.2203,305.7 33.8827,305.7 Q33.4609,305.7 33.1046,305.8688 Q32.7577,306.0375 32.4859,306.4125 Q32.214,306.7875 32.214,307.3031 L32.214,307.8563 Q32.214,308.475 32.7203,308.8875 Q33.2265,309.3 34.1265,309.3 Q34.6609,309.3 35.0359,309.1781 Q35.2515,309.1125 35.4953,308.8969 Q35.6546,308.775 35.739,308.7375 Q35.8234,308.7 35.9265,308.7 Q36.1234,308.7 36.264,308.8594 Q36.414,309.0094 36.414,309.225 Q36.414,309.4313 36.2078,309.675 Q35.9078,310.0313 35.4296,310.2281 Q34.8015,310.5 34.0328,310.5 Q33.1327,310.5 32.4109,310.1438 Q31.8296,309.8625 31.4171,309.2531 Q31.014,308.6438 31.014,307.9219 L31.014,307.2656 Q31.014,306.5156 31.3703,305.8594 Q31.7359,305.2031 32.364,304.8563 Q33.0015,304.5 33.714,304.5 Q34.1453,304.5 34.5203,304.65 Q34.8953,304.8 35.214,305.1 Z " fill="#000000"/><text fill="#000000" font-family="sans-serif" font-size="7.2" lengthAdjust="spacing" textLength="54" x="42.414" y="310.1461">SpecialistDoctor</text><line style="stroke:#A80036;stroke-width:0.8999999999999999;" x1="25.614" x2="97.614" y1="316.8" y2="316.8"/><rect fill="none" height="3.6" style="stroke:#C82930;stroke-width:0.6;" width="3.6" x="29.814" y="321.6"/><text fill="#000000" font-family="sans-serif" font-size="6.6" lengthAdjust="spacing" textLength="56.4" x="37.014" y="326.0514">doctorIndexNumber</text><line style="stroke:#A80036;stroke-width:0.8999999999999999;" x1="25.614" x2="97.614" y1="329.9016" y2="329.9016"/><!--MD5=[df38be88ccee13e832d6fafd6288a4ca]
class Test--><rect codeLine="93" fill="#FEFECE" filter="url(#f12a4bmheykbvi)" height="62.0062" id="Test" style="stroke:#A80036;stroke-width:0.8999999999999999;" width="102.6" x="424.314" y="559.8"/><ellipse cx="465.864" cy="569.4" fill="#ADD1B2" rx="6.6" ry="6.6" style="stroke:#A80036;stroke-width:0.6;"/><path d="M467.064,567.3 Q467.1859,567 467.3265,566.85 Q467.4671,566.7 467.6265,566.7 Q467.9078,566.7 468.0859,566.8688 Q468.264,567.0375 468.264,567.4313 L468.264,568.3688 Q468.264,568.7625 468.0953,568.9313 Q467.9265,569.1 467.664,569.1 Q467.4296,569.1 467.2796,568.9969 Q467.1296,568.8938 467.064,568.6219 Q467.0359,568.4344 466.9328,568.3313 Q466.7453,568.1344 466.4078,568.0219 Q466.0703,567.9 465.7328,567.9 Q465.3109,567.9 464.9546,568.0688 Q464.6078,568.2375 464.3359,568.6125 Q464.064,568.9875 464.064,569.5031 L464.064,570.0563 Q464.064,570.675 464.5703,571.0875 Q465.0765,571.5 465.9765,571.5 Q466.5109,571.5 466.8859,571.3781 Q467.1015,571.3125 467.3453,571.0969 Q467.5046,570.975 467.589,570.9375 Q467.6734,570.9 467.7765,570.9 Q467.9734,570.9 468.114,571.0594 Q468.264,571.2094 468.264,571.425 Q468.264,571.6313 468.0578,571.875 Q467.7578,572.2312 467.2796,572.4281 Q466.6515,572.7 465.8828,572.7 Q464.9828,572.7 464.2609,572.3438 Q463.6796,572.0625 463.2671,571.4531 Q462.864,570.8438 462.864,570.1219 L462.864,569.4656 Q462.864,568.7156 463.2203,568.0594 Q463.5859,567.4031 464.214,567.0563 Q464.8515,566.7 465.564,566.7 Q465.9953,566.7 466.3703,566.85 Q466.7453,567 467.064,567.3 Z " fill="#000000"/><text fill="#000000" font-family="sans-serif" font-size="7.2" lengthAdjust="spacing" textLength="14.4" x="478.164" y="572.3461">Test</text><line style="stroke:#A80036;stroke-width:0.8999999999999999;" x1="424.914" x2="526.314" y1="579" y2="579"/><rect fill="none" height="3.6" style="stroke:#C82930;stroke-width:0.6;" width="3.6" x="429.114" y="583.8"/><text fill="#000000" font-family="sans-serif" font-size="6.6" lengthAdjust="spacing" textLength="83.4" x="436.314" y="588.2514">timestampOfSampleCollected</text><rect fill="none" height="3.6" style="stroke:#C82930;stroke-width:0.6;" width="3.6" x="429.114" y="592.1016"/><text fill="#000000" font-family="sans-serif" font-size="6.6" lengthAdjust="spacing" textLength="64.2" x="436.314" y="596.5529">timestampOfDiagnosis</text><rect fill="none" height="3.6" style="stroke:#C82930;stroke-width:0.6;" width="3.6" x="429.114" y="600.4031"/><text fill="#000000" font-family="sans-serif" font-size="6.6" lengthAdjust="spacing" textLength="87" x="436.314" y="604.8545">timestampOfChemicalAnalysis</text><rect fill="none" height="3.6" style="stroke:#C82930;stroke-width:0.6;" width="3.6" x="429.114" y="608.7047"/><text fill="#000000" font-family="sans-serif" font-size="6.6" lengthAdjust="spacing" textLength="64.2" x="436.314" y="613.1561">timestampOfValidation</text><line style="stroke:#A80036;stroke-width:0.8999999999999999;" x1="424.914" x2="526.314" y1="617.0063" y2="617.0063"/><!--MD5=[f00dbe8c0302c6aec2cb26b3c659c8fc]
class Report--><rect codeLine="51" fill="#FEFECE" filter="url(#f12a4bmheykbvi)" height="45.4031" id="Report" style="stroke:#A80036;stroke-width:0.8999999999999999;" width="43.2" x="178.614" y="668.4"/><ellipse cx="188.424" cy="678" fill="#ADD1B2" rx="6.6" ry="6.6" style="stroke:#A80036;stroke-width:0.6;"/><path d="M189.624,675.9 Q189.7459,675.6 189.8865,675.45 Q190.0271,675.3 190.1865,675.3 Q190.4678,675.3 190.6459,675.4688 Q190.824,675.6375 190.824,676.0313 L190.824,676.9688 Q190.824,677.3625 190.6553,677.5313 Q190.4865,677.7 190.224,677.7 Q189.9896,677.7 189.8396,677.5969 Q189.6896,677.4938 189.624,677.2219 Q189.5959,677.0344 189.4928,676.9313 Q189.3053,676.7344 188.9678,676.6219 Q188.6303,676.5 188.2928,676.5 Q187.8709,676.5 187.5146,676.6687 Q187.1678,676.8375 186.8959,677.2125 Q186.624,677.5875 186.624,678.1031 L186.624,678.6563 Q186.624,679.275 187.1303,679.6875 Q187.6365,680.1 188.5365,680.1 Q189.0709,680.1 189.4459,679.9781 Q189.6615,679.9125 189.9053,679.6969 Q190.0646,679.575 190.149,679.5375 Q190.2334,679.5 190.3365,679.5 Q190.5334,679.5 190.674,679.6594 Q190.824,679.8094 190.824,680.025 Q190.824,680.2312 190.6178,680.475 Q190.3178,680.8313 189.8396,681.0281 Q189.2115,681.3 188.4428,681.3 Q187.5428,681.3 186.8209,680.9438 Q186.2396,680.6625 185.8271,680.0531 Q185.424,679.4438 185.424,678.7219 L185.424,678.0656 Q185.424,677.3156 185.7803,676.6594 Q186.1459,676.0031 186.774,675.6563 Q187.4115,675.3 188.124,675.3 Q188.5553,675.3 188.9303,675.45 Q189.3053,675.6 189.624,675.9 Z " fill="#000000"/><text fill="#000000" font-family="sans-serif" font-size="7.2" lengthAdjust="spacing" textLength="22.2" x="197.004" y="680.9461">Report</text><line style="stroke:#A80036;stroke-width:0.8999999999999999;" x1="179.214" x2="221.214" y1="687.6" y2="687.6"/><rect fill="none" height="3.6" style="stroke:#C82930;stroke-width:0.6;" width="3.6" x="183.414" y="692.4"/><text fill="#000000" font-family="sans-serif" font-size="6.6" lengthAdjust="spacing" textLength="27.6" x="190.614" y="696.8514">diagnosis</text><rect fill="none" height="3.6" style="stroke:#C82930;stroke-width:0.6;" width="3.6" x="183.414" y="700.7016"/><text fill="#000000" font-family="sans-serif" font-size="6.6" lengthAdjust="spacing" textLength="19.8" x="190.614" y="705.1529">results</text><line style="stroke:#A80036;stroke-width:0.8999999999999999;" x1="179.214" x2="221.214" y1="709.0031" y2="709.0031"/><!--MD5=[9681492165142af2a4a3a169d90ee8d4]
class Sample--><rect codeLine="47" fill="#FEFECE" filter="url(#f12a4bmheykbvi)" height="37.1016" id="Sample" style="stroke:#A80036;stroke-width:0.8999999999999999;" width="45" x="373.314" y="416.1"/><ellipse cx="382.314" cy="425.7" fill="#ADD1B2" rx="6.6" ry="6.6" style="stroke:#A80036;stroke-width:0.6;"/><path d="M383.514,423.6 Q383.6359,423.3 383.7765,423.15 Q383.9171,423 384.0765,423 Q384.3578,423 384.5359,423.1688 Q384.714,423.3375 384.714,423.7313 L384.714,424.6688 Q384.714,425.0625 384.5453,425.2313 Q384.3765,425.4 384.114,425.4 Q383.8796,425.4 383.7296,425.2969 Q383.5796,425.1937 383.514,424.9219 Q383.4859,424.7344 383.3828,424.6312 Q383.1953,424.4344 382.8578,424.3219 Q382.5203,424.2 382.1828,424.2 Q381.7609,424.2 381.4046,424.3688 Q381.0578,424.5375 380.7859,424.9125 Q380.514,425.2875 380.514,425.8031 L380.514,426.3563 Q380.514,426.975 381.0203,427.3875 Q381.5265,427.8 382.4265,427.8 Q382.9609,427.8 383.3359,427.6781 Q383.5515,427.6125 383.7953,427.3969 Q383.9546,427.275 384.039,427.2375 Q384.1234,427.2 384.2265,427.2 Q384.4234,427.2 384.564,427.3594 Q384.714,427.5094 384.714,427.725 Q384.714,427.9313 384.5078,428.175 Q384.2078,428.5313 383.7296,428.7281 Q383.1015,429 382.3328,429 Q381.4328,429 380.7109,428.6438 Q380.1296,428.3625 379.7171,427.7531 Q379.314,427.1438 379.314,426.4219 L379.314,425.7656 Q379.314,425.0156 379.6703,424.3594 Q380.0359,423.7031 380.664,423.3563 Q381.3015,423 382.014,423 Q382.4453,423 382.8203,423.15 Q383.1953,423.3 383.514,423.6 Z " fill="#000000"/><text fill="#000000" font-family="sans-serif" font-size="7.2" lengthAdjust="spacing" textLength="25.8" x="390.714" y="428.6461">Sample</text><line style="stroke:#A80036;stroke-width:0.8999999999999999;" x1="373.914" x2="417.714" y1="435.3" y2="435.3"/><rect fill="none" height="3.6" style="stroke:#C82930;stroke-width:0.6;" width="3.6" x="378.114" y="440.1"/><text fill="#000000" font-family="sans-serif" font-size="6.6" lengthAdjust="spacing" textLength="24" x="385.314" y="444.5514">barcode</text><line style="stroke:#A80036;stroke-width:0.8999999999999999;" x1="373.914" x2="417.714" y1="448.4016" y2="448.4016"/><!--MD5=[f69a48f7b38bde3533dca6607cc4e94a]
class TypeOfTest--><rect fill="#FEFECE" filter="url(#f12a4bmheykbvi)" height="28.8" id="TypeOfTest" style="stroke:#A80036;stroke-width:0.8999999999999999;" width="56.4" x="604.614" y="125.4"/><ellipse cx="613.614" cy="135" fill="#ADD1B2" rx="6.6" ry="6.6" style="stroke:#A80036;stroke-width:0.6;"/><path d="M614.814,132.9 Q614.9359,132.6 615.0765,132.45 Q615.2171,132.3 615.3765,132.3 Q615.6578,132.3 615.8359,132.4688 Q616.014,132.6375 616.014,133.0313 L616.014,133.9688 Q616.014,134.3625 615.8453,134.5313 Q615.6765,134.7 615.414,134.7 Q615.1796,134.7 615.0296,134.5969 Q614.8796,134.4938 614.814,134.2219 Q614.7859,134.0344 614.6828,133.9313 Q614.4953,133.7344 614.1578,133.6219 Q613.8203,133.5 613.4828,133.5 Q613.0609,133.5 612.7046,133.6688 Q612.3578,133.8375 612.0859,134.2125 Q611.814,134.5875 611.814,135.1031 L611.814,135.6563 Q611.814,136.275 612.3203,136.6875 Q612.8265,137.1 613.7265,137.1 Q614.2609,137.1 614.6359,136.9781 Q614.8515,136.9125 615.0953,136.6969 Q615.2546,136.575 615.339,136.5375 Q615.4234,136.5 615.5265,136.5 Q615.7234,136.5 615.864,136.6594 Q616.014,136.8094 616.014,137.025 Q616.014,137.2313 615.8078,137.475 Q615.5078,137.8312 615.0296,138.0281 Q614.4015,138.3 613.6328,138.3 Q612.7328,138.3 612.0109,137.9438 Q611.4296,137.6625 611.0171,137.0531 Q610.614,136.4438 610.614,135.7219 L610.614,135.0656 Q610.614,134.3156 610.9703,133.6594 Q611.3359,133.0031 611.964,132.6563 Q612.6015,132.3 613.314,132.3 Q613.7453,132.3 614.1203,132.45 Q614.4953,132.6 614.814,132.9 Z " fill="#000000"/><text fill="#000000" font-family="sans-serif" font-size="7.2" lengthAdjust="spacing" textLength="37.2" x="622.014" y="137.9461">TypeOfTest</text><line style="stroke:#A80036;stroke-width:0.8999999999999999;" x1="605.214" x2="660.414" y1="144.6" y2="144.6"/><line style="stroke:#A80036;stroke-width:0.8999999999999999;" x1="605.214" x2="660.414" y1="149.4" y2="149.4"/><!--MD5=[a96594a83e2ecdc78cbf17c2ddf01934]
class Category--><rect codeLine="100" fill="#FEFECE" filter="url(#f12a4bmheykbvi)" height="53.7047" id="Category" style="stroke:#A80036;stroke-width:0.8999999999999999;" width="51.6" x="575.214" y="487.8"/><ellipse cx="585.564" cy="497.4" fill="#ADD1B2" rx="6.6" ry="6.6" style="stroke:#A80036;stroke-width:0.6;"/><path d="M586.764,495.3 Q586.8859,495 587.0265,494.85 Q587.1671,494.7 587.3265,494.7 Q587.6078,494.7 587.7859,494.8688 Q587.964,495.0375 587.964,495.4313 L587.964,496.3688 Q587.964,496.7625 587.7953,496.9313 Q587.6265,497.1 587.364,497.1 Q587.1296,497.1 586.9796,496.9969 Q586.8296,496.8937 586.764,496.6219 Q586.7359,496.4344 586.6328,496.3312 Q586.4453,496.1344 586.1078,496.0219 Q585.7703,495.9 585.4328,495.9 Q585.0109,495.9 584.6546,496.0687 Q584.3078,496.2375 584.0359,496.6125 Q583.764,496.9875 583.764,497.5031 L583.764,498.0563 Q583.764,498.675 584.2703,499.0875 Q584.7765,499.5 585.6765,499.5 Q586.2109,499.5 586.5859,499.3781 Q586.8015,499.3125 587.0453,499.0969 Q587.2046,498.975 587.289,498.9375 Q587.3734,498.9 587.4765,498.9 Q587.6734,498.9 587.814,499.0594 Q587.964,499.2094 587.964,499.425 Q587.964,499.6312 587.7578,499.875 Q587.4578,500.2313 586.9796,500.4281 Q586.3515,500.7 585.5828,500.7 Q584.6828,500.7 583.9609,500.3438 Q583.3796,500.0625 582.9671,499.4531 Q582.564,498.8438 582.564,498.1219 L582.564,497.4656 Q582.564,496.7156 582.9203,496.0594 Q583.2859,495.4031 583.914,495.0563 Q584.5515,494.7 585.264,494.7 Q585.6953,494.7 586.0703,494.85 Q586.4453,495 586.764,495.3 Z " fill="#000000"/><text fill="#000000" font-family="sans-serif" font-size="7.2" lengthAdjust="spacing" textLength="29.4" x="594.264" y="500.3461">Category</text><line style="stroke:#A80036;stroke-width:0.8999999999999999;" x1="575.814" x2="626.214" y1="507" y2="507"/><rect fill="none" height="3.6" style="stroke:#C82930;stroke-width:0.6;" width="3.6" x="580.014" y="511.8"/><text fill="#000000" font-family="sans-serif" font-size="6.6" lengthAdjust="spacing" textLength="15.6" x="587.214" y="516.2514">nhsId</text><rect fill="none" height="3.6" style="stroke:#C82930;stroke-width:0.6;" width="3.6" x="580.014" y="520.1016"/><text fill="#000000" font-family="sans-serif" font-size="6.6" lengthAdjust="spacing" textLength="36" x="587.214" y="524.5529">internalCode</text><rect fill="none" height="3.6" style="stroke:#C82930;stroke-width:0.6;" width="3.6" x="580.014" y="528.4031"/><text fill="#000000" font-family="sans-serif" font-size="6.6" lengthAdjust="spacing" textLength="31.8" x="587.214" y="532.8545">description</text><line style="stroke:#A80036;stroke-width:0.8999999999999999;" x1="575.814" x2="626.214" y1="536.7047" y2="536.7047"/><!--MD5=[1f6362a5c8f21d8d6a0fce68f3a92a4e]
class Parameter--><rect fill="#FEFECE" filter="url(#f12a4bmheykbvi)" height="28.8" id="Parameter" style="stroke:#A80036;stroke-width:0.8999999999999999;" width="54" x="512.814" y="676.8"/><ellipse cx="521.814" cy="686.4" fill="#ADD1B2" rx="6.6" ry="6.6" style="stroke:#A80036;stroke-width:0.6;"/><path d="M523.014,684.3 Q523.1359,684 523.2765,683.85 Q523.4171,683.7 523.5765,683.7 Q523.8578,683.7 524.0359,683.8688 Q524.214,684.0375 524.214,684.4313 L524.214,685.3688 Q524.214,685.7625 524.0453,685.9313 Q523.8765,686.1 523.614,686.1 Q523.3796,686.1 523.2296,685.9969 Q523.0796,685.8938 523.014,685.6219 Q522.9859,685.4344 522.8828,685.3313 Q522.6953,685.1344 522.3578,685.0219 Q522.0203,684.9 521.6828,684.9 Q521.2609,684.9 520.9046,685.0688 Q520.5578,685.2375 520.2859,685.6125 Q520.014,685.9875 520.014,686.5031 L520.014,687.0563 Q520.014,687.675 520.5203,688.0875 Q521.0265,688.5 521.9265,688.5 Q522.4609,688.5 522.8359,688.3781 Q523.0515,688.3125 523.2953,688.0969 Q523.4546,687.975 523.539,687.9375 Q523.6234,687.9 523.7265,687.9 Q523.9234,687.9 524.064,688.0594 Q524.214,688.2094 524.214,688.425 Q524.214,688.6313 524.0078,688.875 Q523.7078,689.2312 523.2296,689.4281 Q522.6015,689.7 521.8328,689.7 Q520.9328,689.7 520.2109,689.3438 Q519.6296,689.0625 519.2171,688.4531 Q518.814,687.8438 518.814,687.1219 L518.814,686.4656 Q518.814,685.7156 519.1703,685.0594 Q519.5359,684.4031 520.164,684.0563 Q520.8015,683.7 521.514,683.7 Q521.9453,683.7 522.3203,683.85 Q522.6953,684 523.014,684.3 Z " fill="#000000"/><text fill="#000000" font-family="sans-serif" font-size="7.2" lengthAdjust="spacing" textLength="34.8" x="530.214" y="689.3461">Parameter</text><line style="stroke:#A80036;stroke-width:0.8999999999999999;" x1="513.414" x2="566.214" y1="696" y2="696"/><line style="stroke:#A80036;stroke-width:0.8999999999999999;" x1="513.414" x2="566.214" y1="700.8" y2="700.8"/><!--MD5=[09366576ee87d48d594df10cacc83f45]
link Company to Employee--><path codeLine="5" d="M515.388,49.53 C474.966,84.12 396.708,151.086 354.84,186.912 " fill="none" id="Company-Employee" style="stroke:#A80036;stroke-width:0.6;"/><polygon fill="#000000" points="459.5346,104.056,464.8045,101.8673,462.5116,99.1877,459.5346,104.056" style="stroke:#000000;stroke-width:0.6;"/><text fill="#000000" font-family="sans-serif" font-size="7.8" lengthAdjust="spacing" textLength="12.6" x="467.214" y="105.2971">has</text><text fill="#000000" font-family="sans-serif" font-size="7.8" lengthAdjust="spacing" textLength="4.2" x="506.5959" y="50.9974">1</text><text fill="#000000" font-family="sans-serif" font-size="7.8" lengthAdjust="spacing" textLength="12" x="359.4122" y="181.4736">1..*</text><!--MD5=[6eee883fdf517d3604e8bd0f2058e9aa]
link Company to Client--><path codeLine="6" d="M566.622,28.638 C610.176,31.926 694.014,45.516 694.014,101.4 C694.014,101.4 694.014,101.4 694.014,691.8 C694.014,793.53 309.39,803.052 201.216,803.718 " fill="none" id="Company-Client" style="stroke:#A80036;stroke-width:0.6;"/><polygon fill="#000000" points="695.7347,370.019,699.644,365.8621,696.454,364.3582,695.7347,370.019" style="stroke:#000000;stroke-width:0.6;"/><text fill="#000000" font-family="sans-serif" font-size="7.8" lengthAdjust="spacing" textLength="12.6" x="702.414" y="370.4971">has</text><text fill="#000000" font-family="sans-serif" font-size="7.8" lengthAdjust="spacing" textLength="4.2" x="571.3843" y="26.6266">1</text><text fill="#000000" font-family="sans-serif" font-size="7.8" lengthAdjust="spacing" textLength="3" x="205.9179" y="801.3812">*</text><!--MD5=[14425c86e1e95c36a97a680926c42ff4]
link Company to ClinicalAnalysisLab--><path codeLine="7" d="M545.928,49.836 C554.88,94.158 571.308,196.398 553.014,279.6 C543.414,323.25 520.236,369.252 502.872,399.588 " fill="none" id="Company-ClinicalAnalysisLab" style="stroke:#A80036;stroke-width:0.6;"/><polygon fill="#000000" points="564.0475,214.583,566.4607,209.4121,562.9604,208.9812,564.0475,214.583" style="stroke:#000000;stroke-width:0.6;"/><text fill="#000000" font-family="sans-serif" font-size="7.8" lengthAdjust="spacing" textLength="12.6" x="569.814" y="214.7971">has</text><text fill="#000000" font-family="sans-serif" font-size="7.8" lengthAdjust="spacing" textLength="4.2" x="542.1941" y="62.5441">1</text><text fill="#000000" font-family="sans-serif" font-size="7.8" lengthAdjust="spacing" textLength="12" x="492.8269" y="392.978">1..*</text><!--MD5=[aec61b37063dcc4feef1443d9e69d5e6]
link MedicalLabTechnician to ClinicalAnalysisLab--><path codeLine="8" d="M420.09,330.744 C426.354,337.122 433.476,344.988 439.014,352.8 C449.292,367.296 458.7,384.582 466.044,399.486 " fill="none" id="MedicalLabTechnician-ClinicalAnalysisLab" style="stroke:#A80036;stroke-width:0.6;"/><polygon fill="#000000" points="461.0813,369.7995,459.5311,364.3078,456.5992,366.2677,461.0813,369.7995" style="stroke:#000000;stroke-width:0.6;"/><text fill="#000000" font-family="sans-serif" font-size="7.8" lengthAdjust="spacing" textLength="29.4" x="464.814" y="370.4971">works at</text><text fill="#000000" font-family="sans-serif" font-size="7.8" lengthAdjust="spacing" textLength="3" x="420.3017" y="343.5819">*</text><text fill="#000000" font-family="sans-serif" font-size="7.8" lengthAdjust="spacing" textLength="4.2" x="459.6905" y="393.1126">1</text><!--MD5=[7d30f8f3abaed36f92dd290c34044a79]
link Receptionist to TestRequest--><path codeLine="9" d="M190.422,330.612 C189.558,337.302 188.64,345.45 188.214,352.8 C187.05,372.774 188.64,395.508 190.296,411.846 " fill="none" id="Receptionist-TestRequest" style="stroke:#A80036;stroke-width:0.6;"/><polygon fill="#000000" points="191.2093,370.3055,192.9811,364.8812,189.4544,364.8757,191.2093,370.3055" style="stroke:#000000;stroke-width:0.6;"/><text fill="#000000" font-family="sans-serif" font-size="7.8" lengthAdjust="spacing" textLength="42" x="196.614" y="370.4971">register new</text><text fill="#000000" font-family="sans-serif" font-size="7.8" lengthAdjust="spacing" textLength="4.2" x="185.2246" y="343.4177">1</text><text fill="#000000" font-family="sans-serif" font-size="7.8" lengthAdjust="spacing" textLength="3" x="186.5447" y="405.4535">*</text><!--MD5=[b371c21dc35e87865816b4144f976f0b]
link Headquarter to ChemicalLab--><path codeLine="10" d="M130.014,45.798 C130.014,60.732 130.014,82.44 130.014,101.4 C130.014,101.4 130.014,101.4 130.014,367.8 C130.014,414.138 119.04,436.842 151.614,469.8 C177.354,495.84 200.97,468.384 232.014,487.8 C260.232,505.446 282.876,536.4 297.084,559.65 " fill="none" id="Headquarter-ChemicalLab" style="stroke:#A80036;stroke-width:0.6;"/><polygon fill="#000000" points="133.9416,277.1585,133.9405,271.4521,130.5866,272.5426,133.9416,277.1585" style="stroke:#000000;stroke-width:0.6;"/><text fill="#000000" font-family="sans-serif" font-size="7.8" lengthAdjust="spacing" textLength="12.6" x="138.414" y="277.4971">has</text><text fill="#000000" font-family="sans-serif" font-size="7.8" lengthAdjust="spacing" textLength="4.2" x="125.4137" y="58.4229">1</text><text fill="#000000" font-family="sans-serif" font-size="7.8" lengthAdjust="spacing" textLength="4.2" x="290.3806" y="553.33">1</text><!--MD5=[9306df86dca3d9e396adff2530aacab7]
link Headquarter to Company--><path codeLine="11" d="M160.404,27 C238.122,27 443.082,27 515.346,27 " fill="none" id="Headquarter-Company" style="stroke:#A80036;stroke-width:0.6;"/><polygon fill="#000000" points="324.414,19.9055,329.8411,21.6688,329.8411,18.1421,324.414,19.9055" style="stroke:#000000;stroke-width:0.6;"/><text fill="#000000" font-family="sans-serif" font-size="7.8" lengthAdjust="spacing" textLength="18" x="332.814" y="23.0971">owns</text><text fill="#000000" font-family="sans-serif" font-size="7.8" lengthAdjust="spacing" textLength="4.2" x="165.176" y="24.8148">1</text><text fill="#000000" font-family="sans-serif" font-size="7.8" lengthAdjust="spacing" textLength="4.2" x="506.5469" y="24.7358">1</text><!--MD5=[6a35157f4c730bda767e7c9f1b8b7f73]
link Receptionist to Client--><path codeLine="12" d="M166.728,330.72 C135.642,349.656 87.414,386.682 87.414,434.1 C87.414,434.1 87.414,434.1 87.414,691.8 C87.414,730.482 120.096,764.04 145.122,784.062 " fill="none" id="Receptionist-Client" style="stroke:#A80036;stroke-width:0.6;"/><polygon fill="#000000" points="90.2712,593.8021,92.2909,588.4651,88.7682,588.2972,90.2712,593.8021" style="stroke:#000000;stroke-width:0.6;"/><text fill="#000000" font-family="sans-serif" font-size="7.8" lengthAdjust="spacing" textLength="12.6" x="95.814" y="593.9971">add</text><text fill="#000000" font-family="sans-serif" font-size="7.8" lengthAdjust="spacing" textLength="12" x="147.0045" y="343.552">1..*</text><text fill="#000000" font-family="sans-serif" font-size="7.8" lengthAdjust="spacing" textLength="3" x="137.5907" y="778.7481">*</text><!--MD5=[8c76900db13228c02bafda6909b4bb57]
reverse link Employee to MedicalLabTechnician--><path codeLine="13" d="M362.034,258.48 C373.908,274.11 386.28,290.406 394.758,301.572 " fill="none" id="Employee-backto-MedicalLabTechnician" style="stroke:#A80036;stroke-width:0.6;"/><polygon fill="none" points="358.662,260.976,354.744,248.88,365.352,255.9,358.662,260.976" style="stroke:#A80036;stroke-width:0.6;"/><!--MD5=[4c7c52c4bf7e982cdae6fb6daeda4b43]
reverse link Employee to ClinicalChemistryTechnologist--><path codeLine="14" d="M327.408,263.01 C327.774,294.48 328.218,332.574 328.452,352.65 " fill="none" id="Employee-backto-ClinicalChemistryTechnologist" style="stroke:#A80036;stroke-width:0.6;"/><polygon fill="none" points="323.208,262.938,327.264,250.89,331.608,262.836,323.208,262.938" style="stroke:#A80036;stroke-width:0.6;"/><!--MD5=[bfff716514ca687b645fe473c6e098a4]
reverse link Employee to Receptionist--><path codeLine="15" d="M288.294,234.576 C272.55,244.38 254.496,256.446 239.214,268.8 C226.704,278.916 213.882,291.96 204.828,301.71 " fill="none" id="Employee-backto-Receptionist" style="stroke:#A80036;stroke-width:0.6;"/><polygon fill="none" points="286.326,230.856,298.752,228.18,290.712,238.026,286.326,230.856" style="stroke:#A80036;stroke-width:0.6;"/><!--MD5=[4cbb49bc85e2ab987c72a0867e9e1f75]
reverse link Employee to LabCoordinator--><path codeLine="16" d="M304.212,262.194 C292.626,288.816 278.736,322.272 268.014,352.8 C250.086,403.848 260.178,422.226 234.414,469.8 C228.3,481.092 218.898,492.024 210.936,500.214 " fill="none" id="Employee-backto-LabCoordinator" style="stroke:#A80036;stroke-width:0.6;"/><polygon fill="none" points="300.432,260.346,309.102,251.046,308.13,263.724,300.432,260.346" style="stroke:#A80036;stroke-width:0.6;"/><!--MD5=[6e3b9fc76a32d9309eb453fa3b67d6a7]
reverse link Employee to Admin--><path codeLine="17" d="M365.178,235.992 C398.718,256.878 446.106,286.386 472.758,302.988 " fill="none" id="Employee-backto-Admin" style="stroke:#A80036;stroke-width:0.6;"/><polygon fill="none" points="362.784,239.448,354.822,229.542,367.224,232.32,362.784,239.448" style="stroke:#A80036;stroke-width:0.6;"/><!--MD5=[372bd27a178b4208a6d241b4516ac7e6]
reverse link Employee to SpecialistDoctor--><path codeLine="18" d="M287.592,227.82 C253.092,241.602 201.492,262.116 156.414,279.6 C137.292,287.016 115.944,295.14 98.352,301.788 " fill="none" id="Employee-backto-SpecialistDoctor" style="stroke:#A80036;stroke-width:0.6;"/><polygon fill="none" points="286.116,223.884,298.818,223.332,289.236,231.684,286.116,223.884" style="stroke:#A80036;stroke-width:0.6;"/><!--MD5=[cdd20ac1d186716af46e8af7bcea5da1]
link ClinicalChemistryTechnologist to ChemicalLab--><path codeLine="19" d="M326.55,381.708 C325.782,387.264 324.966,393.726 324.414,399.6 C319.098,455.994 316.068,522.048 314.64,559.692 " fill="none" id="ClinicalChemistryTechnologist-ChemicalLab" style="stroke:#A80036;stroke-width:0.6;"/><polygon fill="#000000" points="327.2137,437.7988,329.3355,432.5016,325.8166,432.2661,327.2137,437.7988" style="stroke:#000000;stroke-width:0.6;"/><text fill="#000000" font-family="sans-serif" font-size="7.8" lengthAdjust="spacing" textLength="29.4" x="332.814" y="437.9971">works at</text><text fill="#000000" font-family="sans-serif" font-size="7.8" lengthAdjust="spacing" textLength="3" x="322.6813" y="394.5371">*</text><text fill="#000000" font-family="sans-serif" font-size="7.8" lengthAdjust="spacing" textLength="4.2" x="310.2957" y="553.3777">1</text><!--MD5=[72163acd41df4db10e2bb78c0e4b52d4]
link Test to Report--><path codeLine="20" d="M424.296,609.804 C363.528,631.716 265.104,667.2 221.814,682.812 " fill="none" id="Test-Report" style="stroke:#A80036;stroke-width:0.6;"/><polygon fill="#000000" points="338.3918,646.123,344.0953,645.9411,342.8991,642.6234,338.3918,646.123" style="stroke:#000000;stroke-width:0.6;"/><text fill="#000000" font-family="sans-serif" font-size="7.8" lengthAdjust="spacing" textLength="12.6" x="346.614" y="648.2971">has</text><text fill="#000000" font-family="sans-serif" font-size="7.8" lengthAdjust="spacing" textLength="4.2" x="415.3385" y="609.5752">1</text><text fill="#000000" font-family="sans-serif" font-size="7.8" lengthAdjust="spacing" textLength="4.2" x="226.7021" y="678.6311">1</text><!--MD5=[0a29b4543c1af9e8341b856b8b8ec05c]
link MedicalLabTechnician to Sample--><path codeLine="21" d="M404.274,330.714 C402.534,351.954 399.222,392.466 397.296,415.98 " fill="none" id="MedicalLabTechnician-Sample" style="stroke:#A80036;stroke-width:0.6;"/><polygon fill="#000000" points="405.1693,370.2955,407.3694,365.0303,403.8545,364.7427,405.1693,370.2955" style="stroke:#000000;stroke-width:0.6;"/><text fill="#000000" font-family="sans-serif" font-size="7.8" lengthAdjust="spacing" textLength="22.8" x="410.814" y="370.4971">collect</text><text fill="#000000" font-family="sans-serif" font-size="7.8" lengthAdjust="spacing" textLength="4.2" x="399.2843" y="343.5446">1</text><text fill="#000000" font-family="sans-serif" font-size="7.8" lengthAdjust="spacing" textLength="3" x="394.2923" y="409.658">*</text><!--MD5=[1ae83efc6d1967ce5bc17dfe294d00c2]
link Sample to Test--><path codeLine="22" d="M412.356,453.45 C417.492,458.85 423.264,464.688 428.814,469.8 C438.156,478.404 444.24,477.054 451.014,487.8 C464.706,509.508 470.778,538.2 473.472,559.674 " fill="none" id="Sample-Test" style="stroke:#A80036;stroke-width:0.6;"/><polygon fill="#000000" points="472.3179,512.3051,473.4959,517.8886,476.5528,516.1298,472.3179,512.3051" style="stroke:#000000;stroke-width:0.6;"/><text fill="#000000" font-family="sans-serif" font-size="7.8" lengthAdjust="spacing" textLength="12.6" x="479.214" y="518.0971">has</text><text fill="#000000" font-family="sans-serif" font-size="7.8" lengthAdjust="spacing" textLength="4.2" x="410.909" y="466.0658">1</text><text fill="#000000" font-family="sans-serif" font-size="7.8" lengthAdjust="spacing" textLength="4.2" x="468.702" y="553.3573">1</text><!--MD5=[147acf42fe9475025d9b6f56a55be7cf]
link Company to TypeOfTest--><path codeLine="23" d="M566.046,49.992 C571.842,55.596 577.83,61.746 583.014,67.8 C599.04,86.514 614.844,110.34 624.216,125.184 " fill="none" id="Company-TypeOfTest" style="stroke:#A80036;stroke-width:0.6;"/><polygon fill="#000000" points="596.2497,75.6783,594.3236,70.3068,591.5342,72.4648,596.2497,75.6783" style="stroke:#000000;stroke-width:0.6;"/><text fill="#000000" font-family="sans-serif" font-size="7.8" lengthAdjust="spacing" textLength="27.6" x="599.814" y="76.4971">conduct</text><text fill="#000000" font-family="sans-serif" font-size="7.8" lengthAdjust="spacing" textLength="4.2" x="565.5008" y="62.5509">1</text><text fill="#000000" font-family="sans-serif" font-size="7.8" lengthAdjust="spacing" textLength="12" x="608.6577" y="118.9741">1..*</text><!--MD5=[7e4bc624457760b649895ff2ead938fa]
link Company to Test--><path codeLine="24" d="M540.906,49.914 C541.02,90.252 542.646,177.876 553.614,250.8 C562.422,309.342 592.302,323.952 578.814,381.6 C562.944,449.442 521.604,520.524 496.326,559.674 " fill="none" id="Company-Test" style="stroke:#A80036;stroke-width:0.6;"/><polygon fill="#000000" points="563.5526,277.2941,565.7821,272.0413,562.2688,271.734,563.5526,277.2941" style="stroke:#000000;stroke-width:0.6;"/><text fill="#000000" font-family="sans-serif" font-size="7.8" lengthAdjust="spacing" textLength="25.8" x="569.214" y="277.4971">perform</text><text fill="#000000" font-family="sans-serif" font-size="7.8" lengthAdjust="spacing" textLength="4.2" x="536.3541" y="62.4605">1</text><text fill="#000000" font-family="sans-serif" font-size="7.8" lengthAdjust="spacing" textLength="3" x="495.9076" y="553.3573">*</text><!--MD5=[eb5d020da4a8abda6c8fee8c17e543d5]
link TestRequest to Client--><path codeLine="25" d="M175.032,457.722 C169.026,466.566 163.086,477.144 160.014,487.8 C132.804,582.216 150.102,699.042 162.966,760.782 " fill="none" id="TestRequest-Client" style="stroke:#A80036;stroke-width:0.6;"/><polygon fill="#000000" points="150.5333,642.1078,148.5555,647.4604,152.0794,647.6007,150.5333,642.1078" style="stroke:#000000;stroke-width:0.6;"/><text fill="#000000" font-family="sans-serif" font-size="7.8" lengthAdjust="spacing" textLength="16.8" x="155.814" y="648.2971">does</text><text fill="#000000" font-family="sans-serif" font-size="7.8" lengthAdjust="spacing" textLength="12" x="159.2099" y="470.2857">1..*</text><text fill="#000000" font-family="sans-serif" font-size="7.8" lengthAdjust="spacing" textLength="4.2" x="157.4926" y="754.3117">1</text><!--MD5=[35c5d5b78cc27fdb07caaeeaa436e174]
link SpecialistDoctor to Report--><path codeLine="26" d="M55.56,334.878 C39.972,384.948 3.6,527.91 61.614,621.6 C87.3,663.078 146.232,680.424 178.356,687.006 " fill="none" id="SpecialistDoctor-Report" style="stroke:#A80036;stroke-width:0.6;"/><polygon fill="#000000" points="37.4018,517.7382,37.2798,512.0331,33.9498,513.1944,37.4018,517.7382" style="stroke:#000000;stroke-width:0.6;"/><text fill="#000000" font-family="sans-serif" font-size="7.8" lengthAdjust="spacing" textLength="16.2" x="41.814" y="518.0971">write</text><text fill="#000000" font-family="sans-serif" font-size="7.8" lengthAdjust="spacing" textLength="4.2" x="49.7547" y="347.6278">1</text><text fill="#000000" font-family="sans-serif" font-size="7.8" lengthAdjust="spacing" textLength="3" x="170.7574" y="683.7725">*</text><!--MD5=[2ded9192613987fa000e760ddf3204eb]
link SpecialistDoctor to Headquarter--><path codeLine="27" d="M60.468,297.576 C58.83,263.25 57.786,186.486 76.014,125.4 C84.942,95.478 103.998,64.512 116.916,45.648 " fill="none" id="SpecialistDoctor-Headquarter" style="stroke:#A80036;stroke-width:0.6;"/><polygon fill="#000000" points="79.6699,136.9781,76.7627,141.8883,80.204,142.6593,79.6699,136.9781" style="stroke:#000000;stroke-width:0.6;"/><text fill="#000000" font-family="sans-serif" font-size="7.8" lengthAdjust="spacing" textLength="29.4" x="84.414" y="143.0971">works at</text><text fill="#000000" font-family="sans-serif" font-size="7.8" lengthAdjust="spacing" textLength="12" x="46.9048" y="290.9829">1..*</text><text fill="#000000" font-family="sans-serif" font-size="7.8" lengthAdjust="spacing" textLength="4.2" x="109.7239" y="58.3918">1</text><!--MD5=[1dbb730aa792675a530b390feeeb5270]
link Report to Client--><path codeLine="28" d="M194.814,714.174 C191.598,727.506 187.41,744.87 183.576,760.752 " fill="none" id="Report-Client" style="stroke:#A80036;stroke-width:0.6;"/><polygon fill="#000000" points="192.3104,740.4218,195.2974,735.5597,191.8691,734.7325,192.3104,740.4218" style="stroke:#000000;stroke-width:0.6;"/><text fill="#000000" font-family="sans-serif" font-size="7.8" lengthAdjust="spacing" textLength="39" x="198.414" y="740.6971">delivered to</text><text fill="#000000" font-family="sans-serif" font-size="7.8" lengthAdjust="spacing" textLength="4.2" x="189.4187" y="726.73">1</text><text fill="#000000" font-family="sans-serif" font-size="7.8" lengthAdjust="spacing" textLength="4.2" x="180.228" y="754.2787">1</text><!--MD5=[c45432859f1f1ff7ddc1c460e047abcd]
link Sample to ChemicalLab--><path codeLine="29" d="M378.432,453.396 C369.834,463.044 359.79,475.452 352.614,487.8 C339.39,510.564 329.058,538.638 322.362,559.614 " fill="none" id="Sample-ChemicalLab" style="stroke:#A80036;stroke-width:0.6;"/><polygon fill="#000000" points="357.0145,512.2524,352.9216,516.2286,356.0404,517.875,357.0145,512.2524" style="stroke:#000000;stroke-width:0.6;"/><text fill="#000000" font-family="sans-serif" font-size="7.8" lengthAdjust="spacing" textLength="18" x="361.014" y="518.0971">owns</text><text fill="#000000" font-family="sans-serif" font-size="7.8" lengthAdjust="spacing" textLength="3" x="371.7146" y="466.1493">*</text><text fill="#000000" font-family="sans-serif" font-size="7.8" lengthAdjust="spacing" textLength="4.2" x="319.0553" y="553.2892">1</text><!--MD5=[816217ef3f85df4b873a3bf15588a55e]
link LabCoordinator to Report--><path codeLine="30" d="M196.35,529.44 C197.076,559.728 198.798,631.416 199.674,668.112 " fill="none" id="LabCoordinator-Report" style="stroke:#A80036;stroke-width:0.6;"/><polygon fill="#000000" points="202.0859,593.8046,203.7187,588.3369,200.193,588.4214,202.0859,593.8046" style="stroke:#000000;stroke-width:0.6;"/><text fill="#000000" font-family="sans-serif" font-size="7.8" lengthAdjust="spacing" textLength="25.8" x="207.414" y="593.9971">validate</text><text fill="#000000" font-family="sans-serif" font-size="7.8" lengthAdjust="spacing" textLength="4.2" x="191.7421" y="542.057">1</text><text fill="#000000" font-family="sans-serif" font-size="7.8" lengthAdjust="spacing" textLength="3" x="196.3234" y="661.8509">*</text><!--MD5=[97a6250f97b3c184d5748e963b8476dd]
link TestRequest to Test--><path codeLine="31" d="M223.992,448.002 C242.316,455.154 266.118,463.818 287.814,469.8 C328.908,481.122 349.128,460.68 382.014,487.8 C401.958,504.246 387.354,521.706 403.614,541.8 C409.434,548.994 416.616,555.522 424.164,561.288 " fill="none" id="TestRequest-Test" style="stroke:#A80036;stroke-width:0.6;"/><polygon fill="#000000" points="409.2249,516.3831,405.3703,512.1754,403.6332,515.2447,409.2249,516.3831" style="stroke:#000000;stroke-width:0.6;"/><text fill="#000000" font-family="sans-serif" font-size="7.8" lengthAdjust="spacing" textLength="33.6" x="412.014" y="518.0971">originates</text><text fill="#000000" font-family="sans-serif" font-size="7.8" lengthAdjust="spacing" textLength="4.2" x="228.6436" y="447.7233">1</text><text fill="#000000" font-family="sans-serif" font-size="7.8" lengthAdjust="spacing" textLength="4.2" x="415.362" y="556.8452">1</text><!--MD5=[931ad38b9a68f32f6de86a1f4d14d251]
link TypeOfTest to Test--><path codeLine="32" d="M634.17,154.386 C636.408,178.626 640.614,230.052 640.614,273.6 C640.614,273.6 640.614,273.6 640.614,435.3 C640.614,482.994 657.888,505.11 627.414,541.8 C624.012,545.898 569.772,562.542 527.088,575.16 " fill="none" id="TypeOfTest-Test" style="stroke:#A80036;stroke-width:0.6;"/><polygon fill="#000000" points="644.3539,313.3981,641.3065,318.2227,644.7243,319.0924,644.3539,313.3981" style="stroke:#000000;stroke-width:0.6;"/><text fill="#000000" font-family="sans-serif" font-size="7.8" lengthAdjust="spacing" textLength="12.6" x="649.014" y="319.4971">has</text><text fill="#000000" font-family="sans-serif" font-size="7.8" lengthAdjust="spacing" textLength="4.2" x="629.798" y="166.9905">1</text><text fill="#000000" font-family="sans-serif" font-size="7.8" lengthAdjust="spacing" textLength="4.2" x="531.692" y="571.9093">1</text><!--MD5=[e1157d990c71223888f6eba0861fc13e]
link Admin to Category--><path codeLine="33" d="M500.61,330.678 C518.448,363.282 563.256,445.194 586.512,487.692 " fill="none" id="Admin-Category" style="stroke:#A80036;stroke-width:0.6;"/><polygon fill="#000000" points="531.6539,369.9373,530.5961,364.3299,527.5021,366.0226,531.6539,369.9373" style="stroke:#000000;stroke-width:0.6;"/><text fill="#000000" font-family="sans-serif" font-size="7.8" lengthAdjust="spacing" textLength="37.8" x="535.614" y="370.4971">create new</text><text fill="#000000" font-family="sans-serif" font-size="7.8" lengthAdjust="spacing" textLength="12" x="488.999" y="343.4998">1..*</text><text fill="#000000" font-family="sans-serif" font-size="7.8" lengthAdjust="spacing" textLength="3" x="581.0617" y="481.3419">*</text><!--MD5=[9e2b536d5f14dafa66c4d5113ebdcad2]
link Category to Parameter--><path codeLine="34" d="M599.844,542.052 C597.702,570.246 591.66,615.402 574.614,650.4 C569.844,660.192 562.08,669.498 555.09,676.686 " fill="none" id="Category-Parameter" style="stroke:#A80036;stroke-width:0.6;"/><polygon fill="#000000" points="601.9603,587.9586,598.5751,592.5524,601.9217,593.6648,601.9603,587.9586" style="stroke:#000000;stroke-width:0.6;"/><text fill="#000000" font-family="sans-serif" font-size="7.8" lengthAdjust="spacing" textLength="55.8" x="606.414" y="593.9971">presented under</text><text fill="#000000" font-family="sans-serif" font-size="7.8" lengthAdjust="spacing" textLength="4.2" x="595.2046" y="554.4901">1</text><text fill="#000000" font-family="sans-serif" font-size="7.8" lengthAdjust="spacing" textLength="3" x="555.6201" y="670.2609">*</text><!--MD5=[c23963f6e403fc3ebec8dae22c30ade6]
link Test to Parameter--><path codeLine="35" d="M490.98,621.636 C496.08,631.05 502.002,641.328 508.014,650.4 C514.062,659.526 521.64,669.162 527.88,676.71 " fill="none" id="Test-Parameter" style="stroke:#A80036;stroke-width:0.6;"/><polygon fill="#000000" points="512.6839,647.5978,511.128,642.1076,508.1981,644.0707,512.6839,647.5978" style="stroke:#000000;stroke-width:0.6;"/><text fill="#000000" font-family="sans-serif" font-size="7.8" lengthAdjust="spacing" textLength="55.2" x="516.414" y="648.2971">need to analyse</text><text fill="#000000" font-family="sans-serif" font-size="7.8" lengthAdjust="spacing" textLength="4.2" x="488.6455" y="634.7588">1</text><text fill="#000000" font-family="sans-serif" font-size="7.8" lengthAdjust="spacing" textLength="12" x="511.2844" y="670.291">1..*</text><!--MD5=[70708b988bd3daf7d709a8804f2a2e23]
@startuml
'https://plantuml.com/sequence-diagram

top to bottom direction

Company"1" - - - "1..*"Employee : > has
Company"1" - - "*"Client : > has
Company"1" - - "1..*"ClinicalAnalysisLab : > has
MedicalLabTechnician"*" - - "1"ClinicalAnalysisLab : > works at
Receptionist"1" - - "*"TestRequest : > register new
Headquarter"1" - - "1"ChemicalLab : > has
Company"1" -left- "1"Headquarter : > owns
Receptionist"1..*" - - "*"Client : > add
Employee <|- - MedicalLabTechnician
Employee <|- - ClinicalChemistryTechnologist
Employee <|- - Receptionist
Employee <|- - LabCoordinator
Employee <|- - Admin
Employee <|- - SpecialistDoctor
ClinicalChemistryTechnologist"*" - - "1"ChemicalLab : > works at
Test"1" - - "1"Report : > has
MedicalLabTechnician"1" - - "*"Sample : > collect
Sample"1" -right- "1"Test : < has
Company"1" - - "1..*"TypeOfTest : > conduct
Company"1" - - "*"Test : > perform
TestRequest"1..*" - - "1""Client" : < does
SpecialistDoctor"1" - - "*"Report : > write
SpecialistDoctor"1..*" - - "1"Headquarter : > works at
Report"1" - - "1"Client : > delivered to
Sample"*" - - "1"ChemicalLab : < owns
LabCoordinator"1" - - "*"Report : > validate
TestRequest"1" - - "1"Test : > originates
TypeOfTest"1" - - "1""Test" : < has
Admin"1..*" - - "*"Category : > create new
Category"1" - - "*"Parameter : < presented under
Test"1" - - "1..*"Parameter : > need to analyse

class Client{
-nhsNumber
-name
-tin
-birthDate
-sex
-phoneNumber
-email
}

class Sample{
-barcode
}

class Report{
-diagnosis
-results
}

class Employee{
-employeeID
-name
-address
-socCode
-phoneNumber
-email
}

class ClinicalAnalysisLab{
-labId
-name
-address
-phoneNumber
-tinNumber
}
class ChemicalLab{
-name
-address
-phoneNumber
-tinNumber
}

class TestRequest{
-requestDate
-testType
}

class Company{
-name
-location
}

class Headquarter{
-location
}

class Test{
-timestampOfSampleCollected
-timestampOfDiagnosis
-timestampOfChemicalAnalysis
-timestampOfValidation
}

class Category{
-nhsId
-internalCode
-description
}

class SpecialistDoctor{
-doctorIndexNumber
}

@enduml

@startuml

top to bottom direction

Company"1" - - - "1..*"Employee : > has
Company"1" - - "*"Client : > has
Company"1" - - "1..*"ClinicalAnalysisLab : > has
MedicalLabTechnician"*" - - "1"ClinicalAnalysisLab : > works at
Receptionist"1" - - "*"TestRequest : > register new
Headquarter"1" - - "1"ChemicalLab : > has
Company"1" -left- "1"Headquarter : > owns
Receptionist"1..*" - - "*"Client : > add
Employee <|- - MedicalLabTechnician
Employee <|- - ClinicalChemistryTechnologist
Employee <|- - Receptionist
Employee <|- - LabCoordinator
Employee <|- - Admin
Employee <|- - SpecialistDoctor
ClinicalChemistryTechnologist"*" - - "1"ChemicalLab : > works at
Test"1" - - "1"Report : > has
MedicalLabTechnician"1" - - "*"Sample : > collect
Sample"1" -right- "1"Test : < has
Company"1" - - "1..*"TypeOfTest : > conduct
Company"1" - - "*"Test : > perform
TestRequest"1..*" - - "1""Client" : < does
SpecialistDoctor"1" - - "*"Report : > write
SpecialistDoctor"1..*" - - "1"Headquarter : > works at
Report"1" - - "1"Client : > delivered to
Sample"*" - - "1"ChemicalLab : < owns
LabCoordinator"1" - - "*"Report : > validate
TestRequest"1" - - "1"Test : > originates
TypeOfTest"1" - - "1""Test" : < has
Admin"1..*" - - "*"Category : > create new
Category"1" - - "*"Parameter : < presented under
Test"1" - - "1..*"Parameter : > need to analyse

class Client{
-nhsNumber
-name
-tin
-birthDate
-sex
-phoneNumber
-email
}

class Sample{
-barcode
}

class Report{
-diagnosis
-results
}

class Employee{
-employeeID
-name
-address
-socCode
-phoneNumber
-email
}

class ClinicalAnalysisLab{
-labId
-name
-address
-phoneNumber
-tinNumber
}
class ChemicalLab{
-name
-address
-phoneNumber
-tinNumber
}

class TestRequest{
-requestDate
-testType
}

class Company{
-name
-location
}

class Headquarter{
-location
}

class Test{
-timestampOfSampleCollected
-timestampOfDiagnosis
-timestampOfChemicalAnalysis
-timestampOfValidation
}

class Category{
-nhsId
-internalCode
-description
}

class SpecialistDoctor{
-doctorIndexNumber
}

@enduml

PlantUML version 1.2021.00(Sun Jan 10 10:25:05 GMT 2021)
(GPL source distribution)
Java Runtime: OpenJDK Runtime Environment
JVM: OpenJDK 64-Bit Server VM
Default Encoding: Cp1252
Language: en
Country: US
--></g></svg>