<?xml version="1.0" encoding="UTF-8" standalone="no"?><svg xmlns="http://www.w3.org/2000/svg" xmlns:xlink="http://www.w3.org/1999/xlink" contentScriptType="application/ecmascript" contentStyleType="text/css" height="1245px" preserveAspectRatio="none" style="width:1376px;height:1245px;" version="1.1" viewBox="0 0 1376 1245" width="1376px" zoomAndPan="magnify"><defs><filter height="300%" id="f1xhok2802rgml" width="300%" x="-1" y="-1"><feGaussianBlur result="blurOut" stdDeviation="2.0"/><feColorMatrix in="blurOut" result="blurOut2" type="matrix" values="0 0 0 0 0 0 0 0 0 0 0 0 0 0 0 0 0 0 .4 0"/><feOffset dx="4.0" dy="4.0" in="blurOut2" result="blurOut3"/><feBlend in="SourceGraphic" in2="blurOut3" mode="normal"/></filter></defs><g><!--MD5=[02e4b9b7573f1156f41e60aa5b4e25a4]
class Company--><rect codeLine="83" fill="#FEFECE" filter="url(#f1xhok2802rgml)" height="75.6719" id="Company" style="stroke:#A80036;stroke-width:1.5;" width="85" x="840.5" y="7"/><ellipse cx="855.5" cy="23" fill="#ADD1B2" rx="11" ry="11" style="stroke:#A80036;stroke-width:1.0;"/><path d="M857.5,19.5 Q857.7031,19 857.9375,18.75 Q858.1719,18.5 858.4375,18.5 Q858.9063,18.5 859.2031,18.7813 Q859.5,19.0625 859.5,19.7188 L859.5,21.2813 Q859.5,21.9375 859.2188,22.2188 Q858.9375,22.5 858.5,22.5 Q858.1094,22.5 857.8594,22.3281 Q857.6094,22.1563 857.5,21.7031 Q857.4531,21.3906 857.2813,21.2188 Q856.9688,20.8906 856.4063,20.7031 Q855.8438,20.5 855.2813,20.5 Q854.5781,20.5 853.9844,20.7813 Q853.4063,21.0625 852.9531,21.6875 Q852.5,22.3125 852.5,23.1719 L852.5,24.0938 Q852.5,25.125 853.3438,25.8125 Q854.1875,26.5 855.6875,26.5 Q856.5781,26.5 857.2031,26.2969 Q857.5625,26.1875 857.9688,25.8281 Q858.2344,25.625 858.375,25.5625 Q858.5156,25.5 858.6875,25.5 Q859.0156,25.5 859.25,25.7656 Q859.5,26.0156 859.5,26.375 Q859.5,26.7188 859.1563,27.125 Q858.6563,27.7188 857.8594,28.0469 Q856.8125,28.5 855.5313,28.5 Q854.0313,28.5 852.8281,27.9063 Q851.8594,27.4375 851.1719,26.4219 Q850.5,25.4063 850.5,24.2031 L850.5,23.1094 Q850.5,21.8594 851.0938,20.7656 Q851.7031,19.6719 852.75,19.0938 Q853.8125,18.5 855,18.5 Q855.7188,18.5 856.3438,18.75 Q856.9688,19 857.5,19.5 Z " fill="#000000"/><text fill="#000000" font-family="sans-serif" font-size="12" lengthAdjust="spacing" textLength="53" x="869.5" y="27.9102">Company</text><line style="stroke:#A80036;stroke-width:1.5;" x1="841.5" x2="924.5" y1="39" y2="39"/><rect fill="none" height="6" style="stroke:#C82930;stroke-width:1.0;" width="6" x="848.5" y="47"/><text fill="#000000" font-family="sans-serif" font-size="11" lengthAdjust="spacing" textLength="26" x="860.5" y="54.4189">name</text><rect fill="none" height="6" style="stroke:#C82930;stroke-width:1.0;" width="6" x="848.5" y="60.8359"/><text fill="#000000" font-family="sans-serif" font-size="11" lengthAdjust="spacing" textLength="37" x="860.5" y="68.2549">location</text><line style="stroke:#A80036;stroke-width:1.5;" x1="841.5" x2="924.5" y1="74.6719" y2="74.6719"/><!--MD5=[7421f545a0d8420c5bec41e74b387d9c]
class Employee--><rect codeLine="55" fill="#FEFECE" filter="url(#f1xhok2802rgml)" height="131.0156" id="Employee" style="stroke:#A80036;stroke-width:1.5;" width="93" x="546.5" y="287"/><ellipse cx="564.2" cy="303" fill="#ADD1B2" rx="11" ry="11" style="stroke:#A80036;stroke-width:1.0;"/><path d="M566.2,299.5 Q566.4031,299 566.6375,298.75 Q566.8719,298.5 567.1375,298.5 Q567.6063,298.5 567.9031,298.7813 Q568.2,299.0625 568.2,299.7188 L568.2,301.2813 Q568.2,301.9375 567.9188,302.2188 Q567.6375,302.5 567.2,302.5 Q566.8094,302.5 566.5594,302.3281 Q566.3094,302.1563 566.2,301.7031 Q566.1531,301.3906 565.9813,301.2188 Q565.6688,300.8906 565.1063,300.7031 Q564.5438,300.5 563.9813,300.5 Q563.2781,300.5 562.6844,300.7813 Q562.1063,301.0625 561.6531,301.6875 Q561.2,302.3125 561.2,303.1719 L561.2,304.0938 Q561.2,305.125 562.0438,305.8125 Q562.8875,306.5 564.3875,306.5 Q565.2781,306.5 565.9031,306.2969 Q566.2625,306.1875 566.6688,305.8281 Q566.9344,305.625 567.075,305.5625 Q567.2156,305.5 567.3875,305.5 Q567.7156,305.5 567.95,305.7656 Q568.2,306.0156 568.2,306.375 Q568.2,306.7188 567.8563,307.125 Q567.3563,307.7188 566.5594,308.0469 Q565.5125,308.5 564.2313,308.5 Q562.7313,308.5 561.5281,307.9063 Q560.5594,307.4375 559.8719,306.4219 Q559.2,305.4063 559.2,304.2031 L559.2,303.1094 Q559.2,301.8594 559.7938,300.7656 Q560.4031,299.6719 561.45,299.0938 Q562.5125,298.5 563.7,298.5 Q564.4188,298.5 565.0438,298.75 Q565.6688,299 566.2,299.5 Z " fill="#000000"/><text fill="#000000" font-family="sans-serif" font-size="12" lengthAdjust="spacing" textLength="55" x="578.8" y="307.9102">Employee</text><line style="stroke:#A80036;stroke-width:1.5;" x1="547.5" x2="638.5" y1="319" y2="319"/><rect fill="none" height="6" style="stroke:#C82930;stroke-width:1.0;" width="6" x="554.5" y="327"/><text fill="#000000" font-family="sans-serif" font-size="11" lengthAdjust="spacing" textLength="55" x="566.5" y="334.4189">employeeID</text><rect fill="none" height="6" style="stroke:#C82930;stroke-width:1.0;" width="6" x="554.5" y="340.8359"/><text fill="#000000" font-family="sans-serif" font-size="11" lengthAdjust="spacing" textLength="26" x="566.5" y="348.2549">name</text><rect fill="none" height="6" style="stroke:#C82930;stroke-width:1.0;" width="6" x="554.5" y="354.6719"/><text fill="#000000" font-family="sans-serif" font-size="11" lengthAdjust="spacing" textLength="40" x="566.5" y="362.0908">address</text><rect fill="none" height="6" style="stroke:#C82930;stroke-width:1.0;" width="6" x="554.5" y="368.5078"/><text fill="#000000" font-family="sans-serif" font-size="11" lengthAdjust="spacing" textLength="43" x="566.5" y="375.9268">socCode</text><rect fill="none" height="6" style="stroke:#C82930;stroke-width:1.0;" width="6" x="554.5" y="382.3438"/><text fill="#000000" font-family="sans-serif" font-size="11" lengthAdjust="spacing" textLength="67" x="566.5" y="389.7627">phoneNumber</text><rect fill="none" height="6" style="stroke:#C82930;stroke-width:1.0;" width="6" x="554.5" y="396.1797"/><text fill="#000000" font-family="sans-serif" font-size="11" lengthAdjust="spacing" textLength="24" x="566.5" y="403.5986">email</text><line style="stroke:#A80036;stroke-width:1.5;" x1="547.5" x2="638.5" y1="410.0156" y2="410.0156"/><!--MD5=[ed6624c6556d5e7b1bd23032162d20b7]
class Client--><rect codeLine="36" fill="#FEFECE" filter="url(#f1xhok2802rgml)" height="144.8516" id="Client" style="stroke:#A80036;stroke-width:1.5;" width="93" x="833.5" y="933"/><ellipse cx="861.55" cy="949" fill="#ADD1B2" rx="11" ry="11" style="stroke:#A80036;stroke-width:1.0;"/><path d="M863.55,945.5 Q863.7531,945 863.9875,944.75 Q864.2219,944.5 864.4875,944.5 Q864.9563,944.5 865.2531,944.7813 Q865.55,945.0625 865.55,945.7188 L865.55,947.2813 Q865.55,947.9375 865.2688,948.2188 Q864.9875,948.5 864.55,948.5 Q864.1594,948.5 863.9094,948.3281 Q863.6594,948.1563 863.55,947.7031 Q863.5031,947.3906 863.3313,947.2188 Q863.0188,946.8906 862.4563,946.7031 Q861.8938,946.5 861.3313,946.5 Q860.6281,946.5 860.0344,946.7813 Q859.4563,947.0625 859.0031,947.6875 Q858.55,948.3125 858.55,949.1719 L858.55,950.0938 Q858.55,951.125 859.3938,951.8125 Q860.2375,952.5 861.7375,952.5 Q862.6281,952.5 863.2531,952.2969 Q863.6125,952.1875 864.0188,951.8281 Q864.2844,951.625 864.425,951.5625 Q864.5656,951.5 864.7375,951.5 Q865.0656,951.5 865.3,951.7656 Q865.55,952.0156 865.55,952.375 Q865.55,952.7188 865.2063,953.125 Q864.7063,953.7188 863.9094,954.0469 Q862.8625,954.5 861.5813,954.5 Q860.0813,954.5 858.8781,953.9063 Q857.9094,953.4375 857.2219,952.4219 Q856.55,951.4063 856.55,950.2031 L856.55,949.1094 Q856.55,947.8594 857.1438,946.7656 Q857.7531,945.6719 858.8,945.0938 Q859.8625,944.5 861.05,944.5 Q861.7688,944.5 862.3938,944.75 Q863.0188,945 863.55,945.5 Z " fill="#000000"/><text fill="#000000" font-family="sans-serif" font-size="12" lengthAdjust="spacing" textLength="32" x="878.45" y="953.9102">Client</text><line style="stroke:#A80036;stroke-width:1.5;" x1="834.5" x2="925.5" y1="965" y2="965"/><rect fill="none" height="6" style="stroke:#C82930;stroke-width:1.0;" width="6" x="841.5" y="973"/><text fill="#000000" font-family="sans-serif" font-size="11" lengthAdjust="spacing" textLength="55" x="853.5" y="980.4189">nhsNumber</text><rect fill="none" height="6" style="stroke:#C82930;stroke-width:1.0;" width="6" x="841.5" y="986.8359"/><text fill="#000000" font-family="sans-serif" font-size="11" lengthAdjust="spacing" textLength="26" x="853.5" y="994.2549">name</text><rect fill="none" height="6" style="stroke:#C82930;stroke-width:1.0;" width="6" x="841.5" y="1000.6719"/><text fill="#000000" font-family="sans-serif" font-size="11" lengthAdjust="spacing" textLength="48" x="853.5" y="1008.0908">tinNumber</text><rect fill="none" height="6" style="stroke:#C82930;stroke-width:1.0;" width="6" x="841.5" y="1014.5078"/><text fill="#000000" font-family="sans-serif" font-size="11" lengthAdjust="spacing" textLength="43" x="853.5" y="1021.9268">birthDate</text><rect fill="none" height="6" style="stroke:#C82930;stroke-width:1.0;" width="6" x="841.5" y="1028.3438"/><text fill="#000000" font-family="sans-serif" font-size="11" lengthAdjust="spacing" textLength="18" x="853.5" y="1035.7627">sex</text><rect fill="none" height="6" style="stroke:#C82930;stroke-width:1.0;" width="6" x="841.5" y="1042.1797"/><text fill="#000000" font-family="sans-serif" font-size="11" lengthAdjust="spacing" textLength="67" x="853.5" y="1049.5986">phoneNumber</text><rect fill="none" height="6" style="stroke:#C82930;stroke-width:1.0;" width="6" x="841.5" y="1056.0156"/><text fill="#000000" font-family="sans-serif" font-size="11" lengthAdjust="spacing" textLength="24" x="853.5" y="1063.4346">email</text><line style="stroke:#A80036;stroke-width:1.5;" x1="834.5" x2="925.5" y1="1069.8516" y2="1069.8516"/><!--MD5=[28d9d7ef96b34fdc6ab3814c5cef79ce]
class ClinicalAnalysisLab--><rect codeLine="64" fill="#FEFECE" filter="url(#f1xhok2802rgml)" height="117.1797" id="ClinicalAnalysisLab" style="stroke:#A80036;stroke-width:1.5;" width="140" x="579" y="666"/><ellipse cx="594" cy="682" fill="#ADD1B2" rx="11" ry="11" style="stroke:#A80036;stroke-width:1.0;"/><path d="M596,678.5 Q596.2031,678 596.4375,677.75 Q596.6719,677.5 596.9375,677.5 Q597.4063,677.5 597.7031,677.7813 Q598,678.0625 598,678.7188 L598,680.2813 Q598,680.9375 597.7188,681.2188 Q597.4375,681.5 597,681.5 Q596.6094,681.5 596.3594,681.3281 Q596.1094,681.1563 596,680.7031 Q595.9531,680.3906 595.7813,680.2188 Q595.4688,679.8906 594.9063,679.7031 Q594.3438,679.5 593.7813,679.5 Q593.0781,679.5 592.4844,679.7813 Q591.9063,680.0625 591.4531,680.6875 Q591,681.3125 591,682.1719 L591,683.0938 Q591,684.125 591.8438,684.8125 Q592.6875,685.5 594.1875,685.5 Q595.0781,685.5 595.7031,685.2969 Q596.0625,685.1875 596.4688,684.8281 Q596.7344,684.625 596.875,684.5625 Q597.0156,684.5 597.1875,684.5 Q597.5156,684.5 597.75,684.7656 Q598,685.0156 598,685.375 Q598,685.7188 597.6563,686.125 Q597.1563,686.7188 596.3594,687.0469 Q595.3125,687.5 594.0313,687.5 Q592.5313,687.5 591.3281,686.9063 Q590.3594,686.4375 589.6719,685.4219 Q589,684.4063 589,683.2031 L589,682.1094 Q589,680.8594 589.5938,679.7656 Q590.2031,678.6719 591.25,678.0938 Q592.3125,677.5 593.5,677.5 Q594.2188,677.5 594.8438,677.75 Q595.4688,678 596,678.5 Z " fill="#000000"/><text fill="#000000" font-family="sans-serif" font-size="12" lengthAdjust="spacing" textLength="108" x="608" y="686.9102">ClinicalAnalysisLab</text><line style="stroke:#A80036;stroke-width:1.5;" x1="580" x2="718" y1="698" y2="698"/><rect fill="none" height="6" style="stroke:#C82930;stroke-width:1.0;" width="6" x="587" y="706"/><text fill="#000000" font-family="sans-serif" font-size="11" lengthAdjust="spacing" textLength="22" x="599" y="713.4189">labId</text><rect fill="none" height="6" style="stroke:#C82930;stroke-width:1.0;" width="6" x="587" y="719.8359"/><text fill="#000000" font-family="sans-serif" font-size="11" lengthAdjust="spacing" textLength="26" x="599" y="727.2549">name</text><rect fill="none" height="6" style="stroke:#C82930;stroke-width:1.0;" width="6" x="587" y="733.6719"/><text fill="#000000" font-family="sans-serif" font-size="11" lengthAdjust="spacing" textLength="40" x="599" y="741.0908">address</text><rect fill="none" height="6" style="stroke:#C82930;stroke-width:1.0;" width="6" x="587" y="747.5078"/><text fill="#000000" font-family="sans-serif" font-size="11" lengthAdjust="spacing" textLength="67" x="599" y="754.9268">phoneNumber</text><rect fill="none" height="6" style="stroke:#C82930;stroke-width:1.0;" width="6" x="587" y="761.3438"/><text fill="#000000" font-family="sans-serif" font-size="11" lengthAdjust="spacing" textLength="48" x="599" y="768.7627">tinNumber</text><line style="stroke:#A80036;stroke-width:1.5;" x1="580" x2="718" y1="775.1797" y2="775.1797"/><!--MD5=[01931d41e78f8996acd44f6f0fd8de28]
class MedicalLabTechnician--><rect fill="#FEFECE" filter="url(#f1xhok2802rgml)" height="48" id="MedicalLabTechnician" style="stroke:#A80036;stroke-width:1.5;" width="155" x="515.5" y="503"/><ellipse cx="530.5" cy="519" fill="#ADD1B2" rx="11" ry="11" style="stroke:#A80036;stroke-width:1.0;"/><path d="M532.5,515.5 Q532.7031,515 532.9375,514.75 Q533.1719,514.5 533.4375,514.5 Q533.9063,514.5 534.2031,514.7813 Q534.5,515.0625 534.5,515.7188 L534.5,517.2813 Q534.5,517.9375 534.2188,518.2188 Q533.9375,518.5 533.5,518.5 Q533.1094,518.5 532.8594,518.3281 Q532.6094,518.1563 532.5,517.7031 Q532.4531,517.3906 532.2813,517.2188 Q531.9688,516.8906 531.4063,516.7031 Q530.8438,516.5 530.2813,516.5 Q529.5781,516.5 528.9844,516.7813 Q528.4063,517.0625 527.9531,517.6875 Q527.5,518.3125 527.5,519.1719 L527.5,520.0938 Q527.5,521.125 528.3438,521.8125 Q529.1875,522.5 530.6875,522.5 Q531.5781,522.5 532.2031,522.2969 Q532.5625,522.1875 532.9688,521.8281 Q533.2344,521.625 533.375,521.5625 Q533.5156,521.5 533.6875,521.5 Q534.0156,521.5 534.25,521.7656 Q534.5,522.0156 534.5,522.375 Q534.5,522.7188 534.1563,523.125 Q533.6563,523.7188 532.8594,524.0469 Q531.8125,524.5 530.5313,524.5 Q529.0313,524.5 527.8281,523.9063 Q526.8594,523.4375 526.1719,522.4219 Q525.5,521.4063 525.5,520.2031 L525.5,519.1094 Q525.5,517.8594 526.0938,516.7656 Q526.7031,515.6719 527.75,515.0938 Q528.8125,514.5 530,514.5 Q530.7188,514.5 531.3438,514.75 Q531.9688,515 532.5,515.5 Z " fill="#000000"/><text fill="#000000" font-family="sans-serif" font-size="12" lengthAdjust="spacing" textLength="123" x="544.5" y="523.9102">MedicalLabTechnician</text><line style="stroke:#A80036;stroke-width:1.5;" x1="516.5" x2="669.5" y1="535" y2="535"/><line style="stroke:#A80036;stroke-width:1.5;" x1="516.5" x2="669.5" y1="543" y2="543"/><!--MD5=[03960189e81aa2c066c762ffabbee709]
class Receptionist--><rect fill="#FEFECE" filter="url(#f1xhok2802rgml)" height="48" id="Receptionist" style="stroke:#A80036;stroke-width:1.5;" width="101" x="801.5" y="503"/><ellipse cx="816.5" cy="519" fill="#ADD1B2" rx="11" ry="11" style="stroke:#A80036;stroke-width:1.0;"/><path d="M818.5,515.5 Q818.7031,515 818.9375,514.75 Q819.1719,514.5 819.4375,514.5 Q819.9063,514.5 820.2031,514.7813 Q820.5,515.0625 820.5,515.7188 L820.5,517.2813 Q820.5,517.9375 820.2188,518.2188 Q819.9375,518.5 819.5,518.5 Q819.1094,518.5 818.8594,518.3281 Q818.6094,518.1563 818.5,517.7031 Q818.4531,517.3906 818.2813,517.2188 Q817.9688,516.8906 817.4063,516.7031 Q816.8438,516.5 816.2813,516.5 Q815.5781,516.5 814.9844,516.7813 Q814.4063,517.0625 813.9531,517.6875 Q813.5,518.3125 813.5,519.1719 L813.5,520.0938 Q813.5,521.125 814.3438,521.8125 Q815.1875,522.5 816.6875,522.5 Q817.5781,522.5 818.2031,522.2969 Q818.5625,522.1875 818.9688,521.8281 Q819.2344,521.625 819.375,521.5625 Q819.5156,521.5 819.6875,521.5 Q820.0156,521.5 820.25,521.7656 Q820.5,522.0156 820.5,522.375 Q820.5,522.7188 820.1563,523.125 Q819.6563,523.7188 818.8594,524.0469 Q817.8125,524.5 816.5313,524.5 Q815.0313,524.5 813.8281,523.9063 Q812.8594,523.4375 812.1719,522.4219 Q811.5,521.4063 811.5,520.2031 L811.5,519.1094 Q811.5,517.8594 812.0938,516.7656 Q812.7031,515.6719 813.75,515.0938 Q814.8125,514.5 816,514.5 Q816.7188,514.5 817.3438,514.75 Q817.9688,515 818.5,515.5 Z " fill="#000000"/><text fill="#000000" font-family="sans-serif" font-size="12" lengthAdjust="spacing" textLength="69" x="830.5" y="523.9102">Receptionist</text><line style="stroke:#A80036;stroke-width:1.5;" x1="802.5" x2="901.5" y1="535" y2="535"/><line style="stroke:#A80036;stroke-width:1.5;" x1="802.5" x2="901.5" y1="543" y2="543"/><!--MD5=[40e890504ae8504489f671c0e1cb46b0]
class TestRequest--><rect codeLine="78" fill="#FEFECE" filter="url(#f1xhok2802rgml)" height="75.6719" id="TestRequest" style="stroke:#A80036;stroke-width:1.5;" width="103" x="860.5" y="686.5"/><ellipse cx="875.5" cy="702.5" fill="#ADD1B2" rx="11" ry="11" style="stroke:#A80036;stroke-width:1.0;"/><path d="M877.5,699 Q877.7031,698.5 877.9375,698.25 Q878.1719,698 878.4375,698 Q878.9063,698 879.2031,698.2813 Q879.5,698.5625 879.5,699.2188 L879.5,700.7813 Q879.5,701.4375 879.2188,701.7188 Q878.9375,702 878.5,702 Q878.1094,702 877.8594,701.8281 Q877.6094,701.6563 877.5,701.2031 Q877.4531,700.8906 877.2813,700.7188 Q876.9688,700.3906 876.4063,700.2031 Q875.8438,700 875.2813,700 Q874.5781,700 873.9844,700.2813 Q873.4063,700.5625 872.9531,701.1875 Q872.5,701.8125 872.5,702.6719 L872.5,703.5938 Q872.5,704.625 873.3438,705.3125 Q874.1875,706 875.6875,706 Q876.5781,706 877.2031,705.7969 Q877.5625,705.6875 877.9688,705.3281 Q878.2344,705.125 878.375,705.0625 Q878.5156,705 878.6875,705 Q879.0156,705 879.25,705.2656 Q879.5,705.5156 879.5,705.875 Q879.5,706.2188 879.1563,706.625 Q878.6563,707.2188 877.8594,707.5469 Q876.8125,708 875.5313,708 Q874.0313,708 872.8281,707.4063 Q871.8594,706.9375 871.1719,705.9219 Q870.5,704.9063 870.5,703.7031 L870.5,702.6094 Q870.5,701.3594 871.0938,700.2656 Q871.7031,699.1719 872.75,698.5938 Q873.8125,698 875,698 Q875.7188,698 876.3438,698.25 Q876.9688,698.5 877.5,699 Z " fill="#000000"/><text fill="#000000" font-family="sans-serif" font-size="12" lengthAdjust="spacing" textLength="71" x="889.5" y="707.4102">TestRequest</text><line style="stroke:#A80036;stroke-width:1.5;" x1="861.5" x2="962.5" y1="718.5" y2="718.5"/><rect fill="none" height="6" style="stroke:#C82930;stroke-width:1.0;" width="6" x="868.5" y="726.5"/><text fill="#000000" font-family="sans-serif" font-size="11" lengthAdjust="spacing" textLength="59" x="880.5" y="733.9189">requestDate</text><rect fill="none" height="6" style="stroke:#C82930;stroke-width:1.0;" width="6" x="868.5" y="740.3359"/><text fill="#000000" font-family="sans-serif" font-size="11" lengthAdjust="spacing" textLength="42" x="880.5" y="747.7549">testType</text><line style="stroke:#A80036;stroke-width:1.5;" x1="861.5" x2="962.5" y1="754.1719" y2="754.1719"/><!--MD5=[d093ac04eae792ab9dd475c65e92d910]
class Headquarter--><rect codeLine="88" fill="#FEFECE" filter="url(#f1xhok2802rgml)" height="61.8359" id="Headquarter" style="stroke:#A80036;stroke-width:1.5;" width="101" x="131.5" y="14"/><ellipse cx="146.5" cy="30" fill="#ADD1B2" rx="11" ry="11" style="stroke:#A80036;stroke-width:1.0;"/><path d="M148.5,26.5 Q148.7031,26 148.9375,25.75 Q149.1719,25.5 149.4375,25.5 Q149.9063,25.5 150.2031,25.7813 Q150.5,26.0625 150.5,26.7188 L150.5,28.2813 Q150.5,28.9375 150.2188,29.2188 Q149.9375,29.5 149.5,29.5 Q149.1094,29.5 148.8594,29.3281 Q148.6094,29.1563 148.5,28.7031 Q148.4531,28.3906 148.2813,28.2188 Q147.9688,27.8906 147.4063,27.7031 Q146.8438,27.5 146.2813,27.5 Q145.5781,27.5 144.9844,27.7813 Q144.4063,28.0625 143.9531,28.6875 Q143.5,29.3125 143.5,30.1719 L143.5,31.0938 Q143.5,32.125 144.3438,32.8125 Q145.1875,33.5 146.6875,33.5 Q147.5781,33.5 148.2031,33.2969 Q148.5625,33.1875 148.9688,32.8281 Q149.2344,32.625 149.375,32.5625 Q149.5156,32.5 149.6875,32.5 Q150.0156,32.5 150.25,32.7656 Q150.5,33.0156 150.5,33.375 Q150.5,33.7188 150.1563,34.125 Q149.6563,34.7188 148.8594,35.0469 Q147.8125,35.5 146.5313,35.5 Q145.0313,35.5 143.8281,34.9063 Q142.8594,34.4375 142.1719,33.4219 Q141.5,32.4063 141.5,31.2031 L141.5,30.1094 Q141.5,28.8594 142.0938,27.7656 Q142.7031,26.6719 143.75,26.0938 Q144.8125,25.5 146,25.5 Q146.7188,25.5 147.3438,25.75 Q147.9688,26 148.5,26.5 Z " fill="#000000"/><text fill="#000000" font-family="sans-serif" font-size="12" lengthAdjust="spacing" textLength="69" x="160.5" y="34.9102">Headquarter</text><line style="stroke:#A80036;stroke-width:1.5;" x1="132.5" x2="231.5" y1="46" y2="46"/><rect fill="none" height="6" style="stroke:#C82930;stroke-width:1.0;" width="6" x="139.5" y="54"/><text fill="#000000" font-family="sans-serif" font-size="11" lengthAdjust="spacing" textLength="37" x="151.5" y="61.4189">location</text><line style="stroke:#A80036;stroke-width:1.5;" x1="132.5" x2="231.5" y1="67.8359" y2="67.8359"/><!--MD5=[a8cdb1e9a553f5119d5d6ee12fd8c3d3]
class ChemicalLab--><rect codeLine="71" fill="#FEFECE" filter="url(#f1xhok2802rgml)" height="103.3438" id="ChemicalLab" style="stroke:#A80036;stroke-width:1.5;" width="106" x="316" y="954"/><ellipse cx="331" cy="970" fill="#ADD1B2" rx="11" ry="11" style="stroke:#A80036;stroke-width:1.0;"/><path d="M333,966.5 Q333.2031,966 333.4375,965.75 Q333.6719,965.5 333.9375,965.5 Q334.4063,965.5 334.7031,965.7813 Q335,966.0625 335,966.7188 L335,968.2813 Q335,968.9375 334.7188,969.2188 Q334.4375,969.5 334,969.5 Q333.6094,969.5 333.3594,969.3281 Q333.1094,969.1563 333,968.7031 Q332.9531,968.3906 332.7813,968.2188 Q332.4688,967.8906 331.9063,967.7031 Q331.3438,967.5 330.7813,967.5 Q330.0781,967.5 329.4844,967.7813 Q328.9063,968.0625 328.4531,968.6875 Q328,969.3125 328,970.1719 L328,971.0938 Q328,972.125 328.8438,972.8125 Q329.6875,973.5 331.1875,973.5 Q332.0781,973.5 332.7031,973.2969 Q333.0625,973.1875 333.4688,972.8281 Q333.7344,972.625 333.875,972.5625 Q334.0156,972.5 334.1875,972.5 Q334.5156,972.5 334.75,972.7656 Q335,973.0156 335,973.375 Q335,973.7188 334.6563,974.125 Q334.1563,974.7188 333.3594,975.0469 Q332.3125,975.5 331.0313,975.5 Q329.5313,975.5 328.3281,974.9063 Q327.3594,974.4375 326.6719,973.4219 Q326,972.4063 326,971.2031 L326,970.1094 Q326,968.8594 326.5938,967.7656 Q327.2031,966.6719 328.25,966.0938 Q329.3125,965.5 330.5,965.5 Q331.2188,965.5 331.8438,965.75 Q332.4688,966 333,966.5 Z " fill="#000000"/><text fill="#000000" font-family="sans-serif" font-size="12" lengthAdjust="spacing" textLength="74" x="345" y="974.9102">ChemicalLab</text><line style="stroke:#A80036;stroke-width:1.5;" x1="317" x2="421" y1="986" y2="986"/><rect fill="none" height="6" style="stroke:#C82930;stroke-width:1.0;" width="6" x="324" y="994"/><text fill="#000000" font-family="sans-serif" font-size="11" lengthAdjust="spacing" textLength="26" x="336" y="1001.4189">name</text><rect fill="none" height="6" style="stroke:#C82930;stroke-width:1.0;" width="6" x="324" y="1007.8359"/><text fill="#000000" font-family="sans-serif" font-size="11" lengthAdjust="spacing" textLength="40" x="336" y="1015.2549">address</text><rect fill="none" height="6" style="stroke:#C82930;stroke-width:1.0;" width="6" x="324" y="1021.6719"/><text fill="#000000" font-family="sans-serif" font-size="11" lengthAdjust="spacing" textLength="67" x="336" y="1029.0908">phoneNumber</text><rect fill="none" height="6" style="stroke:#C82930;stroke-width:1.0;" width="6" x="324" y="1035.5078"/><text fill="#000000" font-family="sans-serif" font-size="11" lengthAdjust="spacing" textLength="48" x="336" y="1042.9268">tinNumber</text><line style="stroke:#A80036;stroke-width:1.5;" x1="317" x2="421" y1="1049.3438" y2="1049.3438"/><!--MD5=[012ee2a8bf3ae2b319009b06f951c2e5]
class ClinicalChemistryTechnologist--><rect fill="#FEFECE" filter="url(#f1xhok2802rgml)" height="48" id="ClinicalChemistryTechnologist" style="stroke:#A80036;stroke-width:1.5;" width="200" x="328" y="588"/><ellipse cx="343" cy="604" fill="#ADD1B2" rx="11" ry="11" style="stroke:#A80036;stroke-width:1.0;"/><path d="M345,600.5 Q345.2031,600 345.4375,599.75 Q345.6719,599.5 345.9375,599.5 Q346.4063,599.5 346.7031,599.7813 Q347,600.0625 347,600.7188 L347,602.2813 Q347,602.9375 346.7188,603.2188 Q346.4375,603.5 346,603.5 Q345.6094,603.5 345.3594,603.3281 Q345.1094,603.1563 345,602.7031 Q344.9531,602.3906 344.7813,602.2188 Q344.4688,601.8906 343.9063,601.7031 Q343.3438,601.5 342.7813,601.5 Q342.0781,601.5 341.4844,601.7813 Q340.9063,602.0625 340.4531,602.6875 Q340,603.3125 340,604.1719 L340,605.0938 Q340,606.125 340.8438,606.8125 Q341.6875,607.5 343.1875,607.5 Q344.0781,607.5 344.7031,607.2969 Q345.0625,607.1875 345.4688,606.8281 Q345.7344,606.625 345.875,606.5625 Q346.0156,606.5 346.1875,606.5 Q346.5156,606.5 346.75,606.7656 Q347,607.0156 347,607.375 Q347,607.7188 346.6563,608.125 Q346.1563,608.7188 345.3594,609.0469 Q344.3125,609.5 343.0313,609.5 Q341.5313,609.5 340.3281,608.9063 Q339.3594,608.4375 338.6719,607.4219 Q338,606.4063 338,605.2031 L338,604.1094 Q338,602.8594 338.5938,601.7656 Q339.2031,600.6719 340.25,600.0938 Q341.3125,599.5 342.5,599.5 Q343.2188,599.5 343.8438,599.75 Q344.4688,600 345,600.5 Z " fill="#000000"/><text fill="#000000" font-family="sans-serif" font-size="12" lengthAdjust="spacing" textLength="168" x="357" y="608.9102">ClinicalChemistryTechnologist</text><line style="stroke:#A80036;stroke-width:1.5;" x1="329" x2="527" y1="620" y2="620"/><line style="stroke:#A80036;stroke-width:1.5;" x1="329" x2="527" y1="628" y2="628"/><!--MD5=[c886e9f626b1f684543f4c5ec86b9c7b]
class LabCoordinator--><rect fill="#FEFECE" filter="url(#f1xhok2802rgml)" height="48" id="LabCoordinator" style="stroke:#A80036;stroke-width:1.5;" width="118" x="205" y="588"/><ellipse cx="220" cy="604" fill="#ADD1B2" rx="11" ry="11" style="stroke:#A80036;stroke-width:1.0;"/><path d="M222,600.5 Q222.2031,600 222.4375,599.75 Q222.6719,599.5 222.9375,599.5 Q223.4063,599.5 223.7031,599.7813 Q224,600.0625 224,600.7188 L224,602.2813 Q224,602.9375 223.7188,603.2188 Q223.4375,603.5 223,603.5 Q222.6094,603.5 222.3594,603.3281 Q222.1094,603.1563 222,602.7031 Q221.9531,602.3906 221.7813,602.2188 Q221.4688,601.8906 220.9063,601.7031 Q220.3438,601.5 219.7813,601.5 Q219.0781,601.5 218.4844,601.7813 Q217.9063,602.0625 217.4531,602.6875 Q217,603.3125 217,604.1719 L217,605.0938 Q217,606.125 217.8438,606.8125 Q218.6875,607.5 220.1875,607.5 Q221.0781,607.5 221.7031,607.2969 Q222.0625,607.1875 222.4688,606.8281 Q222.7344,606.625 222.875,606.5625 Q223.0156,606.5 223.1875,606.5 Q223.5156,606.5 223.75,606.7656 Q224,607.0156 224,607.375 Q224,607.7188 223.6563,608.125 Q223.1563,608.7188 222.3594,609.0469 Q221.3125,609.5 220.0313,609.5 Q218.5313,609.5 217.3281,608.9063 Q216.3594,608.4375 215.6719,607.4219 Q215,606.4063 215,605.2031 L215,604.1094 Q215,602.8594 215.5938,601.7656 Q216.2031,600.6719 217.25,600.0938 Q218.3125,599.5 219.5,599.5 Q220.2188,599.5 220.8438,599.75 Q221.4688,600 222,600.5 Z " fill="#000000"/><text fill="#000000" font-family="sans-serif" font-size="12" lengthAdjust="spacing" textLength="86" x="234" y="608.9102">LabCoordinator</text><line style="stroke:#A80036;stroke-width:1.5;" x1="206" x2="322" y1="620" y2="620"/><line style="stroke:#A80036;stroke-width:1.5;" x1="206" x2="322" y1="628" y2="628"/><!--MD5=[db6d18d8099558415abc41d00477ab92]
class Admin--><rect fill="#FEFECE" filter="url(#f1xhok2802rgml)" height="48" id="Admin" style="stroke:#A80036;stroke-width:1.5;" width="67" x="1077.5" y="503"/><ellipse cx="1092.5" cy="519" fill="#ADD1B2" rx="11" ry="11" style="stroke:#A80036;stroke-width:1.0;"/><path d="M1094.5,515.5 Q1094.7031,515 1094.9375,514.75 Q1095.1719,514.5 1095.4375,514.5 Q1095.9063,514.5 1096.2031,514.7813 Q1096.5,515.0625 1096.5,515.7188 L1096.5,517.2813 Q1096.5,517.9375 1096.2188,518.2188 Q1095.9375,518.5 1095.5,518.5 Q1095.1094,518.5 1094.8594,518.3281 Q1094.6094,518.1563 1094.5,517.7031 Q1094.4531,517.3906 1094.2813,517.2188 Q1093.9688,516.8906 1093.4063,516.7031 Q1092.8438,516.5 1092.2813,516.5 Q1091.5781,516.5 1090.9844,516.7813 Q1090.4063,517.0625 1089.9531,517.6875 Q1089.5,518.3125 1089.5,519.1719 L1089.5,520.0938 Q1089.5,521.125 1090.3438,521.8125 Q1091.1875,522.5 1092.6875,522.5 Q1093.5781,522.5 1094.2031,522.2969 Q1094.5625,522.1875 1094.9688,521.8281 Q1095.2344,521.625 1095.375,521.5625 Q1095.5156,521.5 1095.6875,521.5 Q1096.0156,521.5 1096.25,521.7656 Q1096.5,522.0156 1096.5,522.375 Q1096.5,522.7188 1096.1563,523.125 Q1095.6563,523.7188 1094.8594,524.0469 Q1093.8125,524.5 1092.5313,524.5 Q1091.0313,524.5 1089.8281,523.9063 Q1088.8594,523.4375 1088.1719,522.4219 Q1087.5,521.4063 1087.5,520.2031 L1087.5,519.1094 Q1087.5,517.8594 1088.0938,516.7656 Q1088.7031,515.6719 1089.75,515.0938 Q1090.8125,514.5 1092,514.5 Q1092.7188,514.5 1093.3438,514.75 Q1093.9688,515 1094.5,515.5 Z " fill="#000000"/><text fill="#000000" font-family="sans-serif" font-size="12" lengthAdjust="spacing" textLength="35" x="1106.5" y="523.9102">Admin</text><line style="stroke:#A80036;stroke-width:1.5;" x1="1078.5" x2="1143.5" y1="535" y2="535"/><line style="stroke:#A80036;stroke-width:1.5;" x1="1078.5" x2="1143.5" y1="543" y2="543"/><!--MD5=[7d96fd15f3014691d2fcaf89c5791e2a]
class SpecialistDoctor--><rect codeLine="105" fill="#FEFECE" filter="url(#f1xhok2802rgml)" height="61.8359" id="SpecialistDoctor" style="stroke:#A80036;stroke-width:1.5;" width="122" x="7" y="496"/><ellipse cx="22" cy="512" fill="#ADD1B2" rx="11" ry="11" style="stroke:#A80036;stroke-width:1.0;"/><path d="M24,508.5 Q24.2031,508 24.4375,507.75 Q24.6719,507.5 24.9375,507.5 Q25.4063,507.5 25.7031,507.7813 Q26,508.0625 26,508.7188 L26,510.2813 Q26,510.9375 25.7188,511.2188 Q25.4375,511.5 25,511.5 Q24.6094,511.5 24.3594,511.3281 Q24.1094,511.1563 24,510.7031 Q23.9531,510.3906 23.7813,510.2188 Q23.4688,509.8906 22.9063,509.7031 Q22.3438,509.5 21.7813,509.5 Q21.0781,509.5 20.4844,509.7813 Q19.9063,510.0625 19.4531,510.6875 Q19,511.3125 19,512.1719 L19,513.0938 Q19,514.125 19.8438,514.8125 Q20.6875,515.5 22.1875,515.5 Q23.0781,515.5 23.7031,515.2969 Q24.0625,515.1875 24.4688,514.8281 Q24.7344,514.625 24.875,514.5625 Q25.0156,514.5 25.1875,514.5 Q25.5156,514.5 25.75,514.7656 Q26,515.0156 26,515.375 Q26,515.7188 25.6563,516.125 Q25.1563,516.7188 24.3594,517.0469 Q23.3125,517.5 22.0313,517.5 Q20.5313,517.5 19.3281,516.9063 Q18.3594,516.4375 17.6719,515.4219 Q17,514.4063 17,513.2031 L17,512.1094 Q17,510.8594 17.5938,509.7656 Q18.2031,508.6719 19.25,508.0938 Q20.3125,507.5 21.5,507.5 Q22.2188,507.5 22.8438,507.75 Q23.4688,508 24,508.5 Z " fill="#000000"/><text fill="#000000" font-family="sans-serif" font-size="12" lengthAdjust="spacing" textLength="90" x="36" y="516.9102">SpecialistDoctor</text><line style="stroke:#A80036;stroke-width:1.5;" x1="8" x2="128" y1="528" y2="528"/><rect fill="none" height="6" style="stroke:#C82930;stroke-width:1.0;" width="6" x="15" y="536"/><text fill="#000000" font-family="sans-serif" font-size="11" lengthAdjust="spacing" textLength="94" x="27" y="543.4189">doctorIndexNumber</text><line style="stroke:#A80036;stroke-width:1.5;" x1="8" x2="128" y1="549.8359" y2="549.8359"/><!--MD5=[df38be88ccee13e832d6fafd6288a4ca]
class Test--><rect codeLine="92" fill="#FEFECE" filter="url(#f1xhok2802rgml)" height="103.3438" id="Test" style="stroke:#A80036;stroke-width:1.5;" width="171" x="961.5" y="954"/><ellipse cx="1030.75" cy="970" fill="#ADD1B2" rx="11" ry="11" style="stroke:#A80036;stroke-width:1.0;"/><path d="M1032.75,966.5 Q1032.9531,966 1033.1875,965.75 Q1033.4219,965.5 1033.6875,965.5 Q1034.1563,965.5 1034.4531,965.7813 Q1034.75,966.0625 1034.75,966.7188 L1034.75,968.2813 Q1034.75,968.9375 1034.4688,969.2188 Q1034.1875,969.5 1033.75,969.5 Q1033.3594,969.5 1033.1094,969.3281 Q1032.8594,969.1563 1032.75,968.7031 Q1032.7031,968.3906 1032.5313,968.2188 Q1032.2188,967.8906 1031.6563,967.7031 Q1031.0938,967.5 1030.5313,967.5 Q1029.8281,967.5 1029.2344,967.7813 Q1028.6563,968.0625 1028.2031,968.6875 Q1027.75,969.3125 1027.75,970.1719 L1027.75,971.0938 Q1027.75,972.125 1028.5938,972.8125 Q1029.4375,973.5 1030.9375,973.5 Q1031.8281,973.5 1032.4531,973.2969 Q1032.8125,973.1875 1033.2188,972.8281 Q1033.4844,972.625 1033.625,972.5625 Q1033.7656,972.5 1033.9375,972.5 Q1034.2656,972.5 1034.5,972.7656 Q1034.75,973.0156 1034.75,973.375 Q1034.75,973.7188 1034.4063,974.125 Q1033.9063,974.7188 1033.1094,975.0469 Q1032.0625,975.5 1030.7813,975.5 Q1029.2813,975.5 1028.0781,974.9063 Q1027.1094,974.4375 1026.4219,973.4219 Q1025.75,972.4063 1025.75,971.2031 L1025.75,970.1094 Q1025.75,968.8594 1026.3438,967.7656 Q1026.9531,966.6719 1028,966.0938 Q1029.0625,965.5 1030.25,965.5 Q1030.9688,965.5 1031.5938,965.75 Q1032.2188,966 1032.75,966.5 Z " fill="#000000"/><text fill="#000000" font-family="sans-serif" font-size="12" lengthAdjust="spacing" textLength="24" x="1051.25" y="974.9102">Test</text><line style="stroke:#A80036;stroke-width:1.5;" x1="962.5" x2="1131.5" y1="986" y2="986"/><rect fill="none" height="6" style="stroke:#C82930;stroke-width:1.0;" width="6" x="969.5" y="994"/><text fill="#000000" font-family="sans-serif" font-size="11" lengthAdjust="spacing" textLength="139" x="981.5" y="1001.4189">timestampOfSampleCollected</text><rect fill="none" height="6" style="stroke:#C82930;stroke-width:1.0;" width="6" x="969.5" y="1007.8359"/><text fill="#000000" font-family="sans-serif" font-size="11" lengthAdjust="spacing" textLength="107" x="981.5" y="1015.2549">timestampOfDiagnosis</text><rect fill="none" height="6" style="stroke:#C82930;stroke-width:1.0;" width="6" x="969.5" y="1021.6719"/><text fill="#000000" font-family="sans-serif" font-size="11" lengthAdjust="spacing" textLength="145" x="981.5" y="1029.0908">timestampOfChemicalAnalysis</text><rect fill="none" height="6" style="stroke:#C82930;stroke-width:1.0;" width="6" x="969.5" y="1035.5078"/><text fill="#000000" font-family="sans-serif" font-size="11" lengthAdjust="spacing" textLength="107" x="981.5" y="1042.9268">timestampOfValidation</text><line style="stroke:#A80036;stroke-width:1.5;" x1="962.5" x2="1131.5" y1="1049.3438" y2="1049.3438"/><!--MD5=[f00dbe8c0302c6aec2cb26b3c659c8fc]
class Report--><rect codeLine="50" fill="#FEFECE" filter="url(#f1xhok2802rgml)" height="75.6719" id="Report" style="stroke:#A80036;stroke-width:1.5;" width="72" x="211" y="1156"/><ellipse cx="227.35" cy="1172" fill="#ADD1B2" rx="11" ry="11" style="stroke:#A80036;stroke-width:1.0;"/><path d="M229.35,1168.5 Q229.5531,1168 229.7875,1167.75 Q230.0219,1167.5 230.2875,1167.5 Q230.7563,1167.5 231.0531,1167.7813 Q231.35,1168.0625 231.35,1168.7188 L231.35,1170.2813 Q231.35,1170.9375 231.0688,1171.2188 Q230.7875,1171.5 230.35,1171.5 Q229.9594,1171.5 229.7094,1171.3281 Q229.4594,1171.1563 229.35,1170.7031 Q229.3031,1170.3906 229.1313,1170.2188 Q228.8188,1169.8906 228.2563,1169.7031 Q227.6938,1169.5 227.1313,1169.5 Q226.4281,1169.5 225.8344,1169.7813 Q225.2563,1170.0625 224.8031,1170.6875 Q224.35,1171.3125 224.35,1172.1719 L224.35,1173.0938 Q224.35,1174.125 225.1938,1174.8125 Q226.0375,1175.5 227.5375,1175.5 Q228.4281,1175.5 229.0531,1175.2969 Q229.4125,1175.1875 229.8188,1174.8281 Q230.0844,1174.625 230.225,1174.5625 Q230.3656,1174.5 230.5375,1174.5 Q230.8656,1174.5 231.1,1174.7656 Q231.35,1175.0156 231.35,1175.375 Q231.35,1175.7188 231.0063,1176.125 Q230.5063,1176.7188 229.7094,1177.0469 Q228.6625,1177.5 227.3813,1177.5 Q225.8813,1177.5 224.6781,1176.9063 Q223.7094,1176.4375 223.0219,1175.4219 Q222.35,1174.4063 222.35,1173.2031 L222.35,1172.1094 Q222.35,1170.8594 222.9438,1169.7656 Q223.5531,1168.6719 224.6,1168.0938 Q225.6625,1167.5 226.85,1167.5 Q227.5688,1167.5 228.1938,1167.75 Q228.8188,1168 229.35,1168.5 Z " fill="#000000"/><text fill="#000000" font-family="sans-serif" font-size="12" lengthAdjust="spacing" textLength="37" x="241.65" y="1176.9102">Report</text><line style="stroke:#A80036;stroke-width:1.5;" x1="212" x2="282" y1="1188" y2="1188"/><rect fill="none" height="6" style="stroke:#C82930;stroke-width:1.0;" width="6" x="219" y="1196"/><text fill="#000000" font-family="sans-serif" font-size="11" lengthAdjust="spacing" textLength="46" x="231" y="1203.4189">diagnosis</text><rect fill="none" height="6" style="stroke:#C82930;stroke-width:1.0;" width="6" x="219" y="1209.8359"/><text fill="#000000" font-family="sans-serif" font-size="11" lengthAdjust="spacing" textLength="33" x="231" y="1217.2549">results</text><line style="stroke:#A80036;stroke-width:1.5;" x1="212" x2="282" y1="1223.6719" y2="1223.6719"/><!--MD5=[9681492165142af2a4a3a169d90ee8d4]
class Sample--><rect codeLine="46" fill="#FEFECE" filter="url(#f1xhok2802rgml)" height="61.8359" id="Sample" style="stroke:#A80036;stroke-width:1.5;" width="75" x="468.5" y="693.5"/><ellipse cx="483.5" cy="709.5" fill="#ADD1B2" rx="11" ry="11" style="stroke:#A80036;stroke-width:1.0;"/><path d="M485.5,706 Q485.7031,705.5 485.9375,705.25 Q486.1719,705 486.4375,705 Q486.9063,705 487.2031,705.2813 Q487.5,705.5625 487.5,706.2188 L487.5,707.7813 Q487.5,708.4375 487.2188,708.7188 Q486.9375,709 486.5,709 Q486.1094,709 485.8594,708.8281 Q485.6094,708.6563 485.5,708.2031 Q485.4531,707.8906 485.2813,707.7188 Q484.9688,707.3906 484.4063,707.2031 Q483.8438,707 483.2813,707 Q482.5781,707 481.9844,707.2813 Q481.4063,707.5625 480.9531,708.1875 Q480.5,708.8125 480.5,709.6719 L480.5,710.5938 Q480.5,711.625 481.3438,712.3125 Q482.1875,713 483.6875,713 Q484.5781,713 485.2031,712.7969 Q485.5625,712.6875 485.9688,712.3281 Q486.2344,712.125 486.375,712.0625 Q486.5156,712 486.6875,712 Q487.0156,712 487.25,712.2656 Q487.5,712.5156 487.5,712.875 Q487.5,713.2188 487.1563,713.625 Q486.6563,714.2188 485.8594,714.5469 Q484.8125,715 483.5313,715 Q482.0313,715 480.8281,714.4063 Q479.8594,713.9375 479.1719,712.9219 Q478.5,711.9063 478.5,710.7031 L478.5,709.6094 Q478.5,708.3594 479.0938,707.2656 Q479.7031,706.1719 480.75,705.5938 Q481.8125,705 483,705 Q483.7188,705 484.3438,705.25 Q484.9688,705.5 485.5,706 Z " fill="#000000"/><text fill="#000000" font-family="sans-serif" font-size="12" lengthAdjust="spacing" textLength="43" x="497.5" y="714.4102">Sample</text><line style="stroke:#A80036;stroke-width:1.5;" x1="469.5" x2="542.5" y1="725.5" y2="725.5"/><rect fill="none" height="6" style="stroke:#C82930;stroke-width:1.0;" width="6" x="476.5" y="733.5"/><text fill="#000000" font-family="sans-serif" font-size="11" lengthAdjust="spacing" textLength="40" x="488.5" y="740.9189">barcode</text><line style="stroke:#A80036;stroke-width:1.5;" x1="469.5" x2="542.5" y1="747.3359" y2="747.3359"/><!--MD5=[f69a48f7b38bde3533dca6607cc4e94a]
class TypeOfTest--><rect fill="#FEFECE" filter="url(#f1xhok2802rgml)" height="48" id="TypeOfTest" style="stroke:#A80036;stroke-width:1.5;" width="94" x="1268" y="209"/><ellipse cx="1283" cy="225" fill="#ADD1B2" rx="11" ry="11" style="stroke:#A80036;stroke-width:1.0;"/><path d="M1285,221.5 Q1285.2031,221 1285.4375,220.75 Q1285.6719,220.5 1285.9375,220.5 Q1286.4063,220.5 1286.7031,220.7813 Q1287,221.0625 1287,221.7188 L1287,223.2813 Q1287,223.9375 1286.7188,224.2188 Q1286.4375,224.5 1286,224.5 Q1285.6094,224.5 1285.3594,224.3281 Q1285.1094,224.1563 1285,223.7031 Q1284.9531,223.3906 1284.7813,223.2188 Q1284.4688,222.8906 1283.9063,222.7031 Q1283.3438,222.5 1282.7813,222.5 Q1282.0781,222.5 1281.4844,222.7813 Q1280.9063,223.0625 1280.4531,223.6875 Q1280,224.3125 1280,225.1719 L1280,226.0938 Q1280,227.125 1280.8438,227.8125 Q1281.6875,228.5 1283.1875,228.5 Q1284.0781,228.5 1284.7031,228.2969 Q1285.0625,228.1875 1285.4688,227.8281 Q1285.7344,227.625 1285.875,227.5625 Q1286.0156,227.5 1286.1875,227.5 Q1286.5156,227.5 1286.75,227.7656 Q1287,228.0156 1287,228.375 Q1287,228.7188 1286.6563,229.125 Q1286.1563,229.7188 1285.3594,230.0469 Q1284.3125,230.5 1283.0313,230.5 Q1281.5313,230.5 1280.3281,229.9063 Q1279.3594,229.4375 1278.6719,228.4219 Q1278,227.4063 1278,226.2031 L1278,225.1094 Q1278,223.8594 1278.5938,222.7656 Q1279.2031,221.6719 1280.25,221.0938 Q1281.3125,220.5 1282.5,220.5 Q1283.2188,220.5 1283.8438,220.75 Q1284.4688,221 1285,221.5 Z " fill="#000000"/><text fill="#000000" font-family="sans-serif" font-size="12" lengthAdjust="spacing" textLength="62" x="1297" y="229.9102">TypeOfTest</text><line style="stroke:#A80036;stroke-width:1.5;" x1="1269" x2="1361" y1="241" y2="241"/><line style="stroke:#A80036;stroke-width:1.5;" x1="1269" x2="1361" y1="249" y2="249"/><!--MD5=[a96594a83e2ecdc78cbf17c2ddf01934]
class Category--><rect codeLine="99" fill="#FEFECE" filter="url(#f1xhok2802rgml)" height="89.5078" id="Category" style="stroke:#A80036;stroke-width:1.5;" width="86" x="1123" y="813"/><ellipse cx="1140.25" cy="829" fill="#ADD1B2" rx="11" ry="11" style="stroke:#A80036;stroke-width:1.0;"/><path d="M1142.25,825.5 Q1142.4531,825 1142.6875,824.75 Q1142.9219,824.5 1143.1875,824.5 Q1143.6563,824.5 1143.9531,824.7813 Q1144.25,825.0625 1144.25,825.7188 L1144.25,827.2813 Q1144.25,827.9375 1143.9688,828.2188 Q1143.6875,828.5 1143.25,828.5 Q1142.8594,828.5 1142.6094,828.3281 Q1142.3594,828.1563 1142.25,827.7031 Q1142.2031,827.3906 1142.0313,827.2188 Q1141.7188,826.8906 1141.1563,826.7031 Q1140.5938,826.5 1140.0313,826.5 Q1139.3281,826.5 1138.7344,826.7813 Q1138.1563,827.0625 1137.7031,827.6875 Q1137.25,828.3125 1137.25,829.1719 L1137.25,830.0938 Q1137.25,831.125 1138.0938,831.8125 Q1138.9375,832.5 1140.4375,832.5 Q1141.3281,832.5 1141.9531,832.2969 Q1142.3125,832.1875 1142.7188,831.8281 Q1142.9844,831.625 1143.125,831.5625 Q1143.2656,831.5 1143.4375,831.5 Q1143.7656,831.5 1144,831.7656 Q1144.25,832.0156 1144.25,832.375 Q1144.25,832.7188 1143.9063,833.125 Q1143.4063,833.7188 1142.6094,834.0469 Q1141.5625,834.5 1140.2813,834.5 Q1138.7813,834.5 1137.5781,833.9063 Q1136.6094,833.4375 1135.9219,832.4219 Q1135.25,831.4063 1135.25,830.2031 L1135.25,829.1094 Q1135.25,827.8594 1135.8438,826.7656 Q1136.4531,825.6719 1137.5,825.0938 Q1138.5625,824.5 1139.75,824.5 Q1140.4688,824.5 1141.0938,824.75 Q1141.7188,825 1142.25,825.5 Z " fill="#000000"/><text fill="#000000" font-family="sans-serif" font-size="12" lengthAdjust="spacing" textLength="49" x="1154.75" y="833.9102">Category</text><line style="stroke:#A80036;stroke-width:1.5;" x1="1124" x2="1208" y1="845" y2="845"/><rect fill="none" height="6" style="stroke:#C82930;stroke-width:1.0;" width="6" x="1131" y="853"/><text fill="#000000" font-family="sans-serif" font-size="11" lengthAdjust="spacing" textLength="26" x="1143" y="860.4189">nhsId</text><rect fill="none" height="6" style="stroke:#C82930;stroke-width:1.0;" width="6" x="1131" y="866.8359"/><text fill="#000000" font-family="sans-serif" font-size="11" lengthAdjust="spacing" textLength="60" x="1143" y="874.2549">internalCode</text><rect fill="none" height="6" style="stroke:#C82930;stroke-width:1.0;" width="6" x="1131" y="880.6719"/><text fill="#000000" font-family="sans-serif" font-size="11" lengthAdjust="spacing" textLength="53" x="1143" y="888.0908">description</text><line style="stroke:#A80036;stroke-width:1.5;" x1="1124" x2="1208" y1="894.5078" y2="894.5078"/><!--MD5=[1f6362a5c8f21d8d6a0fce68f3a92a4e]
class Parameter--><rect fill="#FEFECE" filter="url(#f1xhok2802rgml)" height="48" id="Parameter" style="stroke:#A80036;stroke-width:1.5;" width="90" x="1086" y="1170"/><ellipse cx="1101" cy="1186" fill="#ADD1B2" rx="11" ry="11" style="stroke:#A80036;stroke-width:1.0;"/><path d="M1103,1182.5 Q1103.2031,1182 1103.4375,1181.75 Q1103.6719,1181.5 1103.9375,1181.5 Q1104.4063,1181.5 1104.7031,1181.7813 Q1105,1182.0625 1105,1182.7188 L1105,1184.2813 Q1105,1184.9375 1104.7188,1185.2188 Q1104.4375,1185.5 1104,1185.5 Q1103.6094,1185.5 1103.3594,1185.3281 Q1103.1094,1185.1563 1103,1184.7031 Q1102.9531,1184.3906 1102.7813,1184.2188 Q1102.4688,1183.8906 1101.9063,1183.7031 Q1101.3438,1183.5 1100.7813,1183.5 Q1100.0781,1183.5 1099.4844,1183.7813 Q1098.9063,1184.0625 1098.4531,1184.6875 Q1098,1185.3125 1098,1186.1719 L1098,1187.0938 Q1098,1188.125 1098.8438,1188.8125 Q1099.6875,1189.5 1101.1875,1189.5 Q1102.0781,1189.5 1102.7031,1189.2969 Q1103.0625,1189.1875 1103.4688,1188.8281 Q1103.7344,1188.625 1103.875,1188.5625 Q1104.0156,1188.5 1104.1875,1188.5 Q1104.5156,1188.5 1104.75,1188.7656 Q1105,1189.0156 1105,1189.375 Q1105,1189.7188 1104.6563,1190.125 Q1104.1563,1190.7188 1103.3594,1191.0469 Q1102.3125,1191.5 1101.0313,1191.5 Q1099.5313,1191.5 1098.3281,1190.9063 Q1097.3594,1190.4375 1096.6719,1189.4219 Q1096,1188.4063 1096,1187.2031 L1096,1186.1094 Q1096,1184.8594 1096.5938,1183.7656 Q1097.2031,1182.6719 1098.25,1182.0938 Q1099.3125,1181.5 1100.5,1181.5 Q1101.2188,1181.5 1101.8438,1181.75 Q1102.4688,1182 1103,1182.5 Z " fill="#000000"/><text fill="#000000" font-family="sans-serif" font-size="12" lengthAdjust="spacing" textLength="58" x="1115" y="1190.9102">Parameter</text><line style="stroke:#A80036;stroke-width:1.5;" x1="1087" x2="1175" y1="1202" y2="1202"/><line style="stroke:#A80036;stroke-width:1.5;" x1="1087" x2="1175" y1="1210" y2="1210"/><!--MD5=[2741598bdf59a7d7e0d5c97658fd3022]
class Result--><rect codeLine="109" fill="#FEFECE" filter="url(#f1xhok2802rgml)" height="61.8359" id="Result" style="stroke:#A80036;stroke-width:1.5;" width="68" x="961" y="14"/><ellipse cx="976" cy="30" fill="#ADD1B2" rx="11" ry="11" style="stroke:#A80036;stroke-width:1.0;"/><path d="M978,26.5 Q978.2031,26 978.4375,25.75 Q978.6719,25.5 978.9375,25.5 Q979.4063,25.5 979.7031,25.7813 Q980,26.0625 980,26.7188 L980,28.2813 Q980,28.9375 979.7188,29.2188 Q979.4375,29.5 979,29.5 Q978.6094,29.5 978.3594,29.3281 Q978.1094,29.1563 978,28.7031 Q977.9531,28.3906 977.7813,28.2188 Q977.4688,27.8906 976.9063,27.7031 Q976.3438,27.5 975.7813,27.5 Q975.0781,27.5 974.4844,27.7813 Q973.9063,28.0625 973.4531,28.6875 Q973,29.3125 973,30.1719 L973,31.0938 Q973,32.125 973.8438,32.8125 Q974.6875,33.5 976.1875,33.5 Q977.0781,33.5 977.7031,33.2969 Q978.0625,33.1875 978.4688,32.8281 Q978.7344,32.625 978.875,32.5625 Q979.0156,32.5 979.1875,32.5 Q979.5156,32.5 979.75,32.7656 Q980,33.0156 980,33.375 Q980,33.7188 979.6563,34.125 Q979.1563,34.7188 978.3594,35.0469 Q977.3125,35.5 976.0313,35.5 Q974.5313,35.5 973.3281,34.9063 Q972.3594,34.4375 971.6719,33.4219 Q971,32.4063 971,31.2031 L971,30.1094 Q971,28.8594 971.5938,27.7656 Q972.2031,26.6719 973.25,26.0938 Q974.3125,25.5 975.5,25.5 Q976.2188,25.5 976.8438,25.75 Q977.4688,26 978,26.5 Z " fill="#000000"/><text fill="#000000" font-family="sans-serif" font-size="12" lengthAdjust="spacing" textLength="36" x="990" y="34.9102">Result</text><line style="stroke:#A80036;stroke-width:1.5;" x1="962" x2="1028" y1="46" y2="46"/><text fill="#000000" font-family="sans-serif" font-size="11" lengthAdjust="spacing" textLength="4" x="967" y="61.4189">-</text><line style="stroke:#A80036;stroke-width:1.5;" x1="962" x2="1028" y1="67.8359" y2="67.8359"/><!--MD5=[09366576ee87d48d594df10cacc83f45]
link Company to Employee--><path codeLine="5" d="M840.45,56.92 C805.98,67.28 757.49,85.41 722,113 C665.6,156.85 630.74,232.51 611.7,286.87 " fill="none" id="Company-Employee" style="stroke:#A80036;stroke-width:1.0;"/><polygon fill="#000000" points="675.4737,173.7206,683.9364,169.3807,679.7693,165.2353,675.4737,173.7206" style="stroke:#000000;stroke-width:1.0;"/><text fill="#000000" font-family="sans-serif" font-size="13" lengthAdjust="spacing" textLength="21" x="688" y="175.4951">has</text><text fill="#000000" font-family="sans-serif" font-size="13" lengthAdjust="spacing" textLength="7" x="825.5352" y="73.8973">1</text><text fill="#000000" font-family="sans-serif" font-size="13" lengthAdjust="spacing" textLength="20" x="592.6516" y="276.3302">1..*</text><!--MD5=[6eee883fdf517d3604e8bd0f2058e9aa]
link Company to Client--><path codeLine="6" d="M925.77,74.52 C964.98,102.27 1017,143.82 1017,169 C1017,169 1017,169 1017,613 C1017,745.09 1006.71,782.78 952,903 C945.2,917.95 936.09,932.96 926.64,946.69 " fill="none" id="Company-Client" style="stroke:#A80036;stroke-width:1.0;"/><polygon fill="#000000" points="1022.005,462.1758,1024.9349,453.1278,1019.057,453.1336,1022.005,462.1758" style="stroke:#000000;stroke-width:1.0;"/><text fill="#000000" font-family="sans-serif" font-size="13" lengthAdjust="spacing" textLength="21" x="1031" y="462.4951">has</text><text fill="#000000" font-family="sans-serif" font-size="13" lengthAdjust="spacing" textLength="7" x="933.4335" y="94.2857">1</text><text fill="#000000" font-family="sans-serif" font-size="13" lengthAdjust="spacing" textLength="5" x="934.4717" y="933.5771">*</text><!--MD5=[14425c86e1e95c36a97a680926c42ff4]
link Company to ClinicalAnalysisLab--><path codeLine="7" d="M840.29,63.52 C800.73,82.91 748,118.27 748,169 C748,169 748,169 748,528 C748,578.22 721.68,628.63 696.18,665.68 " fill="none" id="Company-ClinicalAnalysisLab" style="stroke:#A80036;stroke-width:1.0;"/><polygon fill="#000000" points="751.8363,357.5385,756.7997,349.4258,751.0833,348.0578,751.8363,357.5385" style="stroke:#000000;stroke-width:1.0;"/><text fill="#000000" font-family="sans-serif" font-size="13" lengthAdjust="spacing" textLength="21" x="762" y="357.9951">has</text><text fill="#000000" font-family="sans-serif" font-size="13" lengthAdjust="spacing" textLength="7" x="825.6365" y="62.8138">1</text><text fill="#000000" font-family="sans-serif" font-size="13" lengthAdjust="spacing" textLength="20" x="680.7113" y="655.0419">1..*</text><!--MD5=[aec61b37063dcc4feef1443d9e69d5e6]
link MedicalLabTechnician to ClinicalAnalysisLab--><path codeLine="8" d="M605.85,551.07 C611.49,562 617.77,575.38 622,588 C630.39,613.02 636.55,641.55 640.85,665.96 " fill="none" id="MedicalLabTechnician-ClinicalAnalysisLab" style="stroke:#A80036;stroke-width:1.0;"/><polygon fill="#000000" points="640.4571,616.9588,640.6326,607.4498,635.0098,609.1627,640.4571,616.9588" style="stroke:#000000;stroke-width:1.0;"/><text fill="#000000" font-family="sans-serif" font-size="13" lengthAdjust="spacing" textLength="49" x="648" y="617.4951">works at</text><text fill="#000000" font-family="sans-serif" font-size="13" lengthAdjust="spacing" textLength="5" x="603.3728" y="572.425">*</text><text fill="#000000" font-family="sans-serif" font-size="13" lengthAdjust="spacing" textLength="7" x="632.3573" y="654.9407">1</text><!--MD5=[7d30f8f3abaed36f92dd290c34044a79]
link Receptionist to TestRequest--><path codeLine="9" d="M859.12,551.19 C869.36,584.57 888.37,646.5 900.59,686.31 " fill="none" id="Receptionist-TestRequest" style="stroke:#A80036;stroke-width:1.0;"/><polygon fill="#000000" points="889.467,616.9557,889.6227,607.4464,884.0036,609.171,889.467,616.9557" style="stroke:#000000;stroke-width:1.0;"/><text fill="#000000" font-family="sans-serif" font-size="13" lengthAdjust="spacing" textLength="70" x="897" y="617.4951">register new</text><text fill="#000000" font-family="sans-serif" font-size="13" lengthAdjust="spacing" textLength="7" x="853.0024" y="572.5743">1</text><text fill="#000000" font-family="sans-serif" font-size="13" lengthAdjust="spacing" textLength="5" x="893.1123" y="675.6381">*</text><!--MD5=[b371c21dc35e87865816b4144f976f0b]
link Headquarter to ChemicalLab--><path codeLine="10" d="M182,76.33 C182,101.22 182,137.4 182,169 C182,169 182,169 182,613 C182,717.59 261.79,718.22 306,813 C327.45,858.99 344.81,914.32 355.84,953.65 " fill="none" id="Headquarter-ChemicalLab" style="stroke:#A80036;stroke-width:1.0;"/><polygon fill="#000000" points="187.9718,462.0804,189.0966,452.6366,183.3309,453.7791,187.9718,462.0804" style="stroke:#000000;stroke-width:1.0;"/><text fill="#000000" font-family="sans-serif" font-size="13" lengthAdjust="spacing" textLength="21" x="196" y="462.4951">has</text><text fill="#000000" font-family="sans-serif" font-size="13" lengthAdjust="spacing" textLength="7" x="174.3328" y="97.3715">1</text><text fill="#000000" font-family="sans-serif" font-size="13" lengthAdjust="spacing" textLength="7" x="346.6013" y="943.1033">1</text><!--MD5=[9306df86dca3d9e396adff2530aacab7]
link Headquarter to Company--><path codeLine="11" d="M232.7,45 C364.79,45 717.76,45 840.35,45 " fill="none" id="Headquarter-Company" style="stroke:#A80036;stroke-width:1.0;"/><polygon fill="#000000" points="514,33.1758,523.0451,36.1147,523.0451,30.2369,514,33.1758" style="stroke:#000000;stroke-width:1.0;"/><text fill="#000000" font-family="sans-serif" font-size="13" lengthAdjust="spacing" textLength="30" x="528" y="38.4951">owns</text><text fill="#000000" font-family="sans-serif" font-size="13" lengthAdjust="spacing" textLength="7" x="240.6606" y="41.358">1</text><text fill="#000000" font-family="sans-serif" font-size="13" lengthAdjust="spacing" textLength="7" x="825.418" y="41.1785">1</text><!--MD5=[6a35157f4c730bda767e7c9f1b8b7f73]
link Receptionist to Client--><path codeLine="12" d="M841.86,551.37 C830.74,578.37 813.61,624.44 807,666 C790.46,770.04 778.34,802.84 811,903 C816.09,918.6 824.35,934 833.43,947.9 " fill="none" id="Receptionist-Client" style="stroke:#A80036;stroke-width:1.0;"/><polygon fill="#000000" points="811.8937,729.6747,815.0242,720.6941,809.1477,720.5691,811.8937,729.6747" style="stroke:#000000;stroke-width:1.0;"/><text fill="#000000" font-family="sans-serif" font-size="13" lengthAdjust="spacing" textLength="21" x="821" y="729.9951">add</text><text fill="#000000" font-family="sans-serif" font-size="13" lengthAdjust="spacing" textLength="20" x="817.2026" y="572.3913">1..*</text><text fill="#000000" font-family="sans-serif" font-size="13" lengthAdjust="spacing" textLength="5" x="820.6095" y="934.98">*</text><!--MD5=[8c76900db13228c02bafda6909b4bb57]
reverse link Employee to MedicalLabTechnician--><path codeLine="13" d="M593,438.39 C593,462.09 593,485.93 593,502.75 " fill="none" id="Employee-backto-MedicalLabTechnician" style="stroke:#A80036;stroke-width:1.0;"/><polygon fill="none" points="586,438.22,593,418.22,600,438.22,586,438.22" style="stroke:#A80036;stroke-width:1.0;"/><!--MD5=[4c7c52c4bf7e982cdae6fb6daeda4b43]
reverse link Employee to ClinicalChemistryTechnologist--><path codeLine="14" d="M538,434.75 C524.74,454.68 510.73,476.02 498,496 C477.9,527.54 455.58,564.57 441.67,587.92 " fill="none" id="Employee-backto-ClinicalChemistryTechnologist" style="stroke:#A80036;stroke-width:1.0;"/><polygon fill="none" points="532.23,430.78,549.16,418.04,543.87,438.56,532.23,430.78" style="stroke:#A80036;stroke-width:1.0;"/><!--MD5=[bfff716514ca687b645fe473c6e098a4]
reverse link Employee to Receptionist--><path codeLine="15" d="M656.36,395.7 C707.09,429.48 776.31,475.59 817.37,502.93 " fill="none" id="Employee-backto-Receptionist" style="stroke:#A80036;stroke-width:1.0;"/><polygon fill="none" points="652.37,401.45,639.6,384.54,660.13,389.8,652.37,401.45" style="stroke:#A80036;stroke-width:1.0;"/><!--MD5=[4cbb49bc85e2ab987c72a0867e9e1f75]
reverse link Employee to LabCoordinator--><path codeLine="16" d="M530.43,402.47 C459.45,458.03 346.66,546.3 293.53,587.89 " fill="none" id="Employee-backto-LabCoordinator" style="stroke:#A80036;stroke-width:1.0;"/><polygon fill="none" points="526.15,396.93,546.21,390.12,534.78,407.96,526.15,396.93" style="stroke:#A80036;stroke-width:1.0;"/><!--MD5=[6e3b9fc76a32d9309eb453fa3b67d6a7]
reverse link Employee to Admin--><path codeLine="17" d="M657.28,396.86 C672.37,405.21 688.79,412.93 705,418 C780.77,441.71 993,407.02 1061,448 C1081.53,460.37 1095.1,484.77 1102.86,503 " fill="none" id="Employee-backto-Admin" style="stroke:#A80036;stroke-width:1.0;"/><polygon fill="none" points="653.34,402.67,639.64,386.5,660.43,390.6,653.34,402.67" style="stroke:#A80036;stroke-width:1.0;"/><!--MD5=[372bd27a178b4208a6d241b4516ac7e6]
reverse link Employee to SpecialistDoctor--><path codeLine="18" d="M527.24,375.11 C424.85,408.75 228.79,473.17 129.24,505.88 " fill="none" id="Employee-backto-SpecialistDoctor" style="stroke:#A80036;stroke-width:1.0;"/><polygon fill="none" points="525.22,368.4,546.41,368.81,529.59,381.7,525.22,368.4" style="stroke:#A80036;stroke-width:1.0;"/><!--MD5=[cdd20ac1d186716af46e8af7bcea5da1]
link ClinicalChemistryTechnologist to ChemicalLab--><path codeLine="19" d="M405.18,636.17 C398.05,644.83 391.01,655.2 387,666 C351.02,762.81 355.92,885.97 362.55,953.86 " fill="none" id="ClinicalChemistryTechnologist-ChemicalLab" style="stroke:#A80036;stroke-width:1.0;"/><polygon fill="#000000" points="391.335,729.6314,395.4508,721.0575,389.6252,720.2758,391.335,729.6314" style="stroke:#000000;stroke-width:1.0;"/><text fill="#000000" font-family="sans-serif" font-size="13" lengthAdjust="spacing" textLength="49" x="401" y="729.9951">works at</text><text fill="#000000" font-family="sans-serif" font-size="13" lengthAdjust="spacing" textLength="5" x="394.0083" y="657.5494">*</text><text fill="#000000" font-family="sans-serif" font-size="13" lengthAdjust="spacing" textLength="7" x="362.1352" y="942.9688">1</text><!--MD5=[72163acd41df4db10e2bb78c0e4b52d4]
link Test to Report--><path codeLine="20" d="M983.29,1057.09 C970.81,1065.12 957.42,1072.56 944,1078 C705.32,1174.76 389.2,1190.16 283.31,1192.57 " fill="none" id="Test-Report" style="stroke:#A80036;stroke-width:1.0;"/><polygon fill="#000000" points="853.0911,1118.1259,862.5298,1119.2925,861.4129,1113.5217,853.0911,1118.1259" style="stroke:#000000;stroke-width:1.0;"/><text fill="#000000" font-family="sans-serif" font-size="13" lengthAdjust="spacing" textLength="21" x="867" y="1122.4951">has</text><text fill="#000000" font-family="sans-serif" font-size="13" lengthAdjust="spacing" textLength="7" x="966.8386" y="1078.9655">1</text><text fill="#000000" font-family="sans-serif" font-size="13" lengthAdjust="spacing" textLength="7" x="290.8988" y="1188.3323">1</text><!--MD5=[0a29b4543c1af9e8341b856b8b8ec05c]
link MedicalLabTechnician to Sample--><path codeLine="21" d="M579.97,551.08 C573.92,562.11 566.81,575.6 561,588 C544.37,623.53 527.78,665.52 517.24,693.24 " fill="none" id="MedicalLabTechnician-Sample" style="stroke:#A80036;stroke-width:1.0;"/><polygon fill="#000000" points="563.9815,616.7502,570.3218,609.6614,564.9442,607.2885,563.9815,616.7502" style="stroke:#000000;stroke-width:1.0;"/><text fill="#000000" font-family="sans-serif" font-size="13" lengthAdjust="spacing" textLength="38" x="575" y="617.4951">collect</text><text fill="#000000" font-family="sans-serif" font-size="13" lengthAdjust="spacing" textLength="7" x="568.9408" y="572.4375">1</text><text fill="#000000" font-family="sans-serif" font-size="13" lengthAdjust="spacing" textLength="5" x="514.0426" y="682.6909">*</text><!--MD5=[1ae83efc6d1967ce5bc17dfe294d00c2]
link Sample to Test--><path codeLine="22" d="M531.04,755.68 C540.08,765.29 550.83,775.39 562,783 C675.93,860.6 718.51,855.72 848,903 C889.99,918.33 903.84,913.36 944,933 C956.22,938.98 968.62,946.3 980.37,953.95 " fill="none" id="Sample-Test" style="stroke:#A80036;stroke-width:1.0;"/><polygon fill="#000000" points="848.4255,856.1573,855.5144,862.4976,857.8873,857.12,848.4255,856.1573" style="stroke:#000000;stroke-width:1.0;"/><text fill="#000000" font-family="sans-serif" font-size="13" lengthAdjust="spacing" textLength="21" x="862" y="863.4951">has</text><text fill="#000000" font-family="sans-serif" font-size="13" lengthAdjust="spacing" textLength="7" x="528.2807" y="776.9394">1</text><text fill="#000000" font-family="sans-serif" font-size="13" lengthAdjust="spacing" textLength="7" x="963.508" y="943.0714">1</text><!--MD5=[147acf42fe9475025d9b6f56a55be7cf]
link Company to TypeOfTest--><path codeLine="23" d="M925.83,75.18 C931.74,78.24 937.89,80.97 944,83 C1010.53,105.07 1200.53,72.86 1258,113 C1290.11,135.43 1304.76,180.99 1310.94,208.77 " fill="none" id="Company-TypeOfTest" style="stroke:#A80036;stroke-width:1.0;"/><polygon fill="#000000" points="1285.7239,123.8144,1278.1415,118.0735,1276.2151,123.6267,1285.7239,123.8144" style="stroke:#000000;stroke-width:1.0;"/><text fill="#000000" font-family="sans-serif" font-size="13" lengthAdjust="spacing" textLength="46" x="1290" y="127.4951">conduct</text><text fill="#000000" font-family="sans-serif" font-size="13" lengthAdjust="spacing" textLength="7" x="933.3329" y="102.8793">1</text><text fill="#000000" font-family="sans-serif" font-size="13" lengthAdjust="spacing" textLength="20" x="1287.3371" y="198.0512">1..*</text><!--MD5=[7e4bc624457760b649895ff2ead938fa]
link Company to Test--><path codeLine="24" d="M925.58,73.69 C931.64,77.07 937.89,80.29 944,83 C1066.1,137.19 1232,35.42 1232,169 C1232,169 1232,169 1232,725.5 C1232,804.99 1252.8,836.01 1210,903 C1199.81,918.94 1166.62,940.7 1132.82,959.98 " fill="none" id="Company-Test" style="stroke:#A80036;stroke-width:1.0;"/><polygon fill="#000000" points="1238.1384,462.0445,1238.9407,452.5678,1233.2173,453.9061,1238.1384,462.0445" style="stroke:#000000;stroke-width:1.0;"/><text fill="#000000" font-family="sans-serif" font-size="13" lengthAdjust="spacing" textLength="43" x="1246" y="462.4951">perform</text><text fill="#000000" font-family="sans-serif" font-size="13" lengthAdjust="spacing" textLength="7" x="933.5" y="74.7996">1</text><text fill="#000000" font-family="sans-serif" font-size="13" lengthAdjust="spacing" textLength="5" x="1140.41" y="952.8761">*</text><!--MD5=[eb5d020da4a8abda6c8fee8c17e543d5]
link TestRequest to Client--><path codeLine="25" d="M907.75,762.55 C902.79,805.83 894.46,878.44 888.22,932.85 " fill="none" id="TestRequest-Client" style="stroke:#A80036;stroke-width:1.0;"/><polygon fill="#000000" points="906.5697,853.2083,902.6193,861.8597,908.4589,862.5294,906.5697,853.2083" style="stroke:#000000;stroke-width:1.0;"/><text fill="#000000" font-family="sans-serif" font-size="13" lengthAdjust="spacing" textLength="28" x="915" y="863.4951">does</text><text fill="#000000" font-family="sans-serif" font-size="13" lengthAdjust="spacing" textLength="20" x="885.3898" y="783.7284">1..*</text><text fill="#000000" font-family="sans-serif" font-size="13" lengthAdjust="spacing" textLength="7" x="881.7068" y="922.0539">1</text><!--MD5=[35c5d5b78cc27fdb07caaeeaa436e174]
link SpecialistDoctor to Report--><path codeLine="26" d="M76.16,558.3 C105.39,666.92 204.91,1036.64 236.96,1155.72 " fill="none" id="SpecialistDoctor-Report" style="stroke:#A80036;stroke-width:1.0;"/><polygon fill="#000000" points="174.2995,863.0039,174.7866,853.5059,169.1107,855.0336,174.2995,863.0039" style="stroke:#000000;stroke-width:1.0;"/><text fill="#000000" font-family="sans-serif" font-size="13" lengthAdjust="spacing" textLength="27" x="182" y="863.4951">write</text><text fill="#000000" font-family="sans-serif" font-size="13" lengthAdjust="spacing" textLength="7" x="70.0483" y="579.3358">1</text><text fill="#000000" font-family="sans-serif" font-size="13" lengthAdjust="spacing" textLength="5" x="229.7263" y="1145.032">*</text><!--MD5=[2ded9192613987fa000e760ddf3204eb]
link SpecialistDoctor to Headquarter--><path codeLine="27" d="M66.09,495.96 C63.36,438.75 61.62,310.81 92,209 C106.88,159.13 138.64,107.52 160.17,76.08 " fill="none" id="SpecialistDoctor-Headquarter" style="stroke:#A80036;stroke-width:1.0;"/><polygon fill="#000000" points="98.0932,228.2968,93.2478,236.4804,98.9834,237.7656,98.0932,228.2968" style="stroke:#000000;stroke-width:1.0;"/><text fill="#000000" font-family="sans-serif" font-size="13" lengthAdjust="spacing" textLength="49" x="106" y="238.4951">works at</text><text fill="#000000" font-family="sans-serif" font-size="13" lengthAdjust="spacing" textLength="20" x="43.4847" y="484.9715">1..*</text><text fill="#000000" font-family="sans-serif" font-size="13" lengthAdjust="spacing" textLength="7" x="148.1832" y="97.3197">1</text><!--MD5=[c45432859f1f1ff7ddc1c460e047abcd]
link Sample to ChemicalLab--><path codeLine="28" d="M491.21,755.62 C467.89,803.11 422.32,895.9 393.9,953.79 " fill="none" id="Sample-ChemicalLab" style="stroke:#A80036;stroke-width:1.0;"/><polygon fill="#000000" points="468.2039,853.6877,461.579,860.5113,466.8551,863.1021,468.2039,853.6877" style="stroke:#000000;stroke-width:1.0;"/><text fill="#000000" font-family="sans-serif" font-size="13" lengthAdjust="spacing" textLength="30" x="475" y="863.4951">owns</text><text fill="#000000" font-family="sans-serif" font-size="13" lengthAdjust="spacing" textLength="5" x="482.806" y="776.8676">*</text><text fill="#000000" font-family="sans-serif" font-size="13" lengthAdjust="spacing" textLength="7" x="389.7756" y="943.2621">1</text><!--MD5=[816217ef3f85df4b873a3bf15588a55e]
link LabCoordinator to Report--><path codeLine="29" d="M263.32,636.09 C260.72,725.01 251.32,1045.68 248.09,1155.67 " fill="none" id="LabCoordinator-Report" style="stroke:#A80036;stroke-width:1.0;"/><polygon fill="#000000" points="262.8535,863.1736,266.0562,854.2185,260.1809,854.0463,262.8535,863.1736" style="stroke:#000000;stroke-width:1.0;"/><text fill="#000000" font-family="sans-serif" font-size="13" lengthAdjust="spacing" textLength="43" x="272" y="863.4951">validate</text><text fill="#000000" font-family="sans-serif" font-size="13" lengthAdjust="spacing" textLength="7" x="255.3011" y="657.4499">1</text><text fill="#000000" font-family="sans-serif" font-size="13" lengthAdjust="spacing" textLength="5" x="242.8477" y="1145.2606">*</text><!--MD5=[97a6250f97b3c184d5748e963b8476dd]
link TestRequest to Test--><path codeLine="30" d="M929.93,762.55 C953.7,811.69 995.77,898.62 1022.47,953.81 " fill="none" id="TestRequest-Test" style="stroke:#A80036;stroke-width:1.0;"/><polygon fill="#000000" points="1002.1777,862.6766,1000.8837,853.2545,995.5927,855.8145,1002.1777,862.6766" style="stroke:#000000;stroke-width:1.0;"/><text fill="#000000" font-family="sans-serif" font-size="13" lengthAdjust="spacing" textLength="56" x="1009" y="863.4951">originates</text><text fill="#000000" font-family="sans-serif" font-size="13" lengthAdjust="spacing" textLength="7" x="925.32" y="783.7284">1</text><text fill="#000000" font-family="sans-serif" font-size="13" lengthAdjust="spacing" textLength="7" x="1011.7035" y="943.2848">1</text><!--MD5=[931ad38b9a68f32f6de86a1f4d14d251]
link TypeOfTest to Test--><path codeLine="31" d="M1315.86,257.01 C1317.29,297.31 1320,383.33 1320,456 C1320,456 1320,456 1320,725.5 C1320,809.06 1316.53,843.36 1258,903 C1231.11,930.4 1211.91,917.04 1177,933 C1162.48,939.64 1147.36,947.26 1132.8,954.99 " fill="none" id="TypeOfTest-Test" style="stroke:#A80036;stroke-width:1.0;"/><polygon fill="#000000" points="1326.2685,522.3394,1321.131,530.343,1326.8166,531.8341,1326.2685,522.3394" style="stroke:#000000;stroke-width:1.0;"/><text fill="#000000" font-family="sans-serif" font-size="13" lengthAdjust="spacing" textLength="21" x="1334" y="532.4951">has</text><text fill="#000000" font-family="sans-serif" font-size="13" lengthAdjust="spacing" textLength="7" x="1308.2165" y="278.3504">1</text><text fill="#000000" font-family="sans-serif" font-size="13" lengthAdjust="spacing" textLength="7" x="1138.9166" y="943.1607">1</text><!--MD5=[e1157d990c71223888f6eba0861fc13e]
link Admin to Category--><path codeLine="32" d="M1114.55,551.19 C1117.93,573.07 1123.19,606.78 1128,636 C1138.09,697.27 1150.36,767.98 1158.17,812.58 " fill="none" id="Admin-Category" style="stroke:#A80036;stroke-width:1.0;"/><polygon fill="#000000" points="1133.823,617.1076,1135.233,607.7021,1129.4353,608.6696,1133.823,617.1076" style="stroke:#000000;stroke-width:1.0;"/><text fill="#000000" font-family="sans-serif" font-size="13" lengthAdjust="spacing" textLength="63" x="1142" y="617.4951">create new</text><text fill="#000000" font-family="sans-serif" font-size="13" lengthAdjust="spacing" textLength="20" x="1092.9778" y="572.5743">1..*</text><text fill="#000000" font-family="sans-serif" font-size="13" lengthAdjust="spacing" textLength="5" x="1151.6528" y="802.291">*</text><!--MD5=[9e2b536d5f14dafa66c4d5113ebdcad2]
link Category to Parameter--><path codeLine="33" d="M1178.25,903.31 C1191.01,957.38 1205.94,1050.87 1181,1126 C1175.6,1142.25 1164.56,1157.76 1154.22,1169.75 " fill="none" id="Category-Parameter" style="stroke:#A80036;stroke-width:1.0;"/><polygon fill="#000000" points="1199.4491,1000.696,1195.7096,1009.4405,1201.5637,1009.9685,1199.4491,1000.696" style="stroke:#000000;stroke-width:1.0;"/><text fill="#000000" font-family="sans-serif" font-size="13" lengthAdjust="spacing" textLength="93" x="1208" y="1010.9951">presented under</text><text fill="#000000" font-family="sans-serif" font-size="13" lengthAdjust="spacing" textLength="7" x="1172.4258" y="924.0253">1</text><text fill="#000000" font-family="sans-serif" font-size="13" lengthAdjust="spacing" textLength="5" x="1154.5295" y="1159.0261">*</text><!--MD5=[c23963f6e403fc3ebec8dae22c30ade6]
link Test to Parameter--><path codeLine="34" d="M1050.54,1057.02 C1053.62,1079.1 1059.36,1104.75 1070,1126 C1078.24,1142.46 1091.69,1157.87 1103.87,1169.75 " fill="none" id="Test-Parameter" style="stroke:#A80036;stroke-width:1.0;"/><polygon fill="#000000" points="1077.1382,1121.6955,1075.9268,1112.2624,1070.6135,1114.776,1077.1382,1121.6955" style="stroke:#000000;stroke-width:1.0;"/><text fill="#000000" font-family="sans-serif" font-size="13" lengthAdjust="spacing" textLength="92" x="1084" y="1122.4951">need to analyse</text><text fill="#000000" font-family="sans-serif" font-size="13" lengthAdjust="spacing" textLength="7" x="1043.5456" y="1078.8857">1</text><text fill="#000000" font-family="sans-serif" font-size="13" lengthAdjust="spacing" textLength="20" x="1074.3554" y="1159.0261">1..*</text><!--MD5=[0256c3dfcfba030ecd2edf3ee14d3b76]
@startuml
'https://plantuml.com/sequence-diagram

top to bottom direction

Company"1" - - - "1..*"Employee : > has
Company"1" - - "*"Client : > has
Company"1" - - "1..*"ClinicalAnalysisLab : > has
MedicalLabTechnician"*" - - "1"ClinicalAnalysisLab : > works at
Receptionist"1" - - "*"TestRequest : > register new
Headquarter"1" - - "1"ChemicalLab : > has
Company"1" -left- "1"Headquarter : > owns
Receptionist"1..*" - - "*"Client : > add
Employee <|- - MedicalLabTechnician
Employee <|- - ClinicalChemistryTechnologist
Employee <|- - Receptionist
Employee <|- - LabCoordinator
Employee <|- - Admin
Employee <|- - SpecialistDoctor
ClinicalChemistryTechnologist"*" - - "1"ChemicalLab : > works at
Test"1" - - "1"Report : > has
MedicalLabTechnician"1" - - "*"Sample : > collect
Sample"1" -right- "1"Test : < has
Company"1" - - "1..*"TypeOfTest : > conduct
Company"1" - - "*"Test : > perform
TestRequest"1..*" - - "1""Client" : < does
SpecialistDoctor"1" - - "*"Report : > write
SpecialistDoctor"1..*" - - "1"Headquarter : > works at
Sample"*" - - "1"ChemicalLab : < owns
LabCoordinator"1" - - "*"Report : > validate
TestRequest"1" - - "1"Test : > originates
TypeOfTest"1" - - "1""Test" : < has
Admin"1..*" - - "*"Category : > create new
Category"1" - - "*"Parameter : < presented under
Test"1" - - "1..*"Parameter : > need to analyse

class Client{
-nhsNumber
-name
-tinNumber
-birthDate
-sex
-phoneNumber
-email
}

class Sample{
-barcode
}

class Report{
-diagnosis
-results
}

class Employee{
-employeeID
-name
-address
-socCode
-phoneNumber
-email
}

class ClinicalAnalysisLab{
-labId
-name
-address
-phoneNumber
-tinNumber
}
class ChemicalLab{
-name
-address
-phoneNumber
-tinNumber
}

class TestRequest{
-requestDate
-testType
}

class Company{
-name
-location
}

class Headquarter{
-location
}

class Test{
-timestampOfSampleCollected
-timestampOfDiagnosis
-timestampOfChemicalAnalysis
-timestampOfValidation
}

class Category{
-nhsId
-internalCode
-description
}

class SpecialistDoctor{
-doctorIndexNumber
}

class Result{
-
}


@enduml

@startuml

top to bottom direction

Company"1" - - - "1..*"Employee : > has
Company"1" - - "*"Client : > has
Company"1" - - "1..*"ClinicalAnalysisLab : > has
MedicalLabTechnician"*" - - "1"ClinicalAnalysisLab : > works at
Receptionist"1" - - "*"TestRequest : > register new
Headquarter"1" - - "1"ChemicalLab : > has
Company"1" -left- "1"Headquarter : > owns
Receptionist"1..*" - - "*"Client : > add
Employee <|- - MedicalLabTechnician
Employee <|- - ClinicalChemistryTechnologist
Employee <|- - Receptionist
Employee <|- - LabCoordinator
Employee <|- - Admin
Employee <|- - SpecialistDoctor
ClinicalChemistryTechnologist"*" - - "1"ChemicalLab : > works at
Test"1" - - "1"Report : > has
MedicalLabTechnician"1" - - "*"Sample : > collect
Sample"1" -right- "1"Test : < has
Company"1" - - "1..*"TypeOfTest : > conduct
Company"1" - - "*"Test : > perform
TestRequest"1..*" - - "1""Client" : < does
SpecialistDoctor"1" - - "*"Report : > write
SpecialistDoctor"1..*" - - "1"Headquarter : > works at
Sample"*" - - "1"ChemicalLab : < owns
LabCoordinator"1" - - "*"Report : > validate
TestRequest"1" - - "1"Test : > originates
TypeOfTest"1" - - "1""Test" : < has
Admin"1..*" - - "*"Category : > create new
Category"1" - - "*"Parameter : < presented under
Test"1" - - "1..*"Parameter : > need to analyse

class Client{
-nhsNumber
-name
-tinNumber
-birthDate
-sex
-phoneNumber
-email
}

class Sample{
-barcode
}

class Report{
-diagnosis
-results
}

class Employee{
-employeeID
-name
-address
-socCode
-phoneNumber
-email
}

class ClinicalAnalysisLab{
-labId
-name
-address
-phoneNumber
-tinNumber
}
class ChemicalLab{
-name
-address
-phoneNumber
-tinNumber
}

class TestRequest{
-requestDate
-testType
}

class Company{
-name
-location
}

class Headquarter{
-location
}

class Test{
-timestampOfSampleCollected
-timestampOfDiagnosis
-timestampOfChemicalAnalysis
-timestampOfValidation
}

class Category{
-nhsId
-internalCode
-description
}

class SpecialistDoctor{
-doctorIndexNumber
}

class Result{
-
}


@enduml

PlantUML version 1.2021.5(Sun Apr 25 12:20:28 BST 2021)
(GPL source distribution)
Java Runtime: OpenJDK Runtime Environment
JVM: Dynamic Code Evolution 64-Bit Server VM
Default Encoding: Cp1252
Language: pt
Country: PT
--></g></svg>