<?xml version="1.0" encoding="UTF-8" standalone="no"?><svg xmlns="http://www.w3.org/2000/svg" xmlns:xlink="http://www.w3.org/1999/xlink" contentScriptType="application/ecmascript" contentStyleType="text/css" height="852.6px" preserveAspectRatio="none" style="width:378px;height:852px;" version="1.1" viewBox="0 0 378 852" width="378px" zoomAndPan="magnify"><defs><filter height="300%" id="f1g1ksxwld07qt" width="300%" x="-1" y="-1"><feGaussianBlur result="blurOut" stdDeviation="1.2"/><feColorMatrix in="blurOut" result="blurOut2" type="matrix" values="0 0 0 0 0 0 0 0 0 0 0 0 0 0 0 0 0 0 .4 0"/><feOffset dx="2.4" dy="2.4" in="blurOut2" result="blurOut3"/><feBlend in="SourceGraphic" in2="blurOut3" mode="normal"/></filter></defs><g><!--MD5=[13d33e681bb8b80feb56fac81b77103f]
entity Recep--><ellipse cx="62.7" cy="772.2" fill="#FEFECE" filter="url(#f1g1ksxwld07qt)" rx="4.8" ry="4.8" style="stroke:#A80036;stroke-width:0.8999999999999999;"/><path d="M62.7,777 L62.7,793.2 M54.9,781.8 L70.5,781.8 M62.7,793.2 L54.9,802.2 M62.7,793.2 L70.5,802.2 " fill="none" filter="url(#f1g1ksxwld07qt)" style="stroke:#A80036;stroke-width:0.8999999999999999;"/><text fill="#000000" font-family="sans-serif" font-size="8.4" lengthAdjust="spacing" textLength="46.8" x="39.3" y="814.2199">Receptionist</text><ellipse cx="264.3025" cy="773.4005" fill="#FEFECE" filter="url(#f1g1ksxwld07qt)" rx="60.3025" ry="13.5005" style="stroke:#A80036;stroke-width:0.8999999999999999;"/><text fill="#000000" font-family="sans-serif" font-size="8.4" lengthAdjust="spacing" textLength="97.2" x="215.7025" y="775.6376">UC1 - Register new Client</text><ellipse cx="264.2833" cy="826.7967" fill="#FEFECE" filter="url(#f1g1ksxwld07qt)" rx="87.2833" ry="18.8967" style="stroke:#A80036;stroke-width:0.8999999999999999;"/><text fill="#000000" font-family="sans-serif" font-size="8.4" lengthAdjust="spacing" textLength="155.4" x="186.5833" y="829.0338">UC2 - Register Test to perform to a client</text><!--MD5=[b6d71c7b5a3b5919d10eb67fbf297455]
entity Clinical Chemistry Technologist--><ellipse cx="62.7" cy="684.6" fill="#FEFECE" filter="url(#f1g1ksxwld07qt)" rx="4.8" ry="4.8" style="stroke:#A80036;stroke-width:0.8999999999999999;"/><path d="M62.7,689.4 L62.7,705.6 M54.9,694.2 L70.5,694.2 M62.7,705.6 L54.9,714.6 M62.7,705.6 L70.5,714.6 " fill="none" filter="url(#f1g1ksxwld07qt)" style="stroke:#A80036;stroke-width:0.8999999999999999;"/><text fill="#000000" font-family="sans-serif" font-size="8.4" lengthAdjust="spacing" textLength="118.2" x="3.6" y="726.6199">Clinical Chemistry Technologist</text><ellipse cx="264.3437" cy="703.6887" fill="#FEFECE" filter="url(#f1g1ksxwld07qt)" rx="76.2437" ry="16.6887" style="stroke:#A80036;stroke-width:0.8999999999999999;"/><text fill="#000000" font-family="sans-serif" font-size="8.4" lengthAdjust="spacing" textLength="132" x="198.3437" y="705.9258">UC3 - Record Sample Test Results</text><!--MD5=[5c107df4c3a6612dd5cfe4282a9cf4f8]
entity Specialist Doctor--><ellipse cx="62.7" cy="561" fill="#FEFECE" filter="url(#f1g1ksxwld07qt)" rx="4.8" ry="4.8" style="stroke:#A80036;stroke-width:0.8999999999999999;"/><path d="M62.7,565.8 L62.7,582 M54.9,570.6 L70.5,570.6 M62.7,582 L54.9,591 M62.7,582 L70.5,591 " fill="none" filter="url(#f1g1ksxwld07qt)" style="stroke:#A80036;stroke-width:0.8999999999999999;"/><text fill="#000000" font-family="sans-serif" font-size="8.4" lengthAdjust="spacing" textLength="63.6" x="30.9" y="603.0199">Specialist Doctor</text><ellipse cx="264.2356" cy="514.1871" fill="#FEFECE" filter="url(#f1g1ksxwld07qt)" rx="102.2356" ry="21.8871" style="stroke:#A80036;stroke-width:0.8999999999999999;"/><text fill="#000000" font-family="sans-serif" font-size="8.4" lengthAdjust="spacing" textLength="186.6" x="170.9356" y="516.4242">UC4 - Save diagnosis and report for each sample</text><ellipse cx="264.3839" cy="580.1568" fill="#FEFECE" filter="url(#f1g1ksxwld07qt)" rx="106.5839" ry="22.7568" style="stroke:#A80036;stroke-width:0.8999999999999999;"/><text fill="#000000" font-family="sans-serif" font-size="8.4" lengthAdjust="spacing" textLength="195.6" x="166.5839" y="582.3939">UC5 - Uses External Module to help Validation Work</text><ellipse cx="264.2522" cy="644.9904" fill="#FEFECE" filter="url(#f1g1ksxwld07qt)" rx="97.7522" ry="20.9904" style="stroke:#A80036;stroke-width:0.8999999999999999;"/><text fill="#000000" font-family="sans-serif" font-size="8.4" lengthAdjust="spacing" textLength="106.2" x="209.9522" y="641.9447">UC6 - After Validation Work,</text><text fill="#000000" font-family="sans-serif" font-size="8.4" lengthAdjust="spacing" textLength="150.6" x="190.1522" y="652.5104">Reports become available in the system</text><!--MD5=[9b765648a409d02f5ba0bbb9cb84ff33]
entity lc--><ellipse cx="62.7" cy="416.4" fill="#FEFECE" filter="url(#f1g1ksxwld07qt)" rx="4.8" ry="4.8" style="stroke:#A80036;stroke-width:0.8999999999999999;"/><path d="M62.7,421.2 L62.7,437.4 M54.9,426 L70.5,426 M62.7,437.4 L54.9,446.4 M62.7,437.4 L70.5,446.4 " fill="none" filter="url(#f1g1ksxwld07qt)" style="stroke:#A80036;stroke-width:0.8999999999999999;"/><text fill="#000000" font-family="sans-serif" font-size="8.4" lengthAdjust="spacing" textLength="61.8" x="31.8" y="458.4199">Lab Coordinator</text><ellipse cx="264.3671" cy="397.9334" fill="#FEFECE" filter="url(#f1g1ksxwld07qt)" rx="80.4671" ry="17.5334" style="stroke:#A80036;stroke-width:0.8999999999999999;"/><text fill="#000000" font-family="sans-serif" font-size="8.4" lengthAdjust="spacing" textLength="141" x="193.8671" y="400.1705">UC7 - Confirm diagnosis and Reports</text><ellipse cx="264.4199" cy="453.564" fill="#FEFECE" filter="url(#f1g1ksxwld07qt)" rx="79.6199" ry="17.364" style="stroke:#A80036;stroke-width:0.8999999999999999;"/><text fill="#000000" font-family="sans-serif" font-size="8.4" lengthAdjust="spacing" textLength="139.2" x="194.8199" y="455.8011">UC8 - Send SMS and e-mail to Client</text><!--MD5=[866f61fb5c01560ccec2366ae0cc6d7f]
entity lt--><ellipse cx="62.7" cy="327.6" fill="#FEFECE" filter="url(#f1g1ksxwld07qt)" rx="4.8" ry="4.8" style="stroke:#A80036;stroke-width:0.8999999999999999;"/><path d="M62.7,332.4 L62.7,348.6 M54.9,337.2 L70.5,337.2 M62.7,348.6 L54.9,357.6 M62.7,348.6 L70.5,357.6 " fill="none" filter="url(#f1g1ksxwld07qt)" style="stroke:#A80036;stroke-width:0.8999999999999999;"/><text fill="#000000" font-family="sans-serif" font-size="8.4" lengthAdjust="spacing" textLength="58.2" x="33.6" y="369.6199">Lab Technician</text><ellipse cx="264.321" cy="346.6842" fill="#FEFECE" filter="url(#f1g1ksxwld07qt)" rx="53.721" ry="12.1842" style="stroke:#A80036;stroke-width:0.8999999999999999;"/><text fill="#000000" font-family="sans-serif" font-size="8.4" lengthAdjust="spacing" textLength="82.2" x="223.221" y="348.9213">UC9 - Record Sample</text><!--MD5=[e3152162072024c50465e7b26cb20ed6]
entity Scheduler--><ellipse cx="62.7" cy="232.2" fill="#FEFECE" filter="url(#f1g1ksxwld07qt)" rx="4.8" ry="4.8" style="stroke:#A80036;stroke-width:0.8999999999999999;"/><path d="M62.7,237 L62.7,253.2 M54.9,241.8 L70.5,241.8 M62.7,253.2 L54.9,262.2 M62.7,253.2 L70.5,262.2 " fill="none" filter="url(#f1g1ksxwld07qt)" style="stroke:#A80036;stroke-width:0.8999999999999999;"/><text fill="#000000" font-family="sans-serif" font-size="8.4" lengthAdjust="spacing" textLength="38.4" x="43.5" y="274.2199">Scheduler</text><ellipse cx="264.2367" cy="238.3073" fill="#FEFECE" filter="url(#f1g1ksxwld07qt)" rx="69.8367" ry="15.4073" style="stroke:#A80036;stroke-width:0.8999999999999999;"/><text fill="#000000" font-family="sans-serif" font-size="8.4" lengthAdjust="spacing" textLength="118.2" x="205.1367" y="240.5444">UC10 - Generate Daily Reports</text><ellipse cx="264.2254" cy="293.9251" fill="#FEFECE" filter="url(#f1g1ksxwld07qt)" rx="88.4254" ry="19.1251" style="stroke:#A80036;stroke-width:0.8999999999999999;"/><text fill="#000000" font-family="sans-serif" font-size="8.4" lengthAdjust="spacing" textLength="157.8" x="185.3254" y="296.1622">UC11 - Company Performance Evaluation</text><!--MD5=[97ab183161fd5d1db7fba7485cf76add]
entity Admin--><ellipse cx="62.7" cy="150" fill="#FEFECE" filter="url(#f1g1ksxwld07qt)" rx="4.8" ry="4.8" style="stroke:#A80036;stroke-width:0.8999999999999999;"/><path d="M62.7,154.8 L62.7,171 M54.9,159.6 L70.5,159.6 M62.7,171 L54.9,180 M62.7,171 L70.5,180 " fill="none" filter="url(#f1g1ksxwld07qt)" style="stroke:#A80036;stroke-width:0.8999999999999999;"/><text fill="#000000" font-family="sans-serif" font-size="8.4" lengthAdjust="spacing" textLength="23.4" x="51" y="192.0199">Admin</text><ellipse cx="264.3214" cy="169.0843" fill="#FEFECE" filter="url(#f1g1ksxwld07qt)" rx="92.7214" ry="19.9843" style="stroke:#A80036;stroke-width:0.8999999999999999;"/><text fill="#000000" font-family="sans-serif" font-size="8.4" lengthAdjust="spacing" textLength="166.8" x="180.9214" y="171.3214">UC12 - Add new types of tests to the system</text><!--MD5=[cade383c679c4100475c230cbe0e5423]
entity Employee--><ellipse cx="62.7" cy="79.2" fill="#FEFECE" filter="url(#f1g1ksxwld07qt)" rx="4.8" ry="4.8" style="stroke:#A80036;stroke-width:0.8999999999999999;"/><path d="M62.7,84 L62.7,100.2 M54.9,88.8 L70.5,88.8 M62.7,100.2 L54.9,109.2 M62.7,100.2 L70.5,109.2 " fill="none" filter="url(#f1g1ksxwld07qt)" style="stroke:#A80036;stroke-width:0.8999999999999999;"/><text fill="#000000" font-family="sans-serif" font-size="8.4" lengthAdjust="spacing" textLength="37.2" x="44.1" y="121.2199">Employee</text><ellipse cx="264.174" cy="98.4948" fill="#FEFECE" filter="url(#f1g1ksxwld07qt)" rx="78.774" ry="17.1948" style="stroke:#A80036;stroke-width:0.8999999999999999;"/><text fill="#000000" font-family="sans-serif" font-size="8.4" lengthAdjust="spacing" textLength="137.4" x="195.474" y="100.7319">UC14 - Order clients by TIN or name</text><!--MD5=[0ba5ee7700168656dc1b457c6fe9fdac]
entity Client--><ellipse cx="62.7" cy="8.4" fill="#FEFECE" filter="url(#f1g1ksxwld07qt)" rx="4.8" ry="4.8" style="stroke:#A80036;stroke-width:0.8999999999999999;"/><path d="M62.7,13.2 L62.7,29.4 M54.9,18 L70.5,18 M62.7,29.4 L54.9,38.4 M62.7,29.4 L70.5,38.4 " fill="none" filter="url(#f1g1ksxwld07qt)" style="stroke:#A80036;stroke-width:0.8999999999999999;"/><text fill="#000000" font-family="sans-serif" font-size="8.4" lengthAdjust="spacing" textLength="21.6" x="51.9" y="50.4199">Client</text><ellipse cx="264.2483" cy="27.5297" fill="#FEFECE" filter="url(#f1g1ksxwld07qt)" rx="82.4483" ry="17.9297" style="stroke:#A80036;stroke-width:0.8999999999999999;"/><text fill="#000000" font-family="sans-serif" font-size="8.4" lengthAdjust="spacing" textLength="145.2" x="191.6483" y="29.7668">UC13 - Check his medical tests results</text><!--MD5=[55fa4dcef30c7523370c5a17f2120ea3]
link Recep to UC1 - Register new Client--><path d="M86.286,789.336 C115.044,786.75 165.33,782.238 205.044,778.668 " fill="none" id="Recep-to-UC1 - Register new Client" style="stroke:#A80036;stroke-width:0.6;"/><polygon fill="#A80036" points="208.122,778.392,202.5254,776.4951,205.1345,778.6659,202.9637,781.275,208.122,778.392" style="stroke:#A80036;stroke-width:0.6;"/><!--MD5=[3741b7652932554d3935429dc54314d8]
link Recep to UC2 - Register Test to perform to a client--><path d="M86.286,795.462 C112.236,800.046 155.718,807.726 193.14,814.338 " fill="none" id="Recep-to-UC2 - Register Test to perform to a client" style="stroke:#A80036;stroke-width:0.6;"/><polygon fill="#A80036" points="196.278,814.89,191.38,811.584,193.3241,814.3662,190.5419,816.3103,196.278,814.89" style="stroke:#A80036;stroke-width:0.6;"/><!--MD5=[8509941273645556317546d080ba21d2]
link Clinical Chemistry Technologist to UC3 - Record Sample Test Results--><path d="M121.8,703.8 C141.516,703.8 163.842,703.8 184.86,703.8 " fill="none" id="Clinical Chemistry Technologist-to-UC3 - Record Sample Test Results" style="stroke:#A80036;stroke-width:0.6;"/><polygon fill="#A80036" points="187.95,703.8,182.55,701.4,184.95,703.8,182.55,706.2,187.95,703.8" style="stroke:#A80036;stroke-width:0.6;"/><!--MD5=[965bb53a9bd14cca17c860b67b0d75de]
link Specialist Doctor to UC4 - Save diagnosis and report for each sample--><path d="M94.71,568.932 C113.052,562.428 136.68,554.178 157.8,547.2 C172.116,542.472 187.578,537.552 202.146,532.992 " fill="none" id="Specialist Doctor-to-UC4 - Save diagnosis and report for each sample" style="stroke:#A80036;stroke-width:0.6;"/><polygon fill="#A80036" points="205.05,532.086,199.1788,531.4159,202.1881,532.9857,200.6183,535.995,205.05,532.086" style="stroke:#A80036;stroke-width:0.6;"/><!--MD5=[d8a5d7c7eff466a8f05063ff9fb76546]
link Specialist Doctor to UC5 - Uses External Module to help Validation Work--><path d="M94.614,580.2 C111.138,580.2 132.51,580.2 154.464,580.2 " fill="none" id="Specialist Doctor-to-UC5 - Uses External Module to help Validation Work" style="stroke:#A80036;stroke-width:0.6;"/><polygon fill="#A80036" points="157.704,580.2,152.304,577.8,154.704,580.2,152.304,582.6,157.704,580.2" style="stroke:#A80036;stroke-width:0.6;"/><!--MD5=[c6a64984497a38076573b30533232a68]
link Specialist Doctor to UC6 - After Validation Work, \n Reports become available in the system--><path d="M94.65,591.834 C112.98,598.512 136.602,606.912 157.8,613.8 C171.984,618.408 187.332,623.094 201.822,627.39 " fill="none" id="Specialist Doctor-to-UC6 - After Validation Work, \n Reports become available in the system" style="stroke:#A80036;stroke-width:0.6;"/><polygon fill="#A80036" points="204.708,628.248,200.2065,624.4196,201.8303,627.4001,198.8499,629.0239,204.708,628.248" style="stroke:#A80036;stroke-width:0.6;"/><!--MD5=[0390480331dd7dba5c99d84357f4996e]
link Scheduler to UC10 - Generate Daily Reports--><path d="M81.972,250.17 C107.4,248.496 154.308,245.406 194.094,242.784 " fill="none" id="Scheduler-to-UC10 - Generate Daily Reports" style="stroke:#A80036;stroke-width:0.6;"/><polygon fill="#A80036" points="197.19,242.58,191.6442,240.5393,194.1965,242.7767,191.959,245.3289,197.19,242.58" style="stroke:#A80036;stroke-width:0.6;"/><!--MD5=[81567be34393ebd8422104200d8a285b]
link Scheduler to UC11 - Company Performance Evaluation--><path d="M81.972,255.372 C108.156,260.934 157.122,271.344 197.634,279.954 " fill="none" id="Scheduler-to-UC11 - Company Performance Evaluation" style="stroke:#A80036;stroke-width:0.6;"/><polygon fill="#A80036" points="200.778,280.626,195.998,277.1516,197.8441,279.9998,194.996,281.8459,200.778,280.626" style="stroke:#A80036;stroke-width:0.6;"/><!--MD5=[0f0ba1e72312abc4231e31cc38343f71]
link lc to UC7--><path d="M93.738,429.858 C121.908,424.548 164.682,416.478 200.268,409.764 " fill="none" id="lc-to-UC7" style="stroke:#A80036;stroke-width:0.6;"/><polygon fill="#A80036" points="203.25,409.2,197.5021,407.8282,200.3006,409.7487,198.3801,412.5472,203.25,409.2" style="stroke:#A80036;stroke-width:0.6;"/><!--MD5=[9dea0362058f5b60a4f299e69e1444c1]
link lc to UC8--><path d="M93.738,438.336 C118.608,440.568 154.872,443.826 187.518,446.76 " fill="none" id="lc-to-UC8" style="stroke:#A80036;stroke-width:0.6;"/><polygon fill="#A80036" points="190.668,447.042,185.5022,444.1723,187.6798,446.7758,185.0763,448.9534,190.668,447.042" style="stroke:#A80036;stroke-width:0.6;"/><!--MD5=[4310f6f5f752e5afad802c2f9a862857]
link lt to UC9--><path d="M92.01,346.8 C122.016,346.8 169.854,346.8 207.426,346.8 " fill="none" id="lt-to-UC9" style="stroke:#A80036;stroke-width:0.6;"/><polygon fill="#A80036" points="210.57,346.8,205.17,344.4,207.57,346.8,205.17,349.2,210.57,346.8" style="stroke:#A80036;stroke-width:0.6;"/><!--MD5=[e5ceb2f8ddfa8b7e137ab608391778ba]
link Admin to UC12 - Add new types of tests to the system--><path d="M74.646,169.2 C93.048,169.2 131.1,169.2 168.27,169.2 " fill="none" id="Admin-to-UC12 - Add new types of tests to the system" style="stroke:#A80036;stroke-width:0.6;"/><polygon fill="#A80036" points="171.402,169.2,166.002,166.8,168.402,169.2,166.002,171.6,171.402,169.2" style="stroke:#A80036;stroke-width:0.6;"/><!--MD5=[932d88622ad3045aefb8a5ce3b2bf509]
link Employee to UC14 - Order clients by TIN or name--><path d="M81.438,98.4 C104.256,98.4 144.966,98.4 182.13,98.4 " fill="none" id="Employee-to-UC14 - Order clients by TIN or name" style="stroke:#A80036;stroke-width:0.6;"/><polygon fill="#A80036" points="185.256,98.4,179.856,96,182.256,98.4,179.856,100.8,185.256,98.4" style="stroke:#A80036;stroke-width:0.6;"/><!--MD5=[c268644465f4c31076e9d3c2f7b8a999]
link Client to UC13 - Check his medical tests results--><path d="M73.512,27.6 C93.066,27.6 137.484,27.6 178.482,27.6 " fill="none" id="Client-to-UC13 - Check his medical tests results" style="stroke:#A80036;stroke-width:0.6;"/><polygon fill="#A80036" points="181.68,27.6,176.28,25.2,178.68,27.6,176.28,30,181.68,27.6" style="stroke:#A80036;stroke-width:0.6;"/><!--MD5=[6247059cfd8743d96ad7f749e117da0b]
@startuml
'https://plantuml.com/use-case-diagram

left to right direction
:Receptionist: as Recep
Recep - -> (UC1 - Register new Client)
Recep - -> (UC2 - Register Test to perform to a client)
:Clinical Chemistry Technologist: - -> (UC3 - Record Sample Test Results)
:Specialist Doctor: - -> (UC4 - Save diagnosis and report for each sample)
:Specialist Doctor: - -> (UC5 - Uses External Module to help Validation Work)
:Specialist Doctor: - -> (UC6 - After Validation Work, \n Reports become available in the system)

:Lab Coordinator: as lc
(UC7 - Confirm diagnosis and Reports) as UC7
(UC8 - Send SMS and e-mail to Client) as UC8
:Lab Technician: as lt
(UC9 - Record Sample) as UC9

:Scheduler: - -> (UC10 - Generate Daily Reports)
:Scheduler: - -> (UC11 - Company Performance Evaluation)
lc - -> UC7
lc - -> UC8

lt - -> UC9

:Admin: - -> (UC12 - Add new types of tests to the system)
:Employee: - -> (UC14 - Sort clients by TIN or name)
:Client: - -> (UC13 - Check his medical tests results)
@enduml

@startuml

left to right direction
:Receptionist: as Recep
Recep - -> (UC1 - Register new Client)
Recep - -> (UC2 - Register Test to perform to a client)
:Clinical Chemistry Technologist: - -> (UC3 - Record Sample Test Results)
:Specialist Doctor: - -> (UC4 - Save diagnosis and report for each sample)
:Specialist Doctor: - -> (UC5 - Uses External Module to help Validation Work)
:Specialist Doctor: - -> (UC6 - After Validation Work, \n Reports become available in the system)

:Lab Coordinator: as lc
(UC7 - Confirm diagnosis and Reports) as UC7
(UC8 - Send SMS and e-mail to Client) as UC8
:Lab Technician: as lt
(UC9 - Record Sample) as UC9

:Scheduler: - -> (UC10 - Generate Daily Reports)
:Scheduler: - -> (UC11 - Company Performance Evaluation)
lc - -> UC7
lc - -> UC8

lt - -> UC9

:Admin: - -> (UC12 - Add new types of tests to the system)
:Employee: - -> (UC14 - Order clients by TIN or name)
:Client: - -> (UC13 - Check his medical tests results)
@enduml

PlantUML version 1.2021.00(Sun Jan 10 10:25:05 GMT 2021)
(GPL source distribution)
Java Runtime: OpenJDK Runtime Environment
JVM: OpenJDK 64-Bit Server VM
Default Encoding: Cp1252
Language: en
Country: US
--></g></svg>