<?xml version="1.0" encoding="UTF-8" standalone="no"?><svg xmlns="http://www.w3.org/2000/svg" xmlns:xlink="http://www.w3.org/1999/xlink" contentScriptType="application/ecmascript" contentStyleType="text/css" height="1421px" preserveAspectRatio="none" style="width:630px;height:1421px;" version="1.1" viewBox="0 0 630 1421" width="630px" zoomAndPan="magnify"><defs><filter height="300%" id="fn0i4xo7inrlj" width="300%" x="-1" y="-1"><feGaussianBlur result="blurOut" stdDeviation="2.0"/><feColorMatrix in="blurOut" result="blurOut2" type="matrix" values="0 0 0 0 0 0 0 0 0 0 0 0 0 0 0 0 0 0 .4 0"/><feOffset dx="4.0" dy="4.0" in="blurOut2" result="blurOut3"/><feBlend in="SourceGraphic" in2="blurOut3" mode="normal"/></filter></defs><g><!--MD5=[13d33e681bb8b80feb56fac81b77103f]
entity Recep--><ellipse cx="104.5" cy="1287" fill="#FEFECE" filter="url(#fn0i4xo7inrlj)" rx="8" ry="8" style="stroke:#A80036;stroke-width:1.5;"/><path d="M104.5,1295 L104.5,1322 M91.5,1303 L117.5,1303 M104.5,1322 L91.5,1337 M104.5,1322 L117.5,1337 " fill="none" filter="url(#fn0i4xo7inrlj)" style="stroke:#A80036;stroke-width:1.5;"/><text fill="#000000" font-family="sans-serif" font-size="14" lengthAdjust="spacing" textLength="78" x="65.5" y="1357.0332">Receptionist</text><ellipse cx="440.5042" cy="1289.0008" fill="#FEFECE" filter="url(#fn0i4xo7inrlj)" rx="100.5042" ry="22.5008" style="stroke:#A80036;stroke-width:1.5;"/><text fill="#000000" font-family="sans-serif" font-size="14" lengthAdjust="spacing" textLength="162" x="359.5042" y="1292.7293">UC1 - Register new Client</text><ellipse cx="440.4721" cy="1377.9944" fill="#FEFECE" filter="url(#fn0i4xo7inrlj)" rx="145.4721" ry="31.4944" style="stroke:#A80036;stroke-width:1.5;"/><text fill="#000000" font-family="sans-serif" font-size="14" lengthAdjust="spacing" textLength="259" x="310.9721" y="1381.7229">UC2 - Register Test to perform to a client</text><!--MD5=[b6d71c7b5a3b5919d10eb67fbf297455]
entity Clinical Chemistry Technologist--><ellipse cx="104.5" cy="1141" fill="#FEFECE" filter="url(#fn0i4xo7inrlj)" rx="8" ry="8" style="stroke:#A80036;stroke-width:1.5;"/><path d="M104.5,1149 L104.5,1176 M91.5,1157 L117.5,1157 M104.5,1176 L91.5,1191 M104.5,1176 L117.5,1191 " fill="none" filter="url(#fn0i4xo7inrlj)" style="stroke:#A80036;stroke-width:1.5;"/><text fill="#000000" font-family="sans-serif" font-size="14" lengthAdjust="spacing" textLength="197" x="6" y="1211.0332">Clinical Chemistry Technologist</text><ellipse cx="440.5728" cy="1172.8146" fill="#FEFECE" filter="url(#fn0i4xo7inrlj)" rx="127.0728" ry="27.8146" style="stroke:#A80036;stroke-width:1.5;"/><text fill="#000000" font-family="sans-serif" font-size="14" lengthAdjust="spacing" textLength="220" x="330.5728" y="1176.5431">UC3 - Record Sample Test Results</text><!--MD5=[5c107df4c3a6612dd5cfe4282a9cf4f8]
entity Specialist Doctor--><ellipse cx="104.5" cy="935" fill="#FEFECE" filter="url(#fn0i4xo7inrlj)" rx="8" ry="8" style="stroke:#A80036;stroke-width:1.5;"/><path d="M104.5,943 L104.5,970 M91.5,951 L117.5,951 M104.5,970 L91.5,985 M104.5,970 L117.5,985 " fill="none" filter="url(#fn0i4xo7inrlj)" style="stroke:#A80036;stroke-width:1.5;"/><text fill="#000000" font-family="sans-serif" font-size="14" lengthAdjust="spacing" textLength="106" x="51.5" y="1005.0332">Specialist Doctor</text><ellipse cx="440.3927" cy="856.9785" fill="#FEFECE" filter="url(#fn0i4xo7inrlj)" rx="170.3927" ry="36.4785" style="stroke:#A80036;stroke-width:1.5;"/><text fill="#000000" font-family="sans-serif" font-size="14" lengthAdjust="spacing" textLength="311" x="284.8927" y="860.7071">UC4 - Save diagnosis and report for each sample</text><ellipse cx="440.6398" cy="966.928" fill="#FEFECE" filter="url(#fn0i4xo7inrlj)" rx="177.6398" ry="37.928" style="stroke:#A80036;stroke-width:1.5;"/><text fill="#000000" font-family="sans-serif" font-size="14" lengthAdjust="spacing" textLength="326" x="277.6398" y="970.6565">UC5 - Uses External Module to help Validation Work</text><ellipse cx="440.4203" cy="1074.9841" fill="#FEFECE" filter="url(#fn0i4xo7inrlj)" rx="162.9203" ry="34.9841" style="stroke:#A80036;stroke-width:1.5;"/><text fill="#000000" font-family="sans-serif" font-size="14" lengthAdjust="spacing" textLength="177" x="349.9203" y="1069.9079">UC6 - After Validation Work,</text><text fill="#000000" font-family="sans-serif" font-size="14" lengthAdjust="spacing" textLength="251" x="316.9203" y="1087.5173">Reports become available in the system</text><!--MD5=[9b765648a409d02f5ba0bbb9cb84ff33]
entity lc--><ellipse cx="104.5" cy="694" fill="#FEFECE" filter="url(#fn0i4xo7inrlj)" rx="8" ry="8" style="stroke:#A80036;stroke-width:1.5;"/><path d="M104.5,702 L104.5,729 M91.5,710 L117.5,710 M104.5,729 L91.5,744 M104.5,729 L117.5,744 " fill="none" filter="url(#fn0i4xo7inrlj)" style="stroke:#A80036;stroke-width:1.5;"/><text fill="#000000" font-family="sans-serif" font-size="14" lengthAdjust="spacing" textLength="103" x="53" y="764.0332">Lab Coordinator</text><ellipse cx="440.6118" cy="663.2224" fill="#FEFECE" filter="url(#fn0i4xo7inrlj)" rx="134.1118" ry="29.2224" style="stroke:#A80036;stroke-width:1.5;"/><text fill="#000000" font-family="sans-serif" font-size="14" lengthAdjust="spacing" textLength="235" x="323.1118" y="666.9509">UC7 - Confirm diagnosis and Reports</text><ellipse cx="440.6999" cy="755.94" fill="#FEFECE" filter="url(#fn0i4xo7inrlj)" rx="132.6999" ry="28.94" style="stroke:#A80036;stroke-width:1.5;"/><text fill="#000000" font-family="sans-serif" font-size="14" lengthAdjust="spacing" textLength="232" x="324.6999" y="759.6685">UC8 - Send SMS and e-mail to Client</text><!--MD5=[866f61fb5c01560ccec2366ae0cc6d7f]
entity lt--><ellipse cx="104.5" cy="546" fill="#FEFECE" filter="url(#fn0i4xo7inrlj)" rx="8" ry="8" style="stroke:#A80036;stroke-width:1.5;"/><path d="M104.5,554 L104.5,581 M91.5,562 L117.5,562 M104.5,581 L91.5,596 M104.5,581 L117.5,596 " fill="none" filter="url(#fn0i4xo7inrlj)" style="stroke:#A80036;stroke-width:1.5;"/><text fill="#000000" font-family="sans-serif" font-size="14" lengthAdjust="spacing" textLength="97" x="56" y="616.0332">Lab Technician</text><ellipse cx="440.535" cy="577.807" fill="#FEFECE" filter="url(#fn0i4xo7inrlj)" rx="89.535" ry="20.307" style="stroke:#A80036;stroke-width:1.5;"/><text fill="#000000" font-family="sans-serif" font-size="14" lengthAdjust="spacing" textLength="137" x="372.035" y="581.5355">UC9 - Record Sample</text><!--MD5=[e3152162072024c50465e7b26cb20ed6]
entity Scheduler--><ellipse cx="104.5" cy="387" fill="#FEFECE" filter="url(#fn0i4xo7inrlj)" rx="8" ry="8" style="stroke:#A80036;stroke-width:1.5;"/><path d="M104.5,395 L104.5,422 M91.5,403 L117.5,403 M104.5,422 L91.5,437 M104.5,422 L117.5,437 " fill="none" filter="url(#fn0i4xo7inrlj)" style="stroke:#A80036;stroke-width:1.5;"/><text fill="#000000" font-family="sans-serif" font-size="14" lengthAdjust="spacing" textLength="64" x="72.5" y="457.0332">Scheduler</text><ellipse cx="440.3945" cy="397.1789" fill="#FEFECE" filter="url(#fn0i4xo7inrlj)" rx="116.3945" ry="25.6789" style="stroke:#A80036;stroke-width:1.5;"/><text fill="#000000" font-family="sans-serif" font-size="14" lengthAdjust="spacing" textLength="197" x="341.8945" y="400.9074">UC10 - Generate Daily Reports</text><ellipse cx="440.3756" cy="489.8751" fill="#FEFECE" filter="url(#fn0i4xo7inrlj)" rx="147.3756" ry="31.8751" style="stroke:#A80036;stroke-width:1.5;"/><text fill="#000000" font-family="sans-serif" font-size="14" lengthAdjust="spacing" textLength="263" x="308.8756" y="493.6036">UC11 - Company Performance Evaluation</text><!--MD5=[97ab183161fd5d1db7fba7485cf76add]
entity Admin--><ellipse cx="104.5" cy="250" fill="#FEFECE" filter="url(#fn0i4xo7inrlj)" rx="8" ry="8" style="stroke:#A80036;stroke-width:1.5;"/><path d="M104.5,258 L104.5,285 M91.5,266 L117.5,266 M104.5,285 L91.5,300 M104.5,285 L117.5,300 " fill="none" filter="url(#fn0i4xo7inrlj)" style="stroke:#A80036;stroke-width:1.5;"/><text fill="#000000" font-family="sans-serif" font-size="14" lengthAdjust="spacing" textLength="39" x="85" y="320.0332">Admin</text><ellipse cx="440.5357" cy="281.8071" fill="#FEFECE" filter="url(#fn0i4xo7inrlj)" rx="154.5357" ry="33.3071" style="stroke:#A80036;stroke-width:1.5;"/><text fill="#000000" font-family="sans-serif" font-size="14" lengthAdjust="spacing" textLength="278" x="301.5357" y="285.5357">UC12 - Add new types of tests to the system</text><!--MD5=[cade383c679c4100475c230cbe0e5423]
entity Employee--><ellipse cx="104.5" cy="132" fill="#FEFECE" filter="url(#fn0i4xo7inrlj)" rx="8" ry="8" style="stroke:#A80036;stroke-width:1.5;"/><path d="M104.5,140 L104.5,167 M91.5,148 L117.5,148 M104.5,167 L91.5,182 M104.5,167 L117.5,182 " fill="none" filter="url(#fn0i4xo7inrlj)" style="stroke:#A80036;stroke-width:1.5;"/><text fill="#000000" font-family="sans-serif" font-size="14" lengthAdjust="spacing" textLength="62" x="73.5" y="202.0332">Employee</text><ellipse cx="440.3268" cy="163.7654" fill="#FEFECE" filter="url(#fn0i4xo7inrlj)" rx="159.3268" ry="34.2654" style="stroke:#A80036;stroke-width:1.5;"/><text fill="#000000" font-family="sans-serif" font-size="14" lengthAdjust="spacing" textLength="288" x="296.3268" y="167.4939">UC14 - Option to order clients by TIF or name</text><!--MD5=[0ba5ee7700168656dc1b457c6fe9fdac]
entity Client--><ellipse cx="104.5" cy="14" fill="#FEFECE" filter="url(#fn0i4xo7inrlj)" rx="8" ry="8" style="stroke:#A80036;stroke-width:1.5;"/><path d="M104.5,22 L104.5,49 M91.5,30 L117.5,30 M104.5,49 L91.5,64 M104.5,49 L117.5,64 " fill="none" filter="url(#fn0i4xo7inrlj)" style="stroke:#A80036;stroke-width:1.5;"/><text fill="#000000" font-family="sans-serif" font-size="14" lengthAdjust="spacing" textLength="36" x="86.5" y="84.0332">Client</text><ellipse cx="440.4415" cy="45.7883" fill="#FEFECE" filter="url(#fn0i4xo7inrlj)" rx="136.9415" ry="29.7883" style="stroke:#A80036;stroke-width:1.5;"/><text fill="#000000" font-family="sans-serif" font-size="14" lengthAdjust="spacing" textLength="241" x="319.9415" y="49.5168">US13 - Check his medical tests results</text><!--MD5=[55fa4dcef30c7523370c5a17f2120ea3]
link Recep to UC1 - Register new Client--><path d="M143.81,1315.56 C191.74,1311.25 275.55,1303.73 341.74,1297.78 " fill="none" id="Recep-to-UC1 - Register new Client" style="stroke:#A80036;stroke-width:1.0;"/><polygon fill="#A80036" points="346.87,1297.32,337.5424,1294.1585,341.8909,1297.7765,338.2728,1302.1251,346.87,1297.32" style="stroke:#A80036;stroke-width:1.0;"/><!--MD5=[3741b7652932554d3935429dc54314d8]
link Recep to UC2 - Register Test to perform to a client--><path d="M143.81,1325.77 C187.06,1333.41 259.53,1346.21 321.9,1357.23 " fill="none" id="Recep-to-UC2 - Register Test to perform to a client" style="stroke:#A80036;stroke-width:1.0;"/><polygon fill="#A80036" points="327.13,1358.15,318.9667,1352.64,322.2068,1357.277,317.5698,1360.5171,327.13,1358.15" style="stroke:#A80036;stroke-width:1.0;"/><!--MD5=[8509941273645556317546d080ba21d2]
link Clinical Chemistry Technologist to UC3 - Record Sample Test Results--><path d="M203,1173 C235.86,1173 273.07,1173 308.1,1173 " fill="none" id="Clinical Chemistry Technologist-to-UC3 - Record Sample Test Results" style="stroke:#A80036;stroke-width:1.0;"/><polygon fill="#A80036" points="313.25,1173,304.25,1169,308.25,1173,304.25,1177,313.25,1173" style="stroke:#A80036;stroke-width:1.0;"/><!--MD5=[965bb53a9bd14cca17c860b67b0d75de]
link Specialist Doctor to UC4 - Save diagnosis and report for each sample--><path d="M157.85,948.22 C188.42,937.38 227.8,923.63 263,912 C286.86,904.12 312.63,895.92 336.91,888.32 " fill="none" id="Specialist Doctor-to-UC4 - Save diagnosis and report for each sample" style="stroke:#A80036;stroke-width:1.0;"/><polygon fill="#A80036" points="341.75,886.81,331.9647,885.6932,336.9801,888.3095,334.3639,893.325,341.75,886.81" style="stroke:#A80036;stroke-width:1.0;"/><!--MD5=[d8a5d7c7eff466a8f05063ff9fb76546]
link Specialist Doctor to UC5 - Uses External Module to help Validation Work--><path d="M157.69,967 C185.23,967 220.85,967 257.44,967 " fill="none" id="Specialist Doctor-to-UC5 - Uses External Module to help Validation Work" style="stroke:#A80036;stroke-width:1.0;"/><polygon fill="#A80036" points="262.84,967,253.84,963,257.84,967,253.84,971,262.84,967" style="stroke:#A80036;stroke-width:1.0;"/><!--MD5=[c6a64984497a38076573b30533232a68]
link Specialist Doctor to UC6 - After Validation Work, \n Reports become available in the system--><path d="M157.75,986.39 C188.3,997.52 227.67,1011.52 263,1023 C286.64,1030.68 312.22,1038.49 336.37,1045.65 " fill="none" id="Specialist Doctor-to-UC6 - After Validation Work, \n Reports become available in the system" style="stroke:#A80036;stroke-width:1.0;"/><polygon fill="#A80036" points="341.18,1047.08,333.6775,1040.6994,336.3839,1045.6669,331.4164,1048.3732,341.18,1047.08" style="stroke:#A80036;stroke-width:1.0;"/><!--MD5=[0390480331dd7dba5c99d84357f4996e]
link Scheduler to UC10 - Generate Daily Reports--><path d="M136.62,416.95 C179,414.16 257.18,409.01 323.49,404.64 " fill="none" id="Scheduler-to-UC10 - Generate Daily Reports" style="stroke:#A80036;stroke-width:1.0;"/><polygon fill="#A80036" points="328.65,404.3,319.4071,400.8988,323.6608,404.6279,319.9317,408.8815,328.65,404.3" style="stroke:#A80036;stroke-width:1.0;"/><!--MD5=[81567be34393ebd8422104200d8a285b]
link Scheduler to UC11 - Company Performance Evaluation--><path d="M136.62,425.62 C180.26,434.89 261.87,452.24 329.39,466.59 " fill="none" id="Scheduler-to-UC11 - Company Performance Evaluation" style="stroke:#A80036;stroke-width:1.0;"/><polygon fill="#A80036" points="334.63,467.71,326.6633,461.9194,329.7402,466.6663,324.9933,469.7431,334.63,467.71" style="stroke:#A80036;stroke-width:1.0;"/><!--MD5=[0f0ba1e72312abc4231e31cc38343f71]
link lc to UC7--><path d="M156.23,716.43 C203.18,707.58 274.47,694.13 333.78,682.94 " fill="none" id="lc-to-UC7" style="stroke:#A80036;stroke-width:1.0;"/><polygon fill="#A80036" points="338.75,682,329.1702,679.7137,333.8343,682.9145,330.6335,687.5787,338.75,682" style="stroke:#A80036;stroke-width:1.0;"/><!--MD5=[9dea0362058f5b60a4f299e69e1444c1]
link lc to UC8--><path d="M156.23,730.56 C197.68,734.28 258.12,739.71 312.53,744.6 " fill="none" id="lc-to-UC8" style="stroke:#A80036;stroke-width:1.0;"/><polygon fill="#A80036" points="317.78,745.07,309.1704,740.2872,312.7997,744.6264,308.4606,748.2557,317.78,745.07" style="stroke:#A80036;stroke-width:1.0;"/><!--MD5=[4310f6f5f752e5afad802c2f9a862857]
link lt to UC9--><path d="M153.35,578 C203.36,578 283.09,578 345.71,578 " fill="none" id="lt-to-UC9" style="stroke:#A80036;stroke-width:1.0;"/><polygon fill="#A80036" points="350.95,578,341.95,574,345.95,578,341.95,582,350.95,578" style="stroke:#A80036;stroke-width:1.0;"/><!--MD5=[e5ceb2f8ddfa8b7e137ab608391778ba]
link Admin to UC12 - Add new types of tests to the system--><path d="M124.41,282 C155.08,282 218.5,282 280.45,282 " fill="none" id="Admin-to-UC12 - Add new types of tests to the system" style="stroke:#A80036;stroke-width:1.0;"/><polygon fill="#A80036" points="285.67,282,276.67,278,280.67,282,276.67,286,285.67,282" style="stroke:#A80036;stroke-width:1.0;"/><!--MD5=[c45498d25ff204271846e7968d9e5837]
link Employee to UC14 - Option to order clients by TIF or name--><path d="M135.73,164 C168.09,164 222.02,164 275.55,164 " fill="none" id="Employee-to-UC14 - Option to order clients by TIF or name" style="stroke:#A80036;stroke-width:1.0;"/><polygon fill="#A80036" points="280.72,164,271.72,160,275.72,164,271.72,168,280.72,164" style="stroke:#A80036;stroke-width:1.0;"/><!--MD5=[a4ade9413c6fa58b7f35cdea952f3d40]
link Client to US13 - Check his medical tests results--><path d="M122.52,46 C155.17,46 229.44,46 297.88,46 " fill="none" id="Client-to-US13 - Check his medical tests results" style="stroke:#A80036;stroke-width:1.0;"/><polygon fill="#A80036" points="303.21,46,294.21,42,298.21,46,294.21,50,303.21,46" style="stroke:#A80036;stroke-width:1.0;"/><!--MD5=[ba60b892068d727670e79ab021852800]
@startuml
'https://plantuml.com/use-case-diagram

left to right direction
:Receptionist: as Recep
Recep - -> (UC1 - Register new Client)
Recep - -> (UC2 - Register Test to perform to a client)
:Clinical Chemistry Technologist: - -> (UC3 - Record Sample Test Results)
:Specialist Doctor: - -> (UC4 - Save diagnosis and report for each sample)
:Specialist Doctor: - -> (UC5 - Uses External Module to help Validation Work)
:Specialist Doctor: - -> (UC6 - After Validation Work, \n Reports become available in the system)

:Lab Coordinator: as lc
(UC7 - Confirm diagnosis and Reports) as UC7
(UC8 - Send SMS and e-mail to Client) as UC8
:Lab Technician: as lt
(UC9 - Record Sample) as UC9

:Scheduler: - -> (UC10 - Generate Daily Reports)
:Scheduler: - -> (UC11 - Company Performance Evaluation)
lc - -> UC7
lc - -> UC8

lt - -> UC9

:Admin: - -> (UC12 - Add new types of tests to the system)
:Employee: - -> (UC14 - Option to order clients by TIF or name)
:Client: - -> (US13 - Check his medical tests results)
@enduml

@startuml

left to right direction
:Receptionist: as Recep
Recep - -> (UC1 - Register new Client)
Recep - -> (UC2 - Register Test to perform to a client)
:Clinical Chemistry Technologist: - -> (UC3 - Record Sample Test Results)
:Specialist Doctor: - -> (UC4 - Save diagnosis and report for each sample)
:Specialist Doctor: - -> (UC5 - Uses External Module to help Validation Work)
:Specialist Doctor: - -> (UC6 - After Validation Work, \n Reports become available in the system)

:Lab Coordinator: as lc
(UC7 - Confirm diagnosis and Reports) as UC7
(UC8 - Send SMS and e-mail to Client) as UC8
:Lab Technician: as lt
(UC9 - Record Sample) as UC9

:Scheduler: - -> (UC10 - Generate Daily Reports)
:Scheduler: - -> (UC11 - Company Performance Evaluation)
lc - -> UC7
lc - -> UC8

lt - -> UC9

:Admin: - -> (UC12 - Add new types of tests to the system)
:Employee: - -> (UC14 - Option to order clients by TIF or name)
:Client: - -> (US13 - Check his medical tests results)
@enduml

PlantUML version 1.2021.00(Sun Jan 10 10:25:05 GMT 2021)
(GPL source distribution)
Java Runtime: OpenJDK Runtime Environment
JVM: OpenJDK 64-Bit Server VM
Default Encoding: Cp1252
Language: en
Country: US
--></g></svg>