<?xml version="1.0" encoding="UTF-8" standalone="no"?><svg xmlns="http://www.w3.org/2000/svg" xmlns:xlink="http://www.w3.org/1999/xlink" contentScriptType="application/ecmascript" contentStyleType="text/css" height="606px" preserveAspectRatio="none" style="width:1129px;height:606px;" version="1.1" viewBox="0 0 1129 606" width="1129px" zoomAndPan="magnify"><defs><filter height="300%" id="fp6esh5w5mktc" width="300%" x="-1" y="-1"><feGaussianBlur result="blurOut" stdDeviation="2.0"/><feColorMatrix in="blurOut" result="blurOut2" type="matrix" values="0 0 0 0 0 0 0 0 0 0 0 0 0 0 0 0 0 0 .4 0"/><feOffset dx="4.0" dy="4.0" in="blurOut2" result="blurOut3"/><feBlend in="SourceGraphic" in2="blurOut3" mode="normal"/></filter></defs><g><!--MD5=[df38be88ccee13e832d6fafd6288a4ca]
class Test--><rect codeLine="3" fill="#FEFECE" filter="url(#fp6esh5w5mktc)" height="117.1797" id="Test" style="stroke:#A80036;stroke-width:1.5;" width="129" x="414.5" y="301"/><ellipse cx="462.75" cy="317" fill="#ADD1B2" rx="11" ry="11" style="stroke:#A80036;stroke-width:1.0;"/><path d="M464.75,313.5 Q464.9531,313 465.1875,312.75 Q465.4219,312.5 465.6875,312.5 Q466.1563,312.5 466.4531,312.7813 Q466.75,313.0625 466.75,313.7188 L466.75,315.2813 Q466.75,315.9375 466.4688,316.2188 Q466.1875,316.5 465.75,316.5 Q465.3594,316.5 465.1094,316.3281 Q464.8594,316.1563 464.75,315.7031 Q464.7031,315.3906 464.5313,315.2188 Q464.2188,314.8906 463.6563,314.7031 Q463.0938,314.5 462.5313,314.5 Q461.8281,314.5 461.2344,314.7813 Q460.6563,315.0625 460.2031,315.6875 Q459.75,316.3125 459.75,317.1719 L459.75,318.0938 Q459.75,319.125 460.5938,319.8125 Q461.4375,320.5 462.9375,320.5 Q463.8281,320.5 464.4531,320.2969 Q464.8125,320.1875 465.2188,319.8281 Q465.4844,319.625 465.625,319.5625 Q465.7656,319.5 465.9375,319.5 Q466.2656,319.5 466.5,319.7656 Q466.75,320.0156 466.75,320.375 Q466.75,320.7188 466.4063,321.125 Q465.9063,321.7188 465.1094,322.0469 Q464.0625,322.5 462.7813,322.5 Q461.2813,322.5 460.0781,321.9063 Q459.1094,321.4375 458.4219,320.4219 Q457.75,319.4063 457.75,318.2031 L457.75,317.1094 Q457.75,315.8594 458.3438,314.7656 Q458.9531,313.6719 460,313.0938 Q461.0625,312.5 462.25,312.5 Q462.9688,312.5 463.5938,312.75 Q464.2188,313 464.75,313.5 Z " fill="#000000"/><text fill="#000000" font-family="sans-serif" font-size="12" lengthAdjust="spacing" textLength="24" x="483.25" y="321.9102">Test</text><line style="stroke:#A80036;stroke-width:1.5;" x1="415.5" x2="542.5" y1="333" y2="333"/><text fill="#000000" font-family="sans-serif" font-size="11" lengthAdjust="spacing" textLength="58" x="420.5" y="348.4189">-Client client</text><text fill="#000000" font-family="sans-serif" font-size="11" lengthAdjust="spacing" textLength="90" x="420.5" y="362.2549">-List parameterList</text><text fill="#000000" font-family="sans-serif" font-size="11" lengthAdjust="spacing" textLength="77" x="420.5" y="376.0908">-Date createdAt</text><text fill="#000000" font-family="sans-serif" font-size="11" lengthAdjust="spacing" textLength="95" x="420.5" y="389.9268">-String internalCode</text><text fill="#000000" font-family="sans-serif" font-size="11" lengthAdjust="spacing" textLength="117" x="420.5" y="403.7627">-Report diagnosisReport</text><line style="stroke:#A80036;stroke-width:1.5;" x1="415.5" x2="542.5" y1="410.1797" y2="410.1797"/><!--MD5=[02e4b9b7573f1156f41e60aa5b4e25a4]
class Company--><rect codeLine="11" fill="#FEFECE" filter="url(#fp6esh5w5mktc)" height="89.5078" id="Company" style="stroke:#A80036;stroke-width:1.5;" width="126" x="7" y="314.5"/><ellipse cx="40.45" cy="330.5" fill="#ADD1B2" rx="11" ry="11" style="stroke:#A80036;stroke-width:1.0;"/><path d="M42.45,327 Q42.6531,326.5 42.8875,326.25 Q43.1219,326 43.3875,326 Q43.8563,326 44.1531,326.2813 Q44.45,326.5625 44.45,327.2188 L44.45,328.7813 Q44.45,329.4375 44.1688,329.7188 Q43.8875,330 43.45,330 Q43.0594,330 42.8094,329.8281 Q42.5594,329.6563 42.45,329.2031 Q42.4031,328.8906 42.2313,328.7188 Q41.9188,328.3906 41.3563,328.2031 Q40.7938,328 40.2313,328 Q39.5281,328 38.9344,328.2813 Q38.3563,328.5625 37.9031,329.1875 Q37.45,329.8125 37.45,330.6719 L37.45,331.5938 Q37.45,332.625 38.2938,333.3125 Q39.1375,334 40.6375,334 Q41.5281,334 42.1531,333.7969 Q42.5125,333.6875 42.9188,333.3281 Q43.1844,333.125 43.325,333.0625 Q43.4656,333 43.6375,333 Q43.9656,333 44.2,333.2656 Q44.45,333.5156 44.45,333.875 Q44.45,334.2188 44.1063,334.625 Q43.6063,335.2188 42.8094,335.5469 Q41.7625,336 40.4813,336 Q38.9813,336 37.7781,335.4063 Q36.8094,334.9375 36.1219,333.9219 Q35.45,332.9063 35.45,331.7031 L35.45,330.6094 Q35.45,329.3594 36.0438,328.2656 Q36.6531,327.1719 37.7,326.5938 Q38.7625,326 39.95,326 Q40.6688,326 41.2938,326.25 Q41.9188,326.5 42.45,327 Z " fill="#000000"/><text fill="#000000" font-family="sans-serif" font-size="12" lengthAdjust="spacing" textLength="53" x="58.55" y="335.4102">Company</text><line style="stroke:#A80036;stroke-width:1.5;" x1="8" x2="132" y1="346.5" y2="346.5"/><text fill="#000000" font-family="sans-serif" font-size="11" lengthAdjust="spacing" textLength="90" x="13" y="361.9189">-String designation</text><line style="stroke:#A80036;stroke-width:1.5;" x1="8" x2="132" y1="368.3359" y2="368.3359"/><text fill="#000000" font-family="sans-serif" font-size="11" lengthAdjust="spacing" textLength="114" x="13" y="383.7549">+Company(designation)</text><text fill="#000000" font-family="sans-serif" font-size="11" lengthAdjust="spacing" textLength="76" x="13" y="397.5908">+getTestStore()</text><!--MD5=[0f6f7964b844a64b0496af0dda7914bd]
class TestStore--><rect codeLine="18" fill="#FEFECE" filter="url(#fp6esh5w5mktc)" height="117.1797" id="TestStore" style="stroke:#A80036;stroke-width:1.5;" width="150" x="191" y="301"/><ellipse cx="235.25" cy="317" fill="#ADD1B2" rx="11" ry="11" style="stroke:#A80036;stroke-width:1.0;"/><path d="M237.25,313.5 Q237.4531,313 237.6875,312.75 Q237.9219,312.5 238.1875,312.5 Q238.6563,312.5 238.9531,312.7813 Q239.25,313.0625 239.25,313.7188 L239.25,315.2813 Q239.25,315.9375 238.9688,316.2188 Q238.6875,316.5 238.25,316.5 Q237.8594,316.5 237.6094,316.3281 Q237.3594,316.1563 237.25,315.7031 Q237.2031,315.3906 237.0313,315.2188 Q236.7188,314.8906 236.1563,314.7031 Q235.5938,314.5 235.0313,314.5 Q234.3281,314.5 233.7344,314.7813 Q233.1563,315.0625 232.7031,315.6875 Q232.25,316.3125 232.25,317.1719 L232.25,318.0938 Q232.25,319.125 233.0938,319.8125 Q233.9375,320.5 235.4375,320.5 Q236.3281,320.5 236.9531,320.2969 Q237.3125,320.1875 237.7188,319.8281 Q237.9844,319.625 238.125,319.5625 Q238.2656,319.5 238.4375,319.5 Q238.7656,319.5 239,319.7656 Q239.25,320.0156 239.25,320.375 Q239.25,320.7188 238.9063,321.125 Q238.4063,321.7188 237.6094,322.0469 Q236.5625,322.5 235.2813,322.5 Q233.7813,322.5 232.5781,321.9063 Q231.6094,321.4375 230.9219,320.4219 Q230.25,319.4063 230.25,318.2031 L230.25,317.1094 Q230.25,315.8594 230.8438,314.7656 Q231.4531,313.6719 232.5,313.0938 Q233.5625,312.5 234.75,312.5 Q235.4688,312.5 236.0938,312.75 Q236.7188,313 237.25,313.5 Z " fill="#000000"/><text fill="#000000" font-family="sans-serif" font-size="12" lengthAdjust="spacing" textLength="53" x="255.75" y="321.9102">TestStore</text><line style="stroke:#A80036;stroke-width:1.5;" x1="192" x2="340" y1="333" y2="333"/><text fill="#000000" font-family="sans-serif" font-size="11" lengthAdjust="spacing" textLength="106" x="197" y="348.4189">-List testValidationList</text><line style="stroke:#A80036;stroke-width:1.5;" x1="192" x2="340" y1="354.8359" y2="354.8359"/><text fill="#000000" font-family="sans-serif" font-size="11" lengthAdjust="spacing" textLength="114" x="197" y="370.2549">+getTestValidationList()</text><text fill="#000000" font-family="sans-serif" font-size="11" lengthAdjust="spacing" textLength="138" x="197" y="384.0908">+getTestsReadyToValidate()</text><text fill="#000000" font-family="sans-serif" font-size="11" lengthAdjust="spacing" textLength="110" x="197" y="397.9268">+saveTestsValidated()</text><text fill="#000000" font-family="sans-serif" font-size="11" lengthAdjust="spacing" textLength="112" x="197" y="411.7627">+getTestByCode(code)</text><!--MD5=[1f6362a5c8f21d8d6a0fce68f3a92a4e]
class Parameter--><rect codeLine="26" fill="#FEFECE" filter="url(#fp6esh5w5mktc)" height="75.6719" id="Parameter" style="stroke:#A80036;stroke-width:1.5;" width="90" x="405" y="517"/><ellipse cx="420" cy="533" fill="#ADD1B2" rx="11" ry="11" style="stroke:#A80036;stroke-width:1.0;"/><path d="M422,529.5 Q422.2031,529 422.4375,528.75 Q422.6719,528.5 422.9375,528.5 Q423.4063,528.5 423.7031,528.7813 Q424,529.0625 424,529.7188 L424,531.2813 Q424,531.9375 423.7188,532.2188 Q423.4375,532.5 423,532.5 Q422.6094,532.5 422.3594,532.3281 Q422.1094,532.1563 422,531.7031 Q421.9531,531.3906 421.7813,531.2188 Q421.4688,530.8906 420.9063,530.7031 Q420.3438,530.5 419.7813,530.5 Q419.0781,530.5 418.4844,530.7813 Q417.9063,531.0625 417.4531,531.6875 Q417,532.3125 417,533.1719 L417,534.0938 Q417,535.125 417.8438,535.8125 Q418.6875,536.5 420.1875,536.5 Q421.0781,536.5 421.7031,536.2969 Q422.0625,536.1875 422.4688,535.8281 Q422.7344,535.625 422.875,535.5625 Q423.0156,535.5 423.1875,535.5 Q423.5156,535.5 423.75,535.7656 Q424,536.0156 424,536.375 Q424,536.7188 423.6563,537.125 Q423.1563,537.7188 422.3594,538.0469 Q421.3125,538.5 420.0313,538.5 Q418.5313,538.5 417.3281,537.9063 Q416.3594,537.4375 415.6719,536.4219 Q415,535.4063 415,534.2031 L415,533.1094 Q415,531.8594 415.5938,530.7656 Q416.2031,529.6719 417.25,529.0938 Q418.3125,528.5 419.5,528.5 Q420.2188,528.5 420.8438,528.75 Q421.4688,529 422,529.5 Z " fill="#000000"/><text fill="#000000" font-family="sans-serif" font-size="12" lengthAdjust="spacing" textLength="58" x="434" y="537.9102">Parameter</text><line style="stroke:#A80036;stroke-width:1.5;" x1="406" x2="494" y1="549" y2="549"/><text fill="#000000" font-family="sans-serif" font-size="11" lengthAdjust="spacing" textLength="77" x="411" y="564.4189">-Date createdAt</text><line style="stroke:#A80036;stroke-width:1.5;" x1="406" x2="494" y1="570.8359" y2="570.8359"/><text fill="#000000" font-family="sans-serif" font-size="11" lengthAdjust="spacing" textLength="78" x="411" y="586.2549">+getCreatedAt()</text><!--MD5=[07d69824882f5c4917305c4c8759acf4]
class TestValidationController--><rect codeLine="31" fill="#FEFECE" filter="url(#fp6esh5w5mktc)" height="103.3438" id="TestValidationController" style="stroke:#A80036;stroke-width:1.5;" width="164" x="397" y="116"/><ellipse cx="412" cy="132" fill="#ADD1B2" rx="11" ry="11" style="stroke:#A80036;stroke-width:1.0;"/><path d="M414,128.5 Q414.2031,128 414.4375,127.75 Q414.6719,127.5 414.9375,127.5 Q415.4063,127.5 415.7031,127.7813 Q416,128.0625 416,128.7188 L416,130.2813 Q416,130.9375 415.7188,131.2188 Q415.4375,131.5 415,131.5 Q414.6094,131.5 414.3594,131.3281 Q414.1094,131.1563 414,130.7031 Q413.9531,130.3906 413.7813,130.2188 Q413.4688,129.8906 412.9063,129.7031 Q412.3438,129.5 411.7813,129.5 Q411.0781,129.5 410.4844,129.7813 Q409.9063,130.0625 409.4531,130.6875 Q409,131.3125 409,132.1719 L409,133.0938 Q409,134.125 409.8438,134.8125 Q410.6875,135.5 412.1875,135.5 Q413.0781,135.5 413.7031,135.2969 Q414.0625,135.1875 414.4688,134.8281 Q414.7344,134.625 414.875,134.5625 Q415.0156,134.5 415.1875,134.5 Q415.5156,134.5 415.75,134.7656 Q416,135.0156 416,135.375 Q416,135.7188 415.6563,136.125 Q415.1563,136.7188 414.3594,137.0469 Q413.3125,137.5 412.0313,137.5 Q410.5313,137.5 409.3281,136.9063 Q408.3594,136.4375 407.6719,135.4219 Q407,134.4063 407,133.2031 L407,132.1094 Q407,130.8594 407.5938,129.7656 Q408.2031,128.6719 409.25,128.0938 Q410.3125,127.5 411.5,127.5 Q412.2188,127.5 412.8438,127.75 Q413.4688,128 414,128.5 Z " fill="#000000"/><text fill="#000000" font-family="sans-serif" font-size="12" lengthAdjust="spacing" textLength="132" x="426" y="136.9102">TestValidationController</text><line style="stroke:#A80036;stroke-width:1.5;" x1="398" x2="560" y1="148" y2="148"/><line style="stroke:#A80036;stroke-width:1.5;" x1="398" x2="560" y1="156" y2="156"/><text fill="#000000" font-family="sans-serif" font-size="11" lengthAdjust="spacing" textLength="138" x="403" y="171.4189">+getTestsReadyToValidate()</text><text fill="#000000" font-family="sans-serif" font-size="11" lengthAdjust="spacing" textLength="110" x="403" y="185.2549">+saveTestsValidated()</text><text fill="#000000" font-family="sans-serif" font-size="11" lengthAdjust="spacing" textLength="114" x="403" y="199.0908">+getTestValidationList()</text><text fill="#000000" font-family="sans-serif" font-size="11" lengthAdjust="spacing" textLength="139" x="403" y="212.9268">+createTestValidation(testId)</text><!--MD5=[f00dbe8c0302c6aec2cb26b3c659c8fc]
class Report--><rect codeLine="39" fill="#FEFECE" filter="url(#fp6esh5w5mktc)" height="75.6719" id="Report" style="stroke:#A80036;stroke-width:1.5;" width="90" x="530" y="517"/><ellipse cx="554.45" cy="533" fill="#ADD1B2" rx="11" ry="11" style="stroke:#A80036;stroke-width:1.0;"/><path d="M556.45,529.5 Q556.6531,529 556.8875,528.75 Q557.1219,528.5 557.3875,528.5 Q557.8563,528.5 558.1531,528.7813 Q558.45,529.0625 558.45,529.7188 L558.45,531.2813 Q558.45,531.9375 558.1688,532.2188 Q557.8875,532.5 557.45,532.5 Q557.0594,532.5 556.8094,532.3281 Q556.5594,532.1563 556.45,531.7031 Q556.4031,531.3906 556.2313,531.2188 Q555.9188,530.8906 555.3563,530.7031 Q554.7938,530.5 554.2313,530.5 Q553.5281,530.5 552.9344,530.7813 Q552.3563,531.0625 551.9031,531.6875 Q551.45,532.3125 551.45,533.1719 L551.45,534.0938 Q551.45,535.125 552.2938,535.8125 Q553.1375,536.5 554.6375,536.5 Q555.5281,536.5 556.1531,536.2969 Q556.5125,536.1875 556.9188,535.8281 Q557.1844,535.625 557.325,535.5625 Q557.4656,535.5 557.6375,535.5 Q557.9656,535.5 558.2,535.7656 Q558.45,536.0156 558.45,536.375 Q558.45,536.7188 558.1063,537.125 Q557.6063,537.7188 556.8094,538.0469 Q555.7625,538.5 554.4813,538.5 Q552.9813,538.5 551.7781,537.9063 Q550.8094,537.4375 550.1219,536.4219 Q549.45,535.4063 549.45,534.2031 L549.45,533.1094 Q549.45,531.8594 550.0438,530.7656 Q550.6531,529.6719 551.7,529.0938 Q552.7625,528.5 553.95,528.5 Q554.6688,528.5 555.2938,528.75 Q555.9188,529 556.45,529.5 Z " fill="#000000"/><text fill="#000000" font-family="sans-serif" font-size="12" lengthAdjust="spacing" textLength="37" x="570.55" y="537.9102">Report</text><line style="stroke:#A80036;stroke-width:1.5;" x1="531" x2="619" y1="549" y2="549"/><text fill="#000000" font-family="sans-serif" font-size="11" lengthAdjust="spacing" textLength="77" x="536" y="564.4189">-Date createdAt</text><line style="stroke:#A80036;stroke-width:1.5;" x1="531" x2="619" y1="570.8359" y2="570.8359"/><text fill="#000000" font-family="sans-serif" font-size="11" lengthAdjust="spacing" textLength="78" x="536" y="586.2549">+getCreatedAt()</text><!--MD5=[76b5e19c9337179d2d7ae334371d68c8]
class Notification--><rect codeLine="45" fill="#FEFECE" filter="url(#fp6esh5w5mktc)" height="61.8359" id="Notification" style="stroke:#A80036;stroke-width:1.5;" width="149" x="191.5" y="524"/><ellipse cx="231.7" cy="540" fill="#ADD1B2" rx="11" ry="11" style="stroke:#A80036;stroke-width:1.0;"/><path d="M233.7,536.5 Q233.9031,536 234.1375,535.75 Q234.3719,535.5 234.6375,535.5 Q235.1063,535.5 235.4031,535.7813 Q235.7,536.0625 235.7,536.7188 L235.7,538.2813 Q235.7,538.9375 235.4188,539.2188 Q235.1375,539.5 234.7,539.5 Q234.3094,539.5 234.0594,539.3281 Q233.8094,539.1563 233.7,538.7031 Q233.6531,538.3906 233.4813,538.2188 Q233.1688,537.8906 232.6063,537.7031 Q232.0438,537.5 231.4813,537.5 Q230.7781,537.5 230.1844,537.7813 Q229.6063,538.0625 229.1531,538.6875 Q228.7,539.3125 228.7,540.1719 L228.7,541.0938 Q228.7,542.125 229.5438,542.8125 Q230.3875,543.5 231.8875,543.5 Q232.7781,543.5 233.4031,543.2969 Q233.7625,543.1875 234.1688,542.8281 Q234.4344,542.625 234.575,542.5625 Q234.7156,542.5 234.8875,542.5 Q235.2156,542.5 235.45,542.7656 Q235.7,543.0156 235.7,543.375 Q235.7,543.7188 235.3563,544.125 Q234.8563,544.7188 234.0594,545.0469 Q233.0125,545.5 231.7313,545.5 Q230.2313,545.5 229.0281,544.9063 Q228.0594,544.4375 227.3719,543.4219 Q226.7,542.4063 226.7,541.2031 L226.7,540.1094 Q226.7,538.8594 227.2938,537.7656 Q227.9031,536.6719 228.95,536.0938 Q230.0125,535.5 231.2,535.5 Q231.9188,535.5 232.5438,535.75 Q233.1688,536 233.7,536.5 Z " fill="#000000"/><text fill="#000000" font-family="sans-serif" font-size="12" lengthAdjust="spacing" textLength="61" x="251.3" y="544.9102">Notification</text><line style="stroke:#A80036;stroke-width:1.5;" x1="192.5" x2="339.5" y1="556" y2="556"/><line style="stroke:#A80036;stroke-width:1.5;" x1="192.5" x2="339.5" y1="564" y2="564"/><text fill="#000000" font-family="sans-serif" font-size="11" lengthAdjust="spacing" textLength="137" x="197.5" y="579.4189">+sendEmailSMSNotification()</text><!--MD5=[c0a20d6e1e8172a689f243333e7ba774]
class TestReadyToValidateDTO--><rect codeLine="49" fill="#FEFECE" filter="url(#fp6esh5w5mktc)" height="158.6875" id="TestReadyToValidateDTO" style="stroke:#A80036;stroke-width:1.5;" width="186" x="579" y="280"/><ellipse cx="599.4" cy="296" fill="#ADD1B2" rx="11" ry="11" style="stroke:#A80036;stroke-width:1.0;"/><path d="M601.4,292.5 Q601.6031,292 601.8375,291.75 Q602.0719,291.5 602.3375,291.5 Q602.8063,291.5 603.1031,291.7813 Q603.4,292.0625 603.4,292.7188 L603.4,294.2813 Q603.4,294.9375 603.1188,295.2188 Q602.8375,295.5 602.4,295.5 Q602.0094,295.5 601.7594,295.3281 Q601.5094,295.1563 601.4,294.7031 Q601.3531,294.3906 601.1813,294.2188 Q600.8688,293.8906 600.3063,293.7031 Q599.7438,293.5 599.1813,293.5 Q598.4781,293.5 597.8844,293.7813 Q597.3063,294.0625 596.8531,294.6875 Q596.4,295.3125 596.4,296.1719 L596.4,297.0938 Q596.4,298.125 597.2438,298.8125 Q598.0875,299.5 599.5875,299.5 Q600.4781,299.5 601.1031,299.2969 Q601.4625,299.1875 601.8688,298.8281 Q602.1344,298.625 602.275,298.5625 Q602.4156,298.5 602.5875,298.5 Q602.9156,298.5 603.15,298.7656 Q603.4,299.0156 603.4,299.375 Q603.4,299.7188 603.0563,300.125 Q602.5563,300.7188 601.7594,301.0469 Q600.7125,301.5 599.4313,301.5 Q597.9313,301.5 596.7281,300.9063 Q595.7594,300.4375 595.0719,299.4219 Q594.4,298.4063 594.4,297.2031 L594.4,296.1094 Q594.4,294.8594 594.9938,293.7656 Q595.6031,292.6719 596.65,292.0938 Q597.7125,291.5 598.9,291.5 Q599.6188,291.5 600.2438,291.75 Q600.8688,292 601.4,292.5 Z " fill="#000000"/><text fill="#000000" font-family="sans-serif" font-size="12" lengthAdjust="spacing" textLength="142" x="614.6" y="300.9102">TestReadyToValidateDTO</text><line style="stroke:#A80036;stroke-width:1.5;" x1="580" x2="764" y1="312" y2="312"/><text fill="#000000" font-family="sans-serif" font-size="11" lengthAdjust="spacing" textLength="95" x="585" y="327.4189">-String internalCode</text><text fill="#000000" font-family="sans-serif" font-size="11" lengthAdjust="spacing" textLength="109" x="585" y="341.2549">-Date testCreationDate</text><text fill="#000000" font-family="sans-serif" font-size="11" lengthAdjust="spacing" textLength="169" x="585" y="355.0908">-Date diagnosisReportCreationDate</text><text fill="#000000" font-family="sans-serif" font-size="11" lengthAdjust="spacing" textLength="168" x="585" y="368.9268">-List dateListTestParameterResults</text><line style="stroke:#A80036;stroke-width:1.5;" x1="580" x2="764" y1="375.3438" y2="375.3438"/><text fill="#000000" font-family="sans-serif" font-size="11" lengthAdjust="spacing" textLength="112" x="585" y="390.7627">+getTestCreationDate()</text><text fill="#000000" font-family="sans-serif" font-size="11" lengthAdjust="spacing" textLength="170" x="585" y="404.5986">+getDiagnosisReportCreationDate()</text><text fill="#000000" font-family="sans-serif" font-size="11" lengthAdjust="spacing" textLength="174" x="585" y="418.4346">+getDateListTestParameterResults()</text><text fill="#000000" font-family="sans-serif" font-size="11" lengthAdjust="spacing" textLength="58" x="585" y="432.2705">+getTestId()</text><!--MD5=[efd5aa4aac6aaff8aacf22185b384014]
class TestsReadyToValidateMapper--><rect codeLine="60" fill="#FEFECE" filter="url(#fp6esh5w5mktc)" height="61.8359" id="TestsReadyToValidateMapper" style="stroke:#A80036;stroke-width:1.5;" width="315" x="800.5" y="328.5"/><ellipse cx="871.25" cy="344.5" fill="#ADD1B2" rx="11" ry="11" style="stroke:#A80036;stroke-width:1.0;"/><path d="M873.25,341 Q873.4531,340.5 873.6875,340.25 Q873.9219,340 874.1875,340 Q874.6563,340 874.9531,340.2813 Q875.25,340.5625 875.25,341.2188 L875.25,342.7813 Q875.25,343.4375 874.9688,343.7188 Q874.6875,344 874.25,344 Q873.8594,344 873.6094,343.8281 Q873.3594,343.6563 873.25,343.2031 Q873.2031,342.8906 873.0313,342.7188 Q872.7188,342.3906 872.1563,342.2031 Q871.5938,342 871.0313,342 Q870.3281,342 869.7344,342.2813 Q869.1563,342.5625 868.7031,343.1875 Q868.25,343.8125 868.25,344.6719 L868.25,345.5938 Q868.25,346.625 869.0938,347.3125 Q869.9375,348 871.4375,348 Q872.3281,348 872.9531,347.7969 Q873.3125,347.6875 873.7188,347.3281 Q873.9844,347.125 874.125,347.0625 Q874.2656,347 874.4375,347 Q874.7656,347 875,347.2656 Q875.25,347.5156 875.25,347.875 Q875.25,348.2188 874.9063,348.625 Q874.4063,349.2188 873.6094,349.5469 Q872.5625,350 871.2813,350 Q869.7813,350 868.5781,349.4063 Q867.6094,348.9375 866.9219,347.9219 Q866.25,346.9063 866.25,345.7031 L866.25,344.6094 Q866.25,343.3594 866.8438,342.2656 Q867.4531,341.1719 868.5,340.5938 Q869.5625,340 870.75,340 Q871.4688,340 872.0938,340.25 Q872.7188,340.5 873.25,341 Z " fill="#000000"/><text fill="#000000" font-family="sans-serif" font-size="12" lengthAdjust="spacing" textLength="165" x="891.75" y="349.4102">TestsReadyToValidateMapper</text><line style="stroke:#A80036;stroke-width:1.5;" x1="801.5" x2="1114.5" y1="360.5" y2="360.5"/><line style="stroke:#A80036;stroke-width:1.5;" x1="801.5" x2="1114.5" y1="368.5" y2="368.5"/><text fill="#000000" font-family="sans-serif" font-size="11" lengthAdjust="spacing" textLength="303" x="806.5" y="383.9189">+List&lt;String&gt;toDTO(List&lt;CATest&gt; listOfTestsReadyToValidate)</text><!--MD5=[a6375d10cd30bfe1fcebd0a341259888]
class TestValidationUI--><rect fill="#FEFECE" filter="url(#fp6esh5w5mktc)" height="48" id="TestValidationUI" style="stroke:#A80036;stroke-width:1.5;" width="122" x="418" y="7"/><ellipse cx="433" cy="23" fill="#ADD1B2" rx="11" ry="11" style="stroke:#A80036;stroke-width:1.0;"/><path d="M435,19.5 Q435.2031,19 435.4375,18.75 Q435.6719,18.5 435.9375,18.5 Q436.4063,18.5 436.7031,18.7813 Q437,19.0625 437,19.7188 L437,21.2813 Q437,21.9375 436.7188,22.2188 Q436.4375,22.5 436,22.5 Q435.6094,22.5 435.3594,22.3281 Q435.1094,22.1563 435,21.7031 Q434.9531,21.3906 434.7813,21.2188 Q434.4688,20.8906 433.9063,20.7031 Q433.3438,20.5 432.7813,20.5 Q432.0781,20.5 431.4844,20.7813 Q430.9063,21.0625 430.4531,21.6875 Q430,22.3125 430,23.1719 L430,24.0938 Q430,25.125 430.8438,25.8125 Q431.6875,26.5 433.1875,26.5 Q434.0781,26.5 434.7031,26.2969 Q435.0625,26.1875 435.4688,25.8281 Q435.7344,25.625 435.875,25.5625 Q436.0156,25.5 436.1875,25.5 Q436.5156,25.5 436.75,25.7656 Q437,26.0156 437,26.375 Q437,26.7188 436.6563,27.125 Q436.1563,27.7188 435.3594,28.0469 Q434.3125,28.5 433.0313,28.5 Q431.5313,28.5 430.3281,27.9063 Q429.3594,27.4375 428.6719,26.4219 Q428,25.4063 428,24.2031 L428,23.1094 Q428,21.8594 428.5938,20.7656 Q429.2031,19.6719 430.25,19.0938 Q431.3125,18.5 432.5,18.5 Q433.2188,18.5 433.8438,18.75 Q434.4688,19 435,19.5 Z " fill="#000000"/><text fill="#000000" font-family="sans-serif" font-size="12" lengthAdjust="spacing" textLength="90" x="447" y="27.9102">TestValidationUI</text><line style="stroke:#A80036;stroke-width:1.5;" x1="419" x2="539" y1="39" y2="39"/><line style="stroke:#A80036;stroke-width:1.5;" x1="419" x2="539" y1="47" y2="47"/><!--MD5=[b926216817eef87f8930643adaf97732]
link TestValidationUI to TestValidationController--><path codeLine="64" d="M479,55.12 C479,70.36 479,91.02 479,110.4 " fill="none" id="TestValidationUI-to-TestValidationController" style="stroke:#A80036;stroke-width:1.0;stroke-dasharray:7.0,7.0;"/><polygon fill="#A80036" points="479,115.83,483,106.83,479,110.83,475,106.83,479,115.83" style="stroke:#A80036;stroke-width:1.0;"/><!--MD5=[1a6c927fd1de65f6e9a840e4388c5fbe]
link TestValidationController to TestStore--><path codeLine="66" d="M422.2,219.17 C395.19,243.26 362.68,272.26 334.34,297.54 " fill="none" id="TestValidationController-to-TestStore" style="stroke:#A80036;stroke-width:1.0;stroke-dasharray:7.0,7.0;"/><polygon fill="#A80036" points="330.54,300.93,339.9177,297.9203,334.2699,297.6002,334.5901,291.9524,330.54,300.93" style="stroke:#A80036;stroke-width:1.0;"/><!--MD5=[712a1ca417d5faeab8f3a567387f168b]
link TestValidationController to Company--><path codeLine="67" d="M396.87,191.03 C333.55,210.12 244.94,240.67 173,280 C156.86,288.82 140.52,300.02 125.75,311.18 " fill="none" id="TestValidationController-to-Company" style="stroke:#A80036;stroke-width:1.0;stroke-dasharray:7.0,7.0;"/><polygon fill="#A80036" points="121.63,314.33,131.2069,312.0314,125.599,311.289,126.3413,305.6811,121.63,314.33" style="stroke:#A80036;stroke-width:1.0;"/><!--MD5=[1d9d1490d61f1ca2bf831b4ba6ea3bab]
link TestValidationController to TestReadyToValidateDTO--><path codeLine="68" d="M530.47,219.17 C548.16,236.58 568.45,256.56 588.05,275.85 " fill="none" id="TestValidationController-to-TestReadyToValidateDTO" style="stroke:#A80036;stroke-width:1.0;stroke-dasharray:7.0,7.0;"/><polygon fill="#A80036" points="591.96,279.7,588.3502,270.5365,588.396,276.1932,582.7393,276.239,591.96,279.7" style="stroke:#A80036;stroke-width:1.0;"/><!--MD5=[b482964fb94f30df07abfedf435f4737]
link TestValidationController to TestsReadyToValidateMapper--><path codeLine="69" d="M561.21,196.89 C622.71,218.56 708.67,249.74 783,280 C818.27,294.36 856.96,311.56 888.97,326.19 " fill="none" id="TestValidationController-to-TestsReadyToValidateMapper" style="stroke:#A80036;stroke-width:1.0;stroke-dasharray:7.0,7.0;"/><polygon fill="#A80036" points="893.64,328.33,887.1298,320.9396,889.096,326.2438,883.7919,328.21,893.64,328.33" style="stroke:#A80036;stroke-width:1.0;"/><!--MD5=[e13b2c5d9798e09c112bdc207a44ad61]
link TestValidationController to Test--><path codeLine="70" d="M479,219.42 C479,242.81 479,270.8 479,295.51 " fill="none" id="TestValidationController-to-Test" style="stroke:#A80036;stroke-width:1.0;stroke-dasharray:7.0,7.0;"/><polygon fill="#A80036" points="479,300.73,483,291.73,479,295.73,475,291.73,479,300.73" style="stroke:#A80036;stroke-width:1.0;"/><!--MD5=[7f6cf7f175eae0af66201860de5de971]
link Company to TestStore--><path codeLine="72" d="M133.09,359.5 C149.73,359.5 167.9,359.5 185.32,359.5 " fill="none" id="Company-to-TestStore" style="stroke:#A80036;stroke-width:1.0;"/><polygon fill="#A80036" points="190.7,359.5,181.7,355.5,185.7,359.5,181.7,363.5,190.7,359.5" style="stroke:#A80036;stroke-width:1.0;"/><text fill="#000000" font-family="sans-serif" font-size="13" lengthAdjust="spacing" textLength="21" x="151.5" y="352.9951">use</text><text fill="#000000" font-family="sans-serif" font-size="13" lengthAdjust="spacing" textLength="7" x="141.2057" y="356.0715">1</text><text fill="#000000" font-family="sans-serif" font-size="13" lengthAdjust="spacing" textLength="7" x="175.9431" y="356.2161">1</text><!--MD5=[b0f4f6db8206580012ef9cd998ed01c5]
link TestStore to Test--><path codeLine="74" d="M341.1,359.5 C363.27,359.5 387.44,359.5 409.27,359.5 " fill="none" id="TestStore-to-Test" style="stroke:#A80036;stroke-width:1.0;"/><polygon fill="#A80036" points="414.47,359.5,405.47,355.5,409.47,359.5,405.47,363.5,414.47,359.5" style="stroke:#A80036;stroke-width:1.0;"/><text fill="#000000" font-family="sans-serif" font-size="13" lengthAdjust="spacing" textLength="37" x="359.25" y="352.9951">knows</text><text fill="#000000" font-family="sans-serif" font-size="13" lengthAdjust="spacing" textLength="7" x="349.2056" y="356.179">1</text><text fill="#000000" font-family="sans-serif" font-size="13" lengthAdjust="spacing" textLength="7" x="399.604" y="356.0801">1</text><!--MD5=[686e6651182b1b80a708ae9027dfb9df]
reverse link Test to Report--><path codeLine="76" d="M509.8,422.57 C525.2,453.62 543.33,490.17 556.56,516.83 " fill="none" id="Test-backto-Report" style="stroke:#A80036;stroke-width:1.0;"/><polygon fill="#A80036" points="507.54,418.03,507.9746,427.8693,509.7703,422.505,515.1346,424.3007,507.54,418.03" style="stroke:#A80036;stroke-width:1.0;"/><!--MD5=[ba3d368d308892647b319d7fb44cf09f]
reverse link Test to Parameter--><path codeLine="77" d="M469.58,423.34 C464.95,454.22 459.53,490.39 455.57,516.83 " fill="none" id="Test-backto-Parameter" style="stroke:#A80036;stroke-width:1.0;"/><polygon fill="#A80036" points="470.38,418.03,465.0868,426.3356,469.6369,422.9745,472.998,427.5245,470.38,418.03" style="stroke:#A80036;stroke-width:1.0;"/><!--MD5=[4c6a0ee35e41f39698ca2bb716ea535a]
link TestStore to Notification--><path codeLine="79" d="M266,418.03 C266,450.75 266,490.68 266,518.77 " fill="none" id="TestStore-to-Notification" style="stroke:#A80036;stroke-width:1.0;"/><polygon fill="#A80036" points="266,523.88,270,514.88,266,518.88,262,514.88,266,523.88" style="stroke:#A80036;stroke-width:1.0;"/><text fill="#000000" font-family="sans-serif" font-size="13" lengthAdjust="spacing" textLength="28" x="267" y="483.4951">send</text><!--MD5=[de47c6fec6b5dc9fcddb5fff211e5b1b]
@startuml
skinparam classAttributeIconSize 0

class Test {
  - Client client
  - List parameterList
  - Date createdAt
  - String internalCode
  - Report diagnosisReport
}

class Company {
  - String designation
  + Company(designation)
  + getTestStore()
}


class TestStore {
    - List testValidationList
    + getTestValidationList()
    + getTestsReadyToValidate()
    + saveTestsValidated()
    + getTestByCode(code)
}

class Parameter{
- Date createdAt
  + getCreatedAt()
}

class TestValidationController {
  + getTestsReadyToValidate()
  + saveTestsValidated()
  + getTestValidationList()
  + createTestValidation(testId)
}


class Report {
  - Date createdAt
  + getCreatedAt()
}


class Notification {
  + sendEmailSMSNotification()
}

class TestReadyToValidateDTO {
  -  String internalCode
  - Date testCreationDate
  - Date diagnosisReportCreationDate
  - List dateListTestParameterResults
  + getTestCreationDate()
  + getDiagnosisReportCreationDate()
  + getDateListTestParameterResults()
  + getTestId()
}

class TestsReadyToValidateMapper {
  + List<String>toDTO(List<CATest> listOfTestsReadyToValidate)
}

TestValidationUI ..> TestValidationController

TestValidationController ..> TestStore
TestValidationController ..> Company
TestValidationController ..> TestReadyToValidateDTO
TestValidationController ..> TestsReadyToValidateMapper
TestValidationController ..> Test

Company "1" -> "1" TestStore : use

TestStore "1" -> "1" Test : knows

Test <- - Report
Test <- - Parameter

TestStore - -> Notification : send

@enduml

PlantUML version 1.2021.5(Sun Apr 25 12:20:28 BST 2021)
(GPL source distribution)
Java Runtime: OpenJDK Runtime Environment
JVM: Dynamic Code Evolution 64-Bit Server VM
Default Encoding: Cp1252
Language: pt
Country: PT
--></g></svg>