<?xml version="1.0" encoding="UTF-8" standalone="no"?><svg xmlns="http://www.w3.org/2000/svg" xmlns:xlink="http://www.w3.org/1999/xlink" contentScriptType="application/ecmascript" contentStyleType="text/css" height="893px" preserveAspectRatio="none" style="width:945px;height:893px;" version="1.1" viewBox="0 0 945 893" width="945px" zoomAndPan="magnify"><defs><filter height="300%" id="fusv20t2ubteq" width="300%" x="-1" y="-1"><feGaussianBlur result="blurOut" stdDeviation="2.0"/><feColorMatrix in="blurOut" result="blurOut2" type="matrix" values="0 0 0 0 0 0 0 0 0 0 0 0 0 0 0 0 0 0 .4 0"/><feOffset dx="4.0" dy="4.0" in="blurOut2" result="blurOut3"/><feBlend in="SourceGraphic" in2="blurOut3" mode="normal"/></filter></defs><g><!--MD5=[1f2cfc53d9d308f53762fd0fcbaa4873]
cluster Controller--><polygon fill="#FFFFFF" filter="url(#fusv20t2ubteq)" points="247,173,324,173,331,196.6094,447,196.6094,447,362,247,362,247,173" style="stroke:#000000;stroke-width:1.5;"/><line style="stroke:#000000;stroke-width:1.5;" x1="247" x2="331" y1="196.6094" y2="196.6094"/><text fill="#000000" font-family="sans-serif" font-size="14" font-weight="bold" lengthAdjust="spacing" textLength="71" x="251" y="189.5332">Controller</text><!--MD5=[701152d03fbf85133a1de050cfdbc7fd]
cluster Mappers--><polygon fill="#FFFFFF" filter="url(#fusv20t2ubteq)" points="56,6,124,6,131,29.6094,404,29.6094,404,140,56,140,56,6" style="stroke:#000000;stroke-width:1.5;"/><line style="stroke:#000000;stroke-width:1.5;" x1="56" x2="131" y1="29.6094" y2="29.6094"/><text fill="#000000" font-family="sans-serif" font-size="14" font-weight="bold" lengthAdjust="spacing" textLength="62" x="60" y="22.5332">Mappers</text><!--MD5=[121a8bf1197281ab89ed693fab589f94]
cluster Domain--><polygon fill="#FFFFFF" filter="url(#fusv20t2ubteq)" points="16,412,74,412,81,435.6094,696,435.6094,696,886,16,886,16,412" style="stroke:#000000;stroke-width:1.5;"/><line style="stroke:#000000;stroke-width:1.5;" x1="16" x2="81" y1="435.6094" y2="435.6094"/><text fill="#000000" font-family="sans-serif" font-size="14" font-weight="bold" lengthAdjust="spacing" textLength="52" x="20" y="428.5332">Domain</text><!--MD5=[15636c1ca4a123c16a2a1a8e90aca7a9]
cluster Model--><polygon fill="#FFFFFF" filter="url(#fusv20t2ubteq)" points="40,456,90,456,97,479.6094,449,479.6094,449,862,40,862,40,456" style="stroke:#000000;stroke-width:1.5;"/><line style="stroke:#000000;stroke-width:1.5;" x1="40" x2="97" y1="479.6094" y2="479.6094"/><text fill="#000000" font-family="sans-serif" font-size="14" font-weight="bold" lengthAdjust="spacing" textLength="44" x="44" y="472.5332">Model</text><!--MD5=[7ce1723ddb6e6233854253973eae5a71]
cluster Store--><polygon fill="#FFFFFF" filter="url(#fusv20t2ubteq)" points="490,470,534,470,541,493.6094,672,493.6094,672,659,490,659,490,470" style="stroke:#000000;stroke-width:1.5;"/><line style="stroke:#000000;stroke-width:1.5;" x1="490" x2="541" y1="493.6094" y2="493.6094"/><text fill="#000000" font-family="sans-serif" font-size="14" font-weight="bold" lengthAdjust="spacing" textLength="38" x="494" y="486.5332">Store</text><!--MD5=[0d99d65ace22e45511a90a7e65fdb1f1]
cluster Shared--><polygon fill="#FFFFFF" filter="url(#fusv20t2ubteq)" points="720,721,776,721,783,744.6094,928,744.6094,928,855,720,855,720,721" style="stroke:#000000;stroke-width:1.5;"/><line style="stroke:#000000;stroke-width:1.5;" x1="720" x2="783" y1="744.6094" y2="744.6094"/><text fill="#000000" font-family="sans-serif" font-size="14" font-weight="bold" lengthAdjust="spacing" textLength="50" x="724" y="737.5332">Shared</text><!--MD5=[9681dc6e01e10c6b4fe06895ae94f592]
cluster UI--><polygon fill="#FFFFFF" filter="url(#fusv20t2ubteq)" points="428,13,448,13,455,36.6094,558,36.6094,558,133,428,133,428,13" style="stroke:#000000;stroke-width:1.5;"/><line style="stroke:#000000;stroke-width:1.5;" x1="428" x2="455" y1="36.6094" y2="36.6094"/><text fill="#000000" font-family="sans-serif" font-size="14" font-weight="bold" lengthAdjust="spacing" textLength="14" x="432" y="29.5332">UI</text><!--MD5=[c83e865530b86129c533921fe8806bee]
class ValidationController--><rect codeLine="3" fill="#FEFECE" filter="url(#fusv20t2ubteq)" height="117.1797" id="ValidationController" style="stroke:#A80036;stroke-width:1.5;" width="167" x="263.5" y="229"/><ellipse cx="290.65" cy="245" fill="#ADD1B2" rx="11" ry="11" style="stroke:#A80036;stroke-width:1.0;"/><path d="M292.65,241.5 Q292.8531,241 293.0875,240.75 Q293.3219,240.5 293.5875,240.5 Q294.0563,240.5 294.3531,240.7813 Q294.65,241.0625 294.65,241.7188 L294.65,243.2813 Q294.65,243.9375 294.3688,244.2188 Q294.0875,244.5 293.65,244.5 Q293.2594,244.5 293.0094,244.3281 Q292.7594,244.1563 292.65,243.7031 Q292.6031,243.3906 292.4313,243.2188 Q292.1188,242.8906 291.5563,242.7031 Q290.9938,242.5 290.4313,242.5 Q289.7281,242.5 289.1344,242.7813 Q288.5563,243.0625 288.1031,243.6875 Q287.65,244.3125 287.65,245.1719 L287.65,246.0938 Q287.65,247.125 288.4938,247.8125 Q289.3375,248.5 290.8375,248.5 Q291.7281,248.5 292.3531,248.2969 Q292.7125,248.1875 293.1188,247.8281 Q293.3844,247.625 293.525,247.5625 Q293.6656,247.5 293.8375,247.5 Q294.1656,247.5 294.4,247.7656 Q294.65,248.0156 294.65,248.375 Q294.65,248.7188 294.3063,249.125 Q293.8063,249.7188 293.0094,250.0469 Q291.9625,250.5 290.6813,250.5 Q289.1813,250.5 287.9781,249.9063 Q287.0094,249.4375 286.3219,248.4219 Q285.65,247.4063 285.65,246.2031 L285.65,245.1094 Q285.65,243.8594 286.2438,242.7656 Q286.8531,241.6719 287.9,241.0938 Q288.9625,240.5 290.15,240.5 Q290.8688,240.5 291.4938,240.75 Q292.1188,241 292.65,241.5 Z " fill="#000000"/><text fill="#000000" font-family="sans-serif" font-size="12" lengthAdjust="spacing" textLength="108" x="307.35" y="249.9102">ValidationController</text><line style="stroke:#A80036;stroke-width:1.5;" x1="264.5" x2="429.5" y1="261" y2="261"/><line style="stroke:#A80036;stroke-width:1.5;" x1="264.5" x2="429.5" y1="269" y2="269"/><text fill="#000000" font-family="sans-serif" font-size="11" lengthAdjust="spacing" textLength="139" x="269.5" y="284.4189">+getTestsWithoutValidation()</text><text fill="#000000" font-family="sans-serif" font-size="11" lengthAdjust="spacing" textLength="85" x="269.5" y="298.2549">+saveValidation()</text><text fill="#000000" font-family="sans-serif" font-size="11" lengthAdjust="spacing" textLength="114" x="269.5" y="312.0908">+getTestValidationList()</text><text fill="#000000" font-family="sans-serif" font-size="11" lengthAdjust="spacing" textLength="110" x="269.5" y="325.9268">+getTestResults(code)</text><text fill="#000000" font-family="sans-serif" font-size="11" lengthAdjust="spacing" textLength="155" x="269.5" y="339.7627">+doValidation(testValidationList)</text><!--MD5=[efd5aa4aac6aaff8aacf22185b384014]
class TestsReadyToValidateMapper--><rect codeLine="12" fill="#FEFECE" filter="url(#fusv20t2ubteq)" height="61.8359" id="TestsReadyToValidateMapper" style="stroke:#A80036;stroke-width:1.5;" width="315" x="72.5" y="62"/><ellipse cx="143.25" cy="78" fill="#ADD1B2" rx="11" ry="11" style="stroke:#A80036;stroke-width:1.0;"/><path d="M145.25,74.5 Q145.4531,74 145.6875,73.75 Q145.9219,73.5 146.1875,73.5 Q146.6563,73.5 146.9531,73.7813 Q147.25,74.0625 147.25,74.7188 L147.25,76.2813 Q147.25,76.9375 146.9688,77.2188 Q146.6875,77.5 146.25,77.5 Q145.8594,77.5 145.6094,77.3281 Q145.3594,77.1563 145.25,76.7031 Q145.2031,76.3906 145.0313,76.2188 Q144.7188,75.8906 144.1563,75.7031 Q143.5938,75.5 143.0313,75.5 Q142.3281,75.5 141.7344,75.7813 Q141.1563,76.0625 140.7031,76.6875 Q140.25,77.3125 140.25,78.1719 L140.25,79.0938 Q140.25,80.125 141.0938,80.8125 Q141.9375,81.5 143.4375,81.5 Q144.3281,81.5 144.9531,81.2969 Q145.3125,81.1875 145.7188,80.8281 Q145.9844,80.625 146.125,80.5625 Q146.2656,80.5 146.4375,80.5 Q146.7656,80.5 147,80.7656 Q147.25,81.0156 147.25,81.375 Q147.25,81.7188 146.9063,82.125 Q146.4063,82.7188 145.6094,83.0469 Q144.5625,83.5 143.2813,83.5 Q141.7813,83.5 140.5781,82.9063 Q139.6094,82.4375 138.9219,81.4219 Q138.25,80.4063 138.25,79.2031 L138.25,78.1094 Q138.25,76.8594 138.8438,75.7656 Q139.4531,74.6719 140.5,74.0938 Q141.5625,73.5 142.75,73.5 Q143.4688,73.5 144.0938,73.75 Q144.7188,74 145.25,74.5 Z " fill="#000000"/><text fill="#000000" font-family="sans-serif" font-size="12" lengthAdjust="spacing" textLength="165" x="163.75" y="82.9102">TestsReadyToValidateMapper</text><line style="stroke:#A80036;stroke-width:1.5;" x1="73.5" x2="386.5" y1="94" y2="94"/><line style="stroke:#A80036;stroke-width:1.5;" x1="73.5" x2="386.5" y1="102" y2="102"/><text fill="#000000" font-family="sans-serif" font-size="11" lengthAdjust="spacing" textLength="303" x="78.5" y="117.4189">+List&lt;String&gt;toDTO(List&lt;CATest&gt; listOfTestsReadyToValidate)</text><!--MD5=[6ef91cd45517c28008c17021de9a54ec]
class CATest--><rect codeLine="18" fill="#FEFECE" filter="url(#fusv20t2ubteq)" height="144.8516" id="CATest" style="stroke:#A80036;stroke-width:1.5;" width="171" x="261.5" y="512"/><ellipse cx="322.75" cy="528" fill="#ADD1B2" rx="11" ry="11" style="stroke:#A80036;stroke-width:1.0;"/><path d="M324.75,524.5 Q324.9531,524 325.1875,523.75 Q325.4219,523.5 325.6875,523.5 Q326.1563,523.5 326.4531,523.7813 Q326.75,524.0625 326.75,524.7188 L326.75,526.2813 Q326.75,526.9375 326.4688,527.2188 Q326.1875,527.5 325.75,527.5 Q325.3594,527.5 325.1094,527.3281 Q324.8594,527.1563 324.75,526.7031 Q324.7031,526.3906 324.5313,526.2188 Q324.2188,525.8906 323.6563,525.7031 Q323.0938,525.5 322.5313,525.5 Q321.8281,525.5 321.2344,525.7813 Q320.6563,526.0625 320.2031,526.6875 Q319.75,527.3125 319.75,528.1719 L319.75,529.0938 Q319.75,530.125 320.5938,530.8125 Q321.4375,531.5 322.9375,531.5 Q323.8281,531.5 324.4531,531.2969 Q324.8125,531.1875 325.2188,530.8281 Q325.4844,530.625 325.625,530.5625 Q325.7656,530.5 325.9375,530.5 Q326.2656,530.5 326.5,530.7656 Q326.75,531.0156 326.75,531.375 Q326.75,531.7188 326.4063,532.125 Q325.9063,532.7188 325.1094,533.0469 Q324.0625,533.5 322.7813,533.5 Q321.2813,533.5 320.0781,532.9063 Q319.1094,532.4375 318.4219,531.4219 Q317.75,530.4063 317.75,529.2031 L317.75,528.1094 Q317.75,526.8594 318.3438,525.7656 Q318.9531,524.6719 320,524.0938 Q321.0625,523.5 322.25,523.5 Q322.9688,523.5 323.5938,523.75 Q324.2188,524 324.75,524.5 Z " fill="#000000"/><text fill="#000000" font-family="sans-serif" font-size="12" lengthAdjust="spacing" textLength="40" x="343.25" y="532.9102">CATest</text><line style="stroke:#A80036;stroke-width:1.5;" x1="262.5" x2="431.5" y1="544" y2="544"/><text fill="#000000" font-family="sans-serif" font-size="11" lengthAdjust="spacing" textLength="58" x="267.5" y="559.4189">-Client client</text><text fill="#000000" font-family="sans-serif" font-size="11" lengthAdjust="spacing" textLength="90" x="267.5" y="573.2549">-List parameterList</text><text fill="#000000" font-family="sans-serif" font-size="11" lengthAdjust="spacing" textLength="77" x="267.5" y="587.0908">-Date createdAt</text><text fill="#000000" font-family="sans-serif" font-size="11" lengthAdjust="spacing" textLength="95" x="267.5" y="600.9268">-String internalCode</text><text fill="#000000" font-family="sans-serif" font-size="11" lengthAdjust="spacing" textLength="68" x="267.5" y="614.7627">-Report report</text><line style="stroke:#A80036;stroke-width:1.5;" x1="262.5" x2="431.5" y1="621.1797" y2="621.1797"/><text fill="#000000" font-family="sans-serif" font-size="11" lengthAdjust="spacing" textLength="79" x="267.5" y="636.5986">+addValidation()</text><text fill="#000000" font-family="sans-serif" font-size="11" lengthAdjust="spacing" textLength="159" x="267.5" y="650.4346">+changeStateValidationToDone()</text><!--MD5=[02e4b9b7573f1156f41e60aa5b4e25a4]
class Company--><rect codeLine="28" fill="#FEFECE" filter="url(#fusv20t2ubteq)" height="89.5078" id="Company" style="stroke:#A80036;stroke-width:1.5;" width="126" x="56" y="539.5"/><ellipse cx="89.45" cy="555.5" fill="#ADD1B2" rx="11" ry="11" style="stroke:#A80036;stroke-width:1.0;"/><path d="M91.45,552 Q91.6531,551.5 91.8875,551.25 Q92.1219,551 92.3875,551 Q92.8563,551 93.1531,551.2813 Q93.45,551.5625 93.45,552.2188 L93.45,553.7813 Q93.45,554.4375 93.1688,554.7188 Q92.8875,555 92.45,555 Q92.0594,555 91.8094,554.8281 Q91.5594,554.6563 91.45,554.2031 Q91.4031,553.8906 91.2313,553.7188 Q90.9188,553.3906 90.3563,553.2031 Q89.7938,553 89.2313,553 Q88.5281,553 87.9344,553.2813 Q87.3563,553.5625 86.9031,554.1875 Q86.45,554.8125 86.45,555.6719 L86.45,556.5938 Q86.45,557.625 87.2938,558.3125 Q88.1375,559 89.6375,559 Q90.5281,559 91.1531,558.7969 Q91.5125,558.6875 91.9188,558.3281 Q92.1844,558.125 92.325,558.0625 Q92.4656,558 92.6375,558 Q92.9656,558 93.2,558.2656 Q93.45,558.5156 93.45,558.875 Q93.45,559.2188 93.1063,559.625 Q92.6063,560.2188 91.8094,560.5469 Q90.7625,561 89.4813,561 Q87.9813,561 86.7781,560.4063 Q85.8094,559.9375 85.1219,558.9219 Q84.45,557.9063 84.45,556.7031 L84.45,555.6094 Q84.45,554.3594 85.0438,553.2656 Q85.6531,552.1719 86.7,551.5938 Q87.7625,551 88.95,551 Q89.6688,551 90.2938,551.25 Q90.9188,551.5 91.45,552 Z " fill="#000000"/><text fill="#000000" font-family="sans-serif" font-size="12" lengthAdjust="spacing" textLength="53" x="107.55" y="560.4102">Company</text><line style="stroke:#A80036;stroke-width:1.5;" x1="57" x2="181" y1="571.5" y2="571.5"/><text fill="#000000" font-family="sans-serif" font-size="11" lengthAdjust="spacing" textLength="90" x="62" y="586.9189">-String designation</text><line style="stroke:#A80036;stroke-width:1.5;" x1="57" x2="181" y1="593.3359" y2="593.3359"/><text fill="#000000" font-family="sans-serif" font-size="11" lengthAdjust="spacing" textLength="114" x="62" y="608.7549">+Company(designation)</text><text fill="#000000" font-family="sans-serif" font-size="11" lengthAdjust="spacing" textLength="76" x="62" y="622.5908">+getTestStore()</text><!--MD5=[1f6362a5c8f21d8d6a0fce68f3a92a4e]
class Parameter--><rect codeLine="33" fill="#FEFECE" filter="url(#fusv20t2ubteq)" height="75.6719" id="Parameter" style="stroke:#A80036;stroke-width:1.5;" width="90" x="207" y="770"/><ellipse cx="222" cy="786" fill="#ADD1B2" rx="11" ry="11" style="stroke:#A80036;stroke-width:1.0;"/><path d="M224,782.5 Q224.2031,782 224.4375,781.75 Q224.6719,781.5 224.9375,781.5 Q225.4063,781.5 225.7031,781.7813 Q226,782.0625 226,782.7188 L226,784.2813 Q226,784.9375 225.7188,785.2188 Q225.4375,785.5 225,785.5 Q224.6094,785.5 224.3594,785.3281 Q224.1094,785.1563 224,784.7031 Q223.9531,784.3906 223.7813,784.2188 Q223.4688,783.8906 222.9063,783.7031 Q222.3438,783.5 221.7813,783.5 Q221.0781,783.5 220.4844,783.7813 Q219.9063,784.0625 219.4531,784.6875 Q219,785.3125 219,786.1719 L219,787.0938 Q219,788.125 219.8438,788.8125 Q220.6875,789.5 222.1875,789.5 Q223.0781,789.5 223.7031,789.2969 Q224.0625,789.1875 224.4688,788.8281 Q224.7344,788.625 224.875,788.5625 Q225.0156,788.5 225.1875,788.5 Q225.5156,788.5 225.75,788.7656 Q226,789.0156 226,789.375 Q226,789.7188 225.6563,790.125 Q225.1563,790.7188 224.3594,791.0469 Q223.3125,791.5 222.0313,791.5 Q220.5313,791.5 219.3281,790.9063 Q218.3594,790.4375 217.6719,789.4219 Q217,788.4063 217,787.2031 L217,786.1094 Q217,784.8594 217.5938,783.7656 Q218.2031,782.6719 219.25,782.0938 Q220.3125,781.5 221.5,781.5 Q222.2188,781.5 222.8438,781.75 Q223.4688,782 224,782.5 Z " fill="#000000"/><text fill="#000000" font-family="sans-serif" font-size="12" lengthAdjust="spacing" textLength="58" x="236" y="790.9102">Parameter</text><line style="stroke:#A80036;stroke-width:1.5;" x1="208" x2="296" y1="802" y2="802"/><text fill="#000000" font-family="sans-serif" font-size="11" lengthAdjust="spacing" textLength="77" x="213" y="817.4189">-Date createdAt</text><line style="stroke:#A80036;stroke-width:1.5;" x1="208" x2="296" y1="823.8359" y2="823.8359"/><text fill="#000000" font-family="sans-serif" font-size="11" lengthAdjust="spacing" textLength="78" x="213" y="839.2549">+getCreatedAt()</text><!--MD5=[f00dbe8c0302c6aec2cb26b3c659c8fc]
class Report--><rect codeLine="37" fill="#FEFECE" filter="url(#fusv20t2ubteq)" height="75.6719" id="Report" style="stroke:#A80036;stroke-width:1.5;" width="90" x="332" y="770"/><ellipse cx="356.45" cy="786" fill="#ADD1B2" rx="11" ry="11" style="stroke:#A80036;stroke-width:1.0;"/><path d="M358.45,782.5 Q358.6531,782 358.8875,781.75 Q359.1219,781.5 359.3875,781.5 Q359.8563,781.5 360.1531,781.7813 Q360.45,782.0625 360.45,782.7188 L360.45,784.2813 Q360.45,784.9375 360.1688,785.2188 Q359.8875,785.5 359.45,785.5 Q359.0594,785.5 358.8094,785.3281 Q358.5594,785.1563 358.45,784.7031 Q358.4031,784.3906 358.2313,784.2188 Q357.9188,783.8906 357.3563,783.7031 Q356.7938,783.5 356.2313,783.5 Q355.5281,783.5 354.9344,783.7813 Q354.3563,784.0625 353.9031,784.6875 Q353.45,785.3125 353.45,786.1719 L353.45,787.0938 Q353.45,788.125 354.2938,788.8125 Q355.1375,789.5 356.6375,789.5 Q357.5281,789.5 358.1531,789.2969 Q358.5125,789.1875 358.9188,788.8281 Q359.1844,788.625 359.325,788.5625 Q359.4656,788.5 359.6375,788.5 Q359.9656,788.5 360.2,788.7656 Q360.45,789.0156 360.45,789.375 Q360.45,789.7188 360.1063,790.125 Q359.6063,790.7188 358.8094,791.0469 Q357.7625,791.5 356.4813,791.5 Q354.9813,791.5 353.7781,790.9063 Q352.8094,790.4375 352.1219,789.4219 Q351.45,788.4063 351.45,787.2031 L351.45,786.1094 Q351.45,784.8594 352.0438,783.7656 Q352.6531,782.6719 353.7,782.0938 Q354.7625,781.5 355.95,781.5 Q356.6688,781.5 357.2938,781.75 Q357.9188,782 358.45,782.5 Z " fill="#000000"/><text fill="#000000" font-family="sans-serif" font-size="12" lengthAdjust="spacing" textLength="37" x="372.55" y="790.9102">Report</text><line style="stroke:#A80036;stroke-width:1.5;" x1="333" x2="421" y1="802" y2="802"/><text fill="#000000" font-family="sans-serif" font-size="11" lengthAdjust="spacing" textLength="77" x="338" y="817.4189">-Date createdAt</text><line style="stroke:#A80036;stroke-width:1.5;" x1="333" x2="421" y1="823.8359" y2="823.8359"/><text fill="#000000" font-family="sans-serif" font-size="11" lengthAdjust="spacing" textLength="78" x="338" y="839.2549">+getCreatedAt()</text><!--MD5=[0f6f7964b844a64b0496af0dda7914bd]
class TestStore--><rect codeLine="44" fill="#FEFECE" filter="url(#fusv20t2ubteq)" height="117.1797" id="TestStore" style="stroke:#A80036;stroke-width:1.5;" width="150" x="506" y="526"/><ellipse cx="550.25" cy="542" fill="#ADD1B2" rx="11" ry="11" style="stroke:#A80036;stroke-width:1.0;"/><path d="M552.25,538.5 Q552.4531,538 552.6875,537.75 Q552.9219,537.5 553.1875,537.5 Q553.6563,537.5 553.9531,537.7813 Q554.25,538.0625 554.25,538.7188 L554.25,540.2813 Q554.25,540.9375 553.9688,541.2188 Q553.6875,541.5 553.25,541.5 Q552.8594,541.5 552.6094,541.3281 Q552.3594,541.1563 552.25,540.7031 Q552.2031,540.3906 552.0313,540.2188 Q551.7188,539.8906 551.1563,539.7031 Q550.5938,539.5 550.0313,539.5 Q549.3281,539.5 548.7344,539.7813 Q548.1563,540.0625 547.7031,540.6875 Q547.25,541.3125 547.25,542.1719 L547.25,543.0938 Q547.25,544.125 548.0938,544.8125 Q548.9375,545.5 550.4375,545.5 Q551.3281,545.5 551.9531,545.2969 Q552.3125,545.1875 552.7188,544.8281 Q552.9844,544.625 553.125,544.5625 Q553.2656,544.5 553.4375,544.5 Q553.7656,544.5 554,544.7656 Q554.25,545.0156 554.25,545.375 Q554.25,545.7188 553.9063,546.125 Q553.4063,546.7188 552.6094,547.0469 Q551.5625,547.5 550.2813,547.5 Q548.7813,547.5 547.5781,546.9063 Q546.6094,546.4375 545.9219,545.4219 Q545.25,544.4063 545.25,543.2031 L545.25,542.1094 Q545.25,540.8594 545.8438,539.7656 Q546.4531,538.6719 547.5,538.0938 Q548.5625,537.5 549.75,537.5 Q550.4688,537.5 551.0938,537.75 Q551.7188,538 552.25,538.5 Z " fill="#000000"/><text fill="#000000" font-family="sans-serif" font-size="12" lengthAdjust="spacing" textLength="53" x="570.75" y="546.9102">TestStore</text><line style="stroke:#A80036;stroke-width:1.5;" x1="507" x2="655" y1="558" y2="558"/><text fill="#000000" font-family="sans-serif" font-size="11" lengthAdjust="spacing" textLength="106" x="512" y="573.4189">-List testValidationList</text><line style="stroke:#A80036;stroke-width:1.5;" x1="507" x2="655" y1="579.8359" y2="579.8359"/><text fill="#000000" font-family="sans-serif" font-size="11" lengthAdjust="spacing" textLength="114" x="512" y="595.2549">+getTestValidationList()</text><text fill="#000000" font-family="sans-serif" font-size="11" lengthAdjust="spacing" textLength="138" x="512" y="609.0908">+getTestsReadyToValidate()</text><text fill="#000000" font-family="sans-serif" font-size="11" lengthAdjust="spacing" textLength="110" x="512" y="622.9268">+saveTestsValidated()</text><text fill="#000000" font-family="sans-serif" font-size="11" lengthAdjust="spacing" textLength="112" x="512" y="636.7627">+getTestByCode(code)</text><!--MD5=[76b5e19c9337179d2d7ae334371d68c8]
class Notification--><rect codeLine="55" fill="#FEFECE" filter="url(#fusv20t2ubteq)" height="61.8359" id="Notification" style="stroke:#A80036;stroke-width:1.5;" width="175" x="736.5" y="777"/><ellipse cx="789.25" cy="793" fill="#ADD1B2" rx="11" ry="11" style="stroke:#A80036;stroke-width:1.0;"/><path d="M791.25,789.5 Q791.4531,789 791.6875,788.75 Q791.9219,788.5 792.1875,788.5 Q792.6563,788.5 792.9531,788.7813 Q793.25,789.0625 793.25,789.7188 L793.25,791.2813 Q793.25,791.9375 792.9688,792.2188 Q792.6875,792.5 792.25,792.5 Q791.8594,792.5 791.6094,792.3281 Q791.3594,792.1563 791.25,791.7031 Q791.2031,791.3906 791.0313,791.2188 Q790.7188,790.8906 790.1563,790.7031 Q789.5938,790.5 789.0313,790.5 Q788.3281,790.5 787.7344,790.7813 Q787.1563,791.0625 786.7031,791.6875 Q786.25,792.3125 786.25,793.1719 L786.25,794.0938 Q786.25,795.125 787.0938,795.8125 Q787.9375,796.5 789.4375,796.5 Q790.3281,796.5 790.9531,796.2969 Q791.3125,796.1875 791.7188,795.8281 Q791.9844,795.625 792.125,795.5625 Q792.2656,795.5 792.4375,795.5 Q792.7656,795.5 793,795.7656 Q793.25,796.0156 793.25,796.375 Q793.25,796.7188 792.9063,797.125 Q792.4063,797.7188 791.6094,798.0469 Q790.5625,798.5 789.2813,798.5 Q787.7813,798.5 786.5781,797.9063 Q785.6094,797.4375 784.9219,796.4219 Q784.25,795.4063 784.25,794.2031 L784.25,793.1094 Q784.25,791.8594 784.8438,790.7656 Q785.4531,789.6719 786.5,789.0938 Q787.5625,788.5 788.75,788.5 Q789.4688,788.5 790.0938,788.75 Q790.7188,789 791.25,789.5 Z " fill="#000000"/><text fill="#000000" font-family="sans-serif" font-size="12" lengthAdjust="spacing" textLength="61" x="809.75" y="797.9102">Notification</text><line style="stroke:#A80036;stroke-width:1.5;" x1="737.5" x2="910.5" y1="809" y2="809"/><line style="stroke:#A80036;stroke-width:1.5;" x1="737.5" x2="910.5" y1="817" y2="817"/><text fill="#000000" font-family="sans-serif" font-size="11" lengthAdjust="spacing" textLength="163" x="742.5" y="832.4189">+sendEmailSMSNotification(name)</text><!--MD5=[6b74681d88d6a5df1af22857acd5be75]
class ValidationUI--><rect codeLine="60" fill="#FEFECE" filter="url(#fusv20t2ubteq)" height="48" id="ValidationUI" style="stroke:#A80036;stroke-width:1.5;" width="98" x="444" y="69"/><ellipse cx="459" cy="85" fill="#ADD1B2" rx="11" ry="11" style="stroke:#A80036;stroke-width:1.0;"/><path d="M461,81.5 Q461.2031,81 461.4375,80.75 Q461.6719,80.5 461.9375,80.5 Q462.4063,80.5 462.7031,80.7813 Q463,81.0625 463,81.7188 L463,83.2813 Q463,83.9375 462.7188,84.2188 Q462.4375,84.5 462,84.5 Q461.6094,84.5 461.3594,84.3281 Q461.1094,84.1563 461,83.7031 Q460.9531,83.3906 460.7813,83.2188 Q460.4688,82.8906 459.9063,82.7031 Q459.3438,82.5 458.7813,82.5 Q458.0781,82.5 457.4844,82.7813 Q456.9063,83.0625 456.4531,83.6875 Q456,84.3125 456,85.1719 L456,86.0938 Q456,87.125 456.8438,87.8125 Q457.6875,88.5 459.1875,88.5 Q460.0781,88.5 460.7031,88.2969 Q461.0625,88.1875 461.4688,87.8281 Q461.7344,87.625 461.875,87.5625 Q462.0156,87.5 462.1875,87.5 Q462.5156,87.5 462.75,87.7656 Q463,88.0156 463,88.375 Q463,88.7188 462.6563,89.125 Q462.1563,89.7188 461.3594,90.0469 Q460.3125,90.5 459.0313,90.5 Q457.5313,90.5 456.3281,89.9063 Q455.3594,89.4375 454.6719,88.4219 Q454,87.4063 454,86.2031 L454,85.1094 Q454,83.8594 454.5938,82.7656 Q455.2031,81.6719 456.25,81.0938 Q457.3125,80.5 458.5,80.5 Q459.2188,80.5 459.8438,80.75 Q460.4688,81 461,81.5 Z " fill="#000000"/><text fill="#000000" font-family="sans-serif" font-size="12" lengthAdjust="spacing" textLength="66" x="473" y="89.9102">ValidationUI</text><line style="stroke:#A80036;stroke-width:1.5;" x1="445" x2="541" y1="101" y2="101"/><line style="stroke:#A80036;stroke-width:1.5;" x1="445" x2="541" y1="109" y2="109"/><!--MD5=[c51f54259aad5b7ff86ac8d3162c026c]
link ValidationUI to ValidationController--><path codeLine="67" d="M475.39,117.22 C455.35,143.65 421.79,187.89 394.01,224.51 " fill="none" id="ValidationUI-to-ValidationController" style="stroke:#A80036;stroke-width:1.0;stroke-dasharray:7.0,7.0;"/><polygon fill="#A80036" points="390.65,228.94,399.28,224.1941,393.6751,224.9589,392.9102,219.354,390.65,228.94" style="stroke:#A80036;stroke-width:1.0;"/><!--MD5=[fd7091a1f29d977fcff3077cba5615be]
link ValidationController to TestStore--><path codeLine="69" d="M399.66,346.09 C415.84,364.32 433.46,384.74 449,404 C479.8,442.19 512.49,486.6 537.63,521.7 " fill="none" id="ValidationController-to-TestStore" style="stroke:#A80036;stroke-width:1.0;stroke-dasharray:7.0,7.0;"/><polygon fill="#A80036" points="540.66,525.93,538.6742,516.2834,537.7498,521.8642,532.169,520.9398,540.66,525.93" style="stroke:#A80036;stroke-width:1.0;"/><!--MD5=[135ab6b471522045451c521cc3b976b9]
link ValidationController to Company--><path codeLine="70" d="M265.96,346.22 C254.55,356.13 243.49,366.86 234,378 C193.07,426.05 159.69,490.87 139.63,534.77 " fill="none" id="ValidationController-to-Company" style="stroke:#A80036;stroke-width:1.0;stroke-dasharray:7.0,7.0;"/><polygon fill="#A80036" points="137.49,539.49,144.8557,532.9519,139.559,534.9382,137.5728,529.6415,137.49,539.49" style="stroke:#A80036;stroke-width:1.0;"/><!--MD5=[a0519b1e6bb927e790dc6d160ecdaf64]
reverse link TestsReadyToValidateMapper to ValidationController--><path codeLine="71" d="M250.93,128.44 C267.85,156.27 292.03,196.05 311.9,228.74 " fill="none" id="TestsReadyToValidateMapper-backto-ValidationController" style="stroke:#A80036;stroke-width:1.0;stroke-dasharray:7.0,7.0;"/><polygon fill="#A80036" points="248.28,124.08,249.5427,133.8476,250.8797,128.351,256.3763,129.688,248.28,124.08" style="stroke:#A80036;stroke-width:1.0;"/><!--MD5=[da778461f41450447c7ed23ac953602b]
link ValidationController to CATest--><path codeLine="72" d="M347,346.08 C347,391.96 347,456.6 347,506.85 " fill="none" id="ValidationController-to-CATest" style="stroke:#A80036;stroke-width:1.0;stroke-dasharray:7.0,7.0;"/><polygon fill="#A80036" points="347,511.98,351,502.98,347,506.98,343,502.98,347,511.98" style="stroke:#A80036;stroke-width:1.0;"/><!--MD5=[b5448f23018a6d7e214c98e0b8cf6735]
link Company to CATest--><path codeLine="73" d="M182.21,584.5 C205.09,584.5 231.41,584.5 256.2,584.5 " fill="none" id="Company-to-CATest" style="stroke:#A80036;stroke-width:1.0;"/><polygon fill="#A80036" points="261.46,584.5,252.46,580.5,256.46,584.5,252.46,588.5,261.46,584.5" style="stroke:#A80036;stroke-width:1.0;"/><text fill="#000000" font-family="sans-serif" font-size="13" lengthAdjust="spacing" textLength="43" x="200.25" y="577.9951">perform</text><text fill="#000000" font-family="sans-serif" font-size="13" lengthAdjust="spacing" textLength="7" x="189.9233" y="581.1189">1</text><text fill="#000000" font-family="sans-serif" font-size="13" lengthAdjust="spacing" textLength="5" x="248.6189" y="581.3049">*</text><!--MD5=[7f6cf7f175eae0af66201860de5de971]
link Company to TestStore--><path codeLine="74" d="M140.27,539.44 C160.88,501.61 196.06,450.15 244,427 C326.04,387.37 366.44,388.47 449,427 C490.94,446.57 524.27,486.75 546.95,521.63 " fill="none" id="Company-to-TestStore" style="stroke:#A80036;stroke-width:1.0;"/><polygon fill="#A80036" points="549.66,525.85,548.1579,516.1164,546.9562,521.6441,541.4285,520.4424,549.66,525.85" style="stroke:#A80036;stroke-width:1.0;"/><text fill="#000000" font-family="sans-serif" font-size="13" lengthAdjust="spacing" textLength="21" x="242.5" y="392.4951">use</text><text fill="#000000" font-family="sans-serif" font-size="13" lengthAdjust="spacing" textLength="7" x="136.1021" y="528.5459">1</text><text fill="#000000" font-family="sans-serif" font-size="13" lengthAdjust="spacing" textLength="7" x="538.4139" y="515.2326">1</text><!--MD5=[456fdd6027b3679f9d3961547da5f10a]
link TestStore to CATest--><path codeLine="76" d="M505.64,584.5 C484.05,584.5 460.28,584.5 437.87,584.5 " fill="none" id="TestStore-to-CATest" style="stroke:#A80036;stroke-width:1.0;"/><polygon fill="#A80036" points="432.8,584.5,441.8,588.5,437.8,584.5,441.8,580.5,432.8,584.5" style="stroke:#A80036;stroke-width:1.0;"/><text fill="#000000" font-family="sans-serif" font-size="13" lengthAdjust="spacing" textLength="37" x="450.75" y="577.9951">knows</text><text fill="#000000" font-family="sans-serif" font-size="13" lengthAdjust="spacing" textLength="7" x="490.8772" y="581.2161">1</text><text fill="#000000" font-family="sans-serif" font-size="13" lengthAdjust="spacing" textLength="7" x="440.4742" y="581.3291">1</text><!--MD5=[8eb470ee95d48ed204a0d9b536f7d123]
reverse link CATest to Report--><path codeLine="78" d="M357.42,662.43 C362.34,698.78 367.99,740.51 371.96,769.76 " fill="none" id="CATest-backto-Report" style="stroke:#A80036;stroke-width:1.0;"/><polygon fill="#A80036" points="356.7,657.11,353.9478,666.5665,357.373,662.0645,361.875,665.4897,356.7,657.11" style="stroke:#A80036;stroke-width:1.0;"/><!--MD5=[bccacbaee1aa9bbaace38f188102ec25]
reverse link CATest to Parameter--><path codeLine="79" d="M314.2,661.98 C298.56,698.44 280.57,740.39 267.97,769.76 " fill="none" id="CATest-backto-Parameter" style="stroke:#A80036;stroke-width:1.0;"/><polygon fill="#A80036" points="316.29,657.11,309.0606,663.7985,314.3152,661.7035,316.4102,666.9581,316.29,657.11" style="stroke:#A80036;stroke-width:1.0;"/><!--MD5=[4c6a0ee35e41f39698ca2bb716ea535a]
link TestStore to Notification--><path codeLine="81" d="M644.21,643.12 C689.53,684.43 749.02,738.66 786.9,773.18 " fill="none" id="TestStore-to-Notification" style="stroke:#A80036;stroke-width:1.0;"/><polygon fill="#A80036" points="790.95,776.87,786.9726,767.86,787.2471,773.5102,781.5969,773.7847,790.95,776.87" style="stroke:#A80036;stroke-width:1.0;"/><text fill="#000000" font-family="sans-serif" font-size="13" lengthAdjust="spacing" textLength="28" x="710" y="701.4951">send</text><!--MD5=[374cc6ce0a6d9140bcbcf7aa6014803b]
@startuml
skinparam classAttributeIconSize 0
package Controller {
class ValidationController {
  + getTestsWithoutValidation()
  + saveValidation()
  + getTestValidationList()
  +getTestResults(code)
  +doValidation(testValidationList)
}
}
package Mappers {
class TestsReadyToValidateMapper {
  + List<String>toDTO(List<CATest> listOfTestsReadyToValidate)
}
}
package Domain {
package Model {
class CATest {
  - Client client
  - List parameterList
  - Date createdAt
  - String internalCode
  - Report report
  + addValidation()
  +changeStateValidationToDone()
}

class Company {
  - String designation
  + Company(designation)
  + getTestStore()
}
class Parameter{
- Date createdAt
  + getCreatedAt()
}
class Report {
  - Date createdAt
  + getCreatedAt()
}

}
package Store {
class TestStore {
    - List testValidationList
    + getTestValidationList()
    + getTestsReadyToValidate()
    + saveTestsValidated()
    + getTestByCode(code)
}
}

}
package Shared {
class Notification {
   + sendEmailSMSNotification(name)
 }
 }
package UI {
class ValidationUI{
}
}




ValidationUI ..> ValidationController

ValidationController ..> TestStore
ValidationController ..> Company
ValidationController .up.> TestsReadyToValidateMapper
ValidationController ..> CATest
Company "1" -> "*"CATest :perform
Company "1" -> "1" TestStore : use

TestStore "1" -> "1" CATest : knows

    CATest <- - Report
CATest <- - Parameter

TestStore - -> Notification : send

@enduml

PlantUML version 1.2021.5(Sun Apr 25 12:20:28 BST 2021)
(GPL source distribution)
Java Runtime: OpenJDK Runtime Environment
JVM: Dynamic Code Evolution 64-Bit Server VM
Default Encoding: Cp1252
Language: pt
Country: PT
--></g></svg>