<?xml version="1.0" encoding="UTF-8" standalone="no"?><svg xmlns="http://www.w3.org/2000/svg" xmlns:xlink="http://www.w3.org/1999/xlink" contentScriptType="application/ecmascript" contentStyleType="text/css" height="623px" preserveAspectRatio="none" style="width:788px;height:623px;" version="1.1" viewBox="0 0 788 623" width="788px" zoomAndPan="magnify"><defs><filter height="300%" id="fy533blc083s6" width="300%" x="-1" y="-1"><feGaussianBlur result="blurOut" stdDeviation="2.0"/><feColorMatrix in="blurOut" result="blurOut2" type="matrix" values="0 0 0 0 0 0 0 0 0 0 0 0 0 0 0 0 0 0 .4 0"/><feOffset dx="4.0" dy="4.0" in="blurOut2" result="blurOut3"/><feBlend in="SourceGraphic" in2="blurOut3" mode="normal"/></filter></defs><g><!--MD5=[8b54931eb4ac3a6c5c7d8525c2c1f514]
class SpecifyANewTypeOfTestUI--><rect codeLine="4" fill="#FEFECE" filter="url(#fy533blc083s6)" height="48" id="SpecifyANewTypeOfTestUI" style="stroke:#A80036;stroke-width:1.5;" width="177" x="589.5" y="28"/><ellipse cx="604.5" cy="44" fill="#ADD1B2" rx="11" ry="11" style="stroke:#A80036;stroke-width:1.0;"/><path d="M606.5,40.5 Q606.7031,40 606.9375,39.75 Q607.1719,39.5 607.4375,39.5 Q607.9063,39.5 608.2031,39.7813 Q608.5,40.0625 608.5,40.7188 L608.5,42.2813 Q608.5,42.9375 608.2188,43.2188 Q607.9375,43.5 607.5,43.5 Q607.1094,43.5 606.8594,43.3281 Q606.6094,43.1563 606.5,42.7031 Q606.4531,42.3906 606.2813,42.2188 Q605.9688,41.8906 605.4063,41.7031 Q604.8438,41.5 604.2813,41.5 Q603.5781,41.5 602.9844,41.7813 Q602.4063,42.0625 601.9531,42.6875 Q601.5,43.3125 601.5,44.1719 L601.5,45.0938 Q601.5,46.125 602.3438,46.8125 Q603.1875,47.5 604.6875,47.5 Q605.5781,47.5 606.2031,47.2969 Q606.5625,47.1875 606.9688,46.8281 Q607.2344,46.625 607.375,46.5625 Q607.5156,46.5 607.6875,46.5 Q608.0156,46.5 608.25,46.7656 Q608.5,47.0156 608.5,47.375 Q608.5,47.7188 608.1563,48.125 Q607.6563,48.7188 606.8594,49.0469 Q605.8125,49.5 604.5313,49.5 Q603.0313,49.5 601.8281,48.9063 Q600.8594,48.4375 600.1719,47.4219 Q599.5,46.4063 599.5,45.2031 L599.5,44.1094 Q599.5,42.8594 600.0938,41.7656 Q600.7031,40.6719 601.75,40.0938 Q602.8125,39.5 604,39.5 Q604.7188,39.5 605.3438,39.75 Q605.9688,40 606.5,40.5 Z " fill="#000000"/><text fill="#000000" font-family="sans-serif" font-size="12" lengthAdjust="spacing" textLength="145" x="618.5" y="48.9102">SpecifyANewTypeOfTestUI</text><line style="stroke:#A80036;stroke-width:1.5;" x1="590.5" x2="765.5" y1="60" y2="60"/><line style="stroke:#A80036;stroke-width:1.5;" x1="590.5" x2="765.5" y1="68" y2="68"/><!--MD5=[222b10d9acc920b8a65fb16ee06210f5]
class SpecifyANewTypeOfTestController--><rect codeLine="7" fill="#FEFECE" filter="url(#fy533blc083s6)" height="89.5078" id="SpecifyANewTypeOfTestController" style="stroke:#A80036;stroke-width:1.5;" width="332" x="222" y="7"/><ellipse cx="290.25" cy="23" fill="#ADD1B2" rx="11" ry="11" style="stroke:#A80036;stroke-width:1.0;"/><path d="M292.25,19.5 Q292.4531,19 292.6875,18.75 Q292.9219,18.5 293.1875,18.5 Q293.6563,18.5 293.9531,18.7813 Q294.25,19.0625 294.25,19.7188 L294.25,21.2813 Q294.25,21.9375 293.9688,22.2188 Q293.6875,22.5 293.25,22.5 Q292.8594,22.5 292.6094,22.3281 Q292.3594,22.1563 292.25,21.7031 Q292.2031,21.3906 292.0313,21.2188 Q291.7188,20.8906 291.1563,20.7031 Q290.5938,20.5 290.0313,20.5 Q289.3281,20.5 288.7344,20.7813 Q288.1563,21.0625 287.7031,21.6875 Q287.25,22.3125 287.25,23.1719 L287.25,24.0938 Q287.25,25.125 288.0938,25.8125 Q288.9375,26.5 290.4375,26.5 Q291.3281,26.5 291.9531,26.2969 Q292.3125,26.1875 292.7188,25.8281 Q292.9844,25.625 293.125,25.5625 Q293.2656,25.5 293.4375,25.5 Q293.7656,25.5 294,25.7656 Q294.25,26.0156 294.25,26.375 Q294.25,26.7188 293.9063,27.125 Q293.4063,27.7188 292.6094,28.0469 Q291.5625,28.5 290.2813,28.5 Q288.7813,28.5 287.5781,27.9063 Q286.6094,27.4375 285.9219,26.4219 Q285.25,25.4063 285.25,24.2031 L285.25,23.1094 Q285.25,21.8594 285.8438,20.7656 Q286.4531,19.6719 287.5,19.0938 Q288.5625,18.5 289.75,18.5 Q290.4688,18.5 291.0938,18.75 Q291.7188,19 292.25,19.5 Z " fill="#000000"/><text fill="#000000" font-family="sans-serif" font-size="12" lengthAdjust="spacing" textLength="187" x="310.75" y="27.9102">SpecifyANewTypeOfTestController</text><line style="stroke:#A80036;stroke-width:1.5;" x1="223" x2="553" y1="39" y2="39"/><line style="stroke:#A80036;stroke-width:1.5;" x1="223" x2="553" y1="47" y2="47"/><text fill="#000000" font-family="sans-serif" font-size="11" lengthAdjust="spacing" textLength="320" x="228" y="62.4189">+createNewTypeOfTest(code, description, collectingMethod, pcId)</text><text fill="#000000" font-family="sans-serif" font-size="11" lengthAdjust="spacing" textLength="96" x="228" y="76.2549">+addCategory(pcId)</text><text fill="#000000" font-family="sans-serif" font-size="11" lengthAdjust="spacing" textLength="95" x="228" y="90.0908">+saveTypeOfTest()</text><!--MD5=[02e4b9b7573f1156f41e60aa5b4e25a4]
class Company--><rect codeLine="13" fill="#FEFECE" filter="url(#fy533blc083s6)" height="89.5078" id="Company" style="stroke:#A80036;stroke-width:1.5;" width="160" x="614" y="352.5"/><ellipse cx="663.25" cy="368.5" fill="#ADD1B2" rx="11" ry="11" style="stroke:#A80036;stroke-width:1.0;"/><path d="M665.25,365 Q665.4531,364.5 665.6875,364.25 Q665.9219,364 666.1875,364 Q666.6563,364 666.9531,364.2813 Q667.25,364.5625 667.25,365.2188 L667.25,366.7813 Q667.25,367.4375 666.9688,367.7188 Q666.6875,368 666.25,368 Q665.8594,368 665.6094,367.8281 Q665.3594,367.6563 665.25,367.2031 Q665.2031,366.8906 665.0313,366.7188 Q664.7188,366.3906 664.1563,366.2031 Q663.5938,366 663.0313,366 Q662.3281,366 661.7344,366.2813 Q661.1563,366.5625 660.7031,367.1875 Q660.25,367.8125 660.25,368.6719 L660.25,369.5938 Q660.25,370.625 661.0938,371.3125 Q661.9375,372 663.4375,372 Q664.3281,372 664.9531,371.7969 Q665.3125,371.6875 665.7188,371.3281 Q665.9844,371.125 666.125,371.0625 Q666.2656,371 666.4375,371 Q666.7656,371 667,371.2656 Q667.25,371.5156 667.25,371.875 Q667.25,372.2188 666.9063,372.625 Q666.4063,373.2188 665.6094,373.5469 Q664.5625,374 663.2813,374 Q661.7813,374 660.5781,373.4063 Q659.6094,372.9375 658.9219,371.9219 Q658.25,370.9063 658.25,369.7031 L658.25,368.6094 Q658.25,367.3594 658.8438,366.2656 Q659.4531,365.1719 660.5,364.5938 Q661.5625,364 662.75,364 Q663.4688,364 664.0938,364.25 Q664.7188,364.5 665.25,365 Z " fill="#000000"/><text fill="#000000" font-family="sans-serif" font-size="12" lengthAdjust="spacing" textLength="53" x="683.75" y="373.4102">Company</text><line style="stroke:#A80036;stroke-width:1.5;" x1="615" x2="773" y1="384.5" y2="384.5"/><text fill="#000000" font-family="sans-serif" font-size="11" lengthAdjust="spacing" textLength="59" x="620" y="399.9189">-designation</text><line style="stroke:#A80036;stroke-width:1.5;" x1="615" x2="773" y1="406.3359" y2="406.3359"/><text fill="#000000" font-family="sans-serif" font-size="11" lengthAdjust="spacing" textLength="100" x="620" y="421.7549">+getTestTypeStore()</text><text fill="#000000" font-family="sans-serif" font-size="11" lengthAdjust="spacing" textLength="148" x="620" y="435.5908">+getParameterCategoryStore()</text><!--MD5=[f69a48f7b38bde3533dca6607cc4e94a]
class TypeOfTest--><rect codeLine="19" fill="#FEFECE" filter="url(#fy533blc083s6)" height="117.1797" id="TypeOfTest" style="stroke:#A80036;stroke-width:1.5;" width="270" x="309" y="339"/><ellipse cx="408.75" cy="355" fill="#ADD1B2" rx="11" ry="11" style="stroke:#A80036;stroke-width:1.0;"/><path d="M410.75,351.5 Q410.9531,351 411.1875,350.75 Q411.4219,350.5 411.6875,350.5 Q412.1563,350.5 412.4531,350.7813 Q412.75,351.0625 412.75,351.7188 L412.75,353.2813 Q412.75,353.9375 412.4688,354.2188 Q412.1875,354.5 411.75,354.5 Q411.3594,354.5 411.1094,354.3281 Q410.8594,354.1563 410.75,353.7031 Q410.7031,353.3906 410.5313,353.2188 Q410.2188,352.8906 409.6563,352.7031 Q409.0938,352.5 408.5313,352.5 Q407.8281,352.5 407.2344,352.7813 Q406.6563,353.0625 406.2031,353.6875 Q405.75,354.3125 405.75,355.1719 L405.75,356.0938 Q405.75,357.125 406.5938,357.8125 Q407.4375,358.5 408.9375,358.5 Q409.8281,358.5 410.4531,358.2969 Q410.8125,358.1875 411.2188,357.8281 Q411.4844,357.625 411.625,357.5625 Q411.7656,357.5 411.9375,357.5 Q412.2656,357.5 412.5,357.7656 Q412.75,358.0156 412.75,358.375 Q412.75,358.7188 412.4063,359.125 Q411.9063,359.7188 411.1094,360.0469 Q410.0625,360.5 408.7813,360.5 Q407.2813,360.5 406.0781,359.9063 Q405.1094,359.4375 404.4219,358.4219 Q403.75,357.4063 403.75,356.2031 L403.75,355.1094 Q403.75,353.8594 404.3438,352.7656 Q404.9531,351.6719 406,351.0938 Q407.0625,350.5 408.25,350.5 Q408.9688,350.5 409.5938,350.75 Q410.2188,351 410.75,351.5 Z " fill="#000000"/><text fill="#000000" font-family="sans-serif" font-size="12" lengthAdjust="spacing" textLength="62" x="429.25" y="359.9102">TypeOfTest</text><line style="stroke:#A80036;stroke-width:1.5;" x1="310" x2="578" y1="371" y2="371"/><text fill="#000000" font-family="sans-serif" font-size="11" lengthAdjust="spacing" textLength="28" x="315" y="386.4189">-code</text><text fill="#000000" font-family="sans-serif" font-size="11" lengthAdjust="spacing" textLength="56" x="315" y="400.2549">-shortName</text><text fill="#000000" font-family="sans-serif" font-size="11" lengthAdjust="spacing" textLength="57" x="315" y="414.0908">-description</text><line style="stroke:#A80036;stroke-width:1.5;" x1="310" x2="578" y1="420.5078" y2="420.5078"/><text fill="#000000" font-family="sans-serif" font-size="11" lengthAdjust="spacing" textLength="258" x="315" y="435.9268">+TypeOfTest(code, description, collectingMethod, pc)</text><text fill="#000000" font-family="sans-serif" font-size="11" lengthAdjust="spacing" textLength="137" x="315" y="449.7627">+addParameterCategory(pc)</text><!--MD5=[b9cabbedd84757019d72e276cc5bea1e]
class TypeOfTestStore--><rect codeLine="27" fill="#FEFECE" filter="url(#fy533blc083s6)" height="103.3438" id="TypeOfTestStore" style="stroke:#A80036;stroke-width:1.5;" width="301" x="380.5" y="158"/><ellipse cx="481.25" cy="174" fill="#ADD1B2" rx="11" ry="11" style="stroke:#A80036;stroke-width:1.0;"/><path d="M483.25,170.5 Q483.4531,170 483.6875,169.75 Q483.9219,169.5 484.1875,169.5 Q484.6563,169.5 484.9531,169.7813 Q485.25,170.0625 485.25,170.7188 L485.25,172.2813 Q485.25,172.9375 484.9688,173.2188 Q484.6875,173.5 484.25,173.5 Q483.8594,173.5 483.6094,173.3281 Q483.3594,173.1563 483.25,172.7031 Q483.2031,172.3906 483.0313,172.2188 Q482.7188,171.8906 482.1563,171.7031 Q481.5938,171.5 481.0313,171.5 Q480.3281,171.5 479.7344,171.7813 Q479.1563,172.0625 478.7031,172.6875 Q478.25,173.3125 478.25,174.1719 L478.25,175.0938 Q478.25,176.125 479.0938,176.8125 Q479.9375,177.5 481.4375,177.5 Q482.3281,177.5 482.9531,177.2969 Q483.3125,177.1875 483.7188,176.8281 Q483.9844,176.625 484.125,176.5625 Q484.2656,176.5 484.4375,176.5 Q484.7656,176.5 485,176.7656 Q485.25,177.0156 485.25,177.375 Q485.25,177.7188 484.9063,178.125 Q484.4063,178.7188 483.6094,179.0469 Q482.5625,179.5 481.2813,179.5 Q479.7813,179.5 478.5781,178.9063 Q477.6094,178.4375 476.9219,177.4219 Q476.25,176.4063 476.25,175.2031 L476.25,174.1094 Q476.25,172.8594 476.8438,171.7656 Q477.4531,170.6719 478.5,170.0938 Q479.5625,169.5 480.75,169.5 Q481.4688,169.5 482.0938,169.75 Q482.7188,170 483.25,170.5 Z " fill="#000000"/><text fill="#000000" font-family="sans-serif" font-size="12" lengthAdjust="spacing" textLength="91" x="501.75" y="178.9102">TypeOfTestStore</text><line style="stroke:#A80036;stroke-width:1.5;" x1="381.5" x2="680.5" y1="190" y2="190"/><line style="stroke:#A80036;stroke-width:1.5;" x1="381.5" x2="680.5" y1="198" y2="198"/><text fill="#000000" font-family="sans-serif" font-size="11" lengthAdjust="spacing" textLength="289" x="386.5" y="213.4189">+createTypeOfTest(code, description, collectingMethod, pc)</text><text fill="#000000" font-family="sans-serif" font-size="11" lengthAdjust="spacing" textLength="120" x="386.5" y="227.2549">+validateTypeOfTest(tot)</text><text fill="#000000" font-family="sans-serif" font-size="11" lengthAdjust="spacing" textLength="107" x="386.5" y="241.0908">+saveTypeOfTest(tot)</text><text fill="#000000" font-family="sans-serif" font-size="11" lengthAdjust="spacing" textLength="99" x="386.5" y="254.9268">-addTypeOfTest(tot)</text><!--MD5=[d802db621b5b215a6f0466f93cefcb42]
class ParameterCategoryStore--><rect codeLine="34" fill="#FEFECE" filter="url(#fy533blc083s6)" height="75.6719" id="ParameterCategoryStore" style="stroke:#A80036;stroke-width:1.5;" width="168" x="201" y="534"/><ellipse cx="216" cy="550" fill="#ADD1B2" rx="11" ry="11" style="stroke:#A80036;stroke-width:1.0;"/><path d="M218,546.5 Q218.2031,546 218.4375,545.75 Q218.6719,545.5 218.9375,545.5 Q219.4063,545.5 219.7031,545.7813 Q220,546.0625 220,546.7188 L220,548.2813 Q220,548.9375 219.7188,549.2188 Q219.4375,549.5 219,549.5 Q218.6094,549.5 218.3594,549.3281 Q218.1094,549.1563 218,548.7031 Q217.9531,548.3906 217.7813,548.2188 Q217.4688,547.8906 216.9063,547.7031 Q216.3438,547.5 215.7813,547.5 Q215.0781,547.5 214.4844,547.7813 Q213.9063,548.0625 213.4531,548.6875 Q213,549.3125 213,550.1719 L213,551.0938 Q213,552.125 213.8438,552.8125 Q214.6875,553.5 216.1875,553.5 Q217.0781,553.5 217.7031,553.2969 Q218.0625,553.1875 218.4688,552.8281 Q218.7344,552.625 218.875,552.5625 Q219.0156,552.5 219.1875,552.5 Q219.5156,552.5 219.75,552.7656 Q220,553.0156 220,553.375 Q220,553.7188 219.6563,554.125 Q219.1563,554.7188 218.3594,555.0469 Q217.3125,555.5 216.0313,555.5 Q214.5313,555.5 213.3281,554.9063 Q212.3594,554.4375 211.6719,553.4219 Q211,552.4063 211,551.2031 L211,550.1094 Q211,548.8594 211.5938,547.7656 Q212.2031,546.6719 213.25,546.0938 Q214.3125,545.5 215.5,545.5 Q216.2188,545.5 216.8438,545.75 Q217.4688,546 218,546.5 Z " fill="#000000"/><text fill="#000000" font-family="sans-serif" font-size="12" lengthAdjust="spacing" textLength="136" x="230" y="554.9102">ParameterCategoryStore</text><line style="stroke:#A80036;stroke-width:1.5;" x1="202" x2="368" y1="566" y2="566"/><line style="stroke:#A80036;stroke-width:1.5;" x1="202" x2="368" y1="574" y2="574"/><text fill="#000000" font-family="sans-serif" font-size="11" lengthAdjust="spacing" textLength="139" x="207" y="589.4189">+getParameterCategoryList()</text><text fill="#000000" font-family="sans-serif" font-size="11" lengthAdjust="spacing" textLength="142" x="207" y="603.2549">+getParameterCategory(pcId)</text><!--MD5=[fab6cba0d8a30102bb3e071a5ce00b91]
class ParameterCategoryMapper--><rect codeLine="39" fill="#FEFECE" filter="url(#fy533blc083s6)" height="61.8359" id="ParameterCategoryMapper" style="stroke:#A80036;stroke-width:1.5;" width="180" x="7" y="21"/><ellipse cx="22" cy="37" fill="#ADD1B2" rx="11" ry="11" style="stroke:#A80036;stroke-width:1.0;"/><path d="M24,33.5 Q24.2031,33 24.4375,32.75 Q24.6719,32.5 24.9375,32.5 Q25.4063,32.5 25.7031,32.7813 Q26,33.0625 26,33.7188 L26,35.2813 Q26,35.9375 25.7188,36.2188 Q25.4375,36.5 25,36.5 Q24.6094,36.5 24.3594,36.3281 Q24.1094,36.1563 24,35.7031 Q23.9531,35.3906 23.7813,35.2188 Q23.4688,34.8906 22.9063,34.7031 Q22.3438,34.5 21.7813,34.5 Q21.0781,34.5 20.4844,34.7813 Q19.9063,35.0625 19.4531,35.6875 Q19,36.3125 19,37.1719 L19,38.0938 Q19,39.125 19.8438,39.8125 Q20.6875,40.5 22.1875,40.5 Q23.0781,40.5 23.7031,40.2969 Q24.0625,40.1875 24.4688,39.8281 Q24.7344,39.625 24.875,39.5625 Q25.0156,39.5 25.1875,39.5 Q25.5156,39.5 25.75,39.7656 Q26,40.0156 26,40.375 Q26,40.7188 25.6563,41.125 Q25.1563,41.7188 24.3594,42.0469 Q23.3125,42.5 22.0313,42.5 Q20.5313,42.5 19.3281,41.9063 Q18.3594,41.4375 17.6719,40.4219 Q17,39.4063 17,38.2031 L17,37.1094 Q17,35.8594 17.5938,34.7656 Q18.2031,33.6719 19.25,33.0938 Q20.3125,32.5 21.5,32.5 Q22.2188,32.5 22.8438,32.75 Q23.4688,33 24,33.5 Z " fill="#000000"/><text fill="#000000" font-family="sans-serif" font-size="12" lengthAdjust="spacing" textLength="148" x="36" y="41.9102">ParameterCategoryMapper</text><line style="stroke:#A80036;stroke-width:1.5;" x1="8" x2="186" y1="53" y2="53"/><line style="stroke:#A80036;stroke-width:1.5;" x1="8" x2="186" y1="61" y2="61"/><text fill="#000000" font-family="sans-serif" font-size="11" lengthAdjust="spacing" textLength="54" x="13" y="76.4189">+toDto(lPC)</text><!--MD5=[48db186dc2eee348cb3ff3346e75f611]
reverse link SpecifyANewTypeOfTestController to SpecifyANewTypeOfTestUI--><path codeLine="45" d="M559.41,52 C569.29,52 579.17,52 589.05,52 " fill="none" id="SpecifyANewTypeOfTestController-backto-SpecifyANewTypeOfTestUI" style="stroke:#A80036;stroke-width:1.0;stroke-dasharray:7.0,7.0;"/><polygon fill="#A80036" points="554.24,52,563.24,56,559.24,52,563.24,48,554.24,52" style="stroke:#A80036;stroke-width:1.0;"/><!--MD5=[6a9fe409cfe6e132ff864fbc1fa9cc0f]
link SpecifyANewTypeOfTestController to Company--><path codeLine="46" d="M544.33,97.05 C616.59,118.97 688.78,143.76 699,158 C738.54,213.08 725.46,295.26 710.89,347.34 " fill="none" id="SpecifyANewTypeOfTestController-to-Company" style="stroke:#A80036;stroke-width:1.0;stroke-dasharray:7.0,7.0;"/><polygon fill="#A80036" points="709.48,352.29,715.7927,344.7302,710.8498,347.4813,708.0987,342.5385,709.48,352.29" style="stroke:#A80036;stroke-width:1.0;"/><!--MD5=[49f194e4e69d8fc6f8b60b4326e1b440]
reverse link TypeOfTestStore to Company--><path codeLine="47" d="M579.09,265.38 C603.4,293.11 632.5,326.32 655.33,352.38 " fill="none" id="TypeOfTestStore-backto-Company" style="stroke:#A80036;stroke-width:1.0;"/><polygon fill="#A80036" points="575.54,261.33,578.4739,270.7317,578.8396,265.0867,584.4846,265.4524,575.54,261.33" style="stroke:#A80036;stroke-width:1.0;"/><text fill="#000000" font-family="sans-serif" font-size="13" lengthAdjust="spacing" textLength="28" x="614" y="305.4951">uses</text><text fill="#000000" font-family="sans-serif" font-size="13" lengthAdjust="spacing" textLength="7" x="574.0548" y="282.8653">1</text><text fill="#000000" font-family="sans-serif" font-size="13" lengthAdjust="spacing" textLength="7" x="641.8727" y="341.8057">1</text><!--MD5=[d53d7490e5836ca5709858d7326f212b]
link Company to ParameterCategoryStore--><path codeLine="48" d="M622.26,442.52 C613.53,447.3 604.65,451.9 596,456 C523.24,490.47 437.16,521.6 374.03,542.75 " fill="none" id="Company-to-ParameterCategoryStore" style="stroke:#A80036;stroke-width:1.0;"/><polygon fill="#A80036" points="369.14,544.38,378.9439,545.3198,373.882,542.7946,376.4072,537.7326,369.14,544.38" style="stroke:#A80036;stroke-width:1.0;"/><text fill="#000000" font-family="sans-serif" font-size="13" lengthAdjust="spacing" textLength="28" x="523" y="500.4951">uses</text><text fill="#000000" font-family="sans-serif" font-size="13" lengthAdjust="spacing" textLength="7" x="604.6794" y="463.5304">1</text><text fill="#000000" font-family="sans-serif" font-size="13" lengthAdjust="spacing" textLength="7" x="376.9454" y="538.733">1</text><!--MD5=[a2b3d6bd5c8f015cffbf3777fd6580f2]
link TypeOfTestStore to TypeOfTest--><path codeLine="49" d="M507.23,261.33 C496.71,283.81 484.24,310.47 473.16,334.15 " fill="none" id="TypeOfTestStore-to-TypeOfTest" style="stroke:#A80036;stroke-width:1.0;"/><polygon fill="#A80036" points="470.97,338.84,478.4185,332.3964,473.0969,334.3149,471.1784,328.9933,470.97,338.84" style="stroke:#A80036;stroke-width:1.0;"/><text fill="#000000" font-family="sans-serif" font-size="13" lengthAdjust="spacing" textLength="29" x="494" y="305.4951">store</text><text fill="#000000" font-family="sans-serif" font-size="13" lengthAdjust="spacing" textLength="7" x="496.5656" y="282.8653">1</text><text fill="#000000" font-family="sans-serif" font-size="13" lengthAdjust="spacing" textLength="5" x="468.9523" y="328.2214">*</text><!--MD5=[bcc56ace85e585b2fc92a427d57b3b3c]
reverse link ParameterCategoryStore to SpecifyANewTypeOfTestController--><path codeLine="50" d="M282.56,528.46 C280.7,481.67 280.04,404.43 291,339 C307.33,241.54 324.52,219.97 358,127 C361.48,117.35 365.45,107.09 369.34,97.39 " fill="none" id="ParameterCategoryStore-backto-SpecifyANewTypeOfTestController" style="stroke:#A80036;stroke-width:1.0;stroke-dasharray:7.0,7.0;"/><polygon fill="#A80036" points="282.78,533.73,286.391,524.567,282.5659,528.7346,278.3983,524.9095,282.78,533.73" style="stroke:#A80036;stroke-width:1.0;"/><!--MD5=[96c136af7606ada690fbaee2128a285c]
reverse link ParameterCategoryMapper to SpecifyANewTypeOfTestController--><path codeLine="51" d="M192.21,52 C202.01,52 211.82,52 221.62,52 " fill="none" id="ParameterCategoryMapper-backto-SpecifyANewTypeOfTestController" style="stroke:#A80036;stroke-width:1.0;stroke-dasharray:7.0,7.0;"/><polygon fill="#A80036" points="187.08,52,196.08,56,192.08,52,196.08,48,187.08,52" style="stroke:#A80036;stroke-width:1.0;"/><!--MD5=[151ef71b1beaf3725cc3d3b9a6d64458]
link SpecifyANewTypeOfTestController to TypeOfTestStore--><path codeLine="52" d="M428.6,97.14 C444.93,114.91 463.93,135.56 481.09,154.23 " fill="none" id="SpecifyANewTypeOfTestController-to-TypeOfTestStore" style="stroke:#A80036;stroke-width:1.0;stroke-dasharray:7.0,7.0;"/><polygon fill="#A80036" points="484.5,157.94,481.3392,148.6121,481.1104,154.2643,475.4582,154.0355,484.5,157.94" style="stroke:#A80036;stroke-width:1.0;"/><!--MD5=[65e4b2c990f969a68b09f6afbaab81f9]
link SpecifyANewTypeOfTestController to TypeOfTest--><path codeLine="53" d="M372.97,97.16 C360.73,139.78 347.75,205.78 363,261 C370.11,286.76 383.56,312.55 397.48,334.61 " fill="none" id="SpecifyANewTypeOfTestController-to-TypeOfTest" style="stroke:#A80036;stroke-width:1.0;stroke-dasharray:7.0,7.0;"/><polygon fill="#A80036" points="400.27,338.98,398.7829,329.2441,397.5727,334.7699,392.0468,333.5597,400.27,338.98" style="stroke:#A80036;stroke-width:1.0;"/><!--MD5=[965ed77bfe445a72732b9f406c94679b]
@startuml
'https://plantuml.com/sequence-diagram
skinparam classAttributeIconSize 0

class SpecifyANewTypeOfTestUI{
}

class SpecifyANewTypeOfTestController{
    +createNewTypeOfTest(code, description, collectingMethod, pcId)
    +addCategory(pcId)
    +saveTypeOfTest()
}

class Company{
	-designation
	+getTestTypeStore()
	+getParameterCategoryStore()
}

class TypeOfTest{
    -code
    -shortName
    -description
    +TypeOfTest(code, description, collectingMethod, pc)
    +addParameterCategory(pc)
}

class TypeOfTestStore{
    +createTypeOfTest(code, description, collectingMethod, pc)
    +validateTypeOfTest(tot)
    +saveTypeOfTest(tot)
    -addTypeOfTest(tot)
}

class ParameterCategoryStore {
    +getParameterCategoryList()
    +getParameterCategory(pcId)
}

class ParameterCategoryMapper {
    +toDto(lPC)
}



SpecifyANewTypeOfTestController  <.right. SpecifyANewTypeOfTestUI
SpecifyANewTypeOfTestController .right.> Company
Company"1" -up-> "1"TypeOfTestStore : uses
Company"1" - -> "1"ParameterCategoryStore : uses
TypeOfTestStore"1" - -> "*"TypeOfTest : store
SpecifyANewTypeOfTestController .up.> ParameterCategoryStore
SpecifyANewTypeOfTestController .left.> ParameterCategoryMapper
SpecifyANewTypeOfTestController ..> TypeOfTestStore
SpecifyANewTypeOfTestController ..> TypeOfTest
@enduml

@startuml
skinparam classAttributeIconSize 0

class SpecifyANewTypeOfTestUI{
}

class SpecifyANewTypeOfTestController{
    +createNewTypeOfTest(code, description, collectingMethod, pcId)
    +addCategory(pcId)
    +saveTypeOfTest()
}

class Company{
	-designation
	+getTestTypeStore()
	+getParameterCategoryStore()
}

class TypeOfTest{
    -code
    -shortName
    -description
    +TypeOfTest(code, description, collectingMethod, pc)
    +addParameterCategory(pc)
}

class TypeOfTestStore{
    +createTypeOfTest(code, description, collectingMethod, pc)
    +validateTypeOfTest(tot)
    +saveTypeOfTest(tot)
    -addTypeOfTest(tot)
}

class ParameterCategoryStore {
    +getParameterCategoryList()
    +getParameterCategory(pcId)
}

class ParameterCategoryMapper {
    +toDto(lPC)
}



SpecifyANewTypeOfTestController  <.right. SpecifyANewTypeOfTestUI
SpecifyANewTypeOfTestController .right.> Company
Company"1" -up-> "1"TypeOfTestStore : uses
Company"1" - -> "1"ParameterCategoryStore : uses
TypeOfTestStore"1" - -> "*"TypeOfTest : store
SpecifyANewTypeOfTestController .up.> ParameterCategoryStore
SpecifyANewTypeOfTestController .left.> ParameterCategoryMapper
SpecifyANewTypeOfTestController ..> TypeOfTestStore
SpecifyANewTypeOfTestController ..> TypeOfTest
@enduml

PlantUML version 1.2021.5(Sun Apr 25 12:20:28 BST 2021)
(GPL source distribution)
Java Runtime: OpenJDK Runtime Environment
JVM: Dynamic Code Evolution 64-Bit Server VM
Default Encoding: Cp1252
Language: en
Country: US
--></g></svg>