<?xml version="1.0" encoding="UTF-8" standalone="no"?><svg xmlns="http://www.w3.org/2000/svg" xmlns:xlink="http://www.w3.org/1999/xlink" contentScriptType="application/ecmascript" contentStyleType="text/css" height="248px" preserveAspectRatio="none" style="width:334px;height:248px;" version="1.1" viewBox="0 0 334 248" width="334px" zoomAndPan="magnify"><defs><filter height="300%" id="fy9mlbhy5udb2" width="300%" x="-1" y="-1"><feGaussianBlur result="blurOut" stdDeviation="2.0"/><feColorMatrix in="blurOut" result="blurOut2" type="matrix" values="0 0 0 0 0 0 0 0 0 0 0 0 0 0 0 0 0 0 .4 0"/><feOffset dx="4.0" dy="4.0" in="blurOut2" result="blurOut3"/><feBlend in="SourceGraphic" in2="blurOut3" mode="normal"/></filter></defs><g><!--MD5=[02e4b9b7573f1156f41e60aa5b4e25a4]
class Company--><rect codeLine="15" fill="#FEFECE" filter="url(#fy9mlbhy5udb2)" height="53.8359" id="Company" style="stroke:#A80036;stroke-width:1.5;" width="85" x="235" y="14"/><ellipse cx="250" cy="30" fill="#ADD1B2" rx="11" ry="11" style="stroke:#A80036;stroke-width:1.0;"/><path d="M252,26.5 Q252.2031,26 252.4375,25.75 Q252.6719,25.5 252.9375,25.5 Q253.4063,25.5 253.7031,25.7813 Q254,26.0625 254,26.7188 L254,28.2813 Q254,28.9375 253.7188,29.2188 Q253.4375,29.5 253,29.5 Q252.6094,29.5 252.3594,29.3281 Q252.1094,29.1563 252,28.7031 Q251.9531,28.3906 251.7813,28.2188 Q251.4688,27.8906 250.9063,27.7031 Q250.3438,27.5 249.7813,27.5 Q249.0781,27.5 248.4844,27.7813 Q247.9063,28.0625 247.4531,28.6875 Q247,29.3125 247,30.1719 L247,31.0938 Q247,32.125 247.8438,32.8125 Q248.6875,33.5 250.1875,33.5 Q251.0781,33.5 251.7031,33.2969 Q252.0625,33.1875 252.4688,32.8281 Q252.7344,32.625 252.875,32.5625 Q253.0156,32.5 253.1875,32.5 Q253.5156,32.5 253.75,32.7656 Q254,33.0156 254,33.375 Q254,33.7188 253.6563,34.125 Q253.1563,34.7188 252.3594,35.0469 Q251.3125,35.5 250.0313,35.5 Q248.5313,35.5 247.3281,34.9063 Q246.3594,34.4375 245.6719,33.4219 Q245,32.4063 245,31.2031 L245,30.1094 Q245,28.8594 245.5938,27.7656 Q246.2031,26.6719 247.25,26.0938 Q248.3125,25.5 249.5,25.5 Q250.2188,25.5 250.8438,25.75 Q251.4688,26 252,26.5 Z " fill="#000000"/><text fill="#000000" font-family="sans-serif" font-size="12" lengthAdjust="spacing" textLength="53" x="264" y="34.9102">Company</text><line style="stroke:#A80036;stroke-width:1.5;" x1="236" x2="319" y1="46" y2="46"/><text fill="#000000" font-family="sans-serif" font-size="11" lengthAdjust="spacing" textLength="59" x="241" y="61.4189">-designation</text><!--MD5=[f69a48f7b38bde3533dca6607cc4e94a]
class TypeOfTest--><rect codeLine="9" fill="#FEFECE" filter="url(#fy9mlbhy5udb2)" height="81.5078" id="TypeOfTest" style="stroke:#A80036;stroke-width:1.5;" width="99" x="127" y="153"/><ellipse cx="144.25" cy="169" fill="#ADD1B2" rx="11" ry="11" style="stroke:#A80036;stroke-width:1.0;"/><path d="M146.25,165.5 Q146.4531,165 146.6875,164.75 Q146.9219,164.5 147.1875,164.5 Q147.6563,164.5 147.9531,164.7813 Q148.25,165.0625 148.25,165.7188 L148.25,167.2813 Q148.25,167.9375 147.9688,168.2188 Q147.6875,168.5 147.25,168.5 Q146.8594,168.5 146.6094,168.3281 Q146.3594,168.1563 146.25,167.7031 Q146.2031,167.3906 146.0313,167.2188 Q145.7188,166.8906 145.1563,166.7031 Q144.5938,166.5 144.0313,166.5 Q143.3281,166.5 142.7344,166.7813 Q142.1563,167.0625 141.7031,167.6875 Q141.25,168.3125 141.25,169.1719 L141.25,170.0938 Q141.25,171.125 142.0938,171.8125 Q142.9375,172.5 144.4375,172.5 Q145.3281,172.5 145.9531,172.2969 Q146.3125,172.1875 146.7188,171.8281 Q146.9844,171.625 147.125,171.5625 Q147.2656,171.5 147.4375,171.5 Q147.7656,171.5 148,171.7656 Q148.25,172.0156 148.25,172.375 Q148.25,172.7188 147.9063,173.125 Q147.4063,173.7188 146.6094,174.0469 Q145.5625,174.5 144.2813,174.5 Q142.7813,174.5 141.5781,173.9063 Q140.6094,173.4375 139.9219,172.4219 Q139.25,171.4063 139.25,170.2031 L139.25,169.1094 Q139.25,167.8594 139.8438,166.7656 Q140.4531,165.6719 141.5,165.0938 Q142.5625,164.5 143.75,164.5 Q144.4688,164.5 145.0938,164.75 Q145.7188,165 146.25,165.5 Z " fill="#000000"/><text fill="#000000" font-family="sans-serif" font-size="12" lengthAdjust="spacing" textLength="62" x="158.75" y="173.9102">TypeOfTest</text><line style="stroke:#A80036;stroke-width:1.5;" x1="128" x2="225" y1="185" y2="185"/><text fill="#000000" font-family="sans-serif" font-size="11" lengthAdjust="spacing" textLength="28" x="133" y="200.4189">-code</text><text fill="#000000" font-family="sans-serif" font-size="11" lengthAdjust="spacing" textLength="57" x="133" y="214.2549">-description</text><text fill="#000000" font-family="sans-serif" font-size="11" lengthAdjust="spacing" textLength="87" x="133" y="228.0908">-collecting method</text><!--MD5=[36afb6bbd95a8ac778c4537c55a683d5]
class ParameterCategory--><rect codeLine="19" fill="#FEFECE" filter="url(#fy9mlbhy5udb2)" height="67.6719" id="ParameterCategory" style="stroke:#A80036;stroke-width:1.5;" width="139" x="7" y="7"/><ellipse cx="22" cy="23" fill="#ADD1B2" rx="11" ry="11" style="stroke:#A80036;stroke-width:1.0;"/><path d="M24,19.5 Q24.2031,19 24.4375,18.75 Q24.6719,18.5 24.9375,18.5 Q25.4063,18.5 25.7031,18.7813 Q26,19.0625 26,19.7188 L26,21.2813 Q26,21.9375 25.7188,22.2188 Q25.4375,22.5 25,22.5 Q24.6094,22.5 24.3594,22.3281 Q24.1094,22.1563 24,21.7031 Q23.9531,21.3906 23.7813,21.2188 Q23.4688,20.8906 22.9063,20.7031 Q22.3438,20.5 21.7813,20.5 Q21.0781,20.5 20.4844,20.7813 Q19.9063,21.0625 19.4531,21.6875 Q19,22.3125 19,23.1719 L19,24.0938 Q19,25.125 19.8438,25.8125 Q20.6875,26.5 22.1875,26.5 Q23.0781,26.5 23.7031,26.2969 Q24.0625,26.1875 24.4688,25.8281 Q24.7344,25.625 24.875,25.5625 Q25.0156,25.5 25.1875,25.5 Q25.5156,25.5 25.75,25.7656 Q26,26.0156 26,26.375 Q26,26.7188 25.6563,27.125 Q25.1563,27.7188 24.3594,28.0469 Q23.3125,28.5 22.0313,28.5 Q20.5313,28.5 19.3281,27.9063 Q18.3594,27.4375 17.6719,26.4219 Q17,25.4063 17,24.2031 L17,23.1094 Q17,21.8594 17.5938,20.7656 Q18.2031,19.6719 19.25,19.0938 Q20.3125,18.5 21.5,18.5 Q22.2188,18.5 22.8438,18.75 Q23.4688,19 24,19.5 Z " fill="#000000"/><text fill="#000000" font-family="sans-serif" font-size="12" lengthAdjust="spacing" textLength="107" x="36" y="27.9102">ParameterCategory</text><line style="stroke:#A80036;stroke-width:1.5;" x1="8" x2="145" y1="39" y2="39"/><text fill="#000000" font-family="sans-serif" font-size="11" lengthAdjust="spacing" textLength="28" x="13" y="54.4189">-code</text><text fill="#000000" font-family="sans-serif" font-size="11" lengthAdjust="spacing" textLength="30" x="13" y="68.2549">-name</text><!--MD5=[147acf42fe9475025d9b6f56a55be7cf]
link Company to TypeOfTest--><path codeLine="5" d="M259.91,68.3 C244.31,91.62 221.29,126.04 203.38,152.81 " fill="none" id="Company-TypeOfTest" style="stroke:#A80036;stroke-width:1.0;"/><polygon fill="#000000" points="234.72,118.3317,242.1918,112.4476,237.3062,109.1795,234.72,118.3317" style="stroke:#000000;stroke-width:1.0;"/><text fill="#000000" font-family="sans-serif" font-size="13" lengthAdjust="spacing" textLength="53" x="246.5" y="119.4951">conducts</text><text fill="#000000" font-family="sans-serif" font-size="13" lengthAdjust="spacing" textLength="7" x="248.5602" y="89.1289">1</text><text fill="#000000" font-family="sans-serif" font-size="13" lengthAdjust="spacing" textLength="5" x="202.4179" y="142.2279">*</text><!--MD5=[486c72040073adb81f337087109fae3b]
link ParameterCategory to Company--><path codeLine="6" d="M146.24,41 C175.72,41 209.11,41 234.83,41 " fill="none" id="ParameterCategory-Company" style="stroke:#A80036;stroke-width:1.0;"/><polygon fill="#000000" points="163.5,29.1758,172.5451,32.1147,172.5451,26.2369,163.5,29.1758" style="stroke:#000000;stroke-width:1.0;"/><text fill="#000000" font-family="sans-serif" font-size="13" lengthAdjust="spacing" textLength="39" x="177.5" y="34.4951">adopts</text><text fill="#000000" font-family="sans-serif" font-size="13" lengthAdjust="spacing" textLength="5" x="154.1413" y="37.6573">*</text><text fill="#000000" font-family="sans-serif" font-size="13" lengthAdjust="spacing" textLength="7" x="219.8945" y="37.1644">1</text><!--MD5=[334b578e13447cb92b44420585535b5d]
link TypeOfTest to ParameterCategory--><path codeLine="7" d="M149.98,152.96 C133.9,128.68 113.62,98.06 98.45,75.14 " fill="none" id="TypeOfTest-ParameterCategory" style="stroke:#A80036;stroke-width:1.0;"/><polygon fill="#000000" points="131.7395,110.0069,134.2829,119.1711,139.1837,115.9259,131.7395,110.0069" style="stroke:#000000;stroke-width:1.0;"/><text fill="#000000" font-family="sans-serif" font-size="13" lengthAdjust="spacing" textLength="32" x="143.5" y="119.4951">has a</text><text fill="#000000" font-family="sans-serif" font-size="13" lengthAdjust="spacing" textLength="5" x="139.9922" y="142.0989">*</text><text fill="#000000" font-family="sans-serif" font-size="13" lengthAdjust="spacing" textLength="7" x="94.7364" y="96.2018">1</text><!--MD5=[8a1bbb49fa88becd3b55e38e90a8d7da]
@startuml
'https://plantuml.com/sequence-diagram
hide methods
skinparam classAttributeIconSize 0

Company"1" - - "*"TypeOfTest:> conducts
Company"1" -left- "*"ParameterCategory : "> adopts"
TypeOfTest"*" - - "1"ParameterCategory : "> has a"

class TypeOfTest{
-code
-description
-collecting method
}

class Company{
-designation
}

class ParameterCategory{
    -code
    -name
}
@enduml

@startuml
hide methods
skinparam classAttributeIconSize 0

Company"1" - - "*"TypeOfTest:> conducts
Company"1" -left- "*"ParameterCategory : "> adopts"
TypeOfTest"*" - - "1"ParameterCategory : "> has a"

class TypeOfTest{
-code
-description
-collecting method
}

class Company{
-designation
}

class ParameterCategory{
    -code
    -name
}
@enduml

PlantUML version 1.2021.5(Sun Apr 25 12:20:28 BST 2021)
(GPL source distribution)
Java Runtime: OpenJDK Runtime Environment
JVM: Dynamic Code Evolution 64-Bit Server VM
Default Encoding: Cp1252
Language: en
Country: US
--></g></svg>