<?xml version="1.0" encoding="UTF-8" standalone="no"?><svg xmlns="http://www.w3.org/2000/svg" xmlns:xlink="http://www.w3.org/1999/xlink" contentScriptType="application/ecmascript" contentStyleType="text/css" height="828px" preserveAspectRatio="none" style="width:545px;height:828px;" version="1.1" viewBox="0 0 545 828" width="545px" zoomAndPan="magnify"><defs><filter height="300%" id="ffnederad0en" width="300%" x="-1" y="-1"><feGaussianBlur result="blurOut" stdDeviation="2.0"/><feColorMatrix in="blurOut" result="blurOut2" type="matrix" values="0 0 0 0 0 0 0 0 0 0 0 0 0 0 0 0 0 0 .4 0"/><feOffset dx="4.0" dy="4.0" in="blurOut2" result="blurOut3"/><feBlend in="SourceGraphic" in2="blurOut3" mode="normal"/></filter></defs><g><!--MD5=[6010be3749ac50eaa2836ec367c7fc93]
class ClientChangesUI--><rect codeLine="3" fill="#FEFECE" filter="url(#ffnederad0en)" height="48" id="ClientChangesUI" style="stroke:#A80036;stroke-width:1.5;" width="127" x="90" y="7"/><ellipse cx="105" cy="23" fill="#ADD1B2" rx="11" ry="11" style="stroke:#A80036;stroke-width:1.0;"/><path d="M107,19.5 Q107.2031,19 107.4375,18.75 Q107.6719,18.5 107.9375,18.5 Q108.4063,18.5 108.7031,18.7813 Q109,19.0625 109,19.7188 L109,21.2813 Q109,21.9375 108.7188,22.2188 Q108.4375,22.5 108,22.5 Q107.6094,22.5 107.3594,22.3281 Q107.1094,22.1563 107,21.7031 Q106.9531,21.3906 106.7813,21.2188 Q106.4688,20.8906 105.9063,20.7031 Q105.3438,20.5 104.7813,20.5 Q104.0781,20.5 103.4844,20.7813 Q102.9063,21.0625 102.4531,21.6875 Q102,22.3125 102,23.1719 L102,24.0938 Q102,25.125 102.8438,25.8125 Q103.6875,26.5 105.1875,26.5 Q106.0781,26.5 106.7031,26.2969 Q107.0625,26.1875 107.4688,25.8281 Q107.7344,25.625 107.875,25.5625 Q108.0156,25.5 108.1875,25.5 Q108.5156,25.5 108.75,25.7656 Q109,26.0156 109,26.375 Q109,26.7188 108.6563,27.125 Q108.1563,27.7188 107.3594,28.0469 Q106.3125,28.5 105.0313,28.5 Q103.5313,28.5 102.3281,27.9063 Q101.3594,27.4375 100.6719,26.4219 Q100,25.4063 100,24.2031 L100,23.1094 Q100,21.8594 100.5938,20.7656 Q101.2031,19.6719 102.25,19.0938 Q103.3125,18.5 104.5,18.5 Q105.2188,18.5 105.8438,18.75 Q106.4688,19 107,19.5 Z " fill="#000000"/><text fill="#000000" font-family="sans-serif" font-size="12" lengthAdjust="spacing" textLength="95" x="119" y="27.9102">ClientChangesUI</text><line style="stroke:#A80036;stroke-width:1.5;" x1="91" x2="216" y1="39" y2="39"/><line style="stroke:#A80036;stroke-width:1.5;" x1="91" x2="216" y1="47" y2="47"/><!--MD5=[5972b10412db1467fa6fe525a4b9b514]
class ChangeClientDataController--><rect codeLine="6" fill="#FEFECE" filter="url(#ffnederad0en)" height="186.3594" id="ChangeClientDataController" style="stroke:#A80036;stroke-width:1.5;" width="273" x="17" y="116"/><ellipse cx="71.25" cy="132" fill="#ADD1B2" rx="11" ry="11" style="stroke:#A80036;stroke-width:1.0;"/><path d="M73.25,128.5 Q73.4531,128 73.6875,127.75 Q73.9219,127.5 74.1875,127.5 Q74.6563,127.5 74.9531,127.7813 Q75.25,128.0625 75.25,128.7188 L75.25,130.2813 Q75.25,130.9375 74.9688,131.2188 Q74.6875,131.5 74.25,131.5 Q73.8594,131.5 73.6094,131.3281 Q73.3594,131.1563 73.25,130.7031 Q73.2031,130.3906 73.0313,130.2188 Q72.7188,129.8906 72.1563,129.7031 Q71.5938,129.5 71.0313,129.5 Q70.3281,129.5 69.7344,129.7813 Q69.1563,130.0625 68.7031,130.6875 Q68.25,131.3125 68.25,132.1719 L68.25,133.0938 Q68.25,134.125 69.0938,134.8125 Q69.9375,135.5 71.4375,135.5 Q72.3281,135.5 72.9531,135.2969 Q73.3125,135.1875 73.7188,134.8281 Q73.9844,134.625 74.125,134.5625 Q74.2656,134.5 74.4375,134.5 Q74.7656,134.5 75,134.7656 Q75.25,135.0156 75.25,135.375 Q75.25,135.7188 74.9063,136.125 Q74.4063,136.7188 73.6094,137.0469 Q72.5625,137.5 71.2813,137.5 Q69.7813,137.5 68.5781,136.9063 Q67.6094,136.4375 66.9219,135.4219 Q66.25,134.4063 66.25,133.2031 L66.25,132.1094 Q66.25,130.8594 66.8438,129.7656 Q67.4531,128.6719 68.5,128.0938 Q69.5625,127.5 70.75,127.5 Q71.4688,127.5 72.0938,127.75 Q72.7188,128 73.25,128.5 Z " fill="#000000"/><text fill="#000000" font-family="sans-serif" font-size="12" lengthAdjust="spacing" textLength="156" x="91.75" y="136.9102">ChangeClientDataController</text><line style="stroke:#A80036;stroke-width:1.5;" x1="18" x2="289" y1="148" y2="148"/><line style="stroke:#A80036;stroke-width:1.5;" x1="18" x2="289" y1="156" y2="156"/><text fill="#000000" font-family="sans-serif" font-size="11" lengthAdjust="spacing" textLength="92" x="23" y="171.4189">+getClientByEmail()</text><text fill="#000000" font-family="sans-serif" font-size="11" lengthAdjust="spacing" textLength="89" x="23" y="185.2549">+showData(client)</text><text fill="#000000" font-family="sans-serif" font-size="11" lengthAdjust="spacing" textLength="131" x="23" y="199.0908">+changeName(client,name)</text><text fill="#000000" font-family="sans-serif" font-size="11" lengthAdjust="spacing" textLength="261" x="23" y="212.9268">+changeCitizenCardNumber(client,citizenCardNumber)</text><text fill="#000000" font-family="sans-serif" font-size="11" lengthAdjust="spacing" textLength="189" x="23" y="226.7627">+changeNhsNumber(client,nhsNumber)</text><text fill="#000000" font-family="sans-serif" font-size="11" lengthAdjust="spacing" textLength="177" x="23" y="240.5986">+changeTinNumber(client,tinNumber)</text><text fill="#000000" font-family="sans-serif" font-size="11" lengthAdjust="spacing" textLength="165" x="23" y="254.4346">+changeBirthDate(client,birthDate)</text><text fill="#000000" font-family="sans-serif" font-size="11" lengthAdjust="spacing" textLength="212" x="23" y="268.2705">+changePhoneNumber(client,phoneNumber)</text><text fill="#000000" font-family="sans-serif" font-size="11" lengthAdjust="spacing" textLength="126" x="23" y="282.1064">+changeEmail(client,email)</text><text fill="#000000" font-family="sans-serif" font-size="11" lengthAdjust="spacing" textLength="64" x="23" y="295.9424">+saveClient()</text><!--MD5=[c5b08e60048ef1bcd788d24cf324082e]
class UserSession--><rect codeLine="20" fill="#FEFECE" filter="url(#ffnederad0en)" height="61.8359" id="UserSession" style="stroke:#A80036;stroke-width:1.5;" width="105" x="426" y="683"/><ellipse cx="441" cy="699" fill="#ADD1B2" rx="11" ry="11" style="stroke:#A80036;stroke-width:1.0;"/><path d="M443,695.5 Q443.2031,695 443.4375,694.75 Q443.6719,694.5 443.9375,694.5 Q444.4063,694.5 444.7031,694.7813 Q445,695.0625 445,695.7188 L445,697.2813 Q445,697.9375 444.7188,698.2188 Q444.4375,698.5 444,698.5 Q443.6094,698.5 443.3594,698.3281 Q443.1094,698.1563 443,697.7031 Q442.9531,697.3906 442.7813,697.2188 Q442.4688,696.8906 441.9063,696.7031 Q441.3438,696.5 440.7813,696.5 Q440.0781,696.5 439.4844,696.7813 Q438.9063,697.0625 438.4531,697.6875 Q438,698.3125 438,699.1719 L438,700.0938 Q438,701.125 438.8438,701.8125 Q439.6875,702.5 441.1875,702.5 Q442.0781,702.5 442.7031,702.2969 Q443.0625,702.1875 443.4688,701.8281 Q443.7344,701.625 443.875,701.5625 Q444.0156,701.5 444.1875,701.5 Q444.5156,701.5 444.75,701.7656 Q445,702.0156 445,702.375 Q445,702.7188 444.6563,703.125 Q444.1563,703.7188 443.3594,704.0469 Q442.3125,704.5 441.0313,704.5 Q439.5313,704.5 438.3281,703.9063 Q437.3594,703.4375 436.6719,702.4219 Q436,701.4063 436,700.2031 L436,699.1094 Q436,697.8594 436.5938,696.7656 Q437.2031,695.6719 438.25,695.0938 Q439.3125,694.5 440.5,694.5 Q441.2188,694.5 441.8438,694.75 Q442.4688,695 443,695.5 Z " fill="#000000"/><text fill="#000000" font-family="sans-serif" font-size="12" lengthAdjust="spacing" textLength="73" x="455" y="703.9102">UserSession</text><line style="stroke:#A80036;stroke-width:1.5;" x1="427" x2="530" y1="715" y2="715"/><line style="stroke:#A80036;stroke-width:1.5;" x1="427" x2="530" y1="723" y2="723"/><text fill="#000000" font-family="sans-serif" font-size="11" lengthAdjust="spacing" textLength="60" x="432" y="738.4189">+getUserId()</text><!--MD5=[ed6624c6556d5e7b1bd23032162d20b7]
class Client--><rect codeLine="24" fill="#FEFECE" filter="url(#ffnederad0en)" height="200.1953" id="Client" style="stroke:#A80036;stroke-width:1.5;" width="107" x="121" y="614"/><ellipse cx="155.35" cy="630" fill="#ADD1B2" rx="11" ry="11" style="stroke:#A80036;stroke-width:1.0;"/><path d="M157.35,626.5 Q157.5531,626 157.7875,625.75 Q158.0219,625.5 158.2875,625.5 Q158.7563,625.5 159.0531,625.7813 Q159.35,626.0625 159.35,626.7188 L159.35,628.2813 Q159.35,628.9375 159.0688,629.2188 Q158.7875,629.5 158.35,629.5 Q157.9594,629.5 157.7094,629.3281 Q157.4594,629.1563 157.35,628.7031 Q157.3031,628.3906 157.1313,628.2188 Q156.8188,627.8906 156.2563,627.7031 Q155.6938,627.5 155.1313,627.5 Q154.4281,627.5 153.8344,627.7813 Q153.2563,628.0625 152.8031,628.6875 Q152.35,629.3125 152.35,630.1719 L152.35,631.0938 Q152.35,632.125 153.1938,632.8125 Q154.0375,633.5 155.5375,633.5 Q156.4281,633.5 157.0531,633.2969 Q157.4125,633.1875 157.8188,632.8281 Q158.0844,632.625 158.225,632.5625 Q158.3656,632.5 158.5375,632.5 Q158.8656,632.5 159.1,632.7656 Q159.35,633.0156 159.35,633.375 Q159.35,633.7188 159.0063,634.125 Q158.5063,634.7188 157.7094,635.0469 Q156.6625,635.5 155.3813,635.5 Q153.8813,635.5 152.6781,634.9063 Q151.7094,634.4375 151.0219,633.4219 Q150.35,632.4063 150.35,631.2031 L150.35,630.1094 Q150.35,628.8594 150.9438,627.7656 Q151.5531,626.6719 152.6,626.0938 Q153.6625,625.5 154.85,625.5 Q155.5688,625.5 156.1938,625.75 Q156.8188,626 157.35,626.5 Z " fill="#000000"/><text fill="#000000" font-family="sans-serif" font-size="12" lengthAdjust="spacing" textLength="32" x="173.65" y="634.9102">Client</text><line style="stroke:#A80036;stroke-width:1.5;" x1="122" x2="227" y1="646" y2="646"/><text fill="#000000" font-family="sans-serif" font-size="11" lengthAdjust="spacing" textLength="30" x="127" y="661.4189">-name</text><text fill="#000000" font-family="sans-serif" font-size="11" lengthAdjust="spacing" textLength="95" x="127" y="675.2549">-citizenCardNumber</text><text fill="#000000" font-family="sans-serif" font-size="11" lengthAdjust="spacing" textLength="59" x="127" y="689.0908">-nhsNumber</text><text fill="#000000" font-family="sans-serif" font-size="11" lengthAdjust="spacing" textLength="52" x="127" y="702.9268">-tinNumber</text><text fill="#000000" font-family="sans-serif" font-size="11" lengthAdjust="spacing" textLength="47" x="127" y="716.7627">-birthDate</text><text fill="#000000" font-family="sans-serif" font-size="11" lengthAdjust="spacing" textLength="22" x="127" y="730.5986">-sex</text><text fill="#000000" font-family="sans-serif" font-size="11" lengthAdjust="spacing" textLength="71" x="127" y="744.4346">-phoneNumber</text><text fill="#000000" font-family="sans-serif" font-size="11" lengthAdjust="spacing" textLength="28" x="127" y="758.2705">-email</text><line style="stroke:#A80036;stroke-width:1.5;" x1="122" x2="227" y1="764.6875" y2="764.6875"/><text fill="#000000" font-family="sans-serif" font-size="11" lengthAdjust="spacing" textLength="80" x="127" y="780.1064">+client(clientDto)</text><text fill="#000000" font-family="sans-serif" font-size="11" lengthAdjust="spacing" textLength="53" x="127" y="793.9424">+getEmail()</text><text fill="#000000" font-family="sans-serif" font-size="11" lengthAdjust="spacing" textLength="56" x="127" y="807.7783">+getName()</text><!--MD5=[02e4b9b7573f1156f41e60aa5b4e25a4]
class Company--><rect codeLine="38" fill="#FEFECE" filter="url(#ffnederad0en)" height="89.5078" id="Company" style="stroke:#A80036;stroke-width:1.5;" width="93" x="7" y="404.5"/><ellipse cx="25.6" cy="420.5" fill="#ADD1B2" rx="11" ry="11" style="stroke:#A80036;stroke-width:1.0;"/><path d="M27.6,417 Q27.8031,416.5 28.0375,416.25 Q28.2719,416 28.5375,416 Q29.0063,416 29.3031,416.2813 Q29.6,416.5625 29.6,417.2188 L29.6,418.7813 Q29.6,419.4375 29.3188,419.7188 Q29.0375,420 28.6,420 Q28.2094,420 27.9594,419.8281 Q27.7094,419.6563 27.6,419.2031 Q27.5531,418.8906 27.3813,418.7188 Q27.0688,418.3906 26.5063,418.2031 Q25.9438,418 25.3813,418 Q24.6781,418 24.0844,418.2813 Q23.5063,418.5625 23.0531,419.1875 Q22.6,419.8125 22.6,420.6719 L22.6,421.5938 Q22.6,422.625 23.4438,423.3125 Q24.2875,424 25.7875,424 Q26.6781,424 27.3031,423.7969 Q27.6625,423.6875 28.0688,423.3281 Q28.3344,423.125 28.475,423.0625 Q28.6156,423 28.7875,423 Q29.1156,423 29.35,423.2656 Q29.6,423.5156 29.6,423.875 Q29.6,424.2188 29.2563,424.625 Q28.7563,425.2188 27.9594,425.5469 Q26.9125,426 25.6313,426 Q24.1313,426 22.9281,425.4063 Q21.9594,424.9375 21.2719,423.9219 Q20.6,422.9063 20.6,421.7031 L20.6,420.6094 Q20.6,419.3594 21.1938,418.2656 Q21.8031,417.1719 22.85,416.5938 Q23.9125,416 25.1,416 Q25.8188,416 26.4438,416.25 Q27.0688,416.5 27.6,417 Z " fill="#000000"/><text fill="#000000" font-family="sans-serif" font-size="12" lengthAdjust="spacing" textLength="53" x="40.4" y="425.4102">Company</text><line style="stroke:#A80036;stroke-width:1.5;" x1="8" x2="99" y1="436.5" y2="436.5"/><text fill="#000000" font-family="sans-serif" font-size="11" lengthAdjust="spacing" textLength="30" x="13" y="451.9189">-name</text><text fill="#000000" font-family="sans-serif" font-size="11" lengthAdjust="spacing" textLength="41" x="13" y="465.7549">-location</text><line style="stroke:#A80036;stroke-width:1.5;" x1="8" x2="99" y1="472.1719" y2="472.1719"/><text fill="#000000" font-family="sans-serif" font-size="11" lengthAdjust="spacing" textLength="81" x="13" y="487.5908">+getClientStore()</text><!--MD5=[55cb992be19579b505cea3c5691093cb]
class ClientStore--><rect codeLine="44" fill="#FEFECE" filter="url(#ffnederad0en)" height="172.5234" id="ClientStore" style="stroke:#A80036;stroke-width:1.5;" width="273" x="207" y="363"/><ellipse cx="308.75" cy="379" fill="#ADD1B2" rx="11" ry="11" style="stroke:#A80036;stroke-width:1.0;"/><path d="M310.75,375.5 Q310.9531,375 311.1875,374.75 Q311.4219,374.5 311.6875,374.5 Q312.1563,374.5 312.4531,374.7813 Q312.75,375.0625 312.75,375.7188 L312.75,377.2813 Q312.75,377.9375 312.4688,378.2188 Q312.1875,378.5 311.75,378.5 Q311.3594,378.5 311.1094,378.3281 Q310.8594,378.1563 310.75,377.7031 Q310.7031,377.3906 310.5313,377.2188 Q310.2188,376.8906 309.6563,376.7031 Q309.0938,376.5 308.5313,376.5 Q307.8281,376.5 307.2344,376.7813 Q306.6563,377.0625 306.2031,377.6875 Q305.75,378.3125 305.75,379.1719 L305.75,380.0938 Q305.75,381.125 306.5938,381.8125 Q307.4375,382.5 308.9375,382.5 Q309.8281,382.5 310.4531,382.2969 Q310.8125,382.1875 311.2188,381.8281 Q311.4844,381.625 311.625,381.5625 Q311.7656,381.5 311.9375,381.5 Q312.2656,381.5 312.5,381.7656 Q312.75,382.0156 312.75,382.375 Q312.75,382.7188 312.4063,383.125 Q311.9063,383.7188 311.1094,384.0469 Q310.0625,384.5 308.7813,384.5 Q307.2813,384.5 306.0781,383.9063 Q305.1094,383.4375 304.4219,382.4219 Q303.75,381.4063 303.75,380.2031 L303.75,379.1094 Q303.75,377.8594 304.3438,376.7656 Q304.9531,375.6719 306,375.0938 Q307.0625,374.5 308.25,374.5 Q308.9688,374.5 309.5938,374.75 Q310.2188,375 310.75,375.5 Z " fill="#000000"/><text fill="#000000" font-family="sans-serif" font-size="12" lengthAdjust="spacing" textLength="61" x="329.25" y="383.9102">ClientStore</text><line style="stroke:#A80036;stroke-width:1.5;" x1="208" x2="479" y1="395" y2="395"/><line style="stroke:#A80036;stroke-width:1.5;" x1="208" x2="479" y1="403" y2="403"/><text fill="#000000" font-family="sans-serif" font-size="11" lengthAdjust="spacing" textLength="106" x="213" y="418.4189">+saveChanges(client)</text><text fill="#000000" font-family="sans-serif" font-size="11" lengthAdjust="spacing" textLength="102" x="213" y="432.2549">+validateClient(client)</text><text fill="#000000" font-family="sans-serif" font-size="11" lengthAdjust="spacing" textLength="92" x="213" y="446.0908">+getClientByEmail()</text><text fill="#000000" font-family="sans-serif" font-size="11" lengthAdjust="spacing" textLength="131" x="213" y="459.9268">+changeName(client,name)</text><text fill="#000000" font-family="sans-serif" font-size="11" lengthAdjust="spacing" textLength="261" x="213" y="473.7627">+changeCitizenCardNumber(client,citizenCardNumber)</text><text fill="#000000" font-family="sans-serif" font-size="11" lengthAdjust="spacing" textLength="189" x="213" y="487.5986">+changeNhsNumber(client,nhsNumber)</text><text fill="#000000" font-family="sans-serif" font-size="11" lengthAdjust="spacing" textLength="177" x="213" y="501.4346">+changeTinNumber(client,tinNumber)</text><text fill="#000000" font-family="sans-serif" font-size="11" lengthAdjust="spacing" textLength="165" x="213" y="515.2705">+changeBirthDate(client,birthDate)</text><text fill="#000000" font-family="sans-serif" font-size="11" lengthAdjust="spacing" textLength="212" x="213" y="529.1064">+changePhoneNumber(client,phoneNumber)</text><!--MD5=[8ae808d068a8995f06b9b3ec51357f0b]
class AuthFacade--><rect codeLine="56" fill="#FEFECE" filter="url(#ffnederad0en)" height="61.8359" id="AuthFacade" style="stroke:#A80036;stroke-width:1.5;" width="116" x="274.5" y="683"/><ellipse cx="298.05" cy="699" fill="#ADD1B2" rx="11" ry="11" style="stroke:#A80036;stroke-width:1.0;"/><path d="M300.05,695.5 Q300.2531,695 300.4875,694.75 Q300.7219,694.5 300.9875,694.5 Q301.4563,694.5 301.7531,694.7813 Q302.05,695.0625 302.05,695.7188 L302.05,697.2813 Q302.05,697.9375 301.7688,698.2188 Q301.4875,698.5 301.05,698.5 Q300.6594,698.5 300.4094,698.3281 Q300.1594,698.1563 300.05,697.7031 Q300.0031,697.3906 299.8313,697.2188 Q299.5188,696.8906 298.9563,696.7031 Q298.3938,696.5 297.8313,696.5 Q297.1281,696.5 296.5344,696.7813 Q295.9563,697.0625 295.5031,697.6875 Q295.05,698.3125 295.05,699.1719 L295.05,700.0938 Q295.05,701.125 295.8938,701.8125 Q296.7375,702.5 298.2375,702.5 Q299.1281,702.5 299.7531,702.2969 Q300.1125,702.1875 300.5188,701.8281 Q300.7844,701.625 300.925,701.5625 Q301.0656,701.5 301.2375,701.5 Q301.5656,701.5 301.8,701.7656 Q302.05,702.0156 302.05,702.375 Q302.05,702.7188 301.7063,703.125 Q301.2063,703.7188 300.4094,704.0469 Q299.3625,704.5 298.0813,704.5 Q296.5813,704.5 295.3781,703.9063 Q294.4094,703.4375 293.7219,702.4219 Q293.05,701.4063 293.05,700.2031 L293.05,699.1094 Q293.05,697.8594 293.6438,696.7656 Q294.2531,695.6719 295.3,695.0938 Q296.3625,694.5 297.55,694.5 Q298.2688,694.5 298.8938,694.75 Q299.5188,695 300.05,695.5 Z " fill="#000000"/><text fill="#000000" font-family="sans-serif" font-size="12" lengthAdjust="spacing" textLength="65" x="313.95" y="703.9102">AuthFacade</text><line style="stroke:#A80036;stroke-width:1.5;" x1="275.5" x2="389.5" y1="715" y2="715"/><line style="stroke:#A80036;stroke-width:1.5;" x1="275.5" x2="389.5" y1="723" y2="723"/><text fill="#000000" font-family="sans-serif" font-size="11" lengthAdjust="spacing" textLength="104" x="280.5" y="738.4189">+getCurrentSession()</text><!--MD5=[32c2210b87105a10437e78f24ef04a51]
link ClientChangesUI to ChangeClientDataController--><path codeLine="60" d="M153.5,55.01 C153.5,69.67 153.5,89.78 153.5,110.59 " fill="none" id="ClientChangesUI-to-ChangeClientDataController" style="stroke:#A80036;stroke-width:1.0;stroke-dasharray:7.0,7.0;"/><polygon fill="#A80036" points="153.5,115.61,157.5,106.61,153.5,110.61,149.5,106.61,153.5,115.61" style="stroke:#A80036;stroke-width:1.0;"/><!--MD5=[5cbe5dc2104b745c63084dfbc6372748]
link ChangeClientDataController to Client--><path codeLine="61" d="M157.35,302.26 C160.97,388.83 166.37,518.16 170.14,608.5 " fill="none" id="ChangeClientDataController-to-Client" style="stroke:#A80036;stroke-width:1.0;stroke-dasharray:7.0,7.0;"/><polygon fill="#A80036" points="170.35,613.58,173.9871,604.4273,170.1502,608.584,165.9935,604.7471,170.35,613.58" style="stroke:#A80036;stroke-width:1.0;"/><!--MD5=[849aba0c27f087ffebc76a710943c403]
link ChangeClientDataController to ClientStore--><path codeLine="62" d="M226.96,302.21 C241.72,320.73 257.2,340.18 271.9,358.62 " fill="none" id="ChangeClientDataController-to-ClientStore" style="stroke:#A80036;stroke-width:1.0;stroke-dasharray:7.0,7.0;"/><polygon fill="#A80036" points="275.22,362.79,272.7255,353.2623,272.0983,358.8843,266.4763,358.2571,275.22,362.79" style="stroke:#A80036;stroke-width:1.0;"/><!--MD5=[6ee7f9bf466c2652cae10c7a037003d4]
link ChangeClientDataController to Company--><path codeLine="63" d="M114.84,302.21 C100.91,335.42 85.75,371.58 73.99,399.64 " fill="none" id="ChangeClientDataController-to-Company" style="stroke:#A80036;stroke-width:1.0;stroke-dasharray:7.0,7.0;"/><polygon fill="#A80036" points="71.98,404.43,79.1591,397.6875,73.9203,399.8218,71.786,394.5831,71.98,404.43" style="stroke:#A80036;stroke-width:1.0;"/><!--MD5=[a11230341c8e65219708844feaa40162]
link Company to ClientStore--><path codeLine="64" d="M100.09,449.5 C127.87,449.5 164.76,449.5 201.41,449.5 " fill="none" id="Company-to-ClientStore" style="stroke:#A80036;stroke-width:1.0;"/><polygon fill="#A80036" points="206.81,449.5,197.81,445.5,201.81,449.5,197.81,453.5,206.81,449.5" style="stroke:#A80036;stroke-width:1.0;"/><text fill="#000000" font-family="sans-serif" font-size="13" lengthAdjust="spacing" textLength="28" x="139.5" y="442.9951">uses</text><text fill="#000000" font-family="sans-serif" font-size="13" lengthAdjust="spacing" textLength="7" x="108.0731" y="445.7874">1</text><text fill="#000000" font-family="sans-serif" font-size="13" lengthAdjust="spacing" textLength="7" x="192.1434" y="446.5803">1</text><!--MD5=[f8bd89e10615b5e5f22d4bd50c99347c]
link ClientStore to AuthFacade--><path codeLine="65" d="M339.91,536.09 C337.9,584.15 335.49,641.53 333.98,677.63 " fill="none" id="ClientStore-to-AuthFacade" style="stroke:#A80036;stroke-width:1.0;stroke-dasharray:7.0,7.0;"/><polygon fill="#A80036" points="333.77,682.8,338.1275,673.9676,333.9704,677.804,330.134,673.6469,333.77,682.8" style="stroke:#A80036;stroke-width:1.0;"/><!--MD5=[61ea77365f556ecab5ce31fbe45addfe]
link ClientStore to UserSession--><path codeLine="66" d="M387.52,536.09 C412.33,584.34 441.99,642 460.54,678.07 " fill="none" id="ClientStore-to-UserSession" style="stroke:#A80036;stroke-width:1.0;stroke-dasharray:7.0,7.0;"/><polygon fill="#A80036" points="462.97,682.8,462.4224,672.9664,460.6884,678.3509,455.3039,676.6169,462.97,682.8" style="stroke:#A80036;stroke-width:1.0;"/><!--MD5=[1d934105a045dbf126514c6917bd5072]
link ClientStore to Client--><path codeLine="67" d="M288.4,536.09 C269.94,564.75 249.35,596.73 230.81,625.54 " fill="none" id="ClientStore-to-Client" style="stroke:#A80036;stroke-width:1.0;"/><polygon fill="#A80036" points="228.09,629.76,236.3262,624.3595,230.7974,625.5564,229.6004,620.0277,228.09,629.76" style="stroke:#A80036;stroke-width:1.0;"/><polygon fill="#000000" points="271.7933,579.3798,279.1608,573.3656,274.2187,570.1837,271.7933,579.3798" style="stroke:#000000;stroke-width:1.0;"/><text fill="#000000" font-family="sans-serif" font-size="13" lengthAdjust="spacing" textLength="37" x="283.5" y="580.4951">knows</text><text fill="#000000" font-family="sans-serif" font-size="13" lengthAdjust="spacing" textLength="7" x="276.7303" y="557.1558">1</text><text fill="#000000" font-family="sans-serif" font-size="13" lengthAdjust="spacing" textLength="5" x="235.9777" y="614.2949">*</text><!--MD5=[3a6d3946ac21b11125cd647d49cc35fe]
@startuml
skinparam classAttributeIconSize 0

class ClientChangesUI{
}

class ChangeClientDataController
{
    +getClientByEmail()
    +showData(client)
    +changeName(client,name)
    +changeCitizenCardNumber(client,citizenCardNumber)
    +changeNhsNumber(client,nhsNumber)
    +changeTinNumber(client,tinNumber)
    +changeBirthDate(client,birthDate)
    +changePhoneNumber(client,phoneNumber)
    +changeEmail(client,email)
    +saveClient()
}

class UserSession{
+getUserId()
}

class Client{
	-name
	-citizenCardNumber
    -nhsNumber
    -tinNumber
    -birthDate
    -sex
    -phoneNumber
    -email
    +client(clientDto)
    +getEmail()
    +getName()
}

class Company{
-name
-location
+getClientStore()
}

class ClientStore{
+saveChanges(client)
+validateClient(client)
+getClientByEmail()
+changeName(client,name)
+changeCitizenCardNumber(client,citizenCardNumber)
+changeNhsNumber(client,nhsNumber)
+changeTinNumber(client,tinNumber)
+changeBirthDate(client,birthDate)
+changePhoneNumber(client,phoneNumber)
}

class AuthFacade{
+getCurrentSession()
}

ClientChangesUI ..> ChangeClientDataController
ChangeClientDataController ..> Client
ChangeClientDataController ..> ClientStore
ChangeClientDataController ..> Company
Company"1" -> "1"ClientStore : uses
ClientStore ..> AuthFacade
ClientStore ..> UserSession
ClientStore"1" - -> "*"Client :> knows


@enduml

PlantUML version 1.2021.5(Sun Apr 25 12:20:28 BST 2021)
(GPL source distribution)
Java Runtime: OpenJDK Runtime Environment
JVM: Dynamic Code Evolution 64-Bit Server VM
Default Encoding: Cp1252
Language: pt
Country: PT
--></g></svg>