<?xml version="1.0" encoding="UTF-8" standalone="no"?><svg xmlns="http://www.w3.org/2000/svg" xmlns:xlink="http://www.w3.org/1999/xlink" contentScriptType="application/ecmascript" contentStyleType="text/css" height="2010px" preserveAspectRatio="none" style="width:1497px;height:2010px;" version="1.1" viewBox="0 0 1497 2010" width="1497px" zoomAndPan="magnify"><defs><filter height="300%" id="fst05l3ogmhcf" width="300%" x="-1" y="-1"><feGaussianBlur result="blurOut" stdDeviation="2.0"/><feColorMatrix in="blurOut" result="blurOut2" type="matrix" values="0 0 0 0 0 0 0 0 0 0 0 0 0 0 0 0 0 0 .4 0"/><feOffset dx="4.0" dy="4.0" in="blurOut2" result="blurOut3"/><feBlend in="SourceGraphic" in2="blurOut3" mode="normal"/></filter></defs><g><rect fill="#FFFFFF" filter="url(#fst05l3ogmhcf)" height="348.8125" style="stroke:#A80036;stroke-width:1.0;" width="10" x="420" y="121.9609"/><rect fill="#FFFFFF" filter="url(#fst05l3ogmhcf)" height="121.0547" style="stroke:#A80036;stroke-width:1.0;" width="10" x="420" y="542.8281"/><rect fill="#FFFFFF" filter="url(#fst05l3ogmhcf)" height="786.3281" style="stroke:#A80036;stroke-width:1.0;" width="10" x="420" y="694.2344"/><rect fill="#FFFFFF" filter="url(#fst05l3ogmhcf)" height="164.4063" style="stroke:#A80036;stroke-width:1.0;" width="10" x="420" y="1735.3203"/><rect fill="#FFFFFF" filter="url(#fst05l3ogmhcf)" height="271.7578" style="stroke:#A80036;stroke-width:1.0;" width="10" x="593.5" y="152.3125"/><rect fill="#FFFFFF" filter="url(#fst05l3ogmhcf)" height="60.3516" style="stroke:#A80036;stroke-width:1.0;" width="10" x="593.5" y="573.1797"/><rect fill="#FFFFFF" filter="url(#fst05l3ogmhcf)" height="973.3828" style="stroke:#A80036;stroke-width:1.0;" width="10" x="593.5" y="724.5859"/><rect fill="#FFFFFF" filter="url(#fst05l3ogmhcf)" height="96.7031" style="stroke:#A80036;stroke-width:1.0;" width="10" x="593.5" y="1765.6719"/><rect fill="#FFFFFF" filter="url(#fst05l3ogmhcf)" height="30" style="stroke:#A80036;stroke-width:1.0;" width="10" x="749.5" y="182.6641"/><rect fill="#FFFFFF" filter="url(#fst05l3ogmhcf)" height="181.0547" style="stroke:#A80036;stroke-width:1.0;" width="10" x="862.5" y="243.0156"/><rect fill="#FFFFFF" filter="url(#fst05l3ogmhcf)" height="60.3516" style="stroke:#A80036;stroke-width:1.0;" width="10" x="862.5" y="754.9375"/><rect fill="#FFFFFF" filter="url(#fst05l3ogmhcf)" height="60.3516" style="stroke:#A80036;stroke-width:1.0;" width="10" x="862.5" y="845.6406"/><rect fill="#FFFFFF" filter="url(#fst05l3ogmhcf)" height="60.3516" style="stroke:#A80036;stroke-width:1.0;" width="10" x="862.5" y="936.3438"/><rect fill="#FFFFFF" filter="url(#fst05l3ogmhcf)" height="60.3516" style="stroke:#A80036;stroke-width:1.0;" width="10" x="862.5" y="1027.0469"/><rect fill="#FFFFFF" filter="url(#fst05l3ogmhcf)" height="60.3516" style="stroke:#A80036;stroke-width:1.0;" width="10" x="862.5" y="1117.75"/><rect fill="#FFFFFF" filter="url(#fst05l3ogmhcf)" height="60.3516" style="stroke:#A80036;stroke-width:1.0;" width="10" x="862.5" y="1208.4531"/><rect fill="#FFFFFF" filter="url(#fst05l3ogmhcf)" height="60.3516" style="stroke:#A80036;stroke-width:1.0;" width="10" x="862.5" y="1299.1563"/><rect fill="#FFFFFF" filter="url(#fst05l3ogmhcf)" height="60.3516" style="stroke:#A80036;stroke-width:1.0;" width="10" x="862.5" y="1389.8594"/><rect fill="#FFFFFF" filter="url(#fst05l3ogmhcf)" height="187.0547" style="stroke:#A80036;stroke-width:1.0;" width="10" x="862.5" y="1510.9141"/><rect fill="#FFFFFF" filter="url(#fst05l3ogmhcf)" height="28" style="stroke:#A80036;stroke-width:1.0;" width="10" x="867.5" y="1669.9688"/><rect fill="#FFFFFF" filter="url(#fst05l3ogmhcf)" height="66.3516" style="stroke:#A80036;stroke-width:1.0;" width="10" x="862.5" y="1796.0234"/><rect fill="#FFFFFF" filter="url(#fst05l3ogmhcf)" height="28" style="stroke:#A80036;stroke-width:1.0;" width="10" x="867.5" y="1834.375"/><rect fill="#FFFFFF" filter="url(#fst05l3ogmhcf)" height="30" style="stroke:#A80036;stroke-width:1.0;" width="10" x="1147.5" y="603.5313"/><rect fill="#FFFFFF" filter="url(#fst05l3ogmhcf)" height="30" style="stroke:#A80036;stroke-width:1.0;" width="10" x="1147.5" y="785.2891"/><rect fill="#FFFFFF" filter="url(#fst05l3ogmhcf)" height="30" style="stroke:#A80036;stroke-width:1.0;" width="10" x="1147.5" y="875.9922"/><rect fill="#FFFFFF" filter="url(#fst05l3ogmhcf)" height="30" style="stroke:#A80036;stroke-width:1.0;" width="10" x="1147.5" y="966.6953"/><rect fill="#FFFFFF" filter="url(#fst05l3ogmhcf)" height="30" style="stroke:#A80036;stroke-width:1.0;" width="10" x="1147.5" y="1057.3984"/><rect fill="#FFFFFF" filter="url(#fst05l3ogmhcf)" height="30" style="stroke:#A80036;stroke-width:1.0;" width="10" x="1147.5" y="1148.1016"/><rect fill="#FFFFFF" filter="url(#fst05l3ogmhcf)" height="30" style="stroke:#A80036;stroke-width:1.0;" width="10" x="1147.5" y="1238.8047"/><rect fill="#FFFFFF" filter="url(#fst05l3ogmhcf)" height="30" style="stroke:#A80036;stroke-width:1.0;" width="10" x="1147.5" y="1329.5078"/><rect fill="#FFFFFF" filter="url(#fst05l3ogmhcf)" height="30" style="stroke:#A80036;stroke-width:1.0;" width="10" x="1147.5" y="1420.2109"/><rect fill="#FFFFFF" filter="url(#fst05l3ogmhcf)" height="30" style="stroke:#A80036;stroke-width:1.0;" width="10" x="1147.5" y="1541.2656"/><rect fill="#FFFFFF" filter="url(#fst05l3ogmhcf)" height="30" style="stroke:#A80036;stroke-width:1.0;" width="10" x="1220" y="394.0703"/><rect fill="#FFFFFF" filter="url(#fst05l3ogmhcf)" height="30" style="stroke:#A80036;stroke-width:1.0;" width="10" x="1308.5" y="333.7188"/><rect fill="#FFFFFF" filter="url(#fst05l3ogmhcf)" height="30" style="stroke:#A80036;stroke-width:1.0;" width="10" x="1418.5" y="273.3672"/><rect fill="#FFFFFF" filter="url(#fst05l3ogmhcf)" height="30" style="stroke:#A80036;stroke-width:1.0;" width="10" x="1418.5" y="1601.6172"/><rect fill="#FFFFFF" filter="url(#fst05l3ogmhcf)" height="1421.9531" style="stroke:#000000;stroke-width:2.0;" width="1473" x="10" y="485.7734"/><line style="stroke:#A80036;stroke-width:1.0;stroke-dasharray:5.0,5.0;" x1="41" x2="41" y1="89.6094" y2="1924.7266"/><line style="stroke:#A80036;stroke-width:1.0;stroke-dasharray:5.0,5.0;" x1="424.5" x2="424.5" y1="89.6094" y2="1924.7266"/><line style="stroke:#A80036;stroke-width:1.0;stroke-dasharray:5.0,5.0;" x1="598.5" x2="598.5" y1="89.6094" y2="1924.7266"/><line style="stroke:#A80036;stroke-width:1.0;stroke-dasharray:5.0,5.0;" x1="754.5" x2="754.5" y1="89.6094" y2="1924.7266"/><line style="stroke:#A80036;stroke-width:1.0;stroke-dasharray:5.0,5.0;" x1="867.5" x2="867.5" y1="89.6094" y2="1924.7266"/><line style="stroke:#A80036;stroke-width:1.0;stroke-dasharray:5.0,5.0;" x1="1152" x2="1152" y1="89.6094" y2="1924.7266"/><line style="stroke:#A80036;stroke-width:1.0;stroke-dasharray:5.0,5.0;" x1="1225" x2="1225" y1="89.6094" y2="1924.7266"/><line style="stroke:#A80036;stroke-width:1.0;stroke-dasharray:5.0,5.0;" x1="1313" x2="1313" y1="89.6094" y2="1924.7266"/><line style="stroke:#A80036;stroke-width:1.0;stroke-dasharray:5.0,5.0;" x1="1423" x2="1423" y1="89.6094" y2="1924.7266"/><text fill="#000000" font-family="sans-serif" font-size="14" lengthAdjust="spacing" textLength="36" x="20" y="86.5332">Client</text><ellipse cx="41" cy="15" fill="#FEFECE" filter="url(#fst05l3ogmhcf)" rx="8" ry="8" style="stroke:#A80036;stroke-width:2.0;"/><path d="M41,23 L41,50 M28,31 L54,31 M41,50 L28,65 M41,50 L54,65 " fill="none" filter="url(#fst05l3ogmhcf)" style="stroke:#A80036;stroke-width:2.0;"/><text fill="#000000" font-family="sans-serif" font-size="14" lengthAdjust="spacing" textLength="36" x="20" y="1938.2598">Client</text><ellipse cx="41" cy="1951.3359" fill="#FEFECE" filter="url(#fst05l3ogmhcf)" rx="8" ry="8" style="stroke:#A80036;stroke-width:2.0;"/><path d="M41,1959.3359 L41,1986.3359 M28,1967.3359 L54,1967.3359 M41,1986.3359 L28,2001.3359 M41,1986.3359 L54,2001.3359 " fill="none" filter="url(#fst05l3ogmhcf)" style="stroke:#A80036;stroke-width:2.0;"/><rect fill="#FEFECE" filter="url(#fst05l3ogmhcf)" height="31.6094" style="stroke:#A80036;stroke-width:1.5;" width="123" x="361.5" y="53"/><text fill="#000000" font-family="sans-serif" font-size="14" lengthAdjust="spacing" textLength="109" x="368.5" y="74.5332">:ClientChangesUI</text><rect fill="#FEFECE" filter="url(#fst05l3ogmhcf)" height="31.6094" style="stroke:#A80036;stroke-width:1.5;" width="123" x="361.5" y="1923.7266"/><text fill="#000000" font-family="sans-serif" font-size="14" lengthAdjust="spacing" textLength="109" x="368.5" y="1945.2598">:ClientChangesUI</text><rect fill="#FEFECE" filter="url(#fst05l3ogmhcf)" height="31.6094" style="stroke:#A80036;stroke-width:1.5;" width="196" x="498.5" y="53"/><text fill="#000000" font-family="sans-serif" font-size="14" lengthAdjust="spacing" textLength="182" x="505.5" y="74.5332">:ChangeClientDataController</text><rect fill="#FEFECE" filter="url(#fst05l3ogmhcf)" height="31.6094" style="stroke:#A80036;stroke-width:1.5;" width="196" x="498.5" y="1923.7266"/><text fill="#000000" font-family="sans-serif" font-size="14" lengthAdjust="spacing" textLength="182" x="505.5" y="1945.2598">:ChangeClientDataController</text><rect fill="#FEFECE" filter="url(#fst05l3ogmhcf)" height="31.6094" style="stroke:#A80036;stroke-width:1.5;" width="78" x="713.5" y="53"/><text fill="#000000" font-family="sans-serif" font-size="14" lengthAdjust="spacing" textLength="64" x="720.5" y="74.5332">:Company</text><rect fill="#FEFECE" filter="url(#fst05l3ogmhcf)" height="31.6094" style="stroke:#A80036;stroke-width:1.5;" width="78" x="713.5" y="1923.7266"/><text fill="#000000" font-family="sans-serif" font-size="14" lengthAdjust="spacing" textLength="64" x="720.5" y="1945.2598">:Company</text><rect fill="#FEFECE" filter="url(#fst05l3ogmhcf)" height="31.6094" style="stroke:#A80036;stroke-width:1.5;" width="120" x="805.5" y="53"/><text fill="#000000" font-family="sans-serif" font-size="14" lengthAdjust="spacing" textLength="106" x="812.5" y="74.5332">store:ClientStore</text><rect fill="#FEFECE" filter="url(#fst05l3ogmhcf)" height="31.6094" style="stroke:#A80036;stroke-width:1.5;" width="120" x="805.5" y="1923.7266"/><text fill="#000000" font-family="sans-serif" font-size="14" lengthAdjust="spacing" textLength="106" x="812.5" y="1945.2598">store:ClientStore</text><rect fill="#FEFECE" filter="url(#fst05l3ogmhcf)" height="31.6094" style="stroke:#A80036;stroke-width:1.5;" width="65" x="1118" y="53"/><text fill="#000000" font-family="sans-serif" font-size="14" lengthAdjust="spacing" textLength="51" x="1125" y="74.5332">ct:Client</text><rect fill="#FEFECE" filter="url(#fst05l3ogmhcf)" height="31.6094" style="stroke:#A80036;stroke-width:1.5;" width="65" x="1118" y="1923.7266"/><text fill="#000000" font-family="sans-serif" font-size="14" lengthAdjust="spacing" textLength="51" x="1125" y="1945.2598">ct:Client</text><rect fill="#FEFECE" filter="url(#fst05l3ogmhcf)" height="31.6094" style="stroke:#A80036;stroke-width:1.5;" width="52" x="1197" y="53"/><text fill="#000000" font-family="sans-serif" font-size="14" lengthAdjust="spacing" textLength="38" x="1204" y="74.5332">:Email</text><rect fill="#FEFECE" filter="url(#fst05l3ogmhcf)" height="31.6094" style="stroke:#A80036;stroke-width:1.5;" width="52" x="1197" y="1923.7266"/><text fill="#000000" font-family="sans-serif" font-size="14" lengthAdjust="spacing" textLength="38" x="1204" y="1945.2598">:Email</text><rect fill="#FEFECE" filter="url(#fst05l3ogmhcf)" height="31.6094" style="stroke:#A80036;stroke-width:1.5;" width="97" x="1263" y="53"/><text fill="#000000" font-family="sans-serif" font-size="14" lengthAdjust="spacing" textLength="83" x="1270" y="74.5332">:UserSession</text><rect fill="#FEFECE" filter="url(#fst05l3ogmhcf)" height="31.6094" style="stroke:#A80036;stroke-width:1.5;" width="97" x="1263" y="1923.7266"/><text fill="#000000" font-family="sans-serif" font-size="14" lengthAdjust="spacing" textLength="83" x="1270" y="1945.2598">:UserSession</text><rect fill="#FEFECE" filter="url(#fst05l3ogmhcf)" height="31.6094" style="stroke:#A80036;stroke-width:1.5;" width="95" x="1374" y="53"/><text fill="#000000" font-family="sans-serif" font-size="14" lengthAdjust="spacing" textLength="81" x="1381" y="74.5332">:AuthFacade</text><rect fill="#FEFECE" filter="url(#fst05l3ogmhcf)" height="31.6094" style="stroke:#A80036;stroke-width:1.5;" width="95" x="1374" y="1923.7266"/><text fill="#000000" font-family="sans-serif" font-size="14" lengthAdjust="spacing" textLength="81" x="1381" y="1945.2598">:AuthFacade</text><rect fill="#FFFFFF" filter="url(#fst05l3ogmhcf)" height="348.8125" style="stroke:#A80036;stroke-width:1.0;" width="10" x="420" y="121.9609"/><rect fill="#FFFFFF" filter="url(#fst05l3ogmhcf)" height="121.0547" style="stroke:#A80036;stroke-width:1.0;" width="10" x="420" y="542.8281"/><rect fill="#FFFFFF" filter="url(#fst05l3ogmhcf)" height="786.3281" style="stroke:#A80036;stroke-width:1.0;" width="10" x="420" y="694.2344"/><rect fill="#FFFFFF" filter="url(#fst05l3ogmhcf)" height="164.4063" style="stroke:#A80036;stroke-width:1.0;" width="10" x="420" y="1735.3203"/><rect fill="#FFFFFF" filter="url(#fst05l3ogmhcf)" height="271.7578" style="stroke:#A80036;stroke-width:1.0;" width="10" x="593.5" y="152.3125"/><rect fill="#FFFFFF" filter="url(#fst05l3ogmhcf)" height="60.3516" style="stroke:#A80036;stroke-width:1.0;" width="10" x="593.5" y="573.1797"/><rect fill="#FFFFFF" filter="url(#fst05l3ogmhcf)" height="973.3828" style="stroke:#A80036;stroke-width:1.0;" width="10" x="593.5" y="724.5859"/><rect fill="#FFFFFF" filter="url(#fst05l3ogmhcf)" height="96.7031" style="stroke:#A80036;stroke-width:1.0;" width="10" x="593.5" y="1765.6719"/><rect fill="#FFFFFF" filter="url(#fst05l3ogmhcf)" height="30" style="stroke:#A80036;stroke-width:1.0;" width="10" x="749.5" y="182.6641"/><rect fill="#FFFFFF" filter="url(#fst05l3ogmhcf)" height="181.0547" style="stroke:#A80036;stroke-width:1.0;" width="10" x="862.5" y="243.0156"/><rect fill="#FFFFFF" filter="url(#fst05l3ogmhcf)" height="60.3516" style="stroke:#A80036;stroke-width:1.0;" width="10" x="862.5" y="754.9375"/><rect fill="#FFFFFF" filter="url(#fst05l3ogmhcf)" height="60.3516" style="stroke:#A80036;stroke-width:1.0;" width="10" x="862.5" y="845.6406"/><rect fill="#FFFFFF" filter="url(#fst05l3ogmhcf)" height="60.3516" style="stroke:#A80036;stroke-width:1.0;" width="10" x="862.5" y="936.3438"/><rect fill="#FFFFFF" filter="url(#fst05l3ogmhcf)" height="60.3516" style="stroke:#A80036;stroke-width:1.0;" width="10" x="862.5" y="1027.0469"/><rect fill="#FFFFFF" filter="url(#fst05l3ogmhcf)" height="60.3516" style="stroke:#A80036;stroke-width:1.0;" width="10" x="862.5" y="1117.75"/><rect fill="#FFFFFF" filter="url(#fst05l3ogmhcf)" height="60.3516" style="stroke:#A80036;stroke-width:1.0;" width="10" x="862.5" y="1208.4531"/><rect fill="#FFFFFF" filter="url(#fst05l3ogmhcf)" height="60.3516" style="stroke:#A80036;stroke-width:1.0;" width="10" x="862.5" y="1299.1563"/><rect fill="#FFFFFF" filter="url(#fst05l3ogmhcf)" height="60.3516" style="stroke:#A80036;stroke-width:1.0;" width="10" x="862.5" y="1389.8594"/><rect fill="#FFFFFF" filter="url(#fst05l3ogmhcf)" height="187.0547" style="stroke:#A80036;stroke-width:1.0;" width="10" x="862.5" y="1510.9141"/><rect fill="#FFFFFF" filter="url(#fst05l3ogmhcf)" height="28" style="stroke:#A80036;stroke-width:1.0;" width="10" x="867.5" y="1669.9688"/><rect fill="#FFFFFF" filter="url(#fst05l3ogmhcf)" height="66.3516" style="stroke:#A80036;stroke-width:1.0;" width="10" x="862.5" y="1796.0234"/><rect fill="#FFFFFF" filter="url(#fst05l3ogmhcf)" height="28" style="stroke:#A80036;stroke-width:1.0;" width="10" x="867.5" y="1834.375"/><rect fill="#FFFFFF" filter="url(#fst05l3ogmhcf)" height="30" style="stroke:#A80036;stroke-width:1.0;" width="10" x="1147.5" y="603.5313"/><rect fill="#FFFFFF" filter="url(#fst05l3ogmhcf)" height="30" style="stroke:#A80036;stroke-width:1.0;" width="10" x="1147.5" y="785.2891"/><rect fill="#FFFFFF" filter="url(#fst05l3ogmhcf)" height="30" style="stroke:#A80036;stroke-width:1.0;" width="10" x="1147.5" y="875.9922"/><rect fill="#FFFFFF" filter="url(#fst05l3ogmhcf)" height="30" style="stroke:#A80036;stroke-width:1.0;" width="10" x="1147.5" y="966.6953"/><rect fill="#FFFFFF" filter="url(#fst05l3ogmhcf)" height="30" style="stroke:#A80036;stroke-width:1.0;" width="10" x="1147.5" y="1057.3984"/><rect fill="#FFFFFF" filter="url(#fst05l3ogmhcf)" height="30" style="stroke:#A80036;stroke-width:1.0;" width="10" x="1147.5" y="1148.1016"/><rect fill="#FFFFFF" filter="url(#fst05l3ogmhcf)" height="30" style="stroke:#A80036;stroke-width:1.0;" width="10" x="1147.5" y="1238.8047"/><rect fill="#FFFFFF" filter="url(#fst05l3ogmhcf)" height="30" style="stroke:#A80036;stroke-width:1.0;" width="10" x="1147.5" y="1329.5078"/><rect fill="#FFFFFF" filter="url(#fst05l3ogmhcf)" height="30" style="stroke:#A80036;stroke-width:1.0;" width="10" x="1147.5" y="1420.2109"/><rect fill="#FFFFFF" filter="url(#fst05l3ogmhcf)" height="30" style="stroke:#A80036;stroke-width:1.0;" width="10" x="1147.5" y="1541.2656"/><rect fill="#FFFFFF" filter="url(#fst05l3ogmhcf)" height="30" style="stroke:#A80036;stroke-width:1.0;" width="10" x="1220" y="394.0703"/><rect fill="#FFFFFF" filter="url(#fst05l3ogmhcf)" height="30" style="stroke:#A80036;stroke-width:1.0;" width="10" x="1308.5" y="333.7188"/><rect fill="#FFFFFF" filter="url(#fst05l3ogmhcf)" height="30" style="stroke:#A80036;stroke-width:1.0;" width="10" x="1418.5" y="273.3672"/><rect fill="#FFFFFF" filter="url(#fst05l3ogmhcf)" height="30" style="stroke:#A80036;stroke-width:1.0;" width="10" x="1418.5" y="1601.6172"/><polygon fill="#A80036" points="408,117.9609,418,121.9609,408,125.9609,412,121.9609" style="stroke:#A80036;stroke-width:1.0;"/><line style="stroke:#A80036;stroke-width:1.0;" x1="41" x2="414" y1="121.9609" y2="121.9609"/><text fill="#000000" font-family="sans-serif" font-size="13" lengthAdjust="spacing" textLength="124" x="48" y="117.1045">change personal data</text><polygon fill="#A80036" points="581.5,148.3125,591.5,152.3125,581.5,156.3125,585.5,152.3125" style="stroke:#A80036;stroke-width:1.0;"/><line style="stroke:#A80036;stroke-width:1.0;" x1="430" x2="587.5" y1="152.3125" y2="152.3125"/><text fill="#000000" font-family="sans-serif" font-size="13" lengthAdjust="spacing" textLength="108" x="437" y="147.4561">getClientByEmail()</text><polygon fill="#A80036" points="737.5,178.6641,747.5,182.6641,737.5,186.6641,741.5,182.6641" style="stroke:#A80036;stroke-width:1.0;"/><line style="stroke:#A80036;stroke-width:1.0;" x1="603.5" x2="743.5" y1="182.6641" y2="182.6641"/><text fill="#000000" font-family="sans-serif" font-size="13" lengthAdjust="spacing" textLength="127" x="610.5" y="177.8076">store=getClientStore()</text><polygon fill="#A80036" points="850.5,239.0156,860.5,243.0156,850.5,247.0156,854.5,243.0156" style="stroke:#A80036;stroke-width:1.0;"/><line style="stroke:#A80036;stroke-width:1.0;" x1="603.5" x2="856.5" y1="243.0156" y2="243.0156"/><text fill="#000000" font-family="sans-serif" font-size="13" lengthAdjust="spacing" textLength="155" x="610.5" y="238.1592">client = getClientByEmail()</text><polygon fill="#A80036" points="1406.5,269.3672,1416.5,273.3672,1406.5,277.3672,1410.5,273.3672" style="stroke:#A80036;stroke-width:1.0;"/><line style="stroke:#A80036;stroke-width:1.0;" x1="872.5" x2="1412.5" y1="273.3672" y2="273.3672"/><text fill="#000000" font-family="sans-serif" font-size="13" lengthAdjust="spacing" textLength="181" x="879.5" y="268.5107">emailUser=getCurrentSession()</text><polygon fill="#A80036" points="1296.5,329.7188,1306.5,333.7188,1296.5,337.7188,1300.5,333.7188" style="stroke:#A80036;stroke-width:1.0;"/><line style="stroke:#A80036;stroke-width:1.0;" x1="872.5" x2="1302.5" y1="333.7188" y2="333.7188"/><text fill="#000000" font-family="sans-serif" font-size="13" lengthAdjust="spacing" textLength="89" x="879.5" y="328.8623">id = getUserId()</text><polygon fill="#A80036" points="1208,390.0703,1218,394.0703,1208,398.0703,1212,394.0703" style="stroke:#A80036;stroke-width:1.0;"/><line style="stroke:#A80036;stroke-width:1.0;" x1="872.5" x2="1214" y1="394.0703" y2="394.0703"/><text fill="#000000" font-family="sans-serif" font-size="13" lengthAdjust="spacing" textLength="106" x="879.5" y="389.2139">email = getEmail()</text><polygon fill="#A80036" points="52,466.7734,42,470.7734,52,474.7734,48,470.7734" style="stroke:#A80036;stroke-width:1.0;"/><line style="stroke:#A80036;stroke-width:1.0;stroke-dasharray:2.0,2.0;" x1="46" x2="424" y1="470.7734" y2="470.7734"/><text fill="#000000" font-family="sans-serif" font-size="13" lengthAdjust="spacing" textLength="285" x="58" y="449.5654">shows the registration form with the previous data</text><text fill="#000000" font-family="sans-serif" font-size="13" lengthAdjust="spacing" textLength="255" x="62" y="465.917">and ask to select the type of data to change</text><path d="M10,485.7734 L83,485.7734 L83,493.7734 L73,503.7734 L10,503.7734 L10,485.7734 " fill="#EEEEEE" style="stroke:#000000;stroke-width:1.0;"/><rect fill="none" height="1421.9531" style="stroke:#000000;stroke-width:2.0;" width="1473" x="10" y="485.7734"/><text fill="#000000" font-family="sans-serif" font-size="13" font-weight="bold" lengthAdjust="spacing" textLength="28" x="25" y="500.2686">loop</text><polygon fill="#A80036" points="408,538.8281,418,542.8281,408,546.8281,412,542.8281" style="stroke:#A80036;stroke-width:1.0;"/><line style="stroke:#A80036;stroke-width:1.0;" x1="41" x2="414" y1="542.8281" y2="542.8281"/><text fill="#000000" font-family="sans-serif" font-size="13" lengthAdjust="spacing" textLength="231" x="48" y="521.6201">select the type of data that is to validate</text><text fill="#000000" font-family="sans-serif" font-size="13" lengthAdjust="spacing" textLength="193" x="48" y="537.9717">(ex. nhs number, tin number, ect)</text><polygon fill="#A80036" points="581.5,569.1797,591.5,573.1797,581.5,577.1797,585.5,573.1797" style="stroke:#A80036;stroke-width:1.0;"/><line style="stroke:#A80036;stroke-width:1.0;" x1="430" x2="587.5" y1="573.1797" y2="573.1797"/><text fill="#000000" font-family="sans-serif" font-size="13" lengthAdjust="spacing" textLength="96" x="437" y="568.3232">showData(client)</text><polygon fill="#A80036" points="1135.5,599.5313,1145.5,603.5313,1135.5,607.5313,1139.5,603.5313" style="stroke:#A80036;stroke-width:1.0;"/><line style="stroke:#A80036;stroke-width:1.0;" x1="603.5" x2="1141.5" y1="603.5313" y2="603.5313"/><text fill="#000000" font-family="sans-serif" font-size="13" lengthAdjust="spacing" textLength="53" x="610.5" y="598.6748">toString()</text><polygon fill="#A80036" points="52,659.8828,42,663.8828,52,667.8828,48,663.8828" style="stroke:#A80036;stroke-width:1.0;"/><line style="stroke:#A80036;stroke-width:1.0;stroke-dasharray:2.0,2.0;" x1="46" x2="424" y1="663.8828" y2="663.8828"/><text fill="#000000" font-family="sans-serif" font-size="13" lengthAdjust="spacing" textLength="231" x="58" y="659.0264">shows the type of data registered before</text><polygon fill="#A80036" points="408,690.2344,418,694.2344,408,698.2344,412,694.2344" style="stroke:#A80036;stroke-width:1.0;"/><line style="stroke:#A80036;stroke-width:1.0;" x1="41" x2="414" y1="694.2344" y2="694.2344"/><text fill="#000000" font-family="sans-serif" font-size="13" lengthAdjust="spacing" textLength="191" x="48" y="689.3779">writes the changes that he wants</text><polygon fill="#A80036" points="581.5,720.5859,591.5,724.5859,581.5,728.5859,585.5,724.5859" style="stroke:#A80036;stroke-width:1.0;"/><line style="stroke:#A80036;stroke-width:1.0;" x1="430" x2="587.5" y1="724.5859" y2="724.5859"/><text fill="#000000" font-family="sans-serif" font-size="13" lengthAdjust="spacing" textLength="108" x="437" y="719.7295">changeData(client)</text><polygon fill="#A80036" points="850.5,750.9375,860.5,754.9375,850.5,758.9375,854.5,754.9375" style="stroke:#A80036;stroke-width:1.0;"/><line style="stroke:#A80036;stroke-width:1.0;" x1="603.5" x2="856.5" y1="754.9375" y2="754.9375"/><text fill="#000000" font-family="sans-serif" font-size="13" lengthAdjust="spacing" textLength="115" x="610.5" y="750.0811">changeName(client)</text><polygon fill="#A80036" points="1135.5,781.2891,1145.5,785.2891,1135.5,789.2891,1139.5,785.2891" style="stroke:#A80036;stroke-width:1.0;"/><line style="stroke:#A80036;stroke-width:1.0;" x1="872.5" x2="1141.5" y1="785.2891" y2="785.2891"/><text fill="#000000" font-family="sans-serif" font-size="13" lengthAdjust="spacing" textLength="100" x="879.5" y="780.4326">name=setName()</text><polygon fill="#A80036" points="850.5,841.6406,860.5,845.6406,850.5,849.6406,854.5,845.6406" style="stroke:#A80036;stroke-width:1.0;"/><line style="stroke:#A80036;stroke-width:1.0;" x1="603.5" x2="856.5" y1="845.6406" y2="845.6406"/><text fill="#000000" font-family="sans-serif" font-size="13" lengthAdjust="spacing" textLength="193" x="610.5" y="840.7842">changeCitizenCardNumber(client)</text><polygon fill="#A80036" points="1135.5,871.9922,1145.5,875.9922,1135.5,879.9922,1139.5,875.9922" style="stroke:#A80036;stroke-width:1.0;"/><line style="stroke:#A80036;stroke-width:1.0;" x1="872.5" x2="1141.5" y1="875.9922" y2="875.9922"/><text fill="#000000" font-family="sans-serif" font-size="13" lengthAdjust="spacing" textLength="256" x="879.5" y="871.1357">citizenCardNumber=setCitizenCardNumber()</text><polygon fill="#A80036" points="850.5,932.3438,860.5,936.3438,850.5,940.3438,854.5,936.3438" style="stroke:#A80036;stroke-width:1.0;"/><line style="stroke:#A80036;stroke-width:1.0;" x1="603.5" x2="856.5" y1="936.3438" y2="936.3438"/><text fill="#000000" font-family="sans-serif" font-size="13" lengthAdjust="spacing" textLength="149" x="610.5" y="931.4873">changeNhsNumber(client)</text><polygon fill="#A80036" points="1135.5,962.6953,1145.5,966.6953,1135.5,970.6953,1139.5,966.6953" style="stroke:#A80036;stroke-width:1.0;"/><line style="stroke:#A80036;stroke-width:1.0;" x1="872.5" x2="1141.5" y1="966.6953" y2="966.6953"/><text fill="#000000" font-family="sans-serif" font-size="13" lengthAdjust="spacing" textLength="168" x="879.5" y="961.8389">nhsNumber=setNhsNumber()</text><polygon fill="#A80036" points="850.5,1023.0469,860.5,1027.0469,850.5,1031.0469,854.5,1027.0469" style="stroke:#A80036;stroke-width:1.0;"/><line style="stroke:#A80036;stroke-width:1.0;" x1="603.5" x2="856.5" y1="1027.0469" y2="1027.0469"/><text fill="#000000" font-family="sans-serif" font-size="13" lengthAdjust="spacing" textLength="143" x="610.5" y="1022.1904">changeTinNumber(client)</text><polygon fill="#A80036" points="1135.5,1053.3984,1145.5,1057.3984,1135.5,1061.3984,1139.5,1057.3984" style="stroke:#A80036;stroke-width:1.0;"/><line style="stroke:#A80036;stroke-width:1.0;" x1="872.5" x2="1141.5" y1="1057.3984" y2="1057.3984"/><text fill="#000000" font-family="sans-serif" font-size="13" lengthAdjust="spacing" textLength="155" x="879.5" y="1052.542">tinNumber=setTinNumber()</text><polygon fill="#A80036" points="850.5,1113.75,860.5,1117.75,850.5,1121.75,854.5,1117.75" style="stroke:#A80036;stroke-width:1.0;"/><line style="stroke:#A80036;stroke-width:1.0;" x1="603.5" x2="856.5" y1="1117.75" y2="1117.75"/><text fill="#000000" font-family="sans-serif" font-size="13" lengthAdjust="spacing" textLength="135" x="610.5" y="1112.8936">changeBirthDate(client)</text><polygon fill="#A80036" points="1135.5,1144.1016,1145.5,1148.1016,1135.5,1152.1016,1139.5,1148.1016" style="stroke:#A80036;stroke-width:1.0;"/><line style="stroke:#A80036;stroke-width:1.0;" x1="872.5" x2="1141.5" y1="1148.1016" y2="1148.1016"/><text fill="#000000" font-family="sans-serif" font-size="13" lengthAdjust="spacing" textLength="140" x="879.5" y="1143.2451">birthDate=setBirthDate()</text><polygon fill="#A80036" points="850.5,1204.4531,860.5,1208.4531,850.5,1212.4531,854.5,1208.4531" style="stroke:#A80036;stroke-width:1.0;"/><line style="stroke:#A80036;stroke-width:1.0;" x1="603.5" x2="856.5" y1="1208.4531" y2="1208.4531"/><text fill="#000000" font-family="sans-serif" font-size="13" lengthAdjust="spacing" textLength="163" x="610.5" y="1203.5967">changePhoneNumber(client)</text><polygon fill="#A80036" points="1135.5,1234.8047,1145.5,1238.8047,1135.5,1242.8047,1139.5,1238.8047" style="stroke:#A80036;stroke-width:1.0;"/><line style="stroke:#A80036;stroke-width:1.0;" x1="872.5" x2="1141.5" y1="1238.8047" y2="1238.8047"/><text fill="#000000" font-family="sans-serif" font-size="13" lengthAdjust="spacing" textLength="196" x="879.5" y="1233.9482">phoneNumber=setPhoneNumber()</text><polygon fill="#A80036" points="850.5,1295.1563,860.5,1299.1563,850.5,1303.1563,854.5,1299.1563" style="stroke:#A80036;stroke-width:1.0;"/><line style="stroke:#A80036;stroke-width:1.0;" x1="603.5" x2="856.5" y1="1299.1563" y2="1299.1563"/><text fill="#000000" font-family="sans-serif" font-size="13" lengthAdjust="spacing" textLength="114" x="610.5" y="1294.2998">changeEmail(client)</text><polygon fill="#A80036" points="1135.5,1325.5078,1145.5,1329.5078,1135.5,1333.5078,1139.5,1329.5078" style="stroke:#A80036;stroke-width:1.0;"/><line style="stroke:#A80036;stroke-width:1.0;" x1="872.5" x2="1141.5" y1="1329.5078" y2="1329.5078"/><text fill="#000000" font-family="sans-serif" font-size="13" lengthAdjust="spacing" textLength="98" x="879.5" y="1324.6514">email=setEmail()</text><polygon fill="#A80036" points="850.5,1385.8594,860.5,1389.8594,850.5,1393.8594,854.5,1389.8594" style="stroke:#A80036;stroke-width:1.0;"/><line style="stroke:#A80036;stroke-width:1.0;" x1="603.5" x2="856.5" y1="1389.8594" y2="1389.8594"/><text fill="#000000" font-family="sans-serif" font-size="13" lengthAdjust="spacing" textLength="138" x="610.5" y="1385.0029">changePassword(client)</text><polygon fill="#A80036" points="1135.5,1416.2109,1145.5,1420.2109,1135.5,1424.2109,1139.5,1420.2109" style="stroke:#A80036;stroke-width:1.0;"/><line style="stroke:#A80036;stroke-width:1.0;" x1="872.5" x2="1141.5" y1="1420.2109" y2="1420.2109"/><text fill="#000000" font-family="sans-serif" font-size="13" lengthAdjust="spacing" textLength="146" x="879.5" y="1415.3545">password=setPassword()</text><polygon fill="#A80036" points="52,1476.5625,42,1480.5625,52,1484.5625,48,1480.5625" style="stroke:#A80036;stroke-width:1.0;"/><line style="stroke:#A80036;stroke-width:1.0;stroke-dasharray:2.0,2.0;" x1="46" x2="424" y1="1480.5625" y2="1480.5625"/><text fill="#000000" font-family="sans-serif" font-size="13" lengthAdjust="spacing" textLength="355" x="58" y="1475.7061">shows the updated registration form and asks for confirmation</text><polygon fill="#A80036" points="850.5,1506.9141,860.5,1510.9141,850.5,1514.9141,854.5,1510.9141" style="stroke:#A80036;stroke-width:1.0;"/><line style="stroke:#A80036;stroke-width:1.0;" x1="603.5" x2="856.5" y1="1510.9141" y2="1510.9141"/><text fill="#000000" font-family="sans-serif" font-size="13" lengthAdjust="spacing" textLength="115" x="610.5" y="1506.0576">validateClient(client)</text><polygon fill="#A80036" points="1135.5,1537.2656,1145.5,1541.2656,1135.5,1545.2656,1139.5,1541.2656" style="stroke:#A80036;stroke-width:1.0;"/><line style="stroke:#A80036;stroke-width:1.0;" x1="872.5" x2="1141.5" y1="1541.2656" y2="1541.2656"/><text fill="#000000" font-family="sans-serif" font-size="13" lengthAdjust="spacing" textLength="98" x="879.5" y="1536.4092">email=getEmail()</text><polygon fill="#A80036" points="1406.5,1597.6172,1416.5,1601.6172,1406.5,1605.6172,1410.5,1601.6172" style="stroke:#A80036;stroke-width:1.0;"/><line style="stroke:#A80036;stroke-width:1.0;" x1="872.5" x2="1412.5" y1="1601.6172" y2="1601.6172"/><text fill="#000000" font-family="sans-serif" font-size="13" lengthAdjust="spacing" textLength="124" x="879.5" y="1596.7607">b = existsUser(email)</text><line style="stroke:#A80036;stroke-width:1.0;" x1="877.5" x2="919.5" y1="1661.9688" y2="1661.9688"/><line style="stroke:#A80036;stroke-width:1.0;" x1="919.5" x2="919.5" y1="1661.9688" y2="1674.9688"/><line style="stroke:#A80036;stroke-width:1.0;" x1="878.5" x2="919.5" y1="1674.9688" y2="1674.9688"/><polygon fill="#A80036" points="888.5,1670.9688,878.5,1674.9688,888.5,1678.9688,884.5,1674.9688" style="stroke:#A80036;stroke-width:1.0;"/><text fill="#000000" font-family="sans-serif" font-size="13" lengthAdjust="spacing" textLength="135" x="884.5" y="1657.1123">checkDuplicates(client)</text><polygon fill="#A80036" points="408,1731.3203,418,1735.3203,408,1739.3203,412,1735.3203" style="stroke:#A80036;stroke-width:1.0;"/><line style="stroke:#A80036;stroke-width:1.0;" x1="41" x2="414" y1="1735.3203" y2="1735.3203"/><text fill="#000000" font-family="sans-serif" font-size="13" lengthAdjust="spacing" textLength="100" x="48" y="1730.4639">confirms the data</text><polygon fill="#A80036" points="581.5,1761.6719,591.5,1765.6719,581.5,1769.6719,585.5,1765.6719" style="stroke:#A80036;stroke-width:1.0;"/><line style="stroke:#A80036;stroke-width:1.0;" x1="430" x2="587.5" y1="1765.6719" y2="1765.6719"/><text fill="#000000" font-family="sans-serif" font-size="13" lengthAdjust="spacing" textLength="85" x="437" y="1760.8154">saveChanges()</text><polygon fill="#A80036" points="850.5,1792.0234,860.5,1796.0234,850.5,1800.0234,854.5,1796.0234" style="stroke:#A80036;stroke-width:1.0;"/><line style="stroke:#A80036;stroke-width:1.0;" x1="603.5" x2="856.5" y1="1796.0234" y2="1796.0234"/><text fill="#000000" font-family="sans-serif" font-size="13" lengthAdjust="spacing" textLength="116" x="610.5" y="1791.167">saveChanges(client)</text><line style="stroke:#A80036;stroke-width:1.0;" x1="877.5" x2="919.5" y1="1826.375" y2="1826.375"/><line style="stroke:#A80036;stroke-width:1.0;" x1="919.5" x2="919.5" y1="1826.375" y2="1839.375"/><line style="stroke:#A80036;stroke-width:1.0;" x1="878.5" x2="919.5" y1="1839.375" y2="1839.375"/><polygon fill="#A80036" points="888.5,1835.375,878.5,1839.375,888.5,1843.375,884.5,1839.375" style="stroke:#A80036;stroke-width:1.0;"/><text fill="#000000" font-family="sans-serif" font-size="13" lengthAdjust="spacing" textLength="115" x="884.5" y="1821.5186">validateClient(client)</text><polygon fill="#A80036" points="52,1895.7266,42,1899.7266,52,1903.7266,48,1899.7266" style="stroke:#A80036;stroke-width:1.0;"/><line style="stroke:#A80036;stroke-width:1.0;stroke-dasharray:2.0,2.0;" x1="46" x2="424" y1="1899.7266" y2="1899.7266"/><text fill="#000000" font-family="sans-serif" font-size="13" lengthAdjust="spacing" textLength="152" x="58" y="1894.8701">informs operation success</text><!--MD5=[a3489fd6763424dc9ff5cd94737ef8ec]
@startuml
'https://plantuml.com/sequence-diagram

actor Client as CLT
participant ":ClientChangesUI" as UI
participant ":ChangeClientDataController" as CTRL
participant ":Company" as COMP
participant "store:ClientStore" as STR
participant "ct:Client" as CL
participant ":Email" as EM
participant ":UserSession" as US
participant ":AuthFacade" as AF

CLT -> UI : change personal data
activate UI
UI-> CTRL : getClientByEmail()
activate CTRL
CTRL-> COMP : store=getClientStore()
activate COMP
deactivate COMP
CTRL->STR : client = getClientByEmail()
activate STR
STR-> AF :emailUser=getCurrentSession()
activate AF
deactivate AF
STR -> US : id = getUserId()
activate US
deactivate US


STR->EM: email = getEmail()
activate EM
deactivate EM
deactivate STR


deactivate STR


deactivate CTRL



UI- -> CLT : shows the registration form with the previous data \n and ask to select the type of data to change


deactivate UI








loop
CLT -> UI : select the type of data that is to validate\n(ex. nhs number, tin number, ect)
activate UI
UI-> CTRL : showData(client)
activate CTRL
CTRL->CL : toString()
activate CL
deactivate CL
deactivate CTRL
UI- -> CLT : shows the type of data registered before

deactivate UI

CLT -> UI : writes the changes that he wants
activate UI
UI-> CTRL : changeData(client)
activate CTRL

CTRL->STR :changeName(client)
activate STR
STR->CL : name=setName()
activate CL
deactivate CL
deactivate STR


CTRL->STR :changeCitizenCardNumber(client)
activate STR
STR->CL : citizenCardNumber=setCitizenCardNumber()
activate CL
deactivate CL
deactivate STR

CTRL->STR :changeNhsNumber(client)
activate STR
STR->CL : nhsNumber=setNhsNumber()
activate CL
deactivate CL
deactivate STR

CTRL->STR :changeTinNumber(client)
activate STR
STR->CL : tinNumber=setTinNumber()
activate CL
deactivate CL
deactivate STR

CTRL->STR :changeBirthDate(client)
activate STR
STR->CL : birthDate=setBirthDate()
activate CL
deactivate CL
deactivate STR

CTRL->STR :changePhoneNumber(client)
activate STR
STR->CL : phoneNumber=setPhoneNumber()
activate CL
deactivate CL
deactivate STR

CTRL->STR :changeEmail(client)
activate STR
STR->CL : email=setEmail()
activate CL
deactivate CL
deactivate STR

CTRL->STR :changePassword(client)
activate STR
STR->CL : password=setPassword()
activate CL
deactivate CL
deactivate STR


UI- -> CLT : shows the updated registration form and asks for confirmation
deactivate UI
CTRL -> STR : validateClient(client)

        activate STR
        STR -> CL : email=getEmail()
        activate CL
        deactivate CL
        STR -> AF : b = existsUser(email)
        activate AF
        deactivate AF
        STR -> STR : checkDuplicates(client)
        activate STR
        deactivate STR
        deactivate STR
        deactivate CTRL



CLT -> UI : confirms the data
activate UI
UI-> CTRL : saveChanges()
activate CTRL
CTRL-> STR : saveChanges(client)
activate STR
STR->STR : validateClient(client)
activate STR
deactivate STR
deactivate STR
deactivate CTRL

UI- -> CLT : informs operation success
deactivate UI
end

@enduml

@startuml

actor Client as CLT
participant ":ClientChangesUI" as UI
participant ":ChangeClientDataController" as CTRL
participant ":Company" as COMP
participant "store:ClientStore" as STR
participant "ct:Client" as CL
participant ":Email" as EM
participant ":UserSession" as US
participant ":AuthFacade" as AF

CLT -> UI : change personal data
activate UI
UI-> CTRL : getClientByEmail()
activate CTRL
CTRL-> COMP : store=getClientStore()
activate COMP
deactivate COMP
CTRL->STR : client = getClientByEmail()
activate STR
STR-> AF :emailUser=getCurrentSession()
activate AF
deactivate AF
STR -> US : id = getUserId()
activate US
deactivate US


STR->EM: email = getEmail()
activate EM
deactivate EM
deactivate STR


deactivate STR


deactivate CTRL



UI- -> CLT : shows the registration form with the previous data \n and ask to select the type of data to change


deactivate UI








loop
CLT -> UI : select the type of data that is to validate\n(ex. nhs number, tin number, ect)
activate UI
UI-> CTRL : showData(client)
activate CTRL
CTRL->CL : toString()
activate CL
deactivate CL
deactivate CTRL
UI- -> CLT : shows the type of data registered before

deactivate UI

CLT -> UI : writes the changes that he wants
activate UI
UI-> CTRL : changeData(client)
activate CTRL

CTRL->STR :changeName(client)
activate STR
STR->CL : name=setName()
activate CL
deactivate CL
deactivate STR


CTRL->STR :changeCitizenCardNumber(client)
activate STR
STR->CL : citizenCardNumber=setCitizenCardNumber()
activate CL
deactivate CL
deactivate STR

CTRL->STR :changeNhsNumber(client)
activate STR
STR->CL : nhsNumber=setNhsNumber()
activate CL
deactivate CL
deactivate STR

CTRL->STR :changeTinNumber(client)
activate STR
STR->CL : tinNumber=setTinNumber()
activate CL
deactivate CL
deactivate STR

CTRL->STR :changeBirthDate(client)
activate STR
STR->CL : birthDate=setBirthDate()
activate CL
deactivate CL
deactivate STR

CTRL->STR :changePhoneNumber(client)
activate STR
STR->CL : phoneNumber=setPhoneNumber()
activate CL
deactivate CL
deactivate STR

CTRL->STR :changeEmail(client)
activate STR
STR->CL : email=setEmail()
activate CL
deactivate CL
deactivate STR

CTRL->STR :changePassword(client)
activate STR
STR->CL : password=setPassword()
activate CL
deactivate CL
deactivate STR


UI- -> CLT : shows the updated registration form and asks for confirmation
deactivate UI
CTRL -> STR : validateClient(client)

        activate STR
        STR -> CL : email=getEmail()
        activate CL
        deactivate CL
        STR -> AF : b = existsUser(email)
        activate AF
        deactivate AF
        STR -> STR : checkDuplicates(client)
        activate STR
        deactivate STR
        deactivate STR
        deactivate CTRL



CLT -> UI : confirms the data
activate UI
UI-> CTRL : saveChanges()
activate CTRL
CTRL-> STR : saveChanges(client)
activate STR
STR->STR : validateClient(client)
activate STR
deactivate STR
deactivate STR
deactivate CTRL

UI- -> CLT : informs operation success
deactivate UI
end

@enduml

PlantUML version 1.2021.5(Sun Apr 25 12:20:28 BST 2021)
(GPL source distribution)
Java Runtime: OpenJDK Runtime Environment
JVM: Dynamic Code Evolution 64-Bit Server VM
Default Encoding: Cp1252
Language: pt
Country: PT
--></g></svg>