<?xml version="1.0" encoding="UTF-8" standalone="no"?><svg xmlns="http://www.w3.org/2000/svg" xmlns:xlink="http://www.w3.org/1999/xlink" contentScriptType="application/ecmascript" contentStyleType="text/css" height="333px" preserveAspectRatio="none" style="width:138px;height:333px;" version="1.1" viewBox="0 0 138 333" width="138px" zoomAndPan="magnify"><defs><filter height="300%" id="ft3wz5bd81pqu" width="300%" x="-1" y="-1"><feGaussianBlur result="blurOut" stdDeviation="2.0"/><feColorMatrix in="blurOut" result="blurOut2" type="matrix" values="0 0 0 0 0 0 0 0 0 0 0 0 0 0 0 0 0 0 .4 0"/><feOffset dx="4.0" dy="4.0" in="blurOut2" result="blurOut3"/><feBlend in="SourceGraphic" in2="blurOut3" mode="normal"/></filter></defs><g><!--MD5=[02e4b9b7573f1156f41e60aa5b4e25a4]
class Company--><rect codeLine="6" fill="#FEFECE" filter="url(#ft3wz5bd81pqu)" height="75.6719" id="Company" style="stroke:#A80036;stroke-width:1.5;" width="85" x="23" y="7"/><ellipse cx="38" cy="23" fill="#ADD1B2" rx="11" ry="11" style="stroke:#A80036;stroke-width:1.0;"/><path d="M40,19.5 Q40.2031,19 40.4375,18.75 Q40.6719,18.5 40.9375,18.5 Q41.4063,18.5 41.7031,18.7813 Q42,19.0625 42,19.7188 L42,21.2813 Q42,21.9375 41.7188,22.2188 Q41.4375,22.5 41,22.5 Q40.6094,22.5 40.3594,22.3281 Q40.1094,22.1563 40,21.7031 Q39.9531,21.3906 39.7813,21.2188 Q39.4688,20.8906 38.9063,20.7031 Q38.3438,20.5 37.7813,20.5 Q37.0781,20.5 36.4844,20.7813 Q35.9063,21.0625 35.4531,21.6875 Q35,22.3125 35,23.1719 L35,24.0938 Q35,25.125 35.8438,25.8125 Q36.6875,26.5 38.1875,26.5 Q39.0781,26.5 39.7031,26.2969 Q40.0625,26.1875 40.4688,25.8281 Q40.7344,25.625 40.875,25.5625 Q41.0156,25.5 41.1875,25.5 Q41.5156,25.5 41.75,25.7656 Q42,26.0156 42,26.375 Q42,26.7188 41.6563,27.125 Q41.1563,27.7188 40.3594,28.0469 Q39.3125,28.5 38.0313,28.5 Q36.5313,28.5 35.3281,27.9063 Q34.3594,27.4375 33.6719,26.4219 Q33,25.4063 33,24.2031 L33,23.1094 Q33,21.8594 33.5938,20.7656 Q34.2031,19.6719 35.25,19.0938 Q36.3125,18.5 37.5,18.5 Q38.2188,18.5 38.8438,18.75 Q39.4688,19 40,19.5 Z " fill="#000000"/><text fill="#000000" font-family="sans-serif" font-size="12" lengthAdjust="spacing" textLength="53" x="52" y="27.9102">Company</text><line style="stroke:#A80036;stroke-width:1.5;" x1="24" x2="107" y1="39" y2="39"/><rect fill="none" height="6" style="stroke:#C82930;stroke-width:1.0;" width="6" x="31" y="47"/><text fill="#000000" font-family="sans-serif" font-size="11" lengthAdjust="spacing" textLength="26" x="43" y="54.4189">name</text><rect fill="none" height="6" style="stroke:#C82930;stroke-width:1.0;" width="6" x="31" y="60.8359"/><text fill="#000000" font-family="sans-serif" font-size="11" lengthAdjust="spacing" textLength="37" x="43" y="68.2549">location</text><line style="stroke:#A80036;stroke-width:1.5;" x1="24" x2="107" y1="74.6719" y2="74.6719"/><!--MD5=[ed6624c6556d5e7b1bd23032162d20b7]
class Client--><rect codeLine="10" fill="#FEFECE" filter="url(#ft3wz5bd81pqu)" height="158.6875" id="Client" style="stroke:#A80036;stroke-width:1.5;" width="117" x="7" y="161"/><ellipse cx="45.85" cy="177" fill="#ADD1B2" rx="11" ry="11" style="stroke:#A80036;stroke-width:1.0;"/><path d="M47.85,173.5 Q48.0531,173 48.2875,172.75 Q48.5219,172.5 48.7875,172.5 Q49.2563,172.5 49.5531,172.7813 Q49.85,173.0625 49.85,173.7188 L49.85,175.2813 Q49.85,175.9375 49.5688,176.2188 Q49.2875,176.5 48.85,176.5 Q48.4594,176.5 48.2094,176.3281 Q47.9594,176.1563 47.85,175.7031 Q47.8031,175.3906 47.6313,175.2188 Q47.3188,174.8906 46.7563,174.7031 Q46.1938,174.5 45.6313,174.5 Q44.9281,174.5 44.3344,174.7813 Q43.7563,175.0625 43.3031,175.6875 Q42.85,176.3125 42.85,177.1719 L42.85,178.0938 Q42.85,179.125 43.6938,179.8125 Q44.5375,180.5 46.0375,180.5 Q46.9281,180.5 47.5531,180.2969 Q47.9125,180.1875 48.3188,179.8281 Q48.5844,179.625 48.725,179.5625 Q48.8656,179.5 49.0375,179.5 Q49.3656,179.5 49.6,179.7656 Q49.85,180.0156 49.85,180.375 Q49.85,180.7188 49.5063,181.125 Q49.0063,181.7188 48.2094,182.0469 Q47.1625,182.5 45.8813,182.5 Q44.3813,182.5 43.1781,181.9063 Q42.2094,181.4375 41.5219,180.4219 Q40.85,179.4063 40.85,178.2031 L40.85,177.1094 Q40.85,175.8594 41.4438,174.7656 Q42.0531,173.6719 43.1,173.0938 Q44.1625,172.5 45.35,172.5 Q46.0688,172.5 46.6938,172.75 Q47.3188,173 47.85,173.5 Z " fill="#000000"/><text fill="#000000" font-family="sans-serif" font-size="12" lengthAdjust="spacing" textLength="32" x="65.15" y="181.9102">Client</text><line style="stroke:#A80036;stroke-width:1.5;" x1="8" x2="123" y1="193" y2="193"/><rect fill="none" height="6" style="stroke:#C82930;stroke-width:1.0;" width="6" x="15" y="201"/><text fill="#000000" font-family="sans-serif" font-size="11" lengthAdjust="spacing" textLength="26" x="27" y="208.4189">name</text><rect fill="none" height="6" style="stroke:#C82930;stroke-width:1.0;" width="6" x="15" y="214.8359"/><text fill="#000000" font-family="sans-serif" font-size="11" lengthAdjust="spacing" textLength="91" x="27" y="222.2549">citizenCardNumber</text><rect fill="none" height="6" style="stroke:#C82930;stroke-width:1.0;" width="6" x="15" y="228.6719"/><text fill="#000000" font-family="sans-serif" font-size="11" lengthAdjust="spacing" textLength="55" x="27" y="236.0908">nhsNumber</text><rect fill="none" height="6" style="stroke:#C82930;stroke-width:1.0;" width="6" x="15" y="242.5078"/><text fill="#000000" font-family="sans-serif" font-size="11" lengthAdjust="spacing" textLength="48" x="27" y="249.9268">tinNumber</text><rect fill="none" height="6" style="stroke:#C82930;stroke-width:1.0;" width="6" x="15" y="256.3438"/><text fill="#000000" font-family="sans-serif" font-size="11" lengthAdjust="spacing" textLength="43" x="27" y="263.7627">birthDate</text><rect fill="none" height="6" style="stroke:#C82930;stroke-width:1.0;" width="6" x="15" y="270.1797"/><text fill="#000000" font-family="sans-serif" font-size="11" lengthAdjust="spacing" textLength="18" x="27" y="277.5986">sex</text><rect fill="none" height="6" style="stroke:#C82930;stroke-width:1.0;" width="6" x="15" y="284.0156"/><text fill="#000000" font-family="sans-serif" font-size="11" lengthAdjust="spacing" textLength="67" x="27" y="291.4346">phoneNumber</text><rect fill="none" height="6" style="stroke:#C82930;stroke-width:1.0;" width="6" x="15" y="297.8516"/><text fill="#000000" font-family="sans-serif" font-size="11" lengthAdjust="spacing" textLength="24" x="27" y="305.2705">email</text><line style="stroke:#A80036;stroke-width:1.5;" x1="8" x2="123" y1="311.6875" y2="311.6875"/><!--MD5=[6eee883fdf517d3604e8bd0f2058e9aa]
link Company to Client--><path codeLine="4" d="M65.5,83.31 C65.5,105.27 65.5,133.91 65.5,160.66 " fill="none" id="Company-Client" style="stroke:#A80036;stroke-width:1.0;"/><polygon fill="#000000" points="70.5,127.1758,73.4389,118.1307,67.5611,118.1307,70.5,127.1758" style="stroke:#000000;stroke-width:1.0;"/><text fill="#000000" font-family="sans-serif" font-size="13" lengthAdjust="spacing" textLength="37" x="79.5" y="127.4951">knows</text><text fill="#000000" font-family="sans-serif" font-size="13" lengthAdjust="spacing" textLength="7" x="58.1773" y="150.088">1</text><!--MD5=[bee806e137c1d6ae08ca3694e83dc3d3]
@startuml
'https://plantuml.com/sequence-diagram


Company - - "1"Client :> knows

class Company{
-name
-location
}
class Client{
-name
-citizenCardNumber
-nhsNumber
-tinNumber
-birthDate
-sex
-phoneNumber
-email
}

@enduml

@startuml


Company - - "1"Client :> knows

class Company{
-name
-location
}
class Client{
-name
-citizenCardNumber
-nhsNumber
-tinNumber
-birthDate
-sex
-phoneNumber
-email
}

@enduml

PlantUML version 1.2021.5(Sun Apr 25 12:20:28 BST 2021)
(GPL source distribution)
Java Runtime: OpenJDK Runtime Environment
JVM: Dynamic Code Evolution 64-Bit Server VM
Default Encoding: Cp1252
Language: pt
Country: PT
--></g></svg>