<?xml version="1.0" encoding="UTF-8" standalone="no"?><svg xmlns="http://www.w3.org/2000/svg" xmlns:xlink="http://www.w3.org/1999/xlink" contentScriptType="application/ecmascript" contentStyleType="text/css" height="442px" preserveAspectRatio="none" style="width:1021px;height:442px;" version="1.1" viewBox="0 0 1021 442" width="1021px" zoomAndPan="magnify"><defs><filter height="300%" id="ftbybosymjgn9" width="300%" x="-1" y="-1"><feGaussianBlur result="blurOut" stdDeviation="2.0"/><feColorMatrix in="blurOut" result="blurOut2" type="matrix" values="0 0 0 0 0 0 0 0 0 0 0 0 0 0 0 0 0 0 .4 0"/><feOffset dx="4.0" dy="4.0" in="blurOut2" result="blurOut3"/><feBlend in="SourceGraphic" in2="blurOut3" mode="normal"/></filter></defs><g><!--MD5=[9784ac9eec747b3d21d2960285ffcace]
class RegisterNewClinicalAnalysisUI--><rect codeLine="3" fill="#FEFECE" filter="url(#ftbybosymjgn9)" height="48" id="RegisterNewClinicalAnalysisUI" style="stroke:#A80036;stroke-width:1.5;" width="203" x="230" y="7"/><ellipse cx="245" cy="23" fill="#ADD1B2" rx="11" ry="11" style="stroke:#A80036;stroke-width:1.0;"/><path d="M247,19.5 Q247.2031,19 247.4375,18.75 Q247.6719,18.5 247.9375,18.5 Q248.4063,18.5 248.7031,18.7813 Q249,19.0625 249,19.7188 L249,21.2813 Q249,21.9375 248.7188,22.2188 Q248.4375,22.5 248,22.5 Q247.6094,22.5 247.3594,22.3281 Q247.1094,22.1563 247,21.7031 Q246.9531,21.3906 246.7813,21.2188 Q246.4688,20.8906 245.9063,20.7031 Q245.3438,20.5 244.7813,20.5 Q244.0781,20.5 243.4844,20.7813 Q242.9063,21.0625 242.4531,21.6875 Q242,22.3125 242,23.1719 L242,24.0938 Q242,25.125 242.8438,25.8125 Q243.6875,26.5 245.1875,26.5 Q246.0781,26.5 246.7031,26.2969 Q247.0625,26.1875 247.4688,25.8281 Q247.7344,25.625 247.875,25.5625 Q248.0156,25.5 248.1875,25.5 Q248.5156,25.5 248.75,25.7656 Q249,26.0156 249,26.375 Q249,26.7188 248.6563,27.125 Q248.1563,27.7188 247.3594,28.0469 Q246.3125,28.5 245.0313,28.5 Q243.5313,28.5 242.3281,27.9063 Q241.3594,27.4375 240.6719,26.4219 Q240,25.4063 240,24.2031 L240,23.1094 Q240,21.8594 240.5938,20.7656 Q241.2031,19.6719 242.25,19.0938 Q243.3125,18.5 244.5,18.5 Q245.2188,18.5 245.8438,18.75 Q246.4688,19 247,19.5 Z " fill="#000000"/><text fill="#000000" font-family="sans-serif" font-size="12" lengthAdjust="spacing" textLength="171" x="259" y="27.9102">RegisterNewClinicalAnalysisUI</text><line style="stroke:#A80036;stroke-width:1.5;" x1="231" x2="432" y1="39" y2="39"/><line style="stroke:#A80036;stroke-width:1.5;" x1="231" x2="432" y1="47" y2="47"/><!--MD5=[4603498e8ac783f3cc94c7baa3c2c642]
class RegisterNewClinicalAnalysisController--><rect codeLine="6" fill="#FEFECE" filter="url(#ftbybosymjgn9)" height="75.6719" id="RegisterNewClinicalAnalysisController" style="stroke:#A80036;stroke-width:1.5;" width="554" x="54.5" y="123"/><ellipse cx="220.75" cy="139" fill="#ADD1B2" rx="11" ry="11" style="stroke:#A80036;stroke-width:1.0;"/><path d="M222.75,135.5 Q222.9531,135 223.1875,134.75 Q223.4219,134.5 223.6875,134.5 Q224.1563,134.5 224.4531,134.7813 Q224.75,135.0625 224.75,135.7188 L224.75,137.2813 Q224.75,137.9375 224.4688,138.2188 Q224.1875,138.5 223.75,138.5 Q223.3594,138.5 223.1094,138.3281 Q222.8594,138.1563 222.75,137.7031 Q222.7031,137.3906 222.5313,137.2188 Q222.2188,136.8906 221.6563,136.7031 Q221.0938,136.5 220.5313,136.5 Q219.8281,136.5 219.2344,136.7813 Q218.6563,137.0625 218.2031,137.6875 Q217.75,138.3125 217.75,139.1719 L217.75,140.0938 Q217.75,141.125 218.5938,141.8125 Q219.4375,142.5 220.9375,142.5 Q221.8281,142.5 222.4531,142.2969 Q222.8125,142.1875 223.2188,141.8281 Q223.4844,141.625 223.625,141.5625 Q223.7656,141.5 223.9375,141.5 Q224.2656,141.5 224.5,141.7656 Q224.75,142.0156 224.75,142.375 Q224.75,142.7188 224.4063,143.125 Q223.9063,143.7188 223.1094,144.0469 Q222.0625,144.5 220.7813,144.5 Q219.2813,144.5 218.0781,143.9063 Q217.1094,143.4375 216.4219,142.4219 Q215.75,141.4063 215.75,140.2031 L215.75,139.1094 Q215.75,137.8594 216.3438,136.7656 Q216.9531,135.6719 218,135.0938 Q219.0625,134.5 220.25,134.5 Q220.9688,134.5 221.5938,134.75 Q222.2188,135 222.75,135.5 Z " fill="#000000"/><text fill="#000000" font-family="sans-serif" font-size="12" lengthAdjust="spacing" textLength="213" x="241.25" y="143.9102">RegisterNewClinicalAnalysisController</text><line style="stroke:#A80036;stroke-width:1.5;" x1="55.5" x2="607.5" y1="155" y2="155"/><line style="stroke:#A80036;stroke-width:1.5;" x1="55.5" x2="607.5" y1="163" y2="163"/><text fill="#000000" font-family="sans-serif" font-size="11" lengthAdjust="spacing" textLength="542" x="60.5" y="178.4189">+registerNewClinicalAnalysisLaboratory(name, phoneNumber, laboratoryID, tinNumber, address, typeOfTestList)</text><text fill="#000000" font-family="sans-serif" font-size="11" lengthAdjust="spacing" textLength="166" x="60.5" y="192.2549">+saveClinicalAnalysisLaboratory()</text><!--MD5=[1934a092c0e7d4da7dc7075b6f4b6b03]
class ClinicalAnalysisLaboratory--><rect codeLine="12" fill="#FEFECE" filter="url(#ftbybosymjgn9)" height="144.8516" id="ClinicalAnalysisLaboratory" style="stroke:#A80036;stroke-width:1.5;" width="403" x="7" y="284"/><ellipse cx="131.75" cy="300" fill="#ADD1B2" rx="11" ry="11" style="stroke:#A80036;stroke-width:1.0;"/><path d="M133.75,296.5 Q133.9531,296 134.1875,295.75 Q134.4219,295.5 134.6875,295.5 Q135.1563,295.5 135.4531,295.7813 Q135.75,296.0625 135.75,296.7188 L135.75,298.2813 Q135.75,298.9375 135.4688,299.2188 Q135.1875,299.5 134.75,299.5 Q134.3594,299.5 134.1094,299.3281 Q133.8594,299.1563 133.75,298.7031 Q133.7031,298.3906 133.5313,298.2188 Q133.2188,297.8906 132.6563,297.7031 Q132.0938,297.5 131.5313,297.5 Q130.8281,297.5 130.2344,297.7813 Q129.6563,298.0625 129.2031,298.6875 Q128.75,299.3125 128.75,300.1719 L128.75,301.0938 Q128.75,302.125 129.5938,302.8125 Q130.4375,303.5 131.9375,303.5 Q132.8281,303.5 133.4531,303.2969 Q133.8125,303.1875 134.2188,302.8281 Q134.4844,302.625 134.625,302.5625 Q134.7656,302.5 134.9375,302.5 Q135.2656,302.5 135.5,302.7656 Q135.75,303.0156 135.75,303.375 Q135.75,303.7188 135.4063,304.125 Q134.9063,304.7188 134.1094,305.0469 Q133.0625,305.5 131.7813,305.5 Q130.2813,305.5 129.0781,304.9063 Q128.1094,304.4375 127.4219,303.4219 Q126.75,302.4063 126.75,301.2031 L126.75,300.1094 Q126.75,298.8594 127.3438,297.7656 Q127.9531,296.6719 129,296.0938 Q130.0625,295.5 131.25,295.5 Q131.9688,295.5 132.5938,295.75 Q133.2188,296 133.75,296.5 Z " fill="#000000"/><text fill="#000000" font-family="sans-serif" font-size="12" lengthAdjust="spacing" textLength="145" x="152.25" y="304.9102">ClinicalAnalysisLaboratory</text><line style="stroke:#A80036;stroke-width:1.5;" x1="8" x2="409" y1="316" y2="316"/><text fill="#000000" font-family="sans-serif" font-size="11" lengthAdjust="spacing" textLength="30" x="13" y="331.4189">-name</text><text fill="#000000" font-family="sans-serif" font-size="11" lengthAdjust="spacing" textLength="71" x="13" y="345.2549">-phoneNumber</text><text fill="#000000" font-family="sans-serif" font-size="11" lengthAdjust="spacing" textLength="62" x="13" y="359.0908">-laboratoryID</text><text fill="#000000" font-family="sans-serif" font-size="11" lengthAdjust="spacing" textLength="52" x="13" y="372.9268">-tinNumber</text><text fill="#000000" font-family="sans-serif" font-size="11" lengthAdjust="spacing" textLength="44" x="13" y="386.7627">-address</text><text fill="#000000" font-family="sans-serif" font-size="11" lengthAdjust="spacing" textLength="75" x="13" y="400.5986">-typeOfTestList</text><line style="stroke:#A80036;stroke-width:1.5;" x1="8" x2="409" y1="407.0156" y2="407.0156"/><text fill="#000000" font-family="sans-serif" font-size="11" lengthAdjust="spacing" textLength="391" x="13" y="422.4346">+register(laboratoryID, name, address, phoneNumber, tinNumber, typeOfTestList)</text><!--MD5=[02e4b9b7573f1156f41e60aa5b4e25a4]
class Company--><rect codeLine="23" fill="#FEFECE" filter="url(#ftbybosymjgn9)" height="89.5078" id="Company" style="stroke:#A80036;stroke-width:1.5;" width="195" x="644" y="116"/><ellipse cx="710.75" cy="132" fill="#ADD1B2" rx="11" ry="11" style="stroke:#A80036;stroke-width:1.0;"/><path d="M712.75,128.5 Q712.9531,128 713.1875,127.75 Q713.4219,127.5 713.6875,127.5 Q714.1563,127.5 714.4531,127.7813 Q714.75,128.0625 714.75,128.7188 L714.75,130.2813 Q714.75,130.9375 714.4688,131.2188 Q714.1875,131.5 713.75,131.5 Q713.3594,131.5 713.1094,131.3281 Q712.8594,131.1563 712.75,130.7031 Q712.7031,130.3906 712.5313,130.2188 Q712.2188,129.8906 711.6563,129.7031 Q711.0938,129.5 710.5313,129.5 Q709.8281,129.5 709.2344,129.7813 Q708.6563,130.0625 708.2031,130.6875 Q707.75,131.3125 707.75,132.1719 L707.75,133.0938 Q707.75,134.125 708.5938,134.8125 Q709.4375,135.5 710.9375,135.5 Q711.8281,135.5 712.4531,135.2969 Q712.8125,135.1875 713.2188,134.8281 Q713.4844,134.625 713.625,134.5625 Q713.7656,134.5 713.9375,134.5 Q714.2656,134.5 714.5,134.7656 Q714.75,135.0156 714.75,135.375 Q714.75,135.7188 714.4063,136.125 Q713.9063,136.7188 713.1094,137.0469 Q712.0625,137.5 710.7813,137.5 Q709.2813,137.5 708.0781,136.9063 Q707.1094,136.4375 706.4219,135.4219 Q705.75,134.4063 705.75,133.2031 L705.75,132.1094 Q705.75,130.8594 706.3438,129.7656 Q706.9531,128.6719 708,128.0938 Q709.0625,127.5 710.25,127.5 Q710.9688,127.5 711.5938,127.75 Q712.2188,128 712.75,128.5 Z " fill="#000000"/><text fill="#000000" font-family="sans-serif" font-size="12" lengthAdjust="spacing" textLength="53" x="731.25" y="136.9102">Company</text><line style="stroke:#A80036;stroke-width:1.5;" x1="645" x2="838" y1="148" y2="148"/><text fill="#000000" font-family="sans-serif" font-size="11" lengthAdjust="spacing" textLength="30" x="650" y="163.4189">-name</text><text fill="#000000" font-family="sans-serif" font-size="11" lengthAdjust="spacing" textLength="41" x="650" y="177.2549">-location</text><line style="stroke:#A80036;stroke-width:1.5;" x1="645" x2="838" y1="183.6719" y2="183.6719"/><text fill="#000000" font-family="sans-serif" font-size="11" lengthAdjust="spacing" textLength="183" x="650" y="199.0908">+getClinicalAnalysisLaboratoryStore()</text><!--MD5=[438281daef332c5ccec4fb6cf3747e9a]
class ClinicalAnalysisLaboratoryStore--><rect codeLine="29" fill="#FEFECE" filter="url(#ftbybosymjgn9)" height="103.3438" id="ClinicalAnalysisLaboratoryStore" style="stroke:#A80036;stroke-width:1.5;" width="531" x="476" y="305"/><ellipse cx="650.25" cy="321" fill="#ADD1B2" rx="11" ry="11" style="stroke:#A80036;stroke-width:1.0;"/><path d="M652.25,317.5 Q652.4531,317 652.6875,316.75 Q652.9219,316.5 653.1875,316.5 Q653.6563,316.5 653.9531,316.7813 Q654.25,317.0625 654.25,317.7188 L654.25,319.2813 Q654.25,319.9375 653.9688,320.2188 Q653.6875,320.5 653.25,320.5 Q652.8594,320.5 652.6094,320.3281 Q652.3594,320.1563 652.25,319.7031 Q652.2031,319.3906 652.0313,319.2188 Q651.7188,318.8906 651.1563,318.7031 Q650.5938,318.5 650.0313,318.5 Q649.3281,318.5 648.7344,318.7813 Q648.1563,319.0625 647.7031,319.6875 Q647.25,320.3125 647.25,321.1719 L647.25,322.0938 Q647.25,323.125 648.0938,323.8125 Q648.9375,324.5 650.4375,324.5 Q651.3281,324.5 651.9531,324.2969 Q652.3125,324.1875 652.7188,323.8281 Q652.9844,323.625 653.125,323.5625 Q653.2656,323.5 653.4375,323.5 Q653.7656,323.5 654,323.7656 Q654.25,324.0156 654.25,324.375 Q654.25,324.7188 653.9063,325.125 Q653.4063,325.7188 652.6094,326.0469 Q651.5625,326.5 650.2813,326.5 Q648.7813,326.5 647.5781,325.9063 Q646.6094,325.4375 645.9219,324.4219 Q645.25,323.4063 645.25,322.2031 L645.25,321.1094 Q645.25,319.8594 645.8438,318.7656 Q646.4531,317.6719 647.5,317.0938 Q648.5625,316.5 649.75,316.5 Q650.4688,316.5 651.0938,316.75 Q651.7188,317 652.25,317.5 Z " fill="#000000"/><text fill="#000000" font-family="sans-serif" font-size="12" lengthAdjust="spacing" textLength="174" x="670.75" y="325.9102">ClinicalAnalysisLaboratoryStore</text><line style="stroke:#A80036;stroke-width:1.5;" x1="477" x2="1006" y1="337" y2="337"/><line style="stroke:#A80036;stroke-width:1.5;" x1="477" x2="1006" y1="345" y2="345"/><text fill="#000000" font-family="sans-serif" font-size="11" lengthAdjust="spacing" textLength="193" x="482" y="360.4189">+validateClinicalAnalysisLaboratory(cal)</text><text fill="#000000" font-family="sans-serif" font-size="11" lengthAdjust="spacing" textLength="174" x="482" y="374.2549">+addClinicalAnalysisLaboratory(cal)</text><text fill="#000000" font-family="sans-serif" font-size="11" lengthAdjust="spacing" textLength="519" x="482" y="388.0908">+registerClinicalAnalysisLaboratory(name, phoneNumber, laboratoryID, tinNumber, address, typeOfTestList)</text><text fill="#000000" font-family="sans-serif" font-size="11" lengthAdjust="spacing" textLength="180" x="482" y="401.9268">+saveClinicalAnalysisLaboratory(cal)</text><!--MD5=[ed56a9e5a773987a86fed31edd7d4bbe]
link RegisterNewClinicalAnalysisUI to RegisterNewClinicalAnalysisController--><path codeLine="36" d="M331.5,55.18 C331.5,72.58 331.5,96.89 331.5,117.72 " fill="none" id="RegisterNewClinicalAnalysisUI-to-RegisterNewClinicalAnalysisController" style="stroke:#A80036;stroke-width:1.0;stroke-dasharray:7.0,7.0;"/><polygon fill="#A80036" points="331.5,122.93,335.5,113.93,331.5,117.93,327.5,113.93,331.5,122.93" style="stroke:#A80036;stroke-width:1.0;"/><!--MD5=[4b7fb5dc316cd1f0935bc2991c382dac]
link RegisterNewClinicalAnalysisController to Company--><path codeLine="37" d="M608.57,161 C618.59,161 628.62,161 638.64,161 " fill="none" id="RegisterNewClinicalAnalysisController-to-Company" style="stroke:#A80036;stroke-width:1.0;stroke-dasharray:7.0,7.0;"/><polygon fill="#A80036" points="643.88,161,634.88,157,638.88,161,634.88,165,643.88,161" style="stroke:#A80036;stroke-width:1.0;"/><!--MD5=[f379172a0573607dd0ae1a4ea50b9294]
link Company to ClinicalAnalysisLaboratoryStore--><path codeLine="38" d="M741.5,206.39 C741.5,234.13 741.5,270.09 741.5,299.74 " fill="none" id="Company-to-ClinicalAnalysisLaboratoryStore" style="stroke:#A80036;stroke-width:1.0;"/><polygon fill="#A80036" points="741.5,304.83,745.5,295.83,741.5,299.83,737.5,295.83,741.5,304.83" style="stroke:#A80036;stroke-width:1.0;"/><text fill="#000000" font-family="sans-serif" font-size="13" lengthAdjust="spacing" textLength="28" x="742.5" y="250.4951">uses</text><text fill="#000000" font-family="sans-serif" font-size="13" lengthAdjust="spacing" textLength="7" x="734.0297" y="227.1161">1</text><text fill="#000000" font-family="sans-serif" font-size="13" lengthAdjust="spacing" textLength="7" x="734.0297" y="294.3075">1</text><!--MD5=[20f2f02007c4c25439cbbcaa7bd17ed1]
reverse link ClinicalAnalysisLaboratory to ClinicalAnalysisLaboratoryStore--><path codeLine="39" d="M415.06,356.5 C434.98,356.5 455.37,356.5 475.76,356.5 " fill="none" id="ClinicalAnalysisLaboratory-backto-ClinicalAnalysisLaboratoryStore" style="stroke:#A80036;stroke-width:1.0;"/><polygon fill="#A80036" points="410,356.5,419,360.5,415,356.5,419,352.5,410,356.5" style="stroke:#A80036;stroke-width:1.0;"/><text fill="#000000" font-family="sans-serif" font-size="13" lengthAdjust="spacing" textLength="29" x="428.5" y="349.9951">store</text><text fill="#000000" font-family="sans-serif" font-size="13" lengthAdjust="spacing" textLength="5" x="417.9688" y="353.6924">*</text><text fill="#000000" font-family="sans-serif" font-size="13" lengthAdjust="spacing" textLength="7" x="460.7669" y="353.7577">1</text><!--MD5=[b1c5d8809d9dd446a2a53d6816715b6f]
@startuml
skinparam classAttributeIconSize 0

class RegisterNewClinicalAnalysisUI{
}

class RegisterNewClinicalAnalysisController
{
    +registerNewClinicalAnalysisLaboratory(name, phoneNumber, laboratoryID, tinNumber, address, typeOfTestList)
    +saveClinicalAnalysisLaboratory()
}

class ClinicalAnalysisLaboratory{
    -name
    -phoneNumber
    -laboratoryID
    -tinNumber
    -address
    -typeOfTestList
    +register(laboratoryID, name, address, phoneNumber, tinNumber, typeOfTestList)

}

class Company{
	-name
	-location
	+getClinicalAnalysisLaboratoryStore()
}

class ClinicalAnalysisLaboratoryStore{
    + validateClinicalAnalysisLaboratory(cal)
    + addClinicalAnalysisLaboratory(cal)
    + registerClinicalAnalysisLaboratory(name, phoneNumber, laboratoryID, tinNumber, address, typeOfTestList)
    + saveClinicalAnalysisLaboratory(cal)
}

RegisterNewClinicalAnalysisUI ..> RegisterNewClinicalAnalysisController
RegisterNewClinicalAnalysisController .right.> Company
Company"1" - -> "1"ClinicalAnalysisLaboratoryStore : uses
ClinicalAnalysisLaboratoryStore"1" -left-> "*"ClinicalAnalysisLaboratory : store

@enduml

PlantUML version 1.2021.5(Sun Apr 25 12:20:28 BST 2021)
(GPL source distribution)
Java Runtime: OpenJDK Runtime Environment
JVM: Dynamic Code Evolution 64-Bit Server VM
Default Encoding: Cp1252
Language: pt
Country: PT
--></g></svg>