<?xml version="1.0" encoding="UTF-8" standalone="no"?><svg xmlns="http://www.w3.org/2000/svg" xmlns:xlink="http://www.w3.org/1999/xlink" contentScriptType="application/ecmascript" contentStyleType="text/css" height="1385px" preserveAspectRatio="none" style="width:1372px;height:1385px;" version="1.1" viewBox="0 0 1372 1385" width="1372px" zoomAndPan="magnify"><defs><filter height="300%" id="fdx7153b9f4n6" width="300%" x="-1" y="-1"><feGaussianBlur result="blurOut" stdDeviation="2.0"/><feColorMatrix in="blurOut" result="blurOut2" type="matrix" values="0 0 0 0 0 0 0 0 0 0 0 0 0 0 0 0 0 0 .4 0"/><feOffset dx="4.0" dy="4.0" in="blurOut2" result="blurOut3"/><feBlend in="SourceGraphic" in2="blurOut3" mode="normal"/></filter></defs><g><!--MD5=[02e4b9b7573f1156f41e60aa5b4e25a4]
class Company--><rect codeLine="84" fill="#FEFECE" filter="url(#fdx7153b9f4n6)" height="75.6719" id="Company" style="stroke:#A80036;stroke-width:1.5;" width="85" x="945.5" y="7"/><ellipse cx="960.5" cy="23" fill="#ADD1B2" rx="11" ry="11" style="stroke:#A80036;stroke-width:1.0;"/><path d="M962.5,19.5 Q962.7031,19 962.9375,18.75 Q963.1719,18.5 963.4375,18.5 Q963.9063,18.5 964.2031,18.7813 Q964.5,19.0625 964.5,19.7188 L964.5,21.2813 Q964.5,21.9375 964.2188,22.2188 Q963.9375,22.5 963.5,22.5 Q963.1094,22.5 962.8594,22.3281 Q962.6094,22.1563 962.5,21.7031 Q962.4531,21.3906 962.2813,21.2188 Q961.9688,20.8906 961.4063,20.7031 Q960.8438,20.5 960.2813,20.5 Q959.5781,20.5 958.9844,20.7813 Q958.4063,21.0625 957.9531,21.6875 Q957.5,22.3125 957.5,23.1719 L957.5,24.0938 Q957.5,25.125 958.3438,25.8125 Q959.1875,26.5 960.6875,26.5 Q961.5781,26.5 962.2031,26.2969 Q962.5625,26.1875 962.9688,25.8281 Q963.2344,25.625 963.375,25.5625 Q963.5156,25.5 963.6875,25.5 Q964.0156,25.5 964.25,25.7656 Q964.5,26.0156 964.5,26.375 Q964.5,26.7188 964.1563,27.125 Q963.6563,27.7188 962.8594,28.0469 Q961.8125,28.5 960.5313,28.5 Q959.0313,28.5 957.8281,27.9063 Q956.8594,27.4375 956.1719,26.4219 Q955.5,25.4063 955.5,24.2031 L955.5,23.1094 Q955.5,21.8594 956.0938,20.7656 Q956.7031,19.6719 957.75,19.0938 Q958.8125,18.5 960,18.5 Q960.7188,18.5 961.3438,18.75 Q961.9688,19 962.5,19.5 Z " fill="#000000"/><text fill="#000000" font-family="sans-serif" font-size="12" lengthAdjust="spacing" textLength="53" x="974.5" y="27.9102">Company</text><line style="stroke:#A80036;stroke-width:1.5;" x1="946.5" x2="1029.5" y1="39" y2="39"/><rect fill="none" height="6" style="stroke:#C82930;stroke-width:1.0;" width="6" x="953.5" y="47"/><text fill="#000000" font-family="sans-serif" font-size="11" lengthAdjust="spacing" textLength="26" x="965.5" y="54.4189">name</text><rect fill="none" height="6" style="stroke:#C82930;stroke-width:1.0;" width="6" x="953.5" y="60.8359"/><text fill="#000000" font-family="sans-serif" font-size="11" lengthAdjust="spacing" textLength="37" x="965.5" y="68.2549">location</text><line style="stroke:#A80036;stroke-width:1.5;" x1="946.5" x2="1029.5" y1="74.6719" y2="74.6719"/><!--MD5=[7421f545a0d8420c5bec41e74b387d9c]
class Employee--><rect codeLine="56" fill="#FEFECE" filter="url(#fdx7153b9f4n6)" height="131.0156" id="Employee" style="stroke:#A80036;stroke-width:1.5;" width="93" x="595.5" y="287"/><ellipse cx="613.2" cy="303" fill="#ADD1B2" rx="11" ry="11" style="stroke:#A80036;stroke-width:1.0;"/><path d="M615.2,299.5 Q615.4031,299 615.6375,298.75 Q615.8719,298.5 616.1375,298.5 Q616.6063,298.5 616.9031,298.7813 Q617.2,299.0625 617.2,299.7188 L617.2,301.2813 Q617.2,301.9375 616.9188,302.2188 Q616.6375,302.5 616.2,302.5 Q615.8094,302.5 615.5594,302.3281 Q615.3094,302.1563 615.2,301.7031 Q615.1531,301.3906 614.9813,301.2188 Q614.6688,300.8906 614.1063,300.7031 Q613.5438,300.5 612.9813,300.5 Q612.2781,300.5 611.6844,300.7813 Q611.1063,301.0625 610.6531,301.6875 Q610.2,302.3125 610.2,303.1719 L610.2,304.0938 Q610.2,305.125 611.0438,305.8125 Q611.8875,306.5 613.3875,306.5 Q614.2781,306.5 614.9031,306.2969 Q615.2625,306.1875 615.6688,305.8281 Q615.9344,305.625 616.075,305.5625 Q616.2156,305.5 616.3875,305.5 Q616.7156,305.5 616.95,305.7656 Q617.2,306.0156 617.2,306.375 Q617.2,306.7188 616.8563,307.125 Q616.3563,307.7188 615.5594,308.0469 Q614.5125,308.5 613.2313,308.5 Q611.7313,308.5 610.5281,307.9063 Q609.5594,307.4375 608.8719,306.4219 Q608.2,305.4063 608.2,304.2031 L608.2,303.1094 Q608.2,301.8594 608.7938,300.7656 Q609.4031,299.6719 610.45,299.0938 Q611.5125,298.5 612.7,298.5 Q613.4188,298.5 614.0438,298.75 Q614.6688,299 615.2,299.5 Z " fill="#000000"/><text fill="#000000" font-family="sans-serif" font-size="12" lengthAdjust="spacing" textLength="55" x="627.8" y="307.9102">Employee</text><line style="stroke:#A80036;stroke-width:1.5;" x1="596.5" x2="687.5" y1="319" y2="319"/><rect fill="none" height="6" style="stroke:#C82930;stroke-width:1.0;" width="6" x="603.5" y="327"/><text fill="#000000" font-family="sans-serif" font-size="11" lengthAdjust="spacing" textLength="55" x="615.5" y="334.4189">employeeID</text><rect fill="none" height="6" style="stroke:#C82930;stroke-width:1.0;" width="6" x="603.5" y="340.8359"/><text fill="#000000" font-family="sans-serif" font-size="11" lengthAdjust="spacing" textLength="26" x="615.5" y="348.2549">name</text><rect fill="none" height="6" style="stroke:#C82930;stroke-width:1.0;" width="6" x="603.5" y="354.6719"/><text fill="#000000" font-family="sans-serif" font-size="11" lengthAdjust="spacing" textLength="40" x="615.5" y="362.0908">address</text><rect fill="none" height="6" style="stroke:#C82930;stroke-width:1.0;" width="6" x="603.5" y="368.5078"/><text fill="#000000" font-family="sans-serif" font-size="11" lengthAdjust="spacing" textLength="43" x="615.5" y="375.9268">socCode</text><rect fill="none" height="6" style="stroke:#C82930;stroke-width:1.0;" width="6" x="603.5" y="382.3438"/><text fill="#000000" font-family="sans-serif" font-size="11" lengthAdjust="spacing" textLength="67" x="615.5" y="389.7627">phoneNumber</text><rect fill="none" height="6" style="stroke:#C82930;stroke-width:1.0;" width="6" x="603.5" y="396.1797"/><text fill="#000000" font-family="sans-serif" font-size="11" lengthAdjust="spacing" textLength="24" x="615.5" y="403.5986">email</text><line style="stroke:#A80036;stroke-width:1.5;" x1="596.5" x2="687.5" y1="410.0156" y2="410.0156"/><!--MD5=[ed6624c6556d5e7b1bd23032162d20b7]
class Client--><rect codeLine="37" fill="#FEFECE" filter="url(#fdx7153b9f4n6)" height="144.8516" id="Client" style="stroke:#A80036;stroke-width:1.5;" width="93" x="931.5" y="933"/><ellipse cx="959.55" cy="949" fill="#ADD1B2" rx="11" ry="11" style="stroke:#A80036;stroke-width:1.0;"/><path d="M961.55,945.5 Q961.7531,945 961.9875,944.75 Q962.2219,944.5 962.4875,944.5 Q962.9563,944.5 963.2531,944.7813 Q963.55,945.0625 963.55,945.7188 L963.55,947.2813 Q963.55,947.9375 963.2688,948.2188 Q962.9875,948.5 962.55,948.5 Q962.1594,948.5 961.9094,948.3281 Q961.6594,948.1563 961.55,947.7031 Q961.5031,947.3906 961.3313,947.2188 Q961.0188,946.8906 960.4563,946.7031 Q959.8938,946.5 959.3313,946.5 Q958.6281,946.5 958.0344,946.7813 Q957.4563,947.0625 957.0031,947.6875 Q956.55,948.3125 956.55,949.1719 L956.55,950.0938 Q956.55,951.125 957.3938,951.8125 Q958.2375,952.5 959.7375,952.5 Q960.6281,952.5 961.2531,952.2969 Q961.6125,952.1875 962.0188,951.8281 Q962.2844,951.625 962.425,951.5625 Q962.5656,951.5 962.7375,951.5 Q963.0656,951.5 963.3,951.7656 Q963.55,952.0156 963.55,952.375 Q963.55,952.7188 963.2063,953.125 Q962.7063,953.7188 961.9094,954.0469 Q960.8625,954.5 959.5813,954.5 Q958.0813,954.5 956.8781,953.9063 Q955.9094,953.4375 955.2219,952.4219 Q954.55,951.4063 954.55,950.2031 L954.55,949.1094 Q954.55,947.8594 955.1438,946.7656 Q955.7531,945.6719 956.8,945.0938 Q957.8625,944.5 959.05,944.5 Q959.7688,944.5 960.3938,944.75 Q961.0188,945 961.55,945.5 Z " fill="#000000"/><text fill="#000000" font-family="sans-serif" font-size="12" lengthAdjust="spacing" textLength="32" x="976.45" y="953.9102">Client</text><line style="stroke:#A80036;stroke-width:1.5;" x1="932.5" x2="1023.5" y1="965" y2="965"/><rect fill="none" height="6" style="stroke:#C82930;stroke-width:1.0;" width="6" x="939.5" y="973"/><text fill="#000000" font-family="sans-serif" font-size="11" lengthAdjust="spacing" textLength="55" x="951.5" y="980.4189">nhsNumber</text><rect fill="none" height="6" style="stroke:#C82930;stroke-width:1.0;" width="6" x="939.5" y="986.8359"/><text fill="#000000" font-family="sans-serif" font-size="11" lengthAdjust="spacing" textLength="26" x="951.5" y="994.2549">name</text><rect fill="none" height="6" style="stroke:#C82930;stroke-width:1.0;" width="6" x="939.5" y="1000.6719"/><text fill="#000000" font-family="sans-serif" font-size="11" lengthAdjust="spacing" textLength="48" x="951.5" y="1008.0908">tinNumber</text><rect fill="none" height="6" style="stroke:#C82930;stroke-width:1.0;" width="6" x="939.5" y="1014.5078"/><text fill="#000000" font-family="sans-serif" font-size="11" lengthAdjust="spacing" textLength="43" x="951.5" y="1021.9268">birthDate</text><rect fill="none" height="6" style="stroke:#C82930;stroke-width:1.0;" width="6" x="939.5" y="1028.3438"/><text fill="#000000" font-family="sans-serif" font-size="11" lengthAdjust="spacing" textLength="18" x="951.5" y="1035.7627">sex</text><rect fill="none" height="6" style="stroke:#C82930;stroke-width:1.0;" width="6" x="939.5" y="1042.1797"/><text fill="#000000" font-family="sans-serif" font-size="11" lengthAdjust="spacing" textLength="67" x="951.5" y="1049.5986">phoneNumber</text><rect fill="none" height="6" style="stroke:#C82930;stroke-width:1.0;" width="6" x="939.5" y="1056.0156"/><text fill="#000000" font-family="sans-serif" font-size="11" lengthAdjust="spacing" textLength="24" x="951.5" y="1063.4346">email</text><line style="stroke:#A80036;stroke-width:1.5;" x1="932.5" x2="1023.5" y1="1069.8516" y2="1069.8516"/><!--MD5=[28d9d7ef96b34fdc6ab3814c5cef79ce]
class ClinicalAnalysisLab--><rect codeLine="65" fill="#FEFECE" filter="url(#fdx7153b9f4n6)" height="117.1797" id="ClinicalAnalysisLab" style="stroke:#A80036;stroke-width:1.5;" width="140" x="483" y="666"/><ellipse cx="498" cy="682" fill="#ADD1B2" rx="11" ry="11" style="stroke:#A80036;stroke-width:1.0;"/><path d="M500,678.5 Q500.2031,678 500.4375,677.75 Q500.6719,677.5 500.9375,677.5 Q501.4063,677.5 501.7031,677.7813 Q502,678.0625 502,678.7188 L502,680.2813 Q502,680.9375 501.7188,681.2188 Q501.4375,681.5 501,681.5 Q500.6094,681.5 500.3594,681.3281 Q500.1094,681.1563 500,680.7031 Q499.9531,680.3906 499.7813,680.2188 Q499.4688,679.8906 498.9063,679.7031 Q498.3438,679.5 497.7813,679.5 Q497.0781,679.5 496.4844,679.7813 Q495.9063,680.0625 495.4531,680.6875 Q495,681.3125 495,682.1719 L495,683.0938 Q495,684.125 495.8438,684.8125 Q496.6875,685.5 498.1875,685.5 Q499.0781,685.5 499.7031,685.2969 Q500.0625,685.1875 500.4688,684.8281 Q500.7344,684.625 500.875,684.5625 Q501.0156,684.5 501.1875,684.5 Q501.5156,684.5 501.75,684.7656 Q502,685.0156 502,685.375 Q502,685.7188 501.6563,686.125 Q501.1563,686.7188 500.3594,687.0469 Q499.3125,687.5 498.0313,687.5 Q496.5313,687.5 495.3281,686.9063 Q494.3594,686.4375 493.6719,685.4219 Q493,684.4063 493,683.2031 L493,682.1094 Q493,680.8594 493.5938,679.7656 Q494.2031,678.6719 495.25,678.0938 Q496.3125,677.5 497.5,677.5 Q498.2188,677.5 498.8438,677.75 Q499.4688,678 500,678.5 Z " fill="#000000"/><text fill="#000000" font-family="sans-serif" font-size="12" lengthAdjust="spacing" textLength="108" x="512" y="686.9102">ClinicalAnalysisLab</text><line style="stroke:#A80036;stroke-width:1.5;" x1="484" x2="622" y1="698" y2="698"/><rect fill="none" height="6" style="stroke:#C82930;stroke-width:1.0;" width="6" x="491" y="706"/><text fill="#000000" font-family="sans-serif" font-size="11" lengthAdjust="spacing" textLength="22" x="503" y="713.4189">labId</text><rect fill="none" height="6" style="stroke:#C82930;stroke-width:1.0;" width="6" x="491" y="719.8359"/><text fill="#000000" font-family="sans-serif" font-size="11" lengthAdjust="spacing" textLength="26" x="503" y="727.2549">name</text><rect fill="none" height="6" style="stroke:#C82930;stroke-width:1.0;" width="6" x="491" y="733.6719"/><text fill="#000000" font-family="sans-serif" font-size="11" lengthAdjust="spacing" textLength="40" x="503" y="741.0908">address</text><rect fill="none" height="6" style="stroke:#C82930;stroke-width:1.0;" width="6" x="491" y="747.5078"/><text fill="#000000" font-family="sans-serif" font-size="11" lengthAdjust="spacing" textLength="67" x="503" y="754.9268">phoneNumber</text><rect fill="none" height="6" style="stroke:#C82930;stroke-width:1.0;" width="6" x="491" y="761.3438"/><text fill="#000000" font-family="sans-serif" font-size="11" lengthAdjust="spacing" textLength="48" x="503" y="768.7627">tinNumber</text><line style="stroke:#A80036;stroke-width:1.5;" x1="484" x2="622" y1="775.1797" y2="775.1797"/><!--MD5=[01931d41e78f8996acd44f6f0fd8de28]
class MedicalLabTechnician--><rect fill="#FEFECE" filter="url(#fdx7153b9f4n6)" height="48" id="MedicalLabTechnician" style="stroke:#A80036;stroke-width:1.5;" width="155" x="564.5" y="503"/><ellipse cx="579.5" cy="519" fill="#ADD1B2" rx="11" ry="11" style="stroke:#A80036;stroke-width:1.0;"/><path d="M581.5,515.5 Q581.7031,515 581.9375,514.75 Q582.1719,514.5 582.4375,514.5 Q582.9063,514.5 583.2031,514.7813 Q583.5,515.0625 583.5,515.7188 L583.5,517.2813 Q583.5,517.9375 583.2188,518.2188 Q582.9375,518.5 582.5,518.5 Q582.1094,518.5 581.8594,518.3281 Q581.6094,518.1563 581.5,517.7031 Q581.4531,517.3906 581.2813,517.2188 Q580.9688,516.8906 580.4063,516.7031 Q579.8438,516.5 579.2813,516.5 Q578.5781,516.5 577.9844,516.7813 Q577.4063,517.0625 576.9531,517.6875 Q576.5,518.3125 576.5,519.1719 L576.5,520.0938 Q576.5,521.125 577.3438,521.8125 Q578.1875,522.5 579.6875,522.5 Q580.5781,522.5 581.2031,522.2969 Q581.5625,522.1875 581.9688,521.8281 Q582.2344,521.625 582.375,521.5625 Q582.5156,521.5 582.6875,521.5 Q583.0156,521.5 583.25,521.7656 Q583.5,522.0156 583.5,522.375 Q583.5,522.7188 583.1563,523.125 Q582.6563,523.7188 581.8594,524.0469 Q580.8125,524.5 579.5313,524.5 Q578.0313,524.5 576.8281,523.9063 Q575.8594,523.4375 575.1719,522.4219 Q574.5,521.4063 574.5,520.2031 L574.5,519.1094 Q574.5,517.8594 575.0938,516.7656 Q575.7031,515.6719 576.75,515.0938 Q577.8125,514.5 579,514.5 Q579.7188,514.5 580.3438,514.75 Q580.9688,515 581.5,515.5 Z " fill="#000000"/><text fill="#000000" font-family="sans-serif" font-size="12" lengthAdjust="spacing" textLength="123" x="593.5" y="523.9102">MedicalLabTechnician</text><line style="stroke:#A80036;stroke-width:1.5;" x1="565.5" x2="718.5" y1="535" y2="535"/><line style="stroke:#A80036;stroke-width:1.5;" x1="565.5" x2="718.5" y1="543" y2="543"/><!--MD5=[03960189e81aa2c066c762ffabbee709]
class Receptionist--><rect fill="#FEFECE" filter="url(#fdx7153b9f4n6)" height="48" id="Receptionist" style="stroke:#A80036;stroke-width:1.5;" width="101" x="856.5" y="503"/><ellipse cx="871.5" cy="519" fill="#ADD1B2" rx="11" ry="11" style="stroke:#A80036;stroke-width:1.0;"/><path d="M873.5,515.5 Q873.7031,515 873.9375,514.75 Q874.1719,514.5 874.4375,514.5 Q874.9063,514.5 875.2031,514.7813 Q875.5,515.0625 875.5,515.7188 L875.5,517.2813 Q875.5,517.9375 875.2188,518.2188 Q874.9375,518.5 874.5,518.5 Q874.1094,518.5 873.8594,518.3281 Q873.6094,518.1563 873.5,517.7031 Q873.4531,517.3906 873.2813,517.2188 Q872.9688,516.8906 872.4063,516.7031 Q871.8438,516.5 871.2813,516.5 Q870.5781,516.5 869.9844,516.7813 Q869.4063,517.0625 868.9531,517.6875 Q868.5,518.3125 868.5,519.1719 L868.5,520.0938 Q868.5,521.125 869.3438,521.8125 Q870.1875,522.5 871.6875,522.5 Q872.5781,522.5 873.2031,522.2969 Q873.5625,522.1875 873.9688,521.8281 Q874.2344,521.625 874.375,521.5625 Q874.5156,521.5 874.6875,521.5 Q875.0156,521.5 875.25,521.7656 Q875.5,522.0156 875.5,522.375 Q875.5,522.7188 875.1563,523.125 Q874.6563,523.7188 873.8594,524.0469 Q872.8125,524.5 871.5313,524.5 Q870.0313,524.5 868.8281,523.9063 Q867.8594,523.4375 867.1719,522.4219 Q866.5,521.4063 866.5,520.2031 L866.5,519.1094 Q866.5,517.8594 867.0938,516.7656 Q867.7031,515.6719 868.75,515.0938 Q869.8125,514.5 871,514.5 Q871.7188,514.5 872.3438,514.75 Q872.9688,515 873.5,515.5 Z " fill="#000000"/><text fill="#000000" font-family="sans-serif" font-size="12" lengthAdjust="spacing" textLength="69" x="885.5" y="523.9102">Receptionist</text><line style="stroke:#A80036;stroke-width:1.5;" x1="857.5" x2="956.5" y1="535" y2="535"/><line style="stroke:#A80036;stroke-width:1.5;" x1="857.5" x2="956.5" y1="543" y2="543"/><!--MD5=[40e890504ae8504489f671c0e1cb46b0]
class TestRequest--><rect codeLine="79" fill="#FEFECE" filter="url(#fdx7153b9f4n6)" height="75.6719" id="TestRequest" style="stroke:#A80036;stroke-width:1.5;" width="103" x="947.5" y="686.5"/><ellipse cx="962.5" cy="702.5" fill="#ADD1B2" rx="11" ry="11" style="stroke:#A80036;stroke-width:1.0;"/><path d="M964.5,699 Q964.7031,698.5 964.9375,698.25 Q965.1719,698 965.4375,698 Q965.9063,698 966.2031,698.2813 Q966.5,698.5625 966.5,699.2188 L966.5,700.7813 Q966.5,701.4375 966.2188,701.7188 Q965.9375,702 965.5,702 Q965.1094,702 964.8594,701.8281 Q964.6094,701.6563 964.5,701.2031 Q964.4531,700.8906 964.2813,700.7188 Q963.9688,700.3906 963.4063,700.2031 Q962.8438,700 962.2813,700 Q961.5781,700 960.9844,700.2813 Q960.4063,700.5625 959.9531,701.1875 Q959.5,701.8125 959.5,702.6719 L959.5,703.5938 Q959.5,704.625 960.3438,705.3125 Q961.1875,706 962.6875,706 Q963.5781,706 964.2031,705.7969 Q964.5625,705.6875 964.9688,705.3281 Q965.2344,705.125 965.375,705.0625 Q965.5156,705 965.6875,705 Q966.0156,705 966.25,705.2656 Q966.5,705.5156 966.5,705.875 Q966.5,706.2188 966.1563,706.625 Q965.6563,707.2188 964.8594,707.5469 Q963.8125,708 962.5313,708 Q961.0313,708 959.8281,707.4063 Q958.8594,706.9375 958.1719,705.9219 Q957.5,704.9063 957.5,703.7031 L957.5,702.6094 Q957.5,701.3594 958.0938,700.2656 Q958.7031,699.1719 959.75,698.5938 Q960.8125,698 962,698 Q962.7188,698 963.3438,698.25 Q963.9688,698.5 964.5,699 Z " fill="#000000"/><text fill="#000000" font-family="sans-serif" font-size="12" lengthAdjust="spacing" textLength="71" x="976.5" y="707.4102">TestRequest</text><line style="stroke:#A80036;stroke-width:1.5;" x1="948.5" x2="1049.5" y1="718.5" y2="718.5"/><rect fill="none" height="6" style="stroke:#C82930;stroke-width:1.0;" width="6" x="955.5" y="726.5"/><text fill="#000000" font-family="sans-serif" font-size="11" lengthAdjust="spacing" textLength="59" x="967.5" y="733.9189">requestDate</text><rect fill="none" height="6" style="stroke:#C82930;stroke-width:1.0;" width="6" x="955.5" y="740.3359"/><text fill="#000000" font-family="sans-serif" font-size="11" lengthAdjust="spacing" textLength="42" x="967.5" y="747.7549">testType</text><line style="stroke:#A80036;stroke-width:1.5;" x1="948.5" x2="1049.5" y1="754.1719" y2="754.1719"/><!--MD5=[d093ac04eae792ab9dd475c65e92d910]
class Headquarter--><rect codeLine="89" fill="#FEFECE" filter="url(#fdx7153b9f4n6)" height="61.8359" id="Headquarter" style="stroke:#A80036;stroke-width:1.5;" width="101" x="204.5" y="693.5"/><ellipse cx="219.5" cy="709.5" fill="#ADD1B2" rx="11" ry="11" style="stroke:#A80036;stroke-width:1.0;"/><path d="M221.5,706 Q221.7031,705.5 221.9375,705.25 Q222.1719,705 222.4375,705 Q222.9063,705 223.2031,705.2813 Q223.5,705.5625 223.5,706.2188 L223.5,707.7813 Q223.5,708.4375 223.2188,708.7188 Q222.9375,709 222.5,709 Q222.1094,709 221.8594,708.8281 Q221.6094,708.6563 221.5,708.2031 Q221.4531,707.8906 221.2813,707.7188 Q220.9688,707.3906 220.4063,707.2031 Q219.8438,707 219.2813,707 Q218.5781,707 217.9844,707.2813 Q217.4063,707.5625 216.9531,708.1875 Q216.5,708.8125 216.5,709.6719 L216.5,710.5938 Q216.5,711.625 217.3438,712.3125 Q218.1875,713 219.6875,713 Q220.5781,713 221.2031,712.7969 Q221.5625,712.6875 221.9688,712.3281 Q222.2344,712.125 222.375,712.0625 Q222.5156,712 222.6875,712 Q223.0156,712 223.25,712.2656 Q223.5,712.5156 223.5,712.875 Q223.5,713.2188 223.1563,713.625 Q222.6563,714.2188 221.8594,714.5469 Q220.8125,715 219.5313,715 Q218.0313,715 216.8281,714.4063 Q215.8594,713.9375 215.1719,712.9219 Q214.5,711.9063 214.5,710.7031 L214.5,709.6094 Q214.5,708.3594 215.0938,707.2656 Q215.7031,706.1719 216.75,705.5938 Q217.8125,705 219,705 Q219.7188,705 220.3438,705.25 Q220.9688,705.5 221.5,706 Z " fill="#000000"/><text fill="#000000" font-family="sans-serif" font-size="12" lengthAdjust="spacing" textLength="69" x="233.5" y="714.4102">Headquarter</text><line style="stroke:#A80036;stroke-width:1.5;" x1="205.5" x2="304.5" y1="725.5" y2="725.5"/><rect fill="none" height="6" style="stroke:#C82930;stroke-width:1.0;" width="6" x="212.5" y="733.5"/><text fill="#000000" font-family="sans-serif" font-size="11" lengthAdjust="spacing" textLength="37" x="224.5" y="740.9189">location</text><line style="stroke:#A80036;stroke-width:1.5;" x1="205.5" x2="304.5" y1="747.3359" y2="747.3359"/><!--MD5=[a8cdb1e9a553f5119d5d6ee12fd8c3d3]
class ChemicalLab--><rect codeLine="72" fill="#FEFECE" filter="url(#fdx7153b9f4n6)" height="103.3438" id="ChemicalLab" style="stroke:#A80036;stroke-width:1.5;" width="106" x="331" y="954"/><ellipse cx="346" cy="970" fill="#ADD1B2" rx="11" ry="11" style="stroke:#A80036;stroke-width:1.0;"/><path d="M348,966.5 Q348.2031,966 348.4375,965.75 Q348.6719,965.5 348.9375,965.5 Q349.4063,965.5 349.7031,965.7813 Q350,966.0625 350,966.7188 L350,968.2813 Q350,968.9375 349.7188,969.2188 Q349.4375,969.5 349,969.5 Q348.6094,969.5 348.3594,969.3281 Q348.1094,969.1563 348,968.7031 Q347.9531,968.3906 347.7813,968.2188 Q347.4688,967.8906 346.9063,967.7031 Q346.3438,967.5 345.7813,967.5 Q345.0781,967.5 344.4844,967.7813 Q343.9063,968.0625 343.4531,968.6875 Q343,969.3125 343,970.1719 L343,971.0938 Q343,972.125 343.8438,972.8125 Q344.6875,973.5 346.1875,973.5 Q347.0781,973.5 347.7031,973.2969 Q348.0625,973.1875 348.4688,972.8281 Q348.7344,972.625 348.875,972.5625 Q349.0156,972.5 349.1875,972.5 Q349.5156,972.5 349.75,972.7656 Q350,973.0156 350,973.375 Q350,973.7188 349.6563,974.125 Q349.1563,974.7188 348.3594,975.0469 Q347.3125,975.5 346.0313,975.5 Q344.5313,975.5 343.3281,974.9063 Q342.3594,974.4375 341.6719,973.4219 Q341,972.4063 341,971.2031 L341,970.1094 Q341,968.8594 341.5938,967.7656 Q342.2031,966.6719 343.25,966.0938 Q344.3125,965.5 345.5,965.5 Q346.2188,965.5 346.8438,965.75 Q347.4688,966 348,966.5 Z " fill="#000000"/><text fill="#000000" font-family="sans-serif" font-size="12" lengthAdjust="spacing" textLength="74" x="360" y="974.9102">ChemicalLab</text><line style="stroke:#A80036;stroke-width:1.5;" x1="332" x2="436" y1="986" y2="986"/><rect fill="none" height="6" style="stroke:#C82930;stroke-width:1.0;" width="6" x="339" y="994"/><text fill="#000000" font-family="sans-serif" font-size="11" lengthAdjust="spacing" textLength="26" x="351" y="1001.4189">name</text><rect fill="none" height="6" style="stroke:#C82930;stroke-width:1.0;" width="6" x="339" y="1007.8359"/><text fill="#000000" font-family="sans-serif" font-size="11" lengthAdjust="spacing" textLength="40" x="351" y="1015.2549">address</text><rect fill="none" height="6" style="stroke:#C82930;stroke-width:1.0;" width="6" x="339" y="1021.6719"/><text fill="#000000" font-family="sans-serif" font-size="11" lengthAdjust="spacing" textLength="67" x="351" y="1029.0908">phoneNumber</text><rect fill="none" height="6" style="stroke:#C82930;stroke-width:1.0;" width="6" x="339" y="1035.5078"/><text fill="#000000" font-family="sans-serif" font-size="11" lengthAdjust="spacing" textLength="48" x="351" y="1042.9268">tinNumber</text><line style="stroke:#A80036;stroke-width:1.5;" x1="332" x2="436" y1="1049.3438" y2="1049.3438"/><!--MD5=[012ee2a8bf3ae2b319009b06f951c2e5]
class ClinicalChemistryTechnologist--><rect fill="#FEFECE" filter="url(#fdx7153b9f4n6)" height="48" id="ClinicalChemistryTechnologist" style="stroke:#A80036;stroke-width:1.5;" width="200" x="310" y="588"/><ellipse cx="325" cy="604" fill="#ADD1B2" rx="11" ry="11" style="stroke:#A80036;stroke-width:1.0;"/><path d="M327,600.5 Q327.2031,600 327.4375,599.75 Q327.6719,599.5 327.9375,599.5 Q328.4063,599.5 328.7031,599.7813 Q329,600.0625 329,600.7188 L329,602.2813 Q329,602.9375 328.7188,603.2188 Q328.4375,603.5 328,603.5 Q327.6094,603.5 327.3594,603.3281 Q327.1094,603.1563 327,602.7031 Q326.9531,602.3906 326.7813,602.2188 Q326.4688,601.8906 325.9063,601.7031 Q325.3438,601.5 324.7813,601.5 Q324.0781,601.5 323.4844,601.7813 Q322.9063,602.0625 322.4531,602.6875 Q322,603.3125 322,604.1719 L322,605.0938 Q322,606.125 322.8438,606.8125 Q323.6875,607.5 325.1875,607.5 Q326.0781,607.5 326.7031,607.2969 Q327.0625,607.1875 327.4688,606.8281 Q327.7344,606.625 327.875,606.5625 Q328.0156,606.5 328.1875,606.5 Q328.5156,606.5 328.75,606.7656 Q329,607.0156 329,607.375 Q329,607.7188 328.6563,608.125 Q328.1563,608.7188 327.3594,609.0469 Q326.3125,609.5 325.0313,609.5 Q323.5313,609.5 322.3281,608.9063 Q321.3594,608.4375 320.6719,607.4219 Q320,606.4063 320,605.2031 L320,604.1094 Q320,602.8594 320.5938,601.7656 Q321.2031,600.6719 322.25,600.0938 Q323.3125,599.5 324.5,599.5 Q325.2188,599.5 325.8438,599.75 Q326.4688,600 327,600.5 Z " fill="#000000"/><text fill="#000000" font-family="sans-serif" font-size="12" lengthAdjust="spacing" textLength="168" x="339" y="608.9102">ClinicalChemistryTechnologist</text><line style="stroke:#A80036;stroke-width:1.5;" x1="311" x2="509" y1="620" y2="620"/><line style="stroke:#A80036;stroke-width:1.5;" x1="311" x2="509" y1="628" y2="628"/><!--MD5=[c886e9f626b1f684543f4c5ec86b9c7b]
class LabCoordinator--><rect fill="#FEFECE" filter="url(#fdx7153b9f4n6)" height="48" id="LabCoordinator" style="stroke:#A80036;stroke-width:1.5;" width="118" x="7" y="834"/><ellipse cx="22" cy="850" fill="#ADD1B2" rx="11" ry="11" style="stroke:#A80036;stroke-width:1.0;"/><path d="M24,846.5 Q24.2031,846 24.4375,845.75 Q24.6719,845.5 24.9375,845.5 Q25.4063,845.5 25.7031,845.7813 Q26,846.0625 26,846.7188 L26,848.2813 Q26,848.9375 25.7188,849.2188 Q25.4375,849.5 25,849.5 Q24.6094,849.5 24.3594,849.3281 Q24.1094,849.1563 24,848.7031 Q23.9531,848.3906 23.7813,848.2188 Q23.4688,847.8906 22.9063,847.7031 Q22.3438,847.5 21.7813,847.5 Q21.0781,847.5 20.4844,847.7813 Q19.9063,848.0625 19.4531,848.6875 Q19,849.3125 19,850.1719 L19,851.0938 Q19,852.125 19.8438,852.8125 Q20.6875,853.5 22.1875,853.5 Q23.0781,853.5 23.7031,853.2969 Q24.0625,853.1875 24.4688,852.8281 Q24.7344,852.625 24.875,852.5625 Q25.0156,852.5 25.1875,852.5 Q25.5156,852.5 25.75,852.7656 Q26,853.0156 26,853.375 Q26,853.7188 25.6563,854.125 Q25.1563,854.7188 24.3594,855.0469 Q23.3125,855.5 22.0313,855.5 Q20.5313,855.5 19.3281,854.9063 Q18.3594,854.4375 17.6719,853.4219 Q17,852.4063 17,851.2031 L17,850.1094 Q17,848.8594 17.5938,847.7656 Q18.2031,846.6719 19.25,846.0938 Q20.3125,845.5 21.5,845.5 Q22.2188,845.5 22.8438,845.75 Q23.4688,846 24,846.5 Z " fill="#000000"/><text fill="#000000" font-family="sans-serif" font-size="12" lengthAdjust="spacing" textLength="86" x="36" y="854.9102">LabCoordinator</text><line style="stroke:#A80036;stroke-width:1.5;" x1="8" x2="124" y1="866" y2="866"/><line style="stroke:#A80036;stroke-width:1.5;" x1="8" x2="124" y1="874" y2="874"/><!--MD5=[db6d18d8099558415abc41d00477ab92]
class Admin--><rect fill="#FEFECE" filter="url(#fdx7153b9f4n6)" height="48" id="Admin" style="stroke:#A80036;stroke-width:1.5;" width="67" x="754.5" y="503"/><ellipse cx="769.5" cy="519" fill="#ADD1B2" rx="11" ry="11" style="stroke:#A80036;stroke-width:1.0;"/><path d="M771.5,515.5 Q771.7031,515 771.9375,514.75 Q772.1719,514.5 772.4375,514.5 Q772.9063,514.5 773.2031,514.7813 Q773.5,515.0625 773.5,515.7188 L773.5,517.2813 Q773.5,517.9375 773.2188,518.2188 Q772.9375,518.5 772.5,518.5 Q772.1094,518.5 771.8594,518.3281 Q771.6094,518.1563 771.5,517.7031 Q771.4531,517.3906 771.2813,517.2188 Q770.9688,516.8906 770.4063,516.7031 Q769.8438,516.5 769.2813,516.5 Q768.5781,516.5 767.9844,516.7813 Q767.4063,517.0625 766.9531,517.6875 Q766.5,518.3125 766.5,519.1719 L766.5,520.0938 Q766.5,521.125 767.3438,521.8125 Q768.1875,522.5 769.6875,522.5 Q770.5781,522.5 771.2031,522.2969 Q771.5625,522.1875 771.9688,521.8281 Q772.2344,521.625 772.375,521.5625 Q772.5156,521.5 772.6875,521.5 Q773.0156,521.5 773.25,521.7656 Q773.5,522.0156 773.5,522.375 Q773.5,522.7188 773.1563,523.125 Q772.6563,523.7188 771.8594,524.0469 Q770.8125,524.5 769.5313,524.5 Q768.0313,524.5 766.8281,523.9063 Q765.8594,523.4375 765.1719,522.4219 Q764.5,521.4063 764.5,520.2031 L764.5,519.1094 Q764.5,517.8594 765.0938,516.7656 Q765.7031,515.6719 766.75,515.0938 Q767.8125,514.5 769,514.5 Q769.7188,514.5 770.3438,514.75 Q770.9688,515 771.5,515.5 Z " fill="#000000"/><text fill="#000000" font-family="sans-serif" font-size="12" lengthAdjust="spacing" textLength="35" x="783.5" y="523.9102">Admin</text><line style="stroke:#A80036;stroke-width:1.5;" x1="755.5" x2="820.5" y1="535" y2="535"/><line style="stroke:#A80036;stroke-width:1.5;" x1="755.5" x2="820.5" y1="543" y2="543"/><!--MD5=[7d96fd15f3014691d2fcaf89c5791e2a]
class SpecialistDoctor--><rect codeLine="106" fill="#FEFECE" filter="url(#fdx7153b9f4n6)" height="61.8359" id="SpecialistDoctor" style="stroke:#A80036;stroke-width:1.5;" width="122" x="236" y="496"/><ellipse cx="251" cy="512" fill="#ADD1B2" rx="11" ry="11" style="stroke:#A80036;stroke-width:1.0;"/><path d="M253,508.5 Q253.2031,508 253.4375,507.75 Q253.6719,507.5 253.9375,507.5 Q254.4063,507.5 254.7031,507.7813 Q255,508.0625 255,508.7188 L255,510.2813 Q255,510.9375 254.7188,511.2188 Q254.4375,511.5 254,511.5 Q253.6094,511.5 253.3594,511.3281 Q253.1094,511.1563 253,510.7031 Q252.9531,510.3906 252.7813,510.2188 Q252.4688,509.8906 251.9063,509.7031 Q251.3438,509.5 250.7813,509.5 Q250.0781,509.5 249.4844,509.7813 Q248.9063,510.0625 248.4531,510.6875 Q248,511.3125 248,512.1719 L248,513.0938 Q248,514.125 248.8438,514.8125 Q249.6875,515.5 251.1875,515.5 Q252.0781,515.5 252.7031,515.2969 Q253.0625,515.1875 253.4688,514.8281 Q253.7344,514.625 253.875,514.5625 Q254.0156,514.5 254.1875,514.5 Q254.5156,514.5 254.75,514.7656 Q255,515.0156 255,515.375 Q255,515.7188 254.6563,516.125 Q254.1563,516.7188 253.3594,517.0469 Q252.3125,517.5 251.0313,517.5 Q249.5313,517.5 248.3281,516.9063 Q247.3594,516.4375 246.6719,515.4219 Q246,514.4063 246,513.2031 L246,512.1094 Q246,510.8594 246.5938,509.7656 Q247.2031,508.6719 248.25,508.0938 Q249.3125,507.5 250.5,507.5 Q251.2188,507.5 251.8438,507.75 Q252.4688,508 253,508.5 Z " fill="#000000"/><text fill="#000000" font-family="sans-serif" font-size="12" lengthAdjust="spacing" textLength="90" x="265" y="516.9102">SpecialistDoctor</text><line style="stroke:#A80036;stroke-width:1.5;" x1="237" x2="357" y1="528" y2="528"/><rect fill="none" height="6" style="stroke:#C82930;stroke-width:1.0;" width="6" x="244" y="536"/><text fill="#000000" font-family="sans-serif" font-size="11" lengthAdjust="spacing" textLength="94" x="256" y="543.4189">doctorIndexNumber</text><line style="stroke:#A80036;stroke-width:1.5;" x1="237" x2="357" y1="549.8359" y2="549.8359"/><!--MD5=[df38be88ccee13e832d6fafd6288a4ca]
class Test--><rect codeLine="93" fill="#FEFECE" filter="url(#fdx7153b9f4n6)" height="103.3438" id="Test" style="stroke:#A80036;stroke-width:1.5;" width="171" x="1059.5" y="954"/><ellipse cx="1128.75" cy="970" fill="#ADD1B2" rx="11" ry="11" style="stroke:#A80036;stroke-width:1.0;"/><path d="M1130.75,966.5 Q1130.9531,966 1131.1875,965.75 Q1131.4219,965.5 1131.6875,965.5 Q1132.1563,965.5 1132.4531,965.7813 Q1132.75,966.0625 1132.75,966.7188 L1132.75,968.2813 Q1132.75,968.9375 1132.4688,969.2188 Q1132.1875,969.5 1131.75,969.5 Q1131.3594,969.5 1131.1094,969.3281 Q1130.8594,969.1563 1130.75,968.7031 Q1130.7031,968.3906 1130.5313,968.2188 Q1130.2188,967.8906 1129.6563,967.7031 Q1129.0938,967.5 1128.5313,967.5 Q1127.8281,967.5 1127.2344,967.7813 Q1126.6563,968.0625 1126.2031,968.6875 Q1125.75,969.3125 1125.75,970.1719 L1125.75,971.0938 Q1125.75,972.125 1126.5938,972.8125 Q1127.4375,973.5 1128.9375,973.5 Q1129.8281,973.5 1130.4531,973.2969 Q1130.8125,973.1875 1131.2188,972.8281 Q1131.4844,972.625 1131.625,972.5625 Q1131.7656,972.5 1131.9375,972.5 Q1132.2656,972.5 1132.5,972.7656 Q1132.75,973.0156 1132.75,973.375 Q1132.75,973.7188 1132.4063,974.125 Q1131.9063,974.7188 1131.1094,975.0469 Q1130.0625,975.5 1128.7813,975.5 Q1127.2813,975.5 1126.0781,974.9063 Q1125.1094,974.4375 1124.4219,973.4219 Q1123.75,972.4063 1123.75,971.2031 L1123.75,970.1094 Q1123.75,968.8594 1124.3438,967.7656 Q1124.9531,966.6719 1126,966.0938 Q1127.0625,965.5 1128.25,965.5 Q1128.9688,965.5 1129.5938,965.75 Q1130.2188,966 1130.75,966.5 Z " fill="#000000"/><text fill="#000000" font-family="sans-serif" font-size="12" lengthAdjust="spacing" textLength="24" x="1149.25" y="974.9102">Test</text><line style="stroke:#A80036;stroke-width:1.5;" x1="1060.5" x2="1229.5" y1="986" y2="986"/><rect fill="none" height="6" style="stroke:#C82930;stroke-width:1.0;" width="6" x="1067.5" y="994"/><text fill="#000000" font-family="sans-serif" font-size="11" lengthAdjust="spacing" textLength="139" x="1079.5" y="1001.4189">timestampOfSampleCollected</text><rect fill="none" height="6" style="stroke:#C82930;stroke-width:1.0;" width="6" x="1067.5" y="1007.8359"/><text fill="#000000" font-family="sans-serif" font-size="11" lengthAdjust="spacing" textLength="107" x="1079.5" y="1015.2549">timestampOfDiagnosis</text><rect fill="none" height="6" style="stroke:#C82930;stroke-width:1.0;" width="6" x="1067.5" y="1021.6719"/><text fill="#000000" font-family="sans-serif" font-size="11" lengthAdjust="spacing" textLength="145" x="1079.5" y="1029.0908">timestampOfChemicalAnalysis</text><rect fill="none" height="6" style="stroke:#C82930;stroke-width:1.0;" width="6" x="1067.5" y="1035.5078"/><text fill="#000000" font-family="sans-serif" font-size="11" lengthAdjust="spacing" textLength="107" x="1079.5" y="1042.9268">timestampOfValidation</text><line style="stroke:#A80036;stroke-width:1.5;" x1="1060.5" x2="1229.5" y1="1049.3438" y2="1049.3438"/><!--MD5=[2741598bdf59a7d7e0d5c97658fd3022]
class Result--><rect codeLine="110" fill="#FEFECE" filter="url(#fdx7153b9f4n6)" height="61.8359" id="Result" style="stroke:#A80036;stroke-width:1.5;" width="75" x="983.5" y="1156"/><ellipse cx="1001.65" cy="1172" fill="#ADD1B2" rx="11" ry="11" style="stroke:#A80036;stroke-width:1.0;"/><path d="M1003.65,1168.5 Q1003.8531,1168 1004.0875,1167.75 Q1004.3219,1167.5 1004.5875,1167.5 Q1005.0563,1167.5 1005.3531,1167.7813 Q1005.65,1168.0625 1005.65,1168.7188 L1005.65,1170.2813 Q1005.65,1170.9375 1005.3688,1171.2188 Q1005.0875,1171.5 1004.65,1171.5 Q1004.2594,1171.5 1004.0094,1171.3281 Q1003.7594,1171.1563 1003.65,1170.7031 Q1003.6031,1170.3906 1003.4313,1170.2188 Q1003.1188,1169.8906 1002.5563,1169.7031 Q1001.9938,1169.5 1001.4313,1169.5 Q1000.7281,1169.5 1000.1344,1169.7813 Q999.5563,1170.0625 999.1031,1170.6875 Q998.65,1171.3125 998.65,1172.1719 L998.65,1173.0938 Q998.65,1174.125 999.4938,1174.8125 Q1000.3375,1175.5 1001.8375,1175.5 Q1002.7281,1175.5 1003.3531,1175.2969 Q1003.7125,1175.1875 1004.1188,1174.8281 Q1004.3844,1174.625 1004.525,1174.5625 Q1004.6656,1174.5 1004.8375,1174.5 Q1005.1656,1174.5 1005.4,1174.7656 Q1005.65,1175.0156 1005.65,1175.375 Q1005.65,1175.7188 1005.3063,1176.125 Q1004.8063,1176.7188 1004.0094,1177.0469 Q1002.9625,1177.5 1001.6813,1177.5 Q1000.1813,1177.5 998.9781,1176.9063 Q998.0094,1176.4375 997.3219,1175.4219 Q996.65,1174.4063 996.65,1173.2031 L996.65,1172.1094 Q996.65,1170.8594 997.2438,1169.7656 Q997.8531,1168.6719 998.9,1168.0938 Q999.9625,1167.5 1001.15,1167.5 Q1001.8688,1167.5 1002.4938,1167.75 Q1003.1188,1168 1003.65,1168.5 Z " fill="#000000"/><text fill="#000000" font-family="sans-serif" font-size="12" lengthAdjust="spacing" textLength="36" x="1016.35" y="1176.9102">Result</text><line style="stroke:#A80036;stroke-width:1.5;" x1="984.5" x2="1057.5" y1="1188" y2="1188"/><rect fill="none" height="6" style="stroke:#C82930;stroke-width:1.0;" width="6" x="991.5" y="1196"/><text fill="#000000" font-family="sans-serif" font-size="11" lengthAdjust="spacing" textLength="49" x="1003.5" y="1203.4189">Parameter</text><line style="stroke:#A80036;stroke-width:1.5;" x1="984.5" x2="1057.5" y1="1209.8359" y2="1209.8359"/><!--MD5=[f00dbe8c0302c6aec2cb26b3c659c8fc]
class Report--><rect codeLine="51" fill="#FEFECE" filter="url(#fdx7153b9f4n6)" height="75.6719" id="Report" style="stroke:#A80036;stroke-width:1.5;" width="72" x="115" y="1296"/><ellipse cx="131.35" cy="1312" fill="#ADD1B2" rx="11" ry="11" style="stroke:#A80036;stroke-width:1.0;"/><path d="M133.35,1308.5 Q133.5531,1308 133.7875,1307.75 Q134.0219,1307.5 134.2875,1307.5 Q134.7563,1307.5 135.0531,1307.7813 Q135.35,1308.0625 135.35,1308.7188 L135.35,1310.2813 Q135.35,1310.9375 135.0688,1311.2188 Q134.7875,1311.5 134.35,1311.5 Q133.9594,1311.5 133.7094,1311.3281 Q133.4594,1311.1563 133.35,1310.7031 Q133.3031,1310.3906 133.1313,1310.2188 Q132.8188,1309.8906 132.2563,1309.7031 Q131.6938,1309.5 131.1313,1309.5 Q130.4281,1309.5 129.8344,1309.7813 Q129.2563,1310.0625 128.8031,1310.6875 Q128.35,1311.3125 128.35,1312.1719 L128.35,1313.0938 Q128.35,1314.125 129.1938,1314.8125 Q130.0375,1315.5 131.5375,1315.5 Q132.4281,1315.5 133.0531,1315.2969 Q133.4125,1315.1875 133.8188,1314.8281 Q134.0844,1314.625 134.225,1314.5625 Q134.3656,1314.5 134.5375,1314.5 Q134.8656,1314.5 135.1,1314.7656 Q135.35,1315.0156 135.35,1315.375 Q135.35,1315.7188 135.0063,1316.125 Q134.5063,1316.7188 133.7094,1317.0469 Q132.6625,1317.5 131.3813,1317.5 Q129.8813,1317.5 128.6781,1316.9063 Q127.7094,1316.4375 127.0219,1315.4219 Q126.35,1314.4063 126.35,1313.2031 L126.35,1312.1094 Q126.35,1310.8594 126.9438,1309.7656 Q127.5531,1308.6719 128.6,1308.0938 Q129.6625,1307.5 130.85,1307.5 Q131.5688,1307.5 132.1938,1307.75 Q132.8188,1308 133.35,1308.5 Z " fill="#000000"/><text fill="#000000" font-family="sans-serif" font-size="12" lengthAdjust="spacing" textLength="37" x="145.65" y="1316.9102">Report</text><line style="stroke:#A80036;stroke-width:1.5;" x1="116" x2="186" y1="1328" y2="1328"/><rect fill="none" height="6" style="stroke:#C82930;stroke-width:1.0;" width="6" x="123" y="1336"/><text fill="#000000" font-family="sans-serif" font-size="11" lengthAdjust="spacing" textLength="46" x="135" y="1343.4189">diagnosis</text><rect fill="none" height="6" style="stroke:#C82930;stroke-width:1.0;" width="6" x="123" y="1349.8359"/><text fill="#000000" font-family="sans-serif" font-size="11" lengthAdjust="spacing" textLength="33" x="135" y="1357.2549">results</text><line style="stroke:#A80036;stroke-width:1.5;" x1="116" x2="186" y1="1363.6719" y2="1363.6719"/><!--MD5=[9681492165142af2a4a3a169d90ee8d4]
class Sample--><rect codeLine="47" fill="#FEFECE" filter="url(#fdx7153b9f4n6)" height="61.8359" id="Sample" style="stroke:#A80036;stroke-width:1.5;" width="75" x="658.5" y="693.5"/><ellipse cx="673.5" cy="709.5" fill="#ADD1B2" rx="11" ry="11" style="stroke:#A80036;stroke-width:1.0;"/><path d="M675.5,706 Q675.7031,705.5 675.9375,705.25 Q676.1719,705 676.4375,705 Q676.9063,705 677.2031,705.2813 Q677.5,705.5625 677.5,706.2188 L677.5,707.7813 Q677.5,708.4375 677.2188,708.7188 Q676.9375,709 676.5,709 Q676.1094,709 675.8594,708.8281 Q675.6094,708.6563 675.5,708.2031 Q675.4531,707.8906 675.2813,707.7188 Q674.9688,707.3906 674.4063,707.2031 Q673.8438,707 673.2813,707 Q672.5781,707 671.9844,707.2813 Q671.4063,707.5625 670.9531,708.1875 Q670.5,708.8125 670.5,709.6719 L670.5,710.5938 Q670.5,711.625 671.3438,712.3125 Q672.1875,713 673.6875,713 Q674.5781,713 675.2031,712.7969 Q675.5625,712.6875 675.9688,712.3281 Q676.2344,712.125 676.375,712.0625 Q676.5156,712 676.6875,712 Q677.0156,712 677.25,712.2656 Q677.5,712.5156 677.5,712.875 Q677.5,713.2188 677.1563,713.625 Q676.6563,714.2188 675.8594,714.5469 Q674.8125,715 673.5313,715 Q672.0313,715 670.8281,714.4063 Q669.8594,713.9375 669.1719,712.9219 Q668.5,711.9063 668.5,710.7031 L668.5,709.6094 Q668.5,708.3594 669.0938,707.2656 Q669.7031,706.1719 670.75,705.5938 Q671.8125,705 673,705 Q673.7188,705 674.3438,705.25 Q674.9688,705.5 675.5,706 Z " fill="#000000"/><text fill="#000000" font-family="sans-serif" font-size="12" lengthAdjust="spacing" textLength="43" x="687.5" y="714.4102">Sample</text><line style="stroke:#A80036;stroke-width:1.5;" x1="659.5" x2="732.5" y1="725.5" y2="725.5"/><rect fill="none" height="6" style="stroke:#C82930;stroke-width:1.0;" width="6" x="666.5" y="733.5"/><text fill="#000000" font-family="sans-serif" font-size="11" lengthAdjust="spacing" textLength="40" x="678.5" y="740.9189">barcode</text><line style="stroke:#A80036;stroke-width:1.5;" x1="659.5" x2="732.5" y1="747.3359" y2="747.3359"/><!--MD5=[f69a48f7b38bde3533dca6607cc4e94a]
class TypeOfTest--><rect fill="#FEFECE" filter="url(#fdx7153b9f4n6)" height="48" id="TypeOfTest" style="stroke:#A80036;stroke-width:1.5;" width="94" x="1264" y="209"/><ellipse cx="1279" cy="225" fill="#ADD1B2" rx="11" ry="11" style="stroke:#A80036;stroke-width:1.0;"/><path d="M1281,221.5 Q1281.2031,221 1281.4375,220.75 Q1281.6719,220.5 1281.9375,220.5 Q1282.4063,220.5 1282.7031,220.7813 Q1283,221.0625 1283,221.7188 L1283,223.2813 Q1283,223.9375 1282.7188,224.2188 Q1282.4375,224.5 1282,224.5 Q1281.6094,224.5 1281.3594,224.3281 Q1281.1094,224.1563 1281,223.7031 Q1280.9531,223.3906 1280.7813,223.2188 Q1280.4688,222.8906 1279.9063,222.7031 Q1279.3438,222.5 1278.7813,222.5 Q1278.0781,222.5 1277.4844,222.7813 Q1276.9063,223.0625 1276.4531,223.6875 Q1276,224.3125 1276,225.1719 L1276,226.0938 Q1276,227.125 1276.8438,227.8125 Q1277.6875,228.5 1279.1875,228.5 Q1280.0781,228.5 1280.7031,228.2969 Q1281.0625,228.1875 1281.4688,227.8281 Q1281.7344,227.625 1281.875,227.5625 Q1282.0156,227.5 1282.1875,227.5 Q1282.5156,227.5 1282.75,227.7656 Q1283,228.0156 1283,228.375 Q1283,228.7188 1282.6563,229.125 Q1282.1563,229.7188 1281.3594,230.0469 Q1280.3125,230.5 1279.0313,230.5 Q1277.5313,230.5 1276.3281,229.9063 Q1275.3594,229.4375 1274.6719,228.4219 Q1274,227.4063 1274,226.2031 L1274,225.1094 Q1274,223.8594 1274.5938,222.7656 Q1275.2031,221.6719 1276.25,221.0938 Q1277.3125,220.5 1278.5,220.5 Q1279.2188,220.5 1279.8438,220.75 Q1280.4688,221 1281,221.5 Z " fill="#000000"/><text fill="#000000" font-family="sans-serif" font-size="12" lengthAdjust="spacing" textLength="62" x="1293" y="229.9102">TypeOfTest</text><line style="stroke:#A80036;stroke-width:1.5;" x1="1265" x2="1357" y1="241" y2="241"/><line style="stroke:#A80036;stroke-width:1.5;" x1="1265" x2="1357" y1="249" y2="249"/><!--MD5=[a96594a83e2ecdc78cbf17c2ddf01934]
class Category--><rect codeLine="100" fill="#FEFECE" filter="url(#fdx7153b9f4n6)" height="89.5078" id="Category" style="stroke:#A80036;stroke-width:1.5;" width="86" x="745" y="813"/><ellipse cx="762.25" cy="829" fill="#ADD1B2" rx="11" ry="11" style="stroke:#A80036;stroke-width:1.0;"/><path d="M764.25,825.5 Q764.4531,825 764.6875,824.75 Q764.9219,824.5 765.1875,824.5 Q765.6563,824.5 765.9531,824.7813 Q766.25,825.0625 766.25,825.7188 L766.25,827.2813 Q766.25,827.9375 765.9688,828.2188 Q765.6875,828.5 765.25,828.5 Q764.8594,828.5 764.6094,828.3281 Q764.3594,828.1563 764.25,827.7031 Q764.2031,827.3906 764.0313,827.2188 Q763.7188,826.8906 763.1563,826.7031 Q762.5938,826.5 762.0313,826.5 Q761.3281,826.5 760.7344,826.7813 Q760.1563,827.0625 759.7031,827.6875 Q759.25,828.3125 759.25,829.1719 L759.25,830.0938 Q759.25,831.125 760.0938,831.8125 Q760.9375,832.5 762.4375,832.5 Q763.3281,832.5 763.9531,832.2969 Q764.3125,832.1875 764.7188,831.8281 Q764.9844,831.625 765.125,831.5625 Q765.2656,831.5 765.4375,831.5 Q765.7656,831.5 766,831.7656 Q766.25,832.0156 766.25,832.375 Q766.25,832.7188 765.9063,833.125 Q765.4063,833.7188 764.6094,834.0469 Q763.5625,834.5 762.2813,834.5 Q760.7813,834.5 759.5781,833.9063 Q758.6094,833.4375 757.9219,832.4219 Q757.25,831.4063 757.25,830.2031 L757.25,829.1094 Q757.25,827.8594 757.8438,826.7656 Q758.4531,825.6719 759.5,825.0938 Q760.5625,824.5 761.75,824.5 Q762.4688,824.5 763.0938,824.75 Q763.7188,825 764.25,825.5 Z " fill="#000000"/><text fill="#000000" font-family="sans-serif" font-size="12" lengthAdjust="spacing" textLength="49" x="776.75" y="833.9102">Category</text><line style="stroke:#A80036;stroke-width:1.5;" x1="746" x2="830" y1="845" y2="845"/><rect fill="none" height="6" style="stroke:#C82930;stroke-width:1.0;" width="6" x="753" y="853"/><text fill="#000000" font-family="sans-serif" font-size="11" lengthAdjust="spacing" textLength="26" x="765" y="860.4189">nhsId</text><rect fill="none" height="6" style="stroke:#C82930;stroke-width:1.0;" width="6" x="753" y="866.8359"/><text fill="#000000" font-family="sans-serif" font-size="11" lengthAdjust="spacing" textLength="60" x="765" y="874.2549">internalCode</text><rect fill="none" height="6" style="stroke:#C82930;stroke-width:1.0;" width="6" x="753" y="880.6719"/><text fill="#000000" font-family="sans-serif" font-size="11" lengthAdjust="spacing" textLength="53" x="765" y="888.0908">description</text><line style="stroke:#A80036;stroke-width:1.5;" x1="746" x2="830" y1="894.5078" y2="894.5078"/><!--MD5=[1f6362a5c8f21d8d6a0fce68f3a92a4e]
class Parameter--><rect fill="#FEFECE" filter="url(#fdx7153b9f4n6)" height="48" id="Parameter" style="stroke:#A80036;stroke-width:1.5;" width="90" x="772" y="1163"/><ellipse cx="787" cy="1179" fill="#ADD1B2" rx="11" ry="11" style="stroke:#A80036;stroke-width:1.0;"/><path d="M789,1175.5 Q789.2031,1175 789.4375,1174.75 Q789.6719,1174.5 789.9375,1174.5 Q790.4063,1174.5 790.7031,1174.7813 Q791,1175.0625 791,1175.7188 L791,1177.2813 Q791,1177.9375 790.7188,1178.2188 Q790.4375,1178.5 790,1178.5 Q789.6094,1178.5 789.3594,1178.3281 Q789.1094,1178.1563 789,1177.7031 Q788.9531,1177.3906 788.7813,1177.2188 Q788.4688,1176.8906 787.9063,1176.7031 Q787.3438,1176.5 786.7813,1176.5 Q786.0781,1176.5 785.4844,1176.7813 Q784.9063,1177.0625 784.4531,1177.6875 Q784,1178.3125 784,1179.1719 L784,1180.0938 Q784,1181.125 784.8438,1181.8125 Q785.6875,1182.5 787.1875,1182.5 Q788.0781,1182.5 788.7031,1182.2969 Q789.0625,1182.1875 789.4688,1181.8281 Q789.7344,1181.625 789.875,1181.5625 Q790.0156,1181.5 790.1875,1181.5 Q790.5156,1181.5 790.75,1181.7656 Q791,1182.0156 791,1182.375 Q791,1182.7188 790.6563,1183.125 Q790.1563,1183.7188 789.3594,1184.0469 Q788.3125,1184.5 787.0313,1184.5 Q785.5313,1184.5 784.3281,1183.9063 Q783.3594,1183.4375 782.6719,1182.4219 Q782,1181.4063 782,1180.2031 L782,1179.1094 Q782,1177.8594 782.5938,1176.7656 Q783.2031,1175.6719 784.25,1175.0938 Q785.3125,1174.5 786.5,1174.5 Q787.2188,1174.5 787.8438,1174.75 Q788.4688,1175 789,1175.5 Z " fill="#000000"/><text fill="#000000" font-family="sans-serif" font-size="12" lengthAdjust="spacing" textLength="58" x="801" y="1183.9102">Parameter</text><line style="stroke:#A80036;stroke-width:1.5;" x1="773" x2="861" y1="1195" y2="1195"/><line style="stroke:#A80036;stroke-width:1.5;" x1="773" x2="861" y1="1203" y2="1203"/><!--MD5=[09366576ee87d48d594df10cacc83f45]
link Company to Employee--><path codeLine="5" d="M945.92,83.15 C880.9,140.56 756.48,250.42 688.75,310.23 " fill="none" id="Company-Employee" style="stroke:#A80036;stroke-width:1.0;"/><polygon fill="#000000" points="856.252,173.4852,864.9774,169.7014,861.0869,165.2954,856.252,173.4852" style="stroke:#000000;stroke-width:1.0;"/><text fill="#000000" font-family="sans-serif" font-size="13" lengthAdjust="spacing" textLength="21" x="869" y="175.4951">has</text><text fill="#000000" font-family="sans-serif" font-size="13" lengthAdjust="spacing" textLength="7" x="930.5162" y="86.2667">1</text><text fill="#000000" font-family="sans-serif" font-size="13" lengthAdjust="spacing" textLength="20" x="696.3758" y="300.9927">1..*</text><!--MD5=[6eee883fdf517d3604e8bd0f2058e9aa]
link Company to Client--><path codeLine="6" d="M1030.54,68.73 C1063.64,89.85 1104,124.68 1104,169 C1104,169 1104,169 1104,613 C1104,744.71 1092.89,781.1 1043,903 C1038.01,915.2 1031.53,927.54 1024.61,939.22 " fill="none" id="Company-Client" style="stroke:#A80036;stroke-width:1.0;"/><polygon fill="#000000" points="1108.9659,462.1757,1111.9664,453.1508,1106.0887,453.1108,1108.9659,462.1757" style="stroke:#000000;stroke-width:1.0;"/><text fill="#000000" font-family="sans-serif" font-size="13" lengthAdjust="spacing" textLength="21" x="1118" y="462.4951">has</text><text fill="#000000" font-family="sans-serif" font-size="13" lengthAdjust="spacing" textLength="7" x="1038.4531" y="68.9871">1</text><text fill="#000000" font-family="sans-serif" font-size="13" lengthAdjust="spacing" textLength="5" x="1032.4369" y="924.9166">*</text><!--MD5=[14425c86e1e95c36a97a680926c42ff4]
link Company to ClinicalAnalysisLab--><path codeLine="7" d="M945.21,54.07 C852,74.23 631.81,136.38 542,287 C471.05,405.99 507,577.53 533.39,665.96 " fill="none" id="Company-ClinicalAnalysisLab" style="stroke:#A80036;stroke-width:1.0;"/><polygon fill="#000000" points="544.2083,356.8238,551.6967,350.9609,546.8204,347.679,544.2083,356.8238" style="stroke:#000000;stroke-width:1.0;"/><text fill="#000000" font-family="sans-serif" font-size="13" lengthAdjust="spacing" textLength="21" x="556" y="357.9951">has</text><text fill="#000000" font-family="sans-serif" font-size="13" lengthAdjust="spacing" textLength="7" x="930.5432" y="51.7986">1</text><text fill="#000000" font-family="sans-serif" font-size="13" lengthAdjust="spacing" textLength="20" x="516.9597" y="657.4684">1..*</text><!--MD5=[aec61b37063dcc4feef1443d9e69d5e6]
link MedicalLabTechnician to ClinicalAnalysisLab--><path codeLine="8" d="M615.64,551.22 C605.36,561.55 594.3,574.44 587,588 C574.12,611.92 566.01,640.84 560.95,665.82 " fill="none" id="MedicalLabTechnician-ClinicalAnalysisLab" style="stroke:#A80036;stroke-width:1.0;"/><polygon fill="#000000" points="589.8465,616.6883,596.3946,609.7909,591.0898,607.2593,589.8465,616.6883" style="stroke:#000000;stroke-width:1.0;"/><text fill="#000000" font-family="sans-serif" font-size="13" lengthAdjust="spacing" textLength="49" x="601" y="617.4951">works at</text><text fill="#000000" font-family="sans-serif" font-size="13" lengthAdjust="spacing" textLength="5" x="603.6054" y="572.6116">*</text><text fill="#000000" font-family="sans-serif" font-size="13" lengthAdjust="spacing" textLength="7" x="554.4923" y="655.199">1</text><!--MD5=[7d30f8f3abaed36f92dd290c34044a79]
link Receptionist to TestRequest--><path codeLine="9" d="M917.91,551.19 C933.62,584.57 962.77,646.5 981.5,686.31 " fill="none" id="Receptionist-TestRequest" style="stroke:#A80036;stroke-width:1.0;"/><polygon fill="#000000" points="962.1291,616.6998,960.9367,607.2643,955.6184,609.7672,962.1291,616.6998" style="stroke:#000000;stroke-width:1.0;"/><text fill="#000000" font-family="sans-serif" font-size="13" lengthAdjust="spacing" textLength="70" x="969" y="617.4951">register new</text><text fill="#000000" font-family="sans-serif" font-size="13" lengthAdjust="spacing" textLength="7" x="912.7162" y="572.5743">1</text><text fill="#000000" font-family="sans-serif" font-size="13" lengthAdjust="spacing" textLength="5" x="972.9375" y="675.6381">*</text><!--MD5=[b371c21dc35e87865816b4144f976f0b]
link Headquarter to ChemicalLab--><path codeLine="10" d="M264.49,755.74 C276.19,791.65 297.56,852.99 322,903 C330.34,920.07 340.7,937.98 350.54,953.92 " fill="none" id="Headquarter-ChemicalLab" style="stroke:#A80036;stroke-width:1.0;"/><polygon fill="#000000" points="328.9914,862.7621,328.0847,853.2949,322.6932,855.6359,328.9914,862.7621" style="stroke:#000000;stroke-width:1.0;"/><text fill="#000000" font-family="sans-serif" font-size="13" lengthAdjust="spacing" textLength="21" x="336" y="863.4951">has</text><text fill="#000000" font-family="sans-serif" font-size="13" lengthAdjust="spacing" textLength="7" x="258.6318" y="776.7644">1</text><text fill="#000000" font-family="sans-serif" font-size="13" lengthAdjust="spacing" textLength="7" x="338.3425" y="943.0372">1</text><!--MD5=[b266d3d862fa7340fde466c43f1e27c4]
link Company to Headquarter--><path codeLine="11" d="M945.29,47.97 C778.86,56.21 183,91.15 183,169 C183,169 183,169 183,528 C183,589.67 214.94,655.91 236.27,693.28 " fill="none" id="Company-Headquarter" style="stroke:#A80036;stroke-width:1.0;"/><polygon fill="#000000" points="184.3022,356.0413,192.9697,352.1265,189.0134,347.7795,184.3022,356.0413" style="stroke:#000000;stroke-width:1.0;"/><text fill="#000000" font-family="sans-serif" font-size="13" lengthAdjust="spacing" textLength="30" x="197" y="357.9951">owns</text><text fill="#000000" font-family="sans-serif" font-size="13" lengthAdjust="spacing" textLength="7" x="930.6365" y="63.3383">1</text><text fill="#000000" font-family="sans-serif" font-size="13" lengthAdjust="spacing" textLength="7" x="224.6851" y="682.7392">1</text><!--MD5=[6a35157f4c730bda767e7c9f1b8b7f73]
link Receptionist to Client--><path codeLine="12" d="M900.67,551.37 C885.49,611.83 851.6,777.47 898,903 C903.92,919.02 911.4,919.61 922,933 C925.03,936.83 928.15,940.79 931.3,944.77 " fill="none" id="Receptionist-Client" style="stroke:#A80036;stroke-width:1.0;"/><polygon fill="#000000" points="884.3881,729.6607,886.6161,720.4148,880.7559,720.871,884.3881,729.6607" style="stroke:#000000;stroke-width:1.0;"/><text fill="#000000" font-family="sans-serif" font-size="13" lengthAdjust="spacing" textLength="21" x="893" y="729.9951">add</text><text fill="#000000" font-family="sans-serif" font-size="13" lengthAdjust="spacing" textLength="20" x="876.8937" y="572.3913">1..*</text><text fill="#000000" font-family="sans-serif" font-size="13" lengthAdjust="spacing" textLength="5" x="918.4587" y="931.3511">*</text><!--MD5=[8c76900db13228c02bafda6909b4bb57]
reverse link Employee to MedicalLabTechnician--><path codeLine="13" d="M642,438.39 C642,462.09 642,485.93 642,502.75 " fill="none" id="Employee-backto-MedicalLabTechnician" style="stroke:#A80036;stroke-width:1.0;"/><polygon fill="none" points="635,438.22,642,418.22,649,438.22,635,438.22" style="stroke:#A80036;stroke-width:1.0;"/><!--MD5=[4c7c52c4bf7e982cdae6fb6daeda4b43]
reverse link Employee to ClinicalChemistryTechnologist--><path codeLine="14" d="M581.84,420.27 C532.17,475.4 464.56,550.45 430.87,587.84 " fill="none" id="Employee-backto-ClinicalChemistryTechnologist" style="stroke:#A80036;stroke-width:1.0;"/><polygon fill="none" points="576.74,415.47,595.33,405.3,587.14,424.84,576.74,415.47" style="stroke:#A80036;stroke-width:1.0;"/><!--MD5=[bfff716514ca687b645fe473c6e098a4]
reverse link Employee to Receptionist--><path codeLine="15" d="M705.55,394.87 C757.45,428.65 828.92,475.18 871.31,502.76 " fill="none" id="Employee-backto-Receptionist" style="stroke:#A80036;stroke-width:1.0;"/><polygon fill="none" points="701.71,400.72,688.77,383.94,709.35,388.99,701.71,400.72" style="stroke:#A80036;stroke-width:1.0;"/><!--MD5=[4cbb49bc85e2ab987c72a0867e9e1f75]
reverse link Employee to LabCoordinator--><path codeLine="16" d="M576.08,374.03 C465.03,408.84 249.63,477.51 218,496 C165.3,526.81 145.82,534.73 116,588 C70.29,669.65 65.32,784.93 65.46,833.73 " fill="none" id="Employee-backto-LabCoordinator" style="stroke:#A80036;stroke-width:1.0;"/><polygon fill="none" points="574.03,367.33,595.21,368.04,578.21,380.69,574.03,367.33" style="stroke:#A80036;stroke-width:1.0;"/><!--MD5=[6e3b9fc76a32d9309eb453fa3b67d6a7]
reverse link Employee to Admin--><path codeLine="17" d="M701.53,423.84 C725.3,451.91 751.03,482.33 768.19,502.6 " fill="none" id="Employee-backto-Admin" style="stroke:#A80036;stroke-width:1.0;"/><polygon fill="none" points="696.17,428.34,688.6,408.55,706.86,419.3,696.17,428.34" style="stroke:#A80036;stroke-width:1.0;"/><!--MD5=[372bd27a178b4208a6d241b4516ac7e6]
reverse link Employee to SpecialistDoctor--><path codeLine="18" d="M578.17,393.71 C540.94,416.34 492.65,444.33 448,466 C419.07,480.04 385.96,493.48 358.13,504.06 " fill="none" id="Employee-backto-SpecialistDoctor" style="stroke:#A80036;stroke-width:1.0;"/><polygon fill="none" points="574.52,387.73,595.23,383.24,581.84,399.67,574.52,387.73" style="stroke:#A80036;stroke-width:1.0;"/><!--MD5=[cdd20ac1d186716af46e8af7bcea5da1]
link ClinicalChemistryTechnologist to ChemicalLab--><path codeLine="19" d="M405.46,636.14 C403.81,645.39 402.08,656.17 401,666 C389.84,767.77 386,887.58 384.68,953.88 " fill="none" id="ClinicalChemistryTechnologist-ChemicalLab" style="stroke:#A80036;stroke-width:1.0;"/><polygon fill="#000000" points="405.6737,729.6651,409.1966,720.8311,403.3313,720.4475,405.6737,729.6651" style="stroke:#000000;stroke-width:1.0;"/><text fill="#000000" font-family="sans-serif" font-size="13" lengthAdjust="spacing" textLength="49" x="415" y="729.9951">works at</text><text fill="#000000" font-family="sans-serif" font-size="13" lengthAdjust="spacing" textLength="5" x="398.744" y="657.5121">*</text><text fill="#000000" font-family="sans-serif" font-size="13" lengthAdjust="spacing" textLength="7" x="377.2834" y="942.9916">1</text><!--MD5=[9163865a413f55935f47e026f9eaa033]
link Test to Result--><path codeLine="20" d="M1109.8,1057.46 C1087.82,1089.28 1060.27,1129.15 1041.74,1155.98 " fill="none" id="Test-Result" style="stroke:#A80036;stroke-width:1.0;"/><polygon fill="#000000" points="1073.1581,1121.2896,1080.7172,1115.5181,1075.8811,1112.1772,1073.1581,1121.2896" style="stroke:#000000;stroke-width:1.0;"/><text fill="#000000" font-family="sans-serif" font-size="13" lengthAdjust="spacing" textLength="21" x="1085" y="1122.4951">has</text><text fill="#000000" font-family="sans-serif" font-size="13" lengthAdjust="spacing" textLength="7" x="1097.5997" y="1079.0128">1</text><text fill="#000000" font-family="sans-serif" font-size="13" lengthAdjust="spacing" textLength="7" x="1038.5113" y="1144.9959">1</text><!--MD5=[f69d60ea8837fe480b3d46f1ba8504b2]
link Result to Report--><path codeLine="21" d="M983.41,1196.57 C955.06,1202.89 915.19,1211.49 880,1218 C615.11,1267.04 293.6,1313.1 187.15,1327.99 " fill="none" id="Result-Report" style="stroke:#A80036;stroke-width:1.0;"/><polygon fill="#000000" points="700.0667,1257.99,709.4697,1259.4168,708.5125,1253.6174,700.0667,1257.99" style="stroke:#000000;stroke-width:1.0;"/><text fill="#000000" font-family="sans-serif" font-size="13" lengthAdjust="spacing" textLength="21" x="714" y="1262.4951">has</text><text fill="#000000" font-family="sans-serif" font-size="13" lengthAdjust="spacing" textLength="7" x="968.5772" y="1194.4135">1</text><text fill="#000000" font-family="sans-serif" font-size="13" lengthAdjust="spacing" textLength="7" x="194.9561" y="1322.7938">1</text><!--MD5=[0a29b4543c1af9e8341b856b8b8ec05c]
link MedicalLabTechnician to Sample--><path codeLine="22" d="M648.41,551.19 C658.18,586.59 676.83,654.11 687.66,693.3 " fill="none" id="MedicalLabTechnician-Sample" style="stroke:#A80036;stroke-width:1.0;"/><polygon fill="#000000" points="676.3311,616.9953,676.756,607.4943,671.0902,609.0591,676.3311,616.9953" style="stroke:#000000;stroke-width:1.0;"/><text fill="#000000" font-family="sans-serif" font-size="13" lengthAdjust="spacing" textLength="38" x="684" y="617.4951">collect</text><text fill="#000000" font-family="sans-serif" font-size="13" lengthAdjust="spacing" textLength="7" x="642.1193" y="572.5743">1</text><text fill="#000000" font-family="sans-serif" font-size="13" lengthAdjust="spacing" textLength="5" x="680.4242" y="682.7633">*</text><!--MD5=[1ae83efc6d1967ce5bc17dfe294d00c2]
link Sample to Test--><path codeLine="23" d="M733.78,743.74 C765.77,759.96 812.18,785.34 849,813 C894.99,847.55 892.38,873.91 942,903 C982.03,926.47 1000.2,912.85 1042,933 C1054.26,938.91 1066.67,946.19 1078.43,953.83 " fill="none" id="Sample-Test" style="stroke:#A80036;stroke-width:1.0;"/><polygon fill="#000000" points="942.7307,855.5733,948.9243,862.7907,951.9837,857.7718,942.7307,855.5733" style="stroke:#000000;stroke-width:1.0;"/><text fill="#000000" font-family="sans-serif" font-size="13" lengthAdjust="spacing" textLength="21" x="956" y="863.4951">has</text><text fill="#000000" font-family="sans-serif" font-size="13" lengthAdjust="spacing" textLength="7" x="741.391" y="743.355">1</text><text fill="#000000" font-family="sans-serif" font-size="13" lengthAdjust="spacing" textLength="7" x="1062.0143" y="943.3075">1</text><!--MD5=[147acf42fe9475025d9b6f56a55be7cf]
link Company to TypeOfTest--><path codeLine="24" d="M1030.68,46 C1087.72,48.17 1189.11,59.94 1254,113 C1283.97,137.51 1299.21,181.52 1306.11,208.6 " fill="none" id="Company-TypeOfTest" style="stroke:#A80036;stroke-width:1.0;"/><polygon fill="#000000" points="1278.3057,124.7176,1272.0107,117.5886,1269.0226,122.6502,1278.3057,124.7176" style="stroke:#000000;stroke-width:1.0;"/><text fill="#000000" font-family="sans-serif" font-size="13" lengthAdjust="spacing" textLength="46" x="1283" y="127.4951">conduct</text><text fill="#000000" font-family="sans-serif" font-size="13" lengthAdjust="spacing" textLength="7" x="1038.6172" y="42.3504">1</text><text fill="#000000" font-family="sans-serif" font-size="13" lengthAdjust="spacing" textLength="20" x="1282.4806" y="198.2405">1..*</text><!--MD5=[7e4bc624457760b649895ff2ead938fa]
link Company to Test--><path codeLine="25" d="M1030.63,48.88 C1099.6,56.1 1228,81.33 1228,169 C1228,169 1228,169 1228,725.5 C1228,808.13 1194.14,899.01 1169.68,953.91 " fill="none" id="Company-Test" style="stroke:#A80036;stroke-width:1.0;"/><polygon fill="#000000" points="1233.7593,462.1178,1235.2906,452.7313,1229.4809,453.6239,1233.7593,462.1178" style="stroke:#000000;stroke-width:1.0;"/><text fill="#000000" font-family="sans-serif" font-size="13" lengthAdjust="spacing" textLength="43" x="1242" y="462.4951">perform</text><text fill="#000000" font-family="sans-serif" font-size="13" lengthAdjust="spacing" textLength="7" x="1038.5586" y="45.7254">1</text><text fill="#000000" font-family="sans-serif" font-size="13" lengthAdjust="spacing" textLength="5" x="1167.7991" y="943.0258">*</text><!--MD5=[eb5d020da4a8abda6c8fee8c17e543d5]
link TestRequest to Client--><path codeLine="26" d="M996.21,762.55 C992.95,805.83 987.49,878.44 983.39,932.85 " fill="none" id="TestRequest-Client" style="stroke:#A80036;stroke-width:1.0;"/><polygon fill="#000000" points="997.3753,853.1899,993.7657,861.9888,999.627,862.4301,997.3753,853.1899" style="stroke:#000000;stroke-width:1.0;"/><text fill="#000000" font-family="sans-serif" font-size="13" lengthAdjust="spacing" textLength="28" x="1006" y="863.4951">does</text><text fill="#000000" font-family="sans-serif" font-size="13" lengthAdjust="spacing" textLength="20" x="974.0917" y="783.7284">1..*</text><text fill="#000000" font-family="sans-serif" font-size="13" lengthAdjust="spacing" textLength="7" x="976.5849" y="922.0539">1</text><!--MD5=[35c5d5b78cc27fdb07caaeeaa436e174]
link SpecialistDoctor to Report--><path codeLine="27" d="M244.85,558.22 C233.49,566.7 222.38,576.73 214,588 C173.01,643.16 151,840.49 151,857 C151,857 151,857 151,1188 C151,1224.63 151,1266.46 151,1295.75 " fill="none" id="SpecialistDoctor-Report" style="stroke:#A80036;stroke-width:1.0;"/><polygon fill="#000000" points="155.3688,1010.6358,159.426,1002.034,153.5952,1001.2921,155.3688,1010.6358" style="stroke:#000000;stroke-width:1.0;"/><text fill="#000000" font-family="sans-serif" font-size="13" lengthAdjust="spacing" textLength="27" x="165" y="1010.9951">write</text><text fill="#000000" font-family="sans-serif" font-size="13" lengthAdjust="spacing" textLength="7" x="227.2417" y="579.2406">1</text><text fill="#000000" font-family="sans-serif" font-size="13" lengthAdjust="spacing" textLength="5" x="145.5547" y="1285.0674">*</text><!--MD5=[2ded9192613987fa000e760ddf3204eb]
link SpecialistDoctor to Headquarter--><path codeLine="28" d="M251.11,558.02 C241.76,566.51 233.2,576.59 228,588 C212.44,622.16 225.99,665.19 238.88,693.48 " fill="none" id="SpecialistDoctor-Headquarter" style="stroke:#A80036;stroke-width:1.0;"/><polygon fill="#000000" points="232.5504,617.1555,236.2908,608.4113,230.4367,607.8828,232.5504,617.1555" style="stroke:#000000;stroke-width:1.0;"/><text fill="#000000" font-family="sans-serif" font-size="13" lengthAdjust="spacing" textLength="49" x="242" y="617.4951">works at</text><text fill="#000000" font-family="sans-serif" font-size="13" lengthAdjust="spacing" textLength="20" x="244.0442" y="579.2479">1..*</text><text fill="#000000" font-family="sans-serif" font-size="13" lengthAdjust="spacing" textLength="7" x="236.1194" y="682.4959">1</text><!--MD5=[c45432859f1f1ff7ddc1c460e047abcd]
link Sample to ChemicalLab--><path codeLine="29" d="M668.27,755.58 C659.7,764.58 650.12,774.34 641,783 C573.08,847.49 490.39,917.31 437.48,960.97 " fill="none" id="Sample-ChemicalLab" style="stroke:#A80036;stroke-width:1.0;"/><polygon fill="#000000" points="615.7351,854.8518,607.0244,858.6695,610.9321,863.0604,615.7351,854.8518" style="stroke:#000000;stroke-width:1.0;"/><text fill="#000000" font-family="sans-serif" font-size="13" lengthAdjust="spacing" textLength="30" x="621" y="863.4951">owns</text><text fill="#000000" font-family="sans-serif" font-size="13" lengthAdjust="spacing" textLength="5" x="657.3185" y="776.8197">*</text><text fill="#000000" font-family="sans-serif" font-size="13" lengthAdjust="spacing" textLength="7" x="445.1367" y="951.4069">1</text><!--MD5=[816217ef3f85df4b873a3bf15588a55e]
link LabCoordinator to Report--><path codeLine="30" d="M63.17,882.15 C58.09,928.82 49.52,1037.32 67,1126 C79.26,1188.21 110.13,1255.4 130.83,1295.82 " fill="none" id="LabCoordinator-Report" style="stroke:#A80036;stroke-width:1.0;"/><polygon fill="#000000" points="72.8071,1122.1102,74.2474,1112.7094,68.4467,1113.6581,72.8071,1122.1102" style="stroke:#000000;stroke-width:1.0;"/><text fill="#000000" font-family="sans-serif" font-size="13" lengthAdjust="spacing" textLength="43" x="81" y="1122.4951">validate</text><text fill="#000000" font-family="sans-serif" font-size="13" lengthAdjust="spacing" textLength="7" x="54.6271" y="903.5245">1</text><text fill="#000000" font-family="sans-serif" font-size="13" lengthAdjust="spacing" textLength="5" x="121.7919" y="1285.1498">*</text><!--MD5=[97a6250f97b3c184d5748e963b8476dd]
link TestRequest to Test--><path codeLine="31" d="M1018.39,762.55 C1044.1,811.69 1089.59,898.62 1118.47,953.81 " fill="none" id="TestRequest-Test" style="stroke:#A80036;stroke-width:1.0;"/><polygon fill="#000000" points="1096.3181,862.6059,1094.7286,853.2291,1089.5206,855.9543,1096.3181,862.6059" style="stroke:#000000;stroke-width:1.0;"/><text fill="#000000" font-family="sans-serif" font-size="13" lengthAdjust="spacing" textLength="56" x="1103" y="863.4951">originates</text><text fill="#000000" font-family="sans-serif" font-size="13" lengthAdjust="spacing" textLength="7" x="1014.0218" y="783.7284">1</text><text fill="#000000" font-family="sans-serif" font-size="13" lengthAdjust="spacing" textLength="7" x="1107.4347" y="943.2848">1</text><!--MD5=[931ad38b9a68f32f6de86a1f4d14d251]
link TypeOfTest to Test--><path codeLine="32" d="M1311.86,257.01 C1313.29,297.31 1316,383.33 1316,456 C1316,456 1316,456 1316,725.5 C1316,809.06 1299.69,833.04 1254,903 C1241.98,921.4 1225.93,938.77 1209.84,953.77 " fill="none" id="TypeOfTest-Test" style="stroke:#A80036;stroke-width:1.0;"/><polygon fill="#000000" points="1321.7244,522.2285,1317.506,530.7524,1323.3219,531.604,1321.7244,522.2285" style="stroke:#000000;stroke-width:1.0;"/><text fill="#000000" font-family="sans-serif" font-size="13" lengthAdjust="spacing" textLength="21" x="1330" y="532.4951">has</text><text fill="#000000" font-family="sans-serif" font-size="13" lengthAdjust="spacing" textLength="7" x="1304.2165" y="278.3504">1</text><text fill="#000000" font-family="sans-serif" font-size="13" lengthAdjust="spacing" textLength="7" x="1211.0826" y="943.2394">1</text><!--MD5=[e1157d990c71223888f6eba0861fc13e]
link Admin to Category--><path codeLine="33" d="M786.58,551.07 C785.96,562.22 785.3,575.8 785,588 C783.02,667.14 784.98,759.41 786.53,812.73 " fill="none" id="Admin-Category" style="stroke:#A80036;stroke-width:1.0;"/><polygon fill="#000000" points="789.999,617.1758,792.9397,608.1313,787.0618,608.1301,789.999,617.1758" style="stroke:#000000;stroke-width:1.0;"/><text fill="#000000" font-family="sans-serif" font-size="13" lengthAdjust="spacing" textLength="63" x="799" y="617.4951">create new</text><text fill="#000000" font-family="sans-serif" font-size="13" lengthAdjust="spacing" textLength="20" x="763.7964" y="572.425">1..*</text><text fill="#000000" font-family="sans-serif" font-size="13" lengthAdjust="spacing" textLength="5" x="780.9221" y="802.1327">*</text><!--MD5=[9e2b536d5f14dafa66c4d5113ebdcad2]
link Category to Parameter--><path codeLine="34" d="M791.37,903.07 C794.81,947.31 800.42,1017.41 806,1078 C808.69,1107.28 812.19,1140.98 814.51,1162.84 " fill="none" id="Category-Parameter" style="stroke:#A80036;stroke-width:1.0;"/><polygon fill="#000000" points="810.5564,1000.6955,808.4316,1009.9657,814.2862,1009.4441,810.5564,1000.6955" style="stroke:#000000;stroke-width:1.0;"/><text fill="#000000" font-family="sans-serif" font-size="13" lengthAdjust="spacing" textLength="93" x="820" y="1010.9951">presented under</text><text fill="#000000" font-family="sans-serif" font-size="13" lengthAdjust="spacing" textLength="7" x="784.3517" y="924.0874">1</text><text fill="#000000" font-family="sans-serif" font-size="13" lengthAdjust="spacing" textLength="5" x="808.2313" y="1152.1392">*</text><!--MD5=[c23963f6e403fc3ebec8dae22c30ade6]
link Test to Parameter--><path codeLine="35" d="M1078.04,1057.14 C1066.38,1064.74 1054.1,1072.02 1042,1078 C1003.07,1097.26 988.6,1090.18 949,1108 C914.29,1123.62 877.17,1146.13 851.16,1162.95 " fill="none" id="Test-Parameter" style="stroke:#A80036;stroke-width:1.0;"/><polygon fill="#000000" points="949.4686,1119.2891,958.9082,1118.1296,956.4238,1112.8026,949.4686,1119.2891" style="stroke:#000000;stroke-width:1.0;"/><text fill="#000000" font-family="sans-serif" font-size="13" lengthAdjust="spacing" textLength="92" x="963" y="1122.4951">need to analyse</text><text fill="#000000" font-family="sans-serif" font-size="13" lengthAdjust="spacing" textLength="7" x="1061.1316" y="1079.0225">1</text><text fill="#000000" font-family="sans-serif" font-size="13" lengthAdjust="spacing" textLength="20" x="837.351" y="1152.2773">1..*</text><!--MD5=[1c345ef828baded1ceb142f995097861]
@startuml
'https://plantuml.com/sequence-diagram

top to bottom direction

Company"1" - - - "1..*"Employee : > has
Company"1" - - "*"Client : > has
Company"1" - - "1..*"ClinicalAnalysisLab : > has
MedicalLabTechnician"*" - - "1"ClinicalAnalysisLab : > works at
Receptionist"1" - - "*"TestRequest : > register new
Headquarter"1" - - "1"ChemicalLab : > has
Company"1" - - "1"Headquarter : > owns
Receptionist"1..*" - - "*"Client : > add
Employee <|- - MedicalLabTechnician
Employee <|- - ClinicalChemistryTechnologist
Employee <|- - Receptionist
Employee <|- - LabCoordinator
Employee <|- - Admin
Employee <|- - SpecialistDoctor
ClinicalChemistryTechnologist"*" - - "1"ChemicalLab : > works at
Test"1" - - "1"Result : > has
Result"1" - - "1"Report : > has
MedicalLabTechnician"1" - - "*"Sample : > collect
Sample"1" - - "1"Test : < has
Company"1" - - "1..*"TypeOfTest : > conduct
Company"1" - - "*"Test : > perform
TestRequest"1..*" - - "1""Client" : < does
SpecialistDoctor"1" - - "*"Report : > write
SpecialistDoctor"1..*" - - "1"Headquarter : > works at
Sample"*" - - "1"ChemicalLab : < owns
LabCoordinator"1" - - "*"Report : > validate
TestRequest"1" - - "1"Test : > originates
TypeOfTest"1" - - "1""Test" : < has
Admin"1..*" - - "*"Category : > create new
Category"1" - - "*"Parameter : < presented under
Test"1" - - "1..*"Parameter : > need to analyse

class Client{
-nhsNumber
-name
-tinNumber
-birthDate
-sex
-phoneNumber
-email
}

class Sample{
-barcode
}

class Report{
-diagnosis
-results
}

class Employee{
-employeeID
-name
-address
-socCode
-phoneNumber
-email
}

class ClinicalAnalysisLab{
-labId
-name
-address
-phoneNumber
-tinNumber
}
class ChemicalLab{
-name
-address
-phoneNumber
-tinNumber
}

class TestRequest{
-requestDate
-testType
}

class Company{
-name
-location
}

class Headquarter{
-location
}

class Test{
-timestampOfSampleCollected
-timestampOfDiagnosis
-timestampOfChemicalAnalysis
-timestampOfValidation
}

class Category{
-nhsId
-internalCode
-description
}

class SpecialistDoctor{
-doctorIndexNumber
}

class Result{
- Parameter
}


@enduml

@startuml

top to bottom direction

Company"1" - - - "1..*"Employee : > has
Company"1" - - "*"Client : > has
Company"1" - - "1..*"ClinicalAnalysisLab : > has
MedicalLabTechnician"*" - - "1"ClinicalAnalysisLab : > works at
Receptionist"1" - - "*"TestRequest : > register new
Headquarter"1" - - "1"ChemicalLab : > has
Company"1" - - "1"Headquarter : > owns
Receptionist"1..*" - - "*"Client : > add
Employee <|- - MedicalLabTechnician
Employee <|- - ClinicalChemistryTechnologist
Employee <|- - Receptionist
Employee <|- - LabCoordinator
Employee <|- - Admin
Employee <|- - SpecialistDoctor
ClinicalChemistryTechnologist"*" - - "1"ChemicalLab : > works at
Test"1" - - "1"Result : > has
Result"1" - - "1"Report : > has
MedicalLabTechnician"1" - - "*"Sample : > collect
Sample"1" - - "1"Test : < has
Company"1" - - "1..*"TypeOfTest : > conduct
Company"1" - - "*"Test : > perform
TestRequest"1..*" - - "1""Client" : < does
SpecialistDoctor"1" - - "*"Report : > write
SpecialistDoctor"1..*" - - "1"Headquarter : > works at
Sample"*" - - "1"ChemicalLab : < owns
LabCoordinator"1" - - "*"Report : > validate
TestRequest"1" - - "1"Test : > originates
TypeOfTest"1" - - "1""Test" : < has
Admin"1..*" - - "*"Category : > create new
Category"1" - - "*"Parameter : < presented under
Test"1" - - "1..*"Parameter : > need to analyse

class Client{
-nhsNumber
-name
-tinNumber
-birthDate
-sex
-phoneNumber
-email
}

class Sample{
-barcode
}

class Report{
-diagnosis
-results
}

class Employee{
-employeeID
-name
-address
-socCode
-phoneNumber
-email
}

class ClinicalAnalysisLab{
-labId
-name
-address
-phoneNumber
-tinNumber
}
class ChemicalLab{
-name
-address
-phoneNumber
-tinNumber
}

class TestRequest{
-requestDate
-testType
}

class Company{
-name
-location
}

class Headquarter{
-location
}

class Test{
-timestampOfSampleCollected
-timestampOfDiagnosis
-timestampOfChemicalAnalysis
-timestampOfValidation
}

class Category{
-nhsId
-internalCode
-description
}

class SpecialistDoctor{
-doctorIndexNumber
}

class Result{
- Parameter
}


@enduml

PlantUML version 1.2021.5(Sun Apr 25 12:20:28 BST 2021)
(GPL source distribution)
Java Runtime: OpenJDK Runtime Environment
JVM: Dynamic Code Evolution 64-Bit Server VM
Default Encoding: Cp1252
Language: en
Country: US
--></g></svg>