<?xml version="1.0" encoding="UTF-8" standalone="no"?><svg xmlns="http://www.w3.org/2000/svg" xmlns:xlink="http://www.w3.org/1999/xlink" contentScriptType="application/ecmascript" contentStyleType="text/css" height="1450px" preserveAspectRatio="none" style="width:682px;height:1450px;" version="1.1" viewBox="0 0 682 1450" width="682px" zoomAndPan="magnify"><defs><filter height="300%" id="fbju7wcp1ttre" width="300%" x="-1" y="-1"><feGaussianBlur result="blurOut" stdDeviation="2.0"/><feColorMatrix in="blurOut" result="blurOut2" type="matrix" values="0 0 0 0 0 0 0 0 0 0 0 0 0 0 0 0 0 0 .4 0"/><feOffset dx="4.0" dy="4.0" in="blurOut2" result="blurOut3"/><feBlend in="SourceGraphic" in2="blurOut3" mode="normal"/></filter></defs><g><!--MD5=[e3152162072024c50465e7b26cb20ed6]
entity Scheduler--><ellipse cx="104.5" cy="1299" fill="#FEFECE" filter="url(#fbju7wcp1ttre)" rx="8" ry="8" style="stroke:#A80036;stroke-width:1.5;"/><path d="M104.5,1307 L104.5,1334 M91.5,1315 L117.5,1315 M104.5,1334 L91.5,1349 M104.5,1334 L117.5,1349 " fill="none" filter="url(#fbju7wcp1ttre)" style="stroke:#A80036;stroke-width:1.5;"/><text fill="#000000" font-family="sans-serif" font-size="14" lengthAdjust="spacing" textLength="64" x="72.5" y="1369.0332">Scheduler</text><ellipse cx="467.2192" cy="1315.9438" fill="#FEFECE" filter="url(#fbju7wcp1ttre)" rx="112.7192" ry="24.9438" style="stroke:#A80036;stroke-width:1.5;"/><text fill="#000000" font-family="sans-serif" font-size="14" lengthAdjust="spacing" textLength="189" x="372.7192" y="1319.6724">UC1 - Generate Daily Reports</text><ellipse cx="467.0714" cy="1407.1143" fill="#FEFECE" filter="url(#fbju7wcp1ttre)" rx="143.5714" ry="31.1143" style="stroke:#A80036;stroke-width:1.5;"/><text fill="#000000" font-family="sans-serif" font-size="14" lengthAdjust="spacing" textLength="255" x="339.5714" y="1410.8428">UC2 - Company Performance Evaluation</text><!--MD5=[87a04b683345c3cce94ac9a6e159ab2f]
entity Receptionist--><ellipse cx="104.5" cy="1148" fill="#FEFECE" filter="url(#fbju7wcp1ttre)" rx="8" ry="8" style="stroke:#A80036;stroke-width:1.5;"/><path d="M104.5,1156 L104.5,1183 M91.5,1164 L117.5,1164 M104.5,1183 L91.5,1198 M104.5,1183 L117.5,1198 " fill="none" filter="url(#fbju7wcp1ttre)" style="stroke:#A80036;stroke-width:1.5;"/><text fill="#000000" font-family="sans-serif" font-size="14" lengthAdjust="spacing" textLength="78" x="65.5" y="1218.0332">Receptionist</text><ellipse cx="467.0042" cy="1103.0008" fill="#FEFECE" filter="url(#fbju7wcp1ttre)" rx="100.5042" ry="22.5008" style="stroke:#A80036;stroke-width:1.5;"/><text fill="#000000" font-family="sans-serif" font-size="14" lengthAdjust="spacing" textLength="162" x="386.0042" y="1106.7293">UC3 - Register new Client</text><ellipse cx="467.0798" cy="1193.916" fill="#FEFECE" filter="url(#fbju7wcp1ttre)" rx="155.0798" ry="33.416" style="stroke:#A80036;stroke-width:1.5;"/><text fill="#000000" font-family="sans-serif" font-size="14" lengthAdjust="spacing" textLength="236" x="349.0798" y="1188.8398">UC4 -  register a test to be performed</text><text fill="#000000" font-family="sans-serif" font-size="14" lengthAdjust="spacing" textLength="129" x="404.5798" y="1206.4492">to a registered client</text><!--MD5=[f5f44fbb526923de0f1d5e31b4a18de0]
entity Lab Technician--><ellipse cx="104.5" cy="979" fill="#FEFECE" filter="url(#fbju7wcp1ttre)" rx="8" ry="8" style="stroke:#A80036;stroke-width:1.5;"/><path d="M104.5,987 L104.5,1014 M91.5,995 L117.5,995 M104.5,1014 L91.5,1029 M104.5,1014 L117.5,1029 " fill="none" filter="url(#fbju7wcp1ttre)" style="stroke:#A80036;stroke-width:1.5;"/><text fill="#000000" font-family="sans-serif" font-size="14" lengthAdjust="spacing" textLength="97" x="56" y="1049.0332">Lab Technician</text><ellipse cx="466.8585" cy="1011.0717" fill="#FEFECE" filter="url(#fbju7wcp1ttre)" rx="158.3585" ry="34.0717" style="stroke:#A80036;stroke-width:1.5;"/><text fill="#000000" font-family="sans-serif" font-size="14" lengthAdjust="spacing" textLength="240" x="344.8585" y="1005.9955">UC5 -  record the samples collected in</text><text fill="#000000" font-family="sans-serif" font-size="14" lengthAdjust="spacing" textLength="155" x="391.3585" y="1023.6049">the scope of a given test</text><!--MD5=[0ba5ee7700168656dc1b457c6fe9fdac]
entity Client--><ellipse cx="104.5" cy="861" fill="#FEFECE" filter="url(#fbju7wcp1ttre)" rx="8" ry="8" style="stroke:#A80036;stroke-width:1.5;"/><path d="M104.5,869 L104.5,896 M91.5,877 L117.5,877 M104.5,896 L91.5,911 M104.5,896 L117.5,911 " fill="none" filter="url(#fbju7wcp1ttre)" style="stroke:#A80036;stroke-width:1.5;"/><text fill="#000000" font-family="sans-serif" font-size="14" lengthAdjust="spacing" textLength="36" x="86.5" y="931.0332">Client</text><ellipse cx="467.141" cy="893.1282" fill="#FEFECE" filter="url(#fbju7wcp1ttre)" rx="133.641" ry="29.1282" style="stroke:#A80036;stroke-width:1.5;"/><text fill="#000000" font-family="sans-serif" font-size="14" lengthAdjust="spacing" textLength="234" x="350.141" y="896.8567">UC6 - Check his medical tests results</text><!--MD5=[97ab183161fd5d1db7fba7485cf76add]
entity Admin--><ellipse cx="104.5" cy="556" fill="#FEFECE" filter="url(#fbju7wcp1ttre)" rx="8" ry="8" style="stroke:#A80036;stroke-width:1.5;"/><path d="M104.5,564 L104.5,591 M91.5,572 L117.5,572 M104.5,591 L91.5,606 M104.5,591 L117.5,606 " fill="none" filter="url(#fbju7wcp1ttre)" style="stroke:#A80036;stroke-width:1.5;"/><text fill="#000000" font-family="sans-serif" font-size="14" lengthAdjust="spacing" textLength="39" x="85" y="626.0332">Admin</text><ellipse cx="466.7783" cy="381.8557" fill="#FEFECE" filter="url(#fbju7wcp1ttre)" rx="139.7783" ry="30.3557" style="stroke:#A80036;stroke-width:1.5;"/><text fill="#000000" font-family="sans-serif" font-size="14" lengthAdjust="spacing" textLength="247" x="343.2783" y="385.5842">UC7 - Add new employee to the system</text><ellipse cx="466.8577" cy="484.1715" fill="#FEFECE" filter="url(#fbju7wcp1ttre)" rx="171.3577" ry="36.6715" style="stroke:#A80036;stroke-width:1.5;"/><text fill="#000000" font-family="sans-serif" font-size="14" lengthAdjust="spacing" textLength="313" x="310.3577" y="487.9001">UC8 - Add new clinical analysis labs to the system</text><ellipse cx="467.2128" cy="588.0426" fill="#FEFECE" filter="url(#fbju7wcp1ttre)" rx="150.7128" ry="32.5426" style="stroke:#A80036;stroke-width:1.5;"/><text fill="#000000" font-family="sans-serif" font-size="14" lengthAdjust="spacing" textLength="270" x="332.2128" y="591.7711">UC9 - Add new types of tests to the system</text><ellipse cx="466.8049" cy="688.161" fill="#FEFECE" filter="url(#fbju7wcp1ttre)" rx="148.8049" ry="32.161" style="stroke:#A80036;stroke-width:1.5;"/><text fill="#000000" font-family="sans-serif" font-size="14" lengthAdjust="spacing" textLength="266" x="333.8049" y="691.8895">UC10 - Add new parameters to the system</text><ellipse cx="466.772" cy="792.1544" fill="#FEFECE" filter="url(#fbju7wcp1ttre)" rx="173.772" ry="37.1544" style="stroke:#A80036;stroke-width:1.5;"/><text fill="#000000" font-family="sans-serif" font-size="14" lengthAdjust="spacing" textLength="318" x="307.772" y="795.8829">UC11 - Add new parameter category to the system</text><!--MD5=[b6d71c7b5a3b5919d10eb67fbf297455]
entity Clinical Chemistry Technologist--><ellipse cx="104.5" cy="253" fill="#FEFECE" filter="url(#fbju7wcp1ttre)" rx="8" ry="8" style="stroke:#A80036;stroke-width:1.5;"/><path d="M104.5,261 L104.5,288 M91.5,269 L117.5,269 M104.5,288 L91.5,303 M104.5,288 L117.5,303 " fill="none" filter="url(#fbju7wcp1ttre)" style="stroke:#A80036;stroke-width:1.5;"/><text fill="#000000" font-family="sans-serif" font-size="14" lengthAdjust="spacing" textLength="197" x="6" y="323.0332">Clinical Chemistry Technologist</text><ellipse cx="467.0214" cy="284.8043" fill="#FEFECE" filter="url(#fbju7wcp1ttre)" rx="144.5214" ry="31.3043" style="stroke:#A80036;stroke-width:1.5;"/><text fill="#000000" font-family="sans-serif" font-size="14" lengthAdjust="spacing" textLength="257" x="338.5214" y="288.5328">UC12 - Record the results of a given test</text><!--MD5=[5c107df4c3a6612dd5cfe4282a9cf4f8]
entity Specialist Doctor--><ellipse cx="104.5" cy="135" fill="#FEFECE" filter="url(#fbju7wcp1ttre)" rx="8" ry="8" style="stroke:#A80036;stroke-width:1.5;"/><path d="M104.5,143 L104.5,170 M91.5,151 L117.5,151 M104.5,170 L91.5,185 M104.5,170 L117.5,185 " fill="none" filter="url(#fbju7wcp1ttre)" style="stroke:#A80036;stroke-width:1.5;"/><text fill="#000000" font-family="sans-serif" font-size="14" lengthAdjust="spacing" textLength="106" x="51.5" y="205.0332">Specialist Doctor</text><ellipse cx="466.8583" cy="167.0717" fill="#FEFECE" filter="url(#fbju7wcp1ttre)" rx="145.8583" ry="31.5717" style="stroke:#A80036;stroke-width:1.5;"/><text fill="#000000" font-family="sans-serif" font-size="14" lengthAdjust="spacing" textLength="170" x="379.8583" y="161.9955">UC14 - Make the diagnosis</text><text fill="#000000" font-family="sans-serif" font-size="14" lengthAdjust="spacing" textLength="209" x="364.3583" y="179.6049">and write a report for a given test</text><!--MD5=[c34910b5b5d0153d9876ce005d1b0a8f]
entity Lab Coordinator--><ellipse cx="104.5" cy="17" fill="#FEFECE" filter="url(#fbju7wcp1ttre)" rx="8" ry="8" style="stroke:#A80036;stroke-width:1.5;"/><path d="M104.5,25 L104.5,52 M91.5,33 L117.5,33 M104.5,52 L91.5,67 M104.5,52 L117.5,67 " fill="none" filter="url(#fbju7wcp1ttre)" style="stroke:#A80036;stroke-width:1.5;"/><text fill="#000000" font-family="sans-serif" font-size="14" lengthAdjust="spacing" textLength="103" x="53" y="87.0332">Lab Coordinator</text><ellipse cx="466.8295" cy="49.1659" fill="#FEFECE" filter="url(#fbju7wcp1ttre)" rx="203.8295" ry="43.1659" style="stroke:#A80036;stroke-width:1.5;"/><text fill="#000000" font-family="sans-serif" font-size="14" lengthAdjust="spacing" textLength="345" x="292.3295" y="44.0897">UC15 - Validate the work done by the clinical chemistry</text><text fill="#000000" font-family="sans-serif" font-size="14" lengthAdjust="spacing" textLength="214" x="361.8295" y="61.6991">technologist and specialist doctor.</text><!--MD5=[10f32b96a658445230324048359c7139]
link Scheduler to UC1 - Generate Daily Reports--><path d="M136.55,1329.71 C183.75,1327.74 275.98,1323.91 350.88,1320.79 " fill="none" id="Scheduler-to-UC1 - Generate Daily Reports" style="stroke:#A80036;stroke-width:1.0;"/><polygon fill="#A80036" points="356.24,1320.57,347.0869,1316.934,351.244,1320.7704,347.4076,1324.9275,356.24,1320.57" style="stroke:#A80036;stroke-width:1.0;"/><!--MD5=[8bcb111e799f38f61d9de0f8d8b49969]
link Scheduler to UC2 - Company Performance Evaluation--><path d="M136.55,1337.55 C185.43,1347.85 282.61,1368.34 358.82,1384.4 " fill="none" id="Scheduler-to-UC2 - Company Performance Evaluation" style="stroke:#A80036;stroke-width:1.0;"/><polygon fill="#A80036" points="363.81,1385.46,355.8237,1379.6964,358.9166,1384.4328,354.1802,1387.5258,363.81,1385.46" style="stroke:#A80036;stroke-width:1.0;"/><!--MD5=[ad7025eaef20595b629a61eb7a5488b8]
link Receptionist to UC3 - Register new Client--><path d="M143.6,1170.64 C175.45,1162.92 222.09,1151.83 263,1143 C302.82,1134.4 347.2,1125.57 384.28,1118.4 " fill="none" id="Receptionist-to-UC3 - Register new Client" style="stroke:#A80036;stroke-width:1.0;"/><polygon fill="#A80036" points="389.23,1117.45,379.6363,1115.2226,384.3201,1118.3948,381.1479,1123.0785,389.23,1117.45" style="stroke:#A80036;stroke-width:1.0;"/><!--MD5=[05dbe3f6604117e6b64ad1129b27ac06]
link Receptionist to UC4 -  register a test to be performed\n to a registered client--><path d="M143.74,1181.48 C183.4,1183.03 248.03,1185.54 309.04,1187.9 " fill="none" id="Receptionist-to-UC4 -  register a test to be performed\n to a registered client" style="stroke:#A80036;stroke-width:1.0;"/><polygon fill="#A80036" points="314.18,1188.1,305.3471,1183.7435,309.184,1187.9002,305.0273,1191.7371,314.18,1188.1" style="stroke:#A80036;stroke-width:1.0;"/><!--MD5=[a117df856f818f55452459346c896cb3]
link Lab Technician to UC5 -  record the samples collected in \n the scope of a given test--><path d="M153.37,1011 C191.96,1011 248.6,1011 303.1,1011 " fill="none" id="Lab Technician-to-UC5 -  record the samples collected in \n the scope of a given test" style="stroke:#A80036;stroke-width:1.0;"/><polygon fill="#A80036" points="308.37,1011,299.37,1007,303.37,1011,299.37,1015,308.37,1011" style="stroke:#A80036;stroke-width:1.0;"/><!--MD5=[7b614f5ada944acaf171abcbe0a70280]
link Client to UC6 - Check his medical tests results--><path d="M122.89,893 C159.91,893 249.55,893 327.92,893 " fill="none" id="Client-to-UC6 - Check his medical tests results" style="stroke:#A80036;stroke-width:1.0;"/><polygon fill="#A80036" points="333.07,893,324.07,889,328.07,893,324.07,897,333.07,893" style="stroke:#A80036;stroke-width:1.0;"/><!--MD5=[b74121ca11d3b3e24bad99a83a6c906a]
link Admin to UC7 - Add new employee to the system--><path d="M124.14,561.7 C150.77,526.17 203.16,463.44 263,430 C287.48,416.32 315.72,406.53 343.21,399.52 " fill="none" id="Admin-to-UC7 - Add new employee to the system" style="stroke:#A80036;stroke-width:1.0;"/><polygon fill="#A80036" points="348.33,398.24,338.6286,396.5423,343.4793,399.4527,340.5689,404.3034,348.33,398.24" style="stroke:#A80036;stroke-width:1.0;"/><!--MD5=[a971feacdd86af263a22205633241723]
link Admin to UC8 - Add new clinical analysis labs to the system--><path d="M124.32,581.71 C153.77,571.93 212.6,552.69 263,538 C291.63,529.65 322.68,521.13 351.68,513.39 " fill="none" id="Admin-to-UC8 - Add new clinical analysis labs to the system" style="stroke:#A80036;stroke-width:1.0;"/><polygon fill="#A80036" points="356.7,512.06,346.9707,510.5301,351.871,513.3563,349.0448,518.2566,356.7,512.06" style="stroke:#A80036;stroke-width:1.0;"/><!--MD5=[3e16aeaed102b1041fff0986e922efcd]
link Admin to UC9 - Add new types of tests to the system--><path d="M124.12,588 C159.18,588 238.05,588 311.21,588 " fill="none" id="Admin-to-UC9 - Add new types of tests to the system" style="stroke:#A80036;stroke-width:1.0;"/><polygon fill="#A80036" points="316.47,588,307.47,584,311.47,588,307.47,592,316.47,588" style="stroke:#A80036;stroke-width:1.0;"/><!--MD5=[61283fe356cf3b9082041a1acac43524]
link Admin to UC10 - Add new parameters to the system--><path d="M124.29,594.41 C153.7,604.34 212.46,623.77 263,638 C294.42,646.85 328.82,655.65 360.23,663.35 " fill="none" id="Admin-to-UC10 - Add new parameters to the system" style="stroke:#A80036;stroke-width:1.0;"/><polygon fill="#A80036" points="365.24,664.57,357.4454,658.5497,360.3826,663.3842,355.5481,666.3215,365.24,664.57" style="stroke:#A80036;stroke-width:1.0;"/><!--MD5=[699aa77aa7917d6065a0e4c578cd047b]
link Admin to UC11 - Add new parameter category to the system--><path d="M124.12,612.14 C151.12,645.47 204.36,705.16 263,738 C283.79,749.65 307.2,758.86 330.53,766.14 " fill="none" id="Admin-to-UC11 - Add new parameter category to the system" style="stroke:#A80036;stroke-width:1.0;"/><polygon fill="#A80036" points="335.51,767.66,328.083,761.1917,330.7308,766.1906,325.7319,768.8384,335.51,767.66" style="stroke:#A80036;stroke-width:1.0;"/><!--MD5=[9cbda2a4f098cbf916bab6a9f095149e]
link Clinical Chemistry Technologist to UC12 - Record the results of a given test--><path d="M203.06,285 C238.18,285 278.65,285 317.15,285 " fill="none" id="Clinical Chemistry Technologist-to-UC12 - Record the results of a given test" style="stroke:#A80036;stroke-width:1.0;"/><polygon fill="#A80036" points="322.32,285,313.32,281,317.32,285,313.32,289,322.32,285" style="stroke:#A80036;stroke-width:1.0;"/><!--MD5=[00a72fcd74dc7cd64dac0a50c0ba520d]
link Specialist Doctor to UC14 - Make the diagnosis \n and write a report for a given test--><path d="M157.53,167 C199.08,167 259.47,167 315.82,167 " fill="none" id="Specialist Doctor-to-UC14 - Make the diagnosis \n and write a report for a given test" style="stroke:#A80036;stroke-width:1.0;"/><polygon fill="#A80036" points="320.91,167,311.91,163,315.91,167,311.91,171,320.91,167" style="stroke:#A80036;stroke-width:1.0;"/><!--MD5=[3f279fbc4c66ab985d9f001576c1f16a]
link Lab Coordinator to UC15 - Validate the work done by the clinical chemistry \n technologist and specialist doctor.--><path d="M156.01,49 C183.55,49 219.68,49 257.52,49 " fill="none" id="Lab Coordinator-to-UC15 - Validate the work done by the clinical chemistry \n technologist and specialist doctor." style="stroke:#A80036;stroke-width:1.0;"/><polygon fill="#A80036" points="262.62,49,253.62,45,257.62,49,253.62,53,262.62,49" style="stroke:#A80036;stroke-width:1.0;"/><!--MD5=[59f361043f613ef69fabb9cb4595129e]
@startuml
'https://plantuml.com/use-case-diagram

left to right direction

:Scheduler: - -> (UC1 - Generate Daily Reports)
:Scheduler: - -> (UC2 - Company Performance Evaluation)
:Receptionist: - -> (UC3 - Register new Client)
:Receptionist: - -> (UC4 -  register a test to be performed\n to a registered client)
:Lab Technician: - -> (UC5 -  record the samples collected in \n the scope of a given test)
:Client: - -> (UC6 - Check his medical tests results)
:Admin: - -> (UC7 - Add new employee to the system)
:Admin: - -> (UC8 - Add new clinical analysis labs to the system)
:Admin: - -> (UC9 - Add new types of tests to the system)
:Admin: - -> (UC10 - Add new parameters to the system)
:Admin: - -> (UC11 - Add new parameter category to the system)
:Clinical Chemistry Technologist: - -> (UC12 - Record the results of a given test)
:Specialist Doctor: - -> (UC14 - Make the diagnosis \n and write a report for a given test)
:Lab Coordinator: - -> (UC15 - Validate the work done by the clinical chemistry \n technologist and specialist doctor.)

@enduml

@startuml

left to right direction

:Scheduler: - -> (UC1 - Generate Daily Reports)
:Scheduler: - -> (UC2 - Company Performance Evaluation)
:Receptionist: - -> (UC3 - Register new Client)
:Receptionist: - -> (UC4 -  register a test to be performed\n to a registered client)
:Lab Technician: - -> (UC5 -  record the samples collected in \n the scope of a given test)
:Client: - -> (UC6 - Check his medical tests results)
:Admin: - -> (UC7 - Add new employee to the system)
:Admin: - -> (UC8 - Add new clinical analysis labs to the system)
:Admin: - -> (UC9 - Add new types of tests to the system)
:Admin: - -> (UC10 - Add new parameters to the system)
:Admin: - -> (UC11 - Add new parameter category to the system)
:Clinical Chemistry Technologist: - -> (UC12 - Record the results of a given test)
:Specialist Doctor: - -> (UC14 - Make the diagnosis \n and write a report for a given test)
:Lab Coordinator: - -> (UC15 - Validate the work done by the clinical chemistry \n technologist and specialist doctor.)

@enduml

PlantUML version 1.2021.00(Sun Jan 10 10:25:05 GMT 2021)
(GPL source distribution)
Java Runtime: OpenJDK Runtime Environment
JVM: OpenJDK 64-Bit Server VM
Default Encoding: Cp1252
Language: en
Country: US
--></g></svg>