<?xml version="1.0" encoding="UTF-8" standalone="no"?><svg xmlns="http://www.w3.org/2000/svg" xmlns:xlink="http://www.w3.org/1999/xlink" contentScriptType="application/ecmascript" contentStyleType="text/css" height="870px" preserveAspectRatio="none" style="width:1175px;height:870px;" version="1.1" viewBox="0 0 1175 870" width="1175px" zoomAndPan="magnify"><defs><filter height="300%" id="f68t6oedyyh9u" width="300%" x="-1" y="-1"><feGaussianBlur result="blurOut" stdDeviation="2.5"/><feColorMatrix in="blurOut" result="blurOut2" type="matrix" values="0 0 0 0 0 0 0 0 0 0 0 0 0 0 0 0 0 0 .4 0"/><feOffset dx="5.0" dy="5.0" in="blurOut2" result="blurOut3"/><feBlend in="SourceGraphic" in2="blurOut3" mode="normal"/></filter></defs><g><!--MD5=[e59bda2572a266093cda22ac34510ea0]
class Barcode--><rect codeLine="6" fill="#FEFECE" filter="url(#f68t6oedyyh9u)" height="77.2949" id="Barcode" style="stroke:#A80036;stroke-width:1.875;" width="111.25" x="666.25" y="326.25"/><ellipse cx="691.1875" cy="346.25" fill="#ADD1B2" rx="13.75" ry="13.75" style="stroke:#A80036;stroke-width:1.25;"/><path d="M693.6875,341.875 Q693.9414,341.25 694.2344,340.9375 Q694.5273,340.625 694.8594,340.625 Q695.4453,340.625 695.8164,340.9766 Q696.1875,341.3281 696.1875,342.1484 L696.1875,344.1016 Q696.1875,344.9219 695.8359,345.2734 Q695.4844,345.625 694.9375,345.625 Q694.4492,345.625 694.1367,345.4102 Q693.8242,345.1953 693.6875,344.6289 Q693.6289,344.2383 693.4141,344.0234 Q693.0234,343.6133 692.3203,343.3789 Q691.6172,343.125 690.9141,343.125 Q690.0352,343.125 689.293,343.4766 Q688.5703,343.8281 688.0039,344.6094 Q687.4375,345.3906 687.4375,346.4648 L687.4375,347.6172 Q687.4375,348.9063 688.4922,349.7656 Q689.5469,350.625 691.4219,350.625 Q692.5352,350.625 693.3164,350.3711 Q693.7656,350.2344 694.2734,349.7852 Q694.6055,349.5313 694.7813,349.4531 Q694.957,349.375 695.1719,349.375 Q695.582,349.375 695.875,349.707 Q696.1875,350.0195 696.1875,350.4688 Q696.1875,350.8984 695.7578,351.4063 Q695.1328,352.1484 694.1367,352.5586 Q692.8281,353.125 691.2266,353.125 Q689.3516,353.125 687.8477,352.3828 Q686.6367,351.7969 685.7773,350.5273 Q684.9375,349.2578 684.9375,347.7539 L684.9375,346.3867 Q684.9375,344.8242 685.6797,343.457 Q686.4414,342.0898 687.75,341.3672 Q689.0781,340.625 690.5625,340.625 Q691.4609,340.625 692.2422,340.9375 Q693.0234,341.25 693.6875,341.875 Z " fill="#000000"/><text fill="#000000" font-family="sans-serif" font-size="15" lengthAdjust="spacing" textLength="57.5" x="710.0625" y="352.3877">Barcode</text><line style="stroke:#A80036;stroke-width:1.875;" x1="667.5" x2="776.25" y1="366.25" y2="366.25"/><text fill="#000000" font-family="sans-serif" font-size="13.75" lengthAdjust="spacing" textLength="96.25" x="673.75" y="385.5237">+generateUPCA</text><line style="stroke:#A80036;stroke-width:1.875;" x1="667.5" x2="776.25" y1="393.5449" y2="393.5449"/><!--MD5=[0f6f7964b844a64b0496af0dda7914bd]
class TestStore--><rect codeLine="10" fill="#FEFECE" filter="url(#f68t6oedyyh9u)" height="94.5898" id="TestStore" style="stroke:#A80036;stroke-width:1.875;" width="126.25" x="658.75" y="187.5"/><ellipse cx="686.5" cy="207.5" fill="#ADD1B2" rx="13.75" ry="13.75" style="stroke:#A80036;stroke-width:1.25;"/><path d="M689,203.125 Q689.2539,202.5 689.5469,202.1875 Q689.8398,201.875 690.1719,201.875 Q690.7578,201.875 691.1289,202.2266 Q691.5,202.5781 691.5,203.3984 L691.5,205.3516 Q691.5,206.1719 691.1484,206.5234 Q690.7969,206.875 690.25,206.875 Q689.7617,206.875 689.4492,206.6602 Q689.1367,206.4453 689,205.8789 Q688.9414,205.4883 688.7266,205.2734 Q688.3359,204.8633 687.6328,204.6289 Q686.9297,204.375 686.2266,204.375 Q685.3477,204.375 684.6055,204.7266 Q683.8828,205.0781 683.3164,205.8594 Q682.75,206.6406 682.75,207.7148 L682.75,208.8672 Q682.75,210.1563 683.8047,211.0156 Q684.8594,211.875 686.7344,211.875 Q687.8477,211.875 688.6289,211.6211 Q689.0781,211.4844 689.5859,211.0352 Q689.918,210.7813 690.0938,210.7031 Q690.2695,210.625 690.4844,210.625 Q690.8945,210.625 691.1875,210.957 Q691.5,211.2695 691.5,211.7188 Q691.5,212.1484 691.0703,212.6563 Q690.4453,213.3984 689.4492,213.8086 Q688.1406,214.375 686.5391,214.375 Q684.6641,214.375 683.1602,213.6328 Q681.9492,213.0469 681.0898,211.7773 Q680.25,210.5078 680.25,209.0039 L680.25,207.6367 Q680.25,206.0742 680.9922,204.707 Q681.7539,203.3398 683.0625,202.6172 Q684.3906,201.875 685.875,201.875 Q686.7734,201.875 687.5547,202.1875 Q688.3359,202.5 689,203.125 Z " fill="#000000"/><text fill="#000000" font-family="sans-serif" font-size="15" lengthAdjust="spacing" textLength="66.25" x="706" y="213.6377">TestStore</text><line style="stroke:#A80036;stroke-width:1.875;" x1="660" x2="783.75" y1="227.5" y2="227.5"/><line style="stroke:#A80036;stroke-width:1.875;" x1="660" x2="783.75" y1="237.5" y2="237.5"/><text fill="#000000" font-family="sans-serif" font-size="13.75" lengthAdjust="spacing" textLength="83.75" x="666.25" y="256.7737">+getTestList()</text><text fill="#000000" font-family="sans-serif" font-size="13.75" lengthAdjust="spacing" textLength="111.25" x="666.25" y="274.0686">+getTestById(test)</text><!--MD5=[df38be88ccee13e832d6fafd6288a4ca]
class Test--><rect codeLine="15" fill="#FEFECE" filter="url(#f68t6oedyyh9u)" height="129.1797" id="Test" style="stroke:#A80036;stroke-width:1.875;" width="240" x="917.5" y="724.375"/><ellipse cx="1017.1875" cy="744.375" fill="#ADD1B2" rx="13.75" ry="13.75" style="stroke:#A80036;stroke-width:1.25;"/><path d="M1019.6875,740 Q1019.9414,739.375 1020.2344,739.0625 Q1020.5273,738.75 1020.8594,738.75 Q1021.4453,738.75 1021.8164,739.1016 Q1022.1875,739.4531 1022.1875,740.2734 L1022.1875,742.2266 Q1022.1875,743.0469 1021.8359,743.3984 Q1021.4844,743.75 1020.9375,743.75 Q1020.4492,743.75 1020.1367,743.5352 Q1019.8242,743.3203 1019.6875,742.7539 Q1019.6289,742.3633 1019.4141,742.1484 Q1019.0234,741.7383 1018.3203,741.5039 Q1017.6172,741.25 1016.9141,741.25 Q1016.0352,741.25 1015.293,741.6016 Q1014.5703,741.9531 1014.0039,742.7344 Q1013.4375,743.5156 1013.4375,744.5898 L1013.4375,745.7422 Q1013.4375,747.0313 1014.4922,747.8906 Q1015.5469,748.75 1017.4219,748.75 Q1018.5352,748.75 1019.3164,748.4961 Q1019.7656,748.3594 1020.2734,747.9102 Q1020.6055,747.6563 1020.7813,747.5781 Q1020.957,747.5 1021.1719,747.5 Q1021.582,747.5 1021.875,747.832 Q1022.1875,748.1445 1022.1875,748.5938 Q1022.1875,749.0234 1021.7578,749.5313 Q1021.1328,750.2734 1020.1367,750.6836 Q1018.8281,751.25 1017.2266,751.25 Q1015.3516,751.25 1013.8477,750.5078 Q1012.6367,749.9219 1011.7773,748.6523 Q1010.9375,747.3828 1010.9375,745.8789 L1010.9375,744.5117 Q1010.9375,742.9492 1011.6797,741.582 Q1012.4414,740.2148 1013.75,739.4922 Q1015.0781,738.75 1016.5625,738.75 Q1017.4609,738.75 1018.2422,739.0625 Q1019.0234,739.375 1019.6875,740 Z " fill="#000000"/><text fill="#000000" font-family="sans-serif" font-size="15" lengthAdjust="spacing" textLength="30" x="1042.8125" y="750.5127">Test</text><line style="stroke:#A80036;stroke-width:1.875;" x1="918.75" x2="1156.25" y1="764.375" y2="764.375"/><text fill="#000000" font-family="sans-serif" font-size="13.75" lengthAdjust="spacing" textLength="72.5" x="925" y="783.6487">-Client client</text><text fill="#000000" font-family="sans-serif" font-size="13.75" lengthAdjust="spacing" textLength="81.25" x="925" y="800.9436">-String status</text><text fill="#000000" font-family="sans-serif" font-size="13.75" lengthAdjust="spacing" textLength="112.5" x="925" y="818.2385">-List parameterList</text><line style="stroke:#A80036;stroke-width:1.875;" x1="918.75" x2="1156.25" y1="826.2598" y2="826.2598"/><text fill="#000000" font-family="sans-serif" font-size="13.75" lengthAdjust="spacing" textLength="225" x="925" y="845.5334">+Test(client, testType, parameterList)</text><!--MD5=[02e4b9b7573f1156f41e60aa5b4e25a4]
class Company--><rect codeLine="22" fill="#FEFECE" filter="url(#f68t6oedyyh9u)" height="111.8848" id="Company" style="stroke:#A80036;stroke-width:1.875;" width="157.5" x="643.125" y="8.75"/><ellipse cx="684.9375" cy="28.75" fill="#ADD1B2" rx="13.75" ry="13.75" style="stroke:#A80036;stroke-width:1.25;"/><path d="M687.4375,24.375 Q687.6914,23.75 687.9844,23.4375 Q688.2773,23.125 688.6094,23.125 Q689.1953,23.125 689.5664,23.4766 Q689.9375,23.8281 689.9375,24.6484 L689.9375,26.6016 Q689.9375,27.4219 689.5859,27.7734 Q689.2344,28.125 688.6875,28.125 Q688.1992,28.125 687.8867,27.9102 Q687.5742,27.6953 687.4375,27.1289 Q687.3789,26.7383 687.1641,26.5234 Q686.7734,26.1133 686.0703,25.8789 Q685.3672,25.625 684.6641,25.625 Q683.7852,25.625 683.043,25.9766 Q682.3203,26.3281 681.7539,27.1094 Q681.1875,27.8906 681.1875,28.9648 L681.1875,30.1172 Q681.1875,31.4063 682.2422,32.2656 Q683.2969,33.125 685.1719,33.125 Q686.2852,33.125 687.0664,32.8711 Q687.5156,32.7344 688.0234,32.2852 Q688.3555,32.0313 688.5313,31.9531 Q688.707,31.875 688.9219,31.875 Q689.332,31.875 689.625,32.207 Q689.9375,32.5195 689.9375,32.9688 Q689.9375,33.3984 689.5078,33.9063 Q688.8828,34.6484 687.8867,35.0586 Q686.5781,35.625 684.9766,35.625 Q683.1016,35.625 681.5977,34.8828 Q680.3867,34.2969 679.5273,33.0273 Q678.6875,31.7578 678.6875,30.2539 L678.6875,28.8867 Q678.6875,27.3242 679.4297,25.957 Q680.1914,24.5898 681.5,23.8672 Q682.8281,23.125 684.3125,23.125 Q685.2109,23.125 685.9922,23.4375 Q686.7734,23.75 687.4375,24.375 Z " fill="#000000"/><text fill="#000000" font-family="sans-serif" font-size="15" lengthAdjust="spacing" textLength="66.25" x="707.5625" y="34.8877">Company</text><line style="stroke:#A80036;stroke-width:1.875;" x1="644.375" x2="799.375" y1="48.75" y2="48.75"/><text fill="#000000" font-family="sans-serif" font-size="13.75" lengthAdjust="spacing" textLength="112.5" x="650.625" y="68.0237">-String designation</text><line style="stroke:#A80036;stroke-width:1.875;" x1="644.375" x2="799.375" y1="76.0449" y2="76.0449"/><text fill="#000000" font-family="sans-serif" font-size="13.75" lengthAdjust="spacing" textLength="142.5" x="650.625" y="95.3186">+Company(designation)</text><text fill="#000000" font-family="sans-serif" font-size="13.75" lengthAdjust="spacing" textLength="95" x="650.625" y="112.6135">+getTestStore()</text><!--MD5=[144698ec4d0188f6929a3b58a3eeb1f6]
class TestMapper--><rect codeLine="28" fill="#FEFECE" filter="url(#f68t6oedyyh9u)" height="94.5898" id="TestMapper" style="stroke:#A80036;stroke-width:1.875;" width="238.75" x="602.5" y="728.75"/><ellipse cx="675.9375" cy="748.75" fill="#ADD1B2" rx="13.75" ry="13.75" style="stroke:#A80036;stroke-width:1.25;"/><path d="M678.4375,744.375 Q678.6914,743.75 678.9844,743.4375 Q679.2773,743.125 679.6094,743.125 Q680.1953,743.125 680.5664,743.4766 Q680.9375,743.8281 680.9375,744.6484 L680.9375,746.6016 Q680.9375,747.4219 680.5859,747.7734 Q680.2344,748.125 679.6875,748.125 Q679.1992,748.125 678.8867,747.9102 Q678.5742,747.6953 678.4375,747.1289 Q678.3789,746.7383 678.1641,746.5234 Q677.7734,746.1133 677.0703,745.8789 Q676.3672,745.625 675.6641,745.625 Q674.7852,745.625 674.043,745.9766 Q673.3203,746.3281 672.7539,747.1094 Q672.1875,747.8906 672.1875,748.9648 L672.1875,750.1172 Q672.1875,751.4063 673.2422,752.2656 Q674.2969,753.125 676.1719,753.125 Q677.2852,753.125 678.0664,752.8711 Q678.5156,752.7344 679.0234,752.2852 Q679.3555,752.0313 679.5313,751.9531 Q679.707,751.875 679.9219,751.875 Q680.332,751.875 680.625,752.207 Q680.9375,752.5195 680.9375,752.9688 Q680.9375,753.3984 680.5078,753.9063 Q679.8828,754.6484 678.8867,755.0586 Q677.5781,755.625 675.9766,755.625 Q674.1016,755.625 672.5977,754.8828 Q671.3867,754.2969 670.5273,753.0273 Q669.6875,751.7578 669.6875,750.2539 L669.6875,748.8867 Q669.6875,747.3242 670.4297,745.957 Q671.1914,744.5898 672.5,743.8672 Q673.8281,743.125 675.3125,743.125 Q676.2109,743.125 676.9922,743.4375 Q677.7734,743.75 678.4375,744.375 Z " fill="#000000"/><text fill="#000000" font-family="sans-serif" font-size="15" lengthAdjust="spacing" textLength="81.25" x="701.5625" y="754.8877">TestMapper</text><line style="stroke:#A80036;stroke-width:1.875;" x1="603.75" x2="840" y1="768.75" y2="768.75"/><line style="stroke:#A80036;stroke-width:1.875;" x1="603.75" x2="840" y1="778.75" y2="778.75"/><text fill="#000000" font-family="sans-serif" font-size="13.75" lengthAdjust="spacing" textLength="223.75" x="610" y="798.0237">+List&lt;TestDto&gt; toDTO(List&lt;Test&gt; list)</text><text fill="#000000" font-family="sans-serif" font-size="13.75" lengthAdjust="spacing" textLength="152.5" x="610" y="815.3186">+TestDto toDTO(Test obj)</text><!--MD5=[cb99b9c8d6393b009924c3261a960fa5]
class RegisterSampleUI--><rect codeLine="33" fill="#FEFECE" filter="url(#f68t6oedyyh9u)" height="60" id="RegisterSampleUI" style="stroke:#A80036;stroke-width:1.875;" width="167.5" x="8.75" y="518.75"/><ellipse cx="27.5" cy="538.75" fill="#ADD1B2" rx="13.75" ry="13.75" style="stroke:#A80036;stroke-width:1.25;"/><path d="M30,534.375 Q30.2539,533.75 30.5469,533.4375 Q30.8398,533.125 31.1719,533.125 Q31.7578,533.125 32.1289,533.4766 Q32.5,533.8281 32.5,534.6484 L32.5,536.6016 Q32.5,537.4219 32.1484,537.7734 Q31.7969,538.125 31.25,538.125 Q30.7617,538.125 30.4492,537.9102 Q30.1367,537.6953 30,537.1289 Q29.9414,536.7383 29.7266,536.5234 Q29.3359,536.1133 28.6328,535.8789 Q27.9297,535.625 27.2266,535.625 Q26.3477,535.625 25.6055,535.9766 Q24.8828,536.3281 24.3164,537.1094 Q23.75,537.8906 23.75,538.9648 L23.75,540.1172 Q23.75,541.4063 24.8047,542.2656 Q25.8594,543.125 27.7344,543.125 Q28.8477,543.125 29.6289,542.8711 Q30.0781,542.7344 30.5859,542.2852 Q30.918,542.0313 31.0938,541.9531 Q31.2695,541.875 31.4844,541.875 Q31.8945,541.875 32.1875,542.207 Q32.5,542.5195 32.5,542.9688 Q32.5,543.3984 32.0703,543.9063 Q31.4453,544.6484 30.4492,545.0586 Q29.1406,545.625 27.5391,545.625 Q25.6641,545.625 24.1602,544.8828 Q22.9492,544.2969 22.0898,543.0273 Q21.25,541.7578 21.25,540.2539 L21.25,538.8867 Q21.25,537.3242 21.9922,535.957 Q22.7539,534.5898 24.0625,533.8672 Q25.3906,533.125 26.875,533.125 Q27.7734,533.125 28.5547,533.4375 Q29.3359,533.75 30,534.375 Z " fill="#000000"/><text fill="#000000" font-family="sans-serif" font-size="15" lengthAdjust="spacing" textLength="127.5" x="45" y="544.8877">RegisterSampleUI</text><line style="stroke:#A80036;stroke-width:1.875;" x1="10" x2="175" y1="558.75" y2="558.75"/><line style="stroke:#A80036;stroke-width:1.875;" x1="10" x2="175" y1="568.75" y2="568.75"/><!--MD5=[ff9048b0af8773ba8157d9ee4c2e0bd6]
class RegisterSampleController--><rect codeLine="35" fill="#FEFECE" filter="url(#f68t6oedyyh9u)" height="60" id="RegisterSampleController" style="stroke:#A80036;stroke-width:1.875;" width="220" x="252.5" y="382.5"/><ellipse cx="271.25" cy="402.5" fill="#ADD1B2" rx="13.75" ry="13.75" style="stroke:#A80036;stroke-width:1.25;"/><path d="M273.75,398.125 Q274.0039,397.5 274.2969,397.1875 Q274.5898,396.875 274.9219,396.875 Q275.5078,396.875 275.8789,397.2266 Q276.25,397.5781 276.25,398.3984 L276.25,400.3516 Q276.25,401.1719 275.8984,401.5234 Q275.5469,401.875 275,401.875 Q274.5117,401.875 274.1992,401.6602 Q273.8867,401.4453 273.75,400.8789 Q273.6914,400.4883 273.4766,400.2734 Q273.0859,399.8633 272.3828,399.6289 Q271.6797,399.375 270.9766,399.375 Q270.0977,399.375 269.3555,399.7266 Q268.6328,400.0781 268.0664,400.8594 Q267.5,401.6406 267.5,402.7148 L267.5,403.8672 Q267.5,405.1563 268.5547,406.0156 Q269.6094,406.875 271.4844,406.875 Q272.5977,406.875 273.3789,406.6211 Q273.8281,406.4844 274.3359,406.0352 Q274.668,405.7813 274.8438,405.7031 Q275.0195,405.625 275.2344,405.625 Q275.6445,405.625 275.9375,405.957 Q276.25,406.2695 276.25,406.7188 Q276.25,407.1484 275.8203,407.6563 Q275.1953,408.3984 274.1992,408.8086 Q272.8906,409.375 271.2891,409.375 Q269.4141,409.375 267.9102,408.6328 Q266.6992,408.0469 265.8398,406.7773 Q265,405.5078 265,404.0039 L265,402.6367 Q265,401.0742 265.7422,399.707 Q266.5039,398.3398 267.8125,397.6172 Q269.1406,396.875 270.625,396.875 Q271.5234,396.875 272.3047,397.1875 Q273.0859,397.5 273.75,398.125 Z " fill="#000000"/><text fill="#000000" font-family="sans-serif" font-size="15" lengthAdjust="spacing" textLength="180" x="288.75" y="408.6377">RegisterSampleController</text><line style="stroke:#A80036;stroke-width:1.875;" x1="253.75" x2="471.25" y1="422.5" y2="422.5"/><line style="stroke:#A80036;stroke-width:1.875;" x1="253.75" x2="471.25" y1="432.5" y2="432.5"/><!--MD5=[9681492165142af2a4a3a169d90ee8d4]
class Sample--><rect codeLine="37" fill="#FEFECE" filter="url(#f68t6oedyyh9u)" height="60" id="Sample" style="stroke:#A80036;stroke-width:1.875;" width="93.75" x="675" y="447.5"/><ellipse cx="693.75" cy="467.5" fill="#ADD1B2" rx="13.75" ry="13.75" style="stroke:#A80036;stroke-width:1.25;"/><path d="M696.25,463.125 Q696.5039,462.5 696.7969,462.1875 Q697.0898,461.875 697.4219,461.875 Q698.0078,461.875 698.3789,462.2266 Q698.75,462.5781 698.75,463.3984 L698.75,465.3516 Q698.75,466.1719 698.3984,466.5234 Q698.0469,466.875 697.5,466.875 Q697.0117,466.875 696.6992,466.6602 Q696.3867,466.4453 696.25,465.8789 Q696.1914,465.4883 695.9766,465.2734 Q695.5859,464.8633 694.8828,464.6289 Q694.1797,464.375 693.4766,464.375 Q692.5977,464.375 691.8555,464.7266 Q691.1328,465.0781 690.5664,465.8594 Q690,466.6406 690,467.7148 L690,468.8672 Q690,470.1563 691.0547,471.0156 Q692.1094,471.875 693.9844,471.875 Q695.0977,471.875 695.8789,471.6211 Q696.3281,471.4844 696.8359,471.0352 Q697.168,470.7813 697.3438,470.7031 Q697.5195,470.625 697.7344,470.625 Q698.1445,470.625 698.4375,470.957 Q698.75,471.2695 698.75,471.7188 Q698.75,472.1484 698.3203,472.6563 Q697.6953,473.3984 696.6992,473.8086 Q695.3906,474.375 693.7891,474.375 Q691.9141,474.375 690.4102,473.6328 Q689.1992,473.0469 688.3398,471.7773 Q687.5,470.5078 687.5,469.0039 L687.5,467.6367 Q687.5,466.0742 688.2422,464.707 Q689.0039,463.3398 690.3125,462.6172 Q691.6406,461.875 693.125,461.875 Q694.0234,461.875 694.8047,462.1875 Q695.5859,462.5 696.25,463.125 Z " fill="#000000"/><text fill="#000000" font-family="sans-serif" font-size="15" lengthAdjust="spacing" textLength="53.75" x="711.25" y="473.6377">Sample</text><line style="stroke:#A80036;stroke-width:1.875;" x1="676.25" x2="767.5" y1="487.5" y2="487.5"/><line style="stroke:#A80036;stroke-width:1.875;" x1="676.25" x2="767.5" y1="497.5" y2="497.5"/><!--MD5=[1c38f6084f2098752e2974895ca67f4c]
class TestDto--><rect fill="#FEFECE" filter="url(#f68t6oedyyh9u)" height="60" id="TestDto" style="stroke:#A80036;stroke-width:1.875;" width="93.75" x="990.625" y="620"/><ellipse cx="1009.375" cy="640" fill="#ADD1B2" rx="13.75" ry="13.75" style="stroke:#A80036;stroke-width:1.25;"/><path d="M1011.875,635.625 Q1012.1289,635 1012.4219,634.6875 Q1012.7148,634.375 1013.0469,634.375 Q1013.6328,634.375 1014.0039,634.7266 Q1014.375,635.0781 1014.375,635.8984 L1014.375,637.8516 Q1014.375,638.6719 1014.0234,639.0234 Q1013.6719,639.375 1013.125,639.375 Q1012.6367,639.375 1012.3242,639.1602 Q1012.0117,638.9453 1011.875,638.3789 Q1011.8164,637.9883 1011.6016,637.7734 Q1011.2109,637.3633 1010.5078,637.1289 Q1009.8047,636.875 1009.1016,636.875 Q1008.2227,636.875 1007.4805,637.2266 Q1006.7578,637.5781 1006.1914,638.3594 Q1005.625,639.1406 1005.625,640.2148 L1005.625,641.3672 Q1005.625,642.6563 1006.6797,643.5156 Q1007.7344,644.375 1009.6094,644.375 Q1010.7227,644.375 1011.5039,644.1211 Q1011.9531,643.9844 1012.4609,643.5352 Q1012.793,643.2813 1012.9688,643.2031 Q1013.1445,643.125 1013.3594,643.125 Q1013.7695,643.125 1014.0625,643.457 Q1014.375,643.7695 1014.375,644.2188 Q1014.375,644.6484 1013.9453,645.1563 Q1013.3203,645.8984 1012.3242,646.3086 Q1011.0156,646.875 1009.4141,646.875 Q1007.5391,646.875 1006.0352,646.1328 Q1004.8242,645.5469 1003.9648,644.2773 Q1003.125,643.0078 1003.125,641.5039 L1003.125,640.1367 Q1003.125,638.5742 1003.8672,637.207 Q1004.6289,635.8398 1005.9375,635.1172 Q1007.2656,634.375 1008.75,634.375 Q1009.6484,634.375 1010.4297,634.6875 Q1011.2109,635 1011.875,635.625 Z " fill="#000000"/><text fill="#000000" font-family="sans-serif" font-size="15" lengthAdjust="spacing" textLength="53.75" x="1026.875" y="646.1377">TestDto</text><line style="stroke:#A80036;stroke-width:1.875;" x1="991.875" x2="1083.125" y1="660" y2="660"/><line style="stroke:#A80036;stroke-width:1.875;" x1="991.875" x2="1083.125" y1="670" y2="670"/><!--MD5=[73677359b52d98a525977144c337a659]
class RegisterTestController--><rect fill="#FEFECE" filter="url(#f68t6oedyyh9u)" height="60" id="RegisterTestController" style="stroke:#A80036;stroke-width:1.875;" width="196.25" x="264.375" y="661.25"/><ellipse cx="283.125" cy="681.25" fill="#ADD1B2" rx="13.75" ry="13.75" style="stroke:#A80036;stroke-width:1.25;"/><path d="M285.625,676.875 Q285.8789,676.25 286.1719,675.9375 Q286.4648,675.625 286.7969,675.625 Q287.3828,675.625 287.7539,675.9766 Q288.125,676.3281 288.125,677.1484 L288.125,679.1016 Q288.125,679.9219 287.7734,680.2734 Q287.4219,680.625 286.875,680.625 Q286.3867,680.625 286.0742,680.4102 Q285.7617,680.1953 285.625,679.6289 Q285.5664,679.2383 285.3516,679.0234 Q284.9609,678.6133 284.2578,678.3789 Q283.5547,678.125 282.8516,678.125 Q281.9727,678.125 281.2305,678.4766 Q280.5078,678.8281 279.9414,679.6094 Q279.375,680.3906 279.375,681.4648 L279.375,682.6172 Q279.375,683.9063 280.4297,684.7656 Q281.4844,685.625 283.3594,685.625 Q284.4727,685.625 285.2539,685.3711 Q285.7031,685.2344 286.2109,684.7852 Q286.543,684.5313 286.7188,684.4531 Q286.8945,684.375 287.1094,684.375 Q287.5195,684.375 287.8125,684.707 Q288.125,685.0195 288.125,685.4688 Q288.125,685.8984 287.6953,686.4063 Q287.0703,687.1484 286.0742,687.5586 Q284.7656,688.125 283.1641,688.125 Q281.2891,688.125 279.7852,687.3828 Q278.5742,686.7969 277.7148,685.5273 Q276.875,684.2578 276.875,682.7539 L276.875,681.3867 Q276.875,679.8242 277.6172,678.457 Q278.3789,677.0898 279.6875,676.3672 Q281.0156,675.625 282.5,675.625 Q283.3984,675.625 284.1797,675.9375 Q284.9609,676.25 285.625,676.875 Z " fill="#000000"/><text fill="#000000" font-family="sans-serif" font-size="15" lengthAdjust="spacing" textLength="156.25" x="300.625" y="687.3877">RegisterTestController</text><line style="stroke:#A80036;stroke-width:1.875;" x1="265.625" x2="459.375" y1="701.25" y2="701.25"/><line style="stroke:#A80036;stroke-width:1.875;" x1="265.625" x2="459.375" y1="711.25" y2="711.25"/><!--MD5=[07c3e548422e387495c3c8d9d75f492d]
link RegisterSampleUI to TestDto--><path codeLine="39" d="M176.5125,555.85 C319.9625,568.4375 623.9875,596.2625 880,627.5 C914.8,631.75 953.825,637.3625 984.175,641.925 " fill="none" id="RegisterSampleUI-to-TestDto" style="stroke:#A80036;stroke-width:1.25;stroke-dasharray:7.0,7.0;"/><polygon fill="#A80036" points="990.5125,642.8875,980.1493,636.2417,984.3346,641.9412,978.6351,646.1265,990.5125,642.8875" style="stroke:#A80036;stroke-width:1.25;"/><!--MD5=[1fd0ba591eb1be9f2bf697253a9cf59d]
link RegisterSampleUI to RegisterSampleController--><path codeLine="40" d="M152.7875,518.675 C195.1875,497.075 252.35,467.9625 296.1,445.6875 " fill="none" id="RegisterSampleUI-to-RegisterSampleController" style="stroke:#A80036;stroke-width:1.25;stroke-dasharray:7.0,7.0;"/><polygon fill="#A80036" points="301.9,442.725,289.6063,443.3782,296.3314,445.5628,294.1468,452.288,301.9,442.725" style="stroke:#A80036;stroke-width:1.25;"/><!--MD5=[087583eb9f7d6f630307a2c35bbd1fe8]
link RegisterSampleController to Company--><path codeLine="42" d="M391.1125,382.2125 C434.55,334.6 522.5625,239.9125 602.5,165 C616.4125,151.9625 631.7,138.4625 646.5125,125.7625 " fill="none" id="RegisterSampleController-to-Company" style="stroke:#A80036;stroke-width:1.25;stroke-dasharray:7.0,7.0;"/><polygon fill="#A80036" points="651.5125,121.4875,639.7093,124.987,646.7583,125.5446,646.2007,132.5937,651.5125,121.4875" style="stroke:#A80036;stroke-width:1.25;"/><!--MD5=[fca5f2ea3f5ee27b453a67821cf477a4]
link RegisterSampleController to Sample--><path codeLine="43" d="M472.7125,434.2125 C485.275,436.625 497.9125,439.025 510,441.25 C563.8625,451.175 625.6375,461.7125 668.2875,468.85 " fill="none" id="RegisterSampleController-to-Sample" style="stroke:#A80036;stroke-width:1.25;stroke-dasharray:7.0,7.0;"/><polygon fill="#A80036" points="674.9625,469.9625,664.6971,463.1666,668.799,468.9263,663.0392,473.0282,674.9625,469.9625" style="stroke:#A80036;stroke-width:1.25;"/><!--MD5=[3041e131d70e7cca7ee2d4deeba13485]
link RegisterTestController to TestMapper--><path codeLine="44" d="M460.8,714.3625 C502.4,724.275 551.525,735.975 595.8,746.5125 " fill="none" id="RegisterTestController-to-TestMapper" style="stroke:#A80036;stroke-width:1.25;stroke-dasharray:7.0,7.0;"/><polygon fill="#A80036" points="602.2875,748.0625,592.4976,740.5979,596.2067,746.6181,590.1865,750.3272,602.2875,748.0625" style="stroke:#A80036;stroke-width:1.25;"/><!--MD5=[0124426fb7d9cfb155e8fe91801f2792]
link RegisterSampleController to Barcode--><path codeLine="45" d="M472.7625,397.9875 C534.1,389.825 608.3875,379.9375 659.55,373.125 " fill="none" id="RegisterSampleController-to-Barcode" style="stroke:#A80036;stroke-width:1.25;stroke-dasharray:7.0,7.0;"/><polygon fill="#A80036" points="665.9875,372.275,654.178,368.7968,659.7917,373.0963,655.4921,378.7101,665.9875,372.275" style="stroke:#A80036;stroke-width:1.25;"/><!--MD5=[1382c4b3c5706d54b32e047aceff6ce9]
link RegisterTestController to TestDto--><path codeLine="46" d="M460.825,685.3 C605.075,676.45 871.1125,660.125 983.7125,653.225 " fill="none" id="RegisterTestController-to-TestDto" style="stroke:#A80036;stroke-width:1.25;stroke-dasharray:7.0,7.0;"/><polygon fill="#A80036" points="990.2625,652.825,978.7325,648.5097,984.0238,653.2004,979.3331,658.4917,990.2625,652.825" style="stroke:#A80036;stroke-width:1.25;"/><!--MD5=[8d9a2c3ea1bf73d8d45b939465e53fff]
link TestMapper to Test--><path codeLine="47" d="M841.5,780.975 C864.1375,781.875 887.9125,782.825 910.7625,783.7375 " fill="none" id="TestMapper-to-Test" style="stroke:#A80036;stroke-width:1.25;stroke-dasharray:7.0,7.0;"/><polygon fill="#A80036" points="917.1875,784,906.1463,778.5544,910.9425,783.7502,905.7466,788.5464,917.1875,784" style="stroke:#A80036;stroke-width:1.25;"/><!--MD5=[34b2fed5845bf5a187f4983fcf3f57bc]
link TestMapper to TestDto--><path codeLine="48" d="M841.0625,728.7 C890.425,708.8 945.2625,686.6875 984.2125,670.9875 " fill="none" id="TestMapper-to-TestDto" style="stroke:#A80036;stroke-width:1.25;stroke-dasharray:7.0,7.0;"/><polygon fill="#A80036" points="990.3125,668.525,978.009,668.0934,984.5157,670.8616,981.7475,677.3683,990.3125,668.525" style="stroke:#A80036;stroke-width:1.25;"/><!--MD5=[7f6cf7f175eae0af66201860de5de971]
link Company to TestStore--><path codeLine="50" d="M721.875,121.475 C721.875,140.6125 721.875,161.925 721.875,180.8625 " fill="none" id="Company-to-TestStore" style="stroke:#A80036;stroke-width:1.25;"/><polygon fill="#A80036" points="721.875,187.1875,726.875,175.9375,721.875,180.9375,716.875,175.9375,721.875,187.1875" style="stroke:#A80036;stroke-width:1.25;"/><text fill="#000000" font-family="sans-serif" font-size="16.25" lengthAdjust="spacing" textLength="26.25" x="693.75" y="161.2439">use</text><text fill="#000000" font-family="sans-serif" font-size="16.25" lengthAdjust="spacing" textLength="8.75" x="712.5371" y="147.3473">1</text><text fill="#000000" font-family="sans-serif" font-size="16.25" lengthAdjust="spacing" textLength="8.75" x="712.3457" y="173.8342">1</text><!--MD5=[e25f5ae0a35c43e18a3db47bb88c25f1]
link TestStore to Sample--><path codeLine="51" d="M658.675,265.5875 C589.725,303.0875 495.1625,369.3 543.125,431.25 C572.0875,468.6625 627.075,478.3125 668.45,479.775 " fill="none" id="TestStore-to-Sample" style="stroke:#A80036;stroke-width:1.25;"/><polygon fill="#A80036" points="674.9625,479.9375,663.8447,474.65,668.7146,479.7768,663.5877,484.6467,674.9625,479.9375" style="stroke:#A80036;stroke-width:1.25;"/><text fill="#000000" font-family="sans-serif" font-size="16.25" lengthAdjust="spacing" textLength="46.25" x="514.375" y="426.8689">knows</text><text fill="#000000" font-family="sans-serif" font-size="16.25" lengthAdjust="spacing" textLength="8.75" x="639.9999" y="288.4801">1</text><text fill="#000000" font-family="sans-serif" font-size="16.25" lengthAdjust="spacing" textLength="6.25" x="658.8614" y="499.2983">*</text><!--MD5=[c88f814ecc8e75286b0c0023c0833471]
link TestMapper to TestStore--><path codeLine="52" d="M672.1625,728.35 C627.775,681.85 565.9125,606.8375 540,527.5 C527.7625,490.0375 531.075,393.05 602.5,303.75 C615.7625,287.1625 634.2,273.8125 652.6125,263.45 " fill="none" id="TestMapper-to-TestStore" style="stroke:#A80036;stroke-width:1.25;"/><polygon fill="#A80036" points="658.3125,260.325,646.0433,261.3394,652.8298,263.3253,650.8438,270.1118,658.3125,260.325" style="stroke:#A80036;stroke-width:1.25;"/><text fill="#000000" font-family="sans-serif" font-size="16.25" lengthAdjust="spacing" textLength="52.5" x="511.25" y="523.1189">access</text><text fill="#000000" font-family="sans-serif" font-size="16.25" lengthAdjust="spacing" textLength="8.75" x="654.1162" y="715.3403">1</text><text fill="#000000" font-family="sans-serif" font-size="16.25" lengthAdjust="spacing" textLength="6.25" x="642.6846" y="259.4087">*</text><!--MD5=[ac6f205277ca9d0c23ebd47e23950b94]
@startuml
'https://plantuml.com/sequence-diagram

skinparam classAttributeIconSize 0
left to right direction

class Barcode{
 +generateUPCA
}

class TestStore {
  + getTestList()
  + getTestById(test)
}

class Test {
  -Client client
  -String status
  -List parameterList
  +Test(client, testType, parameterList)
}

class Company {
  -String designation
  + Company(designation)
  + getTestStore()
}

class TestMapper {
  + List<TestDto> toDTO(List<Test> list)
  + TestDto toDTO(Test obj)
}

class RegisterSampleUI

class RegisterSampleController

class Sample

RegisterSampleUI ..> TestDto
RegisterSampleUI ..> RegisterSampleController

RegisterSampleController ..> Company
RegisterSampleController ..> Sample
RegisterTestController ..> TestMapper
RegisterSampleController ..> Barcode
RegisterTestController ..> TestDto
TestMapper ..> Test
TestMapper ..> TestDto

Company "1" -> "1" TestStore : use
TestStore"1" -> "*" Sample : knows
TestMapper"1"->"*" TestStore : access
@enduml

@startuml

skinparam classAttributeIconSize 0
left to right direction

class Barcode{
 +generateUPCA
}

class TestStore {
  + getTestList()
  + getTestById(test)
}

class Test {
  -Client client
  -String status
  -List parameterList
  +Test(client, testType, parameterList)
}

class Company {
  -String designation
  + Company(designation)
  + getTestStore()
}

class TestMapper {
  + List<TestDto> toDTO(List<Test> list)
  + TestDto toDTO(Test obj)
}

class RegisterSampleUI

class RegisterSampleController

class Sample

RegisterSampleUI ..> TestDto
RegisterSampleUI ..> RegisterSampleController

RegisterSampleController ..> Company
RegisterSampleController ..> Sample
RegisterTestController ..> TestMapper
RegisterSampleController ..> Barcode
RegisterTestController ..> TestDto
TestMapper ..> Test
TestMapper ..> TestDto

Company "1" -> "1" TestStore : use
TestStore"1" -> "*" Sample : knows
TestMapper"1"->"*" TestStore : access
@enduml

PlantUML version 1.2021.4(Sun Apr 04 09:49:39 BST 2021)
(GPL source distribution)
Java Runtime: OpenJDK Runtime Environment
JVM: Dynamic Code Evolution 64-Bit Server VM
Default Encoding: Cp1252
Language: pt
Country: PT
--></g></svg>