<?xml version="1.0" encoding="UTF-8" standalone="no"?><svg xmlns="http://www.w3.org/2000/svg" xmlns:xlink="http://www.w3.org/1999/xlink" contentScriptType="application/ecmascript" contentStyleType="text/css" height="551.25px" preserveAspectRatio="none" style="width:295px;height:551px;" version="1.1" viewBox="0 0 295 551" width="295px" zoomAndPan="magnify"><defs><filter height="300%" id="fmit0xvaeqiej" width="300%" x="-1" y="-1"><feGaussianBlur result="blurOut" stdDeviation="2.5"/><feColorMatrix in="blurOut" result="blurOut2" type="matrix" values="0 0 0 0 0 0 0 0 0 0 0 0 0 0 0 0 0 0 .4 0"/><feOffset dx="5.0" dy="5.0" in="blurOut2" result="blurOut3"/><feBlend in="SourceGraphic" in2="blurOut3" mode="normal"/></filter></defs><g><!--MD5=[02e4b9b7573f1156f41e60aa5b4e25a4]
class Company--><rect codeLine="18" fill="#FEFECE" filter="url(#fmit0xvaeqiej)" height="67.2949" id="Company" style="stroke:#A80036;stroke-width:1.875;" width="106.25" x="92.5" y="84.75"/><ellipse cx="111.25" cy="104.75" fill="#ADD1B2" rx="13.75" ry="13.75" style="stroke:#A80036;stroke-width:1.25;"/><path d="M113.75,100.375 Q114.0039,99.75 114.2969,99.4375 Q114.5898,99.125 114.9219,99.125 Q115.5078,99.125 115.8789,99.4766 Q116.25,99.8281 116.25,100.6484 L116.25,102.6016 Q116.25,103.4219 115.8984,103.7734 Q115.5469,104.125 115,104.125 Q114.5117,104.125 114.1992,103.9102 Q113.8867,103.6953 113.75,103.1289 Q113.6914,102.7383 113.4766,102.5234 Q113.0859,102.1133 112.3828,101.8789 Q111.6797,101.625 110.9766,101.625 Q110.0977,101.625 109.3555,101.9766 Q108.6328,102.3281 108.0664,103.1094 Q107.5,103.8906 107.5,104.9648 L107.5,106.1172 Q107.5,107.4063 108.5547,108.2656 Q109.6094,109.125 111.4844,109.125 Q112.5977,109.125 113.3789,108.8711 Q113.8281,108.7344 114.3359,108.2852 Q114.668,108.0313 114.8438,107.9531 Q115.0195,107.875 115.2344,107.875 Q115.6445,107.875 115.9375,108.207 Q116.25,108.5195 116.25,108.9688 Q116.25,109.3984 115.8203,109.9063 Q115.1953,110.6484 114.1992,111.0586 Q112.8906,111.625 111.2891,111.625 Q109.4141,111.625 107.9102,110.8828 Q106.6992,110.2969 105.8398,109.0273 Q105,107.7578 105,106.2539 L105,104.8867 Q105,103.3242 105.7422,101.957 Q106.5039,100.5898 107.8125,99.8672 Q109.1406,99.125 110.625,99.125 Q111.5234,99.125 112.3047,99.4375 Q113.0859,99.75 113.75,100.375 Z " fill="#000000"/><text fill="#000000" font-family="sans-serif" font-size="15" lengthAdjust="spacing" textLength="66.25" x="128.75" y="110.8877">Company</text><line style="stroke:#A80036;stroke-width:1.875;" x1="93.75" x2="197.5" y1="124.75" y2="124.75"/><text fill="#000000" font-family="sans-serif" font-size="13.75" lengthAdjust="spacing" textLength="73.75" x="100" y="144.0237">-designation</text><!--MD5=[f69a48f7b38bde3533dca6607cc4e94a]
class TypeOfTest--><rect codeLine="11" fill="#FEFECE" filter="url(#fmit0xvaeqiej)" height="101.8848" id="TypeOfTest" style="stroke:#A80036;stroke-width:1.875;" width="123.75" x="8.75" y="249.75"/><ellipse cx="30.3125" cy="269.75" fill="#ADD1B2" rx="13.75" ry="13.75" style="stroke:#A80036;stroke-width:1.25;"/><path d="M32.8125,265.375 Q33.0664,264.75 33.3594,264.4375 Q33.6523,264.125 33.9844,264.125 Q34.5703,264.125 34.9414,264.4766 Q35.3125,264.8281 35.3125,265.6484 L35.3125,267.6016 Q35.3125,268.4219 34.9609,268.7734 Q34.6094,269.125 34.0625,269.125 Q33.5742,269.125 33.2617,268.9102 Q32.9492,268.6953 32.8125,268.1289 Q32.7539,267.7383 32.5391,267.5234 Q32.1484,267.1133 31.4453,266.8789 Q30.7422,266.625 30.0391,266.625 Q29.1602,266.625 28.418,266.9766 Q27.6953,267.3281 27.1289,268.1094 Q26.5625,268.8906 26.5625,269.9648 L26.5625,271.1172 Q26.5625,272.4063 27.6172,273.2656 Q28.6719,274.125 30.5469,274.125 Q31.6602,274.125 32.4414,273.8711 Q32.8906,273.7344 33.3984,273.2852 Q33.7305,273.0313 33.9063,272.9531 Q34.082,272.875 34.2969,272.875 Q34.707,272.875 35,273.207 Q35.3125,273.5195 35.3125,273.9688 Q35.3125,274.3984 34.8828,274.9063 Q34.2578,275.6484 33.2617,276.0586 Q31.9531,276.625 30.3516,276.625 Q28.4766,276.625 26.9727,275.8828 Q25.7617,275.2969 24.9023,274.0273 Q24.0625,272.7578 24.0625,271.2539 L24.0625,269.8867 Q24.0625,268.3242 24.8047,266.957 Q25.5664,265.5898 26.875,264.8672 Q28.2031,264.125 29.6875,264.125 Q30.5859,264.125 31.3672,264.4375 Q32.1484,264.75 32.8125,265.375 Z " fill="#000000"/><text fill="#000000" font-family="sans-serif" font-size="15" lengthAdjust="spacing" textLength="77.5" x="48.4375" y="275.8877">TypeOfTest</text><line style="stroke:#A80036;stroke-width:1.875;" x1="10" x2="131.25" y1="289.75" y2="289.75"/><text fill="#000000" font-family="sans-serif" font-size="13.75" lengthAdjust="spacing" textLength="35" x="16.25" y="309.0237">-code</text><text fill="#000000" font-family="sans-serif" font-size="13.75" lengthAdjust="spacing" textLength="71.25" x="16.25" y="326.3186">-description</text><text fill="#000000" font-family="sans-serif" font-size="13.75" lengthAdjust="spacing" textLength="108.75" x="16.25" y="343.6135">-collecting method</text><!--MD5=[a96594a83e2ecdc78cbf17c2ddf01934]
class Category--><rect codeLine="22" fill="#FEFECE" filter="url(#fmit0xvaeqiej)" height="84.5898" id="Category" style="stroke:#A80036;stroke-width:1.875;" width="101.25" x="95" y="449.75"/><ellipse cx="113.75" cy="469.75" fill="#ADD1B2" rx="13.75" ry="13.75" style="stroke:#A80036;stroke-width:1.25;"/><path d="M116.25,465.375 Q116.5039,464.75 116.7969,464.4375 Q117.0898,464.125 117.4219,464.125 Q118.0078,464.125 118.3789,464.4766 Q118.75,464.8281 118.75,465.6484 L118.75,467.6016 Q118.75,468.4219 118.3984,468.7734 Q118.0469,469.125 117.5,469.125 Q117.0117,469.125 116.6992,468.9102 Q116.3867,468.6953 116.25,468.1289 Q116.1914,467.7383 115.9766,467.5234 Q115.5859,467.1133 114.8828,466.8789 Q114.1797,466.625 113.4766,466.625 Q112.5977,466.625 111.8555,466.9766 Q111.1328,467.3281 110.5664,468.1094 Q110,468.8906 110,469.9648 L110,471.1172 Q110,472.4063 111.0547,473.2656 Q112.1094,474.125 113.9844,474.125 Q115.0977,474.125 115.8789,473.8711 Q116.3281,473.7344 116.8359,473.2852 Q117.168,473.0313 117.3438,472.9531 Q117.5195,472.875 117.7344,472.875 Q118.1445,472.875 118.4375,473.207 Q118.75,473.5195 118.75,473.9688 Q118.75,474.3984 118.3203,474.9063 Q117.6953,475.6484 116.6992,476.0586 Q115.3906,476.625 113.7891,476.625 Q111.9141,476.625 110.4102,475.8828 Q109.1992,475.2969 108.3398,474.0273 Q107.5,472.7578 107.5,471.2539 L107.5,469.8867 Q107.5,468.3242 108.2422,466.957 Q109.0039,465.5898 110.3125,464.8672 Q111.6406,464.125 113.125,464.125 Q114.0234,464.125 114.8047,464.4375 Q115.5859,464.75 116.25,465.375 Z " fill="#000000"/><text fill="#000000" font-family="sans-serif" font-size="15" lengthAdjust="spacing" textLength="61.25" x="131.25" y="475.8877">Category</text><line style="stroke:#A80036;stroke-width:1.875;" x1="96.25" x2="195" y1="489.75" y2="489.75"/><text fill="#000000" font-family="sans-serif" font-size="13.75" lengthAdjust="spacing" textLength="35" x="102.5" y="509.0237">-code</text><text fill="#000000" font-family="sans-serif" font-size="13.75" lengthAdjust="spacing" textLength="37.5" x="102.5" y="526.3186">-name</text><!--MD5=[147acf42fe9475025d9b6f56a55be7cf]
link Company to TypeOfTest--><path codeLine="7" d="M123.4875,152.2625 C116.3125,163.7625 108.7625,177.0125 103.125,189.75 C94.75,208.6875 87.8125,230.4 82.525,249.4875 " fill="none" id="Company-TypeOfTest" style="stroke:#A80036;stroke-width:1.25;"/><polygon fill="#000000" points="106.9484,206.9794,114.7237,197.9864,107.9527,195.1337,106.9484,206.9794" style="stroke:#000000;stroke-width:1.25;"/><text fill="#000000" font-family="sans-serif" font-size="16.25" lengthAdjust="spacing" textLength="66.25" x="120.625" y="207.8689">conducts</text><text fill="#000000" font-family="sans-serif" font-size="16.25" lengthAdjust="spacing" textLength="8.75" x="108.9379" y="178.7749">1</text><text fill="#000000" font-family="sans-serif" font-size="16.25" lengthAdjust="spacing" textLength="6.25" x="77.7284" y="236.2557">*</text><!--MD5=[cc1f60f7fb1c702a98cbcc58aaecd7da]
link Company to Category--><path codeLine="8" d="M173.75,152.5125 C181.5875,163.6125 189.075,176.55 193.125,189.75 C206.1875,232.2375 282.55,7.5 181.875,412.25 C178.75,424.8125 173.6375,437.825 168.2125,449.5625 " fill="none" id="Company-Category" style="stroke:#A80036;stroke-width:1.25;"/><polygon fill="#000000" points="225.5085,307.4686,229.3923,296.2327,222.0462,296.0958,225.5085,307.4686" style="stroke:#000000;stroke-width:1.25;"/><text fill="#000000" font-family="sans-serif" font-size="16.25" lengthAdjust="spacing" textLength="48.75" x="236.875" y="307.8689">adopts</text><text fill="#000000" font-family="sans-serif" font-size="16.25" lengthAdjust="spacing" textLength="8.75" x="170.1953" y="179.0796">1</text><text fill="#000000" font-family="sans-serif" font-size="16.25" lengthAdjust="spacing" textLength="6.25" x="165.7942" y="436.1422">*</text><!--MD5=[9615660958ebc589219e60eb32c528b7]
link TypeOfTest to Category--><path codeLine="9" d="M90.525,352.3375 C102.5875,382.7 117.8,420.975 129.175,449.6125 " fill="none" id="TypeOfTest-Category" style="stroke:#A80036;stroke-width:1.25;"/><polygon fill="#000000" points="121.6828,407.028,120.922,395.1642,114.0939,397.8772,121.6828,407.028" style="stroke:#000000;stroke-width:1.25;"/><text fill="#000000" font-family="sans-serif" font-size="16.25" lengthAdjust="spacing" textLength="40" x="130.625" y="407.8689">has a</text><text fill="#000000" font-family="sans-serif" font-size="16.25" lengthAdjust="spacing" textLength="6.25" x="86.8437" y="378.6795">*</text><text fill="#000000" font-family="sans-serif" font-size="16.25" lengthAdjust="spacing" textLength="8.75" x="116.3251" y="436.202">1</text><!--MD5=[6bb40b65d81dcc3d37feab54ca121b40]
@startuml
'https://plantuml.com/sequence-diagram
hide methods
skinparam classAttributeIconSize 0



Company"1" - - "*"TypeOfTest:> conducts
Company"1" - - "*"Category :> adopts
TypeOfTest"*" - - "1"Category :> has a

class TypeOfTest{
-code
-description
-collecting method
}


class Company{
-designation
}

class Category{
    -code
    -name
}
@enduml

@startuml
hide methods
skinparam classAttributeIconSize 0



Company"1" - - "*"TypeOfTest:> conducts
Company"1" - - "*"Category :> adopts
TypeOfTest"*" - - "1"Category :> has a

class TypeOfTest{
-code
-description
-collecting method
}


class Company{
-designation
}

class Category{
    -code
    -name
}
@enduml

PlantUML version 1.2021.4(Sun Apr 04 09:49:39 BST 2021)
(GPL source distribution)
Java Runtime: OpenJDK Runtime Environment
JVM: Dynamic Code Evolution 64-Bit Server VM
Default Encoding: Cp1252
Language: pt
Country: PT
--></g></svg>