<?xml version="1.0" encoding="UTF-8" standalone="no"?><svg xmlns="http://www.w3.org/2000/svg" xmlns:xlink="http://www.w3.org/1999/xlink" contentScriptType="application/ecmascript" contentStyleType="text/css" height="691.25px" preserveAspectRatio="none" style="width:425px;height:691px;" version="1.1" viewBox="0 0 425 691" width="425px" zoomAndPan="magnify"><defs><filter height="300%" id="fcqwrbm9k4csw" width="300%" x="-1" y="-1"><feGaussianBlur result="blurOut" stdDeviation="2.5"/><feColorMatrix in="blurOut" result="blurOut2" type="matrix" values="0 0 0 0 0 0 0 0 0 0 0 0 0 0 0 0 0 0 .4 0"/><feOffset dx="5.0" dy="5.0" in="blurOut2" result="blurOut3"/><feBlend in="SourceGraphic" in2="blurOut3" mode="normal"/></filter></defs><g><!--MD5=[02e4b9b7573f1156f41e60aa5b4e25a4]
class Company--><rect codeLine="26" fill="#FEFECE" filter="url(#fcqwrbm9k4csw)" height="67.2949" id="Company" style="stroke:#A80036;stroke-width:1.875;" width="106.25" x="163.1375" y="8.75"/><ellipse cx="181.8875" cy="28.75" fill="#ADD1B2" rx="13.75" ry="13.75" style="stroke:#A80036;stroke-width:1.25;"/><path d="M184.3875,24.375 Q184.6414,23.75 184.9344,23.4375 Q185.2273,23.125 185.5594,23.125 Q186.1453,23.125 186.5164,23.4766 Q186.8875,23.8281 186.8875,24.6484 L186.8875,26.6016 Q186.8875,27.4219 186.5359,27.7734 Q186.1844,28.125 185.6375,28.125 Q185.1492,28.125 184.8367,27.9102 Q184.5242,27.6953 184.3875,27.1289 Q184.3289,26.7383 184.1141,26.5234 Q183.7234,26.1133 183.0203,25.8789 Q182.3172,25.625 181.6141,25.625 Q180.7352,25.625 179.993,25.9766 Q179.2703,26.3281 178.7039,27.1094 Q178.1375,27.8906 178.1375,28.9648 L178.1375,30.1172 Q178.1375,31.4063 179.1922,32.2656 Q180.2469,33.125 182.1219,33.125 Q183.2352,33.125 184.0164,32.8711 Q184.4656,32.7344 184.9734,32.2852 Q185.3055,32.0313 185.4813,31.9531 Q185.657,31.875 185.8719,31.875 Q186.282,31.875 186.575,32.207 Q186.8875,32.5195 186.8875,32.9688 Q186.8875,33.3984 186.4578,33.9063 Q185.8328,34.6484 184.8367,35.0586 Q183.5281,35.625 181.9266,35.625 Q180.0516,35.625 178.5477,34.8828 Q177.3367,34.2969 176.4773,33.0273 Q175.6375,31.7578 175.6375,30.2539 L175.6375,28.8867 Q175.6375,27.3242 176.3797,25.957 Q177.1414,24.5898 178.45,23.8672 Q179.7781,23.125 181.2625,23.125 Q182.1609,23.125 182.9422,23.4375 Q183.7234,23.75 184.3875,24.375 Z " fill="#000000"/><text fill="#000000" font-family="sans-serif" font-size="15" lengthAdjust="spacing" textLength="66.25" x="199.3875" y="34.8877">Company</text><line style="stroke:#A80036;stroke-width:1.875;" x1="164.3875" x2="268.1375" y1="48.75" y2="48.75"/><text fill="#000000" font-family="sans-serif" font-size="13.75" lengthAdjust="spacing" textLength="73.75" x="170.6375" y="68.0237">-designation</text><!--MD5=[db6d18d8099558415abc41d00477ab92]
class Admin--><rect codeLine="19" fill="#FEFECE" filter="url(#fcqwrbm9k4csw)" height="119.1797" id="Admin" style="stroke:#A80036;stroke-width:1.875;" width="83.75" x="44.3875" y="173.75"/><ellipse cx="63.1375" cy="193.75" fill="#ADD1B2" rx="13.75" ry="13.75" style="stroke:#A80036;stroke-width:1.25;"/><path d="M65.6375,189.375 Q65.8914,188.75 66.1844,188.4375 Q66.4773,188.125 66.8094,188.125 Q67.3953,188.125 67.7664,188.4766 Q68.1375,188.8281 68.1375,189.6484 L68.1375,191.6016 Q68.1375,192.4219 67.7859,192.7734 Q67.4344,193.125 66.8875,193.125 Q66.3992,193.125 66.0867,192.9102 Q65.7742,192.6953 65.6375,192.1289 Q65.5789,191.7383 65.3641,191.5234 Q64.9734,191.1133 64.2703,190.8789 Q63.5672,190.625 62.8641,190.625 Q61.9852,190.625 61.243,190.9766 Q60.5203,191.3281 59.9539,192.1094 Q59.3875,192.8906 59.3875,193.9648 L59.3875,195.1172 Q59.3875,196.4063 60.4422,197.2656 Q61.4969,198.125 63.3719,198.125 Q64.4852,198.125 65.2664,197.8711 Q65.7156,197.7344 66.2234,197.2852 Q66.5555,197.0313 66.7313,196.9531 Q66.907,196.875 67.1219,196.875 Q67.532,196.875 67.825,197.207 Q68.1375,197.5195 68.1375,197.9688 Q68.1375,198.3984 67.7078,198.9063 Q67.0828,199.6484 66.0867,200.0586 Q64.7781,200.625 63.1766,200.625 Q61.3016,200.625 59.7977,199.8828 Q58.5867,199.2969 57.7273,198.0273 Q56.8875,196.7578 56.8875,195.2539 L56.8875,193.8867 Q56.8875,192.3242 57.6297,190.957 Q58.3914,189.5898 59.7,188.8672 Q61.0281,188.125 62.5125,188.125 Q63.4109,188.125 64.1922,188.4375 Q64.9734,188.75 65.6375,189.375 Z " fill="#000000"/><text fill="#000000" font-family="sans-serif" font-size="15" lengthAdjust="spacing" textLength="43.75" x="80.6375" y="199.8877">Admin</text><line style="stroke:#A80036;stroke-width:1.875;" x1="45.6375" x2="126.8875" y1="213.75" y2="213.75"/><text fill="#000000" font-family="sans-serif" font-size="13.75" lengthAdjust="spacing" textLength="37.5" x="51.8875" y="233.0237">-name</text><text fill="#000000" font-family="sans-serif" font-size="13.75" lengthAdjust="spacing" textLength="53.75" x="51.8875" y="250.3186">-function</text><text fill="#000000" font-family="sans-serif" font-size="13.75" lengthAdjust="spacing" textLength="42.5" x="51.8875" y="267.6135">-phone</text><text fill="#000000" font-family="sans-serif" font-size="13.75" lengthAdjust="spacing" textLength="35" x="51.8875" y="284.9084">-email</text><!--MD5=[f69a48f7b38bde3533dca6607cc4e94a]
class TypeOfTest--><rect codeLine="13" fill="#FEFECE" filter="url(#fcqwrbm9k4csw)" height="101.8848" id="TypeOfTest" style="stroke:#A80036;stroke-width:1.875;" width="123.75" x="155.6375" y="390"/><ellipse cx="177.2" cy="410" fill="#ADD1B2" rx="13.75" ry="13.75" style="stroke:#A80036;stroke-width:1.25;"/><path d="M179.7,405.625 Q179.9539,405 180.2469,404.6875 Q180.5398,404.375 180.8719,404.375 Q181.4578,404.375 181.8289,404.7266 Q182.2,405.0781 182.2,405.8984 L182.2,407.8516 Q182.2,408.6719 181.8484,409.0234 Q181.4969,409.375 180.95,409.375 Q180.4617,409.375 180.1492,409.1602 Q179.8367,408.9453 179.7,408.3789 Q179.6414,407.9883 179.4266,407.7734 Q179.0359,407.3633 178.3328,407.1289 Q177.6297,406.875 176.9266,406.875 Q176.0477,406.875 175.3055,407.2266 Q174.5828,407.5781 174.0164,408.3594 Q173.45,409.1406 173.45,410.2148 L173.45,411.3672 Q173.45,412.6563 174.5047,413.5156 Q175.5594,414.375 177.4344,414.375 Q178.5477,414.375 179.3289,414.1211 Q179.7781,413.9844 180.2859,413.5352 Q180.618,413.2813 180.7938,413.2031 Q180.9695,413.125 181.1844,413.125 Q181.5945,413.125 181.8875,413.457 Q182.2,413.7695 182.2,414.2188 Q182.2,414.6484 181.7703,415.1563 Q181.1453,415.8984 180.1492,416.3086 Q178.8406,416.875 177.2391,416.875 Q175.3641,416.875 173.8602,416.1328 Q172.6492,415.5469 171.7898,414.2773 Q170.95,413.0078 170.95,411.5039 L170.95,410.1367 Q170.95,408.5742 171.6922,407.207 Q172.4539,405.8398 173.7625,405.1172 Q175.0906,404.375 176.575,404.375 Q177.4734,404.375 178.2547,404.6875 Q179.0359,405 179.7,405.625 Z " fill="#000000"/><text fill="#000000" font-family="sans-serif" font-size="15" lengthAdjust="spacing" textLength="77.5" x="195.325" y="416.1377">TypeOfTest</text><line style="stroke:#A80036;stroke-width:1.875;" x1="156.8875" x2="278.1375" y1="430" y2="430"/><text fill="#000000" font-family="sans-serif" font-size="13.75" lengthAdjust="spacing" textLength="35" x="163.1375" y="449.2737">-code</text><text fill="#000000" font-family="sans-serif" font-size="13.75" lengthAdjust="spacing" textLength="71.25" x="163.1375" y="466.5686">-description</text><text fill="#000000" font-family="sans-serif" font-size="13.75" lengthAdjust="spacing" textLength="108.75" x="163.1375" y="483.8635">-collecting method</text><!--MD5=[a96594a83e2ecdc78cbf17c2ddf01934]
class Category--><rect codeLine="30" fill="#FEFECE" filter="url(#fcqwrbm9k4csw)" height="84.5898" id="Category" style="stroke:#A80036;stroke-width:1.875;" width="101.25" x="166.8875" y="590"/><ellipse cx="185.6375" cy="610" fill="#ADD1B2" rx="13.75" ry="13.75" style="stroke:#A80036;stroke-width:1.25;"/><path d="M188.1375,605.625 Q188.3914,605 188.6844,604.6875 Q188.9773,604.375 189.3094,604.375 Q189.8953,604.375 190.2664,604.7266 Q190.6375,605.0781 190.6375,605.8984 L190.6375,607.8516 Q190.6375,608.6719 190.2859,609.0234 Q189.9344,609.375 189.3875,609.375 Q188.8992,609.375 188.5867,609.1602 Q188.2742,608.9453 188.1375,608.3789 Q188.0789,607.9883 187.8641,607.7734 Q187.4734,607.3633 186.7703,607.1289 Q186.0672,606.875 185.3641,606.875 Q184.4852,606.875 183.743,607.2266 Q183.0203,607.5781 182.4539,608.3594 Q181.8875,609.1406 181.8875,610.2148 L181.8875,611.3672 Q181.8875,612.6563 182.9422,613.5156 Q183.9969,614.375 185.8719,614.375 Q186.9852,614.375 187.7664,614.1211 Q188.2156,613.9844 188.7234,613.5352 Q189.0555,613.2813 189.2313,613.2031 Q189.407,613.125 189.6219,613.125 Q190.032,613.125 190.325,613.457 Q190.6375,613.7695 190.6375,614.2188 Q190.6375,614.6484 190.2078,615.1563 Q189.5828,615.8984 188.5867,616.3086 Q187.2781,616.875 185.6766,616.875 Q183.8016,616.875 182.2977,616.1328 Q181.0867,615.5469 180.2273,614.2773 Q179.3875,613.0078 179.3875,611.5039 L179.3875,610.1367 Q179.3875,608.5742 180.1297,607.207 Q180.8914,605.8398 182.2,605.1172 Q183.5281,604.375 185.0125,604.375 Q185.9109,604.375 186.6922,604.6875 Q187.4734,605 188.1375,605.625 Z " fill="#000000"/><text fill="#000000" font-family="sans-serif" font-size="15" lengthAdjust="spacing" textLength="61.25" x="203.1375" y="616.1377">Category</text><line style="stroke:#A80036;stroke-width:1.875;" x1="168.1375" x2="266.8875" y1="630" y2="630"/><text fill="#000000" font-family="sans-serif" font-size="13.75" lengthAdjust="spacing" textLength="35" x="174.3875" y="649.2737">-code</text><text fill="#000000" font-family="sans-serif" font-size="13.75" lengthAdjust="spacing" textLength="37.5" x="174.3875" y="666.5686">-name</text><!--MD5=[f1c2b2c569abc5f56c317b9d8f3fddee]
link Company to Admin--><path codeLine="6" d="M162.9375,64.825 C141.2,76.1125 117.9,92.2125 103.7625,113.75 C92.275,131.2625 87.1375,153.3375 85.1125,173.65 " fill="none" id="Company-Admin" style="stroke:#A80036;stroke-width:1.25;"/><polygon fill="#000000" points="106.3769,130.3035,115.9419,123.2438,109.9656,118.9699,106.3769,130.3035" style="stroke:#000000;stroke-width:1.25;"/><text fill="#000000" font-family="sans-serif" font-size="16.25" lengthAdjust="spacing" textLength="61.25" x="121.2625" y="131.8689">employs</text><text fill="#000000" font-family="sans-serif" font-size="16.25" lengthAdjust="spacing" textLength="8.75" x="144.2703" y="63.8676">1</text><text fill="#000000" font-family="sans-serif" font-size="16.25" lengthAdjust="spacing" textLength="6.25" x="78.2346" y="160.3155">*</text><!--MD5=[147acf42fe9475025d9b6f56a55be7cf]
link Company to TypeOfTest--><path codeLine="7" d="M216.375,76.5125 C216.5875,145.775 217.1,307.4125 217.3625,389.8 " fill="none" id="Company-TypeOfTest" style="stroke:#A80036;stroke-width:1.25;"/><polygon fill="#000000" points="223.7822,239.5947,227.4202,228.2768,220.0729,228.3,223.7822,239.5947" style="stroke:#000000;stroke-width:1.25;"/><text fill="#000000" font-family="sans-serif" font-size="16.25" lengthAdjust="spacing" textLength="66.25" x="235.0125" y="239.9939">conducts</text><text fill="#000000" font-family="sans-serif" font-size="16.25" lengthAdjust="spacing" textLength="8.75" x="206.6926" y="103.0796">1</text><text fill="#000000" font-family="sans-serif" font-size="16.25" lengthAdjust="spacing" textLength="6.25" x="210.5701" y="376.5786">*</text><!--MD5=[cc1f60f7fb1c702a98cbcc58aaecd7da]
link Company to Category--><path codeLine="8" d="M250.05,76.6375 C272.5625,101.0375 300.2,136.4125 312.5125,173.75 C365.375,333.9875 364.3875,402.9375 286.2625,552.5 C279.375,565.6875 269.85,578.5125 260.075,589.85 " fill="none" id="Company-Category" style="stroke:#A80036;stroke-width:1.25;"/><polygon fill="#000000" points="355.1346,347.7185,358.5867,336.3426,351.2408,336.4861,355.1346,347.7185" style="stroke:#000000;stroke-width:1.25;"/><text fill="#000000" font-family="sans-serif" font-size="16.25" lengthAdjust="spacing" textLength="48.75" x="366.2625" y="348.1189">adopts</text><text fill="#000000" font-family="sans-serif" font-size="16.25" lengthAdjust="spacing" textLength="8.75" x="247.3663" y="102.6762">1</text><text fill="#000000" font-family="sans-serif" font-size="16.25" lengthAdjust="spacing" textLength="6.25" x="261.5893" y="576.4371">*</text><!--MD5=[00132b83b0561ffb36085aadf1cf93dd]
link Admin to TypeOfTest--><path codeLine="9" d="M77,293.025 C76.5,312.95 79.075,334.65 88.7625,352.5 C96.6625,367.05 126.4875,387.7125 155.4375,405.3 " fill="none" id="Admin-TypeOfTest" style="stroke:#A80036;stroke-width:1.25;"/><polygon fill="#000000" points="91.4331,336.3462,94.8968,347.7187,100.9198,343.5108,91.4331,336.3462" style="stroke:#000000;stroke-width:1.25;"/><text fill="#000000" font-family="sans-serif" font-size="16.25" lengthAdjust="spacing" textLength="76.25" x="106.2625" y="348.1189">created by</text><text fill="#000000" font-family="sans-serif" font-size="16.25" lengthAdjust="spacing" textLength="8.75" x="66.3322" y="319.7243">1</text><text fill="#000000" font-family="sans-serif" font-size="16.25" lengthAdjust="spacing" textLength="6.25" x="139.2037" y="395.2136">*</text><!--MD5=[9615660958ebc589219e60eb32c528b7]
link TypeOfTest to Category--><path codeLine="10" d="M217.5125,492.5875 C217.5125,522.95 217.5125,561.225 217.5125,589.8625 " fill="none" id="TypeOfTest-Category" style="stroke:#A80036;stroke-width:1.25;"/><polygon fill="#000000" points="223.7625,547.7197,227.4362,536.4134,220.0888,536.4134,223.7625,547.7197" style="stroke:#000000;stroke-width:1.25;"/><text fill="#000000" font-family="sans-serif" font-size="16.25" lengthAdjust="spacing" textLength="40" x="235.0125" y="548.1189">has a</text><text fill="#000000" font-family="sans-serif" font-size="16.25" lengthAdjust="spacing" textLength="6.25" x="210.784" y="518.9295">*</text><text fill="#000000" font-family="sans-serif" font-size="16.25" lengthAdjust="spacing" textLength="8.75" x="207.9012" y="576.452">1</text><!--MD5=[e1157d990c71223888f6eba0861fc13e]
link Admin to Category--><path codeLine="11" d="M55.875,292.5375 C31.9875,346.775 7.5,428.6625 38.7625,492.5 C65.2,546.4875 123.8875,585.5 166.825,608.1625 " fill="none" id="Admin-Category" style="stroke:#A80036;stroke-width:1.25;"/><polygon fill="#000000" points="42.9398,435.5734,43.2236,447.4582,50.1551,445.0216,42.9398,435.5734" style="stroke:#000000;stroke-width:1.25;"/><text fill="#000000" font-family="sans-serif" font-size="16.25" lengthAdjust="spacing" textLength="76.25" x="56.2625" y="448.1189">created by</text><text fill="#000000" font-family="sans-serif" font-size="16.25" lengthAdjust="spacing" textLength="8.75" x="42.0193" y="319.6021">1</text><text fill="#000000" font-family="sans-serif" font-size="16.25" lengthAdjust="spacing" textLength="6.25" x="150.6533" y="598.7787">*</text><!--MD5=[cb22d362719884191b2f5118ba961bb0]
@startuml
'https://plantuml.com/sequence-diagram
hide methods
skinparam classAttributeIconSize 0


Company"1" - - "*"Admin :> employs
Company"1" - - "*"TypeOfTest:> conducts
Company"1" - - "*"Category :> adopts
Admin"1" - - "*"TypeOfTest :< created by
TypeOfTest"*" - - "1"Category :> has a
Admin"1" - - "*"Category :< created by

class TypeOfTest{
-code
-description
-collecting method
}

class Admin{
  -name
  -function
  -phone
  -email
}

class Company{
-designation
}

class Category{
    -code
    -name
}
@enduml

@startuml
hide methods
skinparam classAttributeIconSize 0


Company"1" - - "*"Admin :> employs
Company"1" - - "*"TypeOfTest:> conducts
Company"1" - - "*"Category :> adopts
Admin"1" - - "*"TypeOfTest :< created by
TypeOfTest"*" - - "1"Category :> has a
Admin"1" - - "*"Category :< created by

class TypeOfTest{
-code
-description
-collecting method
}

class Admin{
  -name
  -function
  -phone
  -email
}

class Company{
-designation
}

class Category{
    -code
    -name
}
@enduml

PlantUML version 1.2021.4(Sun Apr 04 09:49:39 BST 2021)
(GPL source distribution)
Java Runtime: OpenJDK Runtime Environment
JVM: Dynamic Code Evolution 64-Bit Server VM
Default Encoding: Cp1252
Language: pt
Country: PT
--></g></svg>