<?xml version="1.0" encoding="UTF-8" standalone="no"?><svg xmlns="http://www.w3.org/2000/svg" xmlns:xlink="http://www.w3.org/1999/xlink" contentScriptType="application/ecmascript" contentStyleType="text/css" height="380px" preserveAspectRatio="none" style="width:143px;height:380px;" version="1.1" viewBox="0 0 143 380" width="143px" zoomAndPan="magnify"><defs><filter height="300%" id="fw32y66kzofod" width="300%" x="-1" y="-1"><feGaussianBlur result="blurOut" stdDeviation="2.0"/><feColorMatrix in="blurOut" result="blurOut2" type="matrix" values="0 0 0 0 0 0 0 0 0 0 0 0 0 0 0 0 0 0 .4 0"/><feOffset dx="4.0" dy="4.0" in="blurOut2" result="blurOut3"/><feBlend in="SourceGraphic" in2="blurOut3" mode="normal"/></filter></defs><g><!--MD5=[7d96fd15f3014691d2fcaf89c5791e2a]
class SpecialistDoctor--><rect codeLine="4" fill="#FEFECE" filter="url(#fw32y66kzofod)" height="53.8359" id="SpecialistDoctor" style="stroke:#A80036;stroke-width:1.5;" width="122" x="7" y="167"/><ellipse cx="22" cy="183" fill="#ADD1B2" rx="11" ry="11" style="stroke:#A80036;stroke-width:1.0;"/><path d="M24,179.5 Q24.2031,179 24.4375,178.75 Q24.6719,178.5 24.9375,178.5 Q25.4063,178.5 25.7031,178.7813 Q26,179.0625 26,179.7188 L26,181.2813 Q26,181.9375 25.7188,182.2188 Q25.4375,182.5 25,182.5 Q24.6094,182.5 24.3594,182.3281 Q24.1094,182.1563 24,181.7031 Q23.9531,181.3906 23.7813,181.2188 Q23.4688,180.8906 22.9063,180.7031 Q22.3438,180.5 21.7813,180.5 Q21.0781,180.5 20.4844,180.7813 Q19.9063,181.0625 19.4531,181.6875 Q19,182.3125 19,183.1719 L19,184.0938 Q19,185.125 19.8438,185.8125 Q20.6875,186.5 22.1875,186.5 Q23.0781,186.5 23.7031,186.2969 Q24.0625,186.1875 24.4688,185.8281 Q24.7344,185.625 24.875,185.5625 Q25.0156,185.5 25.1875,185.5 Q25.5156,185.5 25.75,185.7656 Q26,186.0156 26,186.375 Q26,186.7188 25.6563,187.125 Q25.1563,187.7188 24.3594,188.0469 Q23.3125,188.5 22.0313,188.5 Q20.5313,188.5 19.3281,187.9063 Q18.3594,187.4375 17.6719,186.4219 Q17,185.4063 17,184.2031 L17,183.1094 Q17,181.8594 17.5938,180.7656 Q18.2031,179.6719 19.25,179.0938 Q20.3125,178.5 21.5,178.5 Q22.2188,178.5 22.8438,178.75 Q23.4688,179 24,179.5 Z " fill="#000000"/><text fill="#000000" font-family="sans-serif" font-size="12" lengthAdjust="spacing" textLength="90" x="36" y="187.9102">SpecialistDoctor</text><line style="stroke:#A80036;stroke-width:1.5;" x1="8" x2="128" y1="199" y2="199"/><rect fill="none" height="6" style="stroke:#C82930;stroke-width:1.0;" width="6" x="15" y="207"/><text fill="#000000" font-family="sans-serif" font-size="11" lengthAdjust="spacing" textLength="94" x="27" y="214.4189">doctorIndexNumber</text><!--MD5=[f00dbe8c0302c6aec2cb26b3c659c8fc]
class Report--><rect codeLine="8" fill="#FEFECE" filter="url(#fw32y66kzofod)" height="67.6719" id="Report" style="stroke:#A80036;stroke-width:1.5;" width="74" x="31" y="299"/><ellipse cx="48.25" cy="315" fill="#ADD1B2" rx="11" ry="11" style="stroke:#A80036;stroke-width:1.0;"/><path d="M50.25,311.5 Q50.4531,311 50.6875,310.75 Q50.9219,310.5 51.1875,310.5 Q51.6563,310.5 51.9531,310.7813 Q52.25,311.0625 52.25,311.7188 L52.25,313.2813 Q52.25,313.9375 51.9688,314.2188 Q51.6875,314.5 51.25,314.5 Q50.8594,314.5 50.6094,314.3281 Q50.3594,314.1563 50.25,313.7031 Q50.2031,313.3906 50.0313,313.2188 Q49.7188,312.8906 49.1563,312.7031 Q48.5938,312.5 48.0313,312.5 Q47.3281,312.5 46.7344,312.7813 Q46.1563,313.0625 45.7031,313.6875 Q45.25,314.3125 45.25,315.1719 L45.25,316.0938 Q45.25,317.125 46.0938,317.8125 Q46.9375,318.5 48.4375,318.5 Q49.3281,318.5 49.9531,318.2969 Q50.3125,318.1875 50.7188,317.8281 Q50.9844,317.625 51.125,317.5625 Q51.2656,317.5 51.4375,317.5 Q51.7656,317.5 52,317.7656 Q52.25,318.0156 52.25,318.375 Q52.25,318.7188 51.9063,319.125 Q51.4063,319.7188 50.6094,320.0469 Q49.5625,320.5 48.2813,320.5 Q46.7813,320.5 45.5781,319.9063 Q44.6094,319.4375 43.9219,318.4219 Q43.25,317.4063 43.25,316.2031 L43.25,315.1094 Q43.25,313.8594 43.8438,312.7656 Q44.4531,311.6719 45.5,311.0938 Q46.5625,310.5 47.75,310.5 Q48.4688,310.5 49.0938,310.75 Q49.7188,311 50.25,311.5 Z " fill="#000000"/><text fill="#000000" font-family="sans-serif" font-size="12" lengthAdjust="spacing" textLength="37" x="62.75" y="319.9102">Report</text><line style="stroke:#A80036;stroke-width:1.5;" x1="32" x2="104" y1="331" y2="331"/><rect fill="none" height="6" style="stroke:#C82930;stroke-width:1.0;" width="6" x="39" y="339"/><text fill="#000000" font-family="sans-serif" font-size="11" lengthAdjust="spacing" textLength="48" x="51" y="346.4189">createdAt</text><rect fill="none" height="6" style="stroke:#C82930;stroke-width:1.0;" width="6" x="39" y="352.8359"/><text fill="#000000" font-family="sans-serif" font-size="11" lengthAdjust="spacing" textLength="46" x="51" y="360.2549">diagnosis</text><!--MD5=[2741598bdf59a7d7e0d5c97658fd3022]
class Result--><rect codeLine="13" fill="#FEFECE" filter="url(#fw32y66kzofod)" height="81.5078" id="Result" style="stroke:#A80036;stroke-width:1.5;" width="74" x="31" y="7"/><ellipse cx="48.7" cy="23" fill="#ADD1B2" rx="11" ry="11" style="stroke:#A80036;stroke-width:1.0;"/><path d="M50.7,19.5 Q50.9031,19 51.1375,18.75 Q51.3719,18.5 51.6375,18.5 Q52.1063,18.5 52.4031,18.7813 Q52.7,19.0625 52.7,19.7188 L52.7,21.2813 Q52.7,21.9375 52.4188,22.2188 Q52.1375,22.5 51.7,22.5 Q51.3094,22.5 51.0594,22.3281 Q50.8094,22.1563 50.7,21.7031 Q50.6531,21.3906 50.4813,21.2188 Q50.1688,20.8906 49.6063,20.7031 Q49.0438,20.5 48.4813,20.5 Q47.7781,20.5 47.1844,20.7813 Q46.6063,21.0625 46.1531,21.6875 Q45.7,22.3125 45.7,23.1719 L45.7,24.0938 Q45.7,25.125 46.5438,25.8125 Q47.3875,26.5 48.8875,26.5 Q49.7781,26.5 50.4031,26.2969 Q50.7625,26.1875 51.1688,25.8281 Q51.4344,25.625 51.575,25.5625 Q51.7156,25.5 51.8875,25.5 Q52.2156,25.5 52.45,25.7656 Q52.7,26.0156 52.7,26.375 Q52.7,26.7188 52.3563,27.125 Q51.8563,27.7188 51.0594,28.0469 Q50.0125,28.5 48.7313,28.5 Q47.2313,28.5 46.0281,27.9063 Q45.0594,27.4375 44.3719,26.4219 Q43.7,25.4063 43.7,24.2031 L43.7,23.1094 Q43.7,21.8594 44.2938,20.7656 Q44.9031,19.6719 45.95,19.0938 Q47.0125,18.5 48.2,18.5 Q48.9188,18.5 49.5438,18.75 Q50.1688,19 50.7,19.5 Z " fill="#000000"/><text fill="#000000" font-family="sans-serif" font-size="12" lengthAdjust="spacing" textLength="36" x="63.3" y="27.9102">Result</text><line style="stroke:#A80036;stroke-width:1.5;" x1="32" x2="104" y1="39" y2="39"/><rect fill="none" height="6" style="stroke:#C82930;stroke-width:1.0;" width="6" x="39" y="47"/><text fill="#000000" font-family="sans-serif" font-size="11" lengthAdjust="spacing" textLength="48" x="51" y="54.4189">createdAt</text><rect fill="none" height="6" style="stroke:#C82930;stroke-width:1.0;" width="6" x="39" y="60.8359"/><text fill="#000000" font-family="sans-serif" font-size="11" lengthAdjust="spacing" textLength="26" x="51" y="68.2549">value</text><rect fill="none" height="6" style="stroke:#C82930;stroke-width:1.0;" width="6" x="39" y="74.6719"/><text fill="#000000" font-family="sans-serif" font-size="11" lengthAdjust="spacing" textLength="29" x="51" y="82.0908">metric</text><!--MD5=[35c5d5b78cc27fdb07caaeeaa436e174]
link SpecialistDoctor to Report--><path codeLine="19" d="M68,221.09 C68,243.22 68,275.08 68,298.98 " fill="none" id="SpecialistDoctor-Report" style="stroke:#A80036;stroke-width:1.0;"/><polygon fill="#000000" points="73,265.1758,75.9389,256.1307,70.0611,256.1307,73,265.1758" style="stroke:#000000;stroke-width:1.0;"/><text fill="#000000" font-family="sans-serif" font-size="13" lengthAdjust="spacing" textLength="27" x="82" y="265.4951">write</text><text fill="#000000" font-family="sans-serif" font-size="13" lengthAdjust="spacing" textLength="20" x="45.8125" y="242.3175">1..*</text><text fill="#000000" font-family="sans-serif" font-size="13" lengthAdjust="spacing" textLength="5" x="62.5078" y="288.2693">*</text><!--MD5=[572e1dbcb3b14d0f86bd4ff523e1b168]
link Result to SpecialistDoctor--><path codeLine="20" d="M68,89.11 C68,113.91 68,145.04 68,166.72 " fill="none" id="Result-SpecialistDoctor" style="stroke:#A80036;stroke-width:1.0;"/><polygon fill="#000000" points="73,123.1758,70.0611,132.2209,75.9389,132.2209,73,123.1758" style="stroke:#000000;stroke-width:1.0;"/><text fill="#000000" font-family="sans-serif" font-size="13" lengthAdjust="spacing" textLength="42" x="82" y="133.4951">checks</text><text fill="#000000" font-family="sans-serif" font-size="13" lengthAdjust="spacing" textLength="5" x="62.6328" y="109.8801">*</text><text fill="#000000" font-family="sans-serif" font-size="13" lengthAdjust="spacing" textLength="20" x="45.6875" y="156.1162">1..*</text><!--MD5=[1d46381b424e5419bfc78b369ebccaa0]
@startuml

hide methods

class SpecialistDoctor {
    - doctorIndexNumber
}

class Report {
    -createdAt
    -diagnosis
}

class Result {
    -createdAt
    -value
    -metric
}

SpecialistDoctor"1..*" - - "*"Report : "> write"
SpecialistDoctor"1..*" -up- "*"Result : "> checks"


@enduml

PlantUML version 1.2021.5(Sun Apr 25 12:20:28 BST 2021)
(GPL source distribution)
Java Runtime: OpenJDK Runtime Environment
JVM: Dynamic Code Evolution 64-Bit Server VM
Default Encoding: Cp1252
Language: en
Country: US
--></g></svg>