<?xml version="1.0" encoding="UTF-8" standalone="no"?><svg xmlns="http://www.w3.org/2000/svg" xmlns:xlink="http://www.w3.org/1999/xlink" contentScriptType="application/ecmascript" contentStyleType="text/css" height="682px" preserveAspectRatio="none" style="width:669px;height:682px;" version="1.1" viewBox="0 0 669 682" width="669px" zoomAndPan="magnify"><defs><filter height="300%" id="f1aj3s2n29lrok" width="300%" x="-1" y="-1"><feGaussianBlur result="blurOut" stdDeviation="2.0"/><feColorMatrix in="blurOut" result="blurOut2" type="matrix" values="0 0 0 0 0 0 0 0 0 0 0 0 0 0 0 0 0 0 .4 0"/><feOffset dx="4.0" dy="4.0" in="blurOut2" result="blurOut3"/><feBlend in="SourceGraphic" in2="blurOut3" mode="normal"/></filter></defs><g><!--MD5=[71fba8c2abd557a2f7006580273aba3e]
class WriteReportUI--><rect codeLine="2" fill="#FEFECE" filter="url(#f1aj3s2n29lrok)" height="48" id="WriteReportUI" style="stroke:#A80036;stroke-width:1.5;" width="109" x="7" y="34.5"/><ellipse cx="22" cy="50.5" fill="#ADD1B2" rx="11" ry="11" style="stroke:#A80036;stroke-width:1.0;"/><path d="M24,47 Q24.2031,46.5 24.4375,46.25 Q24.6719,46 24.9375,46 Q25.4063,46 25.7031,46.2813 Q26,46.5625 26,47.2188 L26,48.7813 Q26,49.4375 25.7188,49.7188 Q25.4375,50 25,50 Q24.6094,50 24.3594,49.8281 Q24.1094,49.6563 24,49.2031 Q23.9531,48.8906 23.7813,48.7188 Q23.4688,48.3906 22.9063,48.2031 Q22.3438,48 21.7813,48 Q21.0781,48 20.4844,48.2813 Q19.9063,48.5625 19.4531,49.1875 Q19,49.8125 19,50.6719 L19,51.5938 Q19,52.625 19.8438,53.3125 Q20.6875,54 22.1875,54 Q23.0781,54 23.7031,53.7969 Q24.0625,53.6875 24.4688,53.3281 Q24.7344,53.125 24.875,53.0625 Q25.0156,53 25.1875,53 Q25.5156,53 25.75,53.2656 Q26,53.5156 26,53.875 Q26,54.2188 25.6563,54.625 Q25.1563,55.2188 24.3594,55.5469 Q23.3125,56 22.0313,56 Q20.5313,56 19.3281,55.4063 Q18.3594,54.9375 17.6719,53.9219 Q17,52.9063 17,51.7031 L17,50.6094 Q17,49.3594 17.5938,48.2656 Q18.2031,47.1719 19.25,46.5938 Q20.3125,46 21.5,46 Q22.2188,46 22.8438,46.25 Q23.4688,46.5 24,47 Z " fill="#000000"/><text fill="#000000" font-family="sans-serif" font-size="12" lengthAdjust="spacing" textLength="77" x="36" y="55.4102">WriteReportUI</text><line style="stroke:#A80036;stroke-width:1.5;" x1="8" x2="115" y1="66.5" y2="66.5"/><line style="stroke:#A80036;stroke-width:1.5;" x1="8" x2="115" y1="74.5" y2="74.5"/><!--MD5=[d7b8916e3117ca4a3ffdab4f31ea783a]
class WriteReportController--><rect codeLine="5" fill="#FEFECE" filter="url(#f1aj3s2n29lrok)" height="103.3438" id="WriteReportController" style="stroke:#A80036;stroke-width:1.5;" width="151" x="151" y="7"/><ellipse cx="166" cy="23" fill="#ADD1B2" rx="11" ry="11" style="stroke:#A80036;stroke-width:1.0;"/><path d="M168,19.5 Q168.2031,19 168.4375,18.75 Q168.6719,18.5 168.9375,18.5 Q169.4063,18.5 169.7031,18.7813 Q170,19.0625 170,19.7188 L170,21.2813 Q170,21.9375 169.7188,22.2188 Q169.4375,22.5 169,22.5 Q168.6094,22.5 168.3594,22.3281 Q168.1094,22.1563 168,21.7031 Q167.9531,21.3906 167.7813,21.2188 Q167.4688,20.8906 166.9063,20.7031 Q166.3438,20.5 165.7813,20.5 Q165.0781,20.5 164.4844,20.7813 Q163.9063,21.0625 163.4531,21.6875 Q163,22.3125 163,23.1719 L163,24.0938 Q163,25.125 163.8438,25.8125 Q164.6875,26.5 166.1875,26.5 Q167.0781,26.5 167.7031,26.2969 Q168.0625,26.1875 168.4688,25.8281 Q168.7344,25.625 168.875,25.5625 Q169.0156,25.5 169.1875,25.5 Q169.5156,25.5 169.75,25.7656 Q170,26.0156 170,26.375 Q170,26.7188 169.6563,27.125 Q169.1563,27.7188 168.3594,28.0469 Q167.3125,28.5 166.0313,28.5 Q164.5313,28.5 163.3281,27.9063 Q162.3594,27.4375 161.6719,26.4219 Q161,25.4063 161,24.2031 L161,23.1094 Q161,21.8594 161.5938,20.7656 Q162.2031,19.6719 163.25,19.0938 Q164.3125,18.5 165.5,18.5 Q166.2188,18.5 166.8438,18.75 Q167.4688,19 168,19.5 Z " fill="#000000"/><text fill="#000000" font-family="sans-serif" font-size="12" lengthAdjust="spacing" textLength="119" x="180" y="27.9102">WriteReportController</text><line style="stroke:#A80036;stroke-width:1.5;" x1="152" x2="301" y1="39" y2="39"/><line style="stroke:#A80036;stroke-width:1.5;" x1="152" x2="301" y1="47" y2="47"/><ellipse cx="162" cy="58" fill="#84BE84" rx="3" ry="3" style="stroke:#038048;stroke-width:1.0;"/><text fill="#000000" font-family="sans-serif" font-size="11" lengthAdjust="spacing" textLength="112" x="171" y="62.4189">getTestWithoutReport()</text><ellipse cx="162" cy="71.8359" fill="#84BE84" rx="3" ry="3" style="stroke:#038048;stroke-width:1.0;"/><text fill="#000000" font-family="sans-serif" font-size="11" lengthAdjust="spacing" textLength="123" x="171" y="76.2549">getTestResults(testCode)</text><ellipse cx="162" cy="85.6719" fill="#84BE84" rx="3" ry="3" style="stroke:#038048;stroke-width:1.0;"/><text fill="#000000" font-family="sans-serif" font-size="11" lengthAdjust="spacing" textLength="80" x="171" y="90.0908">newReport(text)</text><ellipse cx="162" cy="99.5078" fill="#84BE84" rx="3" ry="3" style="stroke:#038048;stroke-width:1.0;"/><text fill="#000000" font-family="sans-serif" font-size="11" lengthAdjust="spacing" textLength="64" x="171" y="103.9268">saveReport()</text><!--MD5=[02e4b9b7573f1156f41e60aa5b4e25a4]
class Company--><rect codeLine="12" fill="#FEFECE" filter="url(#f1aj3s2n29lrok)" height="75.6719" id="Company" style="stroke:#A80036;stroke-width:1.5;" width="96" x="244.5" y="171"/><ellipse cx="264.45" cy="187" fill="#ADD1B2" rx="11" ry="11" style="stroke:#A80036;stroke-width:1.0;"/><path d="M266.45,183.5 Q266.6531,183 266.8875,182.75 Q267.1219,182.5 267.3875,182.5 Q267.8563,182.5 268.1531,182.7813 Q268.45,183.0625 268.45,183.7188 L268.45,185.2813 Q268.45,185.9375 268.1688,186.2188 Q267.8875,186.5 267.45,186.5 Q267.0594,186.5 266.8094,186.3281 Q266.5594,186.1563 266.45,185.7031 Q266.4031,185.3906 266.2313,185.2188 Q265.9188,184.8906 265.3563,184.7031 Q264.7938,184.5 264.2313,184.5 Q263.5281,184.5 262.9344,184.7813 Q262.3563,185.0625 261.9031,185.6875 Q261.45,186.3125 261.45,187.1719 L261.45,188.0938 Q261.45,189.125 262.2938,189.8125 Q263.1375,190.5 264.6375,190.5 Q265.5281,190.5 266.1531,190.2969 Q266.5125,190.1875 266.9188,189.8281 Q267.1844,189.625 267.325,189.5625 Q267.4656,189.5 267.6375,189.5 Q267.9656,189.5 268.2,189.7656 Q268.45,190.0156 268.45,190.375 Q268.45,190.7188 268.1063,191.125 Q267.6063,191.7188 266.8094,192.0469 Q265.7625,192.5 264.4813,192.5 Q262.9813,192.5 261.7781,191.9063 Q260.8094,191.4375 260.1219,190.4219 Q259.45,189.4063 259.45,188.2031 L259.45,187.1094 Q259.45,185.8594 260.0438,184.7656 Q260.6531,183.6719 261.7,183.0938 Q262.7625,182.5 263.95,182.5 Q264.6688,182.5 265.2938,182.75 Q265.9188,183 266.45,183.5 Z " fill="#000000"/><text fill="#000000" font-family="sans-serif" font-size="12" lengthAdjust="spacing" textLength="53" x="279.55" y="191.9102">Company</text><line style="stroke:#A80036;stroke-width:1.5;" x1="245.5" x2="339.5" y1="203" y2="203"/><rect fill="none" height="6" style="stroke:#C82930;stroke-width:1.0;" width="6" x="252.5" y="211"/><text fill="#000000" font-family="sans-serif" font-size="11" lengthAdjust="spacing" textLength="53" x="264.5" y="218.4189">description</text><line style="stroke:#A80036;stroke-width:1.5;" x1="245.5" x2="339.5" y1="224.8359" y2="224.8359"/><ellipse cx="255.5" cy="235.8359" fill="#84BE84" rx="3" ry="3" style="stroke:#038048;stroke-width:1.0;"/><text fill="#000000" font-family="sans-serif" font-size="11" lengthAdjust="spacing" textLength="70" x="264.5" y="240.2549">getTestStore()</text><!--MD5=[0f6f7964b844a64b0496af0dda7914bd]
class TestStore--><rect codeLine="17" fill="#FEFECE" filter="url(#f1aj3s2n29lrok)" height="75.6719" id="TestStore" style="stroke:#A80036;stroke-width:1.5;" width="151" x="367" y="383"/><ellipse cx="411.75" cy="399" fill="#ADD1B2" rx="11" ry="11" style="stroke:#A80036;stroke-width:1.0;"/><path d="M413.75,395.5 Q413.9531,395 414.1875,394.75 Q414.4219,394.5 414.6875,394.5 Q415.1563,394.5 415.4531,394.7813 Q415.75,395.0625 415.75,395.7188 L415.75,397.2813 Q415.75,397.9375 415.4688,398.2188 Q415.1875,398.5 414.75,398.5 Q414.3594,398.5 414.1094,398.3281 Q413.8594,398.1563 413.75,397.7031 Q413.7031,397.3906 413.5313,397.2188 Q413.2188,396.8906 412.6563,396.7031 Q412.0938,396.5 411.5313,396.5 Q410.8281,396.5 410.2344,396.7813 Q409.6563,397.0625 409.2031,397.6875 Q408.75,398.3125 408.75,399.1719 L408.75,400.0938 Q408.75,401.125 409.5938,401.8125 Q410.4375,402.5 411.9375,402.5 Q412.8281,402.5 413.4531,402.2969 Q413.8125,402.1875 414.2188,401.8281 Q414.4844,401.625 414.625,401.5625 Q414.7656,401.5 414.9375,401.5 Q415.2656,401.5 415.5,401.7656 Q415.75,402.0156 415.75,402.375 Q415.75,402.7188 415.4063,403.125 Q414.9063,403.7188 414.1094,404.0469 Q413.0625,404.5 411.7813,404.5 Q410.2813,404.5 409.0781,403.9063 Q408.1094,403.4375 407.4219,402.4219 Q406.75,401.4063 406.75,400.2031 L406.75,399.1094 Q406.75,397.8594 407.3438,396.7656 Q407.9531,395.6719 409,395.0938 Q410.0625,394.5 411.25,394.5 Q411.9688,394.5 412.5938,394.75 Q413.2188,395 413.75,395.5 Z " fill="#000000"/><text fill="#000000" font-family="sans-serif" font-size="12" lengthAdjust="spacing" textLength="53" x="432.25" y="403.9102">TestStore</text><line style="stroke:#A80036;stroke-width:1.5;" x1="368" x2="517" y1="415" y2="415"/><line style="stroke:#A80036;stroke-width:1.5;" x1="368" x2="517" y1="423" y2="423"/><ellipse cx="378" cy="434" fill="#84BE84" rx="3" ry="3" style="stroke:#038048;stroke-width:1.0;"/><text fill="#000000" font-family="sans-serif" font-size="11" lengthAdjust="spacing" textLength="112" x="387" y="438.4189">getTestWithoutReport()</text><ellipse cx="378" cy="447.8359" fill="#84BE84" rx="3" ry="3" style="stroke:#038048;stroke-width:1.0;"/><text fill="#000000" font-family="sans-serif" font-size="11" lengthAdjust="spacing" textLength="125" x="387" y="452.2549">getTestByCode(testCode)</text><!--MD5=[f97b8c00cb514ace9cb97c2a996fb712]
class TestListMapper--><rect codeLine="22" fill="#FEFECE" filter="url(#f1aj3s2n29lrok)" height="61.8359" id="TestListMapper" style="stroke:#A80036;stroke-width:1.5;" width="127" x="337" y="27.5"/><ellipse cx="356.5" cy="43.5" fill="#ADD1B2" rx="11" ry="11" style="stroke:#A80036;stroke-width:1.0;"/><path d="M358.5,40 Q358.7031,39.5 358.9375,39.25 Q359.1719,39 359.4375,39 Q359.9063,39 360.2031,39.2813 Q360.5,39.5625 360.5,40.2188 L360.5,41.7813 Q360.5,42.4375 360.2188,42.7188 Q359.9375,43 359.5,43 Q359.1094,43 358.8594,42.8281 Q358.6094,42.6563 358.5,42.2031 Q358.4531,41.8906 358.2813,41.7188 Q357.9688,41.3906 357.4063,41.2031 Q356.8438,41 356.2813,41 Q355.5781,41 354.9844,41.2813 Q354.4063,41.5625 353.9531,42.1875 Q353.5,42.8125 353.5,43.6719 L353.5,44.5938 Q353.5,45.625 354.3438,46.3125 Q355.1875,47 356.6875,47 Q357.5781,47 358.2031,46.7969 Q358.5625,46.6875 358.9688,46.3281 Q359.2344,46.125 359.375,46.0625 Q359.5156,46 359.6875,46 Q360.0156,46 360.25,46.2656 Q360.5,46.5156 360.5,46.875 Q360.5,47.2188 360.1563,47.625 Q359.6563,48.2188 358.8594,48.5469 Q357.8125,49 356.5313,49 Q355.0313,49 353.8281,48.4063 Q352.8594,47.9375 352.1719,46.9219 Q351.5,45.9063 351.5,44.7031 L351.5,43.6094 Q351.5,42.3594 352.0938,41.2656 Q352.7031,40.1719 353.75,39.5938 Q354.8125,39 356,39 Q356.7188,39 357.3438,39.25 Q357.9688,39.5 358.5,40 Z " fill="#000000"/><text fill="#000000" font-family="sans-serif" font-size="12" lengthAdjust="spacing" textLength="85" x="371.5" y="48.4102">TestListMapper</text><line style="stroke:#A80036;stroke-width:1.5;" x1="338" x2="463" y1="59.5" y2="59.5"/><line style="stroke:#A80036;stroke-width:1.5;" x1="338" x2="463" y1="67.5" y2="67.5"/><ellipse cx="348" cy="78.5" fill="#84BE84" rx="3" ry="3" style="stroke:#038048;stroke-width:1.0;"/><text fill="#000000" font-family="sans-serif" font-size="11" lengthAdjust="spacing" textLength="101" x="357" y="82.9189">toDto(lTestNoReport)</text><!--MD5=[df38be88ccee13e832d6fafd6288a4ca]
class Test--><rect codeLine="26" fill="#FEFECE" filter="url(#f1aj3s2n29lrok)" height="131.0156" id="Test" style="stroke:#A80036;stroke-width:1.5;" width="164" x="153.5" y="537"/><ellipse cx="219.25" cy="553" fill="#ADD1B2" rx="11" ry="11" style="stroke:#A80036;stroke-width:1.0;"/><path d="M221.25,549.5 Q221.4531,549 221.6875,548.75 Q221.9219,548.5 222.1875,548.5 Q222.6563,548.5 222.9531,548.7813 Q223.25,549.0625 223.25,549.7188 L223.25,551.2813 Q223.25,551.9375 222.9688,552.2188 Q222.6875,552.5 222.25,552.5 Q221.8594,552.5 221.6094,552.3281 Q221.3594,552.1563 221.25,551.7031 Q221.2031,551.3906 221.0313,551.2188 Q220.7188,550.8906 220.1563,550.7031 Q219.5938,550.5 219.0313,550.5 Q218.3281,550.5 217.7344,550.7813 Q217.1563,551.0625 216.7031,551.6875 Q216.25,552.3125 216.25,553.1719 L216.25,554.0938 Q216.25,555.125 217.0938,555.8125 Q217.9375,556.5 219.4375,556.5 Q220.3281,556.5 220.9531,556.2969 Q221.3125,556.1875 221.7188,555.8281 Q221.9844,555.625 222.125,555.5625 Q222.2656,555.5 222.4375,555.5 Q222.7656,555.5 223,555.7656 Q223.25,556.0156 223.25,556.375 Q223.25,556.7188 222.9063,557.125 Q222.4063,557.7188 221.6094,558.0469 Q220.5625,558.5 219.2813,558.5 Q217.7813,558.5 216.5781,557.9063 Q215.6094,557.4375 214.9219,556.4219 Q214.25,555.4063 214.25,554.2031 L214.25,553.1094 Q214.25,551.8594 214.8438,550.7656 Q215.4531,549.6719 216.5,549.0938 Q217.5625,548.5 218.75,548.5 Q219.4688,548.5 220.0938,548.75 Q220.7188,549 221.25,549.5 Z " fill="#000000"/><text fill="#000000" font-family="sans-serif" font-size="12" lengthAdjust="spacing" textLength="24" x="239.75" y="557.9102">Test</text><line style="stroke:#A80036;stroke-width:1.5;" x1="154.5" x2="316.5" y1="569" y2="569"/><rect fill="none" height="6" style="stroke:#C82930;stroke-width:1.0;" width="6" x="161.5" y="577"/><text fill="#000000" font-family="sans-serif" font-size="11" lengthAdjust="spacing" textLength="48" x="173.5" y="584.4189">createdAt</text><rect fill="none" height="6" style="stroke:#C82930;stroke-width:1.0;" width="6" x="161.5" y="590.8359"/><text fill="#000000" font-family="sans-serif" font-size="11" lengthAdjust="spacing" textLength="60" x="173.5" y="598.2549">internalCode</text><rect fill="none" height="6" style="stroke:#C82930;stroke-width:1.0;" width="6" x="161.5" y="604.6719"/><text fill="#000000" font-family="sans-serif" font-size="11" lengthAdjust="spacing" textLength="43" x="173.5" y="612.0908">nhsCode</text><line style="stroke:#A80036;stroke-width:1.5;" x1="154.5" x2="316.5" y1="618.5078" y2="618.5078"/><ellipse cx="164.5" cy="629.5078" fill="#84BE84" rx="3" ry="3" style="stroke:#038048;stroke-width:1.0;"/><text fill="#000000" font-family="sans-serif" font-size="11" lengthAdjust="spacing" textLength="80" x="173.5" y="633.9268">getTestResults()</text><ellipse cx="164.5" cy="643.3438" fill="#84BE84" rx="3" ry="3" style="stroke:#038048;stroke-width:1.0;"/><text fill="#000000" font-family="sans-serif" font-size="11" lengthAdjust="spacing" textLength="87" x="173.5" y="647.7627">addReport(report)</text><rect fill="#F24D5C" height="6" style="stroke:#C82930;stroke-width:1.0;" width="6" x="161.5" y="654.1797"/><text fill="#000000" font-family="sans-serif" font-size="11" lengthAdjust="spacing" textLength="138" x="173.5" y="661.5986">changeStateToReportDone()</text><!--MD5=[4e608140b854dae633589343bce77383]
class TestParameterResult--><rect codeLine="35" fill="#FEFECE" filter="url(#f1aj3s2n29lrok)" height="103.3438" id="TestParameterResult" style="stroke:#A80036;stroke-width:1.5;" width="150" x="505.5" y="551"/><ellipse cx="520.5" cy="567" fill="#ADD1B2" rx="11" ry="11" style="stroke:#A80036;stroke-width:1.0;"/><path d="M522.5,563.5 Q522.7031,563 522.9375,562.75 Q523.1719,562.5 523.4375,562.5 Q523.9063,562.5 524.2031,562.7813 Q524.5,563.0625 524.5,563.7188 L524.5,565.2813 Q524.5,565.9375 524.2188,566.2188 Q523.9375,566.5 523.5,566.5 Q523.1094,566.5 522.8594,566.3281 Q522.6094,566.1563 522.5,565.7031 Q522.4531,565.3906 522.2813,565.2188 Q521.9688,564.8906 521.4063,564.7031 Q520.8438,564.5 520.2813,564.5 Q519.5781,564.5 518.9844,564.7813 Q518.4063,565.0625 517.9531,565.6875 Q517.5,566.3125 517.5,567.1719 L517.5,568.0938 Q517.5,569.125 518.3438,569.8125 Q519.1875,570.5 520.6875,570.5 Q521.5781,570.5 522.2031,570.2969 Q522.5625,570.1875 522.9688,569.8281 Q523.2344,569.625 523.375,569.5625 Q523.5156,569.5 523.6875,569.5 Q524.0156,569.5 524.25,569.7656 Q524.5,570.0156 524.5,570.375 Q524.5,570.7188 524.1563,571.125 Q523.6563,571.7188 522.8594,572.0469 Q521.8125,572.5 520.5313,572.5 Q519.0313,572.5 517.8281,571.9063 Q516.8594,571.4375 516.1719,570.4219 Q515.5,569.4063 515.5,568.2031 L515.5,567.1094 Q515.5,565.8594 516.0938,564.7656 Q516.7031,563.6719 517.75,563.0938 Q518.8125,562.5 520,562.5 Q520.7188,562.5 521.3438,562.75 Q521.9688,563 522.5,563.5 Z " fill="#000000"/><text fill="#000000" font-family="sans-serif" font-size="12" lengthAdjust="spacing" textLength="118" x="534.5" y="571.9102">TestParameterResult</text><line style="stroke:#A80036;stroke-width:1.5;" x1="506.5" x2="654.5" y1="583" y2="583"/><rect fill="none" height="6" style="stroke:#C82930;stroke-width:1.0;" width="6" x="513.5" y="591"/><text fill="#000000" font-family="sans-serif" font-size="11" lengthAdjust="spacing" textLength="48" x="525.5" y="598.4189">createdAt</text><rect fill="none" height="6" style="stroke:#C82930;stroke-width:1.0;" width="6" x="513.5" y="604.8359"/><text fill="#000000" font-family="sans-serif" font-size="11" lengthAdjust="spacing" textLength="26" x="525.5" y="612.2549">value</text><rect fill="none" height="6" style="stroke:#C82930;stroke-width:1.0;" width="6" x="513.5" y="618.6719"/><text fill="#000000" font-family="sans-serif" font-size="11" lengthAdjust="spacing" textLength="29" x="525.5" y="626.0908">metric</text><line style="stroke:#A80036;stroke-width:1.5;" x1="506.5" x2="654.5" y1="632.5078" y2="632.5078"/><ellipse cx="516.5" cy="643.5078" fill="#84BE84" rx="3" ry="3" style="stroke:#038048;stroke-width:1.0;"/><text fill="#000000" font-family="sans-serif" font-size="11" lengthAdjust="spacing" textLength="45" x="525.5" y="647.9268">toString()</text><!--MD5=[f00dbe8c0302c6aec2cb26b3c659c8fc]
class Report--><rect codeLine="42" fill="#FEFECE" filter="url(#f1aj3s2n29lrok)" height="75.6719" id="Report" style="stroke:#A80036;stroke-width:1.5;" width="76" x="52.5" y="277"/><ellipse cx="70.65" cy="293" fill="#ADD1B2" rx="11" ry="11" style="stroke:#A80036;stroke-width:1.0;"/><path d="M72.65,289.5 Q72.8531,289 73.0875,288.75 Q73.3219,288.5 73.5875,288.5 Q74.0563,288.5 74.3531,288.7813 Q74.65,289.0625 74.65,289.7188 L74.65,291.2813 Q74.65,291.9375 74.3688,292.2188 Q74.0875,292.5 73.65,292.5 Q73.2594,292.5 73.0094,292.3281 Q72.7594,292.1563 72.65,291.7031 Q72.6031,291.3906 72.4313,291.2188 Q72.1188,290.8906 71.5563,290.7031 Q70.9938,290.5 70.4313,290.5 Q69.7281,290.5 69.1344,290.7813 Q68.5563,291.0625 68.1031,291.6875 Q67.65,292.3125 67.65,293.1719 L67.65,294.0938 Q67.65,295.125 68.4938,295.8125 Q69.3375,296.5 70.8375,296.5 Q71.7281,296.5 72.3531,296.2969 Q72.7125,296.1875 73.1188,295.8281 Q73.3844,295.625 73.525,295.5625 Q73.6656,295.5 73.8375,295.5 Q74.1656,295.5 74.4,295.7656 Q74.65,296.0156 74.65,296.375 Q74.65,296.7188 74.3063,297.125 Q73.8063,297.7188 73.0094,298.0469 Q71.9625,298.5 70.6813,298.5 Q69.1813,298.5 67.9781,297.9063 Q67.0094,297.4375 66.3219,296.4219 Q65.65,295.4063 65.65,294.2031 L65.65,293.1094 Q65.65,291.8594 66.2438,290.7656 Q66.8531,289.6719 67.9,289.0938 Q68.9625,288.5 70.15,288.5 Q70.8688,288.5 71.4938,288.75 Q72.1188,289 72.65,289.5 Z " fill="#000000"/><text fill="#000000" font-family="sans-serif" font-size="12" lengthAdjust="spacing" textLength="37" x="85.35" y="297.9102">Report</text><line style="stroke:#A80036;stroke-width:1.5;" x1="53.5" x2="127.5" y1="309" y2="309"/><rect fill="none" height="6" style="stroke:#C82930;stroke-width:1.0;" width="6" x="60.5" y="317"/><text fill="#000000" font-family="sans-serif" font-size="11" lengthAdjust="spacing" textLength="48" x="72.5" y="324.4189">createdAt</text><rect fill="none" height="6" style="stroke:#C82930;stroke-width:1.0;" width="6" x="60.5" y="330.8359"/><text fill="#000000" font-family="sans-serif" font-size="11" lengthAdjust="spacing" textLength="50" x="72.5" y="338.2549">reportText</text><line style="stroke:#A80036;stroke-width:1.5;" x1="53.5" x2="127.5" y1="344.6719" y2="344.6719"/><!--MD5=[4ff913b72b026e4c95390310e4df5ddd]
link WriteReportUI to WriteReportController--><path codeLine="47" d="M116.29,58.5 C126.06,58.5 135.84,58.5 145.61,58.5 " fill="none" id="WriteReportUI-to-WriteReportController" style="stroke:#A80036;stroke-width:1.0;stroke-dasharray:7.0,7.0;"/><polygon fill="#A80036" points="150.73,58.5,141.73,54.5,145.73,58.5,141.73,62.5,150.73,58.5" style="stroke:#A80036;stroke-width:1.0;"/><!--MD5=[a3405a5a29c0a1359ce5b85a18cd6043]
link WriteReportController to Company--><path codeLine="48" d="M249.03,110.19 C257.08,128.32 266.07,148.53 273.77,165.86 " fill="none" id="WriteReportController-to-Company" style="stroke:#A80036;stroke-width:1.0;stroke-dasharray:7.0,7.0;"/><polygon fill="#A80036" points="275.91,170.66,275.9043,160.8111,273.8767,166.0921,268.5957,164.0645,275.91,170.66" style="stroke:#A80036;stroke-width:1.0;"/><!--MD5=[aa4aa685cc8a1bee089823f9a2dac854]
link WriteReportController to TestStore--><path codeLine="49" d="M299.32,110.04 C320.33,127.42 341.79,148.28 357.5,171 C402.17,235.61 425.18,325.76 435.47,378 " fill="none" id="WriteReportController-to-TestStore" style="stroke:#A80036;stroke-width:1.0;stroke-dasharray:7.0,7.0;"/><polygon fill="#A80036" points="436.43,382.93,438.6356,373.3313,435.4741,378.0222,430.7832,374.8607,436.43,382.93" style="stroke:#A80036;stroke-width:1.0;"/><!--MD5=[5f7e16a0d3ad367d3a8be993a13d813b]
link WriteReportController to TestListMapper--><path codeLine="50" d="M302.29,58.5 C312.09,58.5 321.89,58.5 331.69,58.5 " fill="none" id="WriteReportController-to-TestListMapper" style="stroke:#A80036;stroke-width:1.0;stroke-dasharray:7.0,7.0;"/><polygon fill="#A80036" points="336.81,58.5,327.81,54.5,331.81,58.5,327.81,62.5,336.81,58.5" style="stroke:#A80036;stroke-width:1.0;"/><!--MD5=[7278674e9ca3925782f5c87c1bd9dd49]
link WriteReportController to Test--><path codeLine="51" d="M226.15,110.04 C225.98,147.77 225.91,200.62 226.5,247 C227.76,345.89 230.98,460.27 233.21,531.75 " fill="none" id="WriteReportController-to-Test" style="stroke:#A80036;stroke-width:1.0;stroke-dasharray:7.0,7.0;"/><polygon fill="#A80036" points="233.37,536.82,237.0853,527.6988,233.2129,531.8225,229.0893,527.9501,233.37,536.82" style="stroke:#A80036;stroke-width:1.0;"/><!--MD5=[282cfc7c590a34915ae3d174e5d7b309]
link WriteReportController to Report--><path codeLine="52" d="M185.2,110.18 C178.2,119.81 171.33,130 165.5,140 C140.45,182.97 118.83,235.89 105.32,272.01 " fill="none" id="WriteReportController-to-Report" style="stroke:#A80036;stroke-width:1.0;stroke-dasharray:7.0,7.0;"/><polygon fill="#A80036" points="103.55,276.77,110.4366,269.7291,105.2931,272.0837,102.9385,266.9401,103.55,276.77" style="stroke:#A80036;stroke-width:1.0;"/><!--MD5=[7e4bc624457760b649895ff2ead938fa]
link Company to Test--><path codeLine="53" d="M287.09,247.18 C277.6,312.37 257.82,448.23 245.69,531.48 " fill="none" id="Company-to-Test" style="stroke:#A80036;stroke-width:1.0;"/><polygon fill="#A80036" points="244.91,536.89,250.1561,528.5546,245.6251,531.9414,242.2383,527.4104,244.91,536.89" style="stroke:#A80036;stroke-width:1.0;"/><text fill="#000000" font-family="sans-serif" font-size="13" lengthAdjust="spacing" textLength="50" x="268.5" y="426.4951">performs</text><text fill="#000000" font-family="sans-serif" font-size="13" lengthAdjust="spacing" textLength="7" x="278.67" y="268.0892">1</text><text fill="#000000" font-family="sans-serif" font-size="13" lengthAdjust="spacing" textLength="5" x="240.6658" y="526.3524">*</text><!--MD5=[7f6cf7f175eae0af66201860de5de971]
link Company to TestStore--><path codeLine="54" d="M305.31,247.12 C316.95,277.53 336.17,320.67 361.5,353 C368.79,362.3 377.57,371.18 386.63,379.26 " fill="none" id="Company-to-TestStore" style="stroke:#A80036;stroke-width:1.0;"/><polygon fill="#A80036" points="390.52,382.68,386.3784,373.7443,386.7562,379.3885,381.112,379.7663,390.52,382.68" style="stroke:#A80036;stroke-width:1.0;"/><text fill="#000000" font-family="sans-serif" font-size="13" lengthAdjust="spacing" textLength="28" x="362.5" y="320.4951">uses</text><text fill="#000000" font-family="sans-serif" font-size="13" lengthAdjust="spacing" textLength="7" x="299.852" y="268.31">1</text><text fill="#000000" font-family="sans-serif" font-size="13" lengthAdjust="spacing" textLength="7" x="373.9844" y="372.2723">1</text><!--MD5=[b0f4f6db8206580012ef9cd998ed01c5]
link TestStore to Test--><path codeLine="55" d="M399.61,459.19 C374.9,480.62 343.08,508.21 314.05,533.39 " fill="none" id="TestStore-to-Test" style="stroke:#A80036;stroke-width:1.0;"/><polygon fill="#A80036" points="310.15,536.76,319.5697,533.8843,313.927,533.4837,314.3276,527.8411,310.15,536.76" style="stroke:#A80036;stroke-width:1.0;"/><text fill="#000000" font-family="sans-serif" font-size="13" lengthAdjust="spacing" textLength="29" x="365.5" y="503.4951">store</text><text fill="#000000" font-family="sans-serif" font-size="13" lengthAdjust="spacing" textLength="7" x="385.2166" y="480.1008">1</text><text fill="#000000" font-family="sans-serif" font-size="13" lengthAdjust="spacing" textLength="5" x="313.0414" y="526.2082">*</text><!--MD5=[12189d12e156ffd517416dd9dd697e80]
reverse link Report to Test--><path codeLine="56" d="M88.92,358.19 C89.36,387.66 93.12,427.24 107.5,459 C120.39,487.48 141.07,514.25 162.09,536.74 " fill="none" id="Report-backto-Test" style="stroke:#A80036;stroke-width:1.0;"/><polygon fill="#A80036" points="88.88,353.18,84.9573,362.214,88.9229,358.1798,92.957,362.1454,88.88,353.18" style="stroke:#A80036;stroke-width:1.0;"/><text fill="#000000" font-family="sans-serif" font-size="13" lengthAdjust="spacing" textLength="56" x="108.5" y="426.4951">originates</text><text fill="#000000" font-family="sans-serif" font-size="13" lengthAdjust="spacing" textLength="7" x="81.064" y="374.0892">1</text><text fill="#000000" font-family="sans-serif" font-size="13" lengthAdjust="spacing" textLength="7" x="146.678" y="526.186">1</text><!--MD5=[7e640006601b46b45f9a4772292905af]
link Test to TestParameterResult--><path codeLine="57" d="M317.7,602.5 C372.92,602.5 445.33,602.5 500.16,602.5 " fill="none" id="Test-to-TestParameterResult" style="stroke:#A80036;stroke-width:1.0;"/><polygon fill="#A80036" points="505.41,602.5,496.41,598.5,500.41,602.5,496.41,606.5,505.41,602.5" style="stroke:#A80036;stroke-width:1.0;"/><text fill="#000000" font-family="sans-serif" font-size="13" lengthAdjust="spacing" textLength="151" x="336" y="595.9951">analyses parameter to get</text><text fill="#000000" font-family="sans-serif" font-size="13" lengthAdjust="spacing" textLength="7" x="325.6005" y="599.2731">1</text><text fill="#000000" font-family="sans-serif" font-size="13" lengthAdjust="spacing" textLength="5" x="492.4085" y="599.1705">*</text><!--MD5=[c82954970e47010d3eefc80eeb1db287]
@startuml

class WriteReportUI {
}

class WriteReportController {
    +getTestWithoutReport()
    +getTestResults(testCode)
    +newReport(text)
    +saveReport()
}

class Company {
    -description
    +getTestStore()
}

class TestStore {
    +getTestWithoutReport()
    +getTestByCode(testCode)
}

class TestListMapper {
    +toDto(lTestNoReport)
}

class Test {
    -createdAt
    -internalCode
    -nhsCode
    +getTestResults()
    +addReport(report)
    -changeStateToReportDone()
}

class TestParameterResult {
    -createdAt
    -value
    -metric
    +toString()
}

class Report {
    -createdAt
    -reportText
}

WriteReportUI .right.> WriteReportController
WriteReportController ..> Company
WriteReportController ..> TestStore
WriteReportController .right.> TestListMapper
WriteReportController ..> Test
WriteReportController ..> Report
Company"1" - -> "*"Test : "performs"
Company"1" - -> "1"TestStore : "uses"
TestStore"1" - -> "*"Test : "store"
Test"1" -left-> "1"Report : "originates"
Test"1" -right-> "*"TestParameterResult : "analyses parameter to get"

@enduml

PlantUML version 1.2021.5(Sun Apr 25 12:20:28 BST 2021)
(GPL source distribution)
Java Runtime: OpenJDK Runtime Environment
JVM: Dynamic Code Evolution 64-Bit Server VM
Default Encoding: Cp1252
Language: en
Country: US
--></g></svg>