<?xml version="1.0" encoding="UTF-8" standalone="no"?><svg xmlns="http://www.w3.org/2000/svg" xmlns:xlink="http://www.w3.org/1999/xlink" contentScriptType="application/ecmascript" contentStyleType="text/css" height="638px" preserveAspectRatio="none" style="width:871px;height:638px;" version="1.1" viewBox="0 0 871 638" width="871px" zoomAndPan="magnify"><defs><filter height="300%" id="fzokwt5quwbvt" width="300%" x="-1" y="-1"><feGaussianBlur result="blurOut" stdDeviation="2.0"/><feColorMatrix in="blurOut" result="blurOut2" type="matrix" values="0 0 0 0 0 0 0 0 0 0 0 0 0 0 0 0 0 0 .4 0"/><feOffset dx="4.0" dy="4.0" in="blurOut2" result="blurOut3"/><feBlend in="SourceGraphic" in2="blurOut3" mode="normal"/></filter></defs><g><!--MD5=[71fba8c2abd557a2f7006580273aba3e]
class WriteReportUI--><rect codeLine="2" fill="#FEFECE" filter="url(#fzokwt5quwbvt)" height="48" id="WriteReportUI" style="stroke:#A80036;stroke-width:1.5;" width="109" x="209" y="34.5"/><ellipse cx="224" cy="50.5" fill="#ADD1B2" rx="11" ry="11" style="stroke:#A80036;stroke-width:1.0;"/><path d="M226,47 Q226.2031,46.5 226.4375,46.25 Q226.6719,46 226.9375,46 Q227.4063,46 227.7031,46.2813 Q228,46.5625 228,47.2188 L228,48.7813 Q228,49.4375 227.7188,49.7188 Q227.4375,50 227,50 Q226.6094,50 226.3594,49.8281 Q226.1094,49.6563 226,49.2031 Q225.9531,48.8906 225.7813,48.7188 Q225.4688,48.3906 224.9063,48.2031 Q224.3438,48 223.7813,48 Q223.0781,48 222.4844,48.2813 Q221.9063,48.5625 221.4531,49.1875 Q221,49.8125 221,50.6719 L221,51.5938 Q221,52.625 221.8438,53.3125 Q222.6875,54 224.1875,54 Q225.0781,54 225.7031,53.7969 Q226.0625,53.6875 226.4688,53.3281 Q226.7344,53.125 226.875,53.0625 Q227.0156,53 227.1875,53 Q227.5156,53 227.75,53.2656 Q228,53.5156 228,53.875 Q228,54.2188 227.6563,54.625 Q227.1563,55.2188 226.3594,55.5469 Q225.3125,56 224.0313,56 Q222.5313,56 221.3281,55.4063 Q220.3594,54.9375 219.6719,53.9219 Q219,52.9063 219,51.7031 L219,50.6094 Q219,49.3594 219.5938,48.2656 Q220.2031,47.1719 221.25,46.5938 Q222.3125,46 223.5,46 Q224.2188,46 224.8438,46.25 Q225.4688,46.5 226,47 Z " fill="#000000"/><text fill="#000000" font-family="sans-serif" font-size="12" lengthAdjust="spacing" textLength="77" x="238" y="55.4102">WriteReportUI</text><line style="stroke:#A80036;stroke-width:1.5;" x1="210" x2="317" y1="66.5" y2="66.5"/><line style="stroke:#A80036;stroke-width:1.5;" x1="210" x2="317" y1="74.5" y2="74.5"/><!--MD5=[d7b8916e3117ca4a3ffdab4f31ea783a]
class WriteReportController--><rect codeLine="5" fill="#FEFECE" filter="url(#fzokwt5quwbvt)" height="103.3438" id="WriteReportController" style="stroke:#A80036;stroke-width:1.5;" width="151" x="353" y="7"/><ellipse cx="368" cy="23" fill="#ADD1B2" rx="11" ry="11" style="stroke:#A80036;stroke-width:1.0;"/><path d="M370,19.5 Q370.2031,19 370.4375,18.75 Q370.6719,18.5 370.9375,18.5 Q371.4063,18.5 371.7031,18.7813 Q372,19.0625 372,19.7188 L372,21.2813 Q372,21.9375 371.7188,22.2188 Q371.4375,22.5 371,22.5 Q370.6094,22.5 370.3594,22.3281 Q370.1094,22.1563 370,21.7031 Q369.9531,21.3906 369.7813,21.2188 Q369.4688,20.8906 368.9063,20.7031 Q368.3438,20.5 367.7813,20.5 Q367.0781,20.5 366.4844,20.7813 Q365.9063,21.0625 365.4531,21.6875 Q365,22.3125 365,23.1719 L365,24.0938 Q365,25.125 365.8438,25.8125 Q366.6875,26.5 368.1875,26.5 Q369.0781,26.5 369.7031,26.2969 Q370.0625,26.1875 370.4688,25.8281 Q370.7344,25.625 370.875,25.5625 Q371.0156,25.5 371.1875,25.5 Q371.5156,25.5 371.75,25.7656 Q372,26.0156 372,26.375 Q372,26.7188 371.6563,27.125 Q371.1563,27.7188 370.3594,28.0469 Q369.3125,28.5 368.0313,28.5 Q366.5313,28.5 365.3281,27.9063 Q364.3594,27.4375 363.6719,26.4219 Q363,25.4063 363,24.2031 L363,23.1094 Q363,21.8594 363.5938,20.7656 Q364.2031,19.6719 365.25,19.0938 Q366.3125,18.5 367.5,18.5 Q368.2188,18.5 368.8438,18.75 Q369.4688,19 370,19.5 Z " fill="#000000"/><text fill="#000000" font-family="sans-serif" font-size="12" lengthAdjust="spacing" textLength="119" x="382" y="27.9102">WriteReportController</text><line style="stroke:#A80036;stroke-width:1.5;" x1="354" x2="503" y1="39" y2="39"/><line style="stroke:#A80036;stroke-width:1.5;" x1="354" x2="503" y1="47" y2="47"/><ellipse cx="364" cy="58" fill="#84BE84" rx="3" ry="3" style="stroke:#038048;stroke-width:1.0;"/><text fill="#000000" font-family="sans-serif" font-size="11" lengthAdjust="spacing" textLength="112" x="373" y="62.4189">getTestWithoutReport()</text><ellipse cx="364" cy="71.8359" fill="#84BE84" rx="3" ry="3" style="stroke:#038048;stroke-width:1.0;"/><text fill="#000000" font-family="sans-serif" font-size="11" lengthAdjust="spacing" textLength="123" x="373" y="76.2549">getTestResults(testCode)</text><ellipse cx="364" cy="85.6719" fill="#84BE84" rx="3" ry="3" style="stroke:#038048;stroke-width:1.0;"/><text fill="#000000" font-family="sans-serif" font-size="11" lengthAdjust="spacing" textLength="80" x="373" y="90.0908">newReport(text)</text><ellipse cx="364" cy="99.5078" fill="#84BE84" rx="3" ry="3" style="stroke:#038048;stroke-width:1.0;"/><text fill="#000000" font-family="sans-serif" font-size="11" lengthAdjust="spacing" textLength="64" x="373" y="103.9268">saveReport()</text><!--MD5=[02e4b9b7573f1156f41e60aa5b4e25a4]
class Company--><rect codeLine="12" fill="#FEFECE" filter="url(#fzokwt5quwbvt)" height="75.6719" id="Company" style="stroke:#A80036;stroke-width:1.5;" width="96" x="446.5" y="178"/><ellipse cx="466.45" cy="194" fill="#ADD1B2" rx="11" ry="11" style="stroke:#A80036;stroke-width:1.0;"/><path d="M468.45,190.5 Q468.6531,190 468.8875,189.75 Q469.1219,189.5 469.3875,189.5 Q469.8563,189.5 470.1531,189.7813 Q470.45,190.0625 470.45,190.7188 L470.45,192.2813 Q470.45,192.9375 470.1688,193.2188 Q469.8875,193.5 469.45,193.5 Q469.0594,193.5 468.8094,193.3281 Q468.5594,193.1563 468.45,192.7031 Q468.4031,192.3906 468.2313,192.2188 Q467.9188,191.8906 467.3563,191.7031 Q466.7938,191.5 466.2313,191.5 Q465.5281,191.5 464.9344,191.7813 Q464.3563,192.0625 463.9031,192.6875 Q463.45,193.3125 463.45,194.1719 L463.45,195.0938 Q463.45,196.125 464.2938,196.8125 Q465.1375,197.5 466.6375,197.5 Q467.5281,197.5 468.1531,197.2969 Q468.5125,197.1875 468.9188,196.8281 Q469.1844,196.625 469.325,196.5625 Q469.4656,196.5 469.6375,196.5 Q469.9656,196.5 470.2,196.7656 Q470.45,197.0156 470.45,197.375 Q470.45,197.7188 470.1063,198.125 Q469.6063,198.7188 468.8094,199.0469 Q467.7625,199.5 466.4813,199.5 Q464.9813,199.5 463.7781,198.9063 Q462.8094,198.4375 462.1219,197.4219 Q461.45,196.4063 461.45,195.2031 L461.45,194.1094 Q461.45,192.8594 462.0438,191.7656 Q462.6531,190.6719 463.7,190.0938 Q464.7625,189.5 465.95,189.5 Q466.6688,189.5 467.2938,189.75 Q467.9188,190 468.45,190.5 Z " fill="#000000"/><text fill="#000000" font-family="sans-serif" font-size="12" lengthAdjust="spacing" textLength="53" x="481.55" y="198.9102">Company</text><line style="stroke:#A80036;stroke-width:1.5;" x1="447.5" x2="541.5" y1="210" y2="210"/><rect fill="none" height="6" style="stroke:#C82930;stroke-width:1.0;" width="6" x="454.5" y="218"/><text fill="#000000" font-family="sans-serif" font-size="11" lengthAdjust="spacing" textLength="53" x="466.5" y="225.4189">description</text><line style="stroke:#A80036;stroke-width:1.5;" x1="447.5" x2="541.5" y1="231.8359" y2="231.8359"/><ellipse cx="457.5" cy="242.8359" fill="#84BE84" rx="3" ry="3" style="stroke:#038048;stroke-width:1.0;"/><text fill="#000000" font-family="sans-serif" font-size="11" lengthAdjust="spacing" textLength="70" x="466.5" y="247.2549">getTestStore()</text><!--MD5=[0f6f7964b844a64b0496af0dda7914bd]
class TestStore--><rect codeLine="17" fill="#FEFECE" filter="url(#fzokwt5quwbvt)" height="75.6719" id="TestStore" style="stroke:#A80036;stroke-width:1.5;" width="151" x="569" y="339"/><ellipse cx="613.75" cy="355" fill="#ADD1B2" rx="11" ry="11" style="stroke:#A80036;stroke-width:1.0;"/><path d="M615.75,351.5 Q615.9531,351 616.1875,350.75 Q616.4219,350.5 616.6875,350.5 Q617.1563,350.5 617.4531,350.7813 Q617.75,351.0625 617.75,351.7188 L617.75,353.2813 Q617.75,353.9375 617.4688,354.2188 Q617.1875,354.5 616.75,354.5 Q616.3594,354.5 616.1094,354.3281 Q615.8594,354.1563 615.75,353.7031 Q615.7031,353.3906 615.5313,353.2188 Q615.2188,352.8906 614.6563,352.7031 Q614.0938,352.5 613.5313,352.5 Q612.8281,352.5 612.2344,352.7813 Q611.6563,353.0625 611.2031,353.6875 Q610.75,354.3125 610.75,355.1719 L610.75,356.0938 Q610.75,357.125 611.5938,357.8125 Q612.4375,358.5 613.9375,358.5 Q614.8281,358.5 615.4531,358.2969 Q615.8125,358.1875 616.2188,357.8281 Q616.4844,357.625 616.625,357.5625 Q616.7656,357.5 616.9375,357.5 Q617.2656,357.5 617.5,357.7656 Q617.75,358.0156 617.75,358.375 Q617.75,358.7188 617.4063,359.125 Q616.9063,359.7188 616.1094,360.0469 Q615.0625,360.5 613.7813,360.5 Q612.2813,360.5 611.0781,359.9063 Q610.1094,359.4375 609.4219,358.4219 Q608.75,357.4063 608.75,356.2031 L608.75,355.1094 Q608.75,353.8594 609.3438,352.7656 Q609.9531,351.6719 611,351.0938 Q612.0625,350.5 613.25,350.5 Q613.9688,350.5 614.5938,350.75 Q615.2188,351 615.75,351.5 Z " fill="#000000"/><text fill="#000000" font-family="sans-serif" font-size="12" lengthAdjust="spacing" textLength="53" x="634.25" y="359.9102">TestStore</text><line style="stroke:#A80036;stroke-width:1.5;" x1="570" x2="719" y1="371" y2="371"/><line style="stroke:#A80036;stroke-width:1.5;" x1="570" x2="719" y1="379" y2="379"/><ellipse cx="580" cy="390" fill="#84BE84" rx="3" ry="3" style="stroke:#038048;stroke-width:1.0;"/><text fill="#000000" font-family="sans-serif" font-size="11" lengthAdjust="spacing" textLength="112" x="589" y="394.4189">getTestWithoutReport()</text><ellipse cx="580" cy="403.8359" fill="#84BE84" rx="3" ry="3" style="stroke:#038048;stroke-width:1.0;"/><text fill="#000000" font-family="sans-serif" font-size="11" lengthAdjust="spacing" textLength="125" x="589" y="408.2549">getTestByCode(testCode)</text><!--MD5=[f97b8c00cb514ace9cb97c2a996fb712]
class TestListMapper--><rect codeLine="22" fill="#FEFECE" filter="url(#fzokwt5quwbvt)" height="61.8359" id="TestListMapper" style="stroke:#A80036;stroke-width:1.5;" width="127" x="539" y="27.5"/><ellipse cx="558.5" cy="43.5" fill="#ADD1B2" rx="11" ry="11" style="stroke:#A80036;stroke-width:1.0;"/><path d="M560.5,40 Q560.7031,39.5 560.9375,39.25 Q561.1719,39 561.4375,39 Q561.9063,39 562.2031,39.2813 Q562.5,39.5625 562.5,40.2188 L562.5,41.7813 Q562.5,42.4375 562.2188,42.7188 Q561.9375,43 561.5,43 Q561.1094,43 560.8594,42.8281 Q560.6094,42.6563 560.5,42.2031 Q560.4531,41.8906 560.2813,41.7188 Q559.9688,41.3906 559.4063,41.2031 Q558.8438,41 558.2813,41 Q557.5781,41 556.9844,41.2813 Q556.4063,41.5625 555.9531,42.1875 Q555.5,42.8125 555.5,43.6719 L555.5,44.5938 Q555.5,45.625 556.3438,46.3125 Q557.1875,47 558.6875,47 Q559.5781,47 560.2031,46.7969 Q560.5625,46.6875 560.9688,46.3281 Q561.2344,46.125 561.375,46.0625 Q561.5156,46 561.6875,46 Q562.0156,46 562.25,46.2656 Q562.5,46.5156 562.5,46.875 Q562.5,47.2188 562.1563,47.625 Q561.6563,48.2188 560.8594,48.5469 Q559.8125,49 558.5313,49 Q557.0313,49 555.8281,48.4063 Q554.8594,47.9375 554.1719,46.9219 Q553.5,45.9063 553.5,44.7031 L553.5,43.6094 Q553.5,42.3594 554.0938,41.2656 Q554.7031,40.1719 555.75,39.5938 Q556.8125,39 558,39 Q558.7188,39 559.3438,39.25 Q559.9688,39.5 560.5,40 Z " fill="#000000"/><text fill="#000000" font-family="sans-serif" font-size="12" lengthAdjust="spacing" textLength="85" x="573.5" y="48.4102">TestListMapper</text><line style="stroke:#A80036;stroke-width:1.5;" x1="540" x2="665" y1="59.5" y2="59.5"/><line style="stroke:#A80036;stroke-width:1.5;" x1="540" x2="665" y1="67.5" y2="67.5"/><ellipse cx="550" cy="78.5" fill="#84BE84" rx="3" ry="3" style="stroke:#038048;stroke-width:1.0;"/><text fill="#000000" font-family="sans-serif" font-size="11" lengthAdjust="spacing" textLength="101" x="559" y="82.9189">toDto(lTestNoReport)</text><!--MD5=[df38be88ccee13e832d6fafd6288a4ca]
class Test--><rect codeLine="26" fill="#FEFECE" filter="url(#fzokwt5quwbvt)" height="131.0156" id="Test" style="stroke:#A80036;stroke-width:1.5;" width="164" x="355.5" y="493"/><ellipse cx="421.25" cy="509" fill="#ADD1B2" rx="11" ry="11" style="stroke:#A80036;stroke-width:1.0;"/><path d="M423.25,505.5 Q423.4531,505 423.6875,504.75 Q423.9219,504.5 424.1875,504.5 Q424.6563,504.5 424.9531,504.7813 Q425.25,505.0625 425.25,505.7188 L425.25,507.2813 Q425.25,507.9375 424.9688,508.2188 Q424.6875,508.5 424.25,508.5 Q423.8594,508.5 423.6094,508.3281 Q423.3594,508.1563 423.25,507.7031 Q423.2031,507.3906 423.0313,507.2188 Q422.7188,506.8906 422.1563,506.7031 Q421.5938,506.5 421.0313,506.5 Q420.3281,506.5 419.7344,506.7813 Q419.1563,507.0625 418.7031,507.6875 Q418.25,508.3125 418.25,509.1719 L418.25,510.0938 Q418.25,511.125 419.0938,511.8125 Q419.9375,512.5 421.4375,512.5 Q422.3281,512.5 422.9531,512.2969 Q423.3125,512.1875 423.7188,511.8281 Q423.9844,511.625 424.125,511.5625 Q424.2656,511.5 424.4375,511.5 Q424.7656,511.5 425,511.7656 Q425.25,512.0156 425.25,512.375 Q425.25,512.7188 424.9063,513.125 Q424.4063,513.7188 423.6094,514.0469 Q422.5625,514.5 421.2813,514.5 Q419.7813,514.5 418.5781,513.9063 Q417.6094,513.4375 416.9219,512.4219 Q416.25,511.4063 416.25,510.2031 L416.25,509.1094 Q416.25,507.8594 416.8438,506.7656 Q417.4531,505.6719 418.5,505.0938 Q419.5625,504.5 420.75,504.5 Q421.4688,504.5 422.0938,504.75 Q422.7188,505 423.25,505.5 Z " fill="#000000"/><text fill="#000000" font-family="sans-serif" font-size="12" lengthAdjust="spacing" textLength="24" x="441.75" y="513.9102">Test</text><line style="stroke:#A80036;stroke-width:1.5;" x1="356.5" x2="518.5" y1="525" y2="525"/><rect fill="none" height="6" style="stroke:#C82930;stroke-width:1.0;" width="6" x="363.5" y="533"/><text fill="#000000" font-family="sans-serif" font-size="11" lengthAdjust="spacing" textLength="48" x="375.5" y="540.4189">createdAt</text><rect fill="none" height="6" style="stroke:#C82930;stroke-width:1.0;" width="6" x="363.5" y="546.8359"/><text fill="#000000" font-family="sans-serif" font-size="11" lengthAdjust="spacing" textLength="60" x="375.5" y="554.2549">internalCode</text><rect fill="none" height="6" style="stroke:#C82930;stroke-width:1.0;" width="6" x="363.5" y="560.6719"/><text fill="#000000" font-family="sans-serif" font-size="11" lengthAdjust="spacing" textLength="43" x="375.5" y="568.0908">nhsCode</text><line style="stroke:#A80036;stroke-width:1.5;" x1="356.5" x2="518.5" y1="574.5078" y2="574.5078"/><ellipse cx="366.5" cy="585.5078" fill="#84BE84" rx="3" ry="3" style="stroke:#038048;stroke-width:1.0;"/><text fill="#000000" font-family="sans-serif" font-size="11" lengthAdjust="spacing" textLength="80" x="375.5" y="589.9268">getTestResults()</text><ellipse cx="366.5" cy="599.3438" fill="#84BE84" rx="3" ry="3" style="stroke:#038048;stroke-width:1.0;"/><text fill="#000000" font-family="sans-serif" font-size="11" lengthAdjust="spacing" textLength="87" x="375.5" y="603.7627">addReport(report)</text><rect fill="#F24D5C" height="6" style="stroke:#C82930;stroke-width:1.0;" width="6" x="363.5" y="610.1797"/><text fill="#000000" font-family="sans-serif" font-size="11" lengthAdjust="spacing" textLength="138" x="375.5" y="617.5986">changeStateToReportDone()</text><!--MD5=[4e608140b854dae633589343bce77383]
class TestParameterResult--><rect codeLine="35" fill="#FEFECE" filter="url(#fzokwt5quwbvt)" height="103.3438" id="TestParameterResult" style="stroke:#A80036;stroke-width:1.5;" width="150" x="707.5" y="507"/><ellipse cx="722.5" cy="523" fill="#ADD1B2" rx="11" ry="11" style="stroke:#A80036;stroke-width:1.0;"/><path d="M724.5,519.5 Q724.7031,519 724.9375,518.75 Q725.1719,518.5 725.4375,518.5 Q725.9063,518.5 726.2031,518.7813 Q726.5,519.0625 726.5,519.7188 L726.5,521.2813 Q726.5,521.9375 726.2188,522.2188 Q725.9375,522.5 725.5,522.5 Q725.1094,522.5 724.8594,522.3281 Q724.6094,522.1563 724.5,521.7031 Q724.4531,521.3906 724.2813,521.2188 Q723.9688,520.8906 723.4063,520.7031 Q722.8438,520.5 722.2813,520.5 Q721.5781,520.5 720.9844,520.7813 Q720.4063,521.0625 719.9531,521.6875 Q719.5,522.3125 719.5,523.1719 L719.5,524.0938 Q719.5,525.125 720.3438,525.8125 Q721.1875,526.5 722.6875,526.5 Q723.5781,526.5 724.2031,526.2969 Q724.5625,526.1875 724.9688,525.8281 Q725.2344,525.625 725.375,525.5625 Q725.5156,525.5 725.6875,525.5 Q726.0156,525.5 726.25,525.7656 Q726.5,526.0156 726.5,526.375 Q726.5,526.7188 726.1563,527.125 Q725.6563,527.7188 724.8594,528.0469 Q723.8125,528.5 722.5313,528.5 Q721.0313,528.5 719.8281,527.9063 Q718.8594,527.4375 718.1719,526.4219 Q717.5,525.4063 717.5,524.2031 L717.5,523.1094 Q717.5,521.8594 718.0938,520.7656 Q718.7031,519.6719 719.75,519.0938 Q720.8125,518.5 722,518.5 Q722.7188,518.5 723.3438,518.75 Q723.9688,519 724.5,519.5 Z " fill="#000000"/><text fill="#000000" font-family="sans-serif" font-size="12" lengthAdjust="spacing" textLength="118" x="736.5" y="527.9102">TestParameterResult</text><line style="stroke:#A80036;stroke-width:1.5;" x1="708.5" x2="856.5" y1="539" y2="539"/><rect fill="none" height="6" style="stroke:#C82930;stroke-width:1.0;" width="6" x="715.5" y="547"/><text fill="#000000" font-family="sans-serif" font-size="11" lengthAdjust="spacing" textLength="48" x="727.5" y="554.4189">createdAt</text><rect fill="none" height="6" style="stroke:#C82930;stroke-width:1.0;" width="6" x="715.5" y="560.8359"/><text fill="#000000" font-family="sans-serif" font-size="11" lengthAdjust="spacing" textLength="26" x="727.5" y="568.2549">value</text><rect fill="none" height="6" style="stroke:#C82930;stroke-width:1.0;" width="6" x="715.5" y="574.6719"/><text fill="#000000" font-family="sans-serif" font-size="11" lengthAdjust="spacing" textLength="29" x="727.5" y="582.0908">metric</text><line style="stroke:#A80036;stroke-width:1.5;" x1="708.5" x2="856.5" y1="588.5078" y2="588.5078"/><ellipse cx="718.5" cy="599.5078" fill="#84BE84" rx="3" ry="3" style="stroke:#038048;stroke-width:1.0;"/><text fill="#000000" font-family="sans-serif" font-size="11" lengthAdjust="spacing" textLength="45" x="727.5" y="603.9268">toString()</text><!--MD5=[f00dbe8c0302c6aec2cb26b3c659c8fc]
class Report--><rect codeLine="42" fill="#FEFECE" filter="url(#fzokwt5quwbvt)" height="89.5078" id="Report" style="stroke:#A80036;stroke-width:1.5;" width="147" x="193" y="171"/><ellipse cx="243.75" cy="187" fill="#ADD1B2" rx="11" ry="11" style="stroke:#A80036;stroke-width:1.0;"/><path d="M245.75,183.5 Q245.9531,183 246.1875,182.75 Q246.4219,182.5 246.6875,182.5 Q247.1563,182.5 247.4531,182.7813 Q247.75,183.0625 247.75,183.7188 L247.75,185.2813 Q247.75,185.9375 247.4688,186.2188 Q247.1875,186.5 246.75,186.5 Q246.3594,186.5 246.1094,186.3281 Q245.8594,186.1563 245.75,185.7031 Q245.7031,185.3906 245.5313,185.2188 Q245.2188,184.8906 244.6563,184.7031 Q244.0938,184.5 243.5313,184.5 Q242.8281,184.5 242.2344,184.7813 Q241.6563,185.0625 241.2031,185.6875 Q240.75,186.3125 240.75,187.1719 L240.75,188.0938 Q240.75,189.125 241.5938,189.8125 Q242.4375,190.5 243.9375,190.5 Q244.8281,190.5 245.4531,190.2969 Q245.8125,190.1875 246.2188,189.8281 Q246.4844,189.625 246.625,189.5625 Q246.7656,189.5 246.9375,189.5 Q247.2656,189.5 247.5,189.7656 Q247.75,190.0156 247.75,190.375 Q247.75,190.7188 247.4063,191.125 Q246.9063,191.7188 246.1094,192.0469 Q245.0625,192.5 243.7813,192.5 Q242.2813,192.5 241.0781,191.9063 Q240.1094,191.4375 239.4219,190.4219 Q238.75,189.4063 238.75,188.2031 L238.75,187.1094 Q238.75,185.8594 239.3438,184.7656 Q239.9531,183.6719 241,183.0938 Q242.0625,182.5 243.25,182.5 Q243.9688,182.5 244.5938,182.75 Q245.2188,183 245.75,183.5 Z " fill="#000000"/><text fill="#000000" font-family="sans-serif" font-size="12" lengthAdjust="spacing" textLength="37" x="264.25" y="191.9102">Report</text><line style="stroke:#A80036;stroke-width:1.5;" x1="194" x2="339" y1="203" y2="203"/><rect fill="none" height="6" style="stroke:#C82930;stroke-width:1.0;" width="6" x="201" y="211"/><text fill="#000000" font-family="sans-serif" font-size="11" lengthAdjust="spacing" textLength="48" x="213" y="218.4189">createdAt</text><rect fill="none" height="6" style="stroke:#C82930;stroke-width:1.0;" width="6" x="201" y="224.8359"/><text fill="#000000" font-family="sans-serif" font-size="11" lengthAdjust="spacing" textLength="50" x="213" y="232.2549">reportText</text><line style="stroke:#A80036;stroke-width:1.5;" x1="194" x2="339" y1="238.6719" y2="238.6719"/><ellipse cx="204" cy="249.6719" fill="#84BE84" rx="3" ry="3" style="stroke:#038048;stroke-width:1.0;"/><text fill="#000000" font-family="sans-serif" font-size="11" lengthAdjust="spacing" textLength="121" x="213" y="254.0908">registerReportDateTime()</text><!--MD5=[20ddef7090025b04fb973268620c0974]
class DateTime--><rect codeLine="48" fill="#FEFECE" filter="url(#fzokwt5quwbvt)" height="89.5078" id="DateTime" style="stroke:#A80036;stroke-width:1.5;" width="151" x="7" y="171"/><ellipse cx="51.25" cy="187" fill="#ADD1B2" rx="11" ry="11" style="stroke:#A80036;stroke-width:1.0;"/><path d="M53.25,183.5 Q53.4531,183 53.6875,182.75 Q53.9219,182.5 54.1875,182.5 Q54.6563,182.5 54.9531,182.7813 Q55.25,183.0625 55.25,183.7188 L55.25,185.2813 Q55.25,185.9375 54.9688,186.2188 Q54.6875,186.5 54.25,186.5 Q53.8594,186.5 53.6094,186.3281 Q53.3594,186.1563 53.25,185.7031 Q53.2031,185.3906 53.0313,185.2188 Q52.7188,184.8906 52.1563,184.7031 Q51.5938,184.5 51.0313,184.5 Q50.3281,184.5 49.7344,184.7813 Q49.1563,185.0625 48.7031,185.6875 Q48.25,186.3125 48.25,187.1719 L48.25,188.0938 Q48.25,189.125 49.0938,189.8125 Q49.9375,190.5 51.4375,190.5 Q52.3281,190.5 52.9531,190.2969 Q53.3125,190.1875 53.7188,189.8281 Q53.9844,189.625 54.125,189.5625 Q54.2656,189.5 54.4375,189.5 Q54.7656,189.5 55,189.7656 Q55.25,190.0156 55.25,190.375 Q55.25,190.7188 54.9063,191.125 Q54.4063,191.7188 53.6094,192.0469 Q52.5625,192.5 51.2813,192.5 Q49.7813,192.5 48.5781,191.9063 Q47.6094,191.4375 46.9219,190.4219 Q46.25,189.4063 46.25,188.2031 L46.25,187.1094 Q46.25,185.8594 46.8438,184.7656 Q47.4531,183.6719 48.5,183.0938 Q49.5625,182.5 50.75,182.5 Q51.4688,182.5 52.0938,182.75 Q52.7188,183 53.25,183.5 Z " fill="#000000"/><text fill="#000000" font-family="sans-serif" font-size="12" lengthAdjust="spacing" textLength="54" x="71.75" y="191.9102">DateTime</text><line style="stroke:#A80036;stroke-width:1.5;" x1="8" x2="157" y1="203" y2="203"/><rect fill="none" height="6" style="stroke:#C82930;stroke-width:1.0;" width="6" x="15" y="211"/><text fill="#000000" font-family="sans-serif" font-size="11" lengthAdjust="spacing" textLength="21" x="27" y="218.4189">date</text><rect fill="none" height="6" style="stroke:#C82930;stroke-width:1.0;" width="6" x="15" y="224.8359"/><text fill="#000000" font-family="sans-serif" font-size="11" lengthAdjust="spacing" textLength="19" x="27" y="232.2549">time</text><line style="stroke:#A80036;stroke-width:1.5;" x1="8" x2="157" y1="238.6719" y2="238.6719"/><ellipse cx="18" cy="249.6719" fill="#84BE84" rx="3" ry="3" style="stroke:#038048;stroke-width:1.0;"/><text fill="#000000" font-family="sans-serif" font-size="11" lengthAdjust="spacing" textLength="125" x="27" y="254.0908">registerCurrentDateTime()</text><!--MD5=[4ff913b72b026e4c95390310e4df5ddd]
link WriteReportUI to WriteReportController--><path codeLine="54" d="M318.29,58.5 C328.06,58.5 337.84,58.5 347.61,58.5 " fill="none" id="WriteReportUI-to-WriteReportController" style="stroke:#A80036;stroke-width:1.0;stroke-dasharray:7.0,7.0;"/><polygon fill="#A80036" points="352.73,58.5,343.73,54.5,347.73,58.5,343.73,62.5,352.73,58.5" style="stroke:#A80036;stroke-width:1.0;"/><!--MD5=[a3405a5a29c0a1359ce5b85a18cd6043]
link WriteReportController to Company--><path codeLine="55" d="M450.11,110.42 C458.71,130.67 468.48,153.69 476.66,172.96 " fill="none" id="WriteReportController-to-Company" style="stroke:#A80036;stroke-width:1.0;stroke-dasharray:7.0,7.0;"/><polygon fill="#A80036" points="478.7,177.78,478.8572,167.9324,476.7425,173.1791,471.4958,171.0644,478.7,177.78" style="stroke:#A80036;stroke-width:1.0;"/><!--MD5=[aa4aa685cc8a1bee089823f9a2dac854]
link WriteReportController to TestStore--><path codeLine="56" d="M500.31,110.24 C521.39,127.69 543.15,148.55 559.5,171 C596.3,221.53 620.59,290.36 633.45,333.99 " fill="none" id="WriteReportController-to-TestStore" style="stroke:#A80036;stroke-width:1.0;stroke-dasharray:7.0,7.0;"/><polygon fill="#A80036" points="634.89,338.92,636.21,329.16,633.49,334.12,628.53,331.4,634.89,338.92" style="stroke:#A80036;stroke-width:1.0;"/><!--MD5=[5f7e16a0d3ad367d3a8be993a13d813b]
link WriteReportController to TestListMapper--><path codeLine="57" d="M504.29,58.5 C514.09,58.5 523.89,58.5 533.69,58.5 " fill="none" id="WriteReportController-to-TestListMapper" style="stroke:#A80036;stroke-width:1.0;stroke-dasharray:7.0,7.0;"/><polygon fill="#A80036" points="538.81,58.5,529.81,54.5,533.81,58.5,529.81,62.5,538.81,58.5" style="stroke:#A80036;stroke-width:1.0;"/><!--MD5=[7278674e9ca3925782f5c87c1bd9dd49]
link WriteReportController to Test--><path codeLine="58" d="M428.08,110.02 C427.84,150.77 427.72,209.58 428.5,261 C429.68,338.63 432.59,427.66 434.78,487.74 " fill="none" id="WriteReportController-to-Test" style="stroke:#A80036;stroke-width:1.0;stroke-dasharray:7.0,7.0;"/><polygon fill="#A80036" points="434.97,492.73,438.6322,483.5873,434.7839,487.7335,430.6378,483.8851,434.97,492.73" style="stroke:#A80036;stroke-width:1.0;"/><!--MD5=[282cfc7c590a34915ae3d174e5d7b309]
link WriteReportController to Report--><path codeLine="59" d="M375.46,110.42 C356.42,128.69 335.04,149.21 316.3,167.2 " fill="none" id="WriteReportController-to-Report" style="stroke:#A80036;stroke-width:1.0;stroke-dasharray:7.0,7.0;"/><polygon fill="#A80036" points="312.58,170.76,321.8487,167.4296,316.1932,167.3039,316.3189,161.6484,312.58,170.76" style="stroke:#A80036;stroke-width:1.0;"/><!--MD5=[7e4bc624457760b649895ff2ead938fa]
link Company to Test--><path codeLine="60" d="M488.29,254.09 C478.92,310.06 461.01,417.07 449.16,487.87 " fill="none" id="Company-to-Test" style="stroke:#A80036;stroke-width:1.0;"/><polygon fill="#A80036" points="448.31,492.9,453.7429,484.6851,449.1366,487.9688,445.853,483.3626,448.31,492.9" style="stroke:#A80036;stroke-width:1.0;"/><text fill="#000000" font-family="sans-serif" font-size="13" lengthAdjust="spacing" textLength="50" x="475.5" y="382.4951">performs</text><text fill="#000000" font-family="sans-serif" font-size="13" lengthAdjust="spacing" textLength="7" x="479.6818" y="275.2751">1</text><text fill="#000000" font-family="sans-serif" font-size="13" lengthAdjust="spacing" textLength="5" x="444.2189" y="482.3635">*</text><!--MD5=[7f6cf7f175eae0af66201860de5de971]
link Company to TestStore--><path codeLine="61" d="M519.5,254.41 C531.85,271.78 547.52,292.24 563.5,309 C572.17,318.09 582.04,327.14 591.83,335.52 " fill="none" id="Company-to-TestStore" style="stroke:#A80036;stroke-width:1.0;"/><polygon fill="#A80036" points="595.72,338.81,591.4184,329.9502,591.8977,335.5867,586.2611,336.0659,595.72,338.81" style="stroke:#A80036;stroke-width:1.0;"/><text fill="#000000" font-family="sans-serif" font-size="13" lengthAdjust="spacing" textLength="28" x="564.5" y="305.4951">uses</text><text fill="#000000" font-family="sans-serif" font-size="13" lengthAdjust="spacing" textLength="7" x="515.7922" y="275.0637">1</text><text fill="#000000" font-family="sans-serif" font-size="13" lengthAdjust="spacing" textLength="7" x="579.4076" y="328.1381">1</text><!--MD5=[b0f4f6db8206580012ef9cd998ed01c5]
link TestStore to Test--><path codeLine="62" d="M601.61,415.19 C576.9,436.62 545.08,464.21 516.05,489.39 " fill="none" id="TestStore-to-Test" style="stroke:#A80036;stroke-width:1.0;"/><polygon fill="#A80036" points="512.15,492.76,521.5697,489.8843,515.927,489.4837,516.3276,483.8411,512.15,492.76" style="stroke:#A80036;stroke-width:1.0;"/><text fill="#000000" font-family="sans-serif" font-size="13" lengthAdjust="spacing" textLength="29" x="567.5" y="459.4951">store</text><text fill="#000000" font-family="sans-serif" font-size="13" lengthAdjust="spacing" textLength="7" x="587.2166" y="436.1008">1</text><text fill="#000000" font-family="sans-serif" font-size="13" lengthAdjust="spacing" textLength="5" x="515.0414" y="482.2082">*</text><!--MD5=[12189d12e156ffd517416dd9dd697e80]
reverse link Report to Test--><path codeLine="63" d="M270.12,266.25 C274.78,307.81 285.41,367.9 309.5,415 C323.89,443.13 345.22,470 366.37,492.68 " fill="none" id="Report-backto-Test" style="stroke:#A80036;stroke-width:1.0;"/><polygon fill="#A80036" points="269.58,261.27,266.5806,270.651,270.1228,266.2405,274.5333,269.7826,269.58,261.27" style="stroke:#A80036;stroke-width:1.0;"/><text fill="#000000" font-family="sans-serif" font-size="13" lengthAdjust="spacing" textLength="56" x="310.5" y="382.4951">originates</text><text fill="#000000" font-family="sans-serif" font-size="13" lengthAdjust="spacing" textLength="7" x="262.5236" y="281.98">1</text><text fill="#000000" font-family="sans-serif" font-size="13" lengthAdjust="spacing" textLength="7" x="351.2073" y="482.1194">1</text><!--MD5=[7e640006601b46b45f9a4772292905af]
link Test to TestParameterResult--><path codeLine="64" d="M519.7,558.5 C574.92,558.5 647.33,558.5 702.16,558.5 " fill="none" id="Test-to-TestParameterResult" style="stroke:#A80036;stroke-width:1.0;"/><polygon fill="#A80036" points="707.41,558.5,698.41,554.5,702.41,558.5,698.41,562.5,707.41,558.5" style="stroke:#A80036;stroke-width:1.0;"/><text fill="#000000" font-family="sans-serif" font-size="13" lengthAdjust="spacing" textLength="151" x="538" y="551.9951">analyses parameter to get</text><text fill="#000000" font-family="sans-serif" font-size="13" lengthAdjust="spacing" textLength="7" x="527.6005" y="555.2731">1</text><text fill="#000000" font-family="sans-serif" font-size="13" lengthAdjust="spacing" textLength="5" x="694.4085" y="555.1705">*</text><!--MD5=[4572c2f544034c2f384096b1e5d30c96]
reverse link DateTime to Report--><path codeLine="65" d="M163.47,216 C173.31,216 183.14,216 192.98,216 " fill="none" id="DateTime-backto-Report" style="stroke:#A80036;stroke-width:1.0;stroke-dasharray:7.0,7.0;"/><polygon fill="#A80036" points="158.33,216,167.33,220,163.33,216,167.33,212,158.33,216" style="stroke:#A80036;stroke-width:1.0;"/><!--MD5=[772e1d4f39e74768c62f6e6c91d6acdf]
@startuml

class WriteReportUI {
}

class WriteReportController {
    +getTestWithoutReport()
    +getTestResults(testCode)
    +newReport(text)
    +saveReport()
}

class Company {
    -description
    +getTestStore()
}

class TestStore {
    +getTestWithoutReport()
    +getTestByCode(testCode)
}

class TestListMapper {
    +toDto(lTestNoReport)
}

class Test {
    -createdAt
    -internalCode
    -nhsCode
    +getTestResults()
    +addReport(report)
    -changeStateToReportDone()
}

class TestParameterResult {
    -createdAt
    -value
    -metric
    +toString()
}

class Report {
    -createdAt
    -reportText
    +registerReportDateTime()
}

class DateTime {
    -date
    -time
    +registerCurrentDateTime()
}

WriteReportUI .right.> WriteReportController
WriteReportController ..> Company
WriteReportController ..> TestStore
WriteReportController .right.> TestListMapper
WriteReportController ..> Test
WriteReportController ..> Report
Company"1" - -> "*"Test : "performs"
Company"1" - -> "1"TestStore : "uses"
TestStore"1" - -> "*"Test : "store"
Test"1" -left-> "1"Report : "originates"
Test"1" -right-> "*"TestParameterResult : "analyses parameter to get"
Report .left.> DateTime

@enduml

PlantUML version 1.2021.5(Sun Apr 25 12:20:28 BST 2021)
(GPL source distribution)
Java Runtime: OpenJDK Runtime Environment
JVM: Dynamic Code Evolution 64-Bit Server VM
Default Encoding: Cp1252
Language: en
Country: US
--></g></svg>