<?xml version="1.0" encoding="UTF-8" standalone="no"?><svg xmlns="http://www.w3.org/2000/svg" xmlns:xlink="http://www.w3.org/1999/xlink" contentScriptType="application/ecmascript" contentStyleType="text/css" height="380px" preserveAspectRatio="none" style="width:171px;height:380px;" version="1.1" viewBox="0 0 171 380" width="171px" zoomAndPan="magnify"><defs><filter height="300%" id="fvib2hodp346r" width="300%" x="-1" y="-1"><feGaussianBlur result="blurOut" stdDeviation="2.0"/><feColorMatrix in="blurOut" result="blurOut2" type="matrix" values="0 0 0 0 0 0 0 0 0 0 0 0 0 0 0 0 0 0 .4 0"/><feOffset dx="4.0" dy="4.0" in="blurOut2" result="blurOut3"/><feBlend in="SourceGraphic" in2="blurOut3" mode="normal"/></filter></defs><g><!--MD5=[7d96fd15f3014691d2fcaf89c5791e2a]
class SpecialistDoctor--><rect codeLine="4" fill="#FEFECE" filter="url(#fvib2hodp346r)" height="53.8359" id="SpecialistDoctor" style="stroke:#A80036;stroke-width:1.5;" width="122" x="21" y="167"/><ellipse cx="36" cy="183" fill="#ADD1B2" rx="11" ry="11" style="stroke:#A80036;stroke-width:1.0;"/><path d="M38,179.5 Q38.2031,179 38.4375,178.75 Q38.6719,178.5 38.9375,178.5 Q39.4063,178.5 39.7031,178.7813 Q40,179.0625 40,179.7188 L40,181.2813 Q40,181.9375 39.7188,182.2188 Q39.4375,182.5 39,182.5 Q38.6094,182.5 38.3594,182.3281 Q38.1094,182.1563 38,181.7031 Q37.9531,181.3906 37.7813,181.2188 Q37.4688,180.8906 36.9063,180.7031 Q36.3438,180.5 35.7813,180.5 Q35.0781,180.5 34.4844,180.7813 Q33.9063,181.0625 33.4531,181.6875 Q33,182.3125 33,183.1719 L33,184.0938 Q33,185.125 33.8438,185.8125 Q34.6875,186.5 36.1875,186.5 Q37.0781,186.5 37.7031,186.2969 Q38.0625,186.1875 38.4688,185.8281 Q38.7344,185.625 38.875,185.5625 Q39.0156,185.5 39.1875,185.5 Q39.5156,185.5 39.75,185.7656 Q40,186.0156 40,186.375 Q40,186.7188 39.6563,187.125 Q39.1563,187.7188 38.3594,188.0469 Q37.3125,188.5 36.0313,188.5 Q34.5313,188.5 33.3281,187.9063 Q32.3594,187.4375 31.6719,186.4219 Q31,185.4063 31,184.2031 L31,183.1094 Q31,181.8594 31.5938,180.7656 Q32.2031,179.6719 33.25,179.0938 Q34.3125,178.5 35.5,178.5 Q36.2188,178.5 36.8438,178.75 Q37.4688,179 38,179.5 Z " fill="#000000"/><text fill="#000000" font-family="sans-serif" font-size="12" lengthAdjust="spacing" textLength="90" x="50" y="187.9102">SpecialistDoctor</text><line style="stroke:#A80036;stroke-width:1.5;" x1="22" x2="142" y1="199" y2="199"/><rect fill="none" height="6" style="stroke:#C82930;stroke-width:1.0;" width="6" x="29" y="207"/><text fill="#000000" font-family="sans-serif" font-size="11" lengthAdjust="spacing" textLength="94" x="41" y="214.4189">doctorIndexNumber</text><!--MD5=[f00dbe8c0302c6aec2cb26b3c659c8fc]
class Report--><rect codeLine="8" fill="#FEFECE" filter="url(#fvib2hodp346r)" height="67.6719" id="Report" style="stroke:#A80036;stroke-width:1.5;" width="74" x="45" y="299"/><ellipse cx="62.25" cy="315" fill="#ADD1B2" rx="11" ry="11" style="stroke:#A80036;stroke-width:1.0;"/><path d="M64.25,311.5 Q64.4531,311 64.6875,310.75 Q64.9219,310.5 65.1875,310.5 Q65.6563,310.5 65.9531,310.7813 Q66.25,311.0625 66.25,311.7188 L66.25,313.2813 Q66.25,313.9375 65.9688,314.2188 Q65.6875,314.5 65.25,314.5 Q64.8594,314.5 64.6094,314.3281 Q64.3594,314.1563 64.25,313.7031 Q64.2031,313.3906 64.0313,313.2188 Q63.7188,312.8906 63.1563,312.7031 Q62.5938,312.5 62.0313,312.5 Q61.3281,312.5 60.7344,312.7813 Q60.1563,313.0625 59.7031,313.6875 Q59.25,314.3125 59.25,315.1719 L59.25,316.0938 Q59.25,317.125 60.0938,317.8125 Q60.9375,318.5 62.4375,318.5 Q63.3281,318.5 63.9531,318.2969 Q64.3125,318.1875 64.7188,317.8281 Q64.9844,317.625 65.125,317.5625 Q65.2656,317.5 65.4375,317.5 Q65.7656,317.5 66,317.7656 Q66.25,318.0156 66.25,318.375 Q66.25,318.7188 65.9063,319.125 Q65.4063,319.7188 64.6094,320.0469 Q63.5625,320.5 62.2813,320.5 Q60.7813,320.5 59.5781,319.9063 Q58.6094,319.4375 57.9219,318.4219 Q57.25,317.4063 57.25,316.2031 L57.25,315.1094 Q57.25,313.8594 57.8438,312.7656 Q58.4531,311.6719 59.5,311.0938 Q60.5625,310.5 61.75,310.5 Q62.4688,310.5 63.0938,310.75 Q63.7188,311 64.25,311.5 Z " fill="#000000"/><text fill="#000000" font-family="sans-serif" font-size="12" lengthAdjust="spacing" textLength="37" x="76.75" y="319.9102">Report</text><line style="stroke:#A80036;stroke-width:1.5;" x1="46" x2="118" y1="331" y2="331"/><rect fill="none" height="6" style="stroke:#C82930;stroke-width:1.0;" width="6" x="53" y="339"/><text fill="#000000" font-family="sans-serif" font-size="11" lengthAdjust="spacing" textLength="48" x="65" y="346.4189">createdAt</text><rect fill="none" height="6" style="stroke:#C82930;stroke-width:1.0;" width="6" x="53" y="352.8359"/><text fill="#000000" font-family="sans-serif" font-size="11" lengthAdjust="spacing" textLength="46" x="65" y="360.2549">diagnosis</text><!--MD5=[4e608140b854dae633589343bce77383]
class TestParameterResult--><rect codeLine="13" fill="#FEFECE" filter="url(#fvib2hodp346r)" height="81.5078" id="TestParameterResult" style="stroke:#A80036;stroke-width:1.5;" width="150" x="7" y="7"/><ellipse cx="22" cy="23" fill="#ADD1B2" rx="11" ry="11" style="stroke:#A80036;stroke-width:1.0;"/><path d="M24,19.5 Q24.2031,19 24.4375,18.75 Q24.6719,18.5 24.9375,18.5 Q25.4063,18.5 25.7031,18.7813 Q26,19.0625 26,19.7188 L26,21.2813 Q26,21.9375 25.7188,22.2188 Q25.4375,22.5 25,22.5 Q24.6094,22.5 24.3594,22.3281 Q24.1094,22.1563 24,21.7031 Q23.9531,21.3906 23.7813,21.2188 Q23.4688,20.8906 22.9063,20.7031 Q22.3438,20.5 21.7813,20.5 Q21.0781,20.5 20.4844,20.7813 Q19.9063,21.0625 19.4531,21.6875 Q19,22.3125 19,23.1719 L19,24.0938 Q19,25.125 19.8438,25.8125 Q20.6875,26.5 22.1875,26.5 Q23.0781,26.5 23.7031,26.2969 Q24.0625,26.1875 24.4688,25.8281 Q24.7344,25.625 24.875,25.5625 Q25.0156,25.5 25.1875,25.5 Q25.5156,25.5 25.75,25.7656 Q26,26.0156 26,26.375 Q26,26.7188 25.6563,27.125 Q25.1563,27.7188 24.3594,28.0469 Q23.3125,28.5 22.0313,28.5 Q20.5313,28.5 19.3281,27.9063 Q18.3594,27.4375 17.6719,26.4219 Q17,25.4063 17,24.2031 L17,23.1094 Q17,21.8594 17.5938,20.7656 Q18.2031,19.6719 19.25,19.0938 Q20.3125,18.5 21.5,18.5 Q22.2188,18.5 22.8438,18.75 Q23.4688,19 24,19.5 Z " fill="#000000"/><text fill="#000000" font-family="sans-serif" font-size="12" lengthAdjust="spacing" textLength="118" x="36" y="27.9102">TestParameterResult</text><line style="stroke:#A80036;stroke-width:1.5;" x1="8" x2="156" y1="39" y2="39"/><rect fill="none" height="6" style="stroke:#C82930;stroke-width:1.0;" width="6" x="15" y="47"/><text fill="#000000" font-family="sans-serif" font-size="11" lengthAdjust="spacing" textLength="26" x="27" y="54.4189">value</text><rect fill="none" height="6" style="stroke:#C82930;stroke-width:1.0;" width="6" x="15" y="60.8359"/><text fill="#000000" font-family="sans-serif" font-size="11" lengthAdjust="spacing" textLength="29" x="27" y="68.2549">metric</text><rect fill="none" height="6" style="stroke:#C82930;stroke-width:1.0;" width="6" x="15" y="74.6719"/><text fill="#000000" font-family="sans-serif" font-size="11" lengthAdjust="spacing" textLength="42" x="27" y="82.0908">refValue</text><!--MD5=[35c5d5b78cc27fdb07caaeeaa436e174]
link SpecialistDoctor to Report--><path codeLine="19" d="M82,221.09 C82,243.22 82,275.08 82,298.98 " fill="none" id="SpecialistDoctor-Report" style="stroke:#A80036;stroke-width:1.0;"/><polygon fill="#000000" points="87,265.1758,89.9389,256.1307,84.0611,256.1307,87,265.1758" style="stroke:#000000;stroke-width:1.0;"/><text fill="#000000" font-family="sans-serif" font-size="13" lengthAdjust="spacing" textLength="34" x="96" y="265.4951">writes</text><text fill="#000000" font-family="sans-serif" font-size="13" lengthAdjust="spacing" textLength="20" x="59.8125" y="242.3175">1..*</text><text fill="#000000" font-family="sans-serif" font-size="13" lengthAdjust="spacing" textLength="5" x="76.5078" y="288.2693">*</text><!--MD5=[a0cffede1540c7fe5274bab1ecc4d208]
link TestParameterResult to SpecialistDoctor--><path codeLine="20" d="M82,89.11 C82,113.91 82,145.04 82,166.72 " fill="none" id="TestParameterResult-SpecialistDoctor" style="stroke:#A80036;stroke-width:1.0;"/><polygon fill="#000000" points="87,123.1758,84.0611,132.2209,89.9389,132.2209,87,123.1758" style="stroke:#000000;stroke-width:1.0;"/><text fill="#000000" font-family="sans-serif" font-size="13" lengthAdjust="spacing" textLength="42" x="96" y="133.4951">checks</text><text fill="#000000" font-family="sans-serif" font-size="13" lengthAdjust="spacing" textLength="5" x="76.6328" y="109.8801">*</text><text fill="#000000" font-family="sans-serif" font-size="13" lengthAdjust="spacing" textLength="20" x="59.6875" y="156.1162">1..*</text><!--MD5=[cdd8b0d6a9b792cf59d4cad09abdc9c2]
@startuml

hide methods

class SpecialistDoctor {
    - doctorIndexNumber
}

class Report {
    -createdAt
    -diagnosis
}

class TestParameterResult {
    -value
    -metric
    -refValue
}

SpecialistDoctor"1..*" - - "*"Report : "> writes"
SpecialistDoctor"1..*" -up- "*"TestParameterResult : "> checks"


@enduml

PlantUML version 1.2021.5(Sun Apr 25 12:20:28 BST 2021)
(GPL source distribution)
Java Runtime: OpenJDK Runtime Environment
JVM: Dynamic Code Evolution 64-Bit Server VM
Default Encoding: Cp1252
Language: en
Country: US
--></g></svg>