<?xml version="1.0" encoding="UTF-8" standalone="no"?><svg xmlns="http://www.w3.org/2000/svg" xmlns:xlink="http://www.w3.org/1999/xlink" contentScriptType="application/ecmascript" contentStyleType="text/css" height="438px" preserveAspectRatio="none" style="width:473px;height:438px;" version="1.1" viewBox="0 0 473 438" width="473px" zoomAndPan="magnify"><defs><filter height="300%" id="f1s6l89uegwmj5" width="300%" x="-1" y="-1"><feGaussianBlur result="blurOut" stdDeviation="2.0"/><feColorMatrix in="blurOut" result="blurOut2" type="matrix" values="0 0 0 0 0 0 0 0 0 0 0 0 0 0 0 0 0 0 .4 0"/><feOffset dx="4.0" dy="4.0" in="blurOut2" result="blurOut3"/><feBlend in="SourceGraphic" in2="blurOut3" mode="normal"/></filter></defs><g><rect fill="#FFFFFF" filter="url(#f1s6l89uegwmj5)" height="30.3516" style="stroke:#A80036;stroke-width:1.0;" width="10" x="424" y="121.9609"/><rect fill="#FFFFFF" filter="url(#f1s6l89uegwmj5)" height="30.3516" style="stroke:#A80036;stroke-width:1.0;" width="10" x="424" y="182.6641"/><rect fill="#FFFFFF" filter="url(#f1s6l89uegwmj5)" height="30.3516" style="stroke:#A80036;stroke-width:1.0;" width="10" x="424" y="243.3672"/><rect fill="#FFFFFF" filter="url(#f1s6l89uegwmj5)" height="30.3516" style="stroke:#A80036;stroke-width:1.0;" width="10" x="424" y="304.0703"/><line style="stroke:#A80036;stroke-width:1.0;stroke-dasharray:5.0,5.0;" x1="61" x2="61" y1="89.6094" y2="352.4219"/><line style="stroke:#A80036;stroke-width:1.0;stroke-dasharray:5.0,5.0;" x1="429" x2="429" y1="89.6094" y2="352.4219"/><text fill="#000000" font-family="sans-serif" font-size="14" lengthAdjust="spacing" textLength="106" x="5" y="86.5332">Specialist Doctor</text><ellipse cx="61" cy="15" fill="#FEFECE" filter="url(#f1s6l89uegwmj5)" rx="8" ry="8" style="stroke:#A80036;stroke-width:2.0;"/><path d="M61,23 L61,50 M48,31 L74,31 M61,50 L48,65 M61,50 L74,65 " fill="none" filter="url(#f1s6l89uegwmj5)" style="stroke:#A80036;stroke-width:2.0;"/><text fill="#000000" font-family="sans-serif" font-size="14" lengthAdjust="spacing" textLength="106" x="5" y="365.9551">Specialist Doctor</text><ellipse cx="61" cy="379.0313" fill="#FEFECE" filter="url(#f1s6l89uegwmj5)" rx="8" ry="8" style="stroke:#A80036;stroke-width:2.0;"/><path d="M61,387.0313 L61,414.0313 M48,395.0313 L74,395.0313 M61,414.0313 L48,429.0313 M61,414.0313 L74,429.0313 " fill="none" filter="url(#f1s6l89uegwmj5)" style="stroke:#A80036;stroke-width:2.0;"/><rect fill="#FEFECE" filter="url(#f1s6l89uegwmj5)" height="31.6094" style="stroke:#A80036;stroke-width:1.5;" width="64" x="395" y="53"/><text fill="#000000" font-family="sans-serif" font-size="14" lengthAdjust="spacing" textLength="50" x="402" y="74.5332">:System</text><rect fill="#FEFECE" filter="url(#f1s6l89uegwmj5)" height="31.6094" style="stroke:#A80036;stroke-width:1.5;" width="64" x="395" y="351.4219"/><text fill="#000000" font-family="sans-serif" font-size="14" lengthAdjust="spacing" textLength="50" x="402" y="372.9551">:System</text><rect fill="#FFFFFF" filter="url(#f1s6l89uegwmj5)" height="30.3516" style="stroke:#A80036;stroke-width:1.0;" width="10" x="424" y="121.9609"/><rect fill="#FFFFFF" filter="url(#f1s6l89uegwmj5)" height="30.3516" style="stroke:#A80036;stroke-width:1.0;" width="10" x="424" y="182.6641"/><rect fill="#FFFFFF" filter="url(#f1s6l89uegwmj5)" height="30.3516" style="stroke:#A80036;stroke-width:1.0;" width="10" x="424" y="243.3672"/><rect fill="#FFFFFF" filter="url(#f1s6l89uegwmj5)" height="30.3516" style="stroke:#A80036;stroke-width:1.0;" width="10" x="424" y="304.0703"/><polygon fill="#A80036" points="412,117.9609,422,121.9609,412,125.9609,416,121.9609" style="stroke:#A80036;stroke-width:1.0;"/><line style="stroke:#A80036;stroke-width:1.0;" x1="61" x2="418" y1="121.9609" y2="121.9609"/><text fill="#000000" font-family="sans-serif" font-size="13" font-weight="bold" lengthAdjust="spacing" textLength="7" x="68" y="117.1045">1</text><text fill="#000000" font-family="sans-serif" font-size="13" lengthAdjust="spacing" textLength="134" x="79" y="117.1045">Write a report for a test</text><polygon fill="#A80036" points="72,148.3125,62,152.3125,72,156.3125,68,152.3125" style="stroke:#A80036;stroke-width:1.0;"/><line style="stroke:#A80036;stroke-width:1.0;stroke-dasharray:2.0,2.0;" x1="66" x2="428" y1="152.3125" y2="152.3125"/><text fill="#000000" font-family="sans-serif" font-size="13" font-weight="bold" lengthAdjust="spacing" textLength="7" x="78" y="147.4561">2</text><text fill="#000000" font-family="sans-serif" font-size="13" lengthAdjust="spacing" textLength="328" x="89" y="147.4561">Asks for which existing test he wants to write a report for</text><polygon fill="#A80036" points="412,178.6641,422,182.6641,412,186.6641,416,182.6641" style="stroke:#A80036;stroke-width:1.0;"/><line style="stroke:#A80036;stroke-width:1.0;" x1="61" x2="418" y1="182.6641" y2="182.6641"/><text fill="#000000" font-family="sans-serif" font-size="13" font-weight="bold" lengthAdjust="spacing" textLength="7" x="68" y="177.8076">3</text><text fill="#000000" font-family="sans-serif" font-size="13" lengthAdjust="spacing" textLength="92" x="79" y="177.8076">Selects the test</text><polygon fill="#A80036" points="72,209.0156,62,213.0156,72,217.0156,68,213.0156" style="stroke:#A80036;stroke-width:1.0;"/><line style="stroke:#A80036;stroke-width:1.0;stroke-dasharray:2.0,2.0;" x1="66" x2="428" y1="213.0156" y2="213.0156"/><text fill="#000000" font-family="sans-serif" font-size="13" font-weight="bold" lengthAdjust="spacing" textLength="7" x="78" y="208.1592">4</text><text fill="#000000" font-family="sans-serif" font-size="13" lengthAdjust="spacing" textLength="161" x="89" y="208.1592">Shows test results available</text><polygon fill="#A80036" points="412,239.3672,422,243.3672,412,247.3672,416,243.3672" style="stroke:#A80036;stroke-width:1.0;"/><line style="stroke:#A80036;stroke-width:1.0;" x1="61" x2="418" y1="243.3672" y2="243.3672"/><text fill="#000000" font-family="sans-serif" font-size="13" font-weight="bold" lengthAdjust="spacing" textLength="7" x="68" y="238.5107">5</text><text fill="#000000" font-family="sans-serif" font-size="13" lengthAdjust="spacing" textLength="97" x="79" y="238.5107">Writes the report</text><polygon fill="#A80036" points="72,269.7188,62,273.7188,72,277.7188,68,273.7188" style="stroke:#A80036;stroke-width:1.0;"/><line style="stroke:#A80036;stroke-width:1.0;stroke-dasharray:2.0,2.0;" x1="66" x2="428" y1="273.7188" y2="273.7188"/><text fill="#000000" font-family="sans-serif" font-size="13" font-weight="bold" lengthAdjust="spacing" textLength="7" x="78" y="268.8623">6</text><text fill="#000000" font-family="sans-serif" font-size="13" lengthAdjust="spacing" textLength="262" x="89" y="268.8623">Validates the report and asks for confirmation</text><polygon fill="#A80036" points="412,300.0703,422,304.0703,412,308.0703,416,304.0703" style="stroke:#A80036;stroke-width:1.0;"/><line style="stroke:#A80036;stroke-width:1.0;" x1="61" x2="418" y1="304.0703" y2="304.0703"/><text fill="#000000" font-family="sans-serif" font-size="13" font-weight="bold" lengthAdjust="spacing" textLength="7" x="68" y="299.2139">7</text><text fill="#000000" font-family="sans-serif" font-size="13" lengthAdjust="spacing" textLength="110" x="79" y="299.2139">Confirms the report</text><polygon fill="#A80036" points="72,330.4219,62,334.4219,72,338.4219,68,334.4219" style="stroke:#A80036;stroke-width:1.0;"/><line style="stroke:#A80036;stroke-width:1.0;stroke-dasharray:2.0,2.0;" x1="66" x2="428" y1="334.4219" y2="334.4219"/><text fill="#000000" font-family="sans-serif" font-size="13" font-weight="bold" lengthAdjust="spacing" textLength="7" x="78" y="329.5654">8</text><text fill="#000000" font-family="sans-serif" font-size="13" lengthAdjust="spacing" textLength="267" x="89" y="329.5654">Informs that the report was saved successfully</text><!--MD5=[1ea3e378c31c9c24e0c24abc1d37fee9]
@startuml
autonumber

actor "Specialist Doctor" as SD

participant ":System" as SYSTEM

SD -> SYSTEM : Write a report for a test
activate SYSTEM
SYSTEM - -> SD : Asks for which existing test he wants to write a report for
deactivate SYSTEM

SD -> SYSTEM : Selects the test
activate SYSTEM
SYSTEM - -> SD : Shows test results available
deactivate SYSTEM

SD -> SYSTEM : Writes the report
activate SYSTEM
SYSTEM - -> SD : Validates the report and asks for confirmation
deactivate SYSTEM

SD -> SYSTEM : Confirms the report
activate SYSTEM
SYSTEM - -> SD : Informs that the report was saved successfully
deactivate SYSTEM
@enduml

PlantUML version 1.2021.5(Sun Apr 25 12:20:28 BST 2021)
(GPL source distribution)
Java Runtime: OpenJDK Runtime Environment
JVM: Dynamic Code Evolution 64-Bit Server VM
Default Encoding: Cp1252
Language: en
Country: US
--></g></svg>