<?xml version="1.0" encoding="UTF-8" standalone="no"?><svg xmlns="http://www.w3.org/2000/svg" xmlns:xlink="http://www.w3.org/1999/xlink" contentScriptType="application/ecmascript" contentStyleType="text/css" height="927.5px" preserveAspectRatio="none" style="width:1440px;height:927px;" version="1.1" viewBox="0 0 1440 927" width="1440px" zoomAndPan="magnify"><defs><filter height="300%" id="f2373jl3gj1fj" width="300%" x="-1" y="-1"><feGaussianBlur result="blurOut" stdDeviation="2.5"/><feColorMatrix in="blurOut" result="blurOut2" type="matrix" values="0 0 0 0 0 0 0 0 0 0 0 0 0 0 0 0 0 0 .4 0"/><feOffset dx="5.0" dy="5.0" in="blurOut2" result="blurOut3"/><feBlend in="SourceGraphic" in2="blurOut3" mode="normal"/></filter></defs><g><!--MD5=[92f70f89e9f3cc4b172fe964212d1829]
class CreateTestUI--><rect codeLine="4" fill="#FEFECE" filter="url(#f2373jl3gj1fj)" height="60" id="CreateTestUI" style="stroke:#A80036;stroke-width:1.875;" width="131.25" x="733.75" y="8.75"/><ellipse cx="752.5" cy="28.75" fill="#ADD1B2" rx="13.75" ry="13.75" style="stroke:#A80036;stroke-width:1.25;"/><path d="M755,24.375 Q755.2539,23.75 755.5469,23.4375 Q755.8398,23.125 756.1719,23.125 Q756.7578,23.125 757.1289,23.4766 Q757.5,23.8281 757.5,24.6484 L757.5,26.6016 Q757.5,27.4219 757.1484,27.7734 Q756.7969,28.125 756.25,28.125 Q755.7617,28.125 755.4492,27.9102 Q755.1367,27.6953 755,27.1289 Q754.9414,26.7383 754.7266,26.5234 Q754.3359,26.1133 753.6328,25.8789 Q752.9297,25.625 752.2266,25.625 Q751.3477,25.625 750.6055,25.9766 Q749.8828,26.3281 749.3164,27.1094 Q748.75,27.8906 748.75,28.9648 L748.75,30.1172 Q748.75,31.4063 749.8047,32.2656 Q750.8594,33.125 752.7344,33.125 Q753.8477,33.125 754.6289,32.8711 Q755.0781,32.7344 755.5859,32.2852 Q755.918,32.0313 756.0938,31.9531 Q756.2695,31.875 756.4844,31.875 Q756.8945,31.875 757.1875,32.207 Q757.5,32.5195 757.5,32.9688 Q757.5,33.3984 757.0703,33.9063 Q756.4453,34.6484 755.4492,35.0586 Q754.1406,35.625 752.5391,35.625 Q750.6641,35.625 749.1602,34.8828 Q747.9492,34.2969 747.0898,33.0273 Q746.25,31.7578 746.25,30.2539 L746.25,28.8867 Q746.25,27.3242 746.9922,25.957 Q747.7539,24.5898 749.0625,23.8672 Q750.3906,23.125 751.875,23.125 Q752.7734,23.125 753.5547,23.4375 Q754.3359,23.75 755,24.375 Z " fill="#000000"/><text fill="#000000" font-family="sans-serif" font-size="15" lengthAdjust="spacing" textLength="91.25" x="770" y="34.8877">CreateTestUI</text><line style="stroke:#A80036;stroke-width:1.875;" x1="735" x2="863.75" y1="48.75" y2="48.75"/><line style="stroke:#A80036;stroke-width:1.875;" x1="735" x2="863.75" y1="58.75" y2="58.75"/><!--MD5=[55cb992be19579b505cea3c5691093cb]
class ClientStore--><rect codeLine="8" fill="#FEFECE" filter="url(#f2373jl3gj1fj)" height="77.2949" id="ClientStore" style="stroke:#A80036;stroke-width:1.875;" width="132.5" x="386.875" y="654.375"/><ellipse cx="412.9375" cy="674.375" fill="#ADD1B2" rx="13.75" ry="13.75" style="stroke:#A80036;stroke-width:1.25;"/><path d="M415.4375,670 Q415.6914,669.375 415.9844,669.0625 Q416.2773,668.75 416.6094,668.75 Q417.1953,668.75 417.5664,669.1016 Q417.9375,669.4531 417.9375,670.2734 L417.9375,672.2266 Q417.9375,673.0469 417.5859,673.3984 Q417.2344,673.75 416.6875,673.75 Q416.1992,673.75 415.8867,673.5352 Q415.5742,673.3203 415.4375,672.7539 Q415.3789,672.3633 415.1641,672.1484 Q414.7734,671.7383 414.0703,671.5039 Q413.3672,671.25 412.6641,671.25 Q411.7852,671.25 411.043,671.6016 Q410.3203,671.9531 409.7539,672.7344 Q409.1875,673.5156 409.1875,674.5898 L409.1875,675.7422 Q409.1875,677.0313 410.2422,677.8906 Q411.2969,678.75 413.1719,678.75 Q414.2852,678.75 415.0664,678.4961 Q415.5156,678.3594 416.0234,677.9102 Q416.3555,677.6563 416.5313,677.5781 Q416.707,677.5 416.9219,677.5 Q417.332,677.5 417.625,677.832 Q417.9375,678.1445 417.9375,678.5938 Q417.9375,679.0234 417.5078,679.5313 Q416.8828,680.2734 415.8867,680.6836 Q414.5781,681.25 412.9766,681.25 Q411.1016,681.25 409.5977,680.5078 Q408.3867,679.9219 407.5273,678.6523 Q406.6875,677.3828 406.6875,675.8789 L406.6875,674.5117 Q406.6875,672.9492 407.4297,671.582 Q408.1914,670.2148 409.5,669.4922 Q410.8281,668.75 412.3125,668.75 Q413.2109,668.75 413.9922,669.0625 Q414.7734,669.375 415.4375,670 Z " fill="#000000"/><text fill="#000000" font-family="sans-serif" font-size="15" lengthAdjust="spacing" textLength="76.25" x="432.0625" y="680.5127">ClientStore</text><line style="stroke:#A80036;stroke-width:1.875;" x1="388.125" x2="518.125" y1="694.375" y2="694.375"/><line style="stroke:#A80036;stroke-width:1.875;" x1="388.125" x2="518.125" y1="704.375" y2="704.375"/><text fill="#000000" font-family="sans-serif" font-size="13.75" lengthAdjust="spacing" textLength="117.5" x="394.375" y="723.6487">+getClientByTIN(tin)</text><!--MD5=[02e4b9b7573f1156f41e60aa5b4e25a4]
class Company--><rect codeLine="13" fill="#FEFECE" filter="url(#f2373jl3gj1fj)" height="129.1797" id="Company" style="stroke:#A80036;stroke-width:1.875;" width="145" x="330.625" y="402.5"/><ellipse cx="366.8125" cy="422.5" fill="#ADD1B2" rx="13.75" ry="13.75" style="stroke:#A80036;stroke-width:1.25;"/><path d="M369.3125,418.125 Q369.5664,417.5 369.8594,417.1875 Q370.1523,416.875 370.4844,416.875 Q371.0703,416.875 371.4414,417.2266 Q371.8125,417.5781 371.8125,418.3984 L371.8125,420.3516 Q371.8125,421.1719 371.4609,421.5234 Q371.1094,421.875 370.5625,421.875 Q370.0742,421.875 369.7617,421.6602 Q369.4492,421.4453 369.3125,420.8789 Q369.2539,420.4883 369.0391,420.2734 Q368.6484,419.8633 367.9453,419.6289 Q367.2422,419.375 366.5391,419.375 Q365.6602,419.375 364.918,419.7266 Q364.1953,420.0781 363.6289,420.8594 Q363.0625,421.6406 363.0625,422.7148 L363.0625,423.8672 Q363.0625,425.1563 364.1172,426.0156 Q365.1719,426.875 367.0469,426.875 Q368.1602,426.875 368.9414,426.6211 Q369.3906,426.4844 369.8984,426.0352 Q370.2305,425.7813 370.4063,425.7031 Q370.582,425.625 370.7969,425.625 Q371.207,425.625 371.5,425.957 Q371.8125,426.2695 371.8125,426.7188 Q371.8125,427.1484 371.3828,427.6563 Q370.7578,428.3984 369.7617,428.8086 Q368.4531,429.375 366.8516,429.375 Q364.9766,429.375 363.4727,428.6328 Q362.2617,428.0469 361.4023,426.7773 Q360.5625,425.5078 360.5625,424.0039 L360.5625,422.6367 Q360.5625,421.0742 361.3047,419.707 Q362.0664,418.3398 363.375,417.6172 Q364.7031,416.875 366.1875,416.875 Q367.0859,416.875 367.8672,417.1875 Q368.6484,417.5 369.3125,418.125 Z " fill="#000000"/><text fill="#000000" font-family="sans-serif" font-size="15" lengthAdjust="spacing" textLength="66.25" x="388.1875" y="428.6377">Company</text><line style="stroke:#A80036;stroke-width:1.875;" x1="331.875" x2="474.375" y1="442.5" y2="442.5"/><text fill="#000000" font-family="sans-serif" font-size="13.75" lengthAdjust="spacing" textLength="73.75" x="338.125" y="461.7737">-designation</text><line style="stroke:#A80036;stroke-width:1.875;" x1="331.875" x2="474.375" y1="469.7949" y2="469.7949"/><text fill="#000000" font-family="sans-serif" font-size="13.75" lengthAdjust="spacing" textLength="101.25" x="338.125" y="489.0686">+getClientStore()</text><text fill="#000000" font-family="sans-serif" font-size="13.75" lengthAdjust="spacing" textLength="130" x="338.125" y="506.3635">+getParameterStore()</text><text fill="#000000" font-family="sans-serif" font-size="13.75" lengthAdjust="spacing" textLength="125" x="338.125" y="523.6584">+getTestTypeStore()</text><!--MD5=[5e1e8a05fc56bf5d2b271193c1a467fb]
class CreateTestController--><rect codeLine="22" fill="#FEFECE" filter="url(#f2373jl3gj1fj)" height="181.0645" id="CreateTestController" style="stroke:#A80036;stroke-width:1.875;" width="305" x="646.875" y="145"/><ellipse cx="722.1875" cy="165" fill="#ADD1B2" rx="13.75" ry="13.75" style="stroke:#A80036;stroke-width:1.25;"/><path d="M724.6875,160.625 Q724.9414,160 725.2344,159.6875 Q725.5273,159.375 725.8594,159.375 Q726.4453,159.375 726.8164,159.7266 Q727.1875,160.0781 727.1875,160.8984 L727.1875,162.8516 Q727.1875,163.6719 726.8359,164.0234 Q726.4844,164.375 725.9375,164.375 Q725.4492,164.375 725.1367,164.1602 Q724.8242,163.9453 724.6875,163.3789 Q724.6289,162.9883 724.4141,162.7734 Q724.0234,162.3633 723.3203,162.1289 Q722.6172,161.875 721.9141,161.875 Q721.0352,161.875 720.293,162.2266 Q719.5703,162.5781 719.0039,163.3594 Q718.4375,164.1406 718.4375,165.2148 L718.4375,166.3672 Q718.4375,167.6563 719.4922,168.5156 Q720.5469,169.375 722.4219,169.375 Q723.5352,169.375 724.3164,169.1211 Q724.7656,168.9844 725.2734,168.5352 Q725.6055,168.2813 725.7813,168.2031 Q725.957,168.125 726.1719,168.125 Q726.582,168.125 726.875,168.457 Q727.1875,168.7695 727.1875,169.2188 Q727.1875,169.6484 726.7578,170.1563 Q726.1328,170.8984 725.1367,171.3086 Q723.8281,171.875 722.2266,171.875 Q720.3516,171.875 718.8477,171.1328 Q717.6367,170.5469 716.7773,169.2773 Q715.9375,168.0078 715.9375,166.5039 L715.9375,165.1367 Q715.9375,163.5742 716.6797,162.207 Q717.4414,160.8398 718.75,160.1172 Q720.0781,159.375 721.5625,159.375 Q722.4609,159.375 723.2422,159.6875 Q724.0234,160 724.6875,160.625 Z " fill="#000000"/><text fill="#000000" font-family="sans-serif" font-size="15" lengthAdjust="spacing" textLength="143.75" x="747.8125" y="171.1377">CreateTestController</text><line style="stroke:#A80036;stroke-width:1.875;" x1="648.125" x2="950.625" y1="185" y2="185"/><line style="stroke:#A80036;stroke-width:1.875;" x1="648.125" x2="950.625" y1="195" y2="195"/><text fill="#000000" font-family="sans-serif" font-size="13.75" lengthAdjust="spacing" textLength="290" x="654.375" y="214.2737">+getClientByTINAndSaveNhsCode(tin, nhsCode)</text><text fill="#000000" font-family="sans-serif" font-size="13.75" lengthAdjust="spacing" textLength="128.75" x="654.375" y="231.5686">+getTypeOfTestList()</text><text fill="#000000" font-family="sans-serif" font-size="13.75" lengthAdjust="spacing" textLength="141.25" x="654.375" y="248.8635">+addTypeOfTest(code)</text><text fill="#000000" font-family="sans-serif" font-size="13.75" lengthAdjust="spacing" textLength="118.75" x="654.375" y="266.1584">+getParameterList()</text><text fill="#000000" font-family="sans-serif" font-size="13.75" lengthAdjust="spacing" textLength="131.25" x="654.375" y="283.4534">+addParameter(code)</text><text fill="#000000" font-family="sans-serif" font-size="13.75" lengthAdjust="spacing" textLength="82.5" x="654.375" y="300.7483">+createTest()</text><text fill="#000000" font-family="sans-serif" font-size="13.75" lengthAdjust="spacing" textLength="73.75" x="654.375" y="318.0432">+saveTest()</text><!--MD5=[0f6f7964b844a64b0496af0dda7914bd]
class TestStore--><rect codeLine="34" fill="#FEFECE" filter="url(#f2373jl3gj1fj)" height="129.1797" id="TestStore" style="stroke:#A80036;stroke-width:1.875;" width="333.75" x="8.75" y="628.75"/><ellipse cx="137.1875" cy="648.75" fill="#ADD1B2" rx="13.75" ry="13.75" style="stroke:#A80036;stroke-width:1.25;"/><path d="M139.6875,644.375 Q139.9414,643.75 140.2344,643.4375 Q140.5273,643.125 140.8594,643.125 Q141.4453,643.125 141.8164,643.4766 Q142.1875,643.8281 142.1875,644.6484 L142.1875,646.6016 Q142.1875,647.4219 141.8359,647.7734 Q141.4844,648.125 140.9375,648.125 Q140.4492,648.125 140.1367,647.9102 Q139.8242,647.6953 139.6875,647.1289 Q139.6289,646.7383 139.4141,646.5234 Q139.0234,646.1133 138.3203,645.8789 Q137.6172,645.625 136.9141,645.625 Q136.0352,645.625 135.293,645.9766 Q134.5703,646.3281 134.0039,647.1094 Q133.4375,647.8906 133.4375,648.9648 L133.4375,650.1172 Q133.4375,651.4063 134.4922,652.2656 Q135.5469,653.125 137.4219,653.125 Q138.5352,653.125 139.3164,652.8711 Q139.7656,652.7344 140.2734,652.2852 Q140.6055,652.0313 140.7813,651.9531 Q140.957,651.875 141.1719,651.875 Q141.582,651.875 141.875,652.207 Q142.1875,652.5195 142.1875,652.9688 Q142.1875,653.3984 141.7578,653.9063 Q141.1328,654.6484 140.1367,655.0586 Q138.8281,655.625 137.2266,655.625 Q135.3516,655.625 133.8477,654.8828 Q132.6367,654.2969 131.7773,653.0273 Q130.9375,651.7578 130.9375,650.2539 L130.9375,648.8867 Q130.9375,647.3242 131.6797,645.957 Q132.4414,644.5898 133.75,643.8672 Q135.0781,643.125 136.5625,643.125 Q137.4609,643.125 138.2422,643.4375 Q139.0234,643.75 139.6875,644.375 Z " fill="#000000"/><text fill="#000000" font-family="sans-serif" font-size="15" lengthAdjust="spacing" textLength="66.25" x="162.8125" y="654.8877">TestStore</text><line style="stroke:#A80036;stroke-width:1.875;" x1="10" x2="341.25" y1="668.75" y2="668.75"/><line style="stroke:#A80036;stroke-width:1.875;" x1="10" x2="341.25" y1="678.75" y2="678.75"/><text fill="#000000" font-family="sans-serif" font-size="13.75" lengthAdjust="spacing" textLength="318.75" x="16.25" y="698.0237">+createTest(client, typeOfTest, parameter, nhsCode)</text><text fill="#000000" font-family="sans-serif" font-size="13.75" lengthAdjust="spacing" textLength="112.5" x="16.25" y="715.3186">+validateTest(test)</text><text fill="#000000" font-family="sans-serif" font-size="13.75" lengthAdjust="spacing" textLength="96.25" x="16.25" y="732.6135">+saveTest(test)</text><text fill="#000000" font-family="sans-serif" font-size="13.75" lengthAdjust="spacing" textLength="88.75" x="16.25" y="749.9084">+addTest(test)</text><!--MD5=[724ead17d3ca940995455a91cefd1e12]
class TestTypeMapper--><rect codeLine="41" fill="#FEFECE" filter="url(#f2373jl3gj1fj)" height="77.2949" id="TestTypeMapper" style="stroke:#A80036;stroke-width:1.875;" width="153.75" x="520" y="428.125"/><ellipse cx="538.75" cy="448.125" fill="#ADD1B2" rx="13.75" ry="13.75" style="stroke:#A80036;stroke-width:1.25;"/><path d="M541.25,443.75 Q541.5039,443.125 541.7969,442.8125 Q542.0898,442.5 542.4219,442.5 Q543.0078,442.5 543.3789,442.8516 Q543.75,443.2031 543.75,444.0234 L543.75,445.9766 Q543.75,446.7969 543.3984,447.1484 Q543.0469,447.5 542.5,447.5 Q542.0117,447.5 541.6992,447.2852 Q541.3867,447.0703 541.25,446.5039 Q541.1914,446.1133 540.9766,445.8984 Q540.5859,445.4883 539.8828,445.2539 Q539.1797,445 538.4766,445 Q537.5977,445 536.8555,445.3516 Q536.1328,445.7031 535.5664,446.4844 Q535,447.2656 535,448.3398 L535,449.4922 Q535,450.7813 536.0547,451.6406 Q537.1094,452.5 538.9844,452.5 Q540.0977,452.5 540.8789,452.2461 Q541.3281,452.1094 541.8359,451.6602 Q542.168,451.4063 542.3438,451.3281 Q542.5195,451.25 542.7344,451.25 Q543.1445,451.25 543.4375,451.582 Q543.75,451.8945 543.75,452.3438 Q543.75,452.7734 543.3203,453.2813 Q542.6953,454.0234 541.6992,454.4336 Q540.3906,455 538.7891,455 Q536.9141,455 535.4102,454.2578 Q534.1992,453.6719 533.3398,452.4023 Q532.5,451.1328 532.5,449.6289 L532.5,448.2617 Q532.5,446.6992 533.2422,445.332 Q534.0039,443.9648 535.3125,443.2422 Q536.6406,442.5 538.125,442.5 Q539.0234,442.5 539.8047,442.8125 Q540.5859,443.125 541.25,443.75 Z " fill="#000000"/><text fill="#000000" font-family="sans-serif" font-size="15" lengthAdjust="spacing" textLength="113.75" x="556.25" y="454.2627">TestTypeMapper</text><line style="stroke:#A80036;stroke-width:1.875;" x1="521.25" x2="672.5" y1="468.125" y2="468.125"/><line style="stroke:#A80036;stroke-width:1.875;" x1="521.25" x2="672.5" y1="478.125" y2="478.125"/><text fill="#000000" font-family="sans-serif" font-size="13.75" lengthAdjust="spacing" textLength="128.75" x="527.5" y="497.3987">+toDTO(testTypeList)</text><!--MD5=[e0569d1bc34b9d21face98cd33d75fba]
class ParameterMapper--><rect codeLine="45" fill="#FEFECE" filter="url(#f2373jl3gj1fj)" height="77.2949" id="ParameterMapper" style="stroke:#A80036;stroke-width:1.875;" width="163.75" x="717.5" y="428.125"/><ellipse cx="736.25" cy="448.125" fill="#ADD1B2" rx="13.75" ry="13.75" style="stroke:#A80036;stroke-width:1.25;"/><path d="M738.75,443.75 Q739.0039,443.125 739.2969,442.8125 Q739.5898,442.5 739.9219,442.5 Q740.5078,442.5 740.8789,442.8516 Q741.25,443.2031 741.25,444.0234 L741.25,445.9766 Q741.25,446.7969 740.8984,447.1484 Q740.5469,447.5 740,447.5 Q739.5117,447.5 739.1992,447.2852 Q738.8867,447.0703 738.75,446.5039 Q738.6914,446.1133 738.4766,445.8984 Q738.0859,445.4883 737.3828,445.2539 Q736.6797,445 735.9766,445 Q735.0977,445 734.3555,445.3516 Q733.6328,445.7031 733.0664,446.4844 Q732.5,447.2656 732.5,448.3398 L732.5,449.4922 Q732.5,450.7813 733.5547,451.6406 Q734.6094,452.5 736.4844,452.5 Q737.5977,452.5 738.3789,452.2461 Q738.8281,452.1094 739.3359,451.6602 Q739.668,451.4063 739.8438,451.3281 Q740.0195,451.25 740.2344,451.25 Q740.6445,451.25 740.9375,451.582 Q741.25,451.8945 741.25,452.3438 Q741.25,452.7734 740.8203,453.2813 Q740.1953,454.0234 739.1992,454.4336 Q737.8906,455 736.2891,455 Q734.4141,455 732.9102,454.2578 Q731.6992,453.6719 730.8398,452.4023 Q730,451.1328 730,449.6289 L730,448.2617 Q730,446.6992 730.7422,445.332 Q731.5039,443.9648 732.8125,443.2422 Q734.1406,442.5 735.625,442.5 Q736.5234,442.5 737.3047,442.8125 Q738.0859,443.125 738.75,443.75 Z " fill="#000000"/><text fill="#000000" font-family="sans-serif" font-size="15" lengthAdjust="spacing" textLength="123.75" x="753.75" y="454.2627">ParameterMapper</text><line style="stroke:#A80036;stroke-width:1.875;" x1="718.75" x2="880" y1="468.125" y2="468.125"/><line style="stroke:#A80036;stroke-width:1.875;" x1="718.75" x2="880" y1="478.125" y2="478.125"/><text fill="#000000" font-family="sans-serif" font-size="13.75" lengthAdjust="spacing" textLength="137.5" x="725" y="497.3987">+toDTO(parameterList)</text><!--MD5=[f69a48f7b38bde3533dca6607cc4e94a]
class TypeOfTest--><rect codeLine="50" fill="#FEFECE" filter="url(#f2373jl3gj1fj)" height="77.2949" id="TypeOfTest" style="stroke:#A80036;stroke-width:1.875;" width="237.5" x="925.625" y="428.125"/><ellipse cx="1000.3125" cy="448.125" fill="#ADD1B2" rx="13.75" ry="13.75" style="stroke:#A80036;stroke-width:1.25;"/><path d="M1002.8125,443.75 Q1003.0664,443.125 1003.3594,442.8125 Q1003.6523,442.5 1003.9844,442.5 Q1004.5703,442.5 1004.9414,442.8516 Q1005.3125,443.2031 1005.3125,444.0234 L1005.3125,445.9766 Q1005.3125,446.7969 1004.9609,447.1484 Q1004.6094,447.5 1004.0625,447.5 Q1003.5742,447.5 1003.2617,447.2852 Q1002.9492,447.0703 1002.8125,446.5039 Q1002.7539,446.1133 1002.5391,445.8984 Q1002.1484,445.4883 1001.4453,445.2539 Q1000.7422,445 1000.0391,445 Q999.1602,445 998.418,445.3516 Q997.6953,445.7031 997.1289,446.4844 Q996.5625,447.2656 996.5625,448.3398 L996.5625,449.4922 Q996.5625,450.7813 997.6172,451.6406 Q998.6719,452.5 1000.5469,452.5 Q1001.6602,452.5 1002.4414,452.2461 Q1002.8906,452.1094 1003.3984,451.6602 Q1003.7305,451.4063 1003.9063,451.3281 Q1004.082,451.25 1004.2969,451.25 Q1004.707,451.25 1005,451.582 Q1005.3125,451.8945 1005.3125,452.3438 Q1005.3125,452.7734 1004.8828,453.2813 Q1004.2578,454.0234 1003.2617,454.4336 Q1001.9531,455 1000.3516,455 Q998.4766,455 996.9727,454.2578 Q995.7617,453.6719 994.9023,452.4023 Q994.0625,451.1328 994.0625,449.6289 L994.0625,448.2617 Q994.0625,446.6992 994.8047,445.332 Q995.5664,443.9648 996.875,443.2422 Q998.2031,442.5 999.6875,442.5 Q1000.5859,442.5 1001.3672,442.8125 Q1002.1484,443.125 1002.8125,443.75 Z " fill="#000000"/><text fill="#000000" font-family="sans-serif" font-size="15" lengthAdjust="spacing" textLength="77.5" x="1025.9375" y="454.2627">TypeOfTest</text><line style="stroke:#A80036;stroke-width:1.875;" x1="926.875" x2="1161.875" y1="468.125" y2="468.125"/><line style="stroke:#A80036;stroke-width:1.875;" x1="926.875" x2="1161.875" y1="478.125" y2="478.125"/><text fill="#000000" font-family="sans-serif" font-size="13.75" lengthAdjust="spacing" textLength="222.5" x="933.125" y="497.3987">+getCategoryListByTheTypeOfTest()</text><!--MD5=[b9cabbedd84757019d72e276cc5bea1e]
class TypeOfTestStore--><rect codeLine="54" fill="#FEFECE" filter="url(#f2373jl3gj1fj)" height="77.2949" id="TypeOfTestStore" style="stroke:#A80036;stroke-width:1.875;" width="200" x="660.625" y="654.375"/><ellipse cx="700.1875" cy="674.375" fill="#ADD1B2" rx="13.75" ry="13.75" style="stroke:#A80036;stroke-width:1.25;"/><path d="M702.6875,670 Q702.9414,669.375 703.2344,669.0625 Q703.5273,668.75 703.8594,668.75 Q704.4453,668.75 704.8164,669.1016 Q705.1875,669.4531 705.1875,670.2734 L705.1875,672.2266 Q705.1875,673.0469 704.8359,673.3984 Q704.4844,673.75 703.9375,673.75 Q703.4492,673.75 703.1367,673.5352 Q702.8242,673.3203 702.6875,672.7539 Q702.6289,672.3633 702.4141,672.1484 Q702.0234,671.7383 701.3203,671.5039 Q700.6172,671.25 699.9141,671.25 Q699.0352,671.25 698.293,671.6016 Q697.5703,671.9531 697.0039,672.7344 Q696.4375,673.5156 696.4375,674.5898 L696.4375,675.7422 Q696.4375,677.0313 697.4922,677.8906 Q698.5469,678.75 700.4219,678.75 Q701.5352,678.75 702.3164,678.4961 Q702.7656,678.3594 703.2734,677.9102 Q703.6055,677.6563 703.7813,677.5781 Q703.957,677.5 704.1719,677.5 Q704.582,677.5 704.875,677.832 Q705.1875,678.1445 705.1875,678.5938 Q705.1875,679.0234 704.7578,679.5313 Q704.1328,680.2734 703.1367,680.6836 Q701.8281,681.25 700.2266,681.25 Q698.3516,681.25 696.8477,680.5078 Q695.6367,679.9219 694.7773,678.6523 Q693.9375,677.3828 693.9375,675.8789 L693.9375,674.5117 Q693.9375,672.9492 694.6797,671.582 Q695.4414,670.2148 696.75,669.4922 Q698.0781,668.75 699.5625,668.75 Q700.4609,668.75 701.2422,669.0625 Q702.0234,669.375 702.6875,670 Z " fill="#000000"/><text fill="#000000" font-family="sans-serif" font-size="15" lengthAdjust="spacing" textLength="113.75" x="722.3125" y="680.5127">TypeOfTestStore</text><line style="stroke:#A80036;stroke-width:1.875;" x1="661.875" x2="859.375" y1="694.375" y2="694.375"/><line style="stroke:#A80036;stroke-width:1.875;" x1="661.875" x2="859.375" y1="704.375" y2="704.375"/><text fill="#000000" font-family="sans-serif" font-size="13.75" lengthAdjust="spacing" textLength="185" x="668.125" y="723.6487">+getTypeOfTestByCode(code)</text><!--MD5=[be7802b157a16874d39c59ca0e2b25be]
class ParameterStore--><rect codeLine="59" fill="#FEFECE" filter="url(#f2373jl3gj1fj)" height="94.5898" id="ParameterStore" style="stroke:#A80036;stroke-width:1.875;" width="281.25" x="1016.25" y="645.625"/><ellipse cx="1097.1875" cy="665.625" fill="#ADD1B2" rx="13.75" ry="13.75" style="stroke:#A80036;stroke-width:1.25;"/><path d="M1099.6875,661.25 Q1099.9414,660.625 1100.2344,660.3125 Q1100.5273,660 1100.8594,660 Q1101.4453,660 1101.8164,660.3516 Q1102.1875,660.7031 1102.1875,661.5234 L1102.1875,663.4766 Q1102.1875,664.2969 1101.8359,664.6484 Q1101.4844,665 1100.9375,665 Q1100.4492,665 1100.1367,664.7852 Q1099.8242,664.5703 1099.6875,664.0039 Q1099.6289,663.6133 1099.4141,663.3984 Q1099.0234,662.9883 1098.3203,662.7539 Q1097.6172,662.5 1096.9141,662.5 Q1096.0352,662.5 1095.293,662.8516 Q1094.5703,663.2031 1094.0039,663.9844 Q1093.4375,664.7656 1093.4375,665.8398 L1093.4375,666.9922 Q1093.4375,668.2813 1094.4922,669.1406 Q1095.5469,670 1097.4219,670 Q1098.5352,670 1099.3164,669.7461 Q1099.7656,669.6094 1100.2734,669.1602 Q1100.6055,668.9063 1100.7813,668.8281 Q1100.957,668.75 1101.1719,668.75 Q1101.582,668.75 1101.875,669.082 Q1102.1875,669.3945 1102.1875,669.8438 Q1102.1875,670.2734 1101.7578,670.7813 Q1101.1328,671.5234 1100.1367,671.9336 Q1098.8281,672.5 1097.2266,672.5 Q1095.3516,672.5 1093.8477,671.7578 Q1092.6367,671.1719 1091.7773,669.9023 Q1090.9375,668.6328 1090.9375,667.1289 L1090.9375,665.7617 Q1090.9375,664.1992 1091.6797,662.832 Q1092.4414,661.4648 1093.75,660.7422 Q1095.0781,660 1096.5625,660 Q1097.4609,660 1098.2422,660.3125 Q1099.0234,660.625 1099.6875,661.25 Z " fill="#000000"/><text fill="#000000" font-family="sans-serif" font-size="15" lengthAdjust="spacing" textLength="108.75" x="1122.8125" y="671.7627">ParameterStore</text><line style="stroke:#A80036;stroke-width:1.875;" x1="1017.5" x2="1296.25" y1="685.625" y2="685.625"/><line style="stroke:#A80036;stroke-width:1.875;" x1="1017.5" x2="1296.25" y1="695.625" y2="695.625"/><text fill="#000000" font-family="sans-serif" font-size="13.75" lengthAdjust="spacing" textLength="175" x="1023.75" y="714.8987">+getParameterByCode(code)</text><text fill="#000000" font-family="sans-serif" font-size="13.75" lengthAdjust="spacing" textLength="266.25" x="1023.75" y="732.1936">+getParameterListByTheCategory(category)</text><!--MD5=[b884fe3280a704cc481343612dc903ea]
class ClinicalAnalysisTest--><rect codeLine="64" fill="#FEFECE" filter="url(#f2373jl3gj1fj)" height="77.2949" id="ClinicalAnalysisTest" style="stroke:#A80036;stroke-width:1.875;" width="437.5" x="571.875" y="833.75"/><ellipse cx="715.9375" cy="853.75" fill="#ADD1B2" rx="13.75" ry="13.75" style="stroke:#A80036;stroke-width:1.25;"/><path d="M718.4375,849.375 Q718.6914,848.75 718.9844,848.4375 Q719.2773,848.125 719.6094,848.125 Q720.1953,848.125 720.5664,848.4766 Q720.9375,848.8281 720.9375,849.6484 L720.9375,851.6016 Q720.9375,852.4219 720.5859,852.7734 Q720.2344,853.125 719.6875,853.125 Q719.1992,853.125 718.8867,852.9102 Q718.5742,852.6953 718.4375,852.1289 Q718.3789,851.7383 718.1641,851.5234 Q717.7734,851.1133 717.0703,850.8789 Q716.3672,850.625 715.6641,850.625 Q714.7852,850.625 714.043,850.9766 Q713.3203,851.3281 712.7539,852.1094 Q712.1875,852.8906 712.1875,853.9648 L712.1875,855.1172 Q712.1875,856.4063 713.2422,857.2656 Q714.2969,858.125 716.1719,858.125 Q717.2852,858.125 718.0664,857.8711 Q718.5156,857.7344 719.0234,857.2852 Q719.3555,857.0313 719.5313,856.9531 Q719.707,856.875 719.9219,856.875 Q720.332,856.875 720.625,857.207 Q720.9375,857.5195 720.9375,857.9688 Q720.9375,858.3984 720.5078,858.9063 Q719.8828,859.6484 718.8867,860.0586 Q717.5781,860.625 715.9766,860.625 Q714.1016,860.625 712.5977,859.8828 Q711.3867,859.2969 710.5273,858.0273 Q709.6875,856.7578 709.6875,855.2539 L709.6875,853.8867 Q709.6875,852.3242 710.4297,850.957 Q711.1914,849.5898 712.5,848.8672 Q713.8281,848.125 715.3125,848.125 Q716.2109,848.125 716.9922,848.4375 Q717.7734,848.75 718.4375,849.375 Z " fill="#000000"/><text fill="#000000" font-family="sans-serif" font-size="15" lengthAdjust="spacing" textLength="138.75" x="741.5625" y="859.8877">ClinicalAnalysisTest</text><line style="stroke:#A80036;stroke-width:1.875;" x1="573.125" x2="1008.125" y1="873.75" y2="873.75"/><line style="stroke:#A80036;stroke-width:1.875;" x1="573.125" x2="1008.125" y1="883.75" y2="883.75"/><text fill="#000000" font-family="sans-serif" font-size="13.75" lengthAdjust="spacing" textLength="422.5" x="579.375" y="903.0237">+create(nhsCode,client, typeOfTest, parameterList, labWhereCreated)</text><!--MD5=[530b2bbbe0543e9500e772e9984c0ae9]
link CreateTestUI to CreateTestController--><path codeLine="70" d="M799.375,69.1 C799.375,87.75 799.375,113.1125 799.375,138.375 " fill="none" id="CreateTestUI-to-CreateTestController" style="stroke:#A80036;stroke-width:1.25;stroke-dasharray:7.0,7.0;"/><polygon fill="#A80036" points="799.375,144.7875,804.4071,133.5518,799.3929,138.5375,794.4072,133.5233,799.375,144.7875" style="stroke:#A80036;stroke-width:1.25;"/><!--MD5=[1e599a7b02367bd15a30ec01145a73b9]
link CreateTestController to Company--><path codeLine="72" d="M646.6375,317.625 C598.625,343.8625 545.725,373.6625 498.125,402.5 C492.6625,405.8125 487.075,409.2875 481.4625,412.8375 " fill="none" id="CreateTestController-to-Company" style="stroke:#A80036;stroke-width:1.25;stroke-dasharray:7.0,7.0;"/><polygon fill="#A80036" points="475.8625,416.4,488.0369,414.5705,481.1332,413.0411,482.6626,406.1374,475.8625,416.4" style="stroke:#A80036;stroke-width:1.25;"/><!--MD5=[7f6cf7f175eae0af66201860de5de971]
link Company to TestStore--><path codeLine="74" d="M338.5375,531.65 C309.2375,560.4625 274.55,594.5875 244.725,623.925 " fill="none" id="Company-to-TestStore" style="stroke:#A80036;stroke-width:1.25;"/><polygon fill="#A80036" points="239.975,628.5875,251.5095,624.2844,244.4388,624.2129,244.5103,617.1422,239.975,628.5875" style="stroke:#A80036;stroke-width:1.25;"/><text fill="#000000" font-family="sans-serif" font-size="16.25" lengthAdjust="spacing" textLength="26.25" x="298.125" y="586.8689">use</text><text fill="#000000" font-family="sans-serif" font-size="16.25" lengthAdjust="spacing" textLength="8.75" x="320.5207" y="558.5674">1</text><text fill="#000000" font-family="sans-serif" font-size="16.25" lengthAdjust="spacing" textLength="8.75" x="239.659" y="614.9752">1</text><!--MD5=[a11230341c8e65219708844feaa40162]
link Company to ClientStore--><path codeLine="75" d="M417.325,531.65 C425.6,568.7125 435.8375,614.5375 443.25,647.675 " fill="none" id="Company-to-ClientStore" style="stroke:#A80036;stroke-width:1.25;"/><polygon fill="#A80036" points="444.6875,654.1375,447.0944,642.064,443.3147,648.0401,437.3386,644.2605,444.6875,654.1375" style="stroke:#A80036;stroke-width:1.25;"/><text fill="#000000" font-family="sans-serif" font-size="16.25" lengthAdjust="spacing" textLength="26.25" x="431.875" y="586.8689">use</text><text fill="#000000" font-family="sans-serif" font-size="16.25" lengthAdjust="spacing" textLength="8.75" x="409.8952" y="558.5674">1</text><text fill="#000000" font-family="sans-serif" font-size="16.25" lengthAdjust="spacing" textLength="8.75" x="433.2949" y="640.9692">1</text><!--MD5=[d7936936df9ef919cf4d565dcbb77636]
link Company to TypeOfTestStore--><path codeLine="76" d="M476.075,517 C483.5,521.85 490.95,526.675 498.125,531.25 C563.45,572.9125 639,618.925 692.225,650.975 " fill="none" id="Company-to-TypeOfTestStore" style="stroke:#A80036;stroke-width:1.25;"/><polygon fill="#A80036" points="697.6375,654.2375,690.5632,644.162,692.2782,651.0219,685.4182,652.7369,697.6375,654.2375" style="stroke:#A80036;stroke-width:1.25;"/><text fill="#000000" font-family="sans-serif" font-size="16.25" lengthAdjust="spacing" textLength="26.25" x="593.125" y="586.8689">use</text><text fill="#000000" font-family="sans-serif" font-size="16.25" lengthAdjust="spacing" textLength="8.75" x="485.499" y="518.7597">1</text><text fill="#000000" font-family="sans-serif" font-size="16.25" lengthAdjust="spacing" textLength="8.75" x="674.994" y="641.0898">1</text><!--MD5=[daf3d7412afa2c7651483be0b6e971d1]
link Company to ParameterStore--><path codeLine="77" d="M475.8625,520.0125 C483.2,524.1625 490.6875,527.9875 498.125,531.25 C521.7875,541.6125 822.75,613.2875 1009.5875,657.325 " fill="none" id="Company-to-ParameterStore" style="stroke:#A80036;stroke-width:1.25;"/><polygon fill="#A80036" points="1016.175,658.875,1006.3644,651.4376,1010.0902,657.4475,1004.0804,661.1733,1016.175,658.875" style="stroke:#A80036;stroke-width:1.25;"/><text fill="#000000" font-family="sans-serif" font-size="16.25" lengthAdjust="spacing" textLength="26.25" x="728.125" y="586.8689">use</text><text fill="#000000" font-family="sans-serif" font-size="16.25" lengthAdjust="spacing" textLength="8.75" x="485.7425" y="544.9715">1</text><text fill="#000000" font-family="sans-serif" font-size="16.25" lengthAdjust="spacing" textLength="8.75" x="997.6778" y="652.7994">1</text><!--MD5=[f72f3832f118978b0f53b6803f81875b]
link CreateTestController to ClinicalAnalysisTest--><path codeLine="79" d="M952.1625,256.825 C1041.475,274.1375 1153.025,305.9375 1238.125,363.75 C1385.925,464.1625 1431.65,618.5 1319.375,757.5 C1280.5,805.625 1141.55,834.35 1015.85,850.8875 " fill="none" id="CreateTestController-to-ClinicalAnalysisTest" style="stroke:#A80036;stroke-width:1.25;stroke-dasharray:7.0,7.0;"/><polygon fill="#A80036" points="1009.4875,851.7125,1021.297,855.1907,1015.6833,850.8912,1019.9829,845.2774,1009.4875,851.7125" style="stroke:#A80036;stroke-width:1.25;"/><!--MD5=[bb834861019513a5c3c3d91dd7fce220]
link CreateTestController to TestStore--><path codeLine="80" d="M646.65,264 C503.7375,292.65 304.8875,342.0125 254.375,402.5 C202.425,464.7125 184.5375,558.25 178.5,622.025 " fill="none" id="CreateTestController-to-TestStore" style="stroke:#A80036;stroke-width:1.25;stroke-dasharray:7.0,7.0;"/><polygon fill="#A80036" points="177.9125,628.4875,183.891,617.7255,178.4671,622.2622,173.9304,616.8382,177.9125,628.4875" style="stroke:#A80036;stroke-width:1.25;"/><!--MD5=[a7e83f8ce8a89b7604467eac403f328b]
link CreateTestController to TypeOfTestStore--><path codeLine="81" d="M951.9875,260.7 C1036.15,282.475 1133.825,323.9125 1185.625,402.5 C1217.125,450.275 1218.1625,484.175 1185.625,531.25 C1166.6375,558.725 986.7,620.175 867.125,658.6 " fill="none" id="CreateTestController-to-TypeOfTestStore" style="stroke:#A80036;stroke-width:1.25;stroke-dasharray:7.0,7.0;"/><polygon fill="#A80036" points="861.125,660.525,873.3641,661.8544,867.077,658.6182,870.3132,652.3312,861.125,660.525" style="stroke:#A80036;stroke-width:1.25;"/><!--MD5=[816033eb33a7980b6e219a70260e6348]
link CreateTestController to ClientStore--><path codeLine="82" d="M646.45,245.9 C534.625,261.175 388.9,300.8625 308.125,402.5 C255.7375,468.4125 248.1,519.325 291.875,591.25 C310.7375,622.2375 333.4,609.8625 364.375,628.75 C375.3375,635.4375 386.725,643.0125 397.5375,650.5375 " fill="none" id="CreateTestController-to-ClientStore" style="stroke:#A80036;stroke-width:1.25;stroke-dasharray:7.0,7.0;"/><polygon fill="#A80036" points="402.8,654.225,396.4534,643.6759,397.6806,650.6397,390.7169,651.8669,402.8,654.225" style="stroke:#A80036;stroke-width:1.25;"/><!--MD5=[7f71e9253d7fc92f5f32c8b21cbc461c]
link CreateTestController to ParameterStore--><path codeLine="83" d="M952.05,244.6125 C1055.9875,259.425 1182.825,299.1 1229.375,402.5 C1264.9,481.425 1223.15,580.6125 1189.875,639.9875 " fill="none" id="CreateTestController-to-ParameterStore" style="stroke:#A80036;stroke-width:1.25;stroke-dasharray:7.0,7.0;"/><polygon fill="#A80036" points="1186.6875,645.6,1196.5973,638.2954,1189.7787,640.168,1187.9061,633.3494,1186.6875,645.6" style="stroke:#A80036;stroke-width:1.25;"/><!--MD5=[36b6a665c17e13d43600f7dd234dc26e]
link CreateTestController to ParameterMapper--><path codeLine="84" d="M799.375,326.3 C799.375,359.0125 799.375,394.5875 799.375,421.6 " fill="none" id="CreateTestController-to-ParameterMapper" style="stroke:#A80036;stroke-width:1.25;stroke-dasharray:7.0,7.0;"/><polygon fill="#A80036" points="799.375,427.925,804.375,416.675,799.375,421.675,794.375,416.675,799.375,427.925" style="stroke:#A80036;stroke-width:1.25;"/><!--MD5=[1852e085d05103c88dd4c70d5f11b88c]
link CreateTestController to TypeOfTest--><path codeLine="85" d="M895.15,326.3 C931.075,359.8375 970.225,396.3875 999.4125,423.6375 " fill="none" id="CreateTestController-to-TypeOfTest" style="stroke:#A80036;stroke-width:1.25;stroke-dasharray:7.0,7.0;"/><polygon fill="#A80036" points="1004,427.925,999.1888,416.593,999.4315,423.6599,992.3646,423.9026,1004,427.925" style="stroke:#A80036;stroke-width:1.25;"/><!--MD5=[e0b8a41bfc3d5c8029c654e548a9b285]
link CreateTestController to TestTypeMapper--><path codeLine="86" d="M720.2125,326.3 C690.7625,359.5625 658.7,395.7875 634.6375,422.9625 " fill="none" id="CreateTestController-to-TestTypeMapper" style="stroke:#A80036;stroke-width:1.25;stroke-dasharray:7.0,7.0;"/><polygon fill="#A80036" points="630.2375,427.925,641.439,422.8172,634.3809,423.2458,633.9523,416.1878,630.2375,427.925" style="stroke:#A80036;stroke-width:1.25;"/><!--MD5=[be9febf791a22ad600abdac99a61bf23]
link TestStore to ClinicalAnalysisTest--><path codeLine="88" d="M342.7,750.8625 C350.0125,753.1375 357.2625,755.3625 364.375,757.5 C453.2,784.175 553.375,811.075 634.275,832 " fill="none" id="TestStore-to-ClinicalAnalysisTest" style="stroke:#A80036;stroke-width:1.25;"/><polygon fill="#A80036" points="640.5625,833.625,630.914,825.9785,634.5098,832.0671,628.4213,835.6629,640.5625,833.625" style="stroke:#A80036;stroke-width:1.25;"/><!--MD5=[2c616ec412f4f2f19b2783cdac9cd6d3]
@startuml
skinparam classAttributeIconSize 0


class CreateTestUI {
}


class ClientStore {
+ getClientByTIN(tin)
}


class Company {
- designation
+ getClientStore()
+ getParameterStore()
+ getTestTypeStore()
}



class CreateTestController {
  + getClientByTINAndSaveNhsCode(tin, nhsCode)
  + getTypeOfTestList()
  + addTypeOfTest(code)
  + getParameterList()
  + addParameter(code)
  + createTest()
  + saveTest()

}


class TestStore {
    + createTest(client, typeOfTest, parameter, nhsCode)
    + validateTest(test)
    + saveTest(test)
    + addTest(test)
}

class TestTypeMapper {
    +toDTO(testTypeList)
}

class ParameterMapper {
  +toDTO(parameterList)
}


class TypeOfTest {
  + getCategoryListByTheTypeOfTest()
}

class TypeOfTestStore {
  + getTypeOfTestByCode(code)
}


class ParameterStore {
  + getParameterByCode(code)
  + getParameterListByTheCategory(category)
}

class ClinicalAnalysisTest {
  + create(nhsCode,client, typeOfTest, parameterList, labWhereCreated)
}



CreateTestUI ..> CreateTestController

CreateTestController ..> Company

Company "1" - -> "1" TestStore : use
Company "1" - -> "1" ClientStore : use
Company "1" - -> "1" TypeOfTestStore : use
Company "1" - -> "1" ParameterStore : use

CreateTestController ..> ClinicalAnalysisTest
CreateTestController ..> TestStore
CreateTestController ..> TypeOfTestStore
CreateTestController ..> ClientStore
CreateTestController ..> ParameterStore
CreateTestController ..> ParameterMapper
CreateTestController ..> TypeOfTest
CreateTestController ..> TestTypeMapper

TestStore - -> ClinicalAnalysisTest



@enduml

PlantUML version 1.2021.4(Sun Apr 04 09:49:39 BST 2021)
(GPL source distribution)
Java Runtime: OpenJDK Runtime Environment
JVM: OpenJDK 64-Bit Server VM
Default Encoding: Cp1252
Language: pt
Country: PT
--></g></svg>