<?xml version="1.0" encoding="UTF-8" standalone="no"?><svg xmlns="http://www.w3.org/2000/svg" xmlns:xlink="http://www.w3.org/1999/xlink" contentScriptType="application/ecmascript" contentStyleType="text/css" height="433.75px" preserveAspectRatio="none" style="width:1095px;height:433px;" version="1.1" viewBox="0 0 1095 433" width="1095px" zoomAndPan="magnify"><defs><filter height="300%" id="f1xhicm3zzhbap" width="300%" x="-1" y="-1"><feGaussianBlur result="blurOut" stdDeviation="2.5"/><feColorMatrix in="blurOut" result="blurOut2" type="matrix" values="0 0 0 0 0 0 0 0 0 0 0 0 0 0 0 0 0 0 .4 0"/><feOffset dx="5.0" dy="5.0" in="blurOut2" result="blurOut3"/><feBlend in="SourceGraphic" in2="blurOut3" mode="normal"/></filter></defs><g><!--MD5=[02e4b9b7573f1156f41e60aa5b4e25a4]
class Company--><rect codeLine="5" fill="#FEFECE" filter="url(#f1xhicm3zzhbap)" height="67.2949" id="Company" style="stroke:#A80036;stroke-width:1.875;" width="106.25" x="11.875" y="150.625"/><ellipse cx="30.625" cy="170.625" fill="#ADD1B2" rx="13.75" ry="13.75" style="stroke:#A80036;stroke-width:1.25;"/><path d="M33.125,166.25 Q33.3789,165.625 33.6719,165.3125 Q33.9648,165 34.2969,165 Q34.8828,165 35.2539,165.3516 Q35.625,165.7031 35.625,166.5234 L35.625,168.4766 Q35.625,169.2969 35.2734,169.6484 Q34.9219,170 34.375,170 Q33.8867,170 33.5742,169.7852 Q33.2617,169.5703 33.125,169.0039 Q33.0664,168.6133 32.8516,168.3984 Q32.4609,167.9883 31.7578,167.7539 Q31.0547,167.5 30.3516,167.5 Q29.4727,167.5 28.7305,167.8516 Q28.0078,168.2031 27.4414,168.9844 Q26.875,169.7656 26.875,170.8398 L26.875,171.9922 Q26.875,173.2813 27.9297,174.1406 Q28.9844,175 30.8594,175 Q31.9727,175 32.7539,174.7461 Q33.2031,174.6094 33.7109,174.1602 Q34.043,173.9063 34.2188,173.8281 Q34.3945,173.75 34.6094,173.75 Q35.0195,173.75 35.3125,174.082 Q35.625,174.3945 35.625,174.8438 Q35.625,175.2734 35.1953,175.7813 Q34.5703,176.5234 33.5742,176.9336 Q32.2656,177.5 30.6641,177.5 Q28.7891,177.5 27.2852,176.7578 Q26.0742,176.1719 25.2148,174.9023 Q24.375,173.6328 24.375,172.1289 L24.375,170.7617 Q24.375,169.1992 25.1172,167.832 Q25.8789,166.4648 27.1875,165.7422 Q28.5156,165 30,165 Q30.8984,165 31.6797,165.3125 Q32.4609,165.625 33.125,166.25 Z " fill="#000000"/><text fill="#000000" font-family="sans-serif" font-size="15" lengthAdjust="spacing" textLength="66.25" x="48.125" y="176.7627">Company</text><line style="stroke:#A80036;stroke-width:1.875;" x1="13.125" x2="116.875" y1="190.625" y2="190.625"/><text fill="#000000" font-family="sans-serif" font-size="13.75" lengthAdjust="spacing" textLength="73.75" x="19.375" y="209.8987">-designation</text><!--MD5=[b884fe3280a704cc481343612dc903ea]
class ClinicalAnalysisTest--><rect codeLine="9" fill="#FEFECE" filter="url(#f1xhicm3zzhbap)" height="136.4746" id="ClinicalAnalysisTest" style="stroke:#A80036;stroke-width:1.875;" width="178.75" x="277.5" y="202.5"/><ellipse cx="296.25" cy="222.5" fill="#ADD1B2" rx="13.75" ry="13.75" style="stroke:#A80036;stroke-width:1.25;"/><path d="M298.75,218.125 Q299.0039,217.5 299.2969,217.1875 Q299.5898,216.875 299.9219,216.875 Q300.5078,216.875 300.8789,217.2266 Q301.25,217.5781 301.25,218.3984 L301.25,220.3516 Q301.25,221.1719 300.8984,221.5234 Q300.5469,221.875 300,221.875 Q299.5117,221.875 299.1992,221.6602 Q298.8867,221.4453 298.75,220.8789 Q298.6914,220.4883 298.4766,220.2734 Q298.0859,219.8633 297.3828,219.6289 Q296.6797,219.375 295.9766,219.375 Q295.0977,219.375 294.3555,219.7266 Q293.6328,220.0781 293.0664,220.8594 Q292.5,221.6406 292.5,222.7148 L292.5,223.8672 Q292.5,225.1563 293.5547,226.0156 Q294.6094,226.875 296.4844,226.875 Q297.5977,226.875 298.3789,226.6211 Q298.8281,226.4844 299.3359,226.0352 Q299.668,225.7813 299.8438,225.7031 Q300.0195,225.625 300.2344,225.625 Q300.6445,225.625 300.9375,225.957 Q301.25,226.2695 301.25,226.7188 Q301.25,227.1484 300.8203,227.6563 Q300.1953,228.3984 299.1992,228.8086 Q297.8906,229.375 296.2891,229.375 Q294.4141,229.375 292.9102,228.6328 Q291.6992,228.0469 290.8398,226.7773 Q290,225.5078 290,224.0039 L290,222.6367 Q290,221.0742 290.7422,219.707 Q291.5039,218.3398 292.8125,217.6172 Q294.1406,216.875 295.625,216.875 Q296.5234,216.875 297.3047,217.1875 Q298.0859,217.5 298.75,218.125 Z " fill="#000000"/><text fill="#000000" font-family="sans-serif" font-size="15" lengthAdjust="spacing" textLength="138.75" x="313.75" y="228.6377">ClinicalAnalysisTest</text><line style="stroke:#A80036;stroke-width:1.875;" x1="278.75" x2="455" y1="242.5" y2="242.5"/><text fill="#000000" font-family="sans-serif" font-size="13.75" lengthAdjust="spacing" textLength="58.75" x="285" y="261.7737">-nhsCode</text><text fill="#000000" font-family="sans-serif" font-size="13.75" lengthAdjust="spacing" textLength="36.25" x="285" y="279.0686">-client</text><text fill="#000000" font-family="sans-serif" font-size="13.75" lengthAdjust="spacing" textLength="72.5" x="285" y="296.3635">-typeOfTest</text><text fill="#000000" font-family="sans-serif" font-size="13.75" lengthAdjust="spacing" textLength="87.5" x="285" y="313.6584">-parameterList</text><text fill="#000000" font-family="sans-serif" font-size="13.75" lengthAdjust="spacing" textLength="110" x="285" y="330.9534">-labWhereCreated</text><!--MD5=[f69a48f7b38bde3533dca6607cc4e94a]
class TypeOfTest--><rect codeLine="17" fill="#FEFECE" filter="url(#f1xhicm3zzhbap)" height="101.8848" id="TypeOfTest" style="stroke:#A80036;stroke-width:1.875;" width="120" x="673.125" y="241.875"/><ellipse cx="693" cy="261.875" fill="#ADD1B2" rx="13.75" ry="13.75" style="stroke:#A80036;stroke-width:1.25;"/><path d="M695.5,257.5 Q695.7539,256.875 696.0469,256.5625 Q696.3398,256.25 696.6719,256.25 Q697.2578,256.25 697.6289,256.6016 Q698,256.9531 698,257.7734 L698,259.7266 Q698,260.5469 697.6484,260.8984 Q697.2969,261.25 696.75,261.25 Q696.2617,261.25 695.9492,261.0352 Q695.6367,260.8203 695.5,260.2539 Q695.4414,259.8633 695.2266,259.6484 Q694.8359,259.2383 694.1328,259.0039 Q693.4297,258.75 692.7266,258.75 Q691.8477,258.75 691.1055,259.1016 Q690.3828,259.4531 689.8164,260.2344 Q689.25,261.0156 689.25,262.0898 L689.25,263.2422 Q689.25,264.5313 690.3047,265.3906 Q691.3594,266.25 693.2344,266.25 Q694.3477,266.25 695.1289,265.9961 Q695.5781,265.8594 696.0859,265.4102 Q696.418,265.1563 696.5938,265.0781 Q696.7695,265 696.9844,265 Q697.3945,265 697.6875,265.332 Q698,265.6445 698,266.0938 Q698,266.5234 697.5703,267.0313 Q696.9453,267.7734 695.9492,268.1836 Q694.6406,268.75 693.0391,268.75 Q691.1641,268.75 689.6602,268.0078 Q688.4492,267.4219 687.5898,266.1523 Q686.75,264.8828 686.75,263.3789 L686.75,262.0117 Q686.75,260.4492 687.4922,259.082 Q688.2539,257.7148 689.5625,256.9922 Q690.8906,256.25 692.375,256.25 Q693.2734,256.25 694.0547,256.5625 Q694.8359,256.875 695.5,257.5 Z " fill="#000000"/><text fill="#000000" font-family="sans-serif" font-size="15" lengthAdjust="spacing" textLength="77.5" x="710.75" y="268.0127">TypeOfTest</text><line style="stroke:#A80036;stroke-width:1.875;" x1="674.375" x2="791.875" y1="281.875" y2="281.875"/><text fill="#000000" font-family="sans-serif" font-size="13.75" lengthAdjust="spacing" textLength="35" x="680.625" y="301.1487">-code</text><text fill="#000000" font-family="sans-serif" font-size="13.75" lengthAdjust="spacing" textLength="71.25" x="680.625" y="318.4436">-description</text><text fill="#000000" font-family="sans-serif" font-size="13.75" lengthAdjust="spacing" textLength="105" x="680.625" y="335.7385">-collectingMethod</text><!--MD5=[ed6624c6556d5e7b1bd23032162d20b7]
class Client--><rect codeLine="25" fill="#FEFECE" filter="url(#f1xhicm3zzhbap)" height="188.3594" id="Client" style="stroke:#A80036;stroke-width:1.875;" width="133.75" x="666.25" y="8.75"/><ellipse cx="709.1875" cy="28.75" fill="#ADD1B2" rx="13.75" ry="13.75" style="stroke:#A80036;stroke-width:1.25;"/><path d="M711.6875,24.375 Q711.9414,23.75 712.2344,23.4375 Q712.5273,23.125 712.8594,23.125 Q713.4453,23.125 713.8164,23.4766 Q714.1875,23.8281 714.1875,24.6484 L714.1875,26.6016 Q714.1875,27.4219 713.8359,27.7734 Q713.4844,28.125 712.9375,28.125 Q712.4492,28.125 712.1367,27.9102 Q711.8242,27.6953 711.6875,27.1289 Q711.6289,26.7383 711.4141,26.5234 Q711.0234,26.1133 710.3203,25.8789 Q709.6172,25.625 708.9141,25.625 Q708.0352,25.625 707.293,25.9766 Q706.5703,26.3281 706.0039,27.1094 Q705.4375,27.8906 705.4375,28.9648 L705.4375,30.1172 Q705.4375,31.4063 706.4922,32.2656 Q707.5469,33.125 709.4219,33.125 Q710.5352,33.125 711.3164,32.8711 Q711.7656,32.7344 712.2734,32.2852 Q712.6055,32.0313 712.7813,31.9531 Q712.957,31.875 713.1719,31.875 Q713.582,31.875 713.875,32.207 Q714.1875,32.5195 714.1875,32.9688 Q714.1875,33.3984 713.7578,33.9063 Q713.1328,34.6484 712.1367,35.0586 Q710.8281,35.625 709.2266,35.625 Q707.3516,35.625 705.8477,34.8828 Q704.6367,34.2969 703.7773,33.0273 Q702.9375,31.7578 702.9375,30.2539 L702.9375,28.8867 Q702.9375,27.3242 703.6797,25.957 Q704.4414,24.5898 705.75,23.8672 Q707.0781,23.125 708.5625,23.125 Q709.4609,23.125 710.2422,23.4375 Q711.0234,23.75 711.6875,24.375 Z " fill="#000000"/><text fill="#000000" font-family="sans-serif" font-size="15" lengthAdjust="spacing" textLength="40" x="732.0625" y="34.8877">Client</text><line style="stroke:#A80036;stroke-width:1.875;" x1="667.5" x2="798.75" y1="48.75" y2="48.75"/><text fill="#000000" font-family="sans-serif" font-size="13.75" lengthAdjust="spacing" textLength="37.5" x="673.75" y="68.0237">-name</text><text fill="#000000" font-family="sans-serif" font-size="13.75" lengthAdjust="spacing" textLength="118.75" x="673.75" y="85.3186">-citizenCardNumber</text><text fill="#000000" font-family="sans-serif" font-size="13.75" lengthAdjust="spacing" textLength="73.75" x="673.75" y="102.6135">-nhsNumber</text><text fill="#000000" font-family="sans-serif" font-size="13.75" lengthAdjust="spacing" textLength="58.75" x="673.75" y="119.9084">-birthDate</text><text fill="#000000" font-family="sans-serif" font-size="13.75" lengthAdjust="spacing" textLength="27.5" x="673.75" y="137.2034">-sex</text><text fill="#000000" font-family="sans-serif" font-size="13.75" lengthAdjust="spacing" textLength="18.75" x="673.75" y="154.4983">-tin</text><text fill="#000000" font-family="sans-serif" font-size="13.75" lengthAdjust="spacing" textLength="88.75" x="673.75" y="171.7932">-phoneNumber</text><text fill="#000000" font-family="sans-serif" font-size="13.75" lengthAdjust="spacing" textLength="35" x="673.75" y="189.0881">-email</text><!--MD5=[1f6362a5c8f21d8d6a0fce68f3a92a4e]
class Parameter--><rect codeLine="36" fill="#FEFECE" filter="url(#f1xhicm3zzhbap)" height="101.8848" id="Parameter" style="stroke:#A80036;stroke-width:1.875;" width="112.5" x="8.75" y="269.375"/><ellipse cx="27.5" cy="289.375" fill="#ADD1B2" rx="13.75" ry="13.75" style="stroke:#A80036;stroke-width:1.25;"/><path d="M30,285 Q30.2539,284.375 30.5469,284.0625 Q30.8398,283.75 31.1719,283.75 Q31.7578,283.75 32.1289,284.1016 Q32.5,284.4531 32.5,285.2734 L32.5,287.2266 Q32.5,288.0469 32.1484,288.3984 Q31.7969,288.75 31.25,288.75 Q30.7617,288.75 30.4492,288.5352 Q30.1367,288.3203 30,287.7539 Q29.9414,287.3633 29.7266,287.1484 Q29.3359,286.7383 28.6328,286.5039 Q27.9297,286.25 27.2266,286.25 Q26.3477,286.25 25.6055,286.6016 Q24.8828,286.9531 24.3164,287.7344 Q23.75,288.5156 23.75,289.5898 L23.75,290.7422 Q23.75,292.0313 24.8047,292.8906 Q25.8594,293.75 27.7344,293.75 Q28.8477,293.75 29.6289,293.4961 Q30.0781,293.3594 30.5859,292.9102 Q30.918,292.6563 31.0938,292.5781 Q31.2695,292.5 31.4844,292.5 Q31.8945,292.5 32.1875,292.832 Q32.5,293.1445 32.5,293.5938 Q32.5,294.0234 32.0703,294.5313 Q31.4453,295.2734 30.4492,295.6836 Q29.1406,296.25 27.5391,296.25 Q25.6641,296.25 24.1602,295.5078 Q22.9492,294.9219 22.0898,293.6523 Q21.25,292.3828 21.25,290.8789 L21.25,289.5117 Q21.25,287.9492 21.9922,286.582 Q22.7539,285.2148 24.0625,284.4922 Q25.3906,283.75 26.875,283.75 Q27.7734,283.75 28.5547,284.0625 Q29.3359,284.375 30,285 Z " fill="#000000"/><text fill="#000000" font-family="sans-serif" font-size="15" lengthAdjust="spacing" textLength="72.5" x="45" y="295.5127">Parameter</text><line style="stroke:#A80036;stroke-width:1.875;" x1="10" x2="120" y1="309.375" y2="309.375"/><text fill="#000000" font-family="sans-serif" font-size="13.75" lengthAdjust="spacing" textLength="37.5" x="16.25" y="328.6487">-name</text><text fill="#000000" font-family="sans-serif" font-size="13.75" lengthAdjust="spacing" textLength="35" x="16.25" y="345.9436">-code</text><text fill="#000000" font-family="sans-serif" font-size="13.75" lengthAdjust="spacing" textLength="71.25" x="16.25" y="363.2385">-description</text><!--MD5=[36afb6bbd95a8ac778c4537c55a683d5]
class ParameterCategory--><rect codeLine="42" fill="#FEFECE" filter="url(#f1xhicm3zzhbap)" height="84.5898" id="ParameterCategory" style="stroke:#A80036;stroke-width:1.875;" width="173.75" x="903.75" y="331.875"/><ellipse cx="922.5" cy="351.875" fill="#ADD1B2" rx="13.75" ry="13.75" style="stroke:#A80036;stroke-width:1.25;"/><path d="M925,347.5 Q925.2539,346.875 925.5469,346.5625 Q925.8398,346.25 926.1719,346.25 Q926.7578,346.25 927.1289,346.6016 Q927.5,346.9531 927.5,347.7734 L927.5,349.7266 Q927.5,350.5469 927.1484,350.8984 Q926.7969,351.25 926.25,351.25 Q925.7617,351.25 925.4492,351.0352 Q925.1367,350.8203 925,350.2539 Q924.9414,349.8633 924.7266,349.6484 Q924.3359,349.2383 923.6328,349.0039 Q922.9297,348.75 922.2266,348.75 Q921.3477,348.75 920.6055,349.1016 Q919.8828,349.4531 919.3164,350.2344 Q918.75,351.0156 918.75,352.0898 L918.75,353.2422 Q918.75,354.5313 919.8047,355.3906 Q920.8594,356.25 922.7344,356.25 Q923.8477,356.25 924.6289,355.9961 Q925.0781,355.8594 925.5859,355.4102 Q925.918,355.1563 926.0938,355.0781 Q926.2695,355 926.4844,355 Q926.8945,355 927.1875,355.332 Q927.5,355.6445 927.5,356.0938 Q927.5,356.5234 927.0703,357.0313 Q926.4453,357.7734 925.4492,358.1836 Q924.1406,358.75 922.5391,358.75 Q920.6641,358.75 919.1602,358.0078 Q917.9492,357.4219 917.0898,356.1523 Q916.25,354.8828 916.25,353.3789 L916.25,352.0117 Q916.25,350.4492 916.9922,349.082 Q917.7539,347.7148 919.0625,346.9922 Q920.3906,346.25 921.875,346.25 Q922.7734,346.25 923.5547,346.5625 Q924.3359,346.875 925,347.5 Z " fill="#000000"/><text fill="#000000" font-family="sans-serif" font-size="15" lengthAdjust="spacing" textLength="133.75" x="940" y="358.0127">ParameterCategory</text><line style="stroke:#A80036;stroke-width:1.875;" x1="905" x2="1076.25" y1="371.875" y2="371.875"/><text fill="#000000" font-family="sans-serif" font-size="13.75" lengthAdjust="spacing" textLength="35" x="911.25" y="391.1487">-code</text><text fill="#000000" font-family="sans-serif" font-size="13.75" lengthAdjust="spacing" textLength="37.5" x="911.25" y="408.4436">-name</text><!--MD5=[763a80d6c063e6a8da74972bdf1c4b19]
link Company to ClinicalAnalysisTest--><path codeLine="48" d="M118.4,199.4 C162.125,212 225.5125,230.2625 277.1625,245.1375 " fill="none" id="Company-ClinicalAnalysisTest" style="stroke:#A80036;stroke-width:1.25;"/><polygon fill="#000000" points="171.0057,202.5749,161.1582,195.9149,159.1243,202.9751,171.0057,202.5749" style="stroke:#000000;stroke-width:1.25;"/><text fill="#000000" font-family="sans-serif" font-size="16.25" lengthAdjust="spacing" textLength="62.5" x="176.25" y="207.4939">performs</text><text fill="#000000" font-family="sans-serif" font-size="16.25" lengthAdjust="spacing" textLength="8.75" x="127.969" y="220.467">1</text><text fill="#000000" font-family="sans-serif" font-size="16.25" lengthAdjust="spacing" textLength="6.25" x="261.3386" y="260.4203">*</text><!--MD5=[df3898d1a7736d5193bafb29e4a91bfd]
link ClinicalAnalysisTest to TypeOfTest--><path codeLine="49" d="M456.6375,276.1 C523.725,280.25 614.0625,285.8375 672.625,289.4625 " fill="none" id="ClinicalAnalysisTest-TypeOfTest" style="stroke:#A80036;stroke-width:1.25;"/><polygon fill="#000000" points="549.3631,267.4807,538.3051,263.1159,537.8514,270.4491,549.3631,267.4807" style="stroke:#000000;stroke-width:1.25;"/><text fill="#000000" font-family="sans-serif" font-size="16.25" lengthAdjust="spacing" textLength="30" x="554.375" y="273.7439">is of</text><text fill="#000000" font-family="sans-serif" font-size="16.25" lengthAdjust="spacing" textLength="6.25" x="466.2165" y="294.5758">*</text><text fill="#000000" font-family="sans-serif" font-size="16.25" lengthAdjust="spacing" textLength="8.75" x="654.3465" y="307.3397">1</text><!--MD5=[4c6790421f7517dfad74e42a5200841c]
link ClinicalAnalysisTest to Client--><path codeLine="50" d="M456.4375,238.3875 C507.5875,218.7875 572.75,192.225 628.75,164.375 C641.05,158.25 653.875,151.225 666.1125,144.15 " fill="none" id="ClinicalAnalysisTest-Client" style="stroke:#A80036;stroke-width:1.25;"/><polygon fill="#000000" points="516.9507,150.7826,505.132,152.0668,508.144,158.7683,516.9507,150.7826" style="stroke:#000000;stroke-width:1.25;"/><text fill="#000000" font-family="sans-serif" font-size="16.25" lengthAdjust="spacing" textLength="93.75" x="522.5" y="159.9939">requested by</text><text fill="#000000" font-family="sans-serif" font-size="16.25" lengthAdjust="spacing" textLength="25" x="466.1653" y="253.1471">1..*</text><text fill="#000000" font-family="sans-serif" font-size="16.25" lengthAdjust="spacing" textLength="8.75" x="647.3236" y="168.2527">1</text><!--MD5=[6df8849671cb880f6936e94aa30db6f9]
link Parameter to ParameterCategory--><path codeLine="51" d="M121.475,333.7125 C163.875,343.125 224.0375,355.0875 277.5,360.625 C502.5125,383.9375 769.5875,380.95 903.625,377.35 " fill="none" id="Parameter-ParameterCategory" style="stroke:#A80036;stroke-width:1.25;"/><polygon fill="#000000" points="506.2403,363.6929,495.1561,359.3951,494.7469,366.731,506.2403,363.6929" style="stroke:#000000;stroke-width:1.25;"/><text fill="#000000" font-family="sans-serif" font-size="16.25" lengthAdjust="spacing" textLength="116.25" x="511.25" y="369.9939">presented under</text><text fill="#000000" font-family="sans-serif" font-size="16.25" lengthAdjust="spacing" textLength="25" x="131.1746" y="353.9022">1..*</text><text fill="#000000" font-family="sans-serif" font-size="16.25" lengthAdjust="spacing" textLength="8.75" x="884.8809" y="395.6845">1</text><!--MD5=[55b6ecdeb653829b02d523e1c05a2d49]
link Parameter to ClinicalAnalysisTest--><path codeLine="52" d="M121.5125,311.4 C163.225,304.425 221.475,294.7 270.625,286.4875 " fill="none" id="Parameter-to-ClinicalAnalysisTest" style="stroke:#A80036;stroke-width:1.25;"/><polygon fill="#A80036" points="277.175,285.4,265.2532,282.3287,271.011,286.4333,266.9064,292.1911,277.175,285.4" style="stroke:#A80036;stroke-width:1.25;"/><polygon fill="#000000" points="189.2896,279.8148,177.5324,278.0545,178.7431,285.3014,189.2896,279.8148" style="stroke:#000000;stroke-width:1.25;"/><text fill="#000000" font-family="sans-serif" font-size="16.25" lengthAdjust="spacing" textLength="26.25" x="194.375" y="287.4939">has</text><text fill="#000000" font-family="sans-serif" font-size="16.25" lengthAdjust="spacing" textLength="25" x="131.2174" y="328.452">1..*</text><text fill="#000000" font-family="sans-serif" font-size="16.25" lengthAdjust="spacing" textLength="8.75" x="258.7235" y="304.8349">1</text><!--MD5=[334b578e13447cb92b44420585535b5d]
link TypeOfTest to ParameterCategory--><path codeLine="53" d="M793.2,311.8625 C824.0625,321.7 862.5875,333.975 897.3,345.0375 " fill="none" id="TypeOfTest-to-ParameterCategory" style="stroke:#A80036;stroke-width:1.25;"/><polygon fill="#A80036" points="903.2875,346.95,894.0993,338.7562,897.3355,345.0432,891.0484,348.2794,903.2875,346.95" style="stroke:#A80036;stroke-width:1.25;"/><text fill="#000000" font-family="sans-serif" font-size="16.25" lengthAdjust="spacing" textLength="26.25" x="838.75" y="321.2439">has</text><text fill="#000000" font-family="sans-serif" font-size="16.25" lengthAdjust="spacing" textLength="8.75" x="803.0689" y="333.2126">1</text><text fill="#000000" font-family="sans-serif" font-size="16.25" lengthAdjust="spacing" textLength="25" x="868.7717" y="362.1986">1..*</text><!--MD5=[6eee883fdf517d3604e8bd0f2058e9aa]
link Company to Client--><path codeLine="54" d="M118.475,178 C236.5875,163.5875 524.425,128.45 659.5625,111.95 " fill="none" id="Company-to-Client" style="stroke:#A80036;stroke-width:1.25;"/><polygon fill="#A80036" points="665.875,111.175,654.1069,107.559,659.67,111.9239,655.3052,117.487,665.875,111.175" style="stroke:#A80036;stroke-width:1.25;"/><text fill="#000000" font-family="sans-serif" font-size="16.25" lengthAdjust="spacing" textLength="46.25" x="343.75" y="132.4939">knows</text><text fill="#000000" font-family="sans-serif" font-size="16.25" lengthAdjust="spacing" textLength="8.75" x="128.0564" y="195.5227">1</text><text fill="#000000" font-family="sans-serif" font-size="16.25" lengthAdjust="spacing" textLength="25" x="631.1555" y="130.2943">1..*</text><!--MD5=[1845ae359d826ae0c77d60095ba7c515]
@startuml
hide methods
left to right direction
skinparam classAttributeIconSize 0

class Company {
 -designation
}

class ClinicalAnalysisTest {
  - nhsCode
  - client
  - typeOfTest
  - parameterList
  - labWhereCreated
 }

class TypeOfTest {
  -code
  -description
  -collectingMethod
}



class Client {
  - name
  - citizenCardNumber
  - nhsNumber
  - birthDate
  - sex
  - tin
  - phoneNumber
  - email
}

class Parameter {
-name
-code
-description
}

class ParameterCategory {
-code
-name
}


Company "1" - - "*" ClinicalAnalysisTest : performs >
ClinicalAnalysisTest "*" - - "1" TypeOfTest: is of >
ClinicalAnalysisTest "1..*" - - "1" Client: requested by >
Parameter "1..*" - - "1" ParameterCategory: presented under >
Parameter "1..*" - -> "1" ClinicalAnalysisTest : has >
TypeOfTest "1" - -> "1..*" ParameterCategory :  has
Company "1" - -> "1..*" Client : knows

@enduml

PlantUML version 1.2021.4(Sun Apr 04 09:49:39 BST 2021)
(GPL source distribution)
Java Runtime: OpenJDK Runtime Environment
JVM: OpenJDK 64-Bit Server VM
Default Encoding: Cp1252
Language: pt
Country: PT
--></g></svg>