<?xml version="1.0" encoding="UTF-8" standalone="no"?><svg xmlns="http://www.w3.org/2000/svg" xmlns:xlink="http://www.w3.org/1999/xlink" contentScriptType="application/ecmascript" contentStyleType="text/css" height="396px" preserveAspectRatio="none" style="width:221px;height:396px;" version="1.1" viewBox="0 0 221 396" width="221px" zoomAndPan="magnify"><defs><filter height="300%" id="f1q3tj83p4ks3u" width="300%" x="-1" y="-1"><feGaussianBlur result="blurOut" stdDeviation="2.0"/><feColorMatrix in="blurOut" result="blurOut2" type="matrix" values="0 0 0 0 0 0 0 0 0 0 0 0 0 0 0 0 0 0 .4 0"/><feOffset dx="4.0" dy="4.0" in="blurOut2" result="blurOut3"/><feBlend in="SourceGraphic" in2="blurOut3" mode="normal"/></filter></defs><g><!--MD5=[02e4b9b7573f1156f41e60aa5b4e25a4]
class Company--><rect codeLine="6" fill="#FEFECE" filter="url(#f1q3tj83p4ks3u)" height="53.8359" id="Company" style="stroke:#A80036;stroke-width:1.5;" width="85" x="75.5" y="7"/><ellipse cx="90.5" cy="23" fill="#ADD1B2" rx="11" ry="11" style="stroke:#A80036;stroke-width:1.0;"/><path d="M92.5,19.5 Q92.7031,19 92.9375,18.75 Q93.1719,18.5 93.4375,18.5 Q93.9063,18.5 94.2031,18.7813 Q94.5,19.0625 94.5,19.7188 L94.5,21.2813 Q94.5,21.9375 94.2188,22.2188 Q93.9375,22.5 93.5,22.5 Q93.1094,22.5 92.8594,22.3281 Q92.6094,22.1563 92.5,21.7031 Q92.4531,21.3906 92.2813,21.2188 Q91.9688,20.8906 91.4063,20.7031 Q90.8438,20.5 90.2813,20.5 Q89.5781,20.5 88.9844,20.7813 Q88.4063,21.0625 87.9531,21.6875 Q87.5,22.3125 87.5,23.1719 L87.5,24.0938 Q87.5,25.125 88.3438,25.8125 Q89.1875,26.5 90.6875,26.5 Q91.5781,26.5 92.2031,26.2969 Q92.5625,26.1875 92.9688,25.8281 Q93.2344,25.625 93.375,25.5625 Q93.5156,25.5 93.6875,25.5 Q94.0156,25.5 94.25,25.7656 Q94.5,26.0156 94.5,26.375 Q94.5,26.7188 94.1563,27.125 Q93.6563,27.7188 92.8594,28.0469 Q91.8125,28.5 90.5313,28.5 Q89.0313,28.5 87.8281,27.9063 Q86.8594,27.4375 86.1719,26.4219 Q85.5,25.4063 85.5,24.2031 L85.5,23.1094 Q85.5,21.8594 86.0938,20.7656 Q86.7031,19.6719 87.75,19.0938 Q88.8125,18.5 90,18.5 Q90.7188,18.5 91.3438,18.75 Q91.9688,19 92.5,19.5 Z " fill="#000000"/><text fill="#000000" font-family="sans-serif" font-size="12" lengthAdjust="spacing" textLength="53" x="104.5" y="27.9102">Company</text><line style="stroke:#A80036;stroke-width:1.5;" x1="76.5" x2="159.5" y1="39" y2="39"/><text fill="#000000" font-family="sans-serif" font-size="11" lengthAdjust="spacing" textLength="59" x="81.5" y="54.4189">-designation</text><!--MD5=[1f6362a5c8f21d8d6a0fce68f3a92a4e]
class Parameter--><rect codeLine="10" fill="#FEFECE" filter="url(#f1q3tj83p4ks3u)" height="81.5078" id="Parameter" style="stroke:#A80036;stroke-width:1.5;" width="90" x="7" y="155"/><ellipse cx="22" cy="171" fill="#ADD1B2" rx="11" ry="11" style="stroke:#A80036;stroke-width:1.0;"/><path d="M24,167.5 Q24.2031,167 24.4375,166.75 Q24.6719,166.5 24.9375,166.5 Q25.4063,166.5 25.7031,166.7813 Q26,167.0625 26,167.7188 L26,169.2813 Q26,169.9375 25.7188,170.2188 Q25.4375,170.5 25,170.5 Q24.6094,170.5 24.3594,170.3281 Q24.1094,170.1563 24,169.7031 Q23.9531,169.3906 23.7813,169.2188 Q23.4688,168.8906 22.9063,168.7031 Q22.3438,168.5 21.7813,168.5 Q21.0781,168.5 20.4844,168.7813 Q19.9063,169.0625 19.4531,169.6875 Q19,170.3125 19,171.1719 L19,172.0938 Q19,173.125 19.8438,173.8125 Q20.6875,174.5 22.1875,174.5 Q23.0781,174.5 23.7031,174.2969 Q24.0625,174.1875 24.4688,173.8281 Q24.7344,173.625 24.875,173.5625 Q25.0156,173.5 25.1875,173.5 Q25.5156,173.5 25.75,173.7656 Q26,174.0156 26,174.375 Q26,174.7188 25.6563,175.125 Q25.1563,175.7188 24.3594,176.0469 Q23.3125,176.5 22.0313,176.5 Q20.5313,176.5 19.3281,175.9063 Q18.3594,175.4375 17.6719,174.4219 Q17,173.4063 17,172.2031 L17,171.1094 Q17,169.8594 17.5938,168.7656 Q18.2031,167.6719 19.25,167.0938 Q20.3125,166.5 21.5,166.5 Q22.2188,166.5 22.8438,166.75 Q23.4688,167 24,167.5 Z " fill="#000000"/><text fill="#000000" font-family="sans-serif" font-size="12" lengthAdjust="spacing" textLength="58" x="36" y="175.9102">Parameter</text><line style="stroke:#A80036;stroke-width:1.5;" x1="8" x2="96" y1="187" y2="187"/><text fill="#000000" font-family="sans-serif" font-size="11" lengthAdjust="spacing" textLength="28" x="13" y="202.4189">-code</text><text fill="#000000" font-family="sans-serif" font-size="11" lengthAdjust="spacing" textLength="56" x="13" y="216.2549">-shortName</text><text fill="#000000" font-family="sans-serif" font-size="11" lengthAdjust="spacing" textLength="57" x="13" y="230.0908">-description</text><!--MD5=[36afb6bbd95a8ac778c4537c55a683d5]
class ParameterCategory--><rect codeLine="16" fill="#FEFECE" filter="url(#f1q3tj83p4ks3u)" height="67.6719" id="ParameterCategory" style="stroke:#A80036;stroke-width:1.5;" width="139" x="39.5" y="315"/><ellipse cx="54.5" cy="331" fill="#ADD1B2" rx="11" ry="11" style="stroke:#A80036;stroke-width:1.0;"/><path d="M56.5,327.5 Q56.7031,327 56.9375,326.75 Q57.1719,326.5 57.4375,326.5 Q57.9063,326.5 58.2031,326.7813 Q58.5,327.0625 58.5,327.7188 L58.5,329.2813 Q58.5,329.9375 58.2188,330.2188 Q57.9375,330.5 57.5,330.5 Q57.1094,330.5 56.8594,330.3281 Q56.6094,330.1563 56.5,329.7031 Q56.4531,329.3906 56.2813,329.2188 Q55.9688,328.8906 55.4063,328.7031 Q54.8438,328.5 54.2813,328.5 Q53.5781,328.5 52.9844,328.7813 Q52.4063,329.0625 51.9531,329.6875 Q51.5,330.3125 51.5,331.1719 L51.5,332.0938 Q51.5,333.125 52.3438,333.8125 Q53.1875,334.5 54.6875,334.5 Q55.5781,334.5 56.2031,334.2969 Q56.5625,334.1875 56.9688,333.8281 Q57.2344,333.625 57.375,333.5625 Q57.5156,333.5 57.6875,333.5 Q58.0156,333.5 58.25,333.7656 Q58.5,334.0156 58.5,334.375 Q58.5,334.7188 58.1563,335.125 Q57.6563,335.7188 56.8594,336.0469 Q55.8125,336.5 54.5313,336.5 Q53.0313,336.5 51.8281,335.9063 Q50.8594,335.4375 50.1719,334.4219 Q49.5,333.4063 49.5,332.2031 L49.5,331.1094 Q49.5,329.8594 50.0938,328.7656 Q50.7031,327.6719 51.75,327.0938 Q52.8125,326.5 54,326.5 Q54.7188,326.5 55.3438,326.75 Q55.9688,327 56.5,327.5 Z " fill="#000000"/><text fill="#000000" font-family="sans-serif" font-size="12" lengthAdjust="spacing" textLength="107" x="68.5" y="335.9102">ParameterCategory</text><line style="stroke:#A80036;stroke-width:1.5;" x1="40.5" x2="177.5" y1="347" y2="347"/><text fill="#000000" font-family="sans-serif" font-size="11" lengthAdjust="spacing" textLength="28" x="45.5" y="362.4189">-code</text><text fill="#000000" font-family="sans-serif" font-size="11" lengthAdjust="spacing" textLength="30" x="45.5" y="376.2549">-name</text><!--MD5=[12d76240d3c3c66074d4ec2ea8bf469c]
link Company to Parameter--><path codeLine="21" d="M88.38,61.03 C80.2,69.75 72.16,80.06 67,91 C57.66,110.8 53.78,134.89 52.29,154.89 " fill="none" id="Company-Parameter" style="stroke:#A80036;stroke-width:1.0;"/><polygon fill="#000000" points="71.2055,104.8427,77.1949,97.4549,71.7086,95.3454,71.2055,104.8427" style="stroke:#000000;stroke-width:1.0;"/><text fill="#000000" font-family="sans-serif" font-size="13" lengthAdjust="spacing" textLength="59" x="81" y="105.4951">capable of</text><text fill="#000000" font-family="sans-serif" font-size="13" lengthAdjust="spacing" textLength="55" x="76.5" y="121.8467">analysing</text><text fill="#000000" font-family="sans-serif" font-size="13" lengthAdjust="spacing" textLength="7" x="74.135" y="82.2443">1</text><text fill="#000000" font-family="sans-serif" font-size="13" lengthAdjust="spacing" textLength="5" x="46.9102" y="144.0168">*</text><!--MD5=[93b4f25fb503a8e0e9a46b1d30ff3f44]
link Company to ParameterCategory--><path codeLine="22" d="M133.61,61.16 C138.23,70.28 142.67,80.79 145,91 C164.21,175.06 167.13,201.67 145,285 C142.28,295.23 137.47,305.53 132.24,314.75 " fill="none" id="Company-ParameterCategory" style="stroke:#A80036;stroke-width:1.0;"/><polygon fill="#000000" points="164.973,201.1757,167.9607,192.1466,162.083,192.1149,164.973,201.1757" style="stroke:#000000;stroke-width:1.0;"/><text fill="#000000" font-family="sans-serif" font-size="13" lengthAdjust="spacing" textLength="39" x="174" y="201.4951">adopts</text><text fill="#000000" font-family="sans-serif" font-size="13" lengthAdjust="spacing" textLength="7" x="129.2591" y="82.4028">1</text><text fill="#000000" font-family="sans-serif" font-size="13" lengthAdjust="spacing" textLength="5" x="131.1936" y="304.256">*</text><!--MD5=[6df8849671cb880f6936e94aa30db6f9]
link Parameter to ParameterCategory--><path codeLine="23" d="M46.59,237.11 C46.01,252.54 47.21,270.04 53,285 C57.17,295.78 64.1,305.91 71.69,314.76 " fill="none" id="Parameter-ParameterCategory" style="stroke:#A80036;stroke-width:1.0;"/><polygon fill="#000000" points="59.5379,280.9334,59.5523,271.4228,53.9594,273.2307,59.5379,280.9334" style="stroke:#000000;stroke-width:1.0;"/><text fill="#000000" font-family="sans-serif" font-size="13" lengthAdjust="spacing" textLength="73" x="67" y="281.4951">shown under</text><text fill="#000000" font-family="sans-serif" font-size="13" lengthAdjust="spacing" textLength="5" x="40.4282" y="257.8801">*</text><text fill="#000000" font-family="sans-serif" font-size="13" lengthAdjust="spacing" textLength="7" x="56.9106" y="304.2679">1</text><!--MD5=[666d0c4de318791f7dc01b38c6d62d02]
@startuml
hide methods

skinparam classAttributeIconSize 0


class Company {
  -designation
}

class Parameter{
    -code
    -shortName
    -description
}

class ParameterCategory{
    -code
    -name
}

Company"1" - - "*"Parameter :> capable of \nanalysing
Company"1" - - "*"ParameterCategory :> adopts
Parameter"*" - - "1"ParameterCategory :> shown under

@enduml

PlantUML version 1.2021.5(Sun Apr 25 12:20:28 BST 2021)
(GPL source distribution)
Java Runtime: OpenJDK Runtime Environment
JVM: Dynamic Code Evolution 64-Bit Server VM
Default Encoding: Cp1252
Language: en
Country: US
--></g></svg>