<?xml version="1.0" encoding="UTF-8" standalone="no"?><svg xmlns="http://www.w3.org/2000/svg" xmlns:xlink="http://www.w3.org/1999/xlink" contentScriptType="application/ecmascript" contentStyleType="text/css" height="1145px" preserveAspectRatio="none" style="width:1932px;height:1145px;" version="1.1" viewBox="0 0 1932 1145" width="1932px" zoomAndPan="magnify"><defs><filter height="300%" id="fxw2cnk59qaft" width="300%" x="-1" y="-1"><feGaussianBlur result="blurOut" stdDeviation="2.0"/><feColorMatrix in="blurOut" result="blurOut2" type="matrix" values="0 0 0 0 0 0 0 0 0 0 0 0 0 0 0 0 0 0 .4 0"/><feOffset dx="4.0" dy="4.0" in="blurOut2" result="blurOut3"/><feBlend in="SourceGraphic" in2="blurOut3" mode="normal"/></filter></defs><g><rect fill="#FFFFFF" filter="url(#fxw2cnk59qaft)" height="30.3516" style="stroke:#A80036;stroke-width:1.0;" width="10" x="385.5" y="121.9609"/><rect fill="#FFFFFF" filter="url(#fxw2cnk59qaft)" height="241.7578" style="stroke:#A80036;stroke-width:1.0;" width="10" x="385.5" y="182.6641"/><rect fill="#FFFFFF" filter="url(#fxw2cnk59qaft)" height="318.7188" style="stroke:#A80036;stroke-width:1.0;" width="10" x="385.5" y="454.7734"/><rect fill="#FFFFFF" filter="url(#fxw2cnk59qaft)" height="237.7578" style="stroke:#A80036;stroke-width:1.0;" width="10" x="385.5" y="803.8438"/><rect fill="#FFFFFF" filter="url(#fxw2cnk59qaft)" height="181.0547" style="stroke:#A80036;stroke-width:1.0;" width="10" x="765.5" y="213.0156"/><rect fill="#FFFFFF" filter="url(#fxw2cnk59qaft)" height="258.0156" style="stroke:#A80036;stroke-width:1.0;" width="10" x="765.5" y="485.125"/><rect fill="#FFFFFF" filter="url(#fxw2cnk59qaft)" height="170.0547" style="stroke:#A80036;stroke-width:1.0;" width="10" x="765.5" y="834.1953"/><rect fill="#FFFFFF" filter="url(#fxw2cnk59qaft)" height="30" style="stroke:#A80036;stroke-width:1.0;" width="10" x="1035.5" y="243.3672"/><rect fill="#FFFFFF" filter="url(#fxw2cnk59qaft)" height="30" style="stroke:#A80036;stroke-width:1.0;" width="10" x="1035.5" y="515.4766"/><rect fill="#FFFFFF" filter="url(#fxw2cnk59qaft)" height="90.7031" style="stroke:#A80036;stroke-width:1.0;" width="10" x="1170.5" y="575.8281"/><rect fill="#FFFFFF" filter="url(#fxw2cnk59qaft)" height="30" style="stroke:#A80036;stroke-width:1.0;" width="10" x="1170.5" y="713.1406"/><rect fill="#FFFFFF" filter="url(#fxw2cnk59qaft)" height="139.7031" style="stroke:#A80036;stroke-width:1.0;" width="10" x="1170.5" y="864.5469"/><rect fill="#FFFFFF" filter="url(#fxw2cnk59qaft)" height="28" style="stroke:#A80036;stroke-width:1.0;" width="10" x="1175.5" y="902.8984"/><rect fill="#FFFFFF" filter="url(#fxw2cnk59qaft)" height="28" style="stroke:#A80036;stroke-width:1.0;" width="10" x="1175.5" y="976.25"/><rect fill="#FFFFFF" filter="url(#fxw2cnk59qaft)" height="30" style="stroke:#A80036;stroke-width:1.0;" width="10" x="1682" y="303.7188"/><rect fill="#FFFFFF" filter="url(#fxw2cnk59qaft)" height="30" style="stroke:#A80036;stroke-width:1.0;" width="10" x="1682" y="606.1797"/><rect fill="#FFFFFF" filter="url(#fxw2cnk59qaft)" height="30" style="stroke:#A80036;stroke-width:1.0;" width="10" x="1840" y="364.0703"/><line style="stroke:#A80036;stroke-width:1.0;stroke-dasharray:5.0,5.0;" x1="49" x2="49" y1="89.6094" y2="1059.6016"/><line style="stroke:#A80036;stroke-width:1.0;stroke-dasharray:5.0,5.0;" x1="390" x2="390" y1="89.6094" y2="1059.6016"/><line style="stroke:#A80036;stroke-width:1.0;stroke-dasharray:5.0,5.0;" x1="770" x2="770" y1="89.6094" y2="1059.6016"/><line style="stroke:#A80036;stroke-width:1.0;stroke-dasharray:5.0,5.0;" x1="1040.5" x2="1040.5" y1="89.6094" y2="1059.6016"/><line style="stroke:#A80036;stroke-width:1.0;stroke-dasharray:5.0,5.0;" x1="1175.5" x2="1175.5" y1="89.6094" y2="1059.6016"/><line style="stroke:#A80036;stroke-width:1.0;stroke-dasharray:5.0,5.0;" x1="1562.5" x2="1562.5" y1="677.4844" y2="1059.6016"/><line style="stroke:#A80036;stroke-width:1.0;stroke-dasharray:5.0,5.0;" x1="1686.5" x2="1686.5" y1="89.6094" y2="1059.6016"/><line style="stroke:#A80036;stroke-width:1.0;stroke-dasharray:5.0,5.0;" x1="1844.5" x2="1844.5" y1="89.6094" y2="1059.6016"/><text fill="#000000" font-family="sans-serif" font-size="14" lengthAdjust="spacing" textLength="83" x="5" y="86.5332">Administrator</text><ellipse cx="49.5" cy="15" fill="#FEFECE" filter="url(#fxw2cnk59qaft)" rx="8" ry="8" style="stroke:#A80036;stroke-width:2.0;"/><path d="M49.5,23 L49.5,50 M36.5,31 L62.5,31 M49.5,50 L36.5,65 M49.5,50 L62.5,65 " fill="none" filter="url(#fxw2cnk59qaft)" style="stroke:#A80036;stroke-width:2.0;"/><text fill="#000000" font-family="sans-serif" font-size="14" lengthAdjust="spacing" textLength="83" x="5" y="1073.1348">Administrator</text><ellipse cx="49.5" cy="1086.2109" fill="#FEFECE" filter="url(#fxw2cnk59qaft)" rx="8" ry="8" style="stroke:#A80036;stroke-width:2.0;"/><path d="M49.5,1094.2109 L49.5,1121.2109 M36.5,1102.2109 L62.5,1102.2109 M49.5,1121.2109 L36.5,1136.2109 M49.5,1121.2109 L62.5,1136.2109 " fill="none" filter="url(#fxw2cnk59qaft)" style="stroke:#A80036;stroke-width:2.0;"/><rect fill="#FEFECE" filter="url(#fxw2cnk59qaft)" height="31.6094" style="stroke:#A80036;stroke-width:1.5;" width="165" x="306" y="53"/><text fill="#000000" font-family="sans-serif" font-size="14" lengthAdjust="spacing" textLength="151" x="313" y="74.5332">:CreateNewParameterUI</text><rect fill="#FEFECE" filter="url(#fxw2cnk59qaft)" height="31.6094" style="stroke:#A80036;stroke-width:1.5;" width="165" x="306" y="1058.6016"/><text fill="#000000" font-family="sans-serif" font-size="14" lengthAdjust="spacing" textLength="151" x="313" y="1080.1348">:CreateNewParameterUI</text><rect fill="#FEFECE" filter="url(#fxw2cnk59qaft)" height="31.6094" style="stroke:#A80036;stroke-width:1.5;" width="215" x="661" y="53"/><text fill="#000000" font-family="sans-serif" font-size="14" lengthAdjust="spacing" textLength="201" x="668" y="74.5332">:CreateNewParameterController</text><rect fill="#FEFECE" filter="url(#fxw2cnk59qaft)" height="31.6094" style="stroke:#A80036;stroke-width:1.5;" width="215" x="661" y="1058.6016"/><text fill="#000000" font-family="sans-serif" font-size="14" lengthAdjust="spacing" textLength="201" x="668" y="1080.1348">:CreateNewParameterController</text><rect fill="#FEFECE" filter="url(#fxw2cnk59qaft)" height="31.6094" style="stroke:#A80036;stroke-width:1.5;" width="78" x="999.5" y="53"/><text fill="#000000" font-family="sans-serif" font-size="14" lengthAdjust="spacing" textLength="64" x="1006.5" y="74.5332">:Company</text><rect fill="#FEFECE" filter="url(#fxw2cnk59qaft)" height="31.6094" style="stroke:#A80036;stroke-width:1.5;" width="78" x="999.5" y="1058.6016"/><text fill="#000000" font-family="sans-serif" font-size="14" lengthAdjust="spacing" textLength="64" x="1006.5" y="1080.1348">:Company</text><rect fill="#FEFECE" filter="url(#fxw2cnk59qaft)" height="31.6094" style="stroke:#A80036;stroke-width:1.5;" width="164" x="1091.5" y="53"/><text fill="#000000" font-family="sans-serif" font-size="14" lengthAdjust="spacing" textLength="150" x="1098.5" y="74.5332">pStore: ParameterStore</text><rect fill="#FEFECE" filter="url(#fxw2cnk59qaft)" height="31.6094" style="stroke:#A80036;stroke-width:1.5;" width="164" x="1091.5" y="1058.6016"/><text fill="#000000" font-family="sans-serif" font-size="14" lengthAdjust="spacing" textLength="150" x="1098.5" y="1080.1348">pStore: ParameterStore</text><rect fill="#FEFECE" filter="url(#fxw2cnk59qaft)" height="31.6094" style="stroke:#A80036;stroke-width:1.5;" width="84" x="1518.5" y="1058.6016"/><text fill="#000000" font-family="sans-serif" font-size="14" lengthAdjust="spacing" textLength="70" x="1525.5" y="1080.1348">:Parameter</text><rect fill="#FEFECE" filter="url(#fxw2cnk59qaft)" height="49.2188" style="stroke:#A80036;stroke-width:1.5;" width="137" x="1616.5" y="35.3906"/><text fill="#000000" font-family="sans-serif" font-size="14" lengthAdjust="spacing" textLength="123" x="1623.5" y="56.9238">pcStore: Parameter</text><text fill="#000000" font-family="sans-serif" font-size="14" lengthAdjust="spacing" textLength="92" x="1639" y="74.5332">CategoryStore</text><rect fill="#FEFECE" filter="url(#fxw2cnk59qaft)" height="49.2188" style="stroke:#A80036;stroke-width:1.5;" width="137" x="1616.5" y="1058.6016"/><text fill="#000000" font-family="sans-serif" font-size="14" lengthAdjust="spacing" textLength="123" x="1623.5" y="1080.1348">pcStore: Parameter</text><text fill="#000000" font-family="sans-serif" font-size="14" lengthAdjust="spacing" textLength="92" x="1639" y="1097.7441">CategoryStore</text><rect fill="#FEFECE" filter="url(#fxw2cnk59qaft)" height="49.2188" style="stroke:#A80036;stroke-width:1.5;" width="151" x="1767.5" y="35.3906"/><text fill="#000000" font-family="sans-serif" font-size="14" lengthAdjust="spacing" textLength="137" x="1774.5" y="56.9238">pcMapper: Parameter</text><text fill="#000000" font-family="sans-serif" font-size="14" lengthAdjust="spacing" textLength="106" x="1790" y="74.5332">CategoryMapper</text><rect fill="#FEFECE" filter="url(#fxw2cnk59qaft)" height="49.2188" style="stroke:#A80036;stroke-width:1.5;" width="151" x="1767.5" y="1058.6016"/><text fill="#000000" font-family="sans-serif" font-size="14" lengthAdjust="spacing" textLength="137" x="1774.5" y="1080.1348">pcMapper: Parameter</text><text fill="#000000" font-family="sans-serif" font-size="14" lengthAdjust="spacing" textLength="106" x="1790" y="1097.7441">CategoryMapper</text><rect fill="#FFFFFF" filter="url(#fxw2cnk59qaft)" height="30.3516" style="stroke:#A80036;stroke-width:1.0;" width="10" x="385.5" y="121.9609"/><rect fill="#FFFFFF" filter="url(#fxw2cnk59qaft)" height="241.7578" style="stroke:#A80036;stroke-width:1.0;" width="10" x="385.5" y="182.6641"/><rect fill="#FFFFFF" filter="url(#fxw2cnk59qaft)" height="318.7188" style="stroke:#A80036;stroke-width:1.0;" width="10" x="385.5" y="454.7734"/><rect fill="#FFFFFF" filter="url(#fxw2cnk59qaft)" height="237.7578" style="stroke:#A80036;stroke-width:1.0;" width="10" x="385.5" y="803.8438"/><rect fill="#FFFFFF" filter="url(#fxw2cnk59qaft)" height="181.0547" style="stroke:#A80036;stroke-width:1.0;" width="10" x="765.5" y="213.0156"/><rect fill="#FFFFFF" filter="url(#fxw2cnk59qaft)" height="258.0156" style="stroke:#A80036;stroke-width:1.0;" width="10" x="765.5" y="485.125"/><rect fill="#FFFFFF" filter="url(#fxw2cnk59qaft)" height="170.0547" style="stroke:#A80036;stroke-width:1.0;" width="10" x="765.5" y="834.1953"/><rect fill="#FFFFFF" filter="url(#fxw2cnk59qaft)" height="30" style="stroke:#A80036;stroke-width:1.0;" width="10" x="1035.5" y="243.3672"/><rect fill="#FFFFFF" filter="url(#fxw2cnk59qaft)" height="30" style="stroke:#A80036;stroke-width:1.0;" width="10" x="1035.5" y="515.4766"/><rect fill="#FFFFFF" filter="url(#fxw2cnk59qaft)" height="90.7031" style="stroke:#A80036;stroke-width:1.0;" width="10" x="1170.5" y="575.8281"/><rect fill="#FFFFFF" filter="url(#fxw2cnk59qaft)" height="30" style="stroke:#A80036;stroke-width:1.0;" width="10" x="1170.5" y="713.1406"/><rect fill="#FFFFFF" filter="url(#fxw2cnk59qaft)" height="139.7031" style="stroke:#A80036;stroke-width:1.0;" width="10" x="1170.5" y="864.5469"/><rect fill="#FFFFFF" filter="url(#fxw2cnk59qaft)" height="28" style="stroke:#A80036;stroke-width:1.0;" width="10" x="1175.5" y="902.8984"/><rect fill="#FFFFFF" filter="url(#fxw2cnk59qaft)" height="28" style="stroke:#A80036;stroke-width:1.0;" width="10" x="1175.5" y="976.25"/><rect fill="#FFFFFF" filter="url(#fxw2cnk59qaft)" height="30" style="stroke:#A80036;stroke-width:1.0;" width="10" x="1682" y="303.7188"/><rect fill="#FFFFFF" filter="url(#fxw2cnk59qaft)" height="30" style="stroke:#A80036;stroke-width:1.0;" width="10" x="1682" y="606.1797"/><rect fill="#FFFFFF" filter="url(#fxw2cnk59qaft)" height="30" style="stroke:#A80036;stroke-width:1.0;" width="10" x="1840" y="364.0703"/><polygon fill="#A80036" points="373.5,117.9609,383.5,121.9609,373.5,125.9609,377.5,121.9609" style="stroke:#A80036;stroke-width:1.0;"/><line style="stroke:#A80036;stroke-width:1.0;" x1="49.5" x2="379.5" y1="121.9609" y2="121.9609"/><text fill="#000000" font-family="sans-serif" font-size="13" font-weight="bold" lengthAdjust="spacing" textLength="7" x="56.5" y="117.1045">1</text><text fill="#000000" font-family="sans-serif" font-size="13" lengthAdjust="spacing" textLength="128" x="67.5" y="117.1045">Start a new parameter</text><polygon fill="#A80036" points="60.5,148.3125,50.5,152.3125,60.5,156.3125,56.5,152.3125" style="stroke:#A80036;stroke-width:1.0;"/><line style="stroke:#A80036;stroke-width:1.0;stroke-dasharray:2.0,2.0;" x1="54.5" x2="389.5" y1="152.3125" y2="152.3125"/><text fill="#000000" font-family="sans-serif" font-size="13" font-weight="bold" lengthAdjust="spacing" textLength="7" x="66.5" y="147.4561">2</text><text fill="#000000" font-family="sans-serif" font-size="13" lengthAdjust="spacing" textLength="232" x="77.5" y="147.4561">ask data (shortName, code, description)</text><polygon fill="#A80036" points="373.5,178.6641,383.5,182.6641,373.5,186.6641,377.5,182.6641" style="stroke:#A80036;stroke-width:1.0;"/><line style="stroke:#A80036;stroke-width:1.0;" x1="49.5" x2="379.5" y1="182.6641" y2="182.6641"/><text fill="#000000" font-family="sans-serif" font-size="13" font-weight="bold" lengthAdjust="spacing" textLength="7" x="56.5" y="177.8076">3</text><text fill="#000000" font-family="sans-serif" font-size="13" lengthAdjust="spacing" textLength="122" x="67.5" y="177.8076">insert requested data</text><polygon fill="#A80036" points="753.5,209.0156,763.5,213.0156,753.5,217.0156,757.5,213.0156" style="stroke:#A80036;stroke-width:1.0;"/><line style="stroke:#A80036;stroke-width:1.0;" x1="395.5" x2="759.5" y1="213.0156" y2="213.0156"/><text fill="#000000" font-family="sans-serif" font-size="13" font-weight="bold" lengthAdjust="spacing" textLength="7" x="402.5" y="208.1592">4</text><text fill="#000000" font-family="sans-serif" font-size="13" lengthAdjust="spacing" textLength="220" x="413.5" y="208.1592">lPCDto = getAllParameterCategories()</text><polygon fill="#A80036" points="1023.5,239.3672,1033.5,243.3672,1023.5,247.3672,1027.5,243.3672" style="stroke:#A80036;stroke-width:1.0;"/><line style="stroke:#A80036;stroke-width:1.0;" x1="775.5" x2="1029.5" y1="243.3672" y2="243.3672"/><text fill="#000000" font-family="sans-serif" font-size="13" font-weight="bold" lengthAdjust="spacing" textLength="7" x="782.5" y="238.5107">5</text><text fill="#000000" font-family="sans-serif" font-size="13" lengthAdjust="spacing" textLength="230" x="793.5" y="238.5107">pcStore = getParameterCategoryStore()</text><polygon fill="#A80036" points="1670,299.7188,1680,303.7188,1670,307.7188,1674,303.7188" style="stroke:#A80036;stroke-width:1.0;"/><line style="stroke:#A80036;stroke-width:1.0;" x1="775.5" x2="1676" y1="303.7188" y2="303.7188"/><text fill="#000000" font-family="sans-serif" font-size="13" font-weight="bold" lengthAdjust="spacing" textLength="7" x="782.5" y="298.8623">6</text><text fill="#000000" font-family="sans-serif" font-size="13" lengthAdjust="spacing" textLength="200" x="793.5" y="298.8623">lPC = getAllParameterCategories()</text><polygon fill="#A80036" points="1828,360.0703,1838,364.0703,1828,368.0703,1832,364.0703" style="stroke:#A80036;stroke-width:1.0;"/><line style="stroke:#A80036;stroke-width:1.0;" x1="775.5" x2="1834" y1="364.0703" y2="364.0703"/><text fill="#000000" font-family="sans-serif" font-size="13" font-weight="bold" lengthAdjust="spacing" textLength="7" x="782.5" y="359.2139">7</text><text fill="#000000" font-family="sans-serif" font-size="13" lengthAdjust="spacing" textLength="123" x="793.5" y="359.2139">lPCDto = toDTO(lPC)</text><polygon fill="#A80036" points="60.5,420.4219,50.5,424.4219,60.5,428.4219,56.5,424.4219" style="stroke:#A80036;stroke-width:1.0;"/><line style="stroke:#A80036;stroke-width:1.0;stroke-dasharray:2.0,2.0;" x1="54.5" x2="389.5" y1="424.4219" y2="424.4219"/><text fill="#000000" font-family="sans-serif" font-size="13" font-weight="bold" lengthAdjust="spacing" textLength="7" x="66.5" y="419.5654">8</text><text fill="#000000" font-family="sans-serif" font-size="13" lengthAdjust="spacing" textLength="301" x="77.5" y="419.5654">shows all categories and asks to select one of them</text><polygon fill="#A80036" points="373.5,450.7734,383.5,454.7734,373.5,458.7734,377.5,454.7734" style="stroke:#A80036;stroke-width:1.0;"/><line style="stroke:#A80036;stroke-width:1.0;" x1="49.5" x2="379.5" y1="454.7734" y2="454.7734"/><text fill="#000000" font-family="sans-serif" font-size="13" font-weight="bold" lengthAdjust="spacing" textLength="7" x="56.5" y="449.917">9</text><text fill="#000000" font-family="sans-serif" font-size="13" lengthAdjust="spacing" textLength="121" x="67.5" y="449.917">selects one category</text><polygon fill="#A80036" points="753.5,481.125,763.5,485.125,753.5,489.125,757.5,485.125" style="stroke:#A80036;stroke-width:1.0;"/><line style="stroke:#A80036;stroke-width:1.0;" x1="395.5" x2="759.5" y1="485.125" y2="485.125"/><text fill="#000000" font-family="sans-serif" font-size="13" font-weight="bold" lengthAdjust="spacing" textLength="14" x="402.5" y="480.2686">10</text><text fill="#000000" font-family="sans-serif" font-size="13" lengthAdjust="spacing" textLength="333" x="420.5" y="480.2686">CreateNewParameter(shortName, code, description, pcId)</text><polygon fill="#A80036" points="1023.5,511.4766,1033.5,515.4766,1023.5,519.4766,1027.5,515.4766" style="stroke:#A80036;stroke-width:1.0;"/><line style="stroke:#A80036;stroke-width:1.0;" x1="775.5" x2="1029.5" y1="515.4766" y2="515.4766"/><text fill="#000000" font-family="sans-serif" font-size="13" font-weight="bold" lengthAdjust="spacing" textLength="14" x="782.5" y="510.6201">11</text><text fill="#000000" font-family="sans-serif" font-size="13" lengthAdjust="spacing" textLength="171" x="800.5" y="510.6201">pStore = getParameterStore()</text><polygon fill="#A80036" points="1158.5,571.8281,1168.5,575.8281,1158.5,579.8281,1162.5,575.8281" style="stroke:#A80036;stroke-width:1.0;"/><line style="stroke:#A80036;stroke-width:1.0;" x1="775.5" x2="1164.5" y1="575.8281" y2="575.8281"/><text fill="#000000" font-family="sans-serif" font-size="13" font-weight="bold" lengthAdjust="spacing" textLength="14" x="782.5" y="570.9717">12</text><text fill="#000000" font-family="sans-serif" font-size="13" lengthAdjust="spacing" textLength="329" x="800.5" y="570.9717">p = createParameter(shortName, code, description, pcId)</text><polygon fill="#A80036" points="1670,602.1797,1680,606.1797,1670,610.1797,1674,606.1797" style="stroke:#A80036;stroke-width:1.0;"/><line style="stroke:#A80036;stroke-width:1.0;" x1="1180.5" x2="1676" y1="606.1797" y2="606.1797"/><text fill="#000000" font-family="sans-serif" font-size="13" font-weight="bold" lengthAdjust="spacing" textLength="14" x="1187.5" y="601.3232">13</text><text fill="#000000" font-family="sans-serif" font-size="13" lengthAdjust="spacing" textLength="192" x="1205.5" y="601.3232">pc = getParameterCategory(pcId)</text><polygon fill="#A80036" points="1506.5,662.5313,1516.5,666.5313,1506.5,670.5313,1510.5,666.5313" style="stroke:#A80036;stroke-width:1.0;"/><line style="stroke:#A80036;stroke-width:1.0;stroke-dasharray:2.0,2.0;" x1="1175.5" x2="1512.5" y1="666.5313" y2="666.5313"/><text fill="#000000" font-family="sans-serif" font-size="13" font-weight="bold" lengthAdjust="spacing" textLength="14" x="1182.5" y="661.6748">14</text><text fill="#000000" font-family="sans-serif" font-size="13" lengthAdjust="spacing" textLength="296" x="1200.5" y="661.6748">Parameter(shortName, code, description, category)</text><rect fill="#FEFECE" filter="url(#fxw2cnk59qaft)" height="31.6094" style="stroke:#A80036;stroke-width:1.5;" width="84" x="1518.5" y="644.1797"/><text fill="#000000" font-family="sans-serif" font-size="14" lengthAdjust="spacing" textLength="70" x="1525.5" y="665.7129">:Parameter</text><polygon fill="#A80036" points="1158.5,709.1406,1168.5,713.1406,1158.5,717.1406,1162.5,713.1406" style="stroke:#A80036;stroke-width:1.0;"/><line style="stroke:#A80036;stroke-width:1.0;" x1="775.5" x2="1164.5" y1="713.1406" y2="713.1406"/><text fill="#000000" font-family="sans-serif" font-size="13" font-weight="bold" lengthAdjust="spacing" textLength="14" x="782.5" y="708.2842">15</text><text fill="#000000" font-family="sans-serif" font-size="13" lengthAdjust="spacing" textLength="118" x="800.5" y="708.2842">validateParameter(p)</text><polygon fill="#A80036" points="60.5,769.4922,50.5,773.4922,60.5,777.4922,56.5,773.4922" style="stroke:#A80036;stroke-width:1.0;"/><line style="stroke:#A80036;stroke-width:1.0;stroke-dasharray:2.0,2.0;" x1="54.5" x2="389.5" y1="773.4922" y2="773.4922"/><text fill="#000000" font-family="sans-serif" font-size="13" font-weight="bold" lengthAdjust="spacing" textLength="14" x="66.5" y="768.6357">16</text><text fill="#000000" font-family="sans-serif" font-size="13" lengthAdjust="spacing" textLength="228" x="84.5" y="768.6357">presents data and asks for confirmation</text><polygon fill="#A80036" points="373.5,799.8438,383.5,803.8438,373.5,807.8438,377.5,803.8438" style="stroke:#A80036;stroke-width:1.0;"/><line style="stroke:#A80036;stroke-width:1.0;" x1="49.5" x2="379.5" y1="803.8438" y2="803.8438"/><text fill="#000000" font-family="sans-serif" font-size="13" font-weight="bold" lengthAdjust="spacing" textLength="14" x="56.5" y="798.9873">17</text><text fill="#000000" font-family="sans-serif" font-size="13" lengthAdjust="spacing" textLength="78" x="74.5" y="798.9873">confirms data</text><polygon fill="#A80036" points="753.5,830.1953,763.5,834.1953,753.5,838.1953,757.5,834.1953" style="stroke:#A80036;stroke-width:1.0;"/><line style="stroke:#A80036;stroke-width:1.0;" x1="395.5" x2="759.5" y1="834.1953" y2="834.1953"/><text fill="#000000" font-family="sans-serif" font-size="13" font-weight="bold" lengthAdjust="spacing" textLength="14" x="402.5" y="829.3389">18</text><text fill="#000000" font-family="sans-serif" font-size="13" lengthAdjust="spacing" textLength="94" x="420.5" y="829.3389">saveParameter()</text><polygon fill="#A80036" points="1158.5,860.5469,1168.5,864.5469,1158.5,868.5469,1162.5,864.5469" style="stroke:#A80036;stroke-width:1.0;"/><line style="stroke:#A80036;stroke-width:1.0;" x1="775.5" x2="1164.5" y1="864.5469" y2="864.5469"/><text fill="#000000" font-family="sans-serif" font-size="13" font-weight="bold" lengthAdjust="spacing" textLength="14" x="782.5" y="859.6904">19</text><text fill="#000000" font-family="sans-serif" font-size="13" lengthAdjust="spacing" textLength="101" x="800.5" y="859.6904">saveParameter(p)</text><line style="stroke:#A80036;stroke-width:1.0;" x1="1185.5" x2="1227.5" y1="894.8984" y2="894.8984"/><line style="stroke:#A80036;stroke-width:1.0;" x1="1227.5" x2="1227.5" y1="894.8984" y2="907.8984"/><line style="stroke:#A80036;stroke-width:1.0;" x1="1186.5" x2="1227.5" y1="907.8984" y2="907.8984"/><polygon fill="#A80036" points="1196.5,903.8984,1186.5,907.8984,1196.5,911.8984,1192.5,907.8984" style="stroke:#A80036;stroke-width:1.0;"/><text fill="#000000" font-family="sans-serif" font-size="13" font-weight="bold" lengthAdjust="spacing" textLength="14" x="1192.5" y="890.042">20</text><text fill="#000000" font-family="sans-serif" font-size="13" lengthAdjust="spacing" textLength="118" x="1210.5" y="890.042">validateParameter(p)</text><line style="stroke:#A80036;stroke-width:1.0;" x1="1185.5" x2="1227.5" y1="968.25" y2="968.25"/><line style="stroke:#A80036;stroke-width:1.0;" x1="1227.5" x2="1227.5" y1="968.25" y2="981.25"/><line style="stroke:#A80036;stroke-width:1.0;" x1="1186.5" x2="1227.5" y1="981.25" y2="981.25"/><polygon fill="#A80036" points="1196.5,977.25,1186.5,981.25,1196.5,985.25,1192.5,981.25" style="stroke:#A80036;stroke-width:1.0;"/><text fill="#000000" font-family="sans-serif" font-size="13" font-weight="bold" lengthAdjust="spacing" textLength="14" x="1192.5" y="963.3936">21</text><text fill="#000000" font-family="sans-serif" font-size="13" lengthAdjust="spacing" textLength="96" x="1210.5" y="963.3936">addParameter(p)</text><polygon fill="#A80036" points="60.5,1037.6016,50.5,1041.6016,60.5,1045.6016,56.5,1041.6016" style="stroke:#A80036;stroke-width:1.0;"/><line style="stroke:#A80036;stroke-width:1.0;stroke-dasharray:2.0,2.0;" x1="54.5" x2="389.5" y1="1041.6016" y2="1041.6016"/><text fill="#000000" font-family="sans-serif" font-size="13" font-weight="bold" lengthAdjust="spacing" textLength="14" x="66.5" y="1036.7451">22</text><text fill="#000000" font-family="sans-serif" font-size="13" lengthAdjust="spacing" textLength="152" x="84.5" y="1036.7451">informs operation success</text><!--MD5=[6e8e7e3b7ce00b5cdf4e0e612374396f]
@startuml
autonumber

actor "Administrator" as ADMIN

participant ":CreateNewParameterUI" as UI
participant ":CreateNewParameterController" as CTRL
participant ":Company" as COMP
participant "pStore: ParameterStore" as PS
participant ":Parameter" as P
participant "pcStore: Parameter\nCategoryStore" as PCS
participant "pcMapper: Parameter\nCategoryMapper" as PCM



ADMIN -> UI : Start a new parameter
activate UI
UI - -> ADMIN : ask data (shortName, code, description)
deactivate UI
ADMIN -> UI : insert requested data
activate UI
UI -> CTRL : lPCDto = getAllParameterCategories()
    activate CTRL
        CTRL -> COMP : pcStore = getParameterCategoryStore()
        activate COMP
        deactivate COMP
        CTRL -> PCS : lPC = getAllParameterCategories()
        activate PCS
        deactivate PCS
        CTRL -> PCM : lPCDto = toDTO(lPC)
        activate PCM
        deactivate PCM
    deactivate CTRL
UI - -> ADMIN : shows all categories and asks to select one of them
deactivate UI
ADMIN -> UI : selects one category
activate UI
    UI -> CTRL : CreateNewParameter(shortName, code, description, pcId)
    activate CTRL
        CTRL -> COMP : pStore = getParameterStore()
        activate COMP
        deactivate COMP
        CTRL -> PS : p = createParameter(shortName, code, description, pcId)
        activate PS
            PS -> PCS : pc = getParameterCategory(pcId)
            activate PCS
            deactivate PCS
            PS - -> P** : Parameter(shortName, code, description, category)
        deactivate PS
        CTRL -> PS : validateParameter(p)
        activate PS
        deactivate PS
    deactivate CTRL
    UI - -> ADMIN : presents data and asks for confirmation
deactivate UI
ADMIN -> UI : confirms data
activate UI
    UI -> CTRL : saveParameter()
    activate CTRL
        CTRL -> PS : saveParameter(p)
        activate PS
            PS -> PS : validateParameter(p)
            activate PS
            deactivate PS
            PS -> PS : addParameter(p)
            activate PS
            deactivate PS
        deactivate PS
    deactivate CTRL
    UI - -> ADMIN : informs operation success
deactivate UI

@enduml

PlantUML version 1.2021.5(Sun Apr 25 12:20:28 BST 2021)
(GPL source distribution)
Java Runtime: OpenJDK Runtime Environment
JVM: Dynamic Code Evolution 64-Bit Server VM
Default Encoding: Cp1252
Language: en
Country: US
--></g></svg>