<?xml version="1.0" encoding="UTF-8" standalone="no"?><svg xmlns="http://www.w3.org/2000/svg" xmlns:xlink="http://www.w3.org/1999/xlink" contentScriptType="application/ecmascript" contentStyleType="text/css" height="446px" preserveAspectRatio="none" style="width:606px;height:446px;" version="1.1" viewBox="0 0 606 446" width="606px" zoomAndPan="magnify"><defs><filter height="300%" id="f13oz19va8v4so" width="300%" x="-1" y="-1"><feGaussianBlur result="blurOut" stdDeviation="2.0"/><feColorMatrix in="blurOut" result="blurOut2" type="matrix" values="0 0 0 0 0 0 0 0 0 0 0 0 0 0 0 0 0 0 .4 0"/><feOffset dx="4.0" dy="4.0" in="blurOut2" result="blurOut3"/><feBlend in="SourceGraphic" in2="blurOut3" mode="normal"/></filter></defs><g><!--MD5=[f0a179241c729f9fd2709e70d15a6ae4]
class CreateNewParameterUI--><rect codeLine="3" fill="#FEFECE" filter="url(#f13oz19va8v4so)" height="48" id="CreateNewParameterUI" style="stroke:#A80036;stroke-width:1.5;" width="164" x="97.5" y="182"/><ellipse cx="112.5" cy="198" fill="#ADD1B2" rx="11" ry="11" style="stroke:#A80036;stroke-width:1.0;"/><path d="M114.5,194.5 Q114.7031,194 114.9375,193.75 Q115.1719,193.5 115.4375,193.5 Q115.9063,193.5 116.2031,193.7813 Q116.5,194.0625 116.5,194.7188 L116.5,196.2813 Q116.5,196.9375 116.2188,197.2188 Q115.9375,197.5 115.5,197.5 Q115.1094,197.5 114.8594,197.3281 Q114.6094,197.1563 114.5,196.7031 Q114.4531,196.3906 114.2813,196.2188 Q113.9688,195.8906 113.4063,195.7031 Q112.8438,195.5 112.2813,195.5 Q111.5781,195.5 110.9844,195.7813 Q110.4063,196.0625 109.9531,196.6875 Q109.5,197.3125 109.5,198.1719 L109.5,199.0938 Q109.5,200.125 110.3438,200.8125 Q111.1875,201.5 112.6875,201.5 Q113.5781,201.5 114.2031,201.2969 Q114.5625,201.1875 114.9688,200.8281 Q115.2344,200.625 115.375,200.5625 Q115.5156,200.5 115.6875,200.5 Q116.0156,200.5 116.25,200.7656 Q116.5,201.0156 116.5,201.375 Q116.5,201.7188 116.1563,202.125 Q115.6563,202.7188 114.8594,203.0469 Q113.8125,203.5 112.5313,203.5 Q111.0313,203.5 109.8281,202.9063 Q108.8594,202.4375 108.1719,201.4219 Q107.5,200.4063 107.5,199.2031 L107.5,198.1094 Q107.5,196.8594 108.0938,195.7656 Q108.7031,194.6719 109.75,194.0938 Q110.8125,193.5 112,193.5 Q112.7188,193.5 113.3438,193.75 Q113.9688,194 114.5,194.5 Z " fill="#000000"/><text fill="#000000" font-family="sans-serif" font-size="12" lengthAdjust="spacing" textLength="132" x="126.5" y="202.9102">CreateNewParameterUI</text><line style="stroke:#A80036;stroke-width:1.5;" x1="98.5" x2="260.5" y1="214" y2="214"/><line style="stroke:#A80036;stroke-width:1.5;" x1="98.5" x2="260.5" y1="222" y2="222"/><!--MD5=[722ead4bdf6f3569f0f476dbf8ee9a8d]
class CreateNewParameterController--><rect codeLine="6" fill="#FEFECE" filter="url(#f13oz19va8v4so)" height="75.6719" id="CreateNewParameterController" style="stroke:#A80036;stroke-width:1.5;" width="320" x="25.5" y="7"/><ellipse cx="94.25" cy="23" fill="#ADD1B2" rx="11" ry="11" style="stroke:#A80036;stroke-width:1.0;"/><path d="M96.25,19.5 Q96.4531,19 96.6875,18.75 Q96.9219,18.5 97.1875,18.5 Q97.6563,18.5 97.9531,18.7813 Q98.25,19.0625 98.25,19.7188 L98.25,21.2813 Q98.25,21.9375 97.9688,22.2188 Q97.6875,22.5 97.25,22.5 Q96.8594,22.5 96.6094,22.3281 Q96.3594,22.1563 96.25,21.7031 Q96.2031,21.3906 96.0313,21.2188 Q95.7188,20.8906 95.1563,20.7031 Q94.5938,20.5 94.0313,20.5 Q93.3281,20.5 92.7344,20.7813 Q92.1563,21.0625 91.7031,21.6875 Q91.25,22.3125 91.25,23.1719 L91.25,24.0938 Q91.25,25.125 92.0938,25.8125 Q92.9375,26.5 94.4375,26.5 Q95.3281,26.5 95.9531,26.2969 Q96.3125,26.1875 96.7188,25.8281 Q96.9844,25.625 97.125,25.5625 Q97.2656,25.5 97.4375,25.5 Q97.7656,25.5 98,25.7656 Q98.25,26.0156 98.25,26.375 Q98.25,26.7188 97.9063,27.125 Q97.4063,27.7188 96.6094,28.0469 Q95.5625,28.5 94.2813,28.5 Q92.7813,28.5 91.5781,27.9063 Q90.6094,27.4375 89.9219,26.4219 Q89.25,25.4063 89.25,24.2031 L89.25,23.1094 Q89.25,21.8594 89.8438,20.7656 Q90.4531,19.6719 91.5,19.0938 Q92.5625,18.5 93.75,18.5 Q94.4688,18.5 95.0938,18.75 Q95.7188,19 96.25,19.5 Z " fill="#000000"/><text fill="#000000" font-family="sans-serif" font-size="12" lengthAdjust="spacing" textLength="174" x="114.75" y="27.9102">CreateNewParameterController</text><line style="stroke:#A80036;stroke-width:1.5;" x1="26.5" x2="344.5" y1="39" y2="39"/><line style="stroke:#A80036;stroke-width:1.5;" x1="26.5" x2="344.5" y1="47" y2="47"/><text fill="#000000" font-family="sans-serif" font-size="11" lengthAdjust="spacing" textLength="308" x="31.5" y="62.4189">+CreateNewParameter(shortName, code, description, category)</text><text fill="#000000" font-family="sans-serif" font-size="11" lengthAdjust="spacing" textLength="87" x="31.5" y="76.2549">+saveParameter()</text><!--MD5=[02e4b9b7573f1156f41e60aa5b4e25a4]
class Company--><rect codeLine="11" fill="#FEFECE" filter="url(#f13oz19va8v4so)" height="75.6719" id="Company" style="stroke:#A80036;stroke-width:1.5;" width="116" x="383.5" y="7"/><ellipse cx="412.45" cy="23" fill="#ADD1B2" rx="11" ry="11" style="stroke:#A80036;stroke-width:1.0;"/><path d="M414.45,19.5 Q414.6531,19 414.8875,18.75 Q415.1219,18.5 415.3875,18.5 Q415.8563,18.5 416.1531,18.7813 Q416.45,19.0625 416.45,19.7188 L416.45,21.2813 Q416.45,21.9375 416.1688,22.2188 Q415.8875,22.5 415.45,22.5 Q415.0594,22.5 414.8094,22.3281 Q414.5594,22.1563 414.45,21.7031 Q414.4031,21.3906 414.2313,21.2188 Q413.9188,20.8906 413.3563,20.7031 Q412.7938,20.5 412.2313,20.5 Q411.5281,20.5 410.9344,20.7813 Q410.3563,21.0625 409.9031,21.6875 Q409.45,22.3125 409.45,23.1719 L409.45,24.0938 Q409.45,25.125 410.2938,25.8125 Q411.1375,26.5 412.6375,26.5 Q413.5281,26.5 414.1531,26.2969 Q414.5125,26.1875 414.9188,25.8281 Q415.1844,25.625 415.325,25.5625 Q415.4656,25.5 415.6375,25.5 Q415.9656,25.5 416.2,25.7656 Q416.45,26.0156 416.45,26.375 Q416.45,26.7188 416.1063,27.125 Q415.6063,27.7188 414.8094,28.0469 Q413.7625,28.5 412.4813,28.5 Q410.9813,28.5 409.7781,27.9063 Q408.8094,27.4375 408.1219,26.4219 Q407.45,25.4063 407.45,24.2031 L407.45,23.1094 Q407.45,21.8594 408.0438,20.7656 Q408.6531,19.6719 409.7,19.0938 Q410.7625,18.5 411.95,18.5 Q412.6688,18.5 413.2938,18.75 Q413.9188,19 414.45,19.5 Z " fill="#000000"/><text fill="#000000" font-family="sans-serif" font-size="12" lengthAdjust="spacing" textLength="53" x="429.55" y="27.9102">Company</text><line style="stroke:#A80036;stroke-width:1.5;" x1="384.5" x2="498.5" y1="39" y2="39"/><text fill="#000000" font-family="sans-serif" font-size="11" lengthAdjust="spacing" textLength="59" x="389.5" y="54.4189">-designation</text><line style="stroke:#A80036;stroke-width:1.5;" x1="384.5" x2="498.5" y1="60.8359" y2="60.8359"/><text fill="#000000" font-family="sans-serif" font-size="11" lengthAdjust="spacing" textLength="104" x="389.5" y="76.2549">+getParameterStore()</text><!--MD5=[1f6362a5c8f21d8d6a0fce68f3a92a4e]
class Parameter--><rect codeLine="16" fill="#FEFECE" filter="url(#f13oz19va8v4so)" height="103.3438" id="Parameter" style="stroke:#A80036;stroke-width:1.5;" width="265" x="312" y="329"/><ellipse cx="411.25" cy="345" fill="#ADD1B2" rx="11" ry="11" style="stroke:#A80036;stroke-width:1.0;"/><path d="M413.25,341.5 Q413.4531,341 413.6875,340.75 Q413.9219,340.5 414.1875,340.5 Q414.6563,340.5 414.9531,340.7813 Q415.25,341.0625 415.25,341.7188 L415.25,343.2813 Q415.25,343.9375 414.9688,344.2188 Q414.6875,344.5 414.25,344.5 Q413.8594,344.5 413.6094,344.3281 Q413.3594,344.1563 413.25,343.7031 Q413.2031,343.3906 413.0313,343.2188 Q412.7188,342.8906 412.1563,342.7031 Q411.5938,342.5 411.0313,342.5 Q410.3281,342.5 409.7344,342.7813 Q409.1563,343.0625 408.7031,343.6875 Q408.25,344.3125 408.25,345.1719 L408.25,346.0938 Q408.25,347.125 409.0938,347.8125 Q409.9375,348.5 411.4375,348.5 Q412.3281,348.5 412.9531,348.2969 Q413.3125,348.1875 413.7188,347.8281 Q413.9844,347.625 414.125,347.5625 Q414.2656,347.5 414.4375,347.5 Q414.7656,347.5 415,347.7656 Q415.25,348.0156 415.25,348.375 Q415.25,348.7188 414.9063,349.125 Q414.4063,349.7188 413.6094,350.0469 Q412.5625,350.5 411.2813,350.5 Q409.7813,350.5 408.5781,349.9063 Q407.6094,349.4375 406.9219,348.4219 Q406.25,347.4063 406.25,346.2031 L406.25,345.1094 Q406.25,343.8594 406.8438,342.7656 Q407.4531,341.6719 408.5,341.0938 Q409.5625,340.5 410.75,340.5 Q411.4688,340.5 412.0938,340.75 Q412.7188,341 413.25,341.5 Z " fill="#000000"/><text fill="#000000" font-family="sans-serif" font-size="12" lengthAdjust="spacing" textLength="58" x="431.75" y="349.9102">Parameter</text><line style="stroke:#A80036;stroke-width:1.5;" x1="313" x2="576" y1="361" y2="361"/><text fill="#000000" font-family="sans-serif" font-size="11" lengthAdjust="spacing" textLength="28" x="318" y="376.4189">-code</text><text fill="#000000" font-family="sans-serif" font-size="11" lengthAdjust="spacing" textLength="56" x="318" y="390.2549">-shortName</text><text fill="#000000" font-family="sans-serif" font-size="11" lengthAdjust="spacing" textLength="57" x="318" y="404.0908">-description</text><line style="stroke:#A80036;stroke-width:1.5;" x1="313" x2="576" y1="410.5078" y2="410.5078"/><text fill="#000000" font-family="sans-serif" font-size="11" lengthAdjust="spacing" textLength="253" x="318" y="425.9268">+Parameter(code, shortName, description, category)</text><!--MD5=[be7802b157a16874d39c59ca0e2b25be]
class ParameterStore--><rect codeLine="23" fill="#FEFECE" filter="url(#f13oz19va8v4so)" height="89.5078" id="ParameterStore" style="stroke:#A80036;stroke-width:1.5;" width="296" x="296.5" y="161"/><ellipse cx="396.75" cy="177" fill="#ADD1B2" rx="11" ry="11" style="stroke:#A80036;stroke-width:1.0;"/><path d="M398.75,173.5 Q398.9531,173 399.1875,172.75 Q399.4219,172.5 399.6875,172.5 Q400.1563,172.5 400.4531,172.7813 Q400.75,173.0625 400.75,173.7188 L400.75,175.2813 Q400.75,175.9375 400.4688,176.2188 Q400.1875,176.5 399.75,176.5 Q399.3594,176.5 399.1094,176.3281 Q398.8594,176.1563 398.75,175.7031 Q398.7031,175.3906 398.5313,175.2188 Q398.2188,174.8906 397.6563,174.7031 Q397.0938,174.5 396.5313,174.5 Q395.8281,174.5 395.2344,174.7813 Q394.6563,175.0625 394.2031,175.6875 Q393.75,176.3125 393.75,177.1719 L393.75,178.0938 Q393.75,179.125 394.5938,179.8125 Q395.4375,180.5 396.9375,180.5 Q397.8281,180.5 398.4531,180.2969 Q398.8125,180.1875 399.2188,179.8281 Q399.4844,179.625 399.625,179.5625 Q399.7656,179.5 399.9375,179.5 Q400.2656,179.5 400.5,179.7656 Q400.75,180.0156 400.75,180.375 Q400.75,180.7188 400.4063,181.125 Q399.9063,181.7188 399.1094,182.0469 Q398.0625,182.5 396.7813,182.5 Q395.2813,182.5 394.0781,181.9063 Q393.1094,181.4375 392.4219,180.4219 Q391.75,179.4063 391.75,178.2031 L391.75,177.1094 Q391.75,175.8594 392.3438,174.7656 Q392.9531,173.6719 394,173.0938 Q395.0625,172.5 396.25,172.5 Q396.9688,172.5 397.5938,172.75 Q398.2188,173 398.75,173.5 Z " fill="#000000"/><text fill="#000000" font-family="sans-serif" font-size="12" lengthAdjust="spacing" textLength="87" x="417.25" y="181.9102">ParameterStore</text><line style="stroke:#A80036;stroke-width:1.5;" x1="297.5" x2="591.5" y1="193" y2="193"/><line style="stroke:#A80036;stroke-width:1.5;" x1="297.5" x2="591.5" y1="201" y2="201"/><text fill="#000000" font-family="sans-serif" font-size="11" lengthAdjust="spacing" textLength="284" x="302.5" y="216.4189">+createParameter(code, shortName, description, category)</text><text fill="#000000" font-family="sans-serif" font-size="11" lengthAdjust="spacing" textLength="106" x="302.5" y="230.2549">+validateParameter(p)</text><text fill="#000000" font-family="sans-serif" font-size="11" lengthAdjust="spacing" textLength="93" x="302.5" y="244.0908">+saveParameter(p)</text><!--MD5=[36afb6bbd95a8ac778c4537c55a683d5]
class ParameterCategory--><rect codeLine="29" fill="#FEFECE" filter="url(#f13oz19va8v4so)" height="89.5078" id="ParameterCategory" style="stroke:#A80036;stroke-width:1.5;" width="175" x="7" y="335.5"/><ellipse cx="38.2" cy="351.5" fill="#ADD1B2" rx="11" ry="11" style="stroke:#A80036;stroke-width:1.0;"/><path d="M40.2,348 Q40.4031,347.5 40.6375,347.25 Q40.8719,347 41.1375,347 Q41.6063,347 41.9031,347.2813 Q42.2,347.5625 42.2,348.2188 L42.2,349.7813 Q42.2,350.4375 41.9188,350.7188 Q41.6375,351 41.2,351 Q40.8094,351 40.5594,350.8281 Q40.3094,350.6563 40.2,350.2031 Q40.1531,349.8906 39.9813,349.7188 Q39.6688,349.3906 39.1063,349.2031 Q38.5438,349 37.9813,349 Q37.2781,349 36.6844,349.2813 Q36.1063,349.5625 35.6531,350.1875 Q35.2,350.8125 35.2,351.6719 L35.2,352.5938 Q35.2,353.625 36.0438,354.3125 Q36.8875,355 38.3875,355 Q39.2781,355 39.9031,354.7969 Q40.2625,354.6875 40.6688,354.3281 Q40.9344,354.125 41.075,354.0625 Q41.2156,354 41.3875,354 Q41.7156,354 41.95,354.2656 Q42.2,354.5156 42.2,354.875 Q42.2,355.2188 41.8563,355.625 Q41.3563,356.2188 40.5594,356.5469 Q39.5125,357 38.2313,357 Q36.7313,357 35.5281,356.4063 Q34.5594,355.9375 33.8719,354.9219 Q33.2,353.9063 33.2,352.7031 L33.2,351.6094 Q33.2,350.3594 33.7938,349.2656 Q34.4031,348.1719 35.45,347.5938 Q36.5125,347 37.7,347 Q38.4188,347 39.0438,347.25 Q39.6688,347.5 40.2,348 Z " fill="#000000"/><text fill="#000000" font-family="sans-serif" font-size="12" lengthAdjust="spacing" textLength="107" x="55.8" y="356.4102">ParameterCategory</text><line style="stroke:#A80036;stroke-width:1.5;" x1="8" x2="181" y1="367.5" y2="367.5"/><text fill="#000000" font-family="sans-serif" font-size="11" lengthAdjust="spacing" textLength="28" x="13" y="382.9189">-code</text><text fill="#000000" font-family="sans-serif" font-size="11" lengthAdjust="spacing" textLength="30" x="13" y="396.7549">-name</text><line style="stroke:#A80036;stroke-width:1.5;" x1="8" x2="181" y1="403.1719" y2="403.1719"/><text fill="#000000" font-family="sans-serif" font-size="11" lengthAdjust="spacing" textLength="163" x="13" y="418.5908">+ParameterCategory(code, name)</text><!--MD5=[8585526ededff8f10c3f514b64645b26]
reverse link CreateNewParameterController to CreateNewParameterUI--><path codeLine="35" d="M183.9,88.38 C182.77,118.31 181.3,157.3 180.38,181.74 " fill="none" id="CreateNewParameterController-backto-CreateNewParameterUI" style="stroke:#A80036;stroke-width:1.0;stroke-dasharray:7.0,7.0;"/><polygon fill="#A80036" points="184.09,83.28,179.7578,92.1249,183.9039,88.2765,187.7522,92.4227,184.09,83.28" style="stroke:#A80036;stroke-width:1.0;"/><!--MD5=[91b3154af15e5a3c0a263ad5514e5cf0]
link CreateNewParameterController to Company--><path codeLine="36" d="M346,45 C356.69,45 367.37,45 378.06,45 " fill="none" id="CreateNewParameterController-to-Company" style="stroke:#A80036;stroke-width:1.0;stroke-dasharray:7.0,7.0;"/><polygon fill="#A80036" points="383.3,45,374.3,41,378.3,45,374.3,49,383.3,45" style="stroke:#A80036;stroke-width:1.0;"/><!--MD5=[daf3d7412afa2c7651483be0b6e971d1]
link Company to ParameterStore--><path codeLine="37" d="M442.2,83.28 C442.61,104.87 443.13,132.31 443.57,155.67 " fill="none" id="Company-to-ParameterStore" style="stroke:#A80036;stroke-width:1.0;"/><polygon fill="#A80036" points="443.67,160.9,447.4892,151.8218,443.57,155.901,439.4908,151.9818,443.67,160.9" style="stroke:#A80036;stroke-width:1.0;"/><text fill="#000000" font-family="sans-serif" font-size="13" lengthAdjust="spacing" textLength="28" x="443.5" y="127.4951">uses</text><text fill="#000000" font-family="sans-serif" font-size="13" lengthAdjust="spacing" textLength="7" x="434.7537" y="104.2052">1</text><text fill="#000000" font-family="sans-serif" font-size="13" lengthAdjust="spacing" textLength="7" x="435.9799" y="149.9995">1</text><!--MD5=[a0992dda039fed1bb57aff5aacace800]
link ParameterStore to Parameter--><path codeLine="38" d="M444.5,251.42 C444.5,273.42 444.5,300.2 444.5,323.58 " fill="none" id="ParameterStore-to-Parameter" style="stroke:#A80036;stroke-width:1.0;"/><polygon fill="#A80036" points="444.5,328.82,448.5,319.82,444.5,323.82,440.5,319.82,444.5,328.82" style="stroke:#A80036;stroke-width:1.0;"/><text fill="#000000" font-family="sans-serif" font-size="13" lengthAdjust="spacing" textLength="29" x="445.5" y="295.4951">store</text><text fill="#000000" font-family="sans-serif" font-size="13" lengthAdjust="spacing" textLength="7" x="437.0297" y="272.1501">1</text><text fill="#000000" font-family="sans-serif" font-size="13" lengthAdjust="spacing" textLength="5" x="439.1641" y="318.2961">*</text><!--MD5=[e8069d2a96a1a5a8bd3e1ea4f55ededb]
reverse link ParameterCategory to Parameter--><path codeLine="39" d="M187.46,380.5 C225.58,380.5 270.42,380.5 311.88,380.5 " fill="none" id="ParameterCategory-backto-Parameter" style="stroke:#A80036;stroke-width:1.0;"/><polygon fill="#A80036" points="182.37,380.5,191.37,384.5,187.37,380.5,191.37,376.5,182.37,380.5" style="stroke:#A80036;stroke-width:1.0;"/><text fill="#000000" font-family="sans-serif" font-size="13" lengthAdjust="spacing" textLength="93" x="200.5" y="373.9951">presented under</text><text fill="#000000" font-family="sans-serif" font-size="13" lengthAdjust="spacing" textLength="7" x="189.9366" y="377.3676">1</text><text fill="#000000" font-family="sans-serif" font-size="13" lengthAdjust="spacing" textLength="5" x="299.0684" y="377.5328">*</text><!--MD5=[ec5bf0c94c2f50aaa14822bd1b4d6545]
@startuml
skinparam classAttributeIconSize 0

class CreateNewParameterUI{
}

class CreateNewParameterController{
    +CreateNewParameter(shortName, code, description, category)
    +saveParameter()
}

class Company{
	-designation
	+getParameterStore()
}

class Parameter{
    -code
    -shortName
    -description
    +Parameter(code, shortName, description, category)
}

class ParameterStore{
    +createParameter(code, shortName, description, category)
    +validateParameter(p)
    +saveParameter(p)
}

class ParameterCategory{
    -code
    -name
    +ParameterCategory(code, name)
}

CreateNewParameterController <.down. CreateNewParameterUI
CreateNewParameterController .right.> Company
Company"1" - -> "1"ParameterStore : uses
ParameterStore"1" - -> "*"Parameter : store
Parameter"*" -left-> "1"ParameterCategory : presented under
@enduml

PlantUML version 1.2021.00(Sun Jan 10 10:25:05 GMT 2021)
(GPL source distribution)
Java Runtime: OpenJDK Runtime Environment
JVM: OpenJDK 64-Bit Server VM
Default Encoding: Cp1252
Language: en
Country: US
--></g></svg>