<?xml version="1.0" encoding="UTF-8" standalone="no"?><svg xmlns="http://www.w3.org/2000/svg" xmlns:xlink="http://www.w3.org/1999/xlink" contentScriptType="application/ecmascript" contentStyleType="text/css" height="733px" preserveAspectRatio="none" style="width:625px;height:733px;" version="1.1" viewBox="0 0 625 733" width="625px" zoomAndPan="magnify"><defs><filter height="300%" id="f19eiujgz22u4q" width="300%" x="-1" y="-1"><feGaussianBlur result="blurOut" stdDeviation="2.0"/><feColorMatrix in="blurOut" result="blurOut2" type="matrix" values="0 0 0 0 0 0 0 0 0 0 0 0 0 0 0 0 0 0 .4 0"/><feOffset dx="4.0" dy="4.0" in="blurOut2" result="blurOut3"/><feBlend in="SourceGraphic" in2="blurOut3" mode="normal"/></filter></defs><g><!--MD5=[f0a179241c729f9fd2709e70d15a6ae4]
class CreateNewParameterUI--><rect codeLine="3" fill="#FEFECE" filter="url(#f19eiujgz22u4q)" height="48" id="CreateNewParameterUI" style="stroke:#A80036;stroke-width:1.5;" width="164" x="28.5" y="151"/><ellipse cx="43.5" cy="167" fill="#ADD1B2" rx="11" ry="11" style="stroke:#A80036;stroke-width:1.0;"/><path d="M45.5,163.5 Q45.7031,163 45.9375,162.75 Q46.1719,162.5 46.4375,162.5 Q46.9063,162.5 47.2031,162.7813 Q47.5,163.0625 47.5,163.7188 L47.5,165.2813 Q47.5,165.9375 47.2188,166.2188 Q46.9375,166.5 46.5,166.5 Q46.1094,166.5 45.8594,166.3281 Q45.6094,166.1563 45.5,165.7031 Q45.4531,165.3906 45.2813,165.2188 Q44.9688,164.8906 44.4063,164.7031 Q43.8438,164.5 43.2813,164.5 Q42.5781,164.5 41.9844,164.7813 Q41.4063,165.0625 40.9531,165.6875 Q40.5,166.3125 40.5,167.1719 L40.5,168.0938 Q40.5,169.125 41.3438,169.8125 Q42.1875,170.5 43.6875,170.5 Q44.5781,170.5 45.2031,170.2969 Q45.5625,170.1875 45.9688,169.8281 Q46.2344,169.625 46.375,169.5625 Q46.5156,169.5 46.6875,169.5 Q47.0156,169.5 47.25,169.7656 Q47.5,170.0156 47.5,170.375 Q47.5,170.7188 47.1563,171.125 Q46.6563,171.7188 45.8594,172.0469 Q44.8125,172.5 43.5313,172.5 Q42.0313,172.5 40.8281,171.9063 Q39.8594,171.4375 39.1719,170.4219 Q38.5,169.4063 38.5,168.2031 L38.5,167.1094 Q38.5,165.8594 39.0938,164.7656 Q39.7031,163.6719 40.75,163.0938 Q41.8125,162.5 43,162.5 Q43.7188,162.5 44.3438,162.75 Q44.9688,163 45.5,163.5 Z " fill="#000000"/><text fill="#000000" font-family="sans-serif" font-size="12" lengthAdjust="spacing" textLength="132" x="57.5" y="171.9102">CreateNewParameterUI</text><line style="stroke:#A80036;stroke-width:1.5;" x1="29.5" x2="191.5" y1="183" y2="183"/><line style="stroke:#A80036;stroke-width:1.5;" x1="29.5" x2="191.5" y1="191" y2="191"/><!--MD5=[722ead4bdf6f3569f0f476dbf8ee9a8d]
class CreateNewParameterController--><rect codeLine="6" fill="#FEFECE" filter="url(#f19eiujgz22u4q)" height="89.5078" id="CreateNewParameterController" style="stroke:#A80036;stroke-width:1.5;" width="320" x="227.5" y="130"/><ellipse cx="296.25" cy="146" fill="#ADD1B2" rx="11" ry="11" style="stroke:#A80036;stroke-width:1.0;"/><path d="M298.25,142.5 Q298.4531,142 298.6875,141.75 Q298.9219,141.5 299.1875,141.5 Q299.6563,141.5 299.9531,141.7813 Q300.25,142.0625 300.25,142.7188 L300.25,144.2813 Q300.25,144.9375 299.9688,145.2188 Q299.6875,145.5 299.25,145.5 Q298.8594,145.5 298.6094,145.3281 Q298.3594,145.1563 298.25,144.7031 Q298.2031,144.3906 298.0313,144.2188 Q297.7188,143.8906 297.1563,143.7031 Q296.5938,143.5 296.0313,143.5 Q295.3281,143.5 294.7344,143.7813 Q294.1563,144.0625 293.7031,144.6875 Q293.25,145.3125 293.25,146.1719 L293.25,147.0938 Q293.25,148.125 294.0938,148.8125 Q294.9375,149.5 296.4375,149.5 Q297.3281,149.5 297.9531,149.2969 Q298.3125,149.1875 298.7188,148.8281 Q298.9844,148.625 299.125,148.5625 Q299.2656,148.5 299.4375,148.5 Q299.7656,148.5 300,148.7656 Q300.25,149.0156 300.25,149.375 Q300.25,149.7188 299.9063,150.125 Q299.4063,150.7188 298.6094,151.0469 Q297.5625,151.5 296.2813,151.5 Q294.7813,151.5 293.5781,150.9063 Q292.6094,150.4375 291.9219,149.4219 Q291.25,148.4063 291.25,147.2031 L291.25,146.1094 Q291.25,144.8594 291.8438,143.7656 Q292.4531,142.6719 293.5,142.0938 Q294.5625,141.5 295.75,141.5 Q296.4688,141.5 297.0938,141.75 Q297.7188,142 298.25,142.5 Z " fill="#000000"/><text fill="#000000" font-family="sans-serif" font-size="12" lengthAdjust="spacing" textLength="174" x="316.75" y="150.9102">CreateNewParameterController</text><line style="stroke:#A80036;stroke-width:1.5;" x1="228.5" x2="546.5" y1="162" y2="162"/><line style="stroke:#A80036;stroke-width:1.5;" x1="228.5" x2="546.5" y1="170" y2="170"/><text fill="#000000" font-family="sans-serif" font-size="11" lengthAdjust="spacing" textLength="308" x="233.5" y="185.4189">+CreateNewParameter(shortName, code, description, category)</text><text fill="#000000" font-family="sans-serif" font-size="11" lengthAdjust="spacing" textLength="142" x="233.5" y="199.2549">+getAllParameterCategories()</text><text fill="#000000" font-family="sans-serif" font-size="11" lengthAdjust="spacing" textLength="87" x="233.5" y="213.0908">+saveParameter()</text><!--MD5=[02e4b9b7573f1156f41e60aa5b4e25a4]
class Company--><rect codeLine="12" fill="#FEFECE" filter="url(#f19eiujgz22u4q)" height="89.5078" id="Company" style="stroke:#A80036;stroke-width:1.5;" width="160" x="307.5" y="281"/><ellipse cx="356.75" cy="297" fill="#ADD1B2" rx="11" ry="11" style="stroke:#A80036;stroke-width:1.0;"/><path d="M358.75,293.5 Q358.9531,293 359.1875,292.75 Q359.4219,292.5 359.6875,292.5 Q360.1563,292.5 360.4531,292.7813 Q360.75,293.0625 360.75,293.7188 L360.75,295.2813 Q360.75,295.9375 360.4688,296.2188 Q360.1875,296.5 359.75,296.5 Q359.3594,296.5 359.1094,296.3281 Q358.8594,296.1563 358.75,295.7031 Q358.7031,295.3906 358.5313,295.2188 Q358.2188,294.8906 357.6563,294.7031 Q357.0938,294.5 356.5313,294.5 Q355.8281,294.5 355.2344,294.7813 Q354.6563,295.0625 354.2031,295.6875 Q353.75,296.3125 353.75,297.1719 L353.75,298.0938 Q353.75,299.125 354.5938,299.8125 Q355.4375,300.5 356.9375,300.5 Q357.8281,300.5 358.4531,300.2969 Q358.8125,300.1875 359.2188,299.8281 Q359.4844,299.625 359.625,299.5625 Q359.7656,299.5 359.9375,299.5 Q360.2656,299.5 360.5,299.7656 Q360.75,300.0156 360.75,300.375 Q360.75,300.7188 360.4063,301.125 Q359.9063,301.7188 359.1094,302.0469 Q358.0625,302.5 356.7813,302.5 Q355.2813,302.5 354.0781,301.9063 Q353.1094,301.4375 352.4219,300.4219 Q351.75,299.4063 351.75,298.2031 L351.75,297.1094 Q351.75,295.8594 352.3438,294.7656 Q352.9531,293.6719 354,293.0938 Q355.0625,292.5 356.25,292.5 Q356.9688,292.5 357.5938,292.75 Q358.2188,293 358.75,293.5 Z " fill="#000000"/><text fill="#000000" font-family="sans-serif" font-size="12" lengthAdjust="spacing" textLength="53" x="377.25" y="301.9102">Company</text><line style="stroke:#A80036;stroke-width:1.5;" x1="308.5" x2="466.5" y1="313" y2="313"/><text fill="#000000" font-family="sans-serif" font-size="11" lengthAdjust="spacing" textLength="59" x="313.5" y="328.4189">-designation</text><line style="stroke:#A80036;stroke-width:1.5;" x1="308.5" x2="466.5" y1="334.8359" y2="334.8359"/><text fill="#000000" font-family="sans-serif" font-size="11" lengthAdjust="spacing" textLength="104" x="313.5" y="350.2549">+getParameterStore()</text><text fill="#000000" font-family="sans-serif" font-size="11" lengthAdjust="spacing" textLength="148" x="313.5" y="364.0908">+getParameterCategoryStore()</text><!--MD5=[1f6362a5c8f21d8d6a0fce68f3a92a4e]
class Parameter--><rect codeLine="18" fill="#FEFECE" filter="url(#f19eiujgz22u4q)" height="103.3438" id="Parameter" style="stroke:#A80036;stroke-width:1.5;" width="265" x="7" y="449"/><ellipse cx="106.25" cy="465" fill="#ADD1B2" rx="11" ry="11" style="stroke:#A80036;stroke-width:1.0;"/><path d="M108.25,461.5 Q108.4531,461 108.6875,460.75 Q108.9219,460.5 109.1875,460.5 Q109.6563,460.5 109.9531,460.7813 Q110.25,461.0625 110.25,461.7188 L110.25,463.2813 Q110.25,463.9375 109.9688,464.2188 Q109.6875,464.5 109.25,464.5 Q108.8594,464.5 108.6094,464.3281 Q108.3594,464.1563 108.25,463.7031 Q108.2031,463.3906 108.0313,463.2188 Q107.7188,462.8906 107.1563,462.7031 Q106.5938,462.5 106.0313,462.5 Q105.3281,462.5 104.7344,462.7813 Q104.1563,463.0625 103.7031,463.6875 Q103.25,464.3125 103.25,465.1719 L103.25,466.0938 Q103.25,467.125 104.0938,467.8125 Q104.9375,468.5 106.4375,468.5 Q107.3281,468.5 107.9531,468.2969 Q108.3125,468.1875 108.7188,467.8281 Q108.9844,467.625 109.125,467.5625 Q109.2656,467.5 109.4375,467.5 Q109.7656,467.5 110,467.7656 Q110.25,468.0156 110.25,468.375 Q110.25,468.7188 109.9063,469.125 Q109.4063,469.7188 108.6094,470.0469 Q107.5625,470.5 106.2813,470.5 Q104.7813,470.5 103.5781,469.9063 Q102.6094,469.4375 101.9219,468.4219 Q101.25,467.4063 101.25,466.2031 L101.25,465.1094 Q101.25,463.8594 101.8438,462.7656 Q102.4531,461.6719 103.5,461.0938 Q104.5625,460.5 105.75,460.5 Q106.4688,460.5 107.0938,460.75 Q107.7188,461 108.25,461.5 Z " fill="#000000"/><text fill="#000000" font-family="sans-serif" font-size="12" lengthAdjust="spacing" textLength="58" x="126.75" y="469.9102">Parameter</text><line style="stroke:#A80036;stroke-width:1.5;" x1="8" x2="271" y1="481" y2="481"/><text fill="#000000" font-family="sans-serif" font-size="11" lengthAdjust="spacing" textLength="28" x="13" y="496.4189">-code</text><text fill="#000000" font-family="sans-serif" font-size="11" lengthAdjust="spacing" textLength="56" x="13" y="510.2549">-shortName</text><text fill="#000000" font-family="sans-serif" font-size="11" lengthAdjust="spacing" textLength="57" x="13" y="524.0908">-description</text><line style="stroke:#A80036;stroke-width:1.5;" x1="8" x2="271" y1="530.5078" y2="530.5078"/><text fill="#000000" font-family="sans-serif" font-size="11" lengthAdjust="spacing" textLength="253" x="13" y="545.9268">+Parameter(code, shortName, description, category)</text><!--MD5=[be7802b157a16874d39c59ca0e2b25be]
class ParameterStore--><rect codeLine="25" fill="#FEFECE" filter="url(#f19eiujgz22u4q)" height="103.3438" id="ParameterStore" style="stroke:#A80036;stroke-width:1.5;" width="273" x="338" y="449"/><ellipse cx="426.75" cy="465" fill="#ADD1B2" rx="11" ry="11" style="stroke:#A80036;stroke-width:1.0;"/><path d="M428.75,461.5 Q428.9531,461 429.1875,460.75 Q429.4219,460.5 429.6875,460.5 Q430.1563,460.5 430.4531,460.7813 Q430.75,461.0625 430.75,461.7188 L430.75,463.2813 Q430.75,463.9375 430.4688,464.2188 Q430.1875,464.5 429.75,464.5 Q429.3594,464.5 429.1094,464.3281 Q428.8594,464.1563 428.75,463.7031 Q428.7031,463.3906 428.5313,463.2188 Q428.2188,462.8906 427.6563,462.7031 Q427.0938,462.5 426.5313,462.5 Q425.8281,462.5 425.2344,462.7813 Q424.6563,463.0625 424.2031,463.6875 Q423.75,464.3125 423.75,465.1719 L423.75,466.0938 Q423.75,467.125 424.5938,467.8125 Q425.4375,468.5 426.9375,468.5 Q427.8281,468.5 428.4531,468.2969 Q428.8125,468.1875 429.2188,467.8281 Q429.4844,467.625 429.625,467.5625 Q429.7656,467.5 429.9375,467.5 Q430.2656,467.5 430.5,467.7656 Q430.75,468.0156 430.75,468.375 Q430.75,468.7188 430.4063,469.125 Q429.9063,469.7188 429.1094,470.0469 Q428.0625,470.5 426.7813,470.5 Q425.2813,470.5 424.0781,469.9063 Q423.1094,469.4375 422.4219,468.4219 Q421.75,467.4063 421.75,466.2031 L421.75,465.1094 Q421.75,463.8594 422.3438,462.7656 Q422.9531,461.6719 424,461.0938 Q425.0625,460.5 426.25,460.5 Q426.9688,460.5 427.5938,460.75 Q428.2188,461 428.75,461.5 Z " fill="#000000"/><text fill="#000000" font-family="sans-serif" font-size="12" lengthAdjust="spacing" textLength="87" x="447.25" y="469.9102">ParameterStore</text><line style="stroke:#A80036;stroke-width:1.5;" x1="339" x2="610" y1="481" y2="481"/><line style="stroke:#A80036;stroke-width:1.5;" x1="339" x2="610" y1="489" y2="489"/><text fill="#000000" font-family="sans-serif" font-size="11" lengthAdjust="spacing" textLength="261" x="344" y="504.4189">+createParameter(code, shortName, description, pcId)</text><text fill="#000000" font-family="sans-serif" font-size="11" lengthAdjust="spacing" textLength="106" x="344" y="518.2549">+validateParameter(p)</text><text fill="#000000" font-family="sans-serif" font-size="11" lengthAdjust="spacing" textLength="93" x="344" y="532.0908">+saveParameter(p)</text><text fill="#000000" font-family="sans-serif" font-size="11" lengthAdjust="spacing" textLength="79" x="344" y="545.9268">-addParameter()</text><!--MD5=[fab6cba0d8a30102bb3e071a5ce00b91]
class ParameterCategoryMapper--><rect codeLine="32" fill="#FEFECE" filter="url(#f19eiujgz22u4q)" height="61.8359" id="ParameterCategoryMapper" style="stroke:#A80036;stroke-width:1.5;" width="180" x="297.5" y="7"/><ellipse cx="312.5" cy="23" fill="#ADD1B2" rx="11" ry="11" style="stroke:#A80036;stroke-width:1.0;"/><path d="M314.5,19.5 Q314.7031,19 314.9375,18.75 Q315.1719,18.5 315.4375,18.5 Q315.9063,18.5 316.2031,18.7813 Q316.5,19.0625 316.5,19.7188 L316.5,21.2813 Q316.5,21.9375 316.2188,22.2188 Q315.9375,22.5 315.5,22.5 Q315.1094,22.5 314.8594,22.3281 Q314.6094,22.1563 314.5,21.7031 Q314.4531,21.3906 314.2813,21.2188 Q313.9688,20.8906 313.4063,20.7031 Q312.8438,20.5 312.2813,20.5 Q311.5781,20.5 310.9844,20.7813 Q310.4063,21.0625 309.9531,21.6875 Q309.5,22.3125 309.5,23.1719 L309.5,24.0938 Q309.5,25.125 310.3438,25.8125 Q311.1875,26.5 312.6875,26.5 Q313.5781,26.5 314.2031,26.2969 Q314.5625,26.1875 314.9688,25.8281 Q315.2344,25.625 315.375,25.5625 Q315.5156,25.5 315.6875,25.5 Q316.0156,25.5 316.25,25.7656 Q316.5,26.0156 316.5,26.375 Q316.5,26.7188 316.1563,27.125 Q315.6563,27.7188 314.8594,28.0469 Q313.8125,28.5 312.5313,28.5 Q311.0313,28.5 309.8281,27.9063 Q308.8594,27.4375 308.1719,26.4219 Q307.5,25.4063 307.5,24.2031 L307.5,23.1094 Q307.5,21.8594 308.0938,20.7656 Q308.7031,19.6719 309.75,19.0938 Q310.8125,18.5 312,18.5 Q312.7188,18.5 313.3438,18.75 Q313.9688,19 314.5,19.5 Z " fill="#000000"/><text fill="#000000" font-family="sans-serif" font-size="12" lengthAdjust="spacing" textLength="148" x="326.5" y="27.9102">ParameterCategoryMapper</text><line style="stroke:#A80036;stroke-width:1.5;" x1="298.5" x2="476.5" y1="39" y2="39"/><line style="stroke:#A80036;stroke-width:1.5;" x1="298.5" x2="476.5" y1="47" y2="47"/><text fill="#000000" font-family="sans-serif" font-size="11" lengthAdjust="spacing" textLength="59" x="303.5" y="62.4189">+toDTO(lPC)</text><!--MD5=[d802db621b5b215a6f0466f93cefcb42]
class ParameterCategoryStore--><rect codeLine="36" fill="#FEFECE" filter="url(#f19eiujgz22u4q)" height="61.8359" id="ParameterCategoryStore" style="stroke:#A80036;stroke-width:1.5;" width="168" x="74.5" y="295"/><ellipse cx="89.5" cy="311" fill="#ADD1B2" rx="11" ry="11" style="stroke:#A80036;stroke-width:1.0;"/><path d="M91.5,307.5 Q91.7031,307 91.9375,306.75 Q92.1719,306.5 92.4375,306.5 Q92.9063,306.5 93.2031,306.7813 Q93.5,307.0625 93.5,307.7188 L93.5,309.2813 Q93.5,309.9375 93.2188,310.2188 Q92.9375,310.5 92.5,310.5 Q92.1094,310.5 91.8594,310.3281 Q91.6094,310.1563 91.5,309.7031 Q91.4531,309.3906 91.2813,309.2188 Q90.9688,308.8906 90.4063,308.7031 Q89.8438,308.5 89.2813,308.5 Q88.5781,308.5 87.9844,308.7813 Q87.4063,309.0625 86.9531,309.6875 Q86.5,310.3125 86.5,311.1719 L86.5,312.0938 Q86.5,313.125 87.3438,313.8125 Q88.1875,314.5 89.6875,314.5 Q90.5781,314.5 91.2031,314.2969 Q91.5625,314.1875 91.9688,313.8281 Q92.2344,313.625 92.375,313.5625 Q92.5156,313.5 92.6875,313.5 Q93.0156,313.5 93.25,313.7656 Q93.5,314.0156 93.5,314.375 Q93.5,314.7188 93.1563,315.125 Q92.6563,315.7188 91.8594,316.0469 Q90.8125,316.5 89.5313,316.5 Q88.0313,316.5 86.8281,315.9063 Q85.8594,315.4375 85.1719,314.4219 Q84.5,313.4063 84.5,312.2031 L84.5,311.1094 Q84.5,309.8594 85.0938,308.7656 Q85.7031,307.6719 86.75,307.0938 Q87.8125,306.5 89,306.5 Q89.7188,306.5 90.3438,306.75 Q90.9688,307 91.5,307.5 Z " fill="#000000"/><text fill="#000000" font-family="sans-serif" font-size="12" lengthAdjust="spacing" textLength="136" x="103.5" y="315.9102">ParameterCategoryStore</text><line style="stroke:#A80036;stroke-width:1.5;" x1="75.5" x2="241.5" y1="327" y2="327"/><line style="stroke:#A80036;stroke-width:1.5;" x1="75.5" x2="241.5" y1="335" y2="335"/><text fill="#000000" font-family="sans-serif" font-size="11" lengthAdjust="spacing" textLength="142" x="80.5" y="350.4189">+getAllParameterCategories()</text><!--MD5=[36afb6bbd95a8ac778c4537c55a683d5]
class ParameterCategory--><rect codeLine="40" fill="#FEFECE" filter="url(#f19eiujgz22u4q)" height="89.5078" id="ParameterCategory" style="stroke:#A80036;stroke-width:1.5;" width="175" x="52" y="630"/><ellipse cx="83.2" cy="646" fill="#ADD1B2" rx="11" ry="11" style="stroke:#A80036;stroke-width:1.0;"/><path d="M85.2,642.5 Q85.4031,642 85.6375,641.75 Q85.8719,641.5 86.1375,641.5 Q86.6063,641.5 86.9031,641.7813 Q87.2,642.0625 87.2,642.7188 L87.2,644.2813 Q87.2,644.9375 86.9188,645.2188 Q86.6375,645.5 86.2,645.5 Q85.8094,645.5 85.5594,645.3281 Q85.3094,645.1563 85.2,644.7031 Q85.1531,644.3906 84.9813,644.2188 Q84.6688,643.8906 84.1063,643.7031 Q83.5438,643.5 82.9813,643.5 Q82.2781,643.5 81.6844,643.7813 Q81.1063,644.0625 80.6531,644.6875 Q80.2,645.3125 80.2,646.1719 L80.2,647.0938 Q80.2,648.125 81.0438,648.8125 Q81.8875,649.5 83.3875,649.5 Q84.2781,649.5 84.9031,649.2969 Q85.2625,649.1875 85.6688,648.8281 Q85.9344,648.625 86.075,648.5625 Q86.2156,648.5 86.3875,648.5 Q86.7156,648.5 86.95,648.7656 Q87.2,649.0156 87.2,649.375 Q87.2,649.7188 86.8563,650.125 Q86.3563,650.7188 85.5594,651.0469 Q84.5125,651.5 83.2313,651.5 Q81.7313,651.5 80.5281,650.9063 Q79.5594,650.4375 78.8719,649.4219 Q78.2,648.4063 78.2,647.2031 L78.2,646.1094 Q78.2,644.8594 78.7938,643.7656 Q79.4031,642.6719 80.45,642.0938 Q81.5125,641.5 82.7,641.5 Q83.4188,641.5 84.0438,641.75 Q84.6688,642 85.2,642.5 Z " fill="#000000"/><text fill="#000000" font-family="sans-serif" font-size="12" lengthAdjust="spacing" textLength="107" x="100.8" y="650.9102">ParameterCategory</text><line style="stroke:#A80036;stroke-width:1.5;" x1="53" x2="226" y1="662" y2="662"/><text fill="#000000" font-family="sans-serif" font-size="11" lengthAdjust="spacing" textLength="28" x="58" y="677.4189">-code</text><text fill="#000000" font-family="sans-serif" font-size="11" lengthAdjust="spacing" textLength="30" x="58" y="691.2549">-name</text><line style="stroke:#A80036;stroke-width:1.5;" x1="53" x2="226" y1="697.6719" y2="697.6719"/><text fill="#000000" font-family="sans-serif" font-size="11" lengthAdjust="spacing" textLength="163" x="58" y="713.0908">+ParameterCategory(code, name)</text><!--MD5=[a36402049bc782b9e8fb71bf14cfcd21]
link CreateNewParameterUI to CreateNewParameterController--><path codeLine="46" d="M192.73,175 C202.56,175 212.39,175 222.21,175 " fill="none" id="CreateNewParameterUI-to-CreateNewParameterController" style="stroke:#A80036;stroke-width:1.0;stroke-dasharray:7.0,7.0;"/><polygon fill="#A80036" points="227.35,175,218.35,171,222.35,175,218.35,179,227.35,175" style="stroke:#A80036;stroke-width:1.0;"/><!--MD5=[91b3154af15e5a3c0a263ad5514e5cf0]
link CreateNewParameterController to Company--><path codeLine="47" d="M387.5,220.3 C387.5,237.64 387.5,257.6 387.5,275.41 " fill="none" id="CreateNewParameterController-to-Company" style="stroke:#A80036;stroke-width:1.0;stroke-dasharray:7.0,7.0;"/><polygon fill="#A80036" points="387.5,280.87,391.5,271.87,387.5,275.87,383.5,271.87,387.5,280.87" style="stroke:#A80036;stroke-width:1.0;"/><!--MD5=[daf3d7412afa2c7651483be0b6e971d1]
link Company to ParameterStore--><path codeLine="48" d="M409.9,371.42 C421.09,393.6 434.73,420.65 446.59,444.17 " fill="none" id="Company-to-ParameterStore" style="stroke:#A80036;stroke-width:1.0;"/><polygon fill="#A80036" points="448.94,448.82,448.4676,438.9825,446.6925,444.3536,441.3214,442.5785,448.94,448.82" style="stroke:#A80036;stroke-width:1.0;"/><text fill="#000000" font-family="sans-serif" font-size="13" lengthAdjust="spacing" textLength="28" x="434.5" y="415.4951">uses</text><text fill="#000000" font-family="sans-serif" font-size="13" lengthAdjust="spacing" textLength="7" x="405.4397" y="392.1501">1</text><text fill="#000000" font-family="sans-serif" font-size="13" lengthAdjust="spacing" textLength="7" x="438.0351" y="438.2961">1</text><!--MD5=[0df0d6dd34a6ee3457f3c058e2156167]
reverse link Parameter to ParameterStore--><path codeLine="49" d="M277.45,500.5 C297.43,500.5 317.98,500.5 337.94,500.5 " fill="none" id="Parameter-backto-ParameterStore" style="stroke:#A80036;stroke-width:1.0;"/><polygon fill="#A80036" points="272.38,500.5,281.38,504.5,277.38,500.5,281.38,496.5,272.38,500.5" style="stroke:#A80036;stroke-width:1.0;"/><text fill="#000000" font-family="sans-serif" font-size="13" lengthAdjust="spacing" textLength="29" x="290.5" y="493.9951">store</text><text fill="#000000" font-family="sans-serif" font-size="13" lengthAdjust="spacing" textLength="5" x="280.2067" y="497.5328">*</text><text fill="#000000" font-family="sans-serif" font-size="13" lengthAdjust="spacing" textLength="7" x="322.8428" y="497.5328">1</text><!--MD5=[6df8849671cb880f6936e94aa30db6f9]
link Parameter to ParameterCategory--><path codeLine="50" d="M139.5,552.32 C139.5,575.24 139.5,602.19 139.5,624.89 " fill="none" id="Parameter-to-ParameterCategory" style="stroke:#A80036;stroke-width:1.0;"/><polygon fill="#A80036" points="139.5,629.97,143.5,620.97,139.5,624.97,135.5,620.97,139.5,629.97" style="stroke:#A80036;stroke-width:1.0;"/><text fill="#000000" font-family="sans-serif" font-size="13" lengthAdjust="spacing" textLength="93" x="140.5" y="596.4951">presented under</text><text fill="#000000" font-family="sans-serif" font-size="13" lengthAdjust="spacing" textLength="5" x="134.1641" y="573.854">*</text><text fill="#000000" font-family="sans-serif" font-size="13" lengthAdjust="spacing" textLength="7" x="131.9422" y="619.0807">1</text><!--MD5=[89e29a661440ff60863fbdb763957420]
reverse link ParameterCategoryStore to Company--><path codeLine="51" d="M248.25,326 C267.69,326 288.14,326 307.19,326 " fill="none" id="ParameterCategoryStore-backto-Company" style="stroke:#A80036;stroke-width:1.0;"/><polygon fill="#A80036" points="242.8,326,251.8,330,247.8,326,251.8,322,242.8,326" style="stroke:#A80036;stroke-width:1.0;"/><text fill="#000000" font-family="sans-serif" font-size="13" lengthAdjust="spacing" textLength="28" x="261" y="319.4951">uses</text><text fill="#000000" font-family="sans-serif" font-size="13" lengthAdjust="spacing" textLength="7" x="250.6197" y="322.8056">1</text><text fill="#000000" font-family="sans-serif" font-size="13" lengthAdjust="spacing" textLength="7" x="292.4638" y="322.7965">1</text><!--MD5=[de74da35934b9dd5e606d13993791e9a]
link CreateNewParameterController to ParameterCategoryStore--><path codeLine="52" d="M319.72,220.1 C284.25,243.18 241.57,270.95 209.03,292.12 " fill="none" id="CreateNewParameterController-to-ParameterCategoryStore" style="stroke:#A80036;stroke-width:1.0;stroke-dasharray:7.0,7.0;"/><polygon fill="#A80036" points="204.71,294.93,214.4376,293.3894,208.9052,292.2096,210.085,286.6771,204.71,294.93" style="stroke:#A80036;stroke-width:1.0;"/><!--MD5=[3c64cc71839cc5d733b64843868763bb]
reverse link ParameterCategoryMapper to CreateNewParameterController--><path codeLine="53" d="M387.5,74.45 C387.5,91.45 387.5,111.98 387.5,129.97 " fill="none" id="ParameterCategoryMapper-backto-CreateNewParameterController" style="stroke:#A80036;stroke-width:1.0;stroke-dasharray:7.0,7.0;"/><polygon fill="#A80036" points="387.5,69.3,383.5,78.3,387.5,74.3,391.5,78.3,387.5,69.3" style="stroke:#A80036;stroke-width:1.0;"/><!--MD5=[f1c4db76b9f083f66560bc98851d50bf]
link CreateNewParameterController to ParameterStore--><path codeLine="54" d="M442.65,220.12 C459.74,237.13 476.45,258.03 485.5,281 C506.15,333.4 499.19,398.4 489.67,443.83 " fill="none" id="CreateNewParameterController-to-ParameterStore" style="stroke:#A80036;stroke-width:1.0;stroke-dasharray:7.0,7.0;"/><polygon fill="#A80036" points="488.56,449,494.3729,441.0495,489.6174,444.1131,486.5538,439.3576,488.56,449" style="stroke:#A80036;stroke-width:1.0;"/><!--MD5=[1295ad857bc30ab7bd377b9d8f36f8dc]
@startuml
skinparam classAttributeIconSize 0

class CreateNewParameterUI{
}

class CreateNewParameterController{
    +CreateNewParameter(shortName, code, description, category)
    +getAllParameterCategories()
    +saveParameter()
}

class Company{
	-designation
	+getParameterStore()
	+getParameterCategoryStore()
}

class Parameter{
    -code
    -shortName
    -description
    +Parameter(code, shortName, description, category)
}

class ParameterStore{
    +createParameter(code, shortName, description, pcId)
    +validateParameter(p)
    +saveParameter(p)
    -addParameter()
}

class ParameterCategoryMapper {
    +toDTO(lPC)
}

class ParameterCategoryStore {
    + getAllParameterCategories()
}

class ParameterCategory{
    -code
    -name
    +ParameterCategory(code, name)
}

CreateNewParameterController <.left. CreateNewParameterUI
CreateNewParameterController .right.> Company
Company"1" - -> "1"ParameterStore : uses
ParameterStore"1" -left-> "*"Parameter : store
Parameter"*" -down-> "1"ParameterCategory : presented under
Company"1" -left-> "1"ParameterCategoryStore : uses
CreateNewParameterController ..> ParameterCategoryStore
CreateNewParameterController .up.> ParameterCategoryMapper
CreateNewParameterController ..> ParameterStore
@enduml

PlantUML version 1.2021.5(Sun Apr 25 12:20:28 BST 2021)
(GPL source distribution)
Java Runtime: OpenJDK Runtime Environment
JVM: Dynamic Code Evolution 64-Bit Server VM
Default Encoding: Cp1252
Language: en
Country: US
--></g></svg>