<?xml version="1.0" encoding="UTF-8" standalone="no"?><svg xmlns="http://www.w3.org/2000/svg" xmlns:xlink="http://www.w3.org/1999/xlink" contentScriptType="application/ecmascript" contentStyleType="text/css" height="783px" preserveAspectRatio="none" style="width:1063px;height:783px;" version="1.1" viewBox="0 0 1063 783" width="1063px" zoomAndPan="magnify"><defs><filter height="300%" id="f6xynzmvswjwn" width="300%" x="-1" y="-1"><feGaussianBlur result="blurOut" stdDeviation="2.0"/><feColorMatrix in="blurOut" result="blurOut2" type="matrix" values="0 0 0 0 0 0 0 0 0 0 0 0 0 0 0 0 0 0 .4 0"/><feOffset dx="4.0" dy="4.0" in="blurOut2" result="blurOut3"/><feBlend in="SourceGraphic" in2="blurOut3" mode="normal"/></filter></defs><g><!--MD5=[9681dc6e01e10c6b4fe06895ae94f592]
cluster UI--><polygon fill="#FFFFFF" filter="url(#f6xynzmvswjwn)" points="376,33.5,396,33.5,403,57.1094,518,57.1094,518,133.5,376,133.5,376,33.5" style="stroke:#000000;stroke-width:1.5;"/><line style="stroke:#000000;stroke-width:1.5;" x1="376" x2="403" y1="57.1094" y2="57.1094"/><text fill="#000000" font-family="sans-serif" font-size="14" font-weight="bold" lengthAdjust="spacing" textLength="14" x="380" y="50.0332">UI</text><!--MD5=[1f2cfc53d9d308f53762fd0fcbaa4873]
cluster Controller--><polygon fill="#FFFFFF" filter="url(#f6xynzmvswjwn)" points="542,6,619,6,626,29.6094,726,29.6094,726,161,542,161,542,6" style="stroke:#000000;stroke-width:1.5;"/><line style="stroke:#000000;stroke-width:1.5;" x1="542" x2="626" y1="29.6094" y2="29.6094"/><text fill="#000000" font-family="sans-serif" font-size="14" font-weight="bold" lengthAdjust="spacing" textLength="71" x="546" y="22.5332">Controller</text><!--MD5=[121a8bf1197281ab89ed693fab589f94]
cluster Domain--><polygon fill="#FFFFFF" filter="url(#f6xynzmvswjwn)" points="16,194,74,194,81,217.6094,1046,217.6094,1046,776,16,776,16,194" style="stroke:#000000;stroke-width:1.5;"/><line style="stroke:#000000;stroke-width:1.5;" x1="16" x2="81" y1="217.6094" y2="217.6094"/><text fill="#000000" font-family="sans-serif" font-size="14" font-weight="bold" lengthAdjust="spacing" textLength="52" x="20" y="210.5332">Domain</text><!--MD5=[15636c1ca4a123c16a2a1a8e90aca7a9]
cluster Model--><polygon fill="#FFFFFF" filter="url(#f6xynzmvswjwn)" points="248,238,298,238,305,261.6094,1022,261.6094,1022,577,248,577,248,238" style="stroke:#000000;stroke-width:1.5;"/><line style="stroke:#000000;stroke-width:1.5;" x1="248" x2="305" y1="261.6094" y2="261.6094"/><text fill="#000000" font-family="sans-serif" font-size="14" font-weight="bold" lengthAdjust="spacing" textLength="44" x="252" y="254.5332">Model</text><!--MD5=[7ce1723ddb6e6233854253973eae5a71]
cluster Store--><polygon fill="#FFFFFF" filter="url(#f6xynzmvswjwn)" points="40,238,84,238,91,261.6094,224,261.6094,224,366,40,366,40,238" style="stroke:#000000;stroke-width:1.5;"/><line style="stroke:#000000;stroke-width:1.5;" x1="40" x2="91" y1="261.6094" y2="261.6094"/><text fill="#000000" font-family="sans-serif" font-size="14" font-weight="bold" lengthAdjust="spacing" textLength="38" x="44" y="254.5332">Store</text><!--MD5=[0d99d65ace22e45511a90a7e65fdb1f1]
cluster Shared--><polygon fill="#FFFFFF" filter="url(#f6xynzmvswjwn)" points="838,610,894,610,901,633.6094,1022,633.6094,1022,752,838,752,838,610" style="stroke:#000000;stroke-width:1.5;"/><line style="stroke:#000000;stroke-width:1.5;" x1="838" x2="901" y1="633.6094" y2="633.6094"/><text fill="#000000" font-family="sans-serif" font-size="14" font-weight="bold" lengthAdjust="spacing" textLength="50" x="842" y="626.5332">Shared</text><!--MD5=[701152d03fbf85133a1de050cfdbc7fd]
cluster Mappers--><polygon fill="#FFFFFF" filter="url(#f6xynzmvswjwn)" points="750,26.5,818,26.5,825,50.1094,910,50.1094,910,140.5,750,140.5,750,26.5" style="stroke:#000000;stroke-width:1.5;"/><line style="stroke:#000000;stroke-width:1.5;" x1="750" x2="825" y1="50.1094" y2="50.1094"/><text fill="#000000" font-family="sans-serif" font-size="14" font-weight="bold" lengthAdjust="spacing" textLength="62" x="754" y="43.0332">Mappers</text><!--MD5=[71fba8c2abd557a2f7006580273aba3e]
class WriteReportUI--><rect codeLine="3" fill="#FEFECE" filter="url(#f6xynzmvswjwn)" height="48" id="WriteReportUI" style="stroke:#A80036;stroke-width:1.5;" width="109" x="392.5" y="69.5"/><ellipse cx="407.5" cy="85.5" fill="#ADD1B2" rx="11" ry="11" style="stroke:#A80036;stroke-width:1.0;"/><path d="M409.5,82 Q409.7031,81.5 409.9375,81.25 Q410.1719,81 410.4375,81 Q410.9063,81 411.2031,81.2813 Q411.5,81.5625 411.5,82.2188 L411.5,83.7813 Q411.5,84.4375 411.2188,84.7188 Q410.9375,85 410.5,85 Q410.1094,85 409.8594,84.8281 Q409.6094,84.6563 409.5,84.2031 Q409.4531,83.8906 409.2813,83.7188 Q408.9688,83.3906 408.4063,83.2031 Q407.8438,83 407.2813,83 Q406.5781,83 405.9844,83.2813 Q405.4063,83.5625 404.9531,84.1875 Q404.5,84.8125 404.5,85.6719 L404.5,86.5938 Q404.5,87.625 405.3438,88.3125 Q406.1875,89 407.6875,89 Q408.5781,89 409.2031,88.7969 Q409.5625,88.6875 409.9688,88.3281 Q410.2344,88.125 410.375,88.0625 Q410.5156,88 410.6875,88 Q411.0156,88 411.25,88.2656 Q411.5,88.5156 411.5,88.875 Q411.5,89.2188 411.1563,89.625 Q410.6563,90.2188 409.8594,90.5469 Q408.8125,91 407.5313,91 Q406.0313,91 404.8281,90.4063 Q403.8594,89.9375 403.1719,88.9219 Q402.5,87.9063 402.5,86.7031 L402.5,85.6094 Q402.5,84.3594 403.0938,83.2656 Q403.7031,82.1719 404.75,81.5938 Q405.8125,81 407,81 Q407.7188,81 408.3438,81.25 Q408.9688,81.5 409.5,82 Z " fill="#000000"/><text fill="#000000" font-family="sans-serif" font-size="12" lengthAdjust="spacing" textLength="77" x="421.5" y="90.4102">WriteReportUI</text><line style="stroke:#A80036;stroke-width:1.5;" x1="393.5" x2="500.5" y1="101.5" y2="101.5"/><line style="stroke:#A80036;stroke-width:1.5;" x1="393.5" x2="500.5" y1="109.5" y2="109.5"/><!--MD5=[d7b8916e3117ca4a3ffdab4f31ea783a]
class WriteReportController--><rect codeLine="8" fill="#FEFECE" filter="url(#f6xynzmvswjwn)" height="103.3438" id="WriteReportController" style="stroke:#A80036;stroke-width:1.5;" width="151" x="558.5" y="42"/><ellipse cx="573.5" cy="58" fill="#ADD1B2" rx="11" ry="11" style="stroke:#A80036;stroke-width:1.0;"/><path d="M575.5,54.5 Q575.7031,54 575.9375,53.75 Q576.1719,53.5 576.4375,53.5 Q576.9063,53.5 577.2031,53.7813 Q577.5,54.0625 577.5,54.7188 L577.5,56.2813 Q577.5,56.9375 577.2188,57.2188 Q576.9375,57.5 576.5,57.5 Q576.1094,57.5 575.8594,57.3281 Q575.6094,57.1563 575.5,56.7031 Q575.4531,56.3906 575.2813,56.2188 Q574.9688,55.8906 574.4063,55.7031 Q573.8438,55.5 573.2813,55.5 Q572.5781,55.5 571.9844,55.7813 Q571.4063,56.0625 570.9531,56.6875 Q570.5,57.3125 570.5,58.1719 L570.5,59.0938 Q570.5,60.125 571.3438,60.8125 Q572.1875,61.5 573.6875,61.5 Q574.5781,61.5 575.2031,61.2969 Q575.5625,61.1875 575.9688,60.8281 Q576.2344,60.625 576.375,60.5625 Q576.5156,60.5 576.6875,60.5 Q577.0156,60.5 577.25,60.7656 Q577.5,61.0156 577.5,61.375 Q577.5,61.7188 577.1563,62.125 Q576.6563,62.7188 575.8594,63.0469 Q574.8125,63.5 573.5313,63.5 Q572.0313,63.5 570.8281,62.9063 Q569.8594,62.4375 569.1719,61.4219 Q568.5,60.4063 568.5,59.2031 L568.5,58.1094 Q568.5,56.8594 569.0938,55.7656 Q569.7031,54.6719 570.75,54.0938 Q571.8125,53.5 573,53.5 Q573.7188,53.5 574.3438,53.75 Q574.9688,54 575.5,54.5 Z " fill="#000000"/><text fill="#000000" font-family="sans-serif" font-size="12" lengthAdjust="spacing" textLength="119" x="587.5" y="62.9102">WriteReportController</text><line style="stroke:#A80036;stroke-width:1.5;" x1="559.5" x2="708.5" y1="74" y2="74"/><line style="stroke:#A80036;stroke-width:1.5;" x1="559.5" x2="708.5" y1="82" y2="82"/><ellipse cx="569.5" cy="93" fill="#84BE84" rx="3" ry="3" style="stroke:#038048;stroke-width:1.0;"/><text fill="#000000" font-family="sans-serif" font-size="11" lengthAdjust="spacing" textLength="112" x="578.5" y="97.4189">getTestWithoutReport()</text><ellipse cx="569.5" cy="106.8359" fill="#84BE84" rx="3" ry="3" style="stroke:#038048;stroke-width:1.0;"/><text fill="#000000" font-family="sans-serif" font-size="11" lengthAdjust="spacing" textLength="123" x="578.5" y="111.2549">getTestResults(testCode)</text><ellipse cx="569.5" cy="120.6719" fill="#84BE84" rx="3" ry="3" style="stroke:#038048;stroke-width:1.0;"/><text fill="#000000" font-family="sans-serif" font-size="11" lengthAdjust="spacing" textLength="80" x="578.5" y="125.0908">newReport(text)</text><ellipse cx="569.5" cy="134.5078" fill="#84BE84" rx="3" ry="3" style="stroke:#038048;stroke-width:1.0;"/><text fill="#000000" font-family="sans-serif" font-size="11" lengthAdjust="spacing" textLength="64" x="578.5" y="138.9268">saveReport()</text><!--MD5=[02e4b9b7573f1156f41e60aa5b4e25a4]
class Company--><rect codeLine="18" fill="#FEFECE" filter="url(#f6xynzmvswjwn)" height="75.6719" id="Company" style="stroke:#A80036;stroke-width:1.5;" width="96" x="535" y="274"/><ellipse cx="554.95" cy="290" fill="#ADD1B2" rx="11" ry="11" style="stroke:#A80036;stroke-width:1.0;"/><path d="M556.95,286.5 Q557.1531,286 557.3875,285.75 Q557.6219,285.5 557.8875,285.5 Q558.3563,285.5 558.6531,285.7813 Q558.95,286.0625 558.95,286.7188 L558.95,288.2813 Q558.95,288.9375 558.6688,289.2188 Q558.3875,289.5 557.95,289.5 Q557.5594,289.5 557.3094,289.3281 Q557.0594,289.1563 556.95,288.7031 Q556.9031,288.3906 556.7313,288.2188 Q556.4188,287.8906 555.8563,287.7031 Q555.2938,287.5 554.7313,287.5 Q554.0281,287.5 553.4344,287.7813 Q552.8563,288.0625 552.4031,288.6875 Q551.95,289.3125 551.95,290.1719 L551.95,291.0938 Q551.95,292.125 552.7938,292.8125 Q553.6375,293.5 555.1375,293.5 Q556.0281,293.5 556.6531,293.2969 Q557.0125,293.1875 557.4188,292.8281 Q557.6844,292.625 557.825,292.5625 Q557.9656,292.5 558.1375,292.5 Q558.4656,292.5 558.7,292.7656 Q558.95,293.0156 558.95,293.375 Q558.95,293.7188 558.6063,294.125 Q558.1063,294.7188 557.3094,295.0469 Q556.2625,295.5 554.9813,295.5 Q553.4813,295.5 552.2781,294.9063 Q551.3094,294.4375 550.6219,293.4219 Q549.95,292.4063 549.95,291.2031 L549.95,290.1094 Q549.95,288.8594 550.5438,287.7656 Q551.1531,286.6719 552.2,286.0938 Q553.2625,285.5 554.45,285.5 Q555.1688,285.5 555.7938,285.75 Q556.4188,286 556.95,286.5 Z " fill="#000000"/><text fill="#000000" font-family="sans-serif" font-size="12" lengthAdjust="spacing" textLength="53" x="570.05" y="294.9102">Company</text><line style="stroke:#A80036;stroke-width:1.5;" x1="536" x2="630" y1="306" y2="306"/><rect fill="none" height="6" style="stroke:#C82930;stroke-width:1.0;" width="6" x="543" y="314"/><text fill="#000000" font-family="sans-serif" font-size="11" lengthAdjust="spacing" textLength="53" x="555" y="321.4189">description</text><line style="stroke:#A80036;stroke-width:1.5;" x1="536" x2="630" y1="327.8359" y2="327.8359"/><ellipse cx="546" cy="338.8359" fill="#84BE84" rx="3" ry="3" style="stroke:#038048;stroke-width:1.0;"/><text fill="#000000" font-family="sans-serif" font-size="11" lengthAdjust="spacing" textLength="70" x="555" y="343.2549">getTestStore()</text><!--MD5=[df38be88ccee13e832d6fafd6288a4ca]
class Test--><rect codeLine="22" fill="#FEFECE" filter="url(#f6xynzmvswjwn)" height="131.0156" id="Test" style="stroke:#A80036;stroke-width:1.5;" width="164" x="602" y="430"/><ellipse cx="667.75" cy="446" fill="#ADD1B2" rx="11" ry="11" style="stroke:#A80036;stroke-width:1.0;"/><path d="M669.75,442.5 Q669.9531,442 670.1875,441.75 Q670.4219,441.5 670.6875,441.5 Q671.1563,441.5 671.4531,441.7813 Q671.75,442.0625 671.75,442.7188 L671.75,444.2813 Q671.75,444.9375 671.4688,445.2188 Q671.1875,445.5 670.75,445.5 Q670.3594,445.5 670.1094,445.3281 Q669.8594,445.1563 669.75,444.7031 Q669.7031,444.3906 669.5313,444.2188 Q669.2188,443.8906 668.6563,443.7031 Q668.0938,443.5 667.5313,443.5 Q666.8281,443.5 666.2344,443.7813 Q665.6563,444.0625 665.2031,444.6875 Q664.75,445.3125 664.75,446.1719 L664.75,447.0938 Q664.75,448.125 665.5938,448.8125 Q666.4375,449.5 667.9375,449.5 Q668.8281,449.5 669.4531,449.2969 Q669.8125,449.1875 670.2188,448.8281 Q670.4844,448.625 670.625,448.5625 Q670.7656,448.5 670.9375,448.5 Q671.2656,448.5 671.5,448.7656 Q671.75,449.0156 671.75,449.375 Q671.75,449.7188 671.4063,450.125 Q670.9063,450.7188 670.1094,451.0469 Q669.0625,451.5 667.7813,451.5 Q666.2813,451.5 665.0781,450.9063 Q664.1094,450.4375 663.4219,449.4219 Q662.75,448.4063 662.75,447.2031 L662.75,446.1094 Q662.75,444.8594 663.3438,443.7656 Q663.9531,442.6719 665,442.0938 Q666.0625,441.5 667.25,441.5 Q667.9688,441.5 668.5938,441.75 Q669.2188,442 669.75,442.5 Z " fill="#000000"/><text fill="#000000" font-family="sans-serif" font-size="12" lengthAdjust="spacing" textLength="24" x="688.25" y="450.9102">Test</text><line style="stroke:#A80036;stroke-width:1.5;" x1="603" x2="765" y1="462" y2="462"/><rect fill="none" height="6" style="stroke:#C82930;stroke-width:1.0;" width="6" x="610" y="470"/><text fill="#000000" font-family="sans-serif" font-size="11" lengthAdjust="spacing" textLength="48" x="622" y="477.4189">createdAt</text><rect fill="none" height="6" style="stroke:#C82930;stroke-width:1.0;" width="6" x="610" y="483.8359"/><text fill="#000000" font-family="sans-serif" font-size="11" lengthAdjust="spacing" textLength="60" x="622" y="491.2549">internalCode</text><rect fill="none" height="6" style="stroke:#C82930;stroke-width:1.0;" width="6" x="610" y="497.6719"/><text fill="#000000" font-family="sans-serif" font-size="11" lengthAdjust="spacing" textLength="43" x="622" y="505.0908">nhsCode</text><line style="stroke:#A80036;stroke-width:1.5;" x1="603" x2="765" y1="511.5078" y2="511.5078"/><ellipse cx="613" cy="522.5078" fill="#84BE84" rx="3" ry="3" style="stroke:#038048;stroke-width:1.0;"/><text fill="#000000" font-family="sans-serif" font-size="11" lengthAdjust="spacing" textLength="80" x="622" y="526.9268">getTestResults()</text><ellipse cx="613" cy="536.3438" fill="#84BE84" rx="3" ry="3" style="stroke:#038048;stroke-width:1.0;"/><text fill="#000000" font-family="sans-serif" font-size="11" lengthAdjust="spacing" textLength="87" x="622" y="540.7627">addReport(report)</text><rect fill="#F24D5C" height="6" style="stroke:#C82930;stroke-width:1.0;" width="6" x="610" y="547.1797"/><text fill="#000000" font-family="sans-serif" font-size="11" lengthAdjust="spacing" textLength="138" x="622" y="554.5986">changeStateToReportDone()</text><!--MD5=[4e608140b854dae633589343bce77383]
class TestParameterResult--><rect codeLine="31" fill="#FEFECE" filter="url(#f6xynzmvswjwn)" height="103.3438" id="TestParameterResult" style="stroke:#A80036;stroke-width:1.5;" width="150" x="264" y="444"/><ellipse cx="279" cy="460" fill="#ADD1B2" rx="11" ry="11" style="stroke:#A80036;stroke-width:1.0;"/><path d="M281,456.5 Q281.2031,456 281.4375,455.75 Q281.6719,455.5 281.9375,455.5 Q282.4063,455.5 282.7031,455.7813 Q283,456.0625 283,456.7188 L283,458.2813 Q283,458.9375 282.7188,459.2188 Q282.4375,459.5 282,459.5 Q281.6094,459.5 281.3594,459.3281 Q281.1094,459.1563 281,458.7031 Q280.9531,458.3906 280.7813,458.2188 Q280.4688,457.8906 279.9063,457.7031 Q279.3438,457.5 278.7813,457.5 Q278.0781,457.5 277.4844,457.7813 Q276.9063,458.0625 276.4531,458.6875 Q276,459.3125 276,460.1719 L276,461.0938 Q276,462.125 276.8438,462.8125 Q277.6875,463.5 279.1875,463.5 Q280.0781,463.5 280.7031,463.2969 Q281.0625,463.1875 281.4688,462.8281 Q281.7344,462.625 281.875,462.5625 Q282.0156,462.5 282.1875,462.5 Q282.5156,462.5 282.75,462.7656 Q283,463.0156 283,463.375 Q283,463.7188 282.6563,464.125 Q282.1563,464.7188 281.3594,465.0469 Q280.3125,465.5 279.0313,465.5 Q277.5313,465.5 276.3281,464.9063 Q275.3594,464.4375 274.6719,463.4219 Q274,462.4063 274,461.2031 L274,460.1094 Q274,458.8594 274.5938,457.7656 Q275.2031,456.6719 276.25,456.0938 Q277.3125,455.5 278.5,455.5 Q279.2188,455.5 279.8438,455.75 Q280.4688,456 281,456.5 Z " fill="#000000"/><text fill="#000000" font-family="sans-serif" font-size="12" lengthAdjust="spacing" textLength="118" x="293" y="464.9102">TestParameterResult</text><line style="stroke:#A80036;stroke-width:1.5;" x1="265" x2="413" y1="476" y2="476"/><rect fill="none" height="6" style="stroke:#C82930;stroke-width:1.0;" width="6" x="272" y="484"/><text fill="#000000" font-family="sans-serif" font-size="11" lengthAdjust="spacing" textLength="48" x="284" y="491.4189">createdAt</text><rect fill="none" height="6" style="stroke:#C82930;stroke-width:1.0;" width="6" x="272" y="497.8359"/><text fill="#000000" font-family="sans-serif" font-size="11" lengthAdjust="spacing" textLength="26" x="284" y="505.2549">value</text><rect fill="none" height="6" style="stroke:#C82930;stroke-width:1.0;" width="6" x="272" y="511.6719"/><text fill="#000000" font-family="sans-serif" font-size="11" lengthAdjust="spacing" textLength="29" x="284" y="519.0908">metric</text><line style="stroke:#A80036;stroke-width:1.5;" x1="265" x2="413" y1="525.5078" y2="525.5078"/><ellipse cx="275" cy="536.5078" fill="#84BE84" rx="3" ry="3" style="stroke:#038048;stroke-width:1.0;"/><text fill="#000000" font-family="sans-serif" font-size="11" lengthAdjust="spacing" textLength="45" x="284" y="540.9268">toString()</text><!--MD5=[f00dbe8c0302c6aec2cb26b3c659c8fc]
class Report--><rect codeLine="38" fill="#FEFECE" filter="url(#f6xynzmvswjwn)" height="89.5078" id="Report" style="stroke:#A80036;stroke-width:1.5;" width="147" x="858.5" y="450.5"/><ellipse cx="909.25" cy="466.5" fill="#ADD1B2" rx="11" ry="11" style="stroke:#A80036;stroke-width:1.0;"/><path d="M911.25,463 Q911.4531,462.5 911.6875,462.25 Q911.9219,462 912.1875,462 Q912.6563,462 912.9531,462.2813 Q913.25,462.5625 913.25,463.2188 L913.25,464.7813 Q913.25,465.4375 912.9688,465.7188 Q912.6875,466 912.25,466 Q911.8594,466 911.6094,465.8281 Q911.3594,465.6563 911.25,465.2031 Q911.2031,464.8906 911.0313,464.7188 Q910.7188,464.3906 910.1563,464.2031 Q909.5938,464 909.0313,464 Q908.3281,464 907.7344,464.2813 Q907.1563,464.5625 906.7031,465.1875 Q906.25,465.8125 906.25,466.6719 L906.25,467.5938 Q906.25,468.625 907.0938,469.3125 Q907.9375,470 909.4375,470 Q910.3281,470 910.9531,469.7969 Q911.3125,469.6875 911.7188,469.3281 Q911.9844,469.125 912.125,469.0625 Q912.2656,469 912.4375,469 Q912.7656,469 913,469.2656 Q913.25,469.5156 913.25,469.875 Q913.25,470.2188 912.9063,470.625 Q912.4063,471.2188 911.6094,471.5469 Q910.5625,472 909.2813,472 Q907.7813,472 906.5781,471.4063 Q905.6094,470.9375 904.9219,469.9219 Q904.25,468.9063 904.25,467.7031 L904.25,466.6094 Q904.25,465.3594 904.8438,464.2656 Q905.4531,463.1719 906.5,462.5938 Q907.5625,462 908.75,462 Q909.4688,462 910.0938,462.25 Q910.7188,462.5 911.25,463 Z " fill="#000000"/><text fill="#000000" font-family="sans-serif" font-size="12" lengthAdjust="spacing" textLength="37" x="929.75" y="471.4102">Report</text><line style="stroke:#A80036;stroke-width:1.5;" x1="859.5" x2="1004.5" y1="482.5" y2="482.5"/><rect fill="none" height="6" style="stroke:#C82930;stroke-width:1.0;" width="6" x="866.5" y="490.5"/><text fill="#000000" font-family="sans-serif" font-size="11" lengthAdjust="spacing" textLength="48" x="878.5" y="497.9189">createdAt</text><rect fill="none" height="6" style="stroke:#C82930;stroke-width:1.0;" width="6" x="866.5" y="504.3359"/><text fill="#000000" font-family="sans-serif" font-size="11" lengthAdjust="spacing" textLength="50" x="878.5" y="511.7549">reportText</text><line style="stroke:#A80036;stroke-width:1.5;" x1="859.5" x2="1004.5" y1="518.1719" y2="518.1719"/><ellipse cx="869.5" cy="529.1719" fill="#84BE84" rx="3" ry="3" style="stroke:#038048;stroke-width:1.0;"/><text fill="#000000" font-family="sans-serif" font-size="11" lengthAdjust="spacing" textLength="121" x="878.5" y="533.5908">registerReportDateTime()</text><!--MD5=[0f6f7964b844a64b0496af0dda7914bd]
class TestStore--><rect codeLine="45" fill="#FEFECE" filter="url(#f6xynzmvswjwn)" height="75.6719" id="TestStore" style="stroke:#A80036;stroke-width:1.5;" width="151" x="56.5" y="274"/><ellipse cx="101.25" cy="290" fill="#ADD1B2" rx="11" ry="11" style="stroke:#A80036;stroke-width:1.0;"/><path d="M103.25,286.5 Q103.4531,286 103.6875,285.75 Q103.9219,285.5 104.1875,285.5 Q104.6563,285.5 104.9531,285.7813 Q105.25,286.0625 105.25,286.7188 L105.25,288.2813 Q105.25,288.9375 104.9688,289.2188 Q104.6875,289.5 104.25,289.5 Q103.8594,289.5 103.6094,289.3281 Q103.3594,289.1563 103.25,288.7031 Q103.2031,288.3906 103.0313,288.2188 Q102.7188,287.8906 102.1563,287.7031 Q101.5938,287.5 101.0313,287.5 Q100.3281,287.5 99.7344,287.7813 Q99.1563,288.0625 98.7031,288.6875 Q98.25,289.3125 98.25,290.1719 L98.25,291.0938 Q98.25,292.125 99.0938,292.8125 Q99.9375,293.5 101.4375,293.5 Q102.3281,293.5 102.9531,293.2969 Q103.3125,293.1875 103.7188,292.8281 Q103.9844,292.625 104.125,292.5625 Q104.2656,292.5 104.4375,292.5 Q104.7656,292.5 105,292.7656 Q105.25,293.0156 105.25,293.375 Q105.25,293.7188 104.9063,294.125 Q104.4063,294.7188 103.6094,295.0469 Q102.5625,295.5 101.2813,295.5 Q99.7813,295.5 98.5781,294.9063 Q97.6094,294.4375 96.9219,293.4219 Q96.25,292.4063 96.25,291.2031 L96.25,290.1094 Q96.25,288.8594 96.8438,287.7656 Q97.4531,286.6719 98.5,286.0938 Q99.5625,285.5 100.75,285.5 Q101.4688,285.5 102.0938,285.75 Q102.7188,286 103.25,286.5 Z " fill="#000000"/><text fill="#000000" font-family="sans-serif" font-size="12" lengthAdjust="spacing" textLength="53" x="121.75" y="294.9102">TestStore</text><line style="stroke:#A80036;stroke-width:1.5;" x1="57.5" x2="206.5" y1="306" y2="306"/><line style="stroke:#A80036;stroke-width:1.5;" x1="57.5" x2="206.5" y1="314" y2="314"/><ellipse cx="67.5" cy="325" fill="#84BE84" rx="3" ry="3" style="stroke:#038048;stroke-width:1.0;"/><text fill="#000000" font-family="sans-serif" font-size="11" lengthAdjust="spacing" textLength="112" x="76.5" y="329.4189">getTestWithoutReport()</text><ellipse cx="67.5" cy="338.8359" fill="#84BE84" rx="3" ry="3" style="stroke:#038048;stroke-width:1.0;"/><text fill="#000000" font-family="sans-serif" font-size="11" lengthAdjust="spacing" textLength="125" x="76.5" y="343.2549">getTestByCode(testCode)</text><!--MD5=[20ddef7090025b04fb973268620c0974]
class DateTime--><rect codeLine="52" fill="#FEFECE" filter="url(#f6xynzmvswjwn)" height="89.5078" id="DateTime" style="stroke:#A80036;stroke-width:1.5;" width="151" x="854.5" y="646"/><ellipse cx="898.75" cy="662" fill="#ADD1B2" rx="11" ry="11" style="stroke:#A80036;stroke-width:1.0;"/><path d="M900.75,658.5 Q900.9531,658 901.1875,657.75 Q901.4219,657.5 901.6875,657.5 Q902.1563,657.5 902.4531,657.7813 Q902.75,658.0625 902.75,658.7188 L902.75,660.2813 Q902.75,660.9375 902.4688,661.2188 Q902.1875,661.5 901.75,661.5 Q901.3594,661.5 901.1094,661.3281 Q900.8594,661.1563 900.75,660.7031 Q900.7031,660.3906 900.5313,660.2188 Q900.2188,659.8906 899.6563,659.7031 Q899.0938,659.5 898.5313,659.5 Q897.8281,659.5 897.2344,659.7813 Q896.6563,660.0625 896.2031,660.6875 Q895.75,661.3125 895.75,662.1719 L895.75,663.0938 Q895.75,664.125 896.5938,664.8125 Q897.4375,665.5 898.9375,665.5 Q899.8281,665.5 900.4531,665.2969 Q900.8125,665.1875 901.2188,664.8281 Q901.4844,664.625 901.625,664.5625 Q901.7656,664.5 901.9375,664.5 Q902.2656,664.5 902.5,664.7656 Q902.75,665.0156 902.75,665.375 Q902.75,665.7188 902.4063,666.125 Q901.9063,666.7188 901.1094,667.0469 Q900.0625,667.5 898.7813,667.5 Q897.2813,667.5 896.0781,666.9063 Q895.1094,666.4375 894.4219,665.4219 Q893.75,664.4063 893.75,663.2031 L893.75,662.1094 Q893.75,660.8594 894.3438,659.7656 Q894.9531,658.6719 896,658.0938 Q897.0625,657.5 898.25,657.5 Q898.9688,657.5 899.5938,657.75 Q900.2188,658 900.75,658.5 Z " fill="#000000"/><text fill="#000000" font-family="sans-serif" font-size="12" lengthAdjust="spacing" textLength="54" x="919.25" y="666.9102">DateTime</text><line style="stroke:#A80036;stroke-width:1.5;" x1="855.5" x2="1004.5" y1="678" y2="678"/><rect fill="none" height="6" style="stroke:#C82930;stroke-width:1.0;" width="6" x="862.5" y="686"/><text fill="#000000" font-family="sans-serif" font-size="11" lengthAdjust="spacing" textLength="21" x="874.5" y="693.4189">date</text><rect fill="none" height="6" style="stroke:#C82930;stroke-width:1.0;" width="6" x="862.5" y="699.8359"/><text fill="#000000" font-family="sans-serif" font-size="11" lengthAdjust="spacing" textLength="19" x="874.5" y="707.2549">time</text><line style="stroke:#A80036;stroke-width:1.5;" x1="855.5" x2="1004.5" y1="713.6719" y2="713.6719"/><ellipse cx="865.5" cy="724.6719" fill="#84BE84" rx="3" ry="3" style="stroke:#038048;stroke-width:1.0;"/><text fill="#000000" font-family="sans-serif" font-size="11" lengthAdjust="spacing" textLength="125" x="874.5" y="729.0908">registerCurrentDateTime()</text><!--MD5=[f97b8c00cb514ace9cb97c2a996fb712]
class TestListMapper--><rect codeLine="61" fill="#FEFECE" filter="url(#f6xynzmvswjwn)" height="61.8359" id="TestListMapper" style="stroke:#A80036;stroke-width:1.5;" width="127" x="766.5" y="62.5"/><ellipse cx="786" cy="78.5" fill="#ADD1B2" rx="11" ry="11" style="stroke:#A80036;stroke-width:1.0;"/><path d="M788,75 Q788.2031,74.5 788.4375,74.25 Q788.6719,74 788.9375,74 Q789.4063,74 789.7031,74.2813 Q790,74.5625 790,75.2188 L790,76.7813 Q790,77.4375 789.7188,77.7188 Q789.4375,78 789,78 Q788.6094,78 788.3594,77.8281 Q788.1094,77.6563 788,77.2031 Q787.9531,76.8906 787.7813,76.7188 Q787.4688,76.3906 786.9063,76.2031 Q786.3438,76 785.7813,76 Q785.0781,76 784.4844,76.2813 Q783.9063,76.5625 783.4531,77.1875 Q783,77.8125 783,78.6719 L783,79.5938 Q783,80.625 783.8438,81.3125 Q784.6875,82 786.1875,82 Q787.0781,82 787.7031,81.7969 Q788.0625,81.6875 788.4688,81.3281 Q788.7344,81.125 788.875,81.0625 Q789.0156,81 789.1875,81 Q789.5156,81 789.75,81.2656 Q790,81.5156 790,81.875 Q790,82.2188 789.6563,82.625 Q789.1563,83.2188 788.3594,83.5469 Q787.3125,84 786.0313,84 Q784.5313,84 783.3281,83.4063 Q782.3594,82.9375 781.6719,81.9219 Q781,80.9063 781,79.7031 L781,78.6094 Q781,77.3594 781.5938,76.2656 Q782.2031,75.1719 783.25,74.5938 Q784.3125,74 785.5,74 Q786.2188,74 786.8438,74.25 Q787.4688,74.5 788,75 Z " fill="#000000"/><text fill="#000000" font-family="sans-serif" font-size="12" lengthAdjust="spacing" textLength="85" x="801" y="83.4102">TestListMapper</text><line style="stroke:#A80036;stroke-width:1.5;" x1="767.5" x2="892.5" y1="94.5" y2="94.5"/><line style="stroke:#A80036;stroke-width:1.5;" x1="767.5" x2="892.5" y1="102.5" y2="102.5"/><ellipse cx="777.5" cy="113.5" fill="#84BE84" rx="3" ry="3" style="stroke:#038048;stroke-width:1.0;"/><text fill="#000000" font-family="sans-serif" font-size="11" lengthAdjust="spacing" textLength="101" x="786.5" y="117.9189">toDto(lTestNoReport)</text><!--MD5=[4ff913b72b026e4c95390310e4df5ddd]
link WriteReportUI to WriteReportController--><path codeLine="66" d="M501.79,93.5 C518.87,93.5 535.95,93.5 553.04,93.5 " fill="none" id="WriteReportUI-to-WriteReportController" style="stroke:#A80036;stroke-width:1.0;stroke-dasharray:7.0,7.0;"/><polygon fill="#A80036" points="558.34,93.5,549.34,89.5,553.34,93.5,549.34,97.5,558.34,93.5" style="stroke:#A80036;stroke-width:1.0;"/><!--MD5=[a3405a5a29c0a1359ce5b85a18cd6043]
link WriteReportController to Company--><path codeLine="67" d="M622.04,145.26 C613.2,182.78 601.31,233.29 592.98,268.65 " fill="none" id="WriteReportController-to-Company" style="stroke:#A80036;stroke-width:1.0;stroke-dasharray:7.0,7.0;"/><polygon fill="#A80036" points="591.77,273.76,597.725,265.9154,592.9152,268.8929,589.9377,264.0831,591.77,273.76" style="stroke:#A80036;stroke-width:1.0;"/><!--MD5=[aa4aa685cc8a1bee089823f9a2dac854]
link WriteReportController to TestStore--><path codeLine="68" d="M567.62,145.17 C552.08,154.7 535.06,163.41 518,169 C460.87,187.73 302.32,160.24 248,186 C209.88,204.08 178.26,240.76 157.71,269.73 " fill="none" id="WriteReportController-to-TestStore" style="stroke:#A80036;stroke-width:1.0;stroke-dasharray:7.0,7.0;"/><polygon fill="#A80036" points="154.76,273.95,163.1874,268.853,157.6187,269.8478,156.6239,264.2791,154.76,273.95" style="stroke:#A80036;stroke-width:1.0;"/><!--MD5=[5f7e16a0d3ad367d3a8be993a13d813b]
link WriteReportController to TestListMapper--><path codeLine="69" d="M709.8,93.5 C726.82,93.5 743.84,93.5 760.86,93.5 " fill="none" id="WriteReportController-to-TestListMapper" style="stroke:#A80036;stroke-width:1.0;stroke-dasharray:7.0,7.0;"/><polygon fill="#A80036" points="766.14,93.5,757.14,89.5,761.14,93.5,757.14,97.5,766.14,93.5" style="stroke:#A80036;stroke-width:1.0;"/><!--MD5=[7278674e9ca3925782f5c87c1bd9dd49]
link WriteReportController to Test--><path codeLine="70" d="M642.78,145.25 C644.94,158.49 647.17,172.77 649,186 C660.34,267.79 670.64,362.17 677.08,424.78 " fill="none" id="WriteReportController-to-Test" style="stroke:#A80036;stroke-width:1.0;stroke-dasharray:7.0,7.0;"/><polygon fill="#A80036" points="677.62,429.98,680.6993,420.6249,677.1197,425.0051,672.7394,421.4255,677.62,429.98" style="stroke:#A80036;stroke-width:1.0;"/><!--MD5=[282cfc7c590a34915ae3d174e5d7b309]
link WriteReportController to Report--><path codeLine="71" d="M671.74,145.16 C729.59,222.81 839.44,370.26 896.14,446.36 " fill="none" id="WriteReportController-to-Report" style="stroke:#A80036;stroke-width:1.0;stroke-dasharray:7.0,7.0;"/><polygon fill="#A80036" points="899.13,450.38,896.9684,440.7713,896.146,446.368,890.5493,445.5457,899.13,450.38" style="stroke:#A80036;stroke-width:1.0;"/><!--MD5=[7e4bc624457760b649895ff2ead938fa]
link Company to Test--><path codeLine="72" d="M589.16,350.27 C592.7,366.17 598.08,384.57 606,400 C610.51,408.78 615.95,417.49 621.83,425.85 " fill="none" id="Company-to-Test" style="stroke:#A80036;stroke-width:1.0;"/><polygon fill="#A80036" points="624.75,429.93,622.7866,420.2788,621.8492,425.8575,616.2706,424.9201,624.75,429.93" style="stroke:#A80036;stroke-width:1.0;"/><text fill="#000000" font-family="sans-serif" font-size="13" lengthAdjust="spacing" textLength="50" x="607" y="396.4951">performs</text><text fill="#000000" font-family="sans-serif" font-size="13" lengthAdjust="spacing" textLength="7" x="582.5839" y="371.1936">1</text><text fill="#000000" font-family="sans-serif" font-size="13" lengthAdjust="spacing" textLength="5" x="612.6102" y="418.938">*</text><!--MD5=[adb81e9626eab0b9608444eaf57ecc00]
reverse link TestStore to Company--><path codeLine="73" d="M212.99,312 C306.69,312 457.91,312 534.79,312 " fill="none" id="TestStore-backto-Company" style="stroke:#A80036;stroke-width:1.0;"/><polygon fill="#A80036" points="207.74,312,216.74,316,212.74,312,216.74,308,207.74,312" style="stroke:#A80036;stroke-width:1.0;"/><text fill="#000000" font-family="sans-serif" font-size="13" lengthAdjust="spacing" textLength="28" x="357.25" y="305.4951">uses</text><text fill="#000000" font-family="sans-serif" font-size="13" lengthAdjust="spacing" textLength="7" x="215.5402" y="308.7411">1</text><text fill="#000000" font-family="sans-serif" font-size="13" lengthAdjust="spacing" textLength="7" x="519.8719" y="308.3222">1</text><!--MD5=[b0f4f6db8206580012ef9cd998ed01c5]
link TestStore to Test--><path codeLine="74" d="M196.49,350.03 C212.96,358.62 230.86,367.22 248,374 C311.25,399.04 488.58,445.37 596.61,472.72 " fill="none" id="TestStore-to-Test" style="stroke:#A80036;stroke-width:1.0;"/><polygon fill="#A80036" points="601.7,474,593.9431,467.9312,596.8501,472.784,591.9974,475.691,601.7,474" style="stroke:#A80036;stroke-width:1.0;"/><text fill="#000000" font-family="sans-serif" font-size="13" lengthAdjust="spacing" textLength="29" x="320" y="396.4951">store</text><text fill="#000000" font-family="sans-serif" font-size="13" lengthAdjust="spacing" textLength="7" x="199.5915" y="371.2051">1</text><text fill="#000000" font-family="sans-serif" font-size="13" lengthAdjust="spacing" textLength="5" x="588.8825" y="468.7911">*</text><!--MD5=[12189d12e156ffd517416dd9dd697e80]
reverse link Report to Test--><path codeLine="75" d="M853.2,495.5 C825.47,495.5 794.24,495.5 766.24,495.5 " fill="none" id="Report-backto-Test" style="stroke:#A80036;stroke-width:1.0;"/><polygon fill="#A80036" points="858.34,495.5,849.34,491.5,853.34,495.5,849.34,499.5,858.34,495.5" style="stroke:#A80036;stroke-width:1.0;"/><text fill="#000000" font-family="sans-serif" font-size="13" lengthAdjust="spacing" textLength="56" x="784.25" y="488.9951">originates</text><text fill="#000000" font-family="sans-serif" font-size="13" lengthAdjust="spacing" textLength="7" x="843.3829" y="492.2136">1</text><text fill="#000000" font-family="sans-serif" font-size="13" lengthAdjust="spacing" textLength="7" x="773.8762" y="492.2976">1</text><!--MD5=[5c6904ccd9905be79ae840623f750d86]
reverse link TestParameterResult to Test--><path codeLine="76" d="M419.54,495.5 C474.39,495.5 546.77,495.5 601.94,495.5 " fill="none" id="TestParameterResult-backto-Test" style="stroke:#A80036;stroke-width:1.0;"/><polygon fill="#A80036" points="414.29,495.5,423.29,499.5,419.29,495.5,423.29,491.5,414.29,495.5" style="stroke:#A80036;stroke-width:1.0;"/><text fill="#000000" font-family="sans-serif" font-size="13" lengthAdjust="spacing" textLength="151" x="432.5" y="488.9951">analyses parameter to get</text><text fill="#000000" font-family="sans-serif" font-size="13" lengthAdjust="spacing" textLength="5" x="421.9475" y="492.208">*</text><text fill="#000000" font-family="sans-serif" font-size="13" lengthAdjust="spacing" textLength="7" x="587.0524" y="492.2731">1</text><!--MD5=[771f0fa6b0afbf09ba650c9f16b9ddc4]
link Report to DateTime--><path codeLine="77" d="M931.54,540.89 C931.23,570.64 930.83,609.83 930.51,640.57 " fill="none" id="Report-to-DateTime" style="stroke:#A80036;stroke-width:1.0;stroke-dasharray:7.0,7.0;"/><polygon fill="#A80036" points="930.46,645.81,934.537,636.8446,930.5029,640.8102,926.5373,636.776,930.46,645.81" style="stroke:#A80036;stroke-width:1.0;"/><!--MD5=[905314f6f32e0b8ee0baa2d8b1b6af6a]
@startuml

package UI {
class WriteReportUI {
}
}

package Controller {
class WriteReportController {
    +getTestWithoutReport()
    +getTestResults(testCode)
    +newReport(text)
    +saveReport()
}
}

package Domain {
package Model {
class Company {
    -description
    +getTestStore()
}
class Test {
    -createdAt
    -internalCode
    -nhsCode
    +getTestResults()
    +addReport(report)
    -changeStateToReportDone()
}

class TestParameterResult {
    -createdAt
    -value
    -metric
    +toString()
}

class Report {
    -createdAt
    -reportText
    +registerReportDateTime()
}
}
package Store {
class TestStore {
    +getTestWithoutReport()
    +getTestByCode(testCode)
}
}

package Shared {
class DateTime {
    -date
    -time
    +registerCurrentDateTime()
}
}
}

package Mappers {
class TestListMapper {
    +toDto(lTestNoReport)
}
}

WriteReportUI .right.> WriteReportController
WriteReportController ..> Company
WriteReportController ..> TestStore
WriteReportController .right.> TestListMapper
WriteReportController ..> Test
WriteReportController ..> Report
Company"1" - -> "*"Test : "performs"
Company"1" -left-> "1"TestStore : "uses"
TestStore"1" - -> "*"Test : "store"
Test"1" -left-> "1"Report : "originates"
Test"1" -left-> "*"TestParameterResult : "analyses parameter to get"
Report ..> DateTime

@enduml

PlantUML version 1.2021.5(Sun Apr 25 12:20:28 BST 2021)
(GPL source distribution)
Java Runtime: OpenJDK Runtime Environment
JVM: Dynamic Code Evolution 64-Bit Server VM
Default Encoding: Cp1252
Language: en
Country: US
--></g></svg>