<?xml version="1.0" encoding="UTF-8" standalone="no"?><svg xmlns="http://www.w3.org/2000/svg" xmlns:xlink="http://www.w3.org/1999/xlink" contentScriptType="application/ecmascript" contentStyleType="text/css" height="805px" preserveAspectRatio="none" style="width:367px;height:805px;" version="1.1" viewBox="0 0 367 805" width="367.5px" zoomAndPan="magnify"><defs><filter height="300%" id="f1syxylqxtj3gx" width="300%" x="-1" y="-1"><feGaussianBlur result="blurOut" stdDeviation="2.5"/><feColorMatrix in="blurOut" result="blurOut2" type="matrix" values="0 0 0 0 0 0 0 0 0 0 0 0 0 0 0 0 0 0 .4 0"/><feOffset dx="5.0" dy="5.0" in="blurOut2" result="blurOut3"/><feBlend in="SourceGraphic" in2="blurOut3" mode="normal"/></filter></defs><g><!--MD5=[da547346deef918ea16944ba046651ef]
class Administrator--><rect codeLine="5" fill="#FEFECE" filter="url(#f1syxylqxtj3gx)" height="50" id="Administrator" style="stroke:#A80036;stroke-width:1.875;" width="131.25" x="148.125" y="8.75"/><ellipse cx="166.875" cy="28.75" fill="#ADD1B2" rx="13.75" ry="13.75" style="stroke:#A80036;stroke-width:1.25;"/><path d="M169.375,24.375 Q169.6289,23.75 169.9219,23.4375 Q170.2148,23.125 170.5469,23.125 Q171.1328,23.125 171.5039,23.4766 Q171.875,23.8281 171.875,24.6484 L171.875,26.6016 Q171.875,27.4219 171.5234,27.7734 Q171.1719,28.125 170.625,28.125 Q170.1367,28.125 169.8242,27.9102 Q169.5117,27.6953 169.375,27.1289 Q169.3164,26.7383 169.1016,26.5234 Q168.7109,26.1133 168.0078,25.8789 Q167.3047,25.625 166.6016,25.625 Q165.7227,25.625 164.9805,25.9766 Q164.2578,26.3281 163.6914,27.1094 Q163.125,27.8906 163.125,28.9648 L163.125,30.1172 Q163.125,31.4063 164.1797,32.2656 Q165.2344,33.125 167.1094,33.125 Q168.2227,33.125 169.0039,32.8711 Q169.4531,32.7344 169.9609,32.2852 Q170.293,32.0313 170.4688,31.9531 Q170.6445,31.875 170.8594,31.875 Q171.2695,31.875 171.5625,32.207 Q171.875,32.5195 171.875,32.9688 Q171.875,33.3984 171.4453,33.9063 Q170.8203,34.6484 169.8242,35.0586 Q168.5156,35.625 166.9141,35.625 Q165.0391,35.625 163.5352,34.8828 Q162.3242,34.2969 161.4648,33.0273 Q160.625,31.7578 160.625,30.2539 L160.625,28.8867 Q160.625,27.3242 161.3672,25.957 Q162.1289,24.5898 163.4375,23.8672 Q164.7656,23.125 166.25,23.125 Q167.1484,23.125 167.9297,23.4375 Q168.7109,23.75 169.375,24.375 Z " fill="#000000"/><text fill="#000000" font-family="sans-serif" font-size="15" lengthAdjust="spacing" textLength="91.25" x="184.375" y="34.8877">Administrator</text><line style="stroke:#A80036;stroke-width:1.875;" x1="149.375" x2="278.125" y1="48.75" y2="48.75"/><!--MD5=[51e7be1fc67316e87ee401e666e38435]
class ClinicalTest--><rect codeLine="8" fill="#FEFECE" filter="url(#f1syxylqxtj3gx)" height="101.8848" id="ClinicalTest" style="stroke:#A80036;stroke-width:1.875;" width="130" x="143.75" y="686.25"/><ellipse cx="166.4375" cy="706.25" fill="#ADD1B2" rx="13.75" ry="13.75" style="stroke:#A80036;stroke-width:1.25;"/><path d="M168.9375,701.875 Q169.1914,701.25 169.4844,700.9375 Q169.7773,700.625 170.1094,700.625 Q170.6953,700.625 171.0664,700.9766 Q171.4375,701.3281 171.4375,702.1484 L171.4375,704.1016 Q171.4375,704.9219 171.0859,705.2734 Q170.7344,705.625 170.1875,705.625 Q169.6992,705.625 169.3867,705.4102 Q169.0742,705.1953 168.9375,704.6289 Q168.8789,704.2383 168.6641,704.0234 Q168.2734,703.6133 167.5703,703.3789 Q166.8672,703.125 166.1641,703.125 Q165.2852,703.125 164.543,703.4766 Q163.8203,703.8281 163.2539,704.6094 Q162.6875,705.3906 162.6875,706.4648 L162.6875,707.6172 Q162.6875,708.9063 163.7422,709.7656 Q164.7969,710.625 166.6719,710.625 Q167.7852,710.625 168.5664,710.3711 Q169.0156,710.2344 169.5234,709.7852 Q169.8555,709.5313 170.0313,709.4531 Q170.207,709.375 170.4219,709.375 Q170.832,709.375 171.125,709.707 Q171.4375,710.0195 171.4375,710.4688 Q171.4375,710.8984 171.0078,711.4063 Q170.3828,712.1484 169.3867,712.5586 Q168.0781,713.125 166.4766,713.125 Q164.6016,713.125 163.0977,712.3828 Q161.8867,711.7969 161.0273,710.5273 Q160.1875,709.2578 160.1875,707.7539 L160.1875,706.3867 Q160.1875,704.8242 160.9297,703.457 Q161.6914,702.0898 163,701.3672 Q164.3281,700.625 165.8125,700.625 Q166.7109,700.625 167.4922,700.9375 Q168.2734,701.25 168.9375,701.875 Z " fill="#000000"/><text fill="#000000" font-family="sans-serif" font-size="15" lengthAdjust="spacing" textLength="81.25" x="184.8125" y="712.3877">ClinicalTest</text><line style="stroke:#A80036;stroke-width:1.875;" x1="145" x2="272.5" y1="726.25" y2="726.25"/><rect fill="none" height="7.5" style="stroke:#C82930;stroke-width:1.25;" width="7.5" x="153.75" y="736.25"/><text fill="#000000" font-family="sans-serif" font-size="13.75" lengthAdjust="spacing" textLength="97.5" x="168.75" y="745.5237">labWereCreated</text><rect fill="none" height="7.5" style="stroke:#C82930;stroke-width:1.25;" width="7.5" x="153.75" y="753.5449"/><text fill="#000000" font-family="sans-serif" font-size="13.75" lengthAdjust="spacing" textLength="75" x="168.75" y="762.8186">internalCode</text><rect fill="none" height="7.5" style="stroke:#C82930;stroke-width:1.25;" width="7.5" x="153.75" y="770.8398"/><text fill="#000000" font-family="sans-serif" font-size="13.75" lengthAdjust="spacing" textLength="53.75" x="168.75" y="780.1135">nhsCode</text><!--MD5=[20ddef7090025b04fb973268620c0974]
class DateTime--><rect codeLine="15" fill="#FEFECE" filter="url(#f1syxylqxtj3gx)" height="84.5898" id="DateTime" style="stroke:#A80036;stroke-width:1.875;" width="107.5" x="8.75" y="156.25"/><ellipse cx="27.5" cy="176.25" fill="#ADD1B2" rx="13.75" ry="13.75" style="stroke:#A80036;stroke-width:1.25;"/><path d="M30,171.875 Q30.2539,171.25 30.5469,170.9375 Q30.8398,170.625 31.1719,170.625 Q31.7578,170.625 32.1289,170.9766 Q32.5,171.3281 32.5,172.1484 L32.5,174.1016 Q32.5,174.9219 32.1484,175.2734 Q31.7969,175.625 31.25,175.625 Q30.7617,175.625 30.4492,175.4102 Q30.1367,175.1953 30,174.6289 Q29.9414,174.2383 29.7266,174.0234 Q29.3359,173.6133 28.6328,173.3789 Q27.9297,173.125 27.2266,173.125 Q26.3477,173.125 25.6055,173.4766 Q24.8828,173.8281 24.3164,174.6094 Q23.75,175.3906 23.75,176.4648 L23.75,177.6172 Q23.75,178.9063 24.8047,179.7656 Q25.8594,180.625 27.7344,180.625 Q28.8477,180.625 29.6289,180.3711 Q30.0781,180.2344 30.5859,179.7852 Q30.918,179.5313 31.0938,179.4531 Q31.2695,179.375 31.4844,179.375 Q31.8945,179.375 32.1875,179.707 Q32.5,180.0195 32.5,180.4688 Q32.5,180.8984 32.0703,181.4063 Q31.4453,182.1484 30.4492,182.5586 Q29.1406,183.125 27.5391,183.125 Q25.6641,183.125 24.1602,182.3828 Q22.9492,181.7969 22.0898,180.5273 Q21.25,179.2578 21.25,177.7539 L21.25,176.3867 Q21.25,174.8242 21.9922,173.457 Q22.7539,172.0898 24.0625,171.3672 Q25.3906,170.625 26.875,170.625 Q27.7734,170.625 28.5547,170.9375 Q29.3359,171.25 30,171.875 Z " fill="#000000"/><text fill="#000000" font-family="sans-serif" font-size="15" lengthAdjust="spacing" textLength="67.5" x="45" y="182.3877">DateTime</text><line style="stroke:#A80036;stroke-width:1.875;" x1="10" x2="115" y1="196.25" y2="196.25"/><rect fill="none" height="7.5" style="stroke:#C82930;stroke-width:1.25;" width="7.5" x="18.75" y="206.25"/><text fill="#000000" font-family="sans-serif" font-size="13.75" lengthAdjust="spacing" textLength="26.25" x="33.75" y="215.5237">date</text><rect fill="none" height="7.5" style="stroke:#C82930;stroke-width:1.25;" width="7.5" x="18.75" y="223.5449"/><text fill="#000000" font-family="sans-serif" font-size="13.75" lengthAdjust="spacing" textLength="23.75" x="33.75" y="232.8186">time</text><!--MD5=[02e4b9b7573f1156f41e60aa5b4e25a4]
class Company--><rect codeLine="20" fill="#FEFECE" filter="url(#f1syxylqxtj3gx)" height="67.2949" id="Company" style="stroke:#A80036;stroke-width:1.875;" width="106.25" x="160.625" y="165"/><ellipse cx="179.375" cy="185" fill="#ADD1B2" rx="13.75" ry="13.75" style="stroke:#A80036;stroke-width:1.25;"/><path d="M181.875,180.625 Q182.1289,180 182.4219,179.6875 Q182.7148,179.375 183.0469,179.375 Q183.6328,179.375 184.0039,179.7266 Q184.375,180.0781 184.375,180.8984 L184.375,182.8516 Q184.375,183.6719 184.0234,184.0234 Q183.6719,184.375 183.125,184.375 Q182.6367,184.375 182.3242,184.1602 Q182.0117,183.9453 181.875,183.3789 Q181.8164,182.9883 181.6016,182.7734 Q181.2109,182.3633 180.5078,182.1289 Q179.8047,181.875 179.1016,181.875 Q178.2227,181.875 177.4805,182.2266 Q176.7578,182.5781 176.1914,183.3594 Q175.625,184.1406 175.625,185.2148 L175.625,186.3672 Q175.625,187.6563 176.6797,188.5156 Q177.7344,189.375 179.6094,189.375 Q180.7227,189.375 181.5039,189.1211 Q181.9531,188.9844 182.4609,188.5352 Q182.793,188.2813 182.9688,188.2031 Q183.1445,188.125 183.3594,188.125 Q183.7695,188.125 184.0625,188.457 Q184.375,188.7695 184.375,189.2188 Q184.375,189.6484 183.9453,190.1563 Q183.3203,190.8984 182.3242,191.3086 Q181.0156,191.875 179.4141,191.875 Q177.5391,191.875 176.0352,191.1328 Q174.8242,190.5469 173.9648,189.2773 Q173.125,188.0078 173.125,186.5039 L173.125,185.1367 Q173.125,183.5742 173.8672,182.207 Q174.6289,180.8398 175.9375,180.1172 Q177.2656,179.375 178.75,179.375 Q179.6484,179.375 180.4297,179.6875 Q181.2109,180 181.875,180.625 Z " fill="#000000"/><text fill="#000000" font-family="sans-serif" font-size="15" lengthAdjust="spacing" textLength="66.25" x="196.875" y="191.1377">Company</text><line style="stroke:#A80036;stroke-width:1.875;" x1="161.875" x2="265.625" y1="205" y2="205"/><rect fill="none" height="7.5" style="stroke:#C82930;stroke-width:1.25;" width="7.5" x="170.625" y="215"/><text fill="#000000" font-family="sans-serif" font-size="13.75" lengthAdjust="spacing" textLength="66.25" x="185.625" y="224.2737">description</text><!--MD5=[1f6362a5c8f21d8d6a0fce68f3a92a4e]
class Parameter--><rect codeLine="24" fill="#FEFECE" filter="url(#f1syxylqxtj3gx)" height="101.8848" id="Parameter" style="stroke:#A80036;stroke-width:1.875;" width="112.5" x="152.5" y="486.25"/><ellipse cx="171.25" cy="506.25" fill="#ADD1B2" rx="13.75" ry="13.75" style="stroke:#A80036;stroke-width:1.25;"/><path d="M173.75,501.875 Q174.0039,501.25 174.2969,500.9375 Q174.5898,500.625 174.9219,500.625 Q175.5078,500.625 175.8789,500.9766 Q176.25,501.3281 176.25,502.1484 L176.25,504.1016 Q176.25,504.9219 175.8984,505.2734 Q175.5469,505.625 175,505.625 Q174.5117,505.625 174.1992,505.4102 Q173.8867,505.1953 173.75,504.6289 Q173.6914,504.2383 173.4766,504.0234 Q173.0859,503.6133 172.3828,503.3789 Q171.6797,503.125 170.9766,503.125 Q170.0977,503.125 169.3555,503.4766 Q168.6328,503.8281 168.0664,504.6094 Q167.5,505.3906 167.5,506.4648 L167.5,507.6172 Q167.5,508.9063 168.5547,509.7656 Q169.6094,510.625 171.4844,510.625 Q172.5977,510.625 173.3789,510.3711 Q173.8281,510.2344 174.3359,509.7852 Q174.668,509.5313 174.8438,509.4531 Q175.0195,509.375 175.2344,509.375 Q175.6445,509.375 175.9375,509.707 Q176.25,510.0195 176.25,510.4688 Q176.25,510.8984 175.8203,511.4063 Q175.1953,512.1484 174.1992,512.5586 Q172.8906,513.125 171.2891,513.125 Q169.4141,513.125 167.9102,512.3828 Q166.6992,511.7969 165.8398,510.5273 Q165,509.2578 165,507.7539 L165,506.3867 Q165,504.8242 165.7422,503.457 Q166.5039,502.0898 167.8125,501.3672 Q169.1406,500.625 170.625,500.625 Q171.5234,500.625 172.3047,500.9375 Q173.0859,501.25 173.75,501.875 Z " fill="#000000"/><text fill="#000000" font-family="sans-serif" font-size="15" lengthAdjust="spacing" textLength="72.5" x="188.75" y="512.3877">Parameter</text><line style="stroke:#A80036;stroke-width:1.875;" x1="153.75" x2="263.75" y1="526.25" y2="526.25"/><rect fill="none" height="7.5" style="stroke:#C82930;stroke-width:1.25;" width="7.5" x="162.5" y="536.25"/><text fill="#000000" font-family="sans-serif" font-size="13.75" lengthAdjust="spacing" textLength="65" x="177.5" y="545.5237">shortName</text><rect fill="none" height="7.5" style="stroke:#C82930;stroke-width:1.25;" width="7.5" x="162.5" y="553.5449"/><text fill="#000000" font-family="sans-serif" font-size="13.75" lengthAdjust="spacing" textLength="30" x="177.5" y="562.8186">code</text><rect fill="none" height="7.5" style="stroke:#C82930;stroke-width:1.25;" width="7.5" x="162.5" y="570.8398"/><text fill="#000000" font-family="sans-serif" font-size="13.75" lengthAdjust="spacing" textLength="66.25" x="177.5" y="580.1135">description</text><!--MD5=[74783ec010d186752c4ffd5c6de5633a]
class NHSReport--><rect fill="#FEFECE" filter="url(#f1syxylqxtj3gx)" height="50" id="NHSReport" style="stroke:#A80036;stroke-width:1.875;" width="118.75" x="149.375" y="338.75"/><ellipse cx="168.125" cy="358.75" fill="#ADD1B2" rx="13.75" ry="13.75" style="stroke:#A80036;stroke-width:1.25;"/><path d="M170.625,354.375 Q170.8789,353.75 171.1719,353.4375 Q171.4648,353.125 171.7969,353.125 Q172.3828,353.125 172.7539,353.4766 Q173.125,353.8281 173.125,354.6484 L173.125,356.6016 Q173.125,357.4219 172.7734,357.7734 Q172.4219,358.125 171.875,358.125 Q171.3867,358.125 171.0742,357.9102 Q170.7617,357.6953 170.625,357.1289 Q170.5664,356.7383 170.3516,356.5234 Q169.9609,356.1133 169.2578,355.8789 Q168.5547,355.625 167.8516,355.625 Q166.9727,355.625 166.2305,355.9766 Q165.5078,356.3281 164.9414,357.1094 Q164.375,357.8906 164.375,358.9648 L164.375,360.1172 Q164.375,361.4063 165.4297,362.2656 Q166.4844,363.125 168.3594,363.125 Q169.4727,363.125 170.2539,362.8711 Q170.7031,362.7344 171.2109,362.2852 Q171.543,362.0313 171.7188,361.9531 Q171.8945,361.875 172.1094,361.875 Q172.5195,361.875 172.8125,362.207 Q173.125,362.5195 173.125,362.9688 Q173.125,363.3984 172.6953,363.9063 Q172.0703,364.6484 171.0742,365.0586 Q169.7656,365.625 168.1641,365.625 Q166.2891,365.625 164.7852,364.8828 Q163.5742,364.2969 162.7148,363.0273 Q161.875,361.7578 161.875,360.2539 L161.875,358.8867 Q161.875,357.3242 162.6172,355.957 Q163.3789,354.5898 164.6875,353.8672 Q166.0156,353.125 167.5,353.125 Q168.3984,353.125 169.1797,353.4375 Q169.9609,353.75 170.625,354.375 Z " fill="#000000"/><text fill="#000000" font-family="sans-serif" font-size="15" lengthAdjust="spacing" textLength="78.75" x="185.625" y="364.8877">NHSReport</text><line style="stroke:#A80036;stroke-width:1.875;" x1="150.625" x2="266.875" y1="378.75" y2="378.75"/><!--MD5=[304db59a05c0da2cdffc3c882f2d9e9b]
link Administrator to Company--><path codeLine="30" d="M213.75,58.975 C213.75,86.875 213.75,133.1 213.75,164.4125 " fill="none" id="Administrator-Company" style="stroke:#A80036;stroke-width:1.25;"/><polygon fill="#000000" points="220,113.9697,223.6737,102.6634,216.3263,102.6634,220,113.9697" style="stroke:#000000;stroke-width:1.25;"/><text fill="#000000" font-family="sans-serif" font-size="16.25" lengthAdjust="spacing" textLength="42.5" x="231.25" y="114.3689">works</text><text fill="#000000" font-family="sans-serif" font-size="16.25" lengthAdjust="spacing" textLength="8.75" x="203.7695" y="85.8127">1</text><text fill="#000000" font-family="sans-serif" font-size="16.25" lengthAdjust="spacing" textLength="6.25" x="206.8164" y="151.6531">*</text><!--MD5=[8ab086dc2d99d892dc6fd5d865ad098e]
link Administrator to NHSReport--><path codeLine="31" d="M252.4125,58.95 C265.025,68.85 277.6625,81.5 285,96.25 C293.075,112.4875 289.775,237.85 288.75,241.25 C277.4375,278.9375 250.2125,315.7125 230.6625,338.7 " fill="none" id="Administrator-NHSReport" style="stroke:#A80036;stroke-width:1.25;"/><polygon fill="#000000" points="297.0155,205.2009,301.5545,194.2133,294.2293,193.6438,297.0155,205.2009" style="stroke:#000000;stroke-width:1.25;"/><text fill="#000000" font-family="sans-serif" font-size="16.25" lengthAdjust="spacing" textLength="48.75" x="308.75" y="205.6189">makes</text><text fill="#000000" font-family="sans-serif" font-size="16.25" lengthAdjust="spacing" textLength="8.75" x="253.3059" y="85.7807">1</text><text fill="#000000" font-family="sans-serif" font-size="16.25" lengthAdjust="spacing" textLength="6.25" x="229.9313" y="325.3375">*</text><!--MD5=[c0aac557550b35dd8625200ccdba50ad]
link Administrator to DateTime--><path codeLine="32" d="M176.925,58.9375 C162.2375,69.4375 145.7125,82.4875 132.5,96.25 C115.3375,114.1375 99.35,136.6 87.0125,155.825 " fill="none" id="Administrator-DateTime" style="stroke:#A80036;stroke-width:1.25;"/><polygon fill="#000000" points="134.4986,112.301,144.8823,106.5124,139.4967,101.5145,134.4986,112.301" style="stroke:#000000;stroke-width:1.25;"/><text fill="#000000" font-family="sans-serif" font-size="16.25" lengthAdjust="spacing" textLength="52.5" x="150" y="114.3689">selects</text><text fill="#000000" font-family="sans-serif" font-size="16.25" lengthAdjust="spacing" textLength="8.75" x="156.5875" y="85.7647">1</text><text fill="#000000" font-family="sans-serif" font-size="16.25" lengthAdjust="spacing" textLength="6.25" x="84.8395" y="142.686">*</text><!--MD5=[e64319be508502feacc0a35bae0e1fe7]
link DateTime to NHSReport--><path codeLine="33" d="M99.7875,241.425 C127.375,272.075 164,312.7875 186.975,338.3125 " fill="none" id="DateTime-NHSReport" style="stroke:#A80036;stroke-width:1.25;"/><polygon fill="#000000" points="164.1807,294.8656,159.3485,284.0038,153.887,288.9185,164.1807,294.8656" style="stroke:#000000;stroke-width:1.25;"/><text fill="#000000" font-family="sans-serif" font-size="16.25" lengthAdjust="spacing" textLength="12.5" x="171.25" y="296.8689">of</text><text fill="#000000" font-family="sans-serif" font-size="16.25" lengthAdjust="spacing" textLength="8.75" x="96.9" y="267.7523">1</text><text fill="#000000" font-family="sans-serif" font-size="16.25" lengthAdjust="spacing" textLength="6.25" x="173.7219" y="325.2764">*</text><!--MD5=[a021f0f72095a7cc136daad0ba9082d5]
link NHSReport to Parameter--><path codeLine="34" d="M208.75,388.8125 C208.75,413.8125 208.75,453.8625 208.75,485.9125 " fill="none" id="NHSReport-Parameter" style="stroke:#A80036;stroke-width:1.25;"/><polygon fill="#000000" points="215,443.9697,218.6737,432.6634,211.3263,432.6634,215,443.9697" style="stroke:#000000;stroke-width:1.25;"/><text fill="#000000" font-family="sans-serif" font-size="16.25" lengthAdjust="spacing" textLength="78.75" x="226.25" y="444.3689">is for Covid</text><text fill="#000000" font-family="sans-serif" font-size="16.25" lengthAdjust="spacing" textLength="8.75" x="198.7695" y="415.6045">1</text><text fill="#000000" font-family="sans-serif" font-size="16.25" lengthAdjust="spacing" textLength="6.25" x="201.9824" y="472.6683">*</text><!--MD5=[e2810861191a61e562f9d5353ac430c9]
link Parameter to ClinicalTest--><path codeLine="35" d="M208.75,589.1 C208.75,618.8125 208.75,656.3 208.75,685.9875 " fill="none" id="Parameter-ClinicalTest" style="stroke:#A80036;stroke-width:1.25;"/><polygon fill="#000000" points="215,643.9697,218.6737,632.6634,211.3263,632.6634,215,643.9697" style="stroke:#000000;stroke-width:1.25;"/><text fill="#000000" font-family="sans-serif" font-size="16.25" lengthAdjust="spacing" textLength="12.5" x="226.25" y="644.3689">of</text><text fill="#000000" font-family="sans-serif" font-size="16.25" lengthAdjust="spacing" textLength="8.75" x="199.3574" y="615.0939">1</text><text fill="#000000" font-family="sans-serif" font-size="16.25" lengthAdjust="spacing" textLength="6.25" x="201.9824" y="672.7557">*</text><!--MD5=[cf73db985f3ab04f8bc7f874c56700b8]
@startuml
'https://plantuml.com/sequence-diagram

hide methods

class Administrator


class ClinicalTest {
    -labWereCreated
    -internalCode
    -nhsCode
}


class DateTime {
    -date
    -time
}

class Company {
    -description
}

class Parameter {
    -shortName
    -code
    -description
}

Administrator"1" - - "*"Company : > works
Administrator"1"- -"*"NHSReport : > makes
Administrator"1"- -"*"DateTime : > selects
DateTime"1"- -"*"NHSReport : > of
NHSReport"1"- -"*"Parameter: > is for Covid
Parameter"1"- -"*"ClinicalTest : > of
@enduml

@startuml

hide methods

class Administrator


class ClinicalTest {
    -labWereCreated
    -internalCode
    -nhsCode
}


class DateTime {
    -date
    -time
}

class Company {
    -description
}

class Parameter {
    -shortName
    -code
    -description
}

Administrator"1" - - "*"Company : > works
Administrator"1"- -"*"NHSReport : > makes
Administrator"1"- -"*"DateTime : > selects
DateTime"1"- -"*"NHSReport : > of
NHSReport"1"- -"*"Parameter: > is for Covid
Parameter"1"- -"*"ClinicalTest : > of
@enduml

PlantUML version 1.2021.4(Sun Apr 04 09:49:39 BST 2021)
(GPL source distribution)
Java Runtime: OpenJDK Runtime Environment
JVM: Dynamic Code Evolution 64-Bit Server VM
Default Encoding: Cp1252
Language: pt
Country: PT
--></g></svg>