<?xml version="1.0" encoding="UTF-8" standalone="no"?><svg xmlns="http://www.w3.org/2000/svg" xmlns:xlink="http://www.w3.org/1999/xlink" contentScriptType="application/ecmascript" contentStyleType="text/css" height="754.4px" preserveAspectRatio="none" style="width:645px;height:754px;" version="1.1" viewBox="0 0 645 754" width="645.6px" zoomAndPan="magnify"><defs><filter height="300%" id="f17zdb3flwujhn" width="300%" x="-1" y="-1"><feGaussianBlur result="blurOut" stdDeviation="1.6000000000000003"/><feColorMatrix in="blurOut" result="blurOut2" type="matrix" values="0 0 0 0 0 0 0 0 0 0 0 0 0 0 0 0 0 0 .4 0"/><feOffset dx="3.2000000000000006" dy="3.2000000000000006" in="blurOut2" result="blurOut3"/><feBlend in="SourceGraphic" in2="blurOut3" mode="normal"/></filter></defs><g><!--MD5=[a126dd63c8621c017159ae62771fbe54]
class RegisterEmployeeUI--><rect codeLine="3" fill="#FEFECE" filter="url(#f17zdb3flwujhn)" height="38.4" id="RegisterEmployeeUI" style="stroke:#A80036;stroke-width:1.2000000000000002;" width="116.8" x="141.6" y="5.6"/><ellipse cx="153.6" cy="18.4" fill="#ADD1B2" rx="8.8" ry="8.8" style="stroke:#A80036;stroke-width:0.8000000000000002;"/><path d="M155.2,15.6 Q155.3625,15.2 155.55,15 Q155.7375,14.8 155.95,14.8 Q156.325,14.8 156.5625,15.025 Q156.8,15.25 156.8,15.775 L156.8,17.025 Q156.8,17.55 156.575,17.775 Q156.35,18 156,18 Q155.6875,18 155.4875,17.8625 Q155.2875,17.725 155.2,17.3625 Q155.1625,17.1125 155.025,16.975 Q154.775,16.7125 154.325,16.5625 Q153.875,16.4 153.425,16.4 Q152.8625,16.4 152.3875,16.625 Q151.925,16.85 151.5625,17.35 Q151.2,17.85 151.2,18.5375 L151.2,19.275 Q151.2,20.1 151.875,20.65 Q152.55,21.2 153.75,21.2 Q154.4625,21.2 154.9625,21.0375 Q155.25,20.95 155.575,20.6625 Q155.7875,20.5 155.9,20.45 Q156.0125,20.4 156.15,20.4 Q156.4125,20.4 156.6,20.6125 Q156.8,20.8125 156.8,21.1 Q156.8,21.375 156.525,21.7 Q156.125,22.175 155.4875,22.4375 Q154.65,22.8 153.625,22.8 Q152.425,22.8 151.4625,22.325 Q150.6875,21.95 150.1375,21.1375 Q149.6,20.325 149.6,19.3625 L149.6,18.4875 Q149.6,17.4875 150.075,16.6125 Q150.5625,15.7375 151.4,15.275 Q152.25,14.8 153.2,14.8 Q153.775,14.8 154.275,15 Q154.775,15.2 155.2,15.6 Z " fill="#000000"/><text fill="#000000" font-family="sans-serif" font-size="9.6" lengthAdjust="spacing" textLength="91.2" x="164.8" y="22.3281">RegisterEmployeeUI</text><line style="stroke:#A80036;stroke-width:1.2000000000000002;" x1="142.4" x2="257.6" y1="31.2" y2="31.2"/><line style="stroke:#A80036;stroke-width:1.2000000000000002;" x1="142.4" x2="257.6" y1="37.6" y2="37.6"/><!--MD5=[6a4e699b59c2ecf8286aba2faa72e4bd]
class RegisterEmployeeController--><rect codeLine="7" fill="#FEFECE" filter="url(#f17zdb3flwujhn)" height="60.5375" id="RegisterEmployeeController" style="stroke:#A80036;stroke-width:1.2000000000000002;" width="150.4" x="204" y="120.4"/><ellipse cx="216" cy="133.2" fill="#ADD1B2" rx="8.8" ry="8.8" style="stroke:#A80036;stroke-width:0.8000000000000002;"/><path d="M217.6,130.4 Q217.7625,130 217.95,129.8 Q218.1375,129.6 218.35,129.6 Q218.725,129.6 218.9625,129.825 Q219.2,130.05 219.2,130.575 L219.2,131.825 Q219.2,132.35 218.975,132.575 Q218.75,132.8 218.4,132.8 Q218.0875,132.8 217.8875,132.6625 Q217.6875,132.525 217.6,132.1625 Q217.5625,131.9125 217.425,131.775 Q217.175,131.5125 216.725,131.3625 Q216.275,131.2 215.825,131.2 Q215.2625,131.2 214.7875,131.425 Q214.325,131.65 213.9625,132.15 Q213.6,132.65 213.6,133.3375 L213.6,134.075 Q213.6,134.9 214.275,135.45 Q214.95,136 216.15,136 Q216.8625,136 217.3625,135.8375 Q217.65,135.75 217.975,135.4625 Q218.1875,135.3 218.3,135.25 Q218.4125,135.2 218.55,135.2 Q218.8125,135.2 219,135.4125 Q219.2,135.6125 219.2,135.9 Q219.2,136.175 218.925,136.5 Q218.525,136.975 217.8875,137.2375 Q217.05,137.6 216.025,137.6 Q214.825,137.6 213.8625,137.125 Q213.0875,136.75 212.5375,135.9375 Q212,135.125 212,134.1625 L212,133.2875 Q212,132.2875 212.475,131.4125 Q212.9625,130.5375 213.8,130.075 Q214.65,129.6 215.6,129.6 Q216.175,129.6 216.675,129.8 Q217.175,130 217.6,130.4 Z " fill="#000000"/><text fill="#000000" font-family="sans-serif" font-size="9.6" lengthAdjust="spacing" textLength="124.8" x="227.2" y="137.1281">RegisterEmployeeController</text><line style="stroke:#A80036;stroke-width:1.2000000000000002;" x1="204.8" x2="353.6" y1="146" y2="146"/><line style="stroke:#A80036;stroke-width:1.2000000000000002;" x1="204.8" x2="353.6" y1="152.4" y2="152.4"/><text fill="#000000" font-family="sans-serif" font-size="8.8" lengthAdjust="spacing" textLength="94.4" x="208.8" y="164.7352">+newEmployee(empDto)</text><text fill="#000000" font-family="sans-serif" font-size="8.8" lengthAdjust="spacing" textLength="67.2" x="208.8" y="175.8039">+saveEmployee()</text><!--MD5=[02e4b9b7573f1156f41e60aa5b4e25a4]
class Company--><rect codeLine="13" fill="#FEFECE" filter="url(#f17zdb3flwujhn)" height="71.6063" id="Company" style="stroke:#A80036;stroke-width:1.2000000000000002;" width="90.4" x="317.2" y="257.6"/><ellipse cx="339.28" cy="270.4" fill="#ADD1B2" rx="8.8" ry="8.8" style="stroke:#A80036;stroke-width:0.8000000000000002;"/><path d="M340.88,267.6 Q341.0425,267.2 341.23,267 Q341.4175,266.8 341.63,266.8 Q342.005,266.8 342.2425,267.025 Q342.48,267.25 342.48,267.775 L342.48,269.025 Q342.48,269.55 342.255,269.775 Q342.03,270 341.68,270 Q341.3675,270 341.1675,269.8625 Q340.9675,269.725 340.88,269.3625 Q340.8425,269.1125 340.705,268.975 Q340.455,268.7125 340.005,268.5625 Q339.555,268.4 339.105,268.4 Q338.5425,268.4 338.0675,268.625 Q337.605,268.85 337.2425,269.35 Q336.88,269.85 336.88,270.5375 L336.88,271.275 Q336.88,272.1 337.555,272.65 Q338.23,273.2 339.43,273.2 Q340.1425,273.2 340.6425,273.0375 Q340.93,272.95 341.255,272.6625 Q341.4675,272.5 341.58,272.45 Q341.6925,272.4 341.83,272.4 Q342.0925,272.4 342.28,272.6125 Q342.48,272.8125 342.48,273.1 Q342.48,273.375 342.205,273.7 Q341.805,274.175 341.1675,274.4375 Q340.33,274.8 339.305,274.8 Q338.105,274.8 337.1425,274.325 Q336.3675,273.95 335.8175,273.1375 Q335.28,272.325 335.28,271.3625 L335.28,270.4875 Q335.28,269.4875 335.755,268.6125 Q336.2425,267.7375 337.08,267.275 Q337.93,266.8 338.88,266.8 Q339.455,266.8 339.955,267 Q340.455,267.2 340.88,267.6 Z " fill="#000000"/><text fill="#000000" font-family="sans-serif" font-size="9.6" lengthAdjust="spacing" textLength="42.4" x="352.72" y="274.3281">Company</text><line style="stroke:#A80036;stroke-width:1.2000000000000002;" x1="318" x2="406.8" y1="283.2" y2="283.2"/><text fill="#000000" font-family="sans-serif" font-size="8.8" lengthAdjust="spacing" textLength="48" x="322" y="295.5352">-description;</text><line style="stroke:#A80036;stroke-width:1.2000000000000002;" x1="318" x2="406.8" y1="300.6688" y2="300.6688"/><text fill="#000000" font-family="sans-serif" font-size="8.8" lengthAdjust="spacing" textLength="65.6" x="322" y="313.0039">+getRolesStore()</text><text fill="#000000" font-family="sans-serif" font-size="8.8" lengthAdjust="spacing" textLength="80.8" x="322" y="324.0727">+getEmployeeStore()</text><!--MD5=[829fb52c07ade3ad64ef85b99d1fca10]
class EmployeeStore--><rect codeLine="19" fill="#FEFECE" filter="url(#f17zdb3flwujhn)" height="126.95" id="EmployeeStore" style="stroke:#A80036;stroke-width:1.2000000000000002;" width="129.6" x="283.2" y="427.2"/><ellipse cx="311.76" cy="440" fill="#ADD1B2" rx="8.8" ry="8.8" style="stroke:#A80036;stroke-width:0.8000000000000002;"/><path d="M313.36,437.2 Q313.5225,436.8 313.71,436.6 Q313.8975,436.4 314.11,436.4 Q314.485,436.4 314.7225,436.625 Q314.96,436.85 314.96,437.375 L314.96,438.625 Q314.96,439.15 314.735,439.375 Q314.51,439.6 314.16,439.6 Q313.8475,439.6 313.6475,439.4625 Q313.4475,439.325 313.36,438.9625 Q313.3225,438.7125 313.185,438.575 Q312.935,438.3125 312.485,438.1625 Q312.035,438 311.585,438 Q311.0225,438 310.5475,438.225 Q310.085,438.45 309.7225,438.95 Q309.36,439.45 309.36,440.1375 L309.36,440.875 Q309.36,441.7 310.035,442.25 Q310.71,442.8 311.91,442.8 Q312.6225,442.8 313.1225,442.6375 Q313.41,442.55 313.735,442.2625 Q313.9475,442.1 314.06,442.05 Q314.1725,442 314.31,442 Q314.5725,442 314.76,442.2125 Q314.96,442.4125 314.96,442.7 Q314.96,442.975 314.685,443.3 Q314.285,443.775 313.6475,444.0375 Q312.81,444.4 311.785,444.4 Q310.585,444.4 309.6225,443.925 Q308.8475,443.55 308.2975,442.7375 Q307.76,441.925 307.76,440.9625 L307.76,440.0875 Q307.76,439.0875 308.235,438.2125 Q308.7225,437.3375 309.56,436.875 Q310.41,436.4 311.36,436.4 Q311.935,436.4 312.435,436.6 Q312.935,436.8 313.36,437.2 Z " fill="#000000"/><text fill="#000000" font-family="sans-serif" font-size="9.6" lengthAdjust="spacing" textLength="67.2" x="326.64" y="443.9281">EmployeeStore</text><line style="stroke:#A80036;stroke-width:1.2000000000000002;" x1="284" x2="412" y1="452.8" y2="452.8"/><line style="stroke:#A80036;stroke-width:1.2000000000000002;" x1="284" x2="412" y1="459.2" y2="459.2"/><text fill="#000000" font-family="sans-serif" font-size="8.8" lengthAdjust="spacing" textLength="94.4" x="288" y="471.5352">+newEmployee(empDto)</text><text fill="#000000" font-family="sans-serif" font-size="8.8" lengthAdjust="spacing" textLength="120" x="288" y="482.6039">+newSpecialistDoctor(empDto)</text><text fill="#000000" font-family="sans-serif" font-size="8.8" lengthAdjust="spacing" textLength="93.6" x="288" y="493.6727">+validateEmployee(emp)</text><text fill="#000000" font-family="sans-serif" font-size="8.8" lengthAdjust="spacing" textLength="83.2" x="288" y="504.7414">+saveEmployee(emp)</text><text fill="#000000" font-family="sans-serif" font-size="8.8" lengthAdjust="spacing" textLength="72.8" x="288" y="515.8102">-checkDuplicates()</text><text fill="#000000" font-family="sans-serif" font-size="8.8" lengthAdjust="spacing" textLength="84" x="288" y="526.8789">-generatePassword()</text><text fill="#000000" font-family="sans-serif" font-size="8.8" lengthAdjust="spacing" textLength="60.8" x="288" y="537.9477">-addEmployee()</text><text fill="#000000" font-family="sans-serif" font-size="8.8" lengthAdjust="spacing" textLength="86.4" x="288" y="549.0164">-sendEmail(emp, pwd)</text><!--MD5=[7421f545a0d8420c5bec41e74b387d9c]
class Employee--><rect codeLine="30" fill="#FEFECE" filter="url(#f17zdb3flwujhn)" height="126.95" id="Employee" style="stroke:#A80036;stroke-width:1.2000000000000002;" width="69.6" x="86.8" y="616.8"/><ellipse cx="98.8" cy="629.6" fill="#ADD1B2" rx="8.8" ry="8.8" style="stroke:#A80036;stroke-width:0.8000000000000002;"/><path d="M100.4,626.8 Q100.5625,626.4 100.75,626.2 Q100.9375,626 101.15,626 Q101.525,626 101.7625,626.225 Q102,626.45 102,626.975 L102,628.225 Q102,628.75 101.775,628.975 Q101.55,629.2 101.2,629.2 Q100.8875,629.2 100.6875,629.0625 Q100.4875,628.925 100.4,628.5625 Q100.3625,628.3125 100.225,628.175 Q99.975,627.9125 99.525,627.7625 Q99.075,627.6 98.625,627.6 Q98.0625,627.6 97.5875,627.825 Q97.125,628.05 96.7625,628.55 Q96.4,629.05 96.4,629.7375 L96.4,630.475 Q96.4,631.3 97.075,631.85 Q97.75,632.4 98.95,632.4 Q99.6625,632.4 100.1625,632.2375 Q100.45,632.15 100.775,631.8625 Q100.9875,631.7 101.1,631.65 Q101.2125,631.6 101.35,631.6 Q101.6125,631.6 101.8,631.8125 Q102,632.0125 102,632.3 Q102,632.575 101.725,632.9 Q101.325,633.375 100.6875,633.6375 Q99.85,634 98.825,634 Q97.625,634 96.6625,633.525 Q95.8875,633.15 95.3375,632.3375 Q94.8,631.525 94.8,630.5625 L94.8,629.6875 Q94.8,628.6875 95.275,627.8125 Q95.7625,626.9375 96.6,626.475 Q97.45,626 98.4,626 Q98.975,626 99.475,626.2 Q99.975,626.4 100.4,626.8 Z " fill="#000000"/><text fill="#000000" font-family="sans-serif" font-size="9.6" lengthAdjust="spacing" textLength="44" x="110" y="633.5281">Employee</text><line style="stroke:#A80036;stroke-width:1.2000000000000002;" x1="87.6" x2="155.6" y1="642.4" y2="642.4"/><text fill="#000000" font-family="sans-serif" font-size="8.8" lengthAdjust="spacing" textLength="49.6" x="91.6" y="654.7352">-employeeID;</text><text fill="#000000" font-family="sans-serif" font-size="8.8" lengthAdjust="spacing" textLength="26.4" x="91.6" y="665.8039">-name;</text><text fill="#000000" font-family="sans-serif" font-size="8.8" lengthAdjust="spacing" textLength="37.6" x="91.6" y="676.8727">-address;</text><text fill="#000000" font-family="sans-serif" font-size="8.8" lengthAdjust="spacing" textLength="59.2" x="91.6" y="687.9414">-phoneNumber;</text><text fill="#000000" font-family="sans-serif" font-size="8.8" lengthAdjust="spacing" textLength="24.8" x="91.6" y="699.0102">-email;</text><text fill="#000000" font-family="sans-serif" font-size="8.8" lengthAdjust="spacing" textLength="20" x="91.6" y="710.0789">-soc;</text><line style="stroke:#A80036;stroke-width:1.2000000000000002;" x1="87.6" x2="155.6" y1="715.2125" y2="715.2125"/><text fill="#000000" font-family="sans-serif" font-size="8.8" lengthAdjust="spacing" textLength="42.4" x="91.6" y="727.5477">+getEmail()</text><text fill="#000000" font-family="sans-serif" font-size="8.8" lengthAdjust="spacing" textLength="40" x="91.6" y="738.6164">+getRole()</text><!--MD5=[7d96fd15f3014691d2fcaf89c5791e2a]
class SpecialistDoctor--><rect codeLine="42" fill="#FEFECE" filter="url(#f17zdb3flwujhn)" height="49.4688" id="SpecialistDoctor" style="stroke:#A80036;stroke-width:1.2000000000000002;" width="97.6" x="5.6" y="353.6"/><ellipse cx="17.6" cy="366.4" fill="#ADD1B2" rx="8.8" ry="8.8" style="stroke:#A80036;stroke-width:0.8000000000000002;"/><path d="M19.2,363.6 Q19.3625,363.2 19.55,363 Q19.7375,362.8 19.95,362.8 Q20.325,362.8 20.5625,363.025 Q20.8,363.25 20.8,363.775 L20.8,365.025 Q20.8,365.55 20.575,365.775 Q20.35,366 20,366 Q19.6875,366 19.4875,365.8625 Q19.2875,365.725 19.2,365.3625 Q19.1625,365.1125 19.025,364.975 Q18.775,364.7125 18.325,364.5625 Q17.875,364.4 17.425,364.4 Q16.8625,364.4 16.3875,364.625 Q15.925,364.85 15.5625,365.35 Q15.2,365.85 15.2,366.5375 L15.2,367.275 Q15.2,368.1 15.875,368.65 Q16.55,369.2 17.75,369.2 Q18.4625,369.2 18.9625,369.0375 Q19.25,368.95 19.575,368.6625 Q19.7875,368.5 19.9,368.45 Q20.0125,368.4 20.15,368.4 Q20.4125,368.4 20.6,368.6125 Q20.8,368.8125 20.8,369.1 Q20.8,369.375 20.525,369.7 Q20.125,370.175 19.4875,370.4375 Q18.65,370.8 17.625,370.8 Q16.425,370.8 15.4625,370.325 Q14.6875,369.95 14.1375,369.1375 Q13.6,368.325 13.6,367.3625 L13.6,366.4875 Q13.6,365.4875 14.075,364.6125 Q14.5625,363.7375 15.4,363.275 Q16.25,362.8 17.2,362.8 Q17.775,362.8 18.275,363 Q18.775,363.2 19.2,363.6 Z " fill="#000000"/><text fill="#000000" font-family="sans-serif" font-size="9.6" lengthAdjust="spacing" textLength="72" x="28.8" y="370.3281">SpecialistDoctor</text><line style="stroke:#A80036;stroke-width:1.2000000000000002;" x1="6.4" x2="102.4" y1="379.2" y2="379.2"/><text fill="#000000" font-family="sans-serif" font-size="8.8" lengthAdjust="spacing" textLength="78.4" x="10.4" y="391.5352">-doctorIndexNumber</text><line style="stroke:#A80036;stroke-width:1.2000000000000002;" x1="6.4" x2="102.4" y1="396.6688" y2="396.6688"/><!--MD5=[1ef37d5130cf70a00a1bd5542caa0c4c]
class EmpDto--><rect codeLine="46" fill="#FEFECE" filter="url(#f17zdb3flwujhn)" height="115.8813" id="EmpDto" style="stroke:#A80036;stroke-width:1.2000000000000002;" width="108.8" x="67.2" y="92.8"/><ellipse cx="100.44" cy="105.6" fill="#ADD1B2" rx="8.8" ry="8.8" style="stroke:#A80036;stroke-width:0.8000000000000002;"/><path d="M102.04,102.8 Q102.2025,102.4 102.39,102.2 Q102.5775,102 102.79,102 Q103.165,102 103.4025,102.225 Q103.64,102.45 103.64,102.975 L103.64,104.225 Q103.64,104.75 103.415,104.975 Q103.19,105.2 102.84,105.2 Q102.5275,105.2 102.3275,105.0625 Q102.1275,104.925 102.04,104.5625 Q102.0025,104.3125 101.865,104.175 Q101.615,103.9125 101.165,103.7625 Q100.715,103.6 100.265,103.6 Q99.7025,103.6 99.2275,103.825 Q98.765,104.05 98.4025,104.55 Q98.04,105.05 98.04,105.7375 L98.04,106.475 Q98.04,107.3 98.715,107.85 Q99.39,108.4 100.59,108.4 Q101.3025,108.4 101.8025,108.2375 Q102.09,108.15 102.415,107.8625 Q102.6275,107.7 102.74,107.65 Q102.8525,107.6 102.99,107.6 Q103.2525,107.6 103.44,107.8125 Q103.64,108.0125 103.64,108.3 Q103.64,108.575 103.365,108.9 Q102.965,109.375 102.3275,109.6375 Q101.49,110 100.465,110 Q99.265,110 98.3025,109.525 Q97.5275,109.15 96.9775,108.3375 Q96.44,107.525 96.44,106.5625 L96.44,105.6875 Q96.44,104.6875 96.915,103.8125 Q97.4025,102.9375 98.24,102.475 Q99.09,102 100.04,102 Q100.615,102 101.115,102.2 Q101.615,102.4 102.04,102.8 Z " fill="#000000"/><text fill="#000000" font-family="sans-serif" font-size="9.6" lengthAdjust="spacing" textLength="36" x="116.36" y="109.5281">EmpDto</text><line style="stroke:#A80036;stroke-width:1.2000000000000002;" x1="68" x2="175.2" y1="118.4" y2="118.4"/><line style="stroke:#A80036;stroke-width:1.2000000000000002;" x1="68" x2="175.2" y1="124.8" y2="124.8"/><text fill="#000000" font-family="sans-serif" font-size="8.8" lengthAdjust="spacing" textLength="40" x="72" y="137.1352">+getRole()</text><text fill="#000000" font-family="sans-serif" font-size="8.8" lengthAdjust="spacing" textLength="44.8" x="72" y="148.2039">+getName()</text><text fill="#000000" font-family="sans-serif" font-size="8.8" lengthAdjust="spacing" textLength="56.8" x="72" y="159.2727">+getAddress()</text><text fill="#000000" font-family="sans-serif" font-size="8.8" lengthAdjust="spacing" textLength="76.8" x="72" y="170.3414">+getPhoneNumber()</text><text fill="#000000" font-family="sans-serif" font-size="8.8" lengthAdjust="spacing" textLength="42.4" x="72" y="181.4102">+getEmail()</text><text fill="#000000" font-family="sans-serif" font-size="8.8" lengthAdjust="spacing" textLength="38.4" x="72" y="192.4789">+getSoc()</text><text fill="#000000" font-family="sans-serif" font-size="8.8" lengthAdjust="spacing" textLength="99.2" x="72" y="203.5477">+getDoctorIndexNumber()</text><!--MD5=[30bfa8bdec435c2c158ef188404e3a07]
class UserRoleStore--><rect codeLine="56" fill="#FEFECE" filter="url(#f17zdb3flwujhn)" height="49.4688" id="UserRoleStore" style="stroke:#A80036;stroke-width:1.2000000000000002;" width="91.2" x="164" y="466"/><ellipse cx="176" cy="478.8" fill="#ADD1B2" rx="8.8" ry="8.8" style="stroke:#A80036;stroke-width:0.8000000000000002;"/><path d="M177.6,476 Q177.7625,475.6 177.95,475.4 Q178.1375,475.2 178.35,475.2 Q178.725,475.2 178.9625,475.425 Q179.2,475.65 179.2,476.175 L179.2,477.425 Q179.2,477.95 178.975,478.175 Q178.75,478.4 178.4,478.4 Q178.0875,478.4 177.8875,478.2625 Q177.6875,478.125 177.6,477.7625 Q177.5625,477.5125 177.425,477.375 Q177.175,477.1125 176.725,476.9625 Q176.275,476.8 175.825,476.8 Q175.2625,476.8 174.7875,477.025 Q174.325,477.25 173.9625,477.75 Q173.6,478.25 173.6,478.9375 L173.6,479.675 Q173.6,480.5 174.275,481.05 Q174.95,481.6 176.15,481.6 Q176.8625,481.6 177.3625,481.4375 Q177.65,481.35 177.975,481.0625 Q178.1875,480.9 178.3,480.85 Q178.4125,480.8 178.55,480.8 Q178.8125,480.8 179,481.0125 Q179.2,481.2125 179.2,481.5 Q179.2,481.775 178.925,482.1 Q178.525,482.575 177.8875,482.8375 Q177.05,483.2 176.025,483.2 Q174.825,483.2 173.8625,482.725 Q173.0875,482.35 172.5375,481.5375 Q172,480.725 172,479.7625 L172,478.8875 Q172,477.8875 172.475,477.0125 Q172.9625,476.1375 173.8,475.675 Q174.65,475.2 175.6,475.2 Q176.175,475.2 176.675,475.4 Q177.175,475.6 177.6,476 Z " fill="#000000"/><text fill="#000000" font-family="sans-serif" font-size="9.6" lengthAdjust="spacing" textLength="65.6" x="187.2" y="482.7281">UserRoleStore</text><line style="stroke:#A80036;stroke-width:1.2000000000000002;" x1="164.8" x2="254.4" y1="491.6" y2="491.6"/><line style="stroke:#A80036;stroke-width:1.2000000000000002;" x1="164.8" x2="254.4" y1="498" y2="498"/><text fill="#000000" font-family="sans-serif" font-size="8.8" lengthAdjust="spacing" textLength="60.8" x="168.8" y="510.3352">+getById(roleId)</text><!--MD5=[8ae808d068a8995f06b9b3ec51357f0b]
class AuthFacade--><rect codeLine="60" fill="#FEFECE" filter="url(#f17zdb3flwujhn)" height="60.5375" id="AuthFacade" style="stroke:#A80036;stroke-width:1.2000000000000002;" width="193.6" x="440.8" y="460.4"/><ellipse cx="508.2" cy="473.2" fill="#ADD1B2" rx="8.8" ry="8.8" style="stroke:#A80036;stroke-width:0.8000000000000002;"/><path d="M509.8,470.4 Q509.9625,470 510.15,469.8 Q510.3375,469.6 510.55,469.6 Q510.925,469.6 511.1625,469.825 Q511.4,470.05 511.4,470.575 L511.4,471.825 Q511.4,472.35 511.175,472.575 Q510.95,472.8 510.6,472.8 Q510.2875,472.8 510.0875,472.6625 Q509.8875,472.525 509.8,472.1625 Q509.7625,471.9125 509.625,471.775 Q509.375,471.5125 508.925,471.3625 Q508.475,471.2 508.025,471.2 Q507.4625,471.2 506.9875,471.425 Q506.525,471.65 506.1625,472.15 Q505.8,472.65 505.8,473.3375 L505.8,474.075 Q505.8,474.9 506.475,475.45 Q507.15,476 508.35,476 Q509.0625,476 509.5625,475.8375 Q509.85,475.75 510.175,475.4625 Q510.3875,475.3 510.5,475.25 Q510.6125,475.2 510.75,475.2 Q511.0125,475.2 511.2,475.4125 Q511.4,475.6125 511.4,475.9 Q511.4,476.175 511.125,476.5 Q510.725,476.975 510.0875,477.2375 Q509.25,477.6 508.225,477.6 Q507.025,477.6 506.0625,477.125 Q505.2875,476.75 504.7375,475.9375 Q504.2,475.125 504.2,474.1625 L504.2,473.2875 Q504.2,472.2875 504.675,471.4125 Q505.1625,470.5375 506,470.075 Q506.85,469.6 507.8,469.6 Q508.375,469.6 508.875,469.8 Q509.375,470 509.8,470.4 Z " fill="#000000"/><text fill="#000000" font-family="sans-serif" font-size="9.6" lengthAdjust="spacing" textLength="52" x="524.6" y="477.1281">AuthFacade</text><line style="stroke:#A80036;stroke-width:1.2000000000000002;" x1="441.6" x2="633.6" y1="486" y2="486"/><line style="stroke:#A80036;stroke-width:1.2000000000000002;" x1="441.6" x2="633.6" y1="492.4" y2="492.4"/><text fill="#000000" font-family="sans-serif" font-size="8.8" lengthAdjust="spacing" textLength="67.2" x="445.6" y="504.7352">+existUser(email)</text><text fill="#000000" font-family="sans-serif" font-size="8.8" lengthAdjust="spacing" textLength="184" x="445.6" y="515.8039">+addUserWithRole(name, email, pwd, roleDesc)</text><!--MD5=[45d42ff7800d812d5f83c7d3273eb427]
class UserRole--><rect codeLine="65" fill="#FEFECE" filter="url(#f17zdb3flwujhn)" height="49.4688" id="UserRole" style="stroke:#A80036;stroke-width:1.2000000000000002;" width="76" x="186.8" y="655.6"/><ellipse cx="202.4" cy="668.4" fill="#ADD1B2" rx="8.8" ry="8.8" style="stroke:#A80036;stroke-width:0.8000000000000002;"/><path d="M204,665.6 Q204.1625,665.2 204.35,665 Q204.5375,664.8 204.75,664.8 Q205.125,664.8 205.3625,665.025 Q205.6,665.25 205.6,665.775 L205.6,667.025 Q205.6,667.55 205.375,667.775 Q205.15,668 204.8,668 Q204.4875,668 204.2875,667.8625 Q204.0875,667.725 204,667.3625 Q203.9625,667.1125 203.825,666.975 Q203.575,666.7125 203.125,666.5625 Q202.675,666.4 202.225,666.4 Q201.6625,666.4 201.1875,666.625 Q200.725,666.85 200.3625,667.35 Q200,667.85 200,668.5375 L200,669.275 Q200,670.1 200.675,670.65 Q201.35,671.2 202.55,671.2 Q203.2625,671.2 203.7625,671.0375 Q204.05,670.95 204.375,670.6625 Q204.5875,670.5 204.7,670.45 Q204.8125,670.4 204.95,670.4 Q205.2125,670.4 205.4,670.6125 Q205.6,670.8125 205.6,671.1 Q205.6,671.375 205.325,671.7 Q204.925,672.175 204.2875,672.4375 Q203.45,672.8 202.425,672.8 Q201.225,672.8 200.2625,672.325 Q199.4875,671.95 198.9375,671.1375 Q198.4,670.325 198.4,669.3625 L198.4,668.4875 Q198.4,667.4875 198.875,666.6125 Q199.3625,665.7375 200.2,665.275 Q201.05,664.8 202,664.8 Q202.575,664.8 203.075,665 Q203.575,665.2 204,665.6 Z " fill="#000000"/><text fill="#000000" font-family="sans-serif" font-size="9.6" lengthAdjust="spacing" textLength="42.4" x="214.4" y="672.3281">UserRole</text><line style="stroke:#A80036;stroke-width:1.2000000000000002;" x1="187.6" x2="262" y1="681.2" y2="681.2"/><line style="stroke:#A80036;stroke-width:1.2000000000000002;" x1="187.6" x2="262" y1="687.6" y2="687.6"/><text fill="#000000" font-family="sans-serif" font-size="8.8" lengthAdjust="spacing" textLength="66.4" x="191.6" y="699.9352">+getDescription()</text><!--MD5=[9a2889027d1a5f59ee05c53124f224f8]
class PasswordGenerator--><rect codeLine="69" fill="#FEFECE" filter="url(#f17zdb3flwujhn)" height="49.4688" id="PasswordGenerator" style="stroke:#A80036;stroke-width:1.2000000000000002;" width="114.4" x="290.8" y="655.6"/><ellipse cx="302.8" cy="668.4" fill="#ADD1B2" rx="8.8" ry="8.8" style="stroke:#A80036;stroke-width:0.8000000000000002;"/><path d="M304.4,665.6 Q304.5625,665.2 304.75,665 Q304.9375,664.8 305.15,664.8 Q305.525,664.8 305.7625,665.025 Q306,665.25 306,665.775 L306,667.025 Q306,667.55 305.775,667.775 Q305.55,668 305.2,668 Q304.8875,668 304.6875,667.8625 Q304.4875,667.725 304.4,667.3625 Q304.3625,667.1125 304.225,666.975 Q303.975,666.7125 303.525,666.5625 Q303.075,666.4 302.625,666.4 Q302.0625,666.4 301.5875,666.625 Q301.125,666.85 300.7625,667.35 Q300.4,667.85 300.4,668.5375 L300.4,669.275 Q300.4,670.1 301.075,670.65 Q301.75,671.2 302.95,671.2 Q303.6625,671.2 304.1625,671.0375 Q304.45,670.95 304.775,670.6625 Q304.9875,670.5 305.1,670.45 Q305.2125,670.4 305.35,670.4 Q305.6125,670.4 305.8,670.6125 Q306,670.8125 306,671.1 Q306,671.375 305.725,671.7 Q305.325,672.175 304.6875,672.4375 Q303.85,672.8 302.825,672.8 Q301.625,672.8 300.6625,672.325 Q299.8875,671.95 299.3375,671.1375 Q298.8,670.325 298.8,669.3625 L298.8,668.4875 Q298.8,667.4875 299.275,666.6125 Q299.7625,665.7375 300.6,665.275 Q301.45,664.8 302.4,664.8 Q302.975,664.8 303.475,665 Q303.975,665.2 304.4,665.6 Z " fill="#000000"/><text fill="#000000" font-family="sans-serif" font-size="9.6" lengthAdjust="spacing" textLength="88.8" x="314" y="672.3281">PasswordGenerator</text><line style="stroke:#A80036;stroke-width:1.2000000000000002;" x1="291.6" x2="404.4" y1="681.2" y2="681.2"/><line style="stroke:#A80036;stroke-width:1.2000000000000002;" x1="291.6" x2="404.4" y1="687.6" y2="687.6"/><text fill="#000000" font-family="sans-serif" font-size="8.8" lengthAdjust="spacing" textLength="85.6" x="295.6" y="699.9352">+generatePassword()</text><!--MD5=[6b9c87d147b597fd90aaec39e153c56a]
class EmailNotificationSender--><rect codeLine="73" fill="#FEFECE" filter="url(#f17zdb3flwujhn)" height="49.4688" id="EmailNotificationSender" style="stroke:#A80036;stroke-width:1.2000000000000002;" width="144.8" x="433.2" y="655.6"/><ellipse cx="450.96" cy="668.4" fill="#ADD1B2" rx="8.8" ry="8.8" style="stroke:#A80036;stroke-width:0.8000000000000002;"/><path d="M452.56,665.6 Q452.7225,665.2 452.91,665 Q453.0975,664.8 453.31,664.8 Q453.685,664.8 453.9225,665.025 Q454.16,665.25 454.16,665.775 L454.16,667.025 Q454.16,667.55 453.935,667.775 Q453.71,668 453.36,668 Q453.0475,668 452.8475,667.8625 Q452.6475,667.725 452.56,667.3625 Q452.5225,667.1125 452.385,666.975 Q452.135,666.7125 451.685,666.5625 Q451.235,666.4 450.785,666.4 Q450.2225,666.4 449.7475,666.625 Q449.285,666.85 448.9225,667.35 Q448.56,667.85 448.56,668.5375 L448.56,669.275 Q448.56,670.1 449.235,670.65 Q449.91,671.2 451.11,671.2 Q451.8225,671.2 452.3225,671.0375 Q452.61,670.95 452.935,670.6625 Q453.1475,670.5 453.26,670.45 Q453.3725,670.4 453.51,670.4 Q453.7725,670.4 453.96,670.6125 Q454.16,670.8125 454.16,671.1 Q454.16,671.375 453.885,671.7 Q453.485,672.175 452.8475,672.4375 Q452.01,672.8 450.985,672.8 Q449.785,672.8 448.8225,672.325 Q448.0475,671.95 447.4975,671.1375 Q446.96,670.325 446.96,669.3625 L446.96,668.4875 Q446.96,667.4875 447.435,666.6125 Q447.9225,665.7375 448.76,665.275 Q449.61,664.8 450.56,664.8 Q451.135,664.8 451.635,665 Q452.135,665.2 452.56,665.6 Z " fill="#000000"/><text fill="#000000" font-family="sans-serif" font-size="9.6" lengthAdjust="spacing" textLength="106.4" x="463.44" y="672.3281">EmailNotificationSender</text><line style="stroke:#A80036;stroke-width:1.2000000000000002;" x1="434" x2="577.2" y1="681.2" y2="681.2"/><line style="stroke:#A80036;stroke-width:1.2000000000000002;" x1="434" x2="577.2" y1="687.6" y2="687.6"/><text fill="#000000" font-family="sans-serif" font-size="8.8" lengthAdjust="spacing" textLength="135.2" x="438" y="699.9352">+sendEmailNotification(name, pwd)</text><!--MD5=[3fd241ca11f270f6bde54c00b8a8581a]
link RegisterEmployeeUI to RegisterEmployeeController--><path codeLine="78" d="M211.856,44.224 C224.072,63.408 243.368,93.712 258.176,116.976 " fill="none" id="RegisterEmployeeUI-to-RegisterEmployeeController" style="stroke:#A80036;stroke-width:0.8000000000000002;stroke-dasharray:7.0,7.0;"/><polygon fill="#A80036" points="260.328,120.36,259.1571,112.5684,258.1783,116.9868,253.7599,116.008,260.328,120.36" style="stroke:#A80036;stroke-width:0.8000000000000002;"/><!--MD5=[969ee03aa52aee79b0e607297418cbd4]
link RegisterEmployeeController to Company--><path codeLine="79" d="M296.64,181.2 C309.08,202.312 325.928,230.904 339.456,253.864 " fill="none" id="RegisterEmployeeController-to-Company" style="stroke:#A80036;stroke-width:0.8000000000000002;stroke-dasharray:7.0,7.0;"/><polygon fill="#A80036" points="341.6,257.496,340.7009,249.6684,339.5689,254.05,335.1873,252.9181,341.6,257.496" style="stroke:#A80036;stroke-width:0.8000000000000002;"/><!--MD5=[ce859576cba61219b3cb4d2d23fdcd81]
link Company to EmployeeStore--><path codeLine="80" d="M359.792,329.824 C357.888,355.744 355.24,391.688 352.936,422.968 " fill="none" id="Company-to-EmployeeStore" style="stroke:#A80036;stroke-width:0.8000000000000002;"/><polygon fill="#A80036" points="352.624,427.152,356.3501,420.2096,352.9212,423.1631,349.9678,419.7342,352.624,427.152" style="stroke:#A80036;stroke-width:0.8000000000000002;"/><text fill="#000000" font-family="sans-serif" font-size="10.4" lengthAdjust="spacing" textLength="29.6" x="358.4" y="382.7961">knows</text><text fill="#000000" font-family="sans-serif" font-size="10.4" lengthAdjust="spacing" textLength="5.6" x="353.4653" y="346.393">1</text><text fill="#000000" font-family="sans-serif" font-size="10.4" lengthAdjust="spacing" textLength="5.6" x="347.1979" y="418.497">1</text><!--MD5=[2f3bac1bdf76f0b867b8cadb6fadb6bc]
link EmployeeStore to Employee--><path codeLine="81" d="M283.152,544.376 C278.608,547.816 274.056,551.192 269.6,554.4 C228.056,584.304 210.952,582.68 172.8,616.8 C168.288,620.84 163.84,625.296 159.568,629.912 " fill="none" id="EmployeeStore-to-Employee" style="stroke:#A80036;stroke-width:0.8000000000000002;"/><polygon fill="#A80036" points="156.64,633.136,163.8547,629.9693,159.3341,630.1793,159.1241,625.6587,156.64,633.136" style="stroke:#A80036;stroke-width:0.8000000000000002;"/><text fill="#000000" font-family="sans-serif" font-size="10.4" lengthAdjust="spacing" textLength="28.8" x="230.4" y="589.9961">stores</text><text fill="#000000" font-family="sans-serif" font-size="10.4" lengthAdjust="spacing" textLength="5.6" x="271.1043" y="546.8939">1</text><text fill="#000000" font-family="sans-serif" font-size="10.4" lengthAdjust="spacing" textLength="4" x="162.7748" y="622.288">*</text><!--MD5=[e66f8c4fa516e197a55cf1b13c3927b3]
link SpecialistDoctor to Employee--><path codeLine="82" d="M59.456,403.264 C67.808,442.848 85.128,524.176 100.8,592.8 C101.408,595.448 102.024,598.144 102.656,600.856 " fill="none" id="SpecialistDoctor-to-Employee" style="stroke:#A80036;stroke-width:0.8000000000000002;"/><polygon fill="none" points="108.144,599.728,106.336,616.584,97.232,602.28,108.144,599.728" style="stroke:#A80036;stroke-width:0.8000000000000002;"/><!--MD5=[2d8a53e9624ba54287d0a5c6da82a9db]
link RegisterEmployeeController to EmployeeStore--><path codeLine="83" d="M281.944,181.416 C285.512,216.944 292.568,277.984 303.2,329.6 C309.568,360.504 318.648,394.208 326.968,422.712 " fill="none" id="RegisterEmployeeController-to-EmployeeStore" style="stroke:#A80036;stroke-width:0.8000000000000002;stroke-dasharray:7.0,7.0;"/><polygon fill="#A80036" points="328.192,426.88,329.248,419.072,327.072,423.04,323.104,420.864,328.192,426.88" style="stroke:#A80036;stroke-width:0.8000000000000002;"/><!--MD5=[75f9d5226b6400bedc4ed4ad8bba776f]
reverse link UserRoleStore to EmployeeStore--><path codeLine="84" d="M259.424,490.8 C267.336,490.8 275.256,490.8 283.168,490.8 " fill="none" id="UserRoleStore-backto-EmployeeStore" style="stroke:#A80036;stroke-width:0.8000000000000002;stroke-dasharray:7.0,7.0;"/><polygon fill="#A80036" points="255.28,490.8,262.48,494,259.28,490.8,262.48,487.6,255.28,490.8" style="stroke:#A80036;stroke-width:0.8000000000000002;"/><!--MD5=[27d36d3e9da4627279500943321b912e]
link EmployeeStore to AuthFacade--><path codeLine="85" d="M412.808,490.8 C420.688,490.8 428.576,490.8 436.464,490.8 " fill="none" id="EmployeeStore-to-AuthFacade" style="stroke:#A80036;stroke-width:0.8000000000000002;stroke-dasharray:7.0,7.0;"/><polygon fill="#A80036" points="440.592,490.8,433.392,487.6,436.592,490.8,433.392,494,440.592,490.8" style="stroke:#A80036;stroke-width:0.8000000000000002;"/><!--MD5=[ca893b3ae6901ff4fa49b5086a9a0cb8]
link EmployeeStore to UserRole--><path codeLine="86" d="M306.808,554.464 C285.048,587.664 259.464,626.704 242.728,652.24 " fill="none" id="EmployeeStore-to-UserRole" style="stroke:#A80036;stroke-width:0.8000000000000002;stroke-dasharray:7.0,7.0;"/><polygon fill="#A80036" points="240.528,655.6,247.1508,651.3317,242.7204,652.2543,241.7978,647.8239,240.528,655.6" style="stroke:#A80036;stroke-width:0.8000000000000002;"/><!--MD5=[ffed1774fbf66649fde7e4a6b0b2ab06]
link EmployeeStore to EmpDto--><path codeLine="87" d="M305.944,427.136 C264.928,365.84 202.976,273.24 162.408,212.592 " fill="none" id="EmployeeStore-to-EmpDto" style="stroke:#A80036;stroke-width:0.8000000000000002;stroke-dasharray:7.0,7.0;"/><polygon fill="#A80036" points="160.008,209.008,161.3577,216.7706,162.2347,212.3309,166.6744,213.2079,160.008,209.008" style="stroke:#A80036;stroke-width:0.8000000000000002;"/><!--MD5=[e2518d40b42f84b61088f497e748eb75]
link RegisterEmployeeUI to EmpDto--><path codeLine="88" d="M188.264,44.224 C180.648,56.312 170.248,72.808 159.928,89.176 " fill="none" id="RegisterEmployeeUI-to-EmpDto" style="stroke:#A80036;stroke-width:0.8000000000000002;stroke-dasharray:7.0,7.0;"/><polygon fill="#A80036" points="157.736,92.664,164.2869,88.2861,159.8724,89.2823,158.8762,84.8678,157.736,92.664" style="stroke:#A80036;stroke-width:0.8000000000000002;"/><!--MD5=[fc35fd9d4a3730bb7d2cb34f53579f19]
reverse link EmpDto to RegisterEmployeeController--><path codeLine="89" d="M180.208,150.8 C188.096,150.8 195.984,150.8 203.88,150.8 " fill="none" id="EmpDto-backto-RegisterEmployeeController" style="stroke:#A80036;stroke-width:0.8000000000000002;stroke-dasharray:7.0,7.0;"/><polygon fill="#A80036" points="176.08,150.8,183.28,154,180.08,150.8,183.28,147.6,176.08,150.8" style="stroke:#A80036;stroke-width:0.8000000000000002;"/><!--MD5=[760876a07efe6e3862124bc02e190f63]
link Employee to EmpDto--><path codeLine="90" d="M121.6,616.784 C121.6,514.728 121.6,314.152 121.6,213.008 " fill="none" id="Employee-to-EmpDto" style="stroke:#A80036;stroke-width:0.8000000000000002;stroke-dasharray:7.0,7.0;"/><polygon fill="#A80036" points="121.6,208.856,118.4,216.056,121.6,212.856,124.8,216.056,121.6,208.856" style="stroke:#A80036;stroke-width:0.8000000000000002;"/><!--MD5=[4908b40167aa73d578934113e7bc8e6e]
reverse link EmpDto to SpecialistDoctor--><path codeLine="91" d="M103.408,212.792 C89.648,259.064 71.488,320.128 61.592,353.416 " fill="none" id="EmpDto-backto-SpecialistDoctor" style="stroke:#A80036;stroke-width:0.8000000000000002;stroke-dasharray:7.0,7.0;"/><polygon fill="#A80036" points="104.552,208.92,99.4475,214.922,103.4215,212.7569,105.5866,216.7309,104.552,208.92" style="stroke:#A80036;stroke-width:0.8000000000000002;"/><!--MD5=[cb04af064b34965b13e3441af3b2cb09]
link EmployeeStore to PasswordGenerator--><path codeLine="92" d="M348,554.464 C348,587.256 348,625.752 348,651.296 " fill="none" id="EmployeeStore-to-PasswordGenerator" style="stroke:#A80036;stroke-width:0.8000000000000002;stroke-dasharray:7.0,7.0;"/><polygon fill="#A80036" points="348,655.6,351.2,648.4,348,651.6,344.8,648.4,348,655.6" style="stroke:#A80036;stroke-width:0.8000000000000002;"/><!--MD5=[0d93b922505c6573305c171be8dec02e]
link EmployeeStore to EmailNotificationSender--><path codeLine="93" d="M400.696,554.464 C428.528,587.664 461.264,626.704 482.664,652.24 " fill="none" id="EmployeeStore-to-EmailNotificationSender" style="stroke:#A80036;stroke-width:0.8000000000000002;stroke-dasharray:7.0,7.0;"/><polygon fill="#A80036" points="485.48,655.6,483.3013,648.0281,482.908,652.5365,478.3997,652.1433,485.48,655.6" style="stroke:#A80036;stroke-width:0.8000000000000002;"/><!--MD5=[23a4c38db4501fdaf7eac5cc11ff7303]
@startuml
skinparam classAttributeIconSize 0

class RegisterEmployeeUI
{
}

class RegisterEmployeeController
{
    +newEmployee(empDto)
    +saveEmployee()
}

class Company{
    -description;
    +getRolesStore()
    +getEmployeeStore()
}

class EmployeeStore{
    +newEmployee(empDto)
    +newSpecialistDoctor(empDto)
    +validateEmployee(emp)
    +saveEmployee(emp)
    -checkDuplicates()
    -generatePassword()
    -addEmployee()
    -sendEmail(emp, pwd)
}

class Employee
{
	-employeeID;
	-name;
	-address;
	-phoneNumber;
	-email;
	-soc;
	+getEmail()
	+getRole()
}

class SpecialistDoctor{
    -doctorIndexNumber
}

class EmpDto {
    +getRole()
    +getName()
    +getAddress()
    +getPhoneNumber()
    +getEmail()
    +getSoc()
    +getDoctorIndexNumber()
}

class UserRoleStore {
    +getById(roleId)
}

class AuthFacade {
    +existUser(email)
    +addUserWithRole(name, email, pwd, roleDesc)
}

class UserRole {
    +getDescription()
}

class PasswordGenerator {
    +generatePassword()
}

class EmailNotificationSender {
    +sendEmailNotification(name, pwd)
}


RegisterEmployeeUI ..> RegisterEmployeeController
RegisterEmployeeController ..> Company
Company"1" - -> "1"EmployeeStore : knows
EmployeeStore"1" - -> "*"Employee : stores
SpecialistDoctor -right-|> Employee
RegisterEmployeeController ..> EmployeeStore
EmployeeStore .left.> UserRoleStore
EmployeeStore .right.> AuthFacade
EmployeeStore ..> UserRole
EmployeeStore ..> EmpDto
RegisterEmployeeUI ..> EmpDto
RegisterEmployeeController .left.> EmpDto
Employee ..> EmpDto
SpecialistDoctor .up.> EmpDto
EmployeeStore ..> PasswordGenerator
EmployeeStore ..> EmailNotificationSender
@enduml

PlantUML version 1.2021.5(Sun Apr 25 12:20:28 BST 2021)
(GPL source distribution)
Java Runtime: OpenJDK Runtime Environment
JVM: Dynamic Code Evolution 64-Bit Server VM
Default Encoding: Cp1252
Language: en
Country: US
--></g></svg>