<?xml version="1.0" encoding="UTF-8" standalone="no"?><svg xmlns="http://www.w3.org/2000/svg" xmlns:xlink="http://www.w3.org/1999/xlink" contentScriptType="application/ecmascript" contentStyleType="text/css" height="246px" preserveAspectRatio="none" style="width:588px;height:246px;" version="1.1" viewBox="0 0 588 246" width="588px" zoomAndPan="magnify"><defs><filter height="300%" id="f71oirrfi8xpa" width="300%" x="-1" y="-1"><feGaussianBlur result="blurOut" stdDeviation="2.0"/><feColorMatrix in="blurOut" result="blurOut2" type="matrix" values="0 0 0 0 0 0 0 0 0 0 0 0 0 0 0 0 0 0 .4 0"/><feOffset dx="4.0" dy="4.0" in="blurOut2" result="blurOut3"/><feBlend in="SourceGraphic" in2="blurOut3" mode="normal"/></filter></defs><g><!--MD5=[02e4b9b7573f1156f41e60aa5b4e25a4]
class Company--><rect codeLine="6" fill="#FEFECE" filter="url(#f71oirrfi8xpa)" height="53.8359" id="Company" style="stroke:#A80036;stroke-width:1.5;" width="85" x="468" y="114"/><ellipse cx="483" cy="130" fill="#ADD1B2" rx="11" ry="11" style="stroke:#A80036;stroke-width:1.0;"/><path d="M485,126.5 Q485.2031,126 485.4375,125.75 Q485.6719,125.5 485.9375,125.5 Q486.4063,125.5 486.7031,125.7813 Q487,126.0625 487,126.7188 L487,128.2813 Q487,128.9375 486.7188,129.2188 Q486.4375,129.5 486,129.5 Q485.6094,129.5 485.3594,129.3281 Q485.1094,129.1563 485,128.7031 Q484.9531,128.3906 484.7813,128.2188 Q484.4688,127.8906 483.9063,127.7031 Q483.3438,127.5 482.7813,127.5 Q482.0781,127.5 481.4844,127.7813 Q480.9063,128.0625 480.4531,128.6875 Q480,129.3125 480,130.1719 L480,131.0938 Q480,132.125 480.8438,132.8125 Q481.6875,133.5 483.1875,133.5 Q484.0781,133.5 484.7031,133.2969 Q485.0625,133.1875 485.4688,132.8281 Q485.7344,132.625 485.875,132.5625 Q486.0156,132.5 486.1875,132.5 Q486.5156,132.5 486.75,132.7656 Q487,133.0156 487,133.375 Q487,133.7188 486.6563,134.125 Q486.1563,134.7188 485.3594,135.0469 Q484.3125,135.5 483.0313,135.5 Q481.5313,135.5 480.3281,134.9063 Q479.3594,134.4375 478.6719,133.4219 Q478,132.4063 478,131.2031 L478,130.1094 Q478,128.8594 478.5938,127.7656 Q479.2031,126.6719 480.25,126.0938 Q481.3125,125.5 482.5,125.5 Q483.2188,125.5 483.8438,125.75 Q484.4688,126 485,126.5 Z " fill="#000000"/><text fill="#000000" font-family="sans-serif" font-size="12" lengthAdjust="spacing" textLength="53" x="497" y="134.9102">Company</text><line style="stroke:#A80036;stroke-width:1.5;" x1="469" x2="552" y1="146" y2="146"/><text fill="#000000" font-family="sans-serif" font-size="11" lengthAdjust="spacing" textLength="59" x="474" y="161.4189">-designation</text><!--MD5=[7421f545a0d8420c5bec41e74b387d9c]
class Employee--><rect codeLine="10" fill="#FEFECE" filter="url(#f71oirrfi8xpa)" height="123.0156" id="Employee" style="stroke:#A80036;stroke-width:1.5;" width="87" x="218.5" y="20.5"/><ellipse cx="233.5" cy="36.5" fill="#ADD1B2" rx="11" ry="11" style="stroke:#A80036;stroke-width:1.0;"/><path d="M235.5,33 Q235.7031,32.5 235.9375,32.25 Q236.1719,32 236.4375,32 Q236.9063,32 237.2031,32.2813 Q237.5,32.5625 237.5,33.2188 L237.5,34.7813 Q237.5,35.4375 237.2188,35.7188 Q236.9375,36 236.5,36 Q236.1094,36 235.8594,35.8281 Q235.6094,35.6563 235.5,35.2031 Q235.4531,34.8906 235.2813,34.7188 Q234.9688,34.3906 234.4063,34.2031 Q233.8438,34 233.2813,34 Q232.5781,34 231.9844,34.2813 Q231.4063,34.5625 230.9531,35.1875 Q230.5,35.8125 230.5,36.6719 L230.5,37.5938 Q230.5,38.625 231.3438,39.3125 Q232.1875,40 233.6875,40 Q234.5781,40 235.2031,39.7969 Q235.5625,39.6875 235.9688,39.3281 Q236.2344,39.125 236.375,39.0625 Q236.5156,39 236.6875,39 Q237.0156,39 237.25,39.2656 Q237.5,39.5156 237.5,39.875 Q237.5,40.2188 237.1563,40.625 Q236.6563,41.2188 235.8594,41.5469 Q234.8125,42 233.5313,42 Q232.0313,42 230.8281,41.4063 Q229.8594,40.9375 229.1719,39.9219 Q228.5,38.9063 228.5,37.7031 L228.5,36.6094 Q228.5,35.3594 229.0938,34.2656 Q229.7031,33.1719 230.75,32.5938 Q231.8125,32 233,32 Q233.7188,32 234.3438,32.25 Q234.9688,32.5 235.5,33 Z " fill="#000000"/><text fill="#000000" font-family="sans-serif" font-size="12" lengthAdjust="spacing" textLength="55" x="247.5" y="41.4102">Employee</text><line style="stroke:#A80036;stroke-width:1.5;" x1="219.5" x2="304.5" y1="52.5" y2="52.5"/><text fill="#000000" font-family="sans-serif" font-size="11" lengthAdjust="spacing" textLength="61" x="224.5" y="67.9189">-employeeId;</text><text fill="#000000" font-family="sans-serif" font-size="11" lengthAdjust="spacing" textLength="33" x="224.5" y="81.7549">-name;</text><text fill="#000000" font-family="sans-serif" font-size="11" lengthAdjust="spacing" textLength="47" x="224.5" y="95.5908">-address;</text><text fill="#000000" font-family="sans-serif" font-size="11" lengthAdjust="spacing" textLength="74" x="224.5" y="109.4268">-phoneNumber;</text><text fill="#000000" font-family="sans-serif" font-size="11" lengthAdjust="spacing" textLength="31" x="224.5" y="123.2627">-email;</text><text fill="#000000" font-family="sans-serif" font-size="11" lengthAdjust="spacing" textLength="25" x="224.5" y="137.0986">-soc.</text><!--MD5=[7d96fd15f3014691d2fcaf89c5791e2a]
class SpecialistDoctor--><rect codeLine="19" fill="#FEFECE" filter="url(#f71oirrfi8xpa)" height="53.8359" id="SpecialistDoctor" style="stroke:#A80036;stroke-width:1.5;" width="122" x="201" y="179"/><ellipse cx="216" cy="195" fill="#ADD1B2" rx="11" ry="11" style="stroke:#A80036;stroke-width:1.0;"/><path d="M218,191.5 Q218.2031,191 218.4375,190.75 Q218.6719,190.5 218.9375,190.5 Q219.4063,190.5 219.7031,190.7813 Q220,191.0625 220,191.7188 L220,193.2813 Q220,193.9375 219.7188,194.2188 Q219.4375,194.5 219,194.5 Q218.6094,194.5 218.3594,194.3281 Q218.1094,194.1563 218,193.7031 Q217.9531,193.3906 217.7813,193.2188 Q217.4688,192.8906 216.9063,192.7031 Q216.3438,192.5 215.7813,192.5 Q215.0781,192.5 214.4844,192.7813 Q213.9063,193.0625 213.4531,193.6875 Q213,194.3125 213,195.1719 L213,196.0938 Q213,197.125 213.8438,197.8125 Q214.6875,198.5 216.1875,198.5 Q217.0781,198.5 217.7031,198.2969 Q218.0625,198.1875 218.4688,197.8281 Q218.7344,197.625 218.875,197.5625 Q219.0156,197.5 219.1875,197.5 Q219.5156,197.5 219.75,197.7656 Q220,198.0156 220,198.375 Q220,198.7188 219.6563,199.125 Q219.1563,199.7188 218.3594,200.0469 Q217.3125,200.5 216.0313,200.5 Q214.5313,200.5 213.3281,199.9063 Q212.3594,199.4375 211.6719,198.4219 Q211,197.4063 211,196.2031 L211,195.1094 Q211,193.8594 211.5938,192.7656 Q212.2031,191.6719 213.25,191.0938 Q214.3125,190.5 215.5,190.5 Q216.2188,190.5 216.8438,190.75 Q217.4688,191 218,191.5 Z " fill="#000000"/><text fill="#000000" font-family="sans-serif" font-size="12" lengthAdjust="spacing" textLength="90" x="230" y="199.9102">SpecialistDoctor</text><line style="stroke:#A80036;stroke-width:1.5;" x1="202" x2="322" y1="211" y2="211"/><text fill="#000000" font-family="sans-serif" font-size="11" lengthAdjust="spacing" textLength="98" x="207" y="226.4189">-doctorIndexNumber</text><!--MD5=[3fd616f346a44cd59a91eb10b19e157c]
class User--><rect codeLine="23" fill="#FEFECE" filter="url(#f71oirrfi8xpa)" height="81.5078" id="User" style="stroke:#A80036;stroke-width:1.5;" width="66" x="7" y="41"/><ellipse cx="25.15" cy="57" fill="#ADD1B2" rx="11" ry="11" style="stroke:#A80036;stroke-width:1.0;"/><path d="M27.15,53.5 Q27.3531,53 27.5875,52.75 Q27.8219,52.5 28.0875,52.5 Q28.5563,52.5 28.8531,52.7813 Q29.15,53.0625 29.15,53.7188 L29.15,55.2813 Q29.15,55.9375 28.8688,56.2188 Q28.5875,56.5 28.15,56.5 Q27.7594,56.5 27.5094,56.3281 Q27.2594,56.1563 27.15,55.7031 Q27.1031,55.3906 26.9313,55.2188 Q26.6188,54.8906 26.0563,54.7031 Q25.4938,54.5 24.9313,54.5 Q24.2281,54.5 23.6344,54.7813 Q23.0563,55.0625 22.6031,55.6875 Q22.15,56.3125 22.15,57.1719 L22.15,58.0938 Q22.15,59.125 22.9938,59.8125 Q23.8375,60.5 25.3375,60.5 Q26.2281,60.5 26.8531,60.2969 Q27.2125,60.1875 27.6188,59.8281 Q27.8844,59.625 28.025,59.5625 Q28.1656,59.5 28.3375,59.5 Q28.6656,59.5 28.9,59.7656 Q29.15,60.0156 29.15,60.375 Q29.15,60.7188 28.8063,61.125 Q28.3063,61.7188 27.5094,62.0469 Q26.4625,62.5 25.1813,62.5 Q23.6813,62.5 22.4781,61.9063 Q21.5094,61.4375 20.8219,60.4219 Q20.15,59.4063 20.15,58.2031 L20.15,57.1094 Q20.15,55.8594 20.7438,54.7656 Q21.3531,53.6719 22.4,53.0938 Q23.4625,52.5 24.65,52.5 Q25.3688,52.5 25.9938,52.75 Q26.6188,53 27.15,53.5 Z " fill="#000000"/><text fill="#000000" font-family="sans-serif" font-size="12" lengthAdjust="spacing" textLength="27" x="39.85" y="61.9102">User</text><line style="stroke:#A80036;stroke-width:1.5;" x1="8" x2="72" y1="73" y2="73"/><text fill="#000000" font-family="sans-serif" font-size="11" lengthAdjust="spacing" textLength="30" x="13" y="88.4189">-name</text><text fill="#000000" font-family="sans-serif" font-size="11" lengthAdjust="spacing" textLength="28" x="13" y="102.2549">-email</text><text fill="#000000" font-family="sans-serif" font-size="11" lengthAdjust="spacing" textLength="54" x="13" y="116.0908">-password</text><!--MD5=[12e90e92236ca84f203192a07d84ec5e]
class OrganizationRole--><rect codeLine="29" fill="#FEFECE" filter="url(#f71oirrfi8xpa)" height="53.8359" id="OrganizationRole" style="stroke:#A80036;stroke-width:1.5;" width="127" x="447" y="7"/><ellipse cx="462" cy="23" fill="#ADD1B2" rx="11" ry="11" style="stroke:#A80036;stroke-width:1.0;"/><path d="M464,19.5 Q464.2031,19 464.4375,18.75 Q464.6719,18.5 464.9375,18.5 Q465.4063,18.5 465.7031,18.7813 Q466,19.0625 466,19.7188 L466,21.2813 Q466,21.9375 465.7188,22.2188 Q465.4375,22.5 465,22.5 Q464.6094,22.5 464.3594,22.3281 Q464.1094,22.1563 464,21.7031 Q463.9531,21.3906 463.7813,21.2188 Q463.4688,20.8906 462.9063,20.7031 Q462.3438,20.5 461.7813,20.5 Q461.0781,20.5 460.4844,20.7813 Q459.9063,21.0625 459.4531,21.6875 Q459,22.3125 459,23.1719 L459,24.0938 Q459,25.125 459.8438,25.8125 Q460.6875,26.5 462.1875,26.5 Q463.0781,26.5 463.7031,26.2969 Q464.0625,26.1875 464.4688,25.8281 Q464.7344,25.625 464.875,25.5625 Q465.0156,25.5 465.1875,25.5 Q465.5156,25.5 465.75,25.7656 Q466,26.0156 466,26.375 Q466,26.7188 465.6563,27.125 Q465.1563,27.7188 464.3594,28.0469 Q463.3125,28.5 462.0313,28.5 Q460.5313,28.5 459.3281,27.9063 Q458.3594,27.4375 457.6719,26.4219 Q457,25.4063 457,24.2031 L457,23.1094 Q457,21.8594 457.5938,20.7656 Q458.2031,19.6719 459.25,19.0938 Q460.3125,18.5 461.5,18.5 Q462.2188,18.5 462.8438,18.75 Q463.4688,19 464,19.5 Z " fill="#000000"/><text fill="#000000" font-family="sans-serif" font-size="12" lengthAdjust="spacing" textLength="95" x="476" y="27.9102">OrganizationRole</text><line style="stroke:#A80036;stroke-width:1.5;" x1="448" x2="573" y1="39" y2="39"/><text fill="#000000" font-family="sans-serif" font-size="11" lengthAdjust="spacing" textLength="57" x="453" y="54.4189">-description</text><!--MD5=[09366576ee87d48d594df10cacc83f45]
link Company to Employee--><path codeLine="33" d="M467.78,131.01 C422.66,120.22 351.13,103.09 305.66,92.21 " fill="none" id="Company-Employee" style="stroke:#A80036;stroke-width:1.0;"/><polygon fill="#000000" points="353.1373,94.012,361.2499,98.9755,362.618,93.2591,353.1373,94.012" style="stroke:#000000;stroke-width:1.0;"/><text fill="#000000" font-family="sans-serif" font-size="13" lengthAdjust="spacing" textLength="49" x="367" y="100.4951">employs</text><text fill="#000000" font-family="sans-serif" font-size="13" lengthAdjust="spacing" textLength="7" x="453.1248" y="144.2182">1</text><text fill="#000000" font-family="sans-serif" font-size="13" lengthAdjust="spacing" textLength="5" x="313.5938" y="108.8638">*</text><!--MD5=[7cb409877f018f046a0d655a83f890b9]
link OrganizationRole to Company--><path codeLine="34" d="M510.5,61.36 C510.5,77.52 510.5,97.9 510.5,114 " fill="none" id="OrganizationRole-Company" style="stroke:#A80036;stroke-width:1.0;"/><polygon fill="#000000" points="457,82.6758,454.0611,91.7209,459.9389,91.7209,457,82.6758" style="stroke:#000000;stroke-width:1.0;"/><text fill="#000000" font-family="sans-serif" font-size="13" lengthAdjust="spacing" textLength="78" x="466" y="92.9951">comprehends</text><text fill="#000000" font-family="sans-serif" font-size="13" lengthAdjust="spacing" textLength="5" x="504.9844" y="82.2013">*</text><text fill="#000000" font-family="sans-serif" font-size="13" lengthAdjust="spacing" textLength="7" x="502.6469" y="103.0267">1</text><!--MD5=[372bd27a178b4208a6d241b4516ac7e6]
reverse link Employee to SpecialistDoctor--><path codeLine="35" d="M262,163.75 C262,168.79 262,173.83 262,178.88 " fill="none" id="Employee-backto-SpecialistDoctor" style="stroke:#A80036;stroke-width:1.0;"/><polygon fill="none" points="255,163.68,262,143.68,269,163.68,255,163.68" style="stroke:#A80036;stroke-width:1.0;"/><!--MD5=[241b49406f7a05442b1e788ffaf3787c]
link Employee to OrganizationRole--><path codeLine="36" d="M305.66,73.69 C344.51,66.13 402.41,54.85 446.58,46.25 " fill="none" id="Employee-OrganizationRole" style="stroke:#A80036;stroke-width:1.0;"/><polygon fill="#000000" points="376.9078,43.2201,367.4678,42.0642,368.5912,47.8337,376.9078,43.2201" style="stroke:#000000;stroke-width:1.0;"/><text fill="#000000" font-family="sans-serif" font-size="13" lengthAdjust="spacing" textLength="21" x="381" y="49.4951">has</text><text fill="#000000" font-family="sans-serif" font-size="13" lengthAdjust="spacing" textLength="5" x="313.5938" y="87.1607">*</text><text fill="#000000" font-family="sans-serif" font-size="13" lengthAdjust="spacing" textLength="7" x="432.2059" y="61.9882">1</text><!--MD5=[48afc90033d240f0c7566c2ff402e39b]
link User to Employee--><path codeLine="37" d="M73.46,82 C111.83,82 175.8,82 218.19,82 " fill="none" id="User-Employee" style="stroke:#A80036;stroke-width:1.0;"/><polygon fill="#000000" points="103,73.1758,112.0451,76.1147,112.0451,70.2369,103,73.1758" style="stroke:#000000;stroke-width:1.0;"/><text fill="#000000" font-family="sans-serif" font-size="13" lengthAdjust="spacing" textLength="53" x="117" y="78.4951">becomes</text><text fill="#000000" font-family="sans-serif" font-size="13" lengthAdjust="spacing" textLength="7" x="81.083" y="97.2321">1</text><text fill="#000000" font-family="sans-serif" font-size="13" lengthAdjust="spacing" textLength="22" x="188.4823" y="96.6437">0..1</text><!--MD5=[692037649200a2b7dac71759149f98cf]
@startuml
hide methods
left to right direction
skinparam classAttributeIconSize 0


class Company {
  -designation
}

class Employee {
	-employeeId;
	-name;
	-address;
	-phoneNumber;
	-email;
	-soc.
}

class SpecialistDoctor{
    -doctorIndexNumber
}

class User {
    -name
    -email
    -password
}

class OrganizationRole {
    -description
}

Company "1" - - "*" Employee : employs >
Company "1" -left- "*"OrganizationRole : "comprehends >"
SpecialistDoctor -left-|> Employee
Employee"*" - - "1"OrganizationRole : has >
Employee"0..1" -up- "1"User : becomes >



@enduml

PlantUML version 1.2021.5(Sun Apr 25 12:20:28 BST 2021)
(GPL source distribution)
Java Runtime: OpenJDK Runtime Environment
JVM: Dynamic Code Evolution 64-Bit Server VM
Default Encoding: Cp1252
Language: en
Country: US
--></g></svg>