<?xml version="1.0" encoding="UTF-8" standalone="no"?><svg xmlns="http://www.w3.org/2000/svg" xmlns:xlink="http://www.w3.org/1999/xlink" contentScriptType="application/ecmascript" contentStyleType="text/css" height="501px" preserveAspectRatio="none" style="width:1015px;height:501px;" version="1.1" viewBox="0 0 1015 501" width="1015px" zoomAndPan="magnify"><defs><filter height="300%" id="ft9csxie9u1k7" width="300%" x="-1" y="-1"><feGaussianBlur result="blurOut" stdDeviation="2.0"/><feColorMatrix in="blurOut" result="blurOut2" type="matrix" values="0 0 0 0 0 0 0 0 0 0 0 0 0 0 0 0 0 0 .4 0"/><feOffset dx="4.0" dy="4.0" in="blurOut2" result="blurOut3"/><feBlend in="SourceGraphic" in2="blurOut3" mode="normal"/></filter></defs><g><!--MD5=[9784ac9eec747b3d21d2960285ffcace]
class RegisterNewClinicalAnalysisUI--><rect codeLine="3" fill="#FEFECE" filter="url(#ft9csxie9u1k7)" height="48" id="RegisterNewClinicalAnalysisUI" style="stroke:#A80036;stroke-width:1.5;" width="203" x="302" y="21"/><ellipse cx="317" cy="37" fill="#ADD1B2" rx="11" ry="11" style="stroke:#A80036;stroke-width:1.0;"/><path d="M319,33.5 Q319.2031,33 319.4375,32.75 Q319.6719,32.5 319.9375,32.5 Q320.4063,32.5 320.7031,32.7813 Q321,33.0625 321,33.7188 L321,35.2813 Q321,35.9375 320.7188,36.2188 Q320.4375,36.5 320,36.5 Q319.6094,36.5 319.3594,36.3281 Q319.1094,36.1563 319,35.7031 Q318.9531,35.3906 318.7813,35.2188 Q318.4688,34.8906 317.9063,34.7031 Q317.3438,34.5 316.7813,34.5 Q316.0781,34.5 315.4844,34.7813 Q314.9063,35.0625 314.4531,35.6875 Q314,36.3125 314,37.1719 L314,38.0938 Q314,39.125 314.8438,39.8125 Q315.6875,40.5 317.1875,40.5 Q318.0781,40.5 318.7031,40.2969 Q319.0625,40.1875 319.4688,39.8281 Q319.7344,39.625 319.875,39.5625 Q320.0156,39.5 320.1875,39.5 Q320.5156,39.5 320.75,39.7656 Q321,40.0156 321,40.375 Q321,40.7188 320.6563,41.125 Q320.1563,41.7188 319.3594,42.0469 Q318.3125,42.5 317.0313,42.5 Q315.5313,42.5 314.3281,41.9063 Q313.3594,41.4375 312.6719,40.4219 Q312,39.4063 312,38.2031 L312,37.1094 Q312,35.8594 312.5938,34.7656 Q313.2031,33.6719 314.25,33.0938 Q315.3125,32.5 316.5,32.5 Q317.2188,32.5 317.8438,32.75 Q318.4688,33 319,33.5 Z " fill="#000000"/><text fill="#000000" font-family="sans-serif" font-size="12" lengthAdjust="spacing" textLength="171" x="331" y="41.9102">RegisterNewClinicalAnalysisUI</text><line style="stroke:#A80036;stroke-width:1.5;" x1="303" x2="504" y1="53" y2="53"/><line style="stroke:#A80036;stroke-width:1.5;" x1="303" x2="504" y1="61" y2="61"/><!--MD5=[4603498e8ac783f3cc94c7baa3c2c642]
class RegisterNewClinicalAnalysisController--><rect codeLine="6" fill="#FEFECE" filter="url(#ft9csxie9u1k7)" height="89.5078" id="RegisterNewClinicalAnalysisController" style="stroke:#A80036;stroke-width:1.5;" width="477" x="165" y="161"/><ellipse cx="292.75" cy="177" fill="#ADD1B2" rx="11" ry="11" style="stroke:#A80036;stroke-width:1.0;"/><path d="M294.75,173.5 Q294.9531,173 295.1875,172.75 Q295.4219,172.5 295.6875,172.5 Q296.1563,172.5 296.4531,172.7813 Q296.75,173.0625 296.75,173.7188 L296.75,175.2813 Q296.75,175.9375 296.4688,176.2188 Q296.1875,176.5 295.75,176.5 Q295.3594,176.5 295.1094,176.3281 Q294.8594,176.1563 294.75,175.7031 Q294.7031,175.3906 294.5313,175.2188 Q294.2188,174.8906 293.6563,174.7031 Q293.0938,174.5 292.5313,174.5 Q291.8281,174.5 291.2344,174.7813 Q290.6563,175.0625 290.2031,175.6875 Q289.75,176.3125 289.75,177.1719 L289.75,178.0938 Q289.75,179.125 290.5938,179.8125 Q291.4375,180.5 292.9375,180.5 Q293.8281,180.5 294.4531,180.2969 Q294.8125,180.1875 295.2188,179.8281 Q295.4844,179.625 295.625,179.5625 Q295.7656,179.5 295.9375,179.5 Q296.2656,179.5 296.5,179.7656 Q296.75,180.0156 296.75,180.375 Q296.75,180.7188 296.4063,181.125 Q295.9063,181.7188 295.1094,182.0469 Q294.0625,182.5 292.7813,182.5 Q291.2813,182.5 290.0781,181.9063 Q289.1094,181.4375 288.4219,180.4219 Q287.75,179.4063 287.75,178.2031 L287.75,177.1094 Q287.75,175.8594 288.3438,174.7656 Q288.9531,173.6719 290,173.0938 Q291.0625,172.5 292.25,172.5 Q292.9688,172.5 293.5938,172.75 Q294.2188,173 294.75,173.5 Z " fill="#000000"/><text fill="#000000" font-family="sans-serif" font-size="12" lengthAdjust="spacing" textLength="213" x="313.25" y="181.9102">RegisterNewClinicalAnalysisController</text><line style="stroke:#A80036;stroke-width:1.5;" x1="166" x2="641" y1="193" y2="193"/><line style="stroke:#A80036;stroke-width:1.5;" x1="166" x2="641" y1="201" y2="201"/><text fill="#000000" font-family="sans-serif" font-size="11" lengthAdjust="spacing" textLength="465" x="171" y="216.4189">+registerNewClinicalAnalysisLaboratory(name, phoneNumber, laboratoryID, tinNumber, address)</text><text fill="#000000" font-family="sans-serif" font-size="11" lengthAdjust="spacing" textLength="166" x="171" y="230.2549">+saveClinicalAnalysisLaboratory()</text><text fill="#000000" font-family="sans-serif" font-size="11" lengthAdjust="spacing" textLength="91" x="171" y="244.0908">+addTestType(ttId)</text><!--MD5=[1934a092c0e7d4da7dc7075b6f4b6b03]
class ClinicalAnalysisLaboratory--><rect codeLine="13" fill="#FEFECE" filter="url(#ft9csxie9u1k7)" height="158.6875" id="ClinicalAnalysisLaboratory" style="stroke:#A80036;stroke-width:1.5;" width="417" x="65" y="329"/><ellipse cx="196.75" cy="345" fill="#ADD1B2" rx="11" ry="11" style="stroke:#A80036;stroke-width:1.0;"/><path d="M198.75,341.5 Q198.9531,341 199.1875,340.75 Q199.4219,340.5 199.6875,340.5 Q200.1563,340.5 200.4531,340.7813 Q200.75,341.0625 200.75,341.7188 L200.75,343.2813 Q200.75,343.9375 200.4688,344.2188 Q200.1875,344.5 199.75,344.5 Q199.3594,344.5 199.1094,344.3281 Q198.8594,344.1563 198.75,343.7031 Q198.7031,343.3906 198.5313,343.2188 Q198.2188,342.8906 197.6563,342.7031 Q197.0938,342.5 196.5313,342.5 Q195.8281,342.5 195.2344,342.7813 Q194.6563,343.0625 194.2031,343.6875 Q193.75,344.3125 193.75,345.1719 L193.75,346.0938 Q193.75,347.125 194.5938,347.8125 Q195.4375,348.5 196.9375,348.5 Q197.8281,348.5 198.4531,348.2969 Q198.8125,348.1875 199.2188,347.8281 Q199.4844,347.625 199.625,347.5625 Q199.7656,347.5 199.9375,347.5 Q200.2656,347.5 200.5,347.7656 Q200.75,348.0156 200.75,348.375 Q200.75,348.7188 200.4063,349.125 Q199.9063,349.7188 199.1094,350.0469 Q198.0625,350.5 196.7813,350.5 Q195.2813,350.5 194.0781,349.9063 Q193.1094,349.4375 192.4219,348.4219 Q191.75,347.4063 191.75,346.2031 L191.75,345.1094 Q191.75,343.8594 192.3438,342.7656 Q192.9531,341.6719 194,341.0938 Q195.0625,340.5 196.25,340.5 Q196.9688,340.5 197.5938,340.75 Q198.2188,341 198.75,341.5 Z " fill="#000000"/><text fill="#000000" font-family="sans-serif" font-size="12" lengthAdjust="spacing" textLength="145" x="217.25" y="349.9102">ClinicalAnalysisLaboratory</text><line style="stroke:#A80036;stroke-width:1.5;" x1="66" x2="481" y1="361" y2="361"/><text fill="#000000" font-family="sans-serif" font-size="11" lengthAdjust="spacing" textLength="30" x="71" y="376.4189">-name</text><text fill="#000000" font-family="sans-serif" font-size="11" lengthAdjust="spacing" textLength="71" x="71" y="390.2549">-phoneNumber</text><text fill="#000000" font-family="sans-serif" font-size="11" lengthAdjust="spacing" textLength="62" x="71" y="404.0908">-laboratoryID</text><text fill="#000000" font-family="sans-serif" font-size="11" lengthAdjust="spacing" textLength="52" x="71" y="417.9268">-tinNumber</text><text fill="#000000" font-family="sans-serif" font-size="11" lengthAdjust="spacing" textLength="44" x="71" y="431.7627">-address</text><text fill="#000000" font-family="sans-serif" font-size="11" lengthAdjust="spacing" textLength="75" x="71" y="445.5986">-typeOfTestList</text><line style="stroke:#A80036;stroke-width:1.5;" x1="66" x2="481" y1="452.0156" y2="452.0156"/><text fill="#000000" font-family="sans-serif" font-size="11" lengthAdjust="spacing" textLength="405" x="71" y="467.4346">+ClinicalAnalysisLaboratory(laboratoryID, name, address, phoneNumber, tinNumber)</text><text fill="#000000" font-family="sans-serif" font-size="11" lengthAdjust="spacing" textLength="83" x="71" y="481.2705">+addTestType(tt)</text><!--MD5=[02e4b9b7573f1156f41e60aa5b4e25a4]
class Company--><rect codeLine="24" fill="#FEFECE" filter="url(#ft9csxie9u1k7)" height="89.5078" id="Company" style="stroke:#A80036;stroke-width:1.5;" width="195" x="677" y="161"/><ellipse cx="743.75" cy="177" fill="#ADD1B2" rx="11" ry="11" style="stroke:#A80036;stroke-width:1.0;"/><path d="M745.75,173.5 Q745.9531,173 746.1875,172.75 Q746.4219,172.5 746.6875,172.5 Q747.1563,172.5 747.4531,172.7813 Q747.75,173.0625 747.75,173.7188 L747.75,175.2813 Q747.75,175.9375 747.4688,176.2188 Q747.1875,176.5 746.75,176.5 Q746.3594,176.5 746.1094,176.3281 Q745.8594,176.1563 745.75,175.7031 Q745.7031,175.3906 745.5313,175.2188 Q745.2188,174.8906 744.6563,174.7031 Q744.0938,174.5 743.5313,174.5 Q742.8281,174.5 742.2344,174.7813 Q741.6563,175.0625 741.2031,175.6875 Q740.75,176.3125 740.75,177.1719 L740.75,178.0938 Q740.75,179.125 741.5938,179.8125 Q742.4375,180.5 743.9375,180.5 Q744.8281,180.5 745.4531,180.2969 Q745.8125,180.1875 746.2188,179.8281 Q746.4844,179.625 746.625,179.5625 Q746.7656,179.5 746.9375,179.5 Q747.2656,179.5 747.5,179.7656 Q747.75,180.0156 747.75,180.375 Q747.75,180.7188 747.4063,181.125 Q746.9063,181.7188 746.1094,182.0469 Q745.0625,182.5 743.7813,182.5 Q742.2813,182.5 741.0781,181.9063 Q740.1094,181.4375 739.4219,180.4219 Q738.75,179.4063 738.75,178.2031 L738.75,177.1094 Q738.75,175.8594 739.3438,174.7656 Q739.9531,173.6719 741,173.0938 Q742.0625,172.5 743.25,172.5 Q743.9688,172.5 744.5938,172.75 Q745.2188,173 745.75,173.5 Z " fill="#000000"/><text fill="#000000" font-family="sans-serif" font-size="12" lengthAdjust="spacing" textLength="53" x="764.25" y="181.9102">Company</text><line style="stroke:#A80036;stroke-width:1.5;" x1="678" x2="871" y1="193" y2="193"/><text fill="#000000" font-family="sans-serif" font-size="11" lengthAdjust="spacing" textLength="57" x="683" y="208.4189">-description</text><line style="stroke:#A80036;stroke-width:1.5;" x1="678" x2="871" y1="214.8359" y2="214.8359"/><text fill="#000000" font-family="sans-serif" font-size="11" lengthAdjust="spacing" textLength="183" x="683" y="230.2549">+getClinicalAnalysisLaboratoryStore()</text><text fill="#000000" font-family="sans-serif" font-size="11" lengthAdjust="spacing" textLength="100" x="683" y="244.0908">+getTestTypeStore()</text><!--MD5=[438281daef332c5ccec4fb6cf3747e9a]
class ClinicalAnalysisLaboratoryStore--><rect codeLine="30" fill="#FEFECE" filter="url(#ft9csxie9u1k7)" height="103.3438" id="ClinicalAnalysisLaboratoryStore" style="stroke:#A80036;stroke-width:1.5;" width="454" x="547.5" y="357"/><ellipse cx="683.25" cy="373" fill="#ADD1B2" rx="11" ry="11" style="stroke:#A80036;stroke-width:1.0;"/><path d="M685.25,369.5 Q685.4531,369 685.6875,368.75 Q685.9219,368.5 686.1875,368.5 Q686.6563,368.5 686.9531,368.7813 Q687.25,369.0625 687.25,369.7188 L687.25,371.2813 Q687.25,371.9375 686.9688,372.2188 Q686.6875,372.5 686.25,372.5 Q685.8594,372.5 685.6094,372.3281 Q685.3594,372.1563 685.25,371.7031 Q685.2031,371.3906 685.0313,371.2188 Q684.7188,370.8906 684.1563,370.7031 Q683.5938,370.5 683.0313,370.5 Q682.3281,370.5 681.7344,370.7813 Q681.1563,371.0625 680.7031,371.6875 Q680.25,372.3125 680.25,373.1719 L680.25,374.0938 Q680.25,375.125 681.0938,375.8125 Q681.9375,376.5 683.4375,376.5 Q684.3281,376.5 684.9531,376.2969 Q685.3125,376.1875 685.7188,375.8281 Q685.9844,375.625 686.125,375.5625 Q686.2656,375.5 686.4375,375.5 Q686.7656,375.5 687,375.7656 Q687.25,376.0156 687.25,376.375 Q687.25,376.7188 686.9063,377.125 Q686.4063,377.7188 685.6094,378.0469 Q684.5625,378.5 683.2813,378.5 Q681.7813,378.5 680.5781,377.9063 Q679.6094,377.4375 678.9219,376.4219 Q678.25,375.4063 678.25,374.2031 L678.25,373.1094 Q678.25,371.8594 678.8438,370.7656 Q679.4531,369.6719 680.5,369.0938 Q681.5625,368.5 682.75,368.5 Q683.4688,368.5 684.0938,368.75 Q684.7188,369 685.25,369.5 Z " fill="#000000"/><text fill="#000000" font-family="sans-serif" font-size="12" lengthAdjust="spacing" textLength="174" x="703.75" y="377.9102">ClinicalAnalysisLaboratoryStore</text><line style="stroke:#A80036;stroke-width:1.5;" x1="548.5" x2="1000.5" y1="389" y2="389"/><line style="stroke:#A80036;stroke-width:1.5;" x1="548.5" x2="1000.5" y1="397" y2="397"/><text fill="#000000" font-family="sans-serif" font-size="11" lengthAdjust="spacing" textLength="193" x="553.5" y="412.4189">+validateClinicalAnalysisLaboratory(cal)</text><text fill="#000000" font-family="sans-serif" font-size="11" lengthAdjust="spacing" textLength="442" x="553.5" y="426.2549">+registerClinicalAnalysisLaboratory(laboratoryID, name, address, phoneNumber, tinNumber)</text><text fill="#000000" font-family="sans-serif" font-size="11" lengthAdjust="spacing" textLength="180" x="553.5" y="440.0908">+saveClinicalAnalysisLaboratory(cal)</text><text fill="#000000" font-family="sans-serif" font-size="11" lengthAdjust="spacing" textLength="172" x="553.5" y="453.9268">-addClinicalAnalysisLaboratory(cal)</text><!--MD5=[6ba72ddf03822b91e8d41ca71de58ed3]
class TestTypeStore--><rect codeLine="37" fill="#FEFECE" filter="url(#ft9csxie9u1k7)" height="75.6719" id="TestTypeStore" style="stroke:#A80036;stroke-width:1.5;" width="111" x="629" y="7"/><ellipse cx="644" cy="23" fill="#ADD1B2" rx="11" ry="11" style="stroke:#A80036;stroke-width:1.0;"/><path d="M646,19.5 Q646.2031,19 646.4375,18.75 Q646.6719,18.5 646.9375,18.5 Q647.4063,18.5 647.7031,18.7813 Q648,19.0625 648,19.7188 L648,21.2813 Q648,21.9375 647.7188,22.2188 Q647.4375,22.5 647,22.5 Q646.6094,22.5 646.3594,22.3281 Q646.1094,22.1563 646,21.7031 Q645.9531,21.3906 645.7813,21.2188 Q645.4688,20.8906 644.9063,20.7031 Q644.3438,20.5 643.7813,20.5 Q643.0781,20.5 642.4844,20.7813 Q641.9063,21.0625 641.4531,21.6875 Q641,22.3125 641,23.1719 L641,24.0938 Q641,25.125 641.8438,25.8125 Q642.6875,26.5 644.1875,26.5 Q645.0781,26.5 645.7031,26.2969 Q646.0625,26.1875 646.4688,25.8281 Q646.7344,25.625 646.875,25.5625 Q647.0156,25.5 647.1875,25.5 Q647.5156,25.5 647.75,25.7656 Q648,26.0156 648,26.375 Q648,26.7188 647.6563,27.125 Q647.1563,27.7188 646.3594,28.0469 Q645.3125,28.5 644.0313,28.5 Q642.5313,28.5 641.3281,27.9063 Q640.3594,27.4375 639.6719,26.4219 Q639,25.4063 639,24.2031 L639,23.1094 Q639,21.8594 639.5938,20.7656 Q640.2031,19.6719 641.25,19.0938 Q642.3125,18.5 643.5,18.5 Q644.2188,18.5 644.8438,18.75 Q645.4688,19 646,19.5 Z " fill="#000000"/><text fill="#000000" font-family="sans-serif" font-size="12" lengthAdjust="spacing" textLength="79" x="658" y="27.9102">TestTypeStore</text><line style="stroke:#A80036;stroke-width:1.5;" x1="630" x2="739" y1="39" y2="39"/><line style="stroke:#A80036;stroke-width:1.5;" x1="630" x2="739" y1="47" y2="47"/><text fill="#000000" font-family="sans-serif" font-size="11" lengthAdjust="spacing" textLength="91" x="635" y="62.4189">+getTestTypeList()</text><text fill="#000000" font-family="sans-serif" font-size="11" lengthAdjust="spacing" textLength="88" x="635" y="76.2549">+getTestType(ttId)</text><!--MD5=[724ead17d3ca940995455a91cefd1e12]
class TestTypeMapper--><rect codeLine="42" fill="#FEFECE" filter="url(#ft9csxie9u1k7)" height="61.8359" id="TestTypeMapper" style="stroke:#A80036;stroke-width:1.5;" width="123" x="7" y="175"/><ellipse cx="22" cy="191" fill="#ADD1B2" rx="11" ry="11" style="stroke:#A80036;stroke-width:1.0;"/><path d="M24,187.5 Q24.2031,187 24.4375,186.75 Q24.6719,186.5 24.9375,186.5 Q25.4063,186.5 25.7031,186.7813 Q26,187.0625 26,187.7188 L26,189.2813 Q26,189.9375 25.7188,190.2188 Q25.4375,190.5 25,190.5 Q24.6094,190.5 24.3594,190.3281 Q24.1094,190.1563 24,189.7031 Q23.9531,189.3906 23.7813,189.2188 Q23.4688,188.8906 22.9063,188.7031 Q22.3438,188.5 21.7813,188.5 Q21.0781,188.5 20.4844,188.7813 Q19.9063,189.0625 19.4531,189.6875 Q19,190.3125 19,191.1719 L19,192.0938 Q19,193.125 19.8438,193.8125 Q20.6875,194.5 22.1875,194.5 Q23.0781,194.5 23.7031,194.2969 Q24.0625,194.1875 24.4688,193.8281 Q24.7344,193.625 24.875,193.5625 Q25.0156,193.5 25.1875,193.5 Q25.5156,193.5 25.75,193.7656 Q26,194.0156 26,194.375 Q26,194.7188 25.6563,195.125 Q25.1563,195.7188 24.3594,196.0469 Q23.3125,196.5 22.0313,196.5 Q20.5313,196.5 19.3281,195.9063 Q18.3594,195.4375 17.6719,194.4219 Q17,193.4063 17,192.2031 L17,191.1094 Q17,189.8594 17.5938,188.7656 Q18.2031,187.6719 19.25,187.0938 Q20.3125,186.5 21.5,186.5 Q22.2188,186.5 22.8438,186.75 Q23.4688,187 24,187.5 Z " fill="#000000"/><text fill="#000000" font-family="sans-serif" font-size="12" lengthAdjust="spacing" textLength="91" x="36" y="195.9102">TestTypeMapper</text><line style="stroke:#A80036;stroke-width:1.5;" x1="8" x2="129" y1="207" y2="207"/><line style="stroke:#A80036;stroke-width:1.5;" x1="8" x2="129" y1="215" y2="215"/><text fill="#000000" font-family="sans-serif" font-size="11" lengthAdjust="spacing" textLength="53" x="13" y="230.4189">+toDto(lTT)</text><!--MD5=[ed56a9e5a773987a86fed31edd7d4bbe]
link RegisterNewClinicalAnalysisUI to RegisterNewClinicalAnalysisController--><path codeLine="46" d="M403.5,69.12 C403.5,91.66 403.5,126.66 403.5,155.49 " fill="none" id="RegisterNewClinicalAnalysisUI-to-RegisterNewClinicalAnalysisController" style="stroke:#A80036;stroke-width:1.0;stroke-dasharray:7.0,7.0;"/><polygon fill="#A80036" points="403.5,160.8,407.5,151.8,403.5,155.8,399.5,151.8,403.5,160.8" style="stroke:#A80036;stroke-width:1.0;"/><!--MD5=[4b7fb5dc316cd1f0935bc2991c382dac]
link RegisterNewClinicalAnalysisController to Company--><path codeLine="47" d="M642.26,206 C652.08,206 661.91,206 671.73,206 " fill="none" id="RegisterNewClinicalAnalysisController-to-Company" style="stroke:#A80036;stroke-width:1.0;stroke-dasharray:7.0,7.0;"/><polygon fill="#A80036" points="676.87,206,667.87,202,671.87,206,667.87,210,676.87,206" style="stroke:#A80036;stroke-width:1.0;"/><!--MD5=[d5d4b42917cb31a69bb3aac5f1b54cca]
reverse link TestTypeStore to Company--><path codeLine="48" d="M708.11,87.71 C720.86,110.23 736.59,138.02 749.54,160.9 " fill="none" id="TestTypeStore-backto-Company" style="stroke:#A80036;stroke-width:1.0;"/><polygon fill="#A80036" points="705.6,83.28,706.5367,93.0842,708.0561,87.6352,713.5051,89.1545,705.6,83.28" style="stroke:#A80036;stroke-width:1.0;"/><text fill="#000000" font-family="sans-serif" font-size="13" lengthAdjust="spacing" textLength="28" x="732.5" y="127.4951">uses</text><text fill="#000000" font-family="sans-serif" font-size="13" lengthAdjust="spacing" textLength="7" x="701.405" y="104.2052">1</text><text fill="#000000" font-family="sans-serif" font-size="13" lengthAdjust="spacing" textLength="7" x="738.0042" y="149.9995">1</text><!--MD5=[f379172a0573607dd0ae1a4ea50b9294]
link Company to ClinicalAnalysisLaboratoryStore--><path codeLine="49" d="M774.5,251 C774.5,280.65 774.5,320.01 774.5,351.84 " fill="none" id="Company-to-ClinicalAnalysisLaboratoryStore" style="stroke:#A80036;stroke-width:1.0;"/><polygon fill="#A80036" points="774.5,356.88,778.5,347.88,774.5,351.88,770.5,347.88,774.5,356.88" style="stroke:#A80036;stroke-width:1.0;"/><text fill="#000000" font-family="sans-serif" font-size="13" lengthAdjust="spacing" textLength="28" x="775.5" y="295.4951">uses</text><text fill="#000000" font-family="sans-serif" font-size="13" lengthAdjust="spacing" textLength="7" x="767.0078" y="272.0076">1</text><text fill="#000000" font-family="sans-serif" font-size="13" lengthAdjust="spacing" textLength="7" x="767.0078" y="345.9916">1</text><!--MD5=[20f2f02007c4c25439cbbcaa7bd17ed1]
reverse link ClinicalAnalysisLaboratory to ClinicalAnalysisLaboratoryStore--><path codeLine="50" d="M487.38,408.5 C507.24,408.5 527.41,408.5 547.39,408.5 " fill="none" id="ClinicalAnalysisLaboratory-backto-ClinicalAnalysisLaboratoryStore" style="stroke:#A80036;stroke-width:1.0;"/><polygon fill="#A80036" points="482.34,408.5,491.34,412.5,487.34,408.5,491.34,404.5,482.34,408.5" style="stroke:#A80036;stroke-width:1.0;"/><text fill="#000000" font-family="sans-serif" font-size="13" lengthAdjust="spacing" textLength="29" x="500.25" y="401.9951">store</text><text fill="#000000" font-family="sans-serif" font-size="13" lengthAdjust="spacing" textLength="5" x="489.935" y="405.7195">*</text><text fill="#000000" font-family="sans-serif" font-size="13" lengthAdjust="spacing" textLength="7" x="532.8231" y="405.7327">1</text><!--MD5=[60bc6f435ce99726c417688b9537ba6c]
reverse link TestTypeMapper to RegisterNewClinicalAnalysisController--><path codeLine="51" d="M135.2,206 C145.13,206 155.06,206 164.99,206 " fill="none" id="TestTypeMapper-backto-RegisterNewClinicalAnalysisController" style="stroke:#A80036;stroke-width:1.0;stroke-dasharray:7.0,7.0;"/><polygon fill="#A80036" points="130,206,139,210,135,206,139,202,130,206" style="stroke:#A80036;stroke-width:1.0;"/><!--MD5=[a38d5596d8da852efa5d2072979ca87c]
link RegisterNewClinicalAnalysisController to ClinicalAnalysisLaboratory--><path codeLine="52" d="M374.97,251 C360.98,272.58 343.66,299.29 327.31,324.51 " fill="none" id="RegisterNewClinicalAnalysisController-to-ClinicalAnalysisLaboratory" style="stroke:#A80036;stroke-width:1.0;stroke-dasharray:7.0,7.0;"/><polygon fill="#A80036" points="324.48,328.87,332.7329,323.495,327.2004,324.6748,326.0206,319.1424,324.48,328.87" style="stroke:#A80036;stroke-width:1.0;"/><!--MD5=[9740e5dc116829882bbbfd43c3f42ec8]
link RegisterNewClinicalAnalysisController to ClinicalAnalysisLaboratoryStore--><path codeLine="53" d="M484.92,251 C541.25,281.45 616.53,322.13 676.21,354.38 " fill="none" id="RegisterNewClinicalAnalysisController-to-ClinicalAnalysisLaboratoryStore" style="stroke:#A80036;stroke-width:1.0;stroke-dasharray:7.0,7.0;"/><polygon fill="#A80036" points="680.84,356.88,674.8348,349.0738,676.4445,354.4967,671.0216,356.1065,680.84,356.88" style="stroke:#A80036;stroke-width:1.0;"/><!--MD5=[464519fa9fcb9d21a7a0704759b12868]
reverse link TestTypeStore to RegisterNewClinicalAnalysisController--><path codeLine="54" d="M624.48,79.96 C582.74,103.58 526.7,135.29 481.5,160.86 " fill="none" id="TestTypeStore-backto-RegisterNewClinicalAnalysisController" style="stroke:#A80036;stroke-width:1.0;stroke-dasharray:7.0,7.0;"/><polygon fill="#A80036" points="628.98,77.41,619.1758,78.3467,624.6248,79.8661,623.1055,85.3151,628.98,77.41" style="stroke:#A80036;stroke-width:1.0;"/><!--MD5=[7dc243a497b4397206d4b269db5d44ae]
@startuml
skinparam classAttributeIconSize 0

class RegisterNewClinicalAnalysisUI{
}

class RegisterNewClinicalAnalysisController
{
    +registerNewClinicalAnalysisLaboratory(name, phoneNumber, laboratoryID, tinNumber, address)
    +saveClinicalAnalysisLaboratory()
    +addTestType(ttId)
}

class ClinicalAnalysisLaboratory{
    -name
    -phoneNumber
    -laboratoryID
    -tinNumber
    -address
    -typeOfTestList
    +ClinicalAnalysisLaboratory(laboratoryID, name, address, phoneNumber, tinNumber)
    +addTestType(tt)
}

class Company{
	-description
	+getClinicalAnalysisLaboratoryStore()
	+getTestTypeStore()
}

class ClinicalAnalysisLaboratoryStore{
    + validateClinicalAnalysisLaboratory(cal)
    + registerClinicalAnalysisLaboratory(laboratoryID, name, address, phoneNumber, tinNumber)
    + saveClinicalAnalysisLaboratory(cal)
    - addClinicalAnalysisLaboratory(cal)
}

class TestTypeStore{
    +getTestTypeList()
    +getTestType(ttId)
}

class TestTypeMapper {
    +toDto(lTT)
}

RegisterNewClinicalAnalysisUI ..> RegisterNewClinicalAnalysisController
RegisterNewClinicalAnalysisController .right.> Company
Company"1" -up-> "1"TestTypeStore : uses
Company"1" - -> "1"ClinicalAnalysisLaboratoryStore : uses
ClinicalAnalysisLaboratoryStore"1" -left-> "*"ClinicalAnalysisLaboratory : store
RegisterNewClinicalAnalysisController .left.> TestTypeMapper
RegisterNewClinicalAnalysisController ..> ClinicalAnalysisLaboratory
RegisterNewClinicalAnalysisController ..> ClinicalAnalysisLaboratoryStore
RegisterNewClinicalAnalysisController .up.> TestTypeStore
@enduml

PlantUML version 1.2021.5(Sun Apr 25 12:20:28 BST 2021)
(GPL source distribution)
Java Runtime: OpenJDK Runtime Environment
JVM: Dynamic Code Evolution 64-Bit Server VM
Default Encoding: Cp1252
Language: en
Country: US
--></g></svg>