<?xml version="1.0" encoding="UTF-8" standalone="no"?><svg xmlns="http://www.w3.org/2000/svg" xmlns:xlink="http://www.w3.org/1999/xlink" contentScriptType="application/ecmascript" contentStyleType="text/css" height="613.75px" preserveAspectRatio="none" style="width:332px;height:613px;background:#FFFFFF;" version="1.1" viewBox="0 0 332 613" width="332.5px" zoomAndPan="magnify"><defs><filter height="300%" id="f1diel98jjgf4q" width="300%" x="-1" y="-1"><feGaussianBlur result="blurOut" stdDeviation="2.5"/><feColorMatrix in="blurOut" result="blurOut2" type="matrix" values="0 0 0 0 0 0 0 0 0 0 0 0 0 0 0 0 0 0 .4 0"/><feOffset dx="5.0" dy="5.0" in="blurOut2" result="blurOut3"/><feBlend in="SourceGraphic" in2="blurOut3" mode="normal"/></filter></defs><g><!--MD5=[02e4b9b7573f1156f41e60aa5b4e25a4]
class Company--><rect codeLine="5" fill="#FEFECE" filter="url(#f1diel98jjgf4q)" height="67.2949" id="Company" style="stroke:#A80036;stroke-width:1.875;" width="106.25" x="117.6906" y="8.75"/><ellipse cx="136.4406" cy="28.75" fill="#ADD1B2" rx="13.75" ry="13.75" style="stroke:#A80036;stroke-width:1.25;"/><path d="M138.9406,24.375 Q139.1945,23.75 139.4875,23.4375 Q139.7805,23.125 140.1125,23.125 Q140.6984,23.125 141.0695,23.4766 Q141.4406,23.8281 141.4406,24.6484 L141.4406,26.6016 Q141.4406,27.4219 141.0891,27.7734 Q140.7375,28.125 140.1906,28.125 Q139.7023,28.125 139.3898,27.9102 Q139.0773,27.6953 138.9406,27.1289 Q138.882,26.7383 138.6672,26.5234 Q138.2766,26.1133 137.5734,25.8789 Q136.8703,25.625 136.1672,25.625 Q135.2883,25.625 134.5461,25.9766 Q133.8234,26.3281 133.257,27.1094 Q132.6906,27.8906 132.6906,28.9648 L132.6906,30.1172 Q132.6906,31.4063 133.7453,32.2656 Q134.8,33.125 136.675,33.125 Q137.7883,33.125 138.5695,32.8711 Q139.0187,32.7344 139.5266,32.2852 Q139.8586,32.0313 140.0344,31.9531 Q140.2102,31.875 140.425,31.875 Q140.8352,31.875 141.1281,32.207 Q141.4406,32.5195 141.4406,32.9688 Q141.4406,33.3984 141.0109,33.9063 Q140.3859,34.6484 139.3898,35.0586 Q138.0812,35.625 136.4797,35.625 Q134.6047,35.625 133.1008,34.8828 Q131.8898,34.2969 131.0305,33.0273 Q130.1906,31.7578 130.1906,30.2539 L130.1906,28.8867 Q130.1906,27.3242 130.9328,25.957 Q131.6945,24.5898 133.0031,23.8672 Q134.3312,23.125 135.8156,23.125 Q136.7141,23.125 137.4953,23.4375 Q138.2766,23.75 138.9406,24.375 Z " fill="#000000"/><text fill="#000000" font-family="sans-serif" font-size="15" lengthAdjust="spacing" textLength="66.25" x="153.9406" y="34.8877">Company</text><line style="stroke:#A80036;stroke-width:1.875;" x1="118.9406" x2="222.6906" y1="48.75" y2="48.75"/><text fill="#000000" font-family="sans-serif" font-size="13.75" lengthAdjust="spacing" textLength="73.75" x="125.1906" y="68.0237">-designation</text><!--MD5=[ed6624c6556d5e7b1bd23032162d20b7]
class Client--><rect codeLine="9" fill="#FEFECE" filter="url(#f1diel98jjgf4q)" height="188.3594" id="Client" style="stroke:#A80036;stroke-width:1.875;" width="133.75" x="26.4406" y="173.75"/><ellipse cx="69.3781" cy="193.75" fill="#ADD1B2" rx="13.75" ry="13.75" style="stroke:#A80036;stroke-width:1.25;"/><path d="M71.8781,189.375 Q72.132,188.75 72.425,188.4375 Q72.718,188.125 73.05,188.125 Q73.6359,188.125 74.007,188.4766 Q74.3781,188.8281 74.3781,189.6484 L74.3781,191.6016 Q74.3781,192.4219 74.0266,192.7734 Q73.675,193.125 73.1281,193.125 Q72.6398,193.125 72.3273,192.9102 Q72.0148,192.6953 71.8781,192.1289 Q71.8195,191.7383 71.6047,191.5234 Q71.2141,191.1133 70.5109,190.8789 Q69.8078,190.625 69.1047,190.625 Q68.2258,190.625 67.4836,190.9766 Q66.7609,191.3281 66.1945,192.1094 Q65.6281,192.8906 65.6281,193.9648 L65.6281,195.1172 Q65.6281,196.4063 66.6828,197.2656 Q67.7375,198.125 69.6125,198.125 Q70.7258,198.125 71.507,197.8711 Q71.9563,197.7344 72.4641,197.2852 Q72.7961,197.0313 72.9719,196.9531 Q73.1477,196.875 73.3625,196.875 Q73.7727,196.875 74.0656,197.207 Q74.3781,197.5195 74.3781,197.9688 Q74.3781,198.3984 73.9484,198.9063 Q73.3234,199.6484 72.3273,200.0586 Q71.0188,200.625 69.4172,200.625 Q67.5422,200.625 66.0383,199.8828 Q64.8273,199.2969 63.968,198.0273 Q63.1281,196.7578 63.1281,195.2539 L63.1281,193.8867 Q63.1281,192.3242 63.8703,190.957 Q64.632,189.5898 65.9406,188.8672 Q67.2688,188.125 68.7531,188.125 Q69.6516,188.125 70.4328,188.4375 Q71.2141,188.75 71.8781,189.375 Z " fill="#000000"/><text fill="#000000" font-family="sans-serif" font-size="15" lengthAdjust="spacing" textLength="40" x="92.2531" y="199.8877">Client</text><line style="stroke:#A80036;stroke-width:1.875;" x1="27.6906" x2="158.9406" y1="213.75" y2="213.75"/><text fill="#000000" font-family="sans-serif" font-size="13.75" lengthAdjust="spacing" textLength="37.5" x="33.9406" y="233.0237">-name</text><text fill="#000000" font-family="sans-serif" font-size="13.75" lengthAdjust="spacing" textLength="118.75" x="33.9406" y="250.3186">-citizenCardNumber</text><text fill="#000000" font-family="sans-serif" font-size="13.75" lengthAdjust="spacing" textLength="73.75" x="33.9406" y="267.6135">-nhsNumber</text><text fill="#000000" font-family="sans-serif" font-size="13.75" lengthAdjust="spacing" textLength="65" x="33.9406" y="284.9084">-tinNumber</text><text fill="#000000" font-family="sans-serif" font-size="13.75" lengthAdjust="spacing" textLength="58.75" x="33.9406" y="302.2034">-birthDate</text><text fill="#000000" font-family="sans-serif" font-size="13.75" lengthAdjust="spacing" textLength="27.5" x="33.9406" y="319.4983">-sex</text><text fill="#000000" font-family="sans-serif" font-size="13.75" lengthAdjust="spacing" textLength="88.75" x="33.9406" y="336.7932">-phoneNumber</text><text fill="#000000" font-family="sans-serif" font-size="13.75" lengthAdjust="spacing" textLength="35" x="33.9406" y="354.0881">-email</text><!--MD5=[b884fe3280a704cc481343612dc903ea]
class ClinicalAnalysisTest--><rect codeLine="20" fill="#FEFECE" filter="url(#f1diel98jjgf4q)" height="136.4746" id="ClinicalAnalysisTest" style="stroke:#A80036;stroke-width:1.875;" width="178.75" x="58.9406" y="460"/><ellipse cx="77.6906" cy="480" fill="#ADD1B2" rx="13.75" ry="13.75" style="stroke:#A80036;stroke-width:1.25;"/><path d="M80.1906,475.625 Q80.4445,475 80.7375,474.6875 Q81.0305,474.375 81.3625,474.375 Q81.9484,474.375 82.3195,474.7266 Q82.6906,475.0781 82.6906,475.8984 L82.6906,477.8516 Q82.6906,478.6719 82.3391,479.0234 Q81.9875,479.375 81.4406,479.375 Q80.9523,479.375 80.6398,479.1602 Q80.3273,478.9453 80.1906,478.3789 Q80.132,477.9883 79.9172,477.7734 Q79.5266,477.3633 78.8234,477.1289 Q78.1203,476.875 77.4172,476.875 Q76.5383,476.875 75.7961,477.2266 Q75.0734,477.5781 74.507,478.3594 Q73.9406,479.1406 73.9406,480.2148 L73.9406,481.3672 Q73.9406,482.6563 74.9953,483.5156 Q76.05,484.375 77.925,484.375 Q79.0383,484.375 79.8195,484.1211 Q80.2688,483.9844 80.7766,483.5352 Q81.1086,483.2813 81.2844,483.2031 Q81.4602,483.125 81.675,483.125 Q82.0852,483.125 82.3781,483.457 Q82.6906,483.7695 82.6906,484.2188 Q82.6906,484.6484 82.2609,485.1563 Q81.6359,485.8984 80.6398,486.3086 Q79.3313,486.875 77.7297,486.875 Q75.8547,486.875 74.3508,486.1328 Q73.1398,485.5469 72.2805,484.2773 Q71.4406,483.0078 71.4406,481.5039 L71.4406,480.1367 Q71.4406,478.5742 72.1828,477.207 Q72.9445,475.8398 74.2531,475.1172 Q75.5813,474.375 77.0656,474.375 Q77.9641,474.375 78.7453,474.6875 Q79.5266,475 80.1906,475.625 Z " fill="#000000"/><text fill="#000000" font-family="sans-serif" font-size="15" lengthAdjust="spacing" textLength="138.75" x="95.1906" y="486.1377">ClinicalAnalysisTest</text><line style="stroke:#A80036;stroke-width:1.875;" x1="60.1906" x2="236.4406" y1="500" y2="500"/><text fill="#000000" font-family="sans-serif" font-size="13.75" lengthAdjust="spacing" textLength="58.75" x="66.4406" y="519.2737">-nhsCode</text><text fill="#000000" font-family="sans-serif" font-size="13.75" lengthAdjust="spacing" textLength="36.25" x="66.4406" y="536.5686">-client</text><text fill="#000000" font-family="sans-serif" font-size="13.75" lengthAdjust="spacing" textLength="72.5" x="66.4406" y="553.8635">-typeOfTest</text><text fill="#000000" font-family="sans-serif" font-size="13.75" lengthAdjust="spacing" textLength="87.5" x="66.4406" y="571.1584">-parameterList</text><text fill="#000000" font-family="sans-serif" font-size="13.75" lengthAdjust="spacing" textLength="110" x="66.4406" y="588.4534">-labWhereCreated</text><!--MD5=[6eee883fdf517d3604e8bd0f2058e9aa]
link Company to Client--><path codeLine="30" d="M159.3781,76.675 C150.4906,102.25 137.7156,139.05 125.7531,173.475 " fill="none" id="Company-Client" style="stroke:#A80036;stroke-width:1.25;"/><polygon fill="#000000" points="150.0148,131.1237,157.195,121.6488,150.2545,119.2379,150.0148,131.1237" style="stroke:#000000;stroke-width:1.25;"/><text fill="#000000" font-family="sans-serif" font-size="16.25" lengthAdjust="spacing" textLength="46.25" x="163.3156" y="131.8689">knows</text><text fill="#000000" font-family="sans-serif" font-size="16.25" lengthAdjust="spacing" textLength="8.75" x="147.3668" y="102.7215">1</text><text fill="#000000" font-family="sans-serif" font-size="16.25" lengthAdjust="spacing" textLength="6.25" x="122.3886" y="160.0833">*</text><!--MD5=[763a80d6c063e6a8da74972bdf1c4b19]
link Company to ClinicalAnalysisTest--><path codeLine="32" d="M200.3906,76.3125 C208.6531,87.3875 216.5281,100.375 220.8156,113.75 C230.8031,144.925 324.9031,13.2125 207.0656,422.5 C203.4406,435.0875 198.0406,447.8 191.9531,459.8125 " fill="none" id="Company-ClinicalAnalysisTest" style="stroke:#A80036;stroke-width:1.25;"/><polygon fill="#000000" points="269.4282,274.5932,273.3496,263.3704,266.0041,263.2088,269.4282,274.5932" style="stroke:#000000;stroke-width:1.25;"/><text fill="#000000" font-family="sans-serif" font-size="16.25" lengthAdjust="spacing" textLength="37.5" x="280.8156" y="274.9939">owns</text><text fill="#000000" font-family="sans-serif" font-size="16.25" lengthAdjust="spacing" textLength="8.75" x="197.1531" y="102.8359">1</text><text fill="#000000" font-family="sans-serif" font-size="16.25" lengthAdjust="spacing" textLength="6.25" x="190.8938" y="446.6614">*</text><!--MD5=[9cb7afeb0805f8f6afc96b55437528c7]
link Client to ClinicalAnalysisTest--><path codeLine="33" d="M26.2906,348.4 C13.9281,372.2 8.0781,398.4 19.5656,422.5 C28.6031,441.4625 42.9531,458.1 58.8531,472.1875 " fill="none" id="Client-ClinicalAnalysisTest" style="stroke:#A80036;stroke-width:1.25;"/><polygon fill="#000000" points="27.4056,417.5141,28.0821,405.6452,20.9765,407.5143,27.4056,417.5141" style="stroke:#000000;stroke-width:1.25;"/><text fill="#000000" font-family="sans-serif" font-size="16.25" lengthAdjust="spacing" textLength="56.25" x="37.0656" y="418.1189">belongs</text><text fill="#000000" font-family="sans-serif" font-size="16.25" lengthAdjust="spacing" textLength="8.75" x="7.5" y="355.2097">1</text><text fill="#000000" font-family="sans-serif" font-size="16.25" lengthAdjust="spacing" textLength="25" x="23.8162" y="462.5762">1..*</text><!--MD5=[9cb7afeb0805f8f6afc96b55437528c7]
link Client to ClinicalAnalysisTest--><path codeLine="34" d="M113.2406,362.7 C120.1031,394.8 127.6406,430.075 133.9656,459.6875 " fill="none" id="Client-ClinicalAnalysisTest-1" style="stroke:#A80036;stroke-width:1.25;"/><polygon fill="#000000" points="133.3717,417.5817,134.6016,405.7573,127.4164,407.2927,133.3717,417.5817" style="stroke:#000000;stroke-width:1.25;"/><text fill="#000000" font-family="sans-serif" font-size="16.25" lengthAdjust="spacing" textLength="52.5" x="143.3156" y="418.1189">access</text><text fill="#000000" font-family="sans-serif" font-size="16.25" lengthAdjust="spacing" textLength="8.75" x="105.8755" y="388.9196">1</text><text fill="#000000" font-family="sans-serif" font-size="16.25" lengthAdjust="spacing" textLength="25" x="105.5255" y="446.5204">1..*</text><!--MD5=[f7612c4dd78d088d2905b2017d513958]
@startuml
'https://plantuml.com/use-case-diagram
hide methods
skinparam classAttributeIconSize 0

class Company{
-designation
}

class Client {
-name
-citizenCardNumber
-nhsNumber
-tinNumber
-birthDate
-sex
-phoneNumber
-email
}

class ClinicalAnalysisTest {
- nhsCode
- client
- typeOfTest
- parameterList
- labWhereCreated
}



Company"1" - - "*"Client :> knows

Company "1" - - "*" ClinicalAnalysisTest :> owns
Client "1" - - "1..*" ClinicalAnalysisTest :> belongs
Client "1" - - "1..*" ClinicalAnalysisTest :> access

@enduml

@startuml
hide methods
skinparam classAttributeIconSize 0

class Company{
-designation
}

class Client {
-name
-citizenCardNumber
-nhsNumber
-tinNumber
-birthDate
-sex
-phoneNumber
-email
}

class ClinicalAnalysisTest {
- nhsCode
- client
- typeOfTest
- parameterList
- labWhereCreated
}



Company"1" - - "*"Client :> knows

Company "1" - - "*" ClinicalAnalysisTest :> owns
Client "1" - - "1..*" ClinicalAnalysisTest :> belongs
Client "1" - - "1..*" ClinicalAnalysisTest :> access

@enduml

PlantUML version 1.2021.7(Sun May 23 13:40:07 BST 2021)
(GPL source distribution)
Java Runtime: OpenJDK Runtime Environment
JVM: OpenJDK 64-Bit Server VM
Default Encoding: Cp1252
Language: pt
Country: PT
--></g></svg>