<?xml version="1.0" encoding="UTF-8" standalone="no"?><svg xmlns="http://www.w3.org/2000/svg" xmlns:xlink="http://www.w3.org/1999/xlink" contentScriptType="application/ecmascript" contentStyleType="text/css" height="795px" preserveAspectRatio="none" style="width:565px;height:795px;background:#FFFFFF;" version="1.1" viewBox="0 0 565 795" width="565px" zoomAndPan="magnify"><defs><filter height="300%" id="fdgqshizdl8wo" width="300%" x="-1" y="-1"><feGaussianBlur result="blurOut" stdDeviation="2.5"/><feColorMatrix in="blurOut" result="blurOut2" type="matrix" values="0 0 0 0 0 0 0 0 0 0 0 0 0 0 0 0 0 0 .4 0"/><feOffset dx="5.0" dy="5.0" in="blurOut2" result="blurOut3"/><feBlend in="SourceGraphic" in2="blurOut3" mode="normal"/></filter></defs><g><!--MD5=[02e4b9b7573f1156f41e60aa5b4e25a4]
class Company--><rect codeLine="5" fill="#FEFECE" filter="url(#fdgqshizdl8wo)" height="67.2949" id="Company" style="stroke:#A80036;stroke-width:1.875;" width="106.25" x="383.5375" y="8.75"/><ellipse cx="402.2875" cy="28.75" fill="#ADD1B2" rx="13.75" ry="13.75" style="stroke:#A80036;stroke-width:1.25;"/><path d="M404.7875,24.375 Q405.0414,23.75 405.3344,23.4375 Q405.6273,23.125 405.9594,23.125 Q406.5453,23.125 406.9164,23.4766 Q407.2875,23.8281 407.2875,24.6484 L407.2875,26.6016 Q407.2875,27.4219 406.9359,27.7734 Q406.5844,28.125 406.0375,28.125 Q405.5492,28.125 405.2367,27.9102 Q404.9242,27.6953 404.7875,27.1289 Q404.7289,26.7383 404.5141,26.5234 Q404.1234,26.1133 403.4203,25.8789 Q402.7172,25.625 402.0141,25.625 Q401.1352,25.625 400.393,25.9766 Q399.6703,26.3281 399.1039,27.1094 Q398.5375,27.8906 398.5375,28.9648 L398.5375,30.1172 Q398.5375,31.4063 399.5922,32.2656 Q400.6469,33.125 402.5219,33.125 Q403.6352,33.125 404.4164,32.8711 Q404.8656,32.7344 405.3734,32.2852 Q405.7055,32.0313 405.8812,31.9531 Q406.057,31.875 406.2719,31.875 Q406.682,31.875 406.975,32.207 Q407.2875,32.5195 407.2875,32.9688 Q407.2875,33.3984 406.8578,33.9063 Q406.2328,34.6484 405.2367,35.0586 Q403.9281,35.625 402.3266,35.625 Q400.4516,35.625 398.9477,34.8828 Q397.7367,34.2969 396.8773,33.0273 Q396.0375,31.7578 396.0375,30.2539 L396.0375,28.8867 Q396.0375,27.3242 396.7797,25.957 Q397.5414,24.5898 398.85,23.8672 Q400.1781,23.125 401.6625,23.125 Q402.5609,23.125 403.3422,23.4375 Q404.1234,23.75 404.7875,24.375 Z " fill="#000000"/><text fill="#000000" font-family="sans-serif" font-size="15" lengthAdjust="spacing" textLength="66.25" x="419.7875" y="34.8877">Company</text><line style="stroke:#A80036;stroke-width:1.875;" x1="384.7875" x2="488.5375" y1="48.75" y2="48.75"/><text fill="#000000" font-family="sans-serif" font-size="13.75" lengthAdjust="spacing" textLength="73.75" x="391.0375" y="68.0237">-designation</text><!--MD5=[ed6624c6556d5e7b1bd23032162d20b7]
class Client--><rect codeLine="9" fill="#FEFECE" filter="url(#fdgqshizdl8wo)" height="188.3594" id="Client" style="stroke:#A80036;stroke-width:1.875;" width="133.75" x="199.7875" y="173.75"/><ellipse cx="242.725" cy="193.75" fill="#ADD1B2" rx="13.75" ry="13.75" style="stroke:#A80036;stroke-width:1.25;"/><path d="M245.225,189.375 Q245.4789,188.75 245.7719,188.4375 Q246.0648,188.125 246.3969,188.125 Q246.9828,188.125 247.3539,188.4766 Q247.725,188.8281 247.725,189.6484 L247.725,191.6016 Q247.725,192.4219 247.3734,192.7734 Q247.0219,193.125 246.475,193.125 Q245.9867,193.125 245.6742,192.9102 Q245.3617,192.6953 245.225,192.1289 Q245.1664,191.7383 244.9516,191.5234 Q244.5609,191.1133 243.8578,190.8789 Q243.1547,190.625 242.4516,190.625 Q241.5727,190.625 240.8305,190.9766 Q240.1078,191.3281 239.5414,192.1094 Q238.975,192.8906 238.975,193.9648 L238.975,195.1172 Q238.975,196.4063 240.0297,197.2656 Q241.0844,198.125 242.9594,198.125 Q244.0727,198.125 244.8539,197.8711 Q245.3031,197.7344 245.8109,197.2852 Q246.143,197.0313 246.3187,196.9531 Q246.4945,196.875 246.7094,196.875 Q247.1195,196.875 247.4125,197.207 Q247.725,197.5195 247.725,197.9688 Q247.725,198.3984 247.2953,198.9063 Q246.6703,199.6484 245.6742,200.0586 Q244.3656,200.625 242.7641,200.625 Q240.8891,200.625 239.3852,199.8828 Q238.1742,199.2969 237.3148,198.0273 Q236.475,196.7578 236.475,195.2539 L236.475,193.8867 Q236.475,192.3242 237.2172,190.957 Q237.9789,189.5898 239.2875,188.8672 Q240.6156,188.125 242.1,188.125 Q242.9984,188.125 243.7797,188.4375 Q244.5609,188.75 245.225,189.375 Z " fill="#000000"/><text fill="#000000" font-family="sans-serif" font-size="15" lengthAdjust="spacing" textLength="40" x="265.6" y="199.8877">Client</text><line style="stroke:#A80036;stroke-width:1.875;" x1="201.0375" x2="332.2875" y1="213.75" y2="213.75"/><text fill="#000000" font-family="sans-serif" font-size="13.75" lengthAdjust="spacing" textLength="37.5" x="207.2875" y="233.0237">-name</text><text fill="#000000" font-family="sans-serif" font-size="13.75" lengthAdjust="spacing" textLength="118.75" x="207.2875" y="250.3186">-citizenCardNumber</text><text fill="#000000" font-family="sans-serif" font-size="13.75" lengthAdjust="spacing" textLength="73.75" x="207.2875" y="267.6135">-nhsNumber</text><text fill="#000000" font-family="sans-serif" font-size="13.75" lengthAdjust="spacing" textLength="65" x="207.2875" y="284.9084">-tinNumber</text><text fill="#000000" font-family="sans-serif" font-size="13.75" lengthAdjust="spacing" textLength="58.75" x="207.2875" y="302.2034">-birthDate</text><text fill="#000000" font-family="sans-serif" font-size="13.75" lengthAdjust="spacing" textLength="27.5" x="207.2875" y="319.4983">-sex</text><text fill="#000000" font-family="sans-serif" font-size="13.75" lengthAdjust="spacing" textLength="88.75" x="207.2875" y="336.7932">-phoneNumber</text><text fill="#000000" font-family="sans-serif" font-size="13.75" lengthAdjust="spacing" textLength="35" x="207.2875" y="354.0881">-email</text><!--MD5=[b884fe3280a704cc481343612dc903ea]
class ClinicalAnalysisTest--><rect codeLine="20" fill="#FEFECE" filter="url(#fdgqshizdl8wo)" height="136.4746" id="ClinicalAnalysisTest" style="stroke:#A80036;stroke-width:1.875;" width="178.75" x="139.7875" y="460"/><ellipse cx="158.5375" cy="480" fill="#ADD1B2" rx="13.75" ry="13.75" style="stroke:#A80036;stroke-width:1.25;"/><path d="M161.0375,475.625 Q161.2914,475 161.5844,474.6875 Q161.8773,474.375 162.2094,474.375 Q162.7953,474.375 163.1664,474.7266 Q163.5375,475.0781 163.5375,475.8984 L163.5375,477.8516 Q163.5375,478.6719 163.1859,479.0234 Q162.8344,479.375 162.2875,479.375 Q161.7992,479.375 161.4867,479.1602 Q161.1742,478.9453 161.0375,478.3789 Q160.9789,477.9883 160.7641,477.7734 Q160.3734,477.3633 159.6703,477.1289 Q158.9672,476.875 158.2641,476.875 Q157.3852,476.875 156.643,477.2266 Q155.9203,477.5781 155.3539,478.3594 Q154.7875,479.1406 154.7875,480.2148 L154.7875,481.3672 Q154.7875,482.6563 155.8422,483.5156 Q156.8969,484.375 158.7719,484.375 Q159.8852,484.375 160.6664,484.1211 Q161.1156,483.9844 161.6234,483.5352 Q161.9555,483.2813 162.1312,483.2031 Q162.307,483.125 162.5219,483.125 Q162.932,483.125 163.225,483.457 Q163.5375,483.7695 163.5375,484.2188 Q163.5375,484.6484 163.1078,485.1563 Q162.4828,485.8984 161.4867,486.3086 Q160.1781,486.875 158.5766,486.875 Q156.7016,486.875 155.1977,486.1328 Q153.9867,485.5469 153.1273,484.2773 Q152.2875,483.0078 152.2875,481.5039 L152.2875,480.1367 Q152.2875,478.5742 153.0297,477.207 Q153.7914,475.8398 155.1,475.1172 Q156.4281,474.375 157.9125,474.375 Q158.8109,474.375 159.5922,474.6875 Q160.3734,475 161.0375,475.625 Z " fill="#000000"/><text fill="#000000" font-family="sans-serif" font-size="15" lengthAdjust="spacing" textLength="138.75" x="176.0375" y="486.1377">ClinicalAnalysisTest</text><line style="stroke:#A80036;stroke-width:1.875;" x1="141.0375" x2="317.2875" y1="500" y2="500"/><text fill="#000000" font-family="sans-serif" font-size="13.75" lengthAdjust="spacing" textLength="58.75" x="147.2875" y="519.2737">-nhsCode</text><text fill="#000000" font-family="sans-serif" font-size="13.75" lengthAdjust="spacing" textLength="36.25" x="147.2875" y="536.5686">-client</text><text fill="#000000" font-family="sans-serif" font-size="13.75" lengthAdjust="spacing" textLength="72.5" x="147.2875" y="553.8635">-typeOfTest</text><text fill="#000000" font-family="sans-serif" font-size="13.75" lengthAdjust="spacing" textLength="87.5" x="147.2875" y="571.1584">-parameterList</text><text fill="#000000" font-family="sans-serif" font-size="13.75" lengthAdjust="spacing" textLength="110" x="147.2875" y="588.4534">-labWhereCreated</text><!--MD5=[f00dbe8c0302c6aec2cb26b3c659c8fc]
class Report--><rect codeLine="27" fill="#FEFECE" filter="url(#fdgqshizdl8wo)" height="84.5898" id="Report" style="stroke:#A80036;stroke-width:1.875;" width="86.25" x="363.5375" y="693.75"/><ellipse cx="382.2875" cy="713.75" fill="#ADD1B2" rx="13.75" ry="13.75" style="stroke:#A80036;stroke-width:1.25;"/><path d="M384.7875,709.375 Q385.0414,708.75 385.3344,708.4375 Q385.6273,708.125 385.9594,708.125 Q386.5453,708.125 386.9164,708.4766 Q387.2875,708.8281 387.2875,709.6484 L387.2875,711.6016 Q387.2875,712.4219 386.9359,712.7734 Q386.5844,713.125 386.0375,713.125 Q385.5492,713.125 385.2367,712.9102 Q384.9242,712.6953 384.7875,712.1289 Q384.7289,711.7383 384.5141,711.5234 Q384.1234,711.1133 383.4203,710.8789 Q382.7172,710.625 382.0141,710.625 Q381.1352,710.625 380.393,710.9766 Q379.6703,711.3281 379.1039,712.1094 Q378.5375,712.8906 378.5375,713.9648 L378.5375,715.1172 Q378.5375,716.4063 379.5922,717.2656 Q380.6469,718.125 382.5219,718.125 Q383.6352,718.125 384.4164,717.8711 Q384.8656,717.7344 385.3734,717.2852 Q385.7055,717.0313 385.8812,716.9531 Q386.057,716.875 386.2719,716.875 Q386.682,716.875 386.975,717.207 Q387.2875,717.5195 387.2875,717.9688 Q387.2875,718.3984 386.8578,718.9063 Q386.2328,719.6484 385.2367,720.0586 Q383.9281,720.625 382.3266,720.625 Q380.4516,720.625 378.9477,719.8828 Q377.7367,719.2969 376.8773,718.0273 Q376.0375,716.7578 376.0375,715.2539 L376.0375,713.8867 Q376.0375,712.3242 376.7797,710.957 Q377.5414,709.5898 378.85,708.8672 Q380.1781,708.125 381.6625,708.125 Q382.5609,708.125 383.3422,708.4375 Q384.1234,708.75 384.7875,709.375 Z " fill="#000000"/><text fill="#000000" font-family="sans-serif" font-size="15" lengthAdjust="spacing" textLength="46.25" x="399.7875" y="719.8877">Report</text><line style="stroke:#A80036;stroke-width:1.875;" x1="364.7875" x2="448.5375" y1="733.75" y2="733.75"/><text fill="#000000" font-family="sans-serif" font-size="13.75" lengthAdjust="spacing" textLength="65" x="371.0375" y="753.0237">-createdAt</text><text fill="#000000" font-family="sans-serif" font-size="13.75" lengthAdjust="spacing" textLength="67.5" x="371.0375" y="770.3186">-reportText</text><!--MD5=[0f6f7964b844a64b0496af0dda7914bd]
class TestStore--><rect fill="#FEFECE" filter="url(#fdgqshizdl8wo)" height="50" id="TestStore" style="stroke:#A80036;stroke-width:1.875;" width="106.25" x="21.0375" y="711.25"/><ellipse cx="39.7875" cy="731.25" fill="#ADD1B2" rx="13.75" ry="13.75" style="stroke:#A80036;stroke-width:1.25;"/><path d="M42.2875,726.875 Q42.5414,726.25 42.8344,725.9375 Q43.1273,725.625 43.4594,725.625 Q44.0453,725.625 44.4164,725.9766 Q44.7875,726.3281 44.7875,727.1484 L44.7875,729.1016 Q44.7875,729.9219 44.4359,730.2734 Q44.0844,730.625 43.5375,730.625 Q43.0492,730.625 42.7367,730.4102 Q42.4242,730.1953 42.2875,729.6289 Q42.2289,729.2383 42.0141,729.0234 Q41.6234,728.6133 40.9203,728.3789 Q40.2172,728.125 39.5141,728.125 Q38.6352,728.125 37.893,728.4766 Q37.1703,728.8281 36.6039,729.6094 Q36.0375,730.3906 36.0375,731.4648 L36.0375,732.6172 Q36.0375,733.9063 37.0922,734.7656 Q38.1469,735.625 40.0219,735.625 Q41.1352,735.625 41.9164,735.3711 Q42.3656,735.2344 42.8734,734.7852 Q43.2055,734.5313 43.3812,734.4531 Q43.557,734.375 43.7719,734.375 Q44.182,734.375 44.475,734.707 Q44.7875,735.0195 44.7875,735.4688 Q44.7875,735.8984 44.3578,736.4063 Q43.7328,737.1484 42.7367,737.5586 Q41.4281,738.125 39.8266,738.125 Q37.9516,738.125 36.4477,737.3828 Q35.2367,736.7969 34.3773,735.5273 Q33.5375,734.2578 33.5375,732.7539 L33.5375,731.3867 Q33.5375,729.8242 34.2797,728.457 Q35.0414,727.0898 36.35,726.3672 Q37.6781,725.625 39.1625,725.625 Q40.0609,725.625 40.8422,725.9375 Q41.6234,726.25 42.2875,726.875 Z " fill="#000000"/><text fill="#000000" font-family="sans-serif" font-size="15" lengthAdjust="spacing" textLength="66.25" x="57.2875" y="737.3877">TestStore</text><line style="stroke:#A80036;stroke-width:1.875;" x1="22.2875" x2="126.0375" y1="751.25" y2="751.25"/><!--MD5=[6eee883fdf517d3604e8bd0f2058e9aa]
link Company to Client--><path codeLine="34" d="M383.5125,74.65 C367.8375,85.5625 351.575,98.8625 339.1625,113.75 C324.375,131.4875 311.8375,152.7375 301.5625,173.6875 " fill="none" id="Company-Client" style="stroke:#A80036;stroke-width:1.25;"/><polygon fill="#000000" points="341.4281,130.035,351.4663,123.6661,345.8057,118.9821,341.4281,130.035" style="stroke:#000000;stroke-width:1.25;"/><text fill="#000000" font-family="sans-serif" font-size="16.25" lengthAdjust="spacing" textLength="46.25" x="356.6625" y="131.8689">knows</text><text fill="#000000" font-family="sans-serif" font-size="16.25" lengthAdjust="spacing" textLength="8.75" x="364.8754" y="75.3813">1</text><text fill="#000000" font-family="sans-serif" font-size="16.25" lengthAdjust="spacing" textLength="6.25" x="298.4404" y="160.3167">*</text><!--MD5=[763a80d6c063e6a8da74972bdf1c4b19]
link Company to ClinicalAnalysisTest--><path codeLine="36" d="M434.275,76.2875 C427.9,145.2875 405.6375,309.175 332.9125,422.5 C324.6375,435.4 314.5375,447.9875 303.925,459.7 " fill="none" id="Company-ClinicalAnalysisTest" style="stroke:#A80036;stroke-width:1.25;"/><polygon fill="#000000" points="424.6507,274.2621,431.7682,264.7399,424.8119,262.375,424.6507,274.2621" style="stroke:#000000;stroke-width:1.25;"/><text fill="#000000" font-family="sans-serif" font-size="16.25" lengthAdjust="spacing" textLength="37.5" x="437.9125" y="274.9939">owns</text><text fill="#000000" font-family="sans-serif" font-size="16.25" lengthAdjust="spacing" textLength="8.75" x="424.0457" y="102.8054">1</text><text fill="#000000" font-family="sans-serif" font-size="16.25" lengthAdjust="spacing" textLength="6.25" x="306.8536" y="446.5345">*</text><!--MD5=[670dbdf7395d3fcbb40104f0a070263e]
link Company to Report--><path codeLine="37" d="M453.1,76.4375 C465.075,102.15 480.2625,139.275 486.6625,173.75 C521.0125,358.7625 503.7875,413.4375 459.1625,596.25 C450.975,629.775 436.975,666.225 425.4875,693.3375 " fill="none" id="Company-Report" style="stroke:#A80036;stroke-width:1.25;"/><polygon fill="#000000" points="506.383,417.7135,510.5586,406.5827,503.2186,406.2542,506.383,417.7135" style="stroke:#000000;stroke-width:1.25;"/><text fill="#000000" font-family="sans-serif" font-size="16.25" lengthAdjust="spacing" textLength="37.5" x="517.9125" y="418.1189">owns</text><text fill="#000000" font-family="sans-serif" font-size="16.25" lengthAdjust="spacing" textLength="8.75" x="446.9887" y="102.9882">1</text><text fill="#000000" font-family="sans-serif" font-size="16.25" lengthAdjust="spacing" textLength="8.75" x="419.492" y="680.2009">1</text><!--MD5=[9cb7afeb0805f8f6afc96b55437528c7]
link Client to ClinicalAnalysisTest--><path codeLine="38" d="M253.075,362.7 C248.4,394.8 243.2625,430.075 238.95,459.6875 " fill="none" id="Client-ClinicalAnalysisTest" style="stroke:#A80036;stroke-width:1.25;"/><polygon fill="#000000" points="253.2618,417.6545,258.5265,406.9956,251.2559,405.9367,253.2618,417.6545" style="stroke:#000000;stroke-width:1.25;"/><text fill="#000000" font-family="sans-serif" font-size="16.25" lengthAdjust="spacing" textLength="56.25" x="265.4125" y="418.1189">belongs</text><text fill="#000000" font-family="sans-serif" font-size="16.25" lengthAdjust="spacing" textLength="8.75" x="242.7252" y="388.9196">1</text><text fill="#000000" font-family="sans-serif" font-size="16.25" lengthAdjust="spacing" textLength="25" x="213.6025" y="446.5204">1..*</text><!--MD5=[ed7e87f424a6d14ab2eab4fc03009d50]
link Client to TestStore--><path codeLine="39" d="M199.35,305.875 C146.875,338.525 77.8375,391.7375 46.6625,460 C7.5,545.7625 44.6625,661.8875 64.05,711.2375 " fill="none" id="Client-TestStore" style="stroke:#A80036;stroke-width:1.25;"/><polygon fill="#000000" points="50.9337,534.2732,57.998,524.7116,51.0287,522.3854,50.9337,534.2732" style="stroke:#000000;stroke-width:1.25;"/><text fill="#000000" font-family="sans-serif" font-size="16.25" lengthAdjust="spacing" textLength="52.5" x="64.1625" y="534.9939">access</text><text fill="#000000" font-family="sans-serif" font-size="16.25" lengthAdjust="spacing" textLength="8.75" x="180.967" y="306.5286">1</text><text fill="#000000" font-family="sans-serif" font-size="16.25" lengthAdjust="spacing" textLength="8.75" x="51.0443" y="697.886">1</text><!--MD5=[8a9e80916c7972132eb61e0621733bc4]
link ClinicalAnalysisTest to TestStore--><path codeLine="40" d="M178.4125,596.7 C148.75,636.0625 113.125,683.325 92.1375,711.1625 " fill="none" id="ClinicalAnalysisTest-TestStore" style="stroke:#A80036;stroke-width:1.25;"/><polygon fill="#000000" points="150.4006,650.2108,160.1396,643.3931,154.2723,638.9707,150.4006,650.2108" style="stroke:#000000;stroke-width:1.25;"/><text fill="#000000" font-family="sans-serif" font-size="16.25" lengthAdjust="spacing" textLength="46.25" x="165.4125" y="651.8689">knows</text><text fill="#000000" font-family="sans-serif" font-size="16.25" lengthAdjust="spacing" textLength="8.75" x="162.9441" y="623.1583">1</text><text fill="#000000" font-family="sans-serif" font-size="16.25" lengthAdjust="spacing" textLength="6.25" x="90.2497" y="697.789">*</text><!--MD5=[dd8e35dff6be86eebe54a66bfa42e0ac]
link ClinicalAnalysisTest to Report--><path codeLine="41" d="M265.7875,596.5 C278.275,616.7 293.15,638.25 309.1625,656.25 C325.075,674.1375 345.3125,691.1875 363.225,704.825 " fill="none" id="ClinicalAnalysisTest-Report" style="stroke:#A80036;stroke-width:1.25;"/><polygon fill="#000000" points="319.5922,649.8665,314.7623,639.0036,309.2997,643.9172,319.5922,649.8665" style="stroke:#000000;stroke-width:1.25;"/><text fill="#000000" font-family="sans-serif" font-size="16.25" lengthAdjust="spacing" textLength="46.25" x="326.6625" y="651.8689">knows</text><text fill="#000000" font-family="sans-serif" font-size="16.25" lengthAdjust="spacing" textLength="8.75" x="261.1695" y="623.4245">1</text><text fill="#000000" font-family="sans-serif" font-size="16.25" lengthAdjust="spacing" textLength="25" x="328.6107" y="694.647">1..*</text><!--MD5=[f998978c7e0615044d5eedbb865ec126]
link Client to Report--><path codeLine="42" d="M317.5125,362.6625 C323.2,375.0125 328.5125,387.6625 332.9125,400 C369.4625,502.35 391.3875,629.025 400.95,693.325 " fill="none" id="Client-Report" style="stroke:#A80036;stroke-width:1.25;"/><polygon fill="#000000" points="391.9417,534.4048,392.7374,522.5432,385.6134,524.3409,391.9417,534.4048" style="stroke:#000000;stroke-width:1.25;"/><text fill="#000000" font-family="sans-serif" font-size="16.25" lengthAdjust="spacing" textLength="46.25" x="401.6625" y="534.9939">knows</text><text fill="#000000" font-family="sans-serif" font-size="16.25" lengthAdjust="spacing" textLength="8.75" x="312.9017" y="388.8787">1</text><text fill="#000000" font-family="sans-serif" font-size="16.25" lengthAdjust="spacing" textLength="25" x="372.4782" y="680.186">1..*</text><!--MD5=[7c6ca27ab5ddbd58711cfc1b41a10a2d]
@startuml
'https://plantuml.com/use-case-diagram
hide methods
skinparam classAttributeIconSize 0

class Company{
-designation
}

class Client {
-name
-citizenCardNumber
-nhsNumber
-tinNumber
-birthDate
-sex
-phoneNumber
-email
}

class ClinicalAnalysisTest {
- nhsCode
- client
- typeOfTest
- parameterList
- labWhereCreated
}
class Report {
- createdAt
- reportText
}



Company"1" - - "*"Client :> knows

Company "1" - - "*" ClinicalAnalysisTest :> owns
Company "1" - - "1" Report :> owns
Client "1" - - "1..*" ClinicalAnalysisTest :> belongs
Client "1" - - "1" TestStore :> access
ClinicalAnalysisTest "1" - - "*" TestStore :> knows
ClinicalAnalysisTest "1" - - "1..*" Report :> knows
Client "1" - - "1..*" Report :> knows


@enduml

@startuml
hide methods
skinparam classAttributeIconSize 0

class Company{
-designation
}

class Client {
-name
-citizenCardNumber
-nhsNumber
-tinNumber
-birthDate
-sex
-phoneNumber
-email
}

class ClinicalAnalysisTest {
- nhsCode
- client
- typeOfTest
- parameterList
- labWhereCreated
}
class Report {
- createdAt
- reportText
}



Company"1" - - "*"Client :> knows

Company "1" - - "*" ClinicalAnalysisTest :> owns
Company "1" - - "1" Report :> owns
Client "1" - - "1..*" ClinicalAnalysisTest :> belongs
Client "1" - - "1" TestStore :> access
ClinicalAnalysisTest "1" - - "*" TestStore :> knows
ClinicalAnalysisTest "1" - - "1..*" Report :> knows
Client "1" - - "1..*" Report :> knows


@enduml

PlantUML version 1.2021.7(Sun May 23 13:40:07 BST 2021)
(GPL source distribution)
Java Runtime: OpenJDK Runtime Environment
JVM: OpenJDK 64-Bit Server VM
Default Encoding: Cp1252
Language: pt
Country: PT
--></g></svg>