<?xml version="1.0" encoding="UTF-8" standalone="no"?><svg xmlns="http://www.w3.org/2000/svg" xmlns:xlink="http://www.w3.org/1999/xlink" contentScriptType="application/ecmascript" contentStyleType="text/css" height="657.5px" preserveAspectRatio="none" style="width:927px;height:657px;background:#FFFFFF;" version="1.1" viewBox="0 0 927 657" width="927.5px" zoomAndPan="magnify"><defs><filter height="300%" id="f14scbkpnkdpm8" width="300%" x="-1" y="-1"><feGaussianBlur result="blurOut" stdDeviation="2.5"/><feColorMatrix in="blurOut" result="blurOut2" type="matrix" values="0 0 0 0 0 0 0 0 0 0 0 0 0 0 0 0 0 0 .4 0"/><feOffset dx="5.0" dy="5.0" in="blurOut2" result="blurOut3"/><feBlend in="SourceGraphic" in2="blurOut3" mode="normal"/></filter></defs><g><!--MD5=[b2d131f8fa8fc09e51963b462c4d9076]
class ViewTestResultUI--><rect codeLine="3" fill="#FEFECE" filter="url(#f14scbkpnkdpm8)" height="60" id="ViewTestResultUI" style="stroke:#A80036;stroke-width:1.875;" width="162.5" x="279.375" y="8.75"/><ellipse cx="298.125" cy="28.75" fill="#ADD1B2" rx="13.75" ry="13.75" style="stroke:#A80036;stroke-width:1.25;"/><path d="M300.625,24.375 Q300.8789,23.75 301.1719,23.4375 Q301.4648,23.125 301.7969,23.125 Q302.3828,23.125 302.7539,23.4766 Q303.125,23.8281 303.125,24.6484 L303.125,26.6016 Q303.125,27.4219 302.7734,27.7734 Q302.4219,28.125 301.875,28.125 Q301.3867,28.125 301.0742,27.9102 Q300.7617,27.6953 300.625,27.1289 Q300.5664,26.7383 300.3516,26.5234 Q299.9609,26.1133 299.2578,25.8789 Q298.5547,25.625 297.8516,25.625 Q296.9727,25.625 296.2305,25.9766 Q295.5078,26.3281 294.9414,27.1094 Q294.375,27.8906 294.375,28.9648 L294.375,30.1172 Q294.375,31.4063 295.4297,32.2656 Q296.4844,33.125 298.3594,33.125 Q299.4727,33.125 300.2539,32.8711 Q300.7031,32.7344 301.2109,32.2852 Q301.543,32.0313 301.7188,31.9531 Q301.8945,31.875 302.1094,31.875 Q302.5195,31.875 302.8125,32.207 Q303.125,32.5195 303.125,32.9688 Q303.125,33.3984 302.6953,33.9063 Q302.0703,34.6484 301.0742,35.0586 Q299.7656,35.625 298.1641,35.625 Q296.2891,35.625 294.7852,34.8828 Q293.5742,34.2969 292.7148,33.0273 Q291.875,31.7578 291.875,30.2539 L291.875,28.8867 Q291.875,27.3242 292.6172,25.957 Q293.3789,24.5898 294.6875,23.8672 Q296.0156,23.125 297.5,23.125 Q298.3984,23.125 299.1797,23.4375 Q299.9609,23.75 300.625,24.375 Z " fill="#000000"/><text fill="#000000" font-family="sans-serif" font-size="15" lengthAdjust="spacing" textLength="122.5" x="315.625" y="34.8877">ViewTestResultUI</text><line style="stroke:#A80036;stroke-width:1.875;" x1="280.625" x2="440.625" y1="48.75" y2="48.75"/><line style="stroke:#A80036;stroke-width:1.875;" x1="280.625" x2="440.625" y1="58.75" y2="58.75"/><!--MD5=[27043c0ddc34f407dd46b5f88bc486e9]
class ViewTestResultController--><rect codeLine="6" fill="#FEFECE" filter="url(#f14scbkpnkdpm8)" height="129.1797" id="ViewTestResultController" style="stroke:#A80036;stroke-width:1.875;" width="380" x="170.625" y="145"/><ellipse cx="267.8125" cy="165" fill="#ADD1B2" rx="13.75" ry="13.75" style="stroke:#A80036;stroke-width:1.25;"/><path d="M270.3125,160.625 Q270.5664,160 270.8594,159.6875 Q271.1523,159.375 271.4844,159.375 Q272.0703,159.375 272.4414,159.7266 Q272.8125,160.0781 272.8125,160.8984 L272.8125,162.8516 Q272.8125,163.6719 272.4609,164.0234 Q272.1094,164.375 271.5625,164.375 Q271.0742,164.375 270.7617,164.1602 Q270.4492,163.9453 270.3125,163.3789 Q270.2539,162.9883 270.0391,162.7734 Q269.6484,162.3633 268.9453,162.1289 Q268.2422,161.875 267.5391,161.875 Q266.6602,161.875 265.918,162.2266 Q265.1953,162.5781 264.6289,163.3594 Q264.0625,164.1406 264.0625,165.2148 L264.0625,166.3672 Q264.0625,167.6563 265.1172,168.5156 Q266.1719,169.375 268.0469,169.375 Q269.1602,169.375 269.9414,169.1211 Q270.3906,168.9844 270.8984,168.5352 Q271.2305,168.2813 271.4063,168.2031 Q271.582,168.125 271.7969,168.125 Q272.207,168.125 272.5,168.457 Q272.8125,168.7695 272.8125,169.2188 Q272.8125,169.6484 272.3828,170.1563 Q271.7578,170.8984 270.7617,171.3086 Q269.4531,171.875 267.8516,171.875 Q265.9766,171.875 264.4727,171.1328 Q263.2617,170.5469 262.4023,169.2773 Q261.5625,168.0078 261.5625,166.5039 L261.5625,165.1367 Q261.5625,163.5742 262.3047,162.207 Q263.0664,160.8398 264.375,160.1172 Q265.7031,159.375 267.1875,159.375 Q268.0859,159.375 268.8672,159.6875 Q269.6484,160 270.3125,160.625 Z " fill="#000000"/><text fill="#000000" font-family="sans-serif" font-size="15" lengthAdjust="spacing" textLength="175" x="293.4375" y="171.1377">ViewTestResultController</text><line style="stroke:#A80036;stroke-width:1.875;" x1="171.875" x2="549.375" y1="185" y2="185"/><line style="stroke:#A80036;stroke-width:1.875;" x1="171.875" x2="549.375" y1="195" y2="195"/><text fill="#000000" font-family="sans-serif" font-size="13.75" lengthAdjust="spacing" textLength="115" x="178.125" y="214.2737">+getClientByEmail()</text><text fill="#000000" font-family="sans-serif" font-size="13.75" lengthAdjust="spacing" textLength="365" x="178.125" y="231.5686">+showClientTestsValidatedAndOrderedByRegistrationDate()</text><text fill="#000000" font-family="sans-serif" font-size="13.75" lengthAdjust="spacing" textLength="185" x="178.125" y="248.8635">+showTestSelected(nhsCode)</text><text fill="#000000" font-family="sans-serif" font-size="13.75" lengthAdjust="spacing" textLength="188.75" x="178.125" y="266.1584">+showTestResultsAndReport()</text><!--MD5=[02e4b9b7573f1156f41e60aa5b4e25a4]
class Company--><rect codeLine="13" fill="#FEFECE" filter="url(#f14scbkpnkdpm8)" height="94.5898" id="Company" style="stroke:#A80036;stroke-width:1.875;" width="116.25" x="8.75" y="371.25"/><ellipse cx="32" cy="391.25" fill="#ADD1B2" rx="13.75" ry="13.75" style="stroke:#A80036;stroke-width:1.25;"/><path d="M34.5,386.875 Q34.7539,386.25 35.0469,385.9375 Q35.3398,385.625 35.6719,385.625 Q36.2578,385.625 36.6289,385.9766 Q37,386.3281 37,387.1484 L37,389.1016 Q37,389.9219 36.6484,390.2734 Q36.2969,390.625 35.75,390.625 Q35.2617,390.625 34.9492,390.4102 Q34.6367,390.1953 34.5,389.6289 Q34.4414,389.2383 34.2266,389.0234 Q33.8359,388.6133 33.1328,388.3789 Q32.4297,388.125 31.7266,388.125 Q30.8477,388.125 30.1055,388.4766 Q29.3828,388.8281 28.8164,389.6094 Q28.25,390.3906 28.25,391.4648 L28.25,392.6172 Q28.25,393.9063 29.3047,394.7656 Q30.3594,395.625 32.2344,395.625 Q33.3477,395.625 34.1289,395.3711 Q34.5781,395.2344 35.0859,394.7852 Q35.418,394.5313 35.5938,394.4531 Q35.7695,394.375 35.9844,394.375 Q36.3945,394.375 36.6875,394.707 Q37,395.0195 37,395.4688 Q37,395.8984 36.5703,396.4063 Q35.9453,397.1484 34.9492,397.5586 Q33.6406,398.125 32.0391,398.125 Q30.1641,398.125 28.6602,397.3828 Q27.4492,396.7969 26.5898,395.5273 Q25.75,394.2578 25.75,392.7539 L25.75,391.3867 Q25.75,389.8242 26.4922,388.457 Q27.2539,387.0898 28.5625,386.3672 Q29.8906,385.625 31.375,385.625 Q32.2734,385.625 33.0547,385.9375 Q33.8359,386.25 34.5,386.875 Z " fill="#000000"/><text fill="#000000" font-family="sans-serif" font-size="15" lengthAdjust="spacing" textLength="66.25" x="50.5" y="397.3877">Company</text><line style="stroke:#A80036;stroke-width:1.875;" x1="10" x2="123.75" y1="411.25" y2="411.25"/><line style="stroke:#A80036;stroke-width:1.875;" x1="10" x2="123.75" y1="421.25" y2="421.25"/><text fill="#000000" font-family="sans-serif" font-size="13.75" lengthAdjust="spacing" textLength="101.25" x="16.25" y="440.5237">+getClientStore()</text><text fill="#000000" font-family="sans-serif" font-size="13.75" lengthAdjust="spacing" textLength="95" x="16.25" y="457.8186">+getTestStore()</text><!--MD5=[55cb992be19579b505cea3c5691093cb]
class ClientStore--><rect codeLine="18" fill="#FEFECE" filter="url(#f14scbkpnkdpm8)" height="77.2949" id="ClientStore" style="stroke:#A80036;stroke-width:1.875;" width="130" x="205.625" y="380"/><ellipse cx="230.5625" cy="400" fill="#ADD1B2" rx="13.75" ry="13.75" style="stroke:#A80036;stroke-width:1.25;"/><path d="M233.0625,395.625 Q233.3164,395 233.6094,394.6875 Q233.9023,394.375 234.2344,394.375 Q234.8203,394.375 235.1914,394.7266 Q235.5625,395.0781 235.5625,395.8984 L235.5625,397.8516 Q235.5625,398.6719 235.2109,399.0234 Q234.8594,399.375 234.3125,399.375 Q233.8242,399.375 233.5117,399.1602 Q233.1992,398.9453 233.0625,398.3789 Q233.0039,397.9883 232.7891,397.7734 Q232.3984,397.3633 231.6953,397.1289 Q230.9922,396.875 230.2891,396.875 Q229.4102,396.875 228.668,397.2266 Q227.9453,397.5781 227.3789,398.3594 Q226.8125,399.1406 226.8125,400.2148 L226.8125,401.3672 Q226.8125,402.6563 227.8672,403.5156 Q228.9219,404.375 230.7969,404.375 Q231.9102,404.375 232.6914,404.1211 Q233.1406,403.9844 233.6484,403.5352 Q233.9805,403.2813 234.1563,403.2031 Q234.332,403.125 234.5469,403.125 Q234.957,403.125 235.25,403.457 Q235.5625,403.7695 235.5625,404.2188 Q235.5625,404.6484 235.1328,405.1563 Q234.5078,405.8984 233.5117,406.3086 Q232.2031,406.875 230.6016,406.875 Q228.7266,406.875 227.2227,406.1328 Q226.0117,405.5469 225.1523,404.2773 Q224.3125,403.0078 224.3125,401.5039 L224.3125,400.1367 Q224.3125,398.5742 225.0547,397.207 Q225.8164,395.8398 227.125,395.1172 Q228.4531,394.375 229.9375,394.375 Q230.8359,394.375 231.6172,394.6875 Q232.3984,395 233.0625,395.625 Z " fill="#000000"/><text fill="#000000" font-family="sans-serif" font-size="15" lengthAdjust="spacing" textLength="76.25" x="249.4375" y="406.1377">ClientStore</text><line style="stroke:#A80036;stroke-width:1.875;" x1="206.875" x2="334.375" y1="420" y2="420"/><line style="stroke:#A80036;stroke-width:1.875;" x1="206.875" x2="334.375" y1="430" y2="430"/><text fill="#000000" font-family="sans-serif" font-size="13.75" lengthAdjust="spacing" textLength="115" x="213.125" y="449.2737">+getClientByEmail()</text><!--MD5=[0f6f7964b844a64b0496af0dda7914bd]
class TestStore--><rect codeLine="22" fill="#FEFECE" filter="url(#f14scbkpnkdpm8)" height="94.5898" id="TestStore" style="stroke:#A80036;stroke-width:1.875;" width="363.75" x="380" y="371.25"/><ellipse cx="523.4375" cy="391.25" fill="#ADD1B2" rx="13.75" ry="13.75" style="stroke:#A80036;stroke-width:1.25;"/><path d="M525.9375,386.875 Q526.1914,386.25 526.4844,385.9375 Q526.7773,385.625 527.1094,385.625 Q527.6953,385.625 528.0664,385.9766 Q528.4375,386.3281 528.4375,387.1484 L528.4375,389.1016 Q528.4375,389.9219 528.0859,390.2734 Q527.7344,390.625 527.1875,390.625 Q526.6992,390.625 526.3867,390.4102 Q526.0742,390.1953 525.9375,389.6289 Q525.8789,389.2383 525.6641,389.0234 Q525.2734,388.6133 524.5703,388.3789 Q523.8672,388.125 523.1641,388.125 Q522.2852,388.125 521.543,388.4766 Q520.8203,388.8281 520.2539,389.6094 Q519.6875,390.3906 519.6875,391.4648 L519.6875,392.6172 Q519.6875,393.9063 520.7422,394.7656 Q521.7969,395.625 523.6719,395.625 Q524.7852,395.625 525.5664,395.3711 Q526.0156,395.2344 526.5234,394.7852 Q526.8555,394.5313 527.0313,394.4531 Q527.207,394.375 527.4219,394.375 Q527.832,394.375 528.125,394.707 Q528.4375,395.0195 528.4375,395.4688 Q528.4375,395.8984 528.0078,396.4063 Q527.3828,397.1484 526.3867,397.5586 Q525.0781,398.125 523.4766,398.125 Q521.6016,398.125 520.0977,397.3828 Q518.8867,396.7969 518.0273,395.5273 Q517.1875,394.2578 517.1875,392.7539 L517.1875,391.3867 Q517.1875,389.8242 517.9297,388.457 Q518.6914,387.0898 520,386.3672 Q521.3281,385.625 522.8125,385.625 Q523.7109,385.625 524.4922,385.9375 Q525.2734,386.25 525.9375,386.875 Z " fill="#000000"/><text fill="#000000" font-family="sans-serif" font-size="15" lengthAdjust="spacing" textLength="66.25" x="549.0625" y="397.3877">TestStore</text><line style="stroke:#A80036;stroke-width:1.875;" x1="381.25" x2="742.5" y1="411.25" y2="411.25"/><line style="stroke:#A80036;stroke-width:1.875;" x1="381.25" x2="742.5" y1="421.25" y2="421.25"/><text fill="#000000" font-family="sans-serif" font-size="13.75" lengthAdjust="spacing" textLength="348.75" x="387.5" y="440.5237">+getClientTestsValidatedAndOrderedByRegistrationDate()</text><text fill="#000000" font-family="sans-serif" font-size="13.75" lengthAdjust="spacing" textLength="187.5" x="387.5" y="457.8186">+getTestByNhsCode(nhsCode)</text><!--MD5=[51e7be1fc67316e87ee401e666e38435]
class ClinicalTest--><rect codeLine="27" fill="#FEFECE" filter="url(#f14scbkpnkdpm8)" height="94.5898" id="ClinicalTest" style="stroke:#A80036;stroke-width:1.875;" width="122.5" x="788.125" y="371.25"/><ellipse cx="807.4375" cy="391.25" fill="#ADD1B2" rx="13.75" ry="13.75" style="stroke:#A80036;stroke-width:1.25;"/><path d="M809.9375,386.875 Q810.1914,386.25 810.4844,385.9375 Q810.7773,385.625 811.1094,385.625 Q811.6953,385.625 812.0664,385.9766 Q812.4375,386.3281 812.4375,387.1484 L812.4375,389.1016 Q812.4375,389.9219 812.0859,390.2734 Q811.7344,390.625 811.1875,390.625 Q810.6992,390.625 810.3867,390.4102 Q810.0742,390.1953 809.9375,389.6289 Q809.8789,389.2383 809.6641,389.0234 Q809.2734,388.6133 808.5703,388.3789 Q807.8672,388.125 807.1641,388.125 Q806.2852,388.125 805.543,388.4766 Q804.8203,388.8281 804.2539,389.6094 Q803.6875,390.3906 803.6875,391.4648 L803.6875,392.6172 Q803.6875,393.9063 804.7422,394.7656 Q805.7969,395.625 807.6719,395.625 Q808.7852,395.625 809.5664,395.3711 Q810.0156,395.2344 810.5234,394.7852 Q810.8555,394.5313 811.0313,394.4531 Q811.207,394.375 811.4219,394.375 Q811.832,394.375 812.125,394.707 Q812.4375,395.0195 812.4375,395.4688 Q812.4375,395.8984 812.0078,396.4063 Q811.3828,397.1484 810.3867,397.5586 Q809.0781,398.125 807.4766,398.125 Q805.6016,398.125 804.0977,397.3828 Q802.8867,396.7969 802.0273,395.5273 Q801.1875,394.2578 801.1875,392.7539 L801.1875,391.3867 Q801.1875,389.8242 801.9297,388.457 Q802.6914,387.0898 804,386.3672 Q805.3281,385.625 806.8125,385.625 Q807.7109,385.625 808.4922,385.9375 Q809.2734,386.25 809.9375,386.875 Z " fill="#000000"/><text fill="#000000" font-family="sans-serif" font-size="15" lengthAdjust="spacing" textLength="81.25" x="825.0625" y="397.3877">ClinicalTest</text><line style="stroke:#A80036;stroke-width:1.875;" x1="789.375" x2="909.375" y1="411.25" y2="411.25"/><line style="stroke:#A80036;stroke-width:1.875;" x1="789.375" x2="909.375" y1="421.25" y2="421.25"/><text fill="#000000" font-family="sans-serif" font-size="13.75" lengthAdjust="spacing" textLength="107.5" x="795.625" y="440.5237">+getTestResults()</text><text fill="#000000" font-family="sans-serif" font-size="13.75" lengthAdjust="spacing" textLength="102.5" x="795.625" y="457.8186">+getReportText()</text><!--MD5=[f00dbe8c0302c6aec2cb26b3c659c8fc]
class Report--><rect codeLine="32" fill="#FEFECE" filter="url(#f14scbkpnkdpm8)" height="77.2949" id="Report" style="stroke:#A80036;stroke-width:1.875;" width="117.5" x="790.625" y="563.75"/><ellipse cx="823.4375" cy="583.75" fill="#ADD1B2" rx="13.75" ry="13.75" style="stroke:#A80036;stroke-width:1.25;"/><path d="M825.9375,579.375 Q826.1914,578.75 826.4844,578.4375 Q826.7773,578.125 827.1094,578.125 Q827.6953,578.125 828.0664,578.4766 Q828.4375,578.8281 828.4375,579.6484 L828.4375,581.6016 Q828.4375,582.4219 828.0859,582.7734 Q827.7344,583.125 827.1875,583.125 Q826.6992,583.125 826.3867,582.9102 Q826.0742,582.6953 825.9375,582.1289 Q825.8789,581.7383 825.6641,581.5234 Q825.2734,581.1133 824.5703,580.8789 Q823.8672,580.625 823.1641,580.625 Q822.2852,580.625 821.543,580.9766 Q820.8203,581.3281 820.2539,582.1094 Q819.6875,582.8906 819.6875,583.9648 L819.6875,585.1172 Q819.6875,586.4063 820.7422,587.2656 Q821.7969,588.125 823.6719,588.125 Q824.7852,588.125 825.5664,587.8711 Q826.0156,587.7344 826.5234,587.2852 Q826.8555,587.0313 827.0313,586.9531 Q827.207,586.875 827.4219,586.875 Q827.832,586.875 828.125,587.207 Q828.4375,587.5195 828.4375,587.9688 Q828.4375,588.3984 828.0078,588.9063 Q827.3828,589.6484 826.3867,590.0586 Q825.0781,590.625 823.4766,590.625 Q821.6016,590.625 820.0977,589.8828 Q818.8867,589.2969 818.0273,588.0273 Q817.1875,586.7578 817.1875,585.2539 L817.1875,583.8867 Q817.1875,582.3242 817.9297,580.957 Q818.6914,579.5898 820,578.8672 Q821.3281,578.125 822.8125,578.125 Q823.7109,578.125 824.4922,578.4375 Q825.2734,578.75 825.9375,579.375 Z " fill="#000000"/><text fill="#000000" font-family="sans-serif" font-size="15" lengthAdjust="spacing" textLength="46.25" x="844.0625" y="589.8877">Report</text><line style="stroke:#A80036;stroke-width:1.875;" x1="791.875" x2="906.875" y1="603.75" y2="603.75"/><line style="stroke:#A80036;stroke-width:1.875;" x1="791.875" x2="906.875" y1="613.75" y2="613.75"/><text fill="#000000" font-family="sans-serif" font-size="13.75" lengthAdjust="spacing" textLength="102.5" x="798.125" y="633.0237">+getReportText()</text><!--MD5=[78bec0fde86ad92ec1dc3fb343b83709]
class Email--><rect codeLine="37" fill="#FEFECE" filter="url(#f14scbkpnkdpm8)" height="77.2949" id="Email" style="stroke:#A80036;stroke-width:1.875;" width="81.25" x="387.5" y="563.75"/><ellipse cx="406.8125" cy="583.75" fill="#ADD1B2" rx="13.75" ry="13.75" style="stroke:#A80036;stroke-width:1.25;"/><path d="M409.3125,579.375 Q409.5664,578.75 409.8594,578.4375 Q410.1523,578.125 410.4844,578.125 Q411.0703,578.125 411.4414,578.4766 Q411.8125,578.8281 411.8125,579.6484 L411.8125,581.6016 Q411.8125,582.4219 411.4609,582.7734 Q411.1094,583.125 410.5625,583.125 Q410.0742,583.125 409.7617,582.9102 Q409.4492,582.6953 409.3125,582.1289 Q409.2539,581.7383 409.0391,581.5234 Q408.6484,581.1133 407.9453,580.8789 Q407.2422,580.625 406.5391,580.625 Q405.6602,580.625 404.918,580.9766 Q404.1953,581.3281 403.6289,582.1094 Q403.0625,582.8906 403.0625,583.9648 L403.0625,585.1172 Q403.0625,586.4063 404.1172,587.2656 Q405.1719,588.125 407.0469,588.125 Q408.1602,588.125 408.9414,587.8711 Q409.3906,587.7344 409.8984,587.2852 Q410.2305,587.0313 410.4063,586.9531 Q410.582,586.875 410.7969,586.875 Q411.207,586.875 411.5,587.207 Q411.8125,587.5195 411.8125,587.9688 Q411.8125,588.3984 411.3828,588.9063 Q410.7578,589.6484 409.7617,590.0586 Q408.4531,590.625 406.8516,590.625 Q404.9766,590.625 403.4727,589.8828 Q402.2617,589.2969 401.4023,588.0273 Q400.5625,586.7578 400.5625,585.2539 L400.5625,583.8867 Q400.5625,582.3242 401.3047,580.957 Q402.0664,579.5898 403.375,578.8672 Q404.7031,578.125 406.1875,578.125 Q407.0859,578.125 407.8672,578.4375 Q408.6484,578.75 409.3125,579.375 Z " fill="#000000"/><text fill="#000000" font-family="sans-serif" font-size="15" lengthAdjust="spacing" textLength="40" x="424.4375" y="589.8877">Email</text><line style="stroke:#A80036;stroke-width:1.875;" x1="388.75" x2="467.5" y1="603.75" y2="603.75"/><line style="stroke:#A80036;stroke-width:1.875;" x1="388.75" x2="467.5" y1="613.75" y2="613.75"/><text fill="#000000" font-family="sans-serif" font-size="13.75" lengthAdjust="spacing" textLength="66.25" x="395" y="633.0237">+getEmail()</text><!--MD5=[c5b08e60048ef1bcd788d24cf324082e]
class UserSession--><rect codeLine="41" fill="#FEFECE" filter="url(#f14scbkpnkdpm8)" height="77.2949" id="UserSession" style="stroke:#A80036;stroke-width:1.875;" width="131.25" x="22.5" y="563.75"/><ellipse cx="41.25" cy="583.75" fill="#ADD1B2" rx="13.75" ry="13.75" style="stroke:#A80036;stroke-width:1.25;"/><path d="M43.75,579.375 Q44.0039,578.75 44.2969,578.4375 Q44.5898,578.125 44.9219,578.125 Q45.5078,578.125 45.8789,578.4766 Q46.25,578.8281 46.25,579.6484 L46.25,581.6016 Q46.25,582.4219 45.8984,582.7734 Q45.5469,583.125 45,583.125 Q44.5117,583.125 44.1992,582.9102 Q43.8867,582.6953 43.75,582.1289 Q43.6914,581.7383 43.4766,581.5234 Q43.0859,581.1133 42.3828,580.8789 Q41.6797,580.625 40.9766,580.625 Q40.0977,580.625 39.3555,580.9766 Q38.6328,581.3281 38.0664,582.1094 Q37.5,582.8906 37.5,583.9648 L37.5,585.1172 Q37.5,586.4063 38.5547,587.2656 Q39.6094,588.125 41.4844,588.125 Q42.5977,588.125 43.3789,587.8711 Q43.8281,587.7344 44.3359,587.2852 Q44.668,587.0313 44.8438,586.9531 Q45.0195,586.875 45.2344,586.875 Q45.6445,586.875 45.9375,587.207 Q46.25,587.5195 46.25,587.9688 Q46.25,588.3984 45.8203,588.9063 Q45.1953,589.6484 44.1992,590.0586 Q42.8906,590.625 41.2891,590.625 Q39.4141,590.625 37.9102,589.8828 Q36.6992,589.2969 35.8398,588.0273 Q35,586.7578 35,585.2539 L35,583.8867 Q35,582.3242 35.7422,580.957 Q36.5039,579.5898 37.8125,578.8672 Q39.1406,578.125 40.625,578.125 Q41.5234,578.125 42.3047,578.4375 Q43.0859,578.75 43.75,579.375 Z " fill="#000000"/><text fill="#000000" font-family="sans-serif" font-size="15" lengthAdjust="spacing" textLength="91.25" x="58.75" y="589.8877">UserSession</text><line style="stroke:#A80036;stroke-width:1.875;" x1="23.75" x2="152.5" y1="603.75" y2="603.75"/><line style="stroke:#A80036;stroke-width:1.875;" x1="23.75" x2="152.5" y1="613.75" y2="613.75"/><text fill="#000000" font-family="sans-serif" font-size="13.75" lengthAdjust="spacing" textLength="75" x="30" y="633.0237">+getUserId()</text><!--MD5=[8ae808d068a8995f06b9b3ec51357f0b]
class AuthFacade--><rect codeLine="45" fill="#FEFECE" filter="url(#f14scbkpnkdpm8)" height="77.2949" id="AuthFacade" style="stroke:#A80036;stroke-width:1.875;" width="145" x="198.125" y="563.75"/><ellipse cx="227.5625" cy="583.75" fill="#ADD1B2" rx="13.75" ry="13.75" style="stroke:#A80036;stroke-width:1.25;"/><path d="M230.0625,579.375 Q230.3164,578.75 230.6094,578.4375 Q230.9023,578.125 231.2344,578.125 Q231.8203,578.125 232.1914,578.4766 Q232.5625,578.8281 232.5625,579.6484 L232.5625,581.6016 Q232.5625,582.4219 232.2109,582.7734 Q231.8594,583.125 231.3125,583.125 Q230.8242,583.125 230.5117,582.9102 Q230.1992,582.6953 230.0625,582.1289 Q230.0039,581.7383 229.7891,581.5234 Q229.3984,581.1133 228.6953,580.8789 Q227.9922,580.625 227.2891,580.625 Q226.4102,580.625 225.668,580.9766 Q224.9453,581.3281 224.3789,582.1094 Q223.8125,582.8906 223.8125,583.9648 L223.8125,585.1172 Q223.8125,586.4063 224.8672,587.2656 Q225.9219,588.125 227.7969,588.125 Q228.9102,588.125 229.6914,587.8711 Q230.1406,587.7344 230.6484,587.2852 Q230.9805,587.0313 231.1563,586.9531 Q231.332,586.875 231.5469,586.875 Q231.957,586.875 232.25,587.207 Q232.5625,587.5195 232.5625,587.9688 Q232.5625,588.3984 232.1328,588.9063 Q231.5078,589.6484 230.5117,590.0586 Q229.2031,590.625 227.6016,590.625 Q225.7266,590.625 224.2227,589.8828 Q223.0117,589.2969 222.1523,588.0273 Q221.3125,586.7578 221.3125,585.2539 L221.3125,583.8867 Q221.3125,582.3242 222.0547,580.957 Q222.8164,579.5898 224.125,578.8672 Q225.4531,578.125 226.9375,578.125 Q227.8359,578.125 228.6172,578.4375 Q229.3984,578.75 230.0625,579.375 Z " fill="#000000"/><text fill="#000000" font-family="sans-serif" font-size="15" lengthAdjust="spacing" textLength="81.25" x="247.4375" y="589.8877">AuthFacade</text><line style="stroke:#A80036;stroke-width:1.875;" x1="199.375" x2="341.875" y1="603.75" y2="603.75"/><line style="stroke:#A80036;stroke-width:1.875;" x1="199.375" x2="341.875" y1="613.75" y2="613.75"/><text fill="#000000" font-family="sans-serif" font-size="13.75" lengthAdjust="spacing" textLength="130" x="205.625" y="633.0237">+getCurrentSession()</text><!--MD5=[1640ea3984379865429eb71b880f22a7]
link ViewTestResultUI to ViewTestResultController--><path codeLine="49" d="M360.625,68.9 C360.625,87.95 360.625,113.775 360.625,138 " fill="none" id="ViewTestResultUI-to-ViewTestResultController" style="stroke:#A80036;stroke-width:1.25;stroke-dasharray:7.0,7.0;"/><polygon fill="#A80036" points="360.625,144.7875,365.625,133.5375,360.625,138.5375,355.625,133.5375,360.625,144.7875" style="stroke:#A80036;stroke-width:1.25;"/><!--MD5=[2ef664b022081e31bf0cfa5a1f3d8985]
link ViewTestResultController to Company--><path codeLine="50" d="M270.9,273.8125 C225.525,305.775 171.525,343.8 130.4875,372.7 " fill="none" id="ViewTestResultController-to-Company" style="stroke:#A80036;stroke-width:1.25;stroke-dasharray:7.0,7.0;"/><polygon fill="#A80036" points="125.0375,376.5375,137.1167,374.1596,130.151,372.9438,131.3668,365.978,125.0375,376.5375" style="stroke:#A80036;stroke-width:1.25;"/><!--MD5=[8b16c846e8e12b824837bc152bc9099a]
link ViewTestResultController to ClientStore--><path codeLine="51" d="M333.1375,273.8125 C319.0375,306.2125 302.2375,344.8375 289.6,373.8875 " fill="none" id="ViewTestResultController-to-ClientStore" style="stroke:#A80036;stroke-width:1.25;stroke-dasharray:7.0,7.0;"/><polygon fill="#A80036" points="286.975,379.9375,296.065,371.6348,289.4801,374.2115,286.9034,367.6266,286.975,379.9375" style="stroke:#A80036;stroke-width:1.25;"/><!--MD5=[ef86b8568258ea20fa7f0c0f5b738509]
link ViewTestResultController to TestStore--><path codeLine="52" d="M422.1,273.8125 C450.95,303.475 484.8875,338.35 512.0875,366.325 " fill="none" id="ViewTestResultController-to-TestStore" style="stroke:#A80036;stroke-width:1.25;stroke-dasharray:7.0,7.0;"/><polygon fill="#A80036" points="516.7375,371.1,512.481,359.5482,512.381,366.6185,505.3107,366.5185,516.7375,371.1" style="stroke:#A80036;stroke-width:1.25;"/><!--MD5=[90b1696c6a335c584f892d8738b78f54]
link ViewTestResultController to ClinicalTest--><path codeLine="53" d="M534.125,273.875 C606.575,301.7125 691.0625,336.05 765.625,371.25 C771.15,373.85 776.8,376.6625 782.45,379.575 " fill="none" id="ViewTestResultController-to-ClinicalTest" style="stroke:#A80036;stroke-width:1.25;stroke-dasharray:7.0,7.0;"/><polygon fill="#A80036" points="788.0875,382.5,780.3955,372.8877,782.5371,379.6267,775.7982,381.7683,788.0875,382.5" style="stroke:#A80036;stroke-width:1.25;"/><!--MD5=[a11230341c8e65219708844feaa40162]
link Company to ClientStore--><path codeLine="56" d="M125.2625,418.75 C148.1625,418.75 174.6625,418.75 198.7125,418.75 " fill="none" id="Company-to-ClientStore" style="stroke:#A80036;stroke-width:1.25;"/><polygon fill="#A80036" points="205.425,418.75,194.175,413.75,199.175,418.75,194.175,423.75,205.425,418.75" style="stroke:#A80036;stroke-width:1.25;"/><text fill="#000000" font-family="sans-serif" font-size="16.25" lengthAdjust="spacing" textLength="35" x="147.8125" y="410.6189">uses</text><text fill="#000000" font-family="sans-serif" font-size="16.25" lengthAdjust="spacing" textLength="8.75" x="134.873" y="414.1527">1</text><text fill="#000000" font-family="sans-serif" font-size="16.25" lengthAdjust="spacing" textLength="8.75" x="186.891" y="414.258">1</text><!--MD5=[7f6cf7f175eae0af66201860de5de971]
link Company to TestStore--><path codeLine="57" d="M125.3125,381.875 C185.75,348.2625 283.1625,306.6125 369.375,326.25 C406.625,334.7375 445.075,351.375 477.725,368.225 " fill="none" id="Company-to-TestStore" style="stroke:#A80036;stroke-width:1.25;"/><polygon fill="#A80036" points="483.3375,371.1625,475.6826,361.5206,477.7983,368.2678,471.0511,370.3834,483.3375,371.1625" style="stroke:#A80036;stroke-width:1.25;"/><text fill="#000000" font-family="sans-serif" font-size="16.25" lengthAdjust="spacing" textLength="35" x="333.125" y="329.3689">uses</text><text fill="#000000" font-family="sans-serif" font-size="16.25" lengthAdjust="spacing" textLength="8.75" x="134.9307" y="371.6312">1</text><text fill="#000000" font-family="sans-serif" font-size="16.25" lengthAdjust="spacing" textLength="8.75" x="459.8187" y="357.8493">1</text><!--MD5=[f8bd89e10615b5e5f22d4bd50c99347c]
link ClientStore to AuthFacade--><path codeLine="58" d="M270.625,457.55 C270.625,486.6 270.625,526.8625 270.625,557.3875 " fill="none" id="ClientStore-to-AuthFacade" style="stroke:#A80036;stroke-width:1.25;stroke-dasharray:7.0,7.0;"/><polygon fill="#A80036" points="270.625,563.7375,275.625,552.4875,270.625,557.4875,265.625,552.4875,270.625,563.7375" style="stroke:#A80036;stroke-width:1.25;"/><!--MD5=[61ea77365f556ecab5ce31fbe45addfe]
link ClientStore to UserSession--><path codeLine="59" d="M232.8125,457.55 C202.9625,487.2 161.325,528.55 130.375,559.2875 " fill="none" id="ClientStore-to-UserSession" style="stroke:#A80036;stroke-width:1.25;stroke-dasharray:7.0,7.0;"/><polygon fill="#A80036" points="125.8875,563.7375,137.3958,559.3646,130.3248,559.336,130.3534,552.265,125.8875,563.7375" style="stroke:#A80036;stroke-width:1.25;"/><!--MD5=[adb1b98cb59d758fc4093ae567ae607a]
link ClientStore to Email--><path codeLine="60" d="M303.2625,457.55 C328.9125,487.0875 364.6625,528.2125 391.3375,558.9125 " fill="none" id="ClientStore-to-Email" style="stroke:#A80036;stroke-width:1.25;stroke-dasharray:7.0,7.0;"/><polygon fill="#A80036" points="395.5375,563.7375,391.9175,551.9707,391.432,559.0251,384.3776,558.5395,395.5375,563.7375" style="stroke:#A80036;stroke-width:1.25;"/><!--MD5=[f18989bbbfb04abede3065c4c94067f4]
link ClinicalTest to Report--><path codeLine="61" d="M849.375,466.675 C849.375,494.45 849.375,529.4875 849.375,556.85 " fill="none" id="ClinicalTest-to-Report" style="stroke:#A80036;stroke-width:1.25;stroke-dasharray:7.0,7.0;"/><polygon fill="#A80036" points="849.375,563.275,854.375,552.025,849.375,557.025,844.375,552.025,849.375,563.275" style="stroke:#A80036;stroke-width:1.25;"/><text fill="#000000" font-family="sans-serif" font-size="16.25" lengthAdjust="spacing" textLength="46.25" x="850.625" y="521.8689">knows</text><!--MD5=[4b50d7f05aeb08465e3da956ac5eb227]
@startuml
skinparam classAttributeIconSize 0

class ViewTestResultUI {
}

class ViewTestResultController {
+getClientByEmail()
+showClientTestsValidatedAndOrderedByRegistrationDate()
+showTestSelected(nhsCode)
+showTestResultsAndReport()
}

class Company {
+getClientStore()
+getTestStore()
}

class ClientStore {
+getClientByEmail()
}

class TestStore {
+getClientTestsValidatedAndOrderedByRegistrationDate()
+getTestByNhsCode(nhsCode)
}

class ClinicalTest {
+getTestResults()
+getReportText()
}

class Report {
+getReportText()
}


class Email {
+getEmail()
}

class UserSession {
+getUserId()
}

class AuthFacade {
+getCurrentSession()
}

ViewTestResultUI ..> ViewTestResultController
ViewTestResultController ..> Company
ViewTestResultController ..> ClientStore
ViewTestResultController ..> TestStore
ViewTestResultController ..>  ClinicalTest


Company"1" -> "1"ClientStore : uses
Company"1" -> "1"TestStore : uses
ClientStore ..> AuthFacade
ClientStore ..> UserSession
ClientStore ..> Email
ClinicalTest ..> Report: knows

@enduml

PlantUML version 1.2021.7(Sun May 23 13:40:07 BST 2021)
(GPL source distribution)
Java Runtime: OpenJDK Runtime Environment
JVM: OpenJDK 64-Bit Server VM
Default Encoding: Cp1252
Language: pt
Country: PT
--></g></svg>