<?xml version="1.0" encoding="UTF-8" standalone="no"?><svg xmlns="http://www.w3.org/2000/svg" xmlns:xlink="http://www.w3.org/1999/xlink" contentScriptType="application/ecmascript" contentStyleType="text/css" height="761.25px" preserveAspectRatio="none" style="width:337px;height:761px;background:#FFFFFF;" version="1.1" viewBox="0 0 337 761" width="337.5px" zoomAndPan="magnify"><defs><filter height="300%" id="fxe800vxumyd2" width="300%" x="-1" y="-1"><feGaussianBlur result="blurOut" stdDeviation="2.5"/><feColorMatrix in="blurOut" result="blurOut2" type="matrix" values="0 0 0 0 0 0 0 0 0 0 0 0 0 0 0 0 0 0 .4 0"/><feOffset dx="5.0" dy="5.0" in="blurOut2" result="blurOut3"/><feBlend in="SourceGraphic" in2="blurOut3" mode="normal"/></filter></defs><g><!--MD5=[02e4b9b7573f1156f41e60aa5b4e25a4]
class Company--><rect codeLine="5" fill="#FEFECE" filter="url(#fxe800vxumyd2)" height="67.2949" id="Company" style="stroke:#A80036;stroke-width:1.875;" width="106.25" x="100" y="8.75"/><ellipse cx="118.75" cy="28.75" fill="#ADD1B2" rx="13.75" ry="13.75" style="stroke:#A80036;stroke-width:1.25;"/><path d="M121.25,24.375 Q121.5039,23.75 121.7969,23.4375 Q122.0898,23.125 122.4219,23.125 Q123.0078,23.125 123.3789,23.4766 Q123.75,23.8281 123.75,24.6484 L123.75,26.6016 Q123.75,27.4219 123.3984,27.7734 Q123.0469,28.125 122.5,28.125 Q122.0117,28.125 121.6992,27.9102 Q121.3867,27.6953 121.25,27.1289 Q121.1914,26.7383 120.9766,26.5234 Q120.5859,26.1133 119.8828,25.8789 Q119.1797,25.625 118.4766,25.625 Q117.5977,25.625 116.8555,25.9766 Q116.1328,26.3281 115.5664,27.1094 Q115,27.8906 115,28.9648 L115,30.1172 Q115,31.4063 116.0547,32.2656 Q117.1094,33.125 118.9844,33.125 Q120.0977,33.125 120.8789,32.8711 Q121.3281,32.7344 121.8359,32.2852 Q122.168,32.0313 122.3438,31.9531 Q122.5195,31.875 122.7344,31.875 Q123.1445,31.875 123.4375,32.207 Q123.75,32.5195 123.75,32.9688 Q123.75,33.3984 123.3203,33.9063 Q122.6953,34.6484 121.6992,35.0586 Q120.3906,35.625 118.7891,35.625 Q116.9141,35.625 115.4102,34.8828 Q114.1992,34.2969 113.3398,33.0273 Q112.5,31.7578 112.5,30.2539 L112.5,28.8867 Q112.5,27.3242 113.2422,25.957 Q114.0039,24.5898 115.3125,23.8672 Q116.6406,23.125 118.125,23.125 Q119.0234,23.125 119.8047,23.4375 Q120.5859,23.75 121.25,24.375 Z " fill="#000000"/><text fill="#000000" font-family="sans-serif" font-size="15" lengthAdjust="spacing" textLength="66.25" x="136.25" y="34.8877">Company</text><line style="stroke:#A80036;stroke-width:1.875;" x1="101.25" x2="205" y1="48.75" y2="48.75"/><text fill="#000000" font-family="sans-serif" font-size="13.75" lengthAdjust="spacing" textLength="73.75" x="107.5" y="68.0237">-designation</text><!--MD5=[ed6624c6556d5e7b1bd23032162d20b7]
class Client--><rect codeLine="9" fill="#FEFECE" filter="url(#fxe800vxumyd2)" height="188.3594" id="Client" style="stroke:#A80036;stroke-width:1.875;" width="133.75" x="8.75" y="173.75"/><ellipse cx="51.6875" cy="193.75" fill="#ADD1B2" rx="13.75" ry="13.75" style="stroke:#A80036;stroke-width:1.25;"/><path d="M54.1875,189.375 Q54.4414,188.75 54.7344,188.4375 Q55.0273,188.125 55.3594,188.125 Q55.9453,188.125 56.3164,188.4766 Q56.6875,188.8281 56.6875,189.6484 L56.6875,191.6016 Q56.6875,192.4219 56.3359,192.7734 Q55.9844,193.125 55.4375,193.125 Q54.9492,193.125 54.6367,192.9102 Q54.3242,192.6953 54.1875,192.1289 Q54.1289,191.7383 53.9141,191.5234 Q53.5234,191.1133 52.8203,190.8789 Q52.1172,190.625 51.4141,190.625 Q50.5352,190.625 49.793,190.9766 Q49.0703,191.3281 48.5039,192.1094 Q47.9375,192.8906 47.9375,193.9648 L47.9375,195.1172 Q47.9375,196.4063 48.9922,197.2656 Q50.0469,198.125 51.9219,198.125 Q53.0352,198.125 53.8164,197.8711 Q54.2656,197.7344 54.7734,197.2852 Q55.1055,197.0313 55.2813,196.9531 Q55.457,196.875 55.6719,196.875 Q56.082,196.875 56.375,197.207 Q56.6875,197.5195 56.6875,197.9688 Q56.6875,198.3984 56.2578,198.9063 Q55.6328,199.6484 54.6367,200.0586 Q53.3281,200.625 51.7266,200.625 Q49.8516,200.625 48.3477,199.8828 Q47.1367,199.2969 46.2773,198.0273 Q45.4375,196.7578 45.4375,195.2539 L45.4375,193.8867 Q45.4375,192.3242 46.1797,190.957 Q46.9414,189.5898 48.25,188.8672 Q49.5781,188.125 51.0625,188.125 Q51.9609,188.125 52.7422,188.4375 Q53.5234,188.75 54.1875,189.375 Z " fill="#000000"/><text fill="#000000" font-family="sans-serif" font-size="15" lengthAdjust="spacing" textLength="40" x="74.5625" y="199.8877">Client</text><line style="stroke:#A80036;stroke-width:1.875;" x1="10" x2="141.25" y1="213.75" y2="213.75"/><text fill="#000000" font-family="sans-serif" font-size="13.75" lengthAdjust="spacing" textLength="37.5" x="16.25" y="233.0237">-name</text><text fill="#000000" font-family="sans-serif" font-size="13.75" lengthAdjust="spacing" textLength="118.75" x="16.25" y="250.3186">-citizenCardNumber</text><text fill="#000000" font-family="sans-serif" font-size="13.75" lengthAdjust="spacing" textLength="73.75" x="16.25" y="267.6135">-nhsNumber</text><text fill="#000000" font-family="sans-serif" font-size="13.75" lengthAdjust="spacing" textLength="65" x="16.25" y="284.9084">-tinNumber</text><text fill="#000000" font-family="sans-serif" font-size="13.75" lengthAdjust="spacing" textLength="58.75" x="16.25" y="302.2034">-birthDate</text><text fill="#000000" font-family="sans-serif" font-size="13.75" lengthAdjust="spacing" textLength="27.5" x="16.25" y="319.4983">-sex</text><text fill="#000000" font-family="sans-serif" font-size="13.75" lengthAdjust="spacing" textLength="88.75" x="16.25" y="336.7932">-phoneNumber</text><text fill="#000000" font-family="sans-serif" font-size="13.75" lengthAdjust="spacing" textLength="35" x="16.25" y="354.0881">-email</text><!--MD5=[b884fe3280a704cc481343612dc903ea]
class ClinicalAnalysisTest--><rect codeLine="20" fill="#FEFECE" filter="url(#fxe800vxumyd2)" height="136.4746" id="ClinicalAnalysisTest" style="stroke:#A80036;stroke-width:1.875;" width="178.75" x="141.25" y="460"/><ellipse cx="160" cy="480" fill="#ADD1B2" rx="13.75" ry="13.75" style="stroke:#A80036;stroke-width:1.25;"/><path d="M162.5,475.625 Q162.7539,475 163.0469,474.6875 Q163.3398,474.375 163.6719,474.375 Q164.2578,474.375 164.6289,474.7266 Q165,475.0781 165,475.8984 L165,477.8516 Q165,478.6719 164.6484,479.0234 Q164.2969,479.375 163.75,479.375 Q163.2617,479.375 162.9492,479.1602 Q162.6367,478.9453 162.5,478.3789 Q162.4414,477.9883 162.2266,477.7734 Q161.8359,477.3633 161.1328,477.1289 Q160.4297,476.875 159.7266,476.875 Q158.8477,476.875 158.1055,477.2266 Q157.3828,477.5781 156.8164,478.3594 Q156.25,479.1406 156.25,480.2148 L156.25,481.3672 Q156.25,482.6563 157.3047,483.5156 Q158.3594,484.375 160.2344,484.375 Q161.3477,484.375 162.1289,484.1211 Q162.5781,483.9844 163.0859,483.5352 Q163.418,483.2813 163.5938,483.2031 Q163.7695,483.125 163.9844,483.125 Q164.3945,483.125 164.6875,483.457 Q165,483.7695 165,484.2188 Q165,484.6484 164.5703,485.1563 Q163.9453,485.8984 162.9492,486.3086 Q161.6406,486.875 160.0391,486.875 Q158.1641,486.875 156.6602,486.1328 Q155.4492,485.5469 154.5898,484.2773 Q153.75,483.0078 153.75,481.5039 L153.75,480.1367 Q153.75,478.5742 154.4922,477.207 Q155.2539,475.8398 156.5625,475.1172 Q157.8906,474.375 159.375,474.375 Q160.2734,474.375 161.0547,474.6875 Q161.8359,475 162.5,475.625 Z " fill="#000000"/><text fill="#000000" font-family="sans-serif" font-size="15" lengthAdjust="spacing" textLength="138.75" x="177.5" y="486.1377">ClinicalAnalysisTest</text><line style="stroke:#A80036;stroke-width:1.875;" x1="142.5" x2="318.75" y1="500" y2="500"/><text fill="#000000" font-family="sans-serif" font-size="13.75" lengthAdjust="spacing" textLength="58.75" x="148.75" y="519.2737">-nhsCode</text><text fill="#000000" font-family="sans-serif" font-size="13.75" lengthAdjust="spacing" textLength="36.25" x="148.75" y="536.5686">-client</text><text fill="#000000" font-family="sans-serif" font-size="13.75" lengthAdjust="spacing" textLength="72.5" x="148.75" y="553.8635">-typeOfTest</text><text fill="#000000" font-family="sans-serif" font-size="13.75" lengthAdjust="spacing" textLength="87.5" x="148.75" y="571.1584">-parameterList</text><text fill="#000000" font-family="sans-serif" font-size="13.75" lengthAdjust="spacing" textLength="110" x="148.75" y="588.4534">-labWhereCreated</text><!--MD5=[0f6f7964b844a64b0496af0dda7914bd]
class TestStore--><rect fill="#FEFECE" filter="url(#fxe800vxumyd2)" height="50" id="TestStore" style="stroke:#A80036;stroke-width:1.875;" width="106.25" x="8.75" y="693.75"/><ellipse cx="27.5" cy="713.75" fill="#ADD1B2" rx="13.75" ry="13.75" style="stroke:#A80036;stroke-width:1.25;"/><path d="M30,709.375 Q30.2539,708.75 30.5469,708.4375 Q30.8398,708.125 31.1719,708.125 Q31.7578,708.125 32.1289,708.4766 Q32.5,708.8281 32.5,709.6484 L32.5,711.6016 Q32.5,712.4219 32.1484,712.7734 Q31.7969,713.125 31.25,713.125 Q30.7617,713.125 30.4492,712.9102 Q30.1367,712.6953 30,712.1289 Q29.9414,711.7383 29.7266,711.5234 Q29.3359,711.1133 28.6328,710.8789 Q27.9297,710.625 27.2266,710.625 Q26.3477,710.625 25.6055,710.9766 Q24.8828,711.3281 24.3164,712.1094 Q23.75,712.8906 23.75,713.9648 L23.75,715.1172 Q23.75,716.4063 24.8047,717.2656 Q25.8594,718.125 27.7344,718.125 Q28.8477,718.125 29.6289,717.8711 Q30.0781,717.7344 30.5859,717.2852 Q30.918,717.0313 31.0938,716.9531 Q31.2695,716.875 31.4844,716.875 Q31.8945,716.875 32.1875,717.207 Q32.5,717.5195 32.5,717.9688 Q32.5,718.3984 32.0703,718.9063 Q31.4453,719.6484 30.4492,720.0586 Q29.1406,720.625 27.5391,720.625 Q25.6641,720.625 24.1602,719.8828 Q22.9492,719.2969 22.0898,718.0273 Q21.25,716.7578 21.25,715.2539 L21.25,713.8867 Q21.25,712.3242 21.9922,710.957 Q22.7539,709.5898 24.0625,708.8672 Q25.3906,708.125 26.875,708.125 Q27.7734,708.125 28.5547,708.4375 Q29.3359,708.75 30,709.375 Z " fill="#000000"/><text fill="#000000" font-family="sans-serif" font-size="15" lengthAdjust="spacing" textLength="66.25" x="45" y="719.8877">TestStore</text><line style="stroke:#A80036;stroke-width:1.875;" x1="10" x2="113.75" y1="733.75" y2="733.75"/><!--MD5=[6eee883fdf517d3604e8bd0f2058e9aa]
link Company to Client--><path codeLine="30" d="M141.6875,76.675 C132.8,102.25 120.025,139.05 108.0625,173.475 " fill="none" id="Company-Client" style="stroke:#A80036;stroke-width:1.25;"/><polygon fill="#000000" points="132.3242,131.1237,139.5044,121.6488,132.5639,119.2379,132.3242,131.1237" style="stroke:#000000;stroke-width:1.25;"/><text fill="#000000" font-family="sans-serif" font-size="16.25" lengthAdjust="spacing" textLength="46.25" x="145.625" y="131.8689">knows</text><text fill="#000000" font-family="sans-serif" font-size="16.25" lengthAdjust="spacing" textLength="8.75" x="129.6762" y="102.7215">1</text><text fill="#000000" font-family="sans-serif" font-size="16.25" lengthAdjust="spacing" textLength="6.25" x="104.6979" y="160.0833">*</text><!--MD5=[763a80d6c063e6a8da74972bdf1c4b19]
link Company to ClinicalAnalysisTest--><path codeLine="32" d="M182.175,76.4875 C190.4,87.5875 198.4,100.525 203.125,113.75 C244.6875,230 242.8625,376.2125 237.15,459.8625 " fill="none" id="Company-ClinicalAnalysisTest" style="stroke:#A80036;stroke-width:1.25;"/><polygon fill="#000000" points="247.7622,274.5314,249.7937,262.8181,242.5208,263.861,247.7622,274.5314" style="stroke:#000000;stroke-width:1.25;"/><text fill="#000000" font-family="sans-serif" font-size="16.25" lengthAdjust="spacing" textLength="37.5" x="258.125" y="274.9939">owns</text><text fill="#000000" font-family="sans-serif" font-size="16.25" lengthAdjust="spacing" textLength="8.75" x="178.8227" y="103.0492">1</text><text fill="#000000" font-family="sans-serif" font-size="16.25" lengthAdjust="spacing" textLength="6.25" x="231.3569" y="446.2293">*</text><!--MD5=[9cb7afeb0805f8f6afc96b55437528c7]
link Client to ClinicalAnalysisTest--><path codeLine="33" d="M96.5125,362.8875 C103.2625,383.375 111.9875,404.35 123.125,422.5 C131.15,435.575 141.1875,448.175 151.8875,459.8125 " fill="none" id="Client-ClinicalAnalysisTest" style="stroke:#A80036;stroke-width:1.25;"/><polygon fill="#000000" points="132.4754,416.8965,130.0565,405.257,123.6769,408.9017,132.4754,416.8965" style="stroke:#000000;stroke-width:1.25;"/><text fill="#000000" font-family="sans-serif" font-size="16.25" lengthAdjust="spacing" textLength="56.25" x="140.625" y="418.1189">belongs</text><text fill="#000000" font-family="sans-serif" font-size="16.25" lengthAdjust="spacing" textLength="8.75" x="89.2331" y="389.1238">1</text><text fill="#000000" font-family="sans-serif" font-size="16.25" lengthAdjust="spacing" textLength="25" x="115.1977" y="446.6614">1..*</text><!--MD5=[ed7e87f424a6d14ab2eab4fc03009d50]
link Client to TestStore--><path codeLine="34" d="M59.45,362.65 C54.8125,393.5375 50.4125,428.15 48.125,460 C43.7875,520.4 44.7125,535.7875 48.125,596.25 C50.0375,630.0875 54.925,669 58.3375,693.4125 " fill="none" id="Client-TestStore" style="stroke:#A80036;stroke-width:1.25;"/><polygon fill="#000000" points="54.354,534.5947,58.0656,523.3008,50.7184,523.276,54.354,534.5947" style="stroke:#000000;stroke-width:1.25;"/><text fill="#000000" font-family="sans-serif" font-size="16.25" lengthAdjust="spacing" textLength="52.5" x="65.625" y="534.9939">access</text><text fill="#000000" font-family="sans-serif" font-size="16.25" lengthAdjust="spacing" textLength="8.75" x="48.8698" y="388.8651">1</text><text fill="#000000" font-family="sans-serif" font-size="16.25" lengthAdjust="spacing" textLength="8.75" x="47.2632" y="679.9656">1</text><!--MD5=[8a9e80916c7972132eb61e0621733bc4]
link ClinicalAnalysisTest to TestStore--><path codeLine="35" d="M170.175,596.7625 C139.9125,630.5 105.175,669.225 83.375,693.525 " fill="none" id="ClinicalAnalysisTest-TestStore" style="stroke:#A80036;stroke-width:1.25;"/><polygon fill="#000000" points="138.9516,649.8722,149.236,643.9089,143.7667,639.0028,138.9516,649.8722" style="stroke:#000000;stroke-width:1.25;"/><text fill="#000000" font-family="sans-serif" font-size="16.25" lengthAdjust="spacing" textLength="46.25" x="154.375" y="651.8689">knows</text><text fill="#000000" font-family="sans-serif" font-size="16.25" lengthAdjust="spacing" textLength="8.75" x="153.5245" y="623.2284">1</text><text fill="#000000" font-family="sans-serif" font-size="16.25" lengthAdjust="spacing" textLength="6.25" x="82.5227" y="680.1111">*</text><!--MD5=[89f3b7b42ee9cbb3e819a0422d3cbfe1]
@startuml
'https://plantuml.com/use-case-diagram
hide methods
skinparam classAttributeIconSize 0

class Company{
-designation
}

class Client {
-name
-citizenCardNumber
-nhsNumber
-tinNumber
-birthDate
-sex
-phoneNumber
-email
}

class ClinicalAnalysisTest {
- nhsCode
- client
- typeOfTest
- parameterList
- labWhereCreated
}



Company"1" - - "*"Client :> knows

Company "1" - - "*" ClinicalAnalysisTest :> owns
Client "1" - - "1..*" ClinicalAnalysisTest :> belongs
Client "1" - - "1" TestStore :> access
ClinicalAnalysisTest "1" - - "*" TestStore :> knows

@enduml

@startuml
hide methods
skinparam classAttributeIconSize 0

class Company{
-designation
}

class Client {
-name
-citizenCardNumber
-nhsNumber
-tinNumber
-birthDate
-sex
-phoneNumber
-email
}

class ClinicalAnalysisTest {
- nhsCode
- client
- typeOfTest
- parameterList
- labWhereCreated
}



Company"1" - - "*"Client :> knows

Company "1" - - "*" ClinicalAnalysisTest :> owns
Client "1" - - "1..*" ClinicalAnalysisTest :> belongs
Client "1" - - "1" TestStore :> access
ClinicalAnalysisTest "1" - - "*" TestStore :> knows

@enduml

PlantUML version 1.2021.7(Sun May 23 13:40:07 BST 2021)
(GPL source distribution)
Java Runtime: OpenJDK Runtime Environment
JVM: OpenJDK 64-Bit Server VM
Default Encoding: Cp1252
Language: pt
Country: PT
--></g></svg>