<?xml version="1.0" encoding="UTF-8" standalone="no"?><svg xmlns="http://www.w3.org/2000/svg" xmlns:xlink="http://www.w3.org/1999/xlink" contentScriptType="application/ecmascript" contentStyleType="text/css" height="636.25px" preserveAspectRatio="none" style="width:927px;height:636px;background:#FFFFFF;" version="1.1" viewBox="0 0 927 636" width="927.5px" zoomAndPan="magnify"><defs><filter height="300%" id="fne3zovtfsxwi" width="300%" x="-1" y="-1"><feGaussianBlur result="blurOut" stdDeviation="2.5"/><feColorMatrix in="blurOut" result="blurOut2" type="matrix" values="0 0 0 0 0 0 0 0 0 0 0 0 0 0 0 0 0 0 .4 0"/><feOffset dx="5.0" dy="5.0" in="blurOut2" result="blurOut3"/><feBlend in="SourceGraphic" in2="blurOut3" mode="normal"/></filter></defs><g><!--MD5=[b2d131f8fa8fc09e51963b462c4d9076]
class ViewTestResultUI--><rect codeLine="3" fill="#FEFECE" filter="url(#fne3zovtfsxwi)" height="60" id="ViewTestResultUI" style="stroke:#A80036;stroke-width:1.875;" width="162.5" x="355.625" y="8.75"/><ellipse cx="374.375" cy="28.75" fill="#ADD1B2" rx="13.75" ry="13.75" style="stroke:#A80036;stroke-width:1.25;"/><path d="M376.875,24.375 Q377.1289,23.75 377.4219,23.4375 Q377.7148,23.125 378.0469,23.125 Q378.6328,23.125 379.0039,23.4766 Q379.375,23.8281 379.375,24.6484 L379.375,26.6016 Q379.375,27.4219 379.0234,27.7734 Q378.6719,28.125 378.125,28.125 Q377.6367,28.125 377.3242,27.9102 Q377.0117,27.6953 376.875,27.1289 Q376.8164,26.7383 376.6016,26.5234 Q376.2109,26.1133 375.5078,25.8789 Q374.8047,25.625 374.1016,25.625 Q373.2227,25.625 372.4805,25.9766 Q371.7578,26.3281 371.1914,27.1094 Q370.625,27.8906 370.625,28.9648 L370.625,30.1172 Q370.625,31.4063 371.6797,32.2656 Q372.7344,33.125 374.6094,33.125 Q375.7227,33.125 376.5039,32.8711 Q376.9531,32.7344 377.4609,32.2852 Q377.793,32.0313 377.9688,31.9531 Q378.1445,31.875 378.3594,31.875 Q378.7695,31.875 379.0625,32.207 Q379.375,32.5195 379.375,32.9688 Q379.375,33.3984 378.9453,33.9063 Q378.3203,34.6484 377.3242,35.0586 Q376.0156,35.625 374.4141,35.625 Q372.5391,35.625 371.0352,34.8828 Q369.8242,34.2969 368.9648,33.0273 Q368.125,31.7578 368.125,30.2539 L368.125,28.8867 Q368.125,27.3242 368.8672,25.957 Q369.6289,24.5898 370.9375,23.8672 Q372.2656,23.125 373.75,23.125 Q374.6484,23.125 375.4297,23.4375 Q376.2109,23.75 376.875,24.375 Z " fill="#000000"/><text fill="#000000" font-family="sans-serif" font-size="15" lengthAdjust="spacing" textLength="122.5" x="391.875" y="34.8877">ViewTestResultUI</text><line style="stroke:#A80036;stroke-width:1.875;" x1="356.875" x2="516.875" y1="48.75" y2="48.75"/><line style="stroke:#A80036;stroke-width:1.875;" x1="356.875" x2="516.875" y1="58.75" y2="58.75"/><!--MD5=[27043c0ddc34f407dd46b5f88bc486e9]
class ViewTestResultController--><rect codeLine="6" fill="#FEFECE" filter="url(#fne3zovtfsxwi)" height="129.1797" id="ViewTestResultController" style="stroke:#A80036;stroke-width:1.875;" width="380" x="246.875" y="145"/><ellipse cx="344.0625" cy="165" fill="#ADD1B2" rx="13.75" ry="13.75" style="stroke:#A80036;stroke-width:1.25;"/><path d="M346.5625,160.625 Q346.8164,160 347.1094,159.6875 Q347.4023,159.375 347.7344,159.375 Q348.3203,159.375 348.6914,159.7266 Q349.0625,160.0781 349.0625,160.8984 L349.0625,162.8516 Q349.0625,163.6719 348.7109,164.0234 Q348.3594,164.375 347.8125,164.375 Q347.3242,164.375 347.0117,164.1602 Q346.6992,163.9453 346.5625,163.3789 Q346.5039,162.9883 346.2891,162.7734 Q345.8984,162.3633 345.1953,162.1289 Q344.4922,161.875 343.7891,161.875 Q342.9102,161.875 342.168,162.2266 Q341.4453,162.5781 340.8789,163.3594 Q340.3125,164.1406 340.3125,165.2148 L340.3125,166.3672 Q340.3125,167.6563 341.3672,168.5156 Q342.4219,169.375 344.2969,169.375 Q345.4102,169.375 346.1914,169.1211 Q346.6406,168.9844 347.1484,168.5352 Q347.4805,168.2813 347.6563,168.2031 Q347.832,168.125 348.0469,168.125 Q348.457,168.125 348.75,168.457 Q349.0625,168.7695 349.0625,169.2188 Q349.0625,169.6484 348.6328,170.1563 Q348.0078,170.8984 347.0117,171.3086 Q345.7031,171.875 344.1016,171.875 Q342.2266,171.875 340.7227,171.1328 Q339.5117,170.5469 338.6523,169.2773 Q337.8125,168.0078 337.8125,166.5039 L337.8125,165.1367 Q337.8125,163.5742 338.5547,162.207 Q339.3164,160.8398 340.625,160.1172 Q341.9531,159.375 343.4375,159.375 Q344.3359,159.375 345.1172,159.6875 Q345.8984,160 346.5625,160.625 Z " fill="#000000"/><text fill="#000000" font-family="sans-serif" font-size="15" lengthAdjust="spacing" textLength="175" x="369.6875" y="171.1377">ViewTestResultController</text><line style="stroke:#A80036;stroke-width:1.875;" x1="248.125" x2="625.625" y1="185" y2="185"/><line style="stroke:#A80036;stroke-width:1.875;" x1="248.125" x2="625.625" y1="195" y2="195"/><text fill="#000000" font-family="sans-serif" font-size="13.75" lengthAdjust="spacing" textLength="115" x="254.375" y="214.2737">+getClientByEmail()</text><text fill="#000000" font-family="sans-serif" font-size="13.75" lengthAdjust="spacing" textLength="365" x="254.375" y="231.5686">+showClientTestsValidatedAndOrderedByRegistrationDate()</text><text fill="#000000" font-family="sans-serif" font-size="13.75" lengthAdjust="spacing" textLength="206.25" x="254.375" y="248.8635">+showTestSelected(internalCode)</text><text fill="#000000" font-family="sans-serif" font-size="13.75" lengthAdjust="spacing" textLength="198.75" x="254.375" y="266.1584">+showTestResults(internalCode)</text><!--MD5=[02e4b9b7573f1156f41e60aa5b4e25a4]
class Company--><rect codeLine="13" fill="#FEFECE" filter="url(#fne3zovtfsxwi)" height="94.5898" id="Company" style="stroke:#A80036;stroke-width:1.875;" width="116.25" x="8.75" y="371.25"/><ellipse cx="32" cy="391.25" fill="#ADD1B2" rx="13.75" ry="13.75" style="stroke:#A80036;stroke-width:1.25;"/><path d="M34.5,386.875 Q34.7539,386.25 35.0469,385.9375 Q35.3398,385.625 35.6719,385.625 Q36.2578,385.625 36.6289,385.9766 Q37,386.3281 37,387.1484 L37,389.1016 Q37,389.9219 36.6484,390.2734 Q36.2969,390.625 35.75,390.625 Q35.2617,390.625 34.9492,390.4102 Q34.6367,390.1953 34.5,389.6289 Q34.4414,389.2383 34.2266,389.0234 Q33.8359,388.6133 33.1328,388.3789 Q32.4297,388.125 31.7266,388.125 Q30.8477,388.125 30.1055,388.4766 Q29.3828,388.8281 28.8164,389.6094 Q28.25,390.3906 28.25,391.4648 L28.25,392.6172 Q28.25,393.9063 29.3047,394.7656 Q30.3594,395.625 32.2344,395.625 Q33.3477,395.625 34.1289,395.3711 Q34.5781,395.2344 35.0859,394.7852 Q35.418,394.5313 35.5938,394.4531 Q35.7695,394.375 35.9844,394.375 Q36.3945,394.375 36.6875,394.707 Q37,395.0195 37,395.4688 Q37,395.8984 36.5703,396.4063 Q35.9453,397.1484 34.9492,397.5586 Q33.6406,398.125 32.0391,398.125 Q30.1641,398.125 28.6602,397.3828 Q27.4492,396.7969 26.5898,395.5273 Q25.75,394.2578 25.75,392.7539 L25.75,391.3867 Q25.75,389.8242 26.4922,388.457 Q27.2539,387.0898 28.5625,386.3672 Q29.8906,385.625 31.375,385.625 Q32.2734,385.625 33.0547,385.9375 Q33.8359,386.25 34.5,386.875 Z " fill="#000000"/><text fill="#000000" font-family="sans-serif" font-size="15" lengthAdjust="spacing" textLength="66.25" x="50.5" y="397.3877">Company</text><line style="stroke:#A80036;stroke-width:1.875;" x1="10" x2="123.75" y1="411.25" y2="411.25"/><line style="stroke:#A80036;stroke-width:1.875;" x1="10" x2="123.75" y1="421.25" y2="421.25"/><text fill="#000000" font-family="sans-serif" font-size="13.75" lengthAdjust="spacing" textLength="101.25" x="16.25" y="440.5237">+getClientStore()</text><text fill="#000000" font-family="sans-serif" font-size="13.75" lengthAdjust="spacing" textLength="95" x="16.25" y="457.8186">+getTestStore()</text><!--MD5=[55cb992be19579b505cea3c5691093cb]
class ClientStore--><rect codeLine="18" fill="#FEFECE" filter="url(#fne3zovtfsxwi)" height="77.2949" id="ClientStore" style="stroke:#A80036;stroke-width:1.875;" width="130" x="205.625" y="380"/><ellipse cx="230.5625" cy="400" fill="#ADD1B2" rx="13.75" ry="13.75" style="stroke:#A80036;stroke-width:1.25;"/><path d="M233.0625,395.625 Q233.3164,395 233.6094,394.6875 Q233.9023,394.375 234.2344,394.375 Q234.8203,394.375 235.1914,394.7266 Q235.5625,395.0781 235.5625,395.8984 L235.5625,397.8516 Q235.5625,398.6719 235.2109,399.0234 Q234.8594,399.375 234.3125,399.375 Q233.8242,399.375 233.5117,399.1602 Q233.1992,398.9453 233.0625,398.3789 Q233.0039,397.9883 232.7891,397.7734 Q232.3984,397.3633 231.6953,397.1289 Q230.9922,396.875 230.2891,396.875 Q229.4102,396.875 228.668,397.2266 Q227.9453,397.5781 227.3789,398.3594 Q226.8125,399.1406 226.8125,400.2148 L226.8125,401.3672 Q226.8125,402.6563 227.8672,403.5156 Q228.9219,404.375 230.7969,404.375 Q231.9102,404.375 232.6914,404.1211 Q233.1406,403.9844 233.6484,403.5352 Q233.9805,403.2813 234.1563,403.2031 Q234.332,403.125 234.5469,403.125 Q234.957,403.125 235.25,403.457 Q235.5625,403.7695 235.5625,404.2188 Q235.5625,404.6484 235.1328,405.1563 Q234.5078,405.8984 233.5117,406.3086 Q232.2031,406.875 230.6016,406.875 Q228.7266,406.875 227.2227,406.1328 Q226.0117,405.5469 225.1523,404.2773 Q224.3125,403.0078 224.3125,401.5039 L224.3125,400.1367 Q224.3125,398.5742 225.0547,397.207 Q225.8164,395.8398 227.125,395.1172 Q228.4531,394.375 229.9375,394.375 Q230.8359,394.375 231.6172,394.6875 Q232.3984,395 233.0625,395.625 Z " fill="#000000"/><text fill="#000000" font-family="sans-serif" font-size="15" lengthAdjust="spacing" textLength="76.25" x="249.4375" y="406.1377">ClientStore</text><line style="stroke:#A80036;stroke-width:1.875;" x1="206.875" x2="334.375" y1="420" y2="420"/><line style="stroke:#A80036;stroke-width:1.875;" x1="206.875" x2="334.375" y1="430" y2="430"/><text fill="#000000" font-family="sans-serif" font-size="13.75" lengthAdjust="spacing" textLength="115" x="213.125" y="449.2737">+getClientByEmail()</text><!--MD5=[0f6f7964b844a64b0496af0dda7914bd]
class TestStore--><rect codeLine="22" fill="#FEFECE" filter="url(#fne3zovtfsxwi)" height="94.5898" id="TestStore" style="stroke:#A80036;stroke-width:1.875;" width="363.75" x="380" y="371.25"/><ellipse cx="523.4375" cy="391.25" fill="#ADD1B2" rx="13.75" ry="13.75" style="stroke:#A80036;stroke-width:1.25;"/><path d="M525.9375,386.875 Q526.1914,386.25 526.4844,385.9375 Q526.7773,385.625 527.1094,385.625 Q527.6953,385.625 528.0664,385.9766 Q528.4375,386.3281 528.4375,387.1484 L528.4375,389.1016 Q528.4375,389.9219 528.0859,390.2734 Q527.7344,390.625 527.1875,390.625 Q526.6992,390.625 526.3867,390.4102 Q526.0742,390.1953 525.9375,389.6289 Q525.8789,389.2383 525.6641,389.0234 Q525.2734,388.6133 524.5703,388.3789 Q523.8672,388.125 523.1641,388.125 Q522.2852,388.125 521.543,388.4766 Q520.8203,388.8281 520.2539,389.6094 Q519.6875,390.3906 519.6875,391.4648 L519.6875,392.6172 Q519.6875,393.9063 520.7422,394.7656 Q521.7969,395.625 523.6719,395.625 Q524.7852,395.625 525.5664,395.3711 Q526.0156,395.2344 526.5234,394.7852 Q526.8555,394.5313 527.0313,394.4531 Q527.207,394.375 527.4219,394.375 Q527.832,394.375 528.125,394.707 Q528.4375,395.0195 528.4375,395.4688 Q528.4375,395.8984 528.0078,396.4063 Q527.3828,397.1484 526.3867,397.5586 Q525.0781,398.125 523.4766,398.125 Q521.6016,398.125 520.0977,397.3828 Q518.8867,396.7969 518.0273,395.5273 Q517.1875,394.2578 517.1875,392.7539 L517.1875,391.3867 Q517.1875,389.8242 517.9297,388.457 Q518.6914,387.0898 520,386.3672 Q521.3281,385.625 522.8125,385.625 Q523.7109,385.625 524.4922,385.9375 Q525.2734,386.25 525.9375,386.875 Z " fill="#000000"/><text fill="#000000" font-family="sans-serif" font-size="15" lengthAdjust="spacing" textLength="66.25" x="549.0625" y="397.3877">TestStore</text><line style="stroke:#A80036;stroke-width:1.875;" x1="381.25" x2="742.5" y1="411.25" y2="411.25"/><line style="stroke:#A80036;stroke-width:1.875;" x1="381.25" x2="742.5" y1="421.25" y2="421.25"/><text fill="#000000" font-family="sans-serif" font-size="13.75" lengthAdjust="spacing" textLength="348.75" x="387.5" y="440.5237">+getClientTestsValidatedAndOrderedByRegistrationDate()</text><text fill="#000000" font-family="sans-serif" font-size="13.75" lengthAdjust="spacing" textLength="185" x="387.5" y="457.8186">+getTestByCode(internalCode)</text><!--MD5=[51e7be1fc67316e87ee401e666e38435]
class ClinicalTest--><rect codeLine="27" fill="#FEFECE" filter="url(#fne3zovtfsxwi)" height="77.2949" id="ClinicalTest" style="stroke:#A80036;stroke-width:1.875;" width="122.5" x="788.125" y="380"/><ellipse cx="807.4375" cy="400" fill="#ADD1B2" rx="13.75" ry="13.75" style="stroke:#A80036;stroke-width:1.25;"/><path d="M809.9375,395.625 Q810.1914,395 810.4844,394.6875 Q810.7773,394.375 811.1094,394.375 Q811.6953,394.375 812.0664,394.7266 Q812.4375,395.0781 812.4375,395.8984 L812.4375,397.8516 Q812.4375,398.6719 812.0859,399.0234 Q811.7344,399.375 811.1875,399.375 Q810.6992,399.375 810.3867,399.1602 Q810.0742,398.9453 809.9375,398.3789 Q809.8789,397.9883 809.6641,397.7734 Q809.2734,397.3633 808.5703,397.1289 Q807.8672,396.875 807.1641,396.875 Q806.2852,396.875 805.543,397.2266 Q804.8203,397.5781 804.2539,398.3594 Q803.6875,399.1406 803.6875,400.2148 L803.6875,401.3672 Q803.6875,402.6563 804.7422,403.5156 Q805.7969,404.375 807.6719,404.375 Q808.7852,404.375 809.5664,404.1211 Q810.0156,403.9844 810.5234,403.5352 Q810.8555,403.2813 811.0313,403.2031 Q811.207,403.125 811.4219,403.125 Q811.832,403.125 812.125,403.457 Q812.4375,403.7695 812.4375,404.2188 Q812.4375,404.6484 812.0078,405.1563 Q811.3828,405.8984 810.3867,406.3086 Q809.0781,406.875 807.4766,406.875 Q805.6016,406.875 804.0977,406.1328 Q802.8867,405.5469 802.0273,404.2773 Q801.1875,403.0078 801.1875,401.5039 L801.1875,400.1367 Q801.1875,398.5742 801.9297,397.207 Q802.6914,395.8398 804,395.1172 Q805.3281,394.375 806.8125,394.375 Q807.7109,394.375 808.4922,394.6875 Q809.2734,395 809.9375,395.625 Z " fill="#000000"/><text fill="#000000" font-family="sans-serif" font-size="15" lengthAdjust="spacing" textLength="81.25" x="825.0625" y="406.1377">ClinicalTest</text><line style="stroke:#A80036;stroke-width:1.875;" x1="789.375" x2="909.375" y1="420" y2="420"/><line style="stroke:#A80036;stroke-width:1.875;" x1="789.375" x2="909.375" y1="430" y2="430"/><text fill="#000000" font-family="sans-serif" font-size="13.75" lengthAdjust="spacing" textLength="107.5" x="795.625" y="449.2737">+getTestResults()</text><!--MD5=[78bec0fde86ad92ec1dc3fb343b83709]
class Email--><rect codeLine="32" fill="#FEFECE" filter="url(#fne3zovtfsxwi)" height="77.2949" id="Email" style="stroke:#A80036;stroke-width:1.875;" width="81.25" x="80" y="542.5"/><ellipse cx="99.3125" cy="562.5" fill="#ADD1B2" rx="13.75" ry="13.75" style="stroke:#A80036;stroke-width:1.25;"/><path d="M101.8125,558.125 Q102.0664,557.5 102.3594,557.1875 Q102.6523,556.875 102.9844,556.875 Q103.5703,556.875 103.9414,557.2266 Q104.3125,557.5781 104.3125,558.3984 L104.3125,560.3516 Q104.3125,561.1719 103.9609,561.5234 Q103.6094,561.875 103.0625,561.875 Q102.5742,561.875 102.2617,561.6602 Q101.9492,561.4453 101.8125,560.8789 Q101.7539,560.4883 101.5391,560.2734 Q101.1484,559.8633 100.4453,559.6289 Q99.7422,559.375 99.0391,559.375 Q98.1602,559.375 97.418,559.7266 Q96.6953,560.0781 96.1289,560.8594 Q95.5625,561.6406 95.5625,562.7148 L95.5625,563.8672 Q95.5625,565.1563 96.6172,566.0156 Q97.6719,566.875 99.5469,566.875 Q100.6602,566.875 101.4414,566.6211 Q101.8906,566.4844 102.3984,566.0352 Q102.7305,565.7813 102.9063,565.7031 Q103.082,565.625 103.2969,565.625 Q103.707,565.625 104,565.957 Q104.3125,566.2695 104.3125,566.7188 Q104.3125,567.1484 103.8828,567.6563 Q103.2578,568.3984 102.2617,568.8086 Q100.9531,569.375 99.3516,569.375 Q97.4766,569.375 95.9727,568.6328 Q94.7617,568.0469 93.9023,566.7773 Q93.0625,565.5078 93.0625,564.0039 L93.0625,562.6367 Q93.0625,561.0742 93.8047,559.707 Q94.5664,558.3398 95.875,557.6172 Q97.2031,556.875 98.6875,556.875 Q99.5859,556.875 100.3672,557.1875 Q101.1484,557.5 101.8125,558.125 Z " fill="#000000"/><text fill="#000000" font-family="sans-serif" font-size="15" lengthAdjust="spacing" textLength="40" x="116.9375" y="568.6377">Email</text><line style="stroke:#A80036;stroke-width:1.875;" x1="81.25" x2="160" y1="582.5" y2="582.5"/><line style="stroke:#A80036;stroke-width:1.875;" x1="81.25" x2="160" y1="592.5" y2="592.5"/><text fill="#000000" font-family="sans-serif" font-size="13.75" lengthAdjust="spacing" textLength="66.25" x="87.5" y="611.7737">+getEmail()</text><!--MD5=[c5b08e60048ef1bcd788d24cf324082e]
class UserSession--><rect codeLine="36" fill="#FEFECE" filter="url(#fne3zovtfsxwi)" height="77.2949" id="UserSession" style="stroke:#A80036;stroke-width:1.875;" width="131.25" x="205" y="542.5"/><ellipse cx="223.75" cy="562.5" fill="#ADD1B2" rx="13.75" ry="13.75" style="stroke:#A80036;stroke-width:1.25;"/><path d="M226.25,558.125 Q226.5039,557.5 226.7969,557.1875 Q227.0898,556.875 227.4219,556.875 Q228.0078,556.875 228.3789,557.2266 Q228.75,557.5781 228.75,558.3984 L228.75,560.3516 Q228.75,561.1719 228.3984,561.5234 Q228.0469,561.875 227.5,561.875 Q227.0117,561.875 226.6992,561.6602 Q226.3867,561.4453 226.25,560.8789 Q226.1914,560.4883 225.9766,560.2734 Q225.5859,559.8633 224.8828,559.6289 Q224.1797,559.375 223.4766,559.375 Q222.5977,559.375 221.8555,559.7266 Q221.1328,560.0781 220.5664,560.8594 Q220,561.6406 220,562.7148 L220,563.8672 Q220,565.1563 221.0547,566.0156 Q222.1094,566.875 223.9844,566.875 Q225.0977,566.875 225.8789,566.6211 Q226.3281,566.4844 226.8359,566.0352 Q227.168,565.7813 227.3438,565.7031 Q227.5195,565.625 227.7344,565.625 Q228.1445,565.625 228.4375,565.957 Q228.75,566.2695 228.75,566.7188 Q228.75,567.1484 228.3203,567.6563 Q227.6953,568.3984 226.6992,568.8086 Q225.3906,569.375 223.7891,569.375 Q221.9141,569.375 220.4102,568.6328 Q219.1992,568.0469 218.3398,566.7773 Q217.5,565.5078 217.5,564.0039 L217.5,562.6367 Q217.5,561.0742 218.2422,559.707 Q219.0039,558.3398 220.3125,557.6172 Q221.6406,556.875 223.125,556.875 Q224.0234,556.875 224.8047,557.1875 Q225.5859,557.5 226.25,558.125 Z " fill="#000000"/><text fill="#000000" font-family="sans-serif" font-size="15" lengthAdjust="spacing" textLength="91.25" x="241.25" y="568.6377">UserSession</text><line style="stroke:#A80036;stroke-width:1.875;" x1="206.25" x2="335" y1="582.5" y2="582.5"/><line style="stroke:#A80036;stroke-width:1.875;" x1="206.25" x2="335" y1="592.5" y2="592.5"/><text fill="#000000" font-family="sans-serif" font-size="13.75" lengthAdjust="spacing" textLength="75" x="212.5" y="611.7737">+getUserId()</text><!--MD5=[8ae808d068a8995f06b9b3ec51357f0b]
class AuthFacade--><rect codeLine="40" fill="#FEFECE" filter="url(#fne3zovtfsxwi)" height="77.2949" id="AuthFacade" style="stroke:#A80036;stroke-width:1.875;" width="145" x="380.625" y="542.5"/><ellipse cx="410.0625" cy="562.5" fill="#ADD1B2" rx="13.75" ry="13.75" style="stroke:#A80036;stroke-width:1.25;"/><path d="M412.5625,558.125 Q412.8164,557.5 413.1094,557.1875 Q413.4023,556.875 413.7344,556.875 Q414.3203,556.875 414.6914,557.2266 Q415.0625,557.5781 415.0625,558.3984 L415.0625,560.3516 Q415.0625,561.1719 414.7109,561.5234 Q414.3594,561.875 413.8125,561.875 Q413.3242,561.875 413.0117,561.6602 Q412.6992,561.4453 412.5625,560.8789 Q412.5039,560.4883 412.2891,560.2734 Q411.8984,559.8633 411.1953,559.6289 Q410.4922,559.375 409.7891,559.375 Q408.9102,559.375 408.168,559.7266 Q407.4453,560.0781 406.8789,560.8594 Q406.3125,561.6406 406.3125,562.7148 L406.3125,563.8672 Q406.3125,565.1563 407.3672,566.0156 Q408.4219,566.875 410.2969,566.875 Q411.4102,566.875 412.1914,566.6211 Q412.6406,566.4844 413.1484,566.0352 Q413.4805,565.7813 413.6563,565.7031 Q413.832,565.625 414.0469,565.625 Q414.457,565.625 414.75,565.957 Q415.0625,566.2695 415.0625,566.7188 Q415.0625,567.1484 414.6328,567.6563 Q414.0078,568.3984 413.0117,568.8086 Q411.7031,569.375 410.1016,569.375 Q408.2266,569.375 406.7227,568.6328 Q405.5117,568.0469 404.6523,566.7773 Q403.8125,565.5078 403.8125,564.0039 L403.8125,562.6367 Q403.8125,561.0742 404.5547,559.707 Q405.3164,558.3398 406.625,557.6172 Q407.9531,556.875 409.4375,556.875 Q410.3359,556.875 411.1172,557.1875 Q411.8984,557.5 412.5625,558.125 Z " fill="#000000"/><text fill="#000000" font-family="sans-serif" font-size="15" lengthAdjust="spacing" textLength="81.25" x="429.9375" y="568.6377">AuthFacade</text><line style="stroke:#A80036;stroke-width:1.875;" x1="381.875" x2="524.375" y1="582.5" y2="582.5"/><line style="stroke:#A80036;stroke-width:1.875;" x1="381.875" x2="524.375" y1="592.5" y2="592.5"/><text fill="#000000" font-family="sans-serif" font-size="13.75" lengthAdjust="spacing" textLength="130" x="388.125" y="611.7737">+getCurrentSession()</text><!--MD5=[1640ea3984379865429eb71b880f22a7]
link ViewTestResultUI to ViewTestResultController--><path codeLine="44" d="M436.875,68.9 C436.875,87.95 436.875,113.775 436.875,138 " fill="none" id="ViewTestResultUI-to-ViewTestResultController" style="stroke:#A80036;stroke-width:1.25;stroke-dasharray:7.0,7.0;"/><polygon fill="#A80036" points="436.875,144.7875,441.875,133.5375,436.875,138.5375,431.875,133.5375,436.875,144.7875" style="stroke:#A80036;stroke-width:1.25;"/><!--MD5=[2ef664b022081e31bf0cfa5a1f3d8985]
link ViewTestResultController to Company--><path codeLine="45" d="M323.85,273.8125 C260.4875,309.25 183.7875,352.1375 130.7625,381.775 " fill="none" id="ViewTestResultController-to-Company" style="stroke:#A80036;stroke-width:1.25;stroke-dasharray:7.0,7.0;"/><polygon fill="#A80036" points="125.0625,384.9625,137.3206,383.8221,130.5141,381.906,132.4303,375.0995,125.0625,384.9625" style="stroke:#A80036;stroke-width:1.25;"/><!--MD5=[8b16c846e8e12b824837bc152bc9099a]
link ViewTestResultController to ClientStore--><path codeLine="46" d="M356.0125,273.85 C343.725,285.5125 331.8375,298.1625 321.875,311.25 C307.6,330 295.8,353.375 287.1375,373.4125 " fill="none" id="ViewTestResultController-to-ClientStore" style="stroke:#A80036;stroke-width:1.25;stroke-dasharray:7.0,7.0;"/><polygon fill="#A80036" points="284.55,379.5125,293.5332,371.0944,286.9817,373.755,284.3211,367.2036,284.55,379.5125" style="stroke:#A80036;stroke-width:1.25;"/><!--MD5=[ef86b8568258ea20fa7f0c0f5b738509]
link ViewTestResultController to TestStore--><path codeLine="47" d="M475.0625,273.8125 C492.825,303.225 513.7,337.775 530.5375,365.625 " fill="none" id="ViewTestResultController-to-TestStore" style="stroke:#A80036;stroke-width:1.25;stroke-dasharray:7.0,7.0;"/><polygon fill="#A80036" points="533.8375,371.1,532.307,358.8844,530.6088,365.7486,523.7447,364.0504,533.8375,371.1" style="stroke:#A80036;stroke-width:1.25;"/><!--MD5=[90b1696c6a335c584f892d8738b78f54]
link ViewTestResultController to ClinicalTest--><path codeLine="48" d="M570,273.8 C630.1125,302.8 701.8,338.0625 765.625,371.25 C771.0375,374.0625 776.625,377.025 782.225,380.0375 " fill="none" id="ViewTestResultController-to-ClinicalTest" style="stroke:#A80036;stroke-width:1.25;stroke-dasharray:7.0,7.0;"/><polygon fill="#A80036" points="787.825,383.05,780.294,373.3111,782.3232,380.0847,775.5496,382.114,787.825,383.05" style="stroke:#A80036;stroke-width:1.25;"/><!--MD5=[a11230341c8e65219708844feaa40162]
link Company to ClientStore--><path codeLine="51" d="M125.2625,418.75 C148.1625,418.75 174.6625,418.75 198.7125,418.75 " fill="none" id="Company-to-ClientStore" style="stroke:#A80036;stroke-width:1.25;"/><polygon fill="#A80036" points="205.425,418.75,194.175,413.75,199.175,418.75,194.175,423.75,205.425,418.75" style="stroke:#A80036;stroke-width:1.25;"/><text fill="#000000" font-family="sans-serif" font-size="16.25" lengthAdjust="spacing" textLength="35" x="147.8125" y="410.6189">uses</text><text fill="#000000" font-family="sans-serif" font-size="16.25" lengthAdjust="spacing" textLength="8.75" x="134.873" y="414.1527">1</text><text fill="#000000" font-family="sans-serif" font-size="16.25" lengthAdjust="spacing" textLength="8.75" x="186.891" y="414.258">1</text><!--MD5=[7f6cf7f175eae0af66201860de5de971]
link Company to TestStore--><path codeLine="52" d="M125.3125,381.875 C185.75,348.2625 283.1625,306.6125 369.375,326.25 C406.625,334.7375 445.075,351.375 477.725,368.225 " fill="none" id="Company-to-TestStore" style="stroke:#A80036;stroke-width:1.25;"/><polygon fill="#A80036" points="483.3375,371.1625,475.6826,361.5206,477.7983,368.2678,471.0511,370.3834,483.3375,371.1625" style="stroke:#A80036;stroke-width:1.25;"/><text fill="#000000" font-family="sans-serif" font-size="16.25" lengthAdjust="spacing" textLength="35" x="333.125" y="329.3689">uses</text><text fill="#000000" font-family="sans-serif" font-size="16.25" lengthAdjust="spacing" textLength="8.75" x="134.9307" y="371.6312">1</text><text fill="#000000" font-family="sans-serif" font-size="16.25" lengthAdjust="spacing" textLength="8.75" x="459.8187" y="357.8493">1</text><!--MD5=[f8bd89e10615b5e5f22d4bd50c99347c]
link ClientStore to AuthFacade--><path codeLine="53" d="M313.4125,457.5125 C341,481.7 376.9125,513.1875 405.425,538.175 " fill="none" id="ClientStore-to-AuthFacade" style="stroke:#A80036;stroke-width:1.25;stroke-dasharray:7.0,7.0;"/><polygon fill="#A80036" points="410.2875,542.45,405.1135,531.2789,405.5839,538.3343,398.5285,538.8047,410.2875,542.45" style="stroke:#A80036;stroke-width:1.25;"/><!--MD5=[61ea77365f556ecab5ce31fbe45addfe]
link ClientStore to UserSession--><path codeLine="54" d="M270.625,457.5125 C270.625,480.9125 270.625,511.15 270.625,535.725 " fill="none" id="ClientStore-to-UserSession" style="stroke:#A80036;stroke-width:1.25;stroke-dasharray:7.0,7.0;"/><polygon fill="#A80036" points="270.625,542.1625,275.625,530.9125,270.625,535.9125,265.625,530.9125,270.625,542.1625" style="stroke:#A80036;stroke-width:1.25;"/><!--MD5=[adb1b98cb59d758fc4093ae567ae607a]
link ClientStore to Email--><path codeLine="55" d="M235.4625,457.5125 C213.05,481.4125 183.9625,512.4375 160.675,537.2875 " fill="none" id="ClientStore-to-Email" style="stroke:#A80036;stroke-width:1.25;stroke-dasharray:7.0,7.0;"/><polygon fill="#A80036" points="156.0875,542.1625,167.4289,537.3734,160.3615,537.6023,160.1326,530.535,156.0875,542.1625" style="stroke:#A80036;stroke-width:1.25;"/><!--MD5=[f95e71bbe612dd186ad1a07cc51ff509]
@startuml
skinparam classAttributeIconSize 0

class ViewTestResultUI {
}

class ViewTestResultController {
+getClientByEmail()
+showClientTestsValidatedAndOrderedByRegistrationDate()
+showTestSelected(internalCode)
+showTestResults(internalCode)
}

class Company {
+getClientStore()
+getTestStore()
}

class ClientStore {
+getClientByEmail()
}

class TestStore {
+getClientTestsValidatedAndOrderedByRegistrationDate()
+getTestByCode(internalCode)
}

class ClinicalTest {
+getTestResults()
}


class Email {
+getEmail()
}

class UserSession {
+getUserId()
}

class AuthFacade {
+getCurrentSession()
}

ViewTestResultUI ..> ViewTestResultController
ViewTestResultController ..> Company
ViewTestResultController ..> ClientStore
ViewTestResultController ..> TestStore
ViewTestResultController ..>  ClinicalTest


Company"1" -> "1"ClientStore : uses
Company"1" -> "1"TestStore : uses
ClientStore ..> AuthFacade
ClientStore ..> UserSession
ClientStore ..> Email


@enduml

PlantUML version 1.2021.7(Sun May 23 13:40:07 BST 2021)
(GPL source distribution)
Java Runtime: OpenJDK Runtime Environment
JVM: OpenJDK 64-Bit Server VM
Default Encoding: Cp1252
Language: pt
Country: PT
--></g></svg>