<?xml version="1.0" encoding="UTF-8" standalone="no"?><svg xmlns="http://www.w3.org/2000/svg" xmlns:xlink="http://www.w3.org/1999/xlink" contentScriptType="application/ecmascript" contentStyleType="text/css" height="425px" preserveAspectRatio="none" style="width:1044px;height:425px;" version="1.1" viewBox="0 0 1044 425" width="1044px" zoomAndPan="magnify"><defs><filter height="300%" id="fox6elyu4a6ae" width="300%" x="-1" y="-1"><feGaussianBlur result="blurOut" stdDeviation="2.0"/><feColorMatrix in="blurOut" result="blurOut2" type="matrix" values="0 0 0 0 0 0 0 0 0 0 0 0 0 0 0 0 0 0 .4 0"/><feOffset dx="4.0" dy="4.0" in="blurOut2" result="blurOut3"/><feBlend in="SourceGraphic" in2="blurOut3" mode="normal"/></filter></defs><g><!--MD5=[71152100d89f377ebd8dc97f1c2b0d02]
class RegisterClientUI--><rect codeLine="4" fill="#FEFECE" filter="url(#fox6elyu4a6ae)" height="48" id="RegisterClientUI" style="stroke:#A80036;stroke-width:1.5;" width="123" x="201" y="7"/><ellipse cx="216" cy="23" fill="#ADD1B2" rx="11" ry="11" style="stroke:#A80036;stroke-width:1.0;"/><path d="M218,19.5 Q218.2031,19 218.4375,18.75 Q218.6719,18.5 218.9375,18.5 Q219.4063,18.5 219.7031,18.7813 Q220,19.0625 220,19.7188 L220,21.2813 Q220,21.9375 219.7188,22.2188 Q219.4375,22.5 219,22.5 Q218.6094,22.5 218.3594,22.3281 Q218.1094,22.1563 218,21.7031 Q217.9531,21.3906 217.7813,21.2188 Q217.4688,20.8906 216.9063,20.7031 Q216.3438,20.5 215.7813,20.5 Q215.0781,20.5 214.4844,20.7813 Q213.9063,21.0625 213.4531,21.6875 Q213,22.3125 213,23.1719 L213,24.0938 Q213,25.125 213.8438,25.8125 Q214.6875,26.5 216.1875,26.5 Q217.0781,26.5 217.7031,26.2969 Q218.0625,26.1875 218.4688,25.8281 Q218.7344,25.625 218.875,25.5625 Q219.0156,25.5 219.1875,25.5 Q219.5156,25.5 219.75,25.7656 Q220,26.0156 220,26.375 Q220,26.7188 219.6563,27.125 Q219.1563,27.7188 218.3594,28.0469 Q217.3125,28.5 216.0313,28.5 Q214.5313,28.5 213.3281,27.9063 Q212.3594,27.4375 211.6719,26.4219 Q211,25.4063 211,24.2031 L211,23.1094 Q211,21.8594 211.5938,20.7656 Q212.2031,19.6719 213.25,19.0938 Q214.3125,18.5 215.5,18.5 Q216.2188,18.5 216.8438,18.75 Q217.4688,19 218,19.5 Z " fill="#000000"/><text fill="#000000" font-family="sans-serif" font-size="12" lengthAdjust="spacing" textLength="91" x="230" y="27.9102">RegisterClientUI</text><line style="stroke:#A80036;stroke-width:1.5;" x1="202" x2="323" y1="39" y2="39"/><line style="stroke:#A80036;stroke-width:1.5;" x1="202" x2="323" y1="47" y2="47"/><!--MD5=[1a7fda4a36185bcd740bdf14b2b3a45e]
class RegisterClientController--><rect codeLine="8" fill="#FEFECE" filter="url(#fox6elyu4a6ae)" height="75.6719" id="RegisterClientController" style="stroke:#A80036;stroke-width:1.5;" width="511" x="7" y="116"/><ellipse cx="191.75" cy="132" fill="#ADD1B2" rx="11" ry="11" style="stroke:#A80036;stroke-width:1.0;"/><path d="M193.75,128.5 Q193.9531,128 194.1875,127.75 Q194.4219,127.5 194.6875,127.5 Q195.1563,127.5 195.4531,127.7813 Q195.75,128.0625 195.75,128.7188 L195.75,130.2813 Q195.75,130.9375 195.4688,131.2188 Q195.1875,131.5 194.75,131.5 Q194.3594,131.5 194.1094,131.3281 Q193.8594,131.1563 193.75,130.7031 Q193.7031,130.3906 193.5313,130.2188 Q193.2188,129.8906 192.6563,129.7031 Q192.0938,129.5 191.5313,129.5 Q190.8281,129.5 190.2344,129.7813 Q189.6563,130.0625 189.2031,130.6875 Q188.75,131.3125 188.75,132.1719 L188.75,133.0938 Q188.75,134.125 189.5938,134.8125 Q190.4375,135.5 191.9375,135.5 Q192.8281,135.5 193.4531,135.2969 Q193.8125,135.1875 194.2188,134.8281 Q194.4844,134.625 194.625,134.5625 Q194.7656,134.5 194.9375,134.5 Q195.2656,134.5 195.5,134.7656 Q195.75,135.0156 195.75,135.375 Q195.75,135.7188 195.4063,136.125 Q194.9063,136.7188 194.1094,137.0469 Q193.0625,137.5 191.7813,137.5 Q190.2813,137.5 189.0781,136.9063 Q188.1094,136.4375 187.4219,135.4219 Q186.75,134.4063 186.75,133.2031 L186.75,132.1094 Q186.75,130.8594 187.3438,129.7656 Q187.9531,128.6719 189,128.0938 Q190.0625,127.5 191.25,127.5 Q191.9688,127.5 192.5938,127.75 Q193.2188,128 193.75,128.5 Z " fill="#000000"/><text fill="#000000" font-family="sans-serif" font-size="12" lengthAdjust="spacing" textLength="133" x="212.25" y="136.9102">RegisterClientController</text><line style="stroke:#A80036;stroke-width:1.5;" x1="8" x2="517" y1="148" y2="148"/><line style="stroke:#A80036;stroke-width:1.5;" x1="8" x2="517" y1="156" y2="156"/><text fill="#000000" font-family="sans-serif" font-size="11" lengthAdjust="spacing" textLength="499" x="13" y="171.4189">+Client newClient(name, citizenCardNumber,nhsNumber,tinNumber, birthDate, sex, phoneNumber, email)</text><text fill="#000000" font-family="sans-serif" font-size="11" lengthAdjust="spacing" textLength="131" x="13" y="185.2549">+validateClient(Client client)</text><!--MD5=[ed6624c6556d5e7b1bd23032162d20b7]
class Client--><rect codeLine="14" fill="#FEFECE" filter="url(#fox6elyu4a6ae)" height="158.6875" id="Client" style="stroke:#A80036;stroke-width:1.5;" width="105" x="925" y="253"/><ellipse cx="958.45" cy="269" fill="#ADD1B2" rx="11" ry="11" style="stroke:#A80036;stroke-width:1.0;"/><path d="M960.45,265.5 Q960.6531,265 960.8875,264.75 Q961.1219,264.5 961.3875,264.5 Q961.8563,264.5 962.1531,264.7813 Q962.45,265.0625 962.45,265.7188 L962.45,267.2813 Q962.45,267.9375 962.1688,268.2188 Q961.8875,268.5 961.45,268.5 Q961.0594,268.5 960.8094,268.3281 Q960.5594,268.1563 960.45,267.7031 Q960.4031,267.3906 960.2313,267.2188 Q959.9188,266.8906 959.3563,266.7031 Q958.7938,266.5 958.2313,266.5 Q957.5281,266.5 956.9344,266.7813 Q956.3563,267.0625 955.9031,267.6875 Q955.45,268.3125 955.45,269.1719 L955.45,270.0938 Q955.45,271.125 956.2938,271.8125 Q957.1375,272.5 958.6375,272.5 Q959.5281,272.5 960.1531,272.2969 Q960.5125,272.1875 960.9188,271.8281 Q961.1844,271.625 961.325,271.5625 Q961.4656,271.5 961.6375,271.5 Q961.9656,271.5 962.2,271.7656 Q962.45,272.0156 962.45,272.375 Q962.45,272.7188 962.1063,273.125 Q961.6063,273.7188 960.8094,274.0469 Q959.7625,274.5 958.4813,274.5 Q956.9813,274.5 955.7781,273.9063 Q954.8094,273.4375 954.1219,272.4219 Q953.45,271.4063 953.45,270.2031 L953.45,269.1094 Q953.45,267.8594 954.0438,266.7656 Q954.6531,265.6719 955.7,265.0938 Q956.7625,264.5 957.95,264.5 Q958.6688,264.5 959.2938,264.75 Q959.9188,265 960.45,265.5 Z " fill="#000000"/><text fill="#000000" font-family="sans-serif" font-size="12" lengthAdjust="spacing" textLength="32" x="976.55" y="273.9102">Client</text><line style="stroke:#A80036;stroke-width:1.5;" x1="926" x2="1029" y1="285" y2="285"/><text fill="#000000" font-family="sans-serif" font-size="11" lengthAdjust="spacing" textLength="30" x="931" y="300.4189">-name</text><text fill="#000000" font-family="sans-serif" font-size="11" lengthAdjust="spacing" textLength="59" x="931" y="314.2549">-nhsNumber</text><text fill="#000000" font-family="sans-serif" font-size="11" lengthAdjust="spacing" textLength="52" x="931" y="328.0908">-tinNumber</text><text fill="#000000" font-family="sans-serif" font-size="11" lengthAdjust="spacing" textLength="47" x="931" y="341.9268">-birthDate</text><text fill="#000000" font-family="sans-serif" font-size="11" lengthAdjust="spacing" textLength="22" x="931" y="355.7627">-sex</text><text fill="#000000" font-family="sans-serif" font-size="11" lengthAdjust="spacing" textLength="71" x="931" y="369.5986">-phoneNumber</text><text fill="#000000" font-family="sans-serif" font-size="11" lengthAdjust="spacing" textLength="28" x="931" y="383.4346">-email</text><line style="stroke:#A80036;stroke-width:1.5;" x1="926" x2="1029" y1="389.8516" y2="389.8516"/><text fill="#000000" font-family="sans-serif" font-size="11" lengthAdjust="spacing" textLength="93" x="931" y="405.2705">+client(Client client)</text><!--MD5=[02e4b9b7573f1156f41e60aa5b4e25a4]
class Company--><rect codeLine="25" fill="#FEFECE" filter="url(#fox6elyu4a6ae)" height="89.5078" id="Company" style="stroke:#A80036;stroke-width:1.5;" width="93" x="216" y="287.5"/><ellipse cx="234.6" cy="303.5" fill="#ADD1B2" rx="11" ry="11" style="stroke:#A80036;stroke-width:1.0;"/><path d="M236.6,300 Q236.8031,299.5 237.0375,299.25 Q237.2719,299 237.5375,299 Q238.0063,299 238.3031,299.2813 Q238.6,299.5625 238.6,300.2188 L238.6,301.7813 Q238.6,302.4375 238.3188,302.7188 Q238.0375,303 237.6,303 Q237.2094,303 236.9594,302.8281 Q236.7094,302.6563 236.6,302.2031 Q236.5531,301.8906 236.3813,301.7188 Q236.0688,301.3906 235.5063,301.2031 Q234.9438,301 234.3813,301 Q233.6781,301 233.0844,301.2813 Q232.5063,301.5625 232.0531,302.1875 Q231.6,302.8125 231.6,303.6719 L231.6,304.5938 Q231.6,305.625 232.4438,306.3125 Q233.2875,307 234.7875,307 Q235.6781,307 236.3031,306.7969 Q236.6625,306.6875 237.0688,306.3281 Q237.3344,306.125 237.475,306.0625 Q237.6156,306 237.7875,306 Q238.1156,306 238.35,306.2656 Q238.6,306.5156 238.6,306.875 Q238.6,307.2188 238.2563,307.625 Q237.7563,308.2188 236.9594,308.5469 Q235.9125,309 234.6313,309 Q233.1313,309 231.9281,308.4063 Q230.9594,307.9375 230.2719,306.9219 Q229.6,305.9063 229.6,304.7031 L229.6,303.6094 Q229.6,302.3594 230.1938,301.2656 Q230.8031,300.1719 231.85,299.5938 Q232.9125,299 234.1,299 Q234.8188,299 235.4438,299.25 Q236.0688,299.5 236.6,300 Z " fill="#000000"/><text fill="#000000" font-family="sans-serif" font-size="12" lengthAdjust="spacing" textLength="53" x="249.4" y="308.4102">Company</text><line style="stroke:#A80036;stroke-width:1.5;" x1="217" x2="308" y1="319.5" y2="319.5"/><text fill="#000000" font-family="sans-serif" font-size="11" lengthAdjust="spacing" textLength="30" x="222" y="334.9189">-name</text><text fill="#000000" font-family="sans-serif" font-size="11" lengthAdjust="spacing" textLength="41" x="222" y="348.7549">-location</text><line style="stroke:#A80036;stroke-width:1.5;" x1="217" x2="308" y1="355.1719" y2="355.1719"/><text fill="#000000" font-family="sans-serif" font-size="11" lengthAdjust="spacing" textLength="81" x="222" y="370.5908">+getClientStore()</text><!--MD5=[55cb992be19579b505cea3c5691093cb]
class ClientStore--><rect codeLine="31" fill="#FEFECE" filter="url(#fox6elyu4a6ae)" height="103.3438" id="ClientStore" style="stroke:#A80036;stroke-width:1.5;" width="485" x="374" y="281"/><ellipse cx="581.75" cy="297" fill="#ADD1B2" rx="11" ry="11" style="stroke:#A80036;stroke-width:1.0;"/><path d="M583.75,293.5 Q583.9531,293 584.1875,292.75 Q584.4219,292.5 584.6875,292.5 Q585.1563,292.5 585.4531,292.7813 Q585.75,293.0625 585.75,293.7188 L585.75,295.2813 Q585.75,295.9375 585.4688,296.2188 Q585.1875,296.5 584.75,296.5 Q584.3594,296.5 584.1094,296.3281 Q583.8594,296.1563 583.75,295.7031 Q583.7031,295.3906 583.5313,295.2188 Q583.2188,294.8906 582.6563,294.7031 Q582.0938,294.5 581.5313,294.5 Q580.8281,294.5 580.2344,294.7813 Q579.6563,295.0625 579.2031,295.6875 Q578.75,296.3125 578.75,297.1719 L578.75,298.0938 Q578.75,299.125 579.5938,299.8125 Q580.4375,300.5 581.9375,300.5 Q582.8281,300.5 583.4531,300.2969 Q583.8125,300.1875 584.2188,299.8281 Q584.4844,299.625 584.625,299.5625 Q584.7656,299.5 584.9375,299.5 Q585.2656,299.5 585.5,299.7656 Q585.75,300.0156 585.75,300.375 Q585.75,300.7188 585.4063,301.125 Q584.9063,301.7188 584.1094,302.0469 Q583.0625,302.5 581.7813,302.5 Q580.2813,302.5 579.0781,301.9063 Q578.1094,301.4375 577.4219,300.4219 Q576.75,299.4063 576.75,298.2031 L576.75,297.1094 Q576.75,295.8594 577.3438,294.7656 Q577.9531,293.6719 579,293.0938 Q580.0625,292.5 581.25,292.5 Q581.9688,292.5 582.5938,292.75 Q583.2188,293 583.75,293.5 Z " fill="#000000"/><text fill="#000000" font-family="sans-serif" font-size="12" lengthAdjust="spacing" textLength="61" x="602.25" y="301.9102">ClientStore</text><line style="stroke:#A80036;stroke-width:1.5;" x1="375" x2="858" y1="313" y2="313"/><line style="stroke:#A80036;stroke-width:1.5;" x1="375" x2="858" y1="321" y2="321"/><text fill="#000000" font-family="sans-serif" font-size="11" lengthAdjust="spacing" textLength="473" x="380" y="336.4189">+newClient(name, citizenCardNumber,nhsNumber, tinNumber, birthDate, sex, phoneNumber, email)</text><text fill="#000000" font-family="sans-serif" font-size="11" lengthAdjust="spacing" textLength="86" x="380" y="350.2549">+validateClient(ct)</text><text fill="#000000" font-family="sans-serif" font-size="11" lengthAdjust="spacing" textLength="73" x="380" y="364.0908">+saveClient(ct)</text><text fill="#000000" font-family="sans-serif" font-size="11" lengthAdjust="spacing" textLength="67" x="380" y="377.9268">+addClient(ct)</text><!--MD5=[98d2d934d445daef8d5bcbeea20c1f70]
link RegisterClientUI to RegisterClientController--><path codeLine="38" d="M262.5,55.04 C262.5,70.71 262.5,91.91 262.5,110.58 " fill="none" id="RegisterClientUI-to-RegisterClientController" style="stroke:#A80036;stroke-width:1.0;stroke-dasharray:7.0,7.0;"/><polygon fill="#A80036" points="262.5,115.77,266.5,106.77,262.5,110.77,258.5,106.77,262.5,115.77" style="stroke:#A80036;stroke-width:1.0;"/><!--MD5=[198be3749d42ca56b2a20022cdc44bdd]
link RegisterClientController to Company--><path codeLine="39" d="M262.5,192 C262.5,218.17 262.5,253.54 262.5,282.12 " fill="none" id="RegisterClientController-to-Company" style="stroke:#A80036;stroke-width:1.0;stroke-dasharray:7.0,7.0;"/><polygon fill="#A80036" points="262.5,287.37,266.5,278.37,262.5,282.37,258.5,278.37,262.5,287.37" style="stroke:#A80036;stroke-width:1.0;"/><!--MD5=[a11230341c8e65219708844feaa40162]
link Company to ClientStore--><path codeLine="40" d="M309.14,332.5 C326.07,332.5 346.58,332.5 368.87,332.5 " fill="none" id="Company-to-ClientStore" style="stroke:#A80036;stroke-width:1.0;"/><polygon fill="#A80036" points="373.95,332.5,364.95,328.5,368.95,332.5,364.95,336.5,373.95,332.5" style="stroke:#A80036;stroke-width:1.0;"/><text fill="#000000" font-family="sans-serif" font-size="13" lengthAdjust="spacing" textLength="28" x="327.5" y="325.9951">uses</text><text fill="#000000" font-family="sans-serif" font-size="13" lengthAdjust="spacing" textLength="7" x="317.1311" y="328.7874">1</text><text fill="#000000" font-family="sans-serif" font-size="13" lengthAdjust="spacing" textLength="7" x="358.8765" y="329.7327">1</text><!--MD5=[1d934105a045dbf126514c6917bd5072]
link ClientStore to Client--><path codeLine="41" d="M859.05,332.5 C881.16,332.5 901.86,332.5 919.58,332.5 " fill="none" id="ClientStore-to-Client" style="stroke:#A80036;stroke-width:1.0;"/><polygon fill="#A80036" points="924.98,332.5,915.98,328.5,919.98,332.5,915.98,336.5,924.98,332.5" style="stroke:#A80036;stroke-width:1.0;"/><text fill="#000000" font-family="sans-serif" font-size="13" lengthAdjust="spacing" textLength="29" x="877.5" y="325.9951">store</text><text fill="#000000" font-family="sans-serif" font-size="13" lengthAdjust="spacing" textLength="7" x="867.1235" y="329.7327">1</text><text fill="#000000" font-family="sans-serif" font-size="13" lengthAdjust="spacing" textLength="5" x="911.8989" y="328.8689">*</text><!--MD5=[7a6d18f6132400394c794f88e2c5ed5b]
@startuml
'https://plantuml.com/sequence-diagram
skinparam classAttributeIconSize 0

class RegisterClientUI
{
}

class RegisterClientController
{
    +Client newClient(name, citizenCardNumber,nhsNumber,tinNumber, birthDate, sex, phoneNumber, email)
    +validateClient(Client client)
}

class Client{
	-name
    -nhsNumber
    -tinNumber
    -birthDate
    -sex
    -phoneNumber
    -email
    +client(Client client)
}

class Company{
-name
-location
+getClientStore()
}

class ClientStore{
+newClient(name, citizenCardNumber,nhsNumber, tinNumber, birthDate, sex, phoneNumber, email)
+validateClient(ct)
+saveClient(ct)
+addClient(ct)
}

RegisterClientUI ..> RegisterClientController
RegisterClientController ..> Company
Company"1" -> "1"ClientStore : uses
ClientStore"1" ->"*" Client : store

@enduml

@startuml
skinparam classAttributeIconSize 0

class RegisterClientUI
{
}

class RegisterClientController
{
    +Client newClient(name, citizenCardNumber,nhsNumber,tinNumber, birthDate, sex, phoneNumber, email)
    +validateClient(Client client)
}

class Client{
	-name
    -nhsNumber
    -tinNumber
    -birthDate
    -sex
    -phoneNumber
    -email
    +client(Client client)
}

class Company{
-name
-location
+getClientStore()
}

class ClientStore{
+newClient(name, citizenCardNumber,nhsNumber, tinNumber, birthDate, sex, phoneNumber, email)
+validateClient(ct)
+saveClient(ct)
+addClient(ct)
}

RegisterClientUI ..> RegisterClientController
RegisterClientController ..> Company
Company"1" -> "1"ClientStore : uses
ClientStore"1" ->"*" Client : store

@enduml

PlantUML version 1.2021.5(Sun Apr 25 12:20:28 BST 2021)
(GPL source distribution)
Java Runtime: OpenJDK Runtime Environment
JVM: Dynamic Code Evolution 64-Bit Server VM
Default Encoding: Cp1252
Language: pt
Country: PT
--></g></svg>