<?xml version="1.0" encoding="UTF-8" standalone="no"?><svg xmlns="http://www.w3.org/2000/svg" xmlns:xlink="http://www.w3.org/1999/xlink" contentScriptType="application/ecmascript" contentStyleType="text/css" height="477.5px" preserveAspectRatio="none" style="width:367px;height:477px;" version="1.1" viewBox="0 0 367 477" width="367.5px" zoomAndPan="magnify"><defs><filter height="300%" id="fdas5h1ohucqv" width="300%" x="-1" y="-1"><feGaussianBlur result="blurOut" stdDeviation="2.5"/><feColorMatrix in="blurOut" result="blurOut2" type="matrix" values="0 0 0 0 0 0 0 0 0 0 0 0 0 0 0 0 0 0 .4 0"/><feOffset dx="5.0" dy="5.0" in="blurOut2" result="blurOut3"/><feBlend in="SourceGraphic" in2="blurOut3" mode="normal"/></filter></defs><g><!--MD5=[a126dd63c8621c017159ae62771fbe54]
class RegisterEmployeeUI--><rect codeLine="3" fill="#FEFECE" filter="url(#fdas5h1ohucqv)" height="60" id="RegisterEmployeeUI" style="stroke:#A80036;stroke-width:1.875;" width="182.5" x="88.125" y="8.75"/><ellipse cx="106.875" cy="28.75" fill="#ADD1B2" rx="13.75" ry="13.75" style="stroke:#A80036;stroke-width:1.25;"/><path d="M109.375,24.375 Q109.6289,23.75 109.9219,23.4375 Q110.2148,23.125 110.5469,23.125 Q111.1328,23.125 111.5039,23.4766 Q111.875,23.8281 111.875,24.6484 L111.875,26.6016 Q111.875,27.4219 111.5234,27.7734 Q111.1719,28.125 110.625,28.125 Q110.1367,28.125 109.8242,27.9102 Q109.5117,27.6953 109.375,27.1289 Q109.3164,26.7383 109.1016,26.5234 Q108.7109,26.1133 108.0078,25.8789 Q107.3047,25.625 106.6016,25.625 Q105.7227,25.625 104.9805,25.9766 Q104.2578,26.3281 103.6914,27.1094 Q103.125,27.8906 103.125,28.9648 L103.125,30.1172 Q103.125,31.4063 104.1797,32.2656 Q105.2344,33.125 107.1094,33.125 Q108.2227,33.125 109.0039,32.8711 Q109.4531,32.7344 109.9609,32.2852 Q110.293,32.0313 110.4688,31.9531 Q110.6445,31.875 110.8594,31.875 Q111.2695,31.875 111.5625,32.207 Q111.875,32.5195 111.875,32.9688 Q111.875,33.3984 111.4453,33.9063 Q110.8203,34.6484 109.8242,35.0586 Q108.5156,35.625 106.9141,35.625 Q105.0391,35.625 103.5352,34.8828 Q102.3242,34.2969 101.4648,33.0273 Q100.625,31.7578 100.625,30.2539 L100.625,28.8867 Q100.625,27.3242 101.3672,25.957 Q102.1289,24.5898 103.4375,23.8672 Q104.7656,23.125 106.25,23.125 Q107.1484,23.125 107.9297,23.4375 Q108.7109,23.75 109.375,24.375 Z " fill="#000000"/><text fill="#000000" font-family="sans-serif" font-size="15" lengthAdjust="spacing" textLength="142.5" x="124.375" y="34.8877">RegisterEmployeeUI</text><line style="stroke:#A80036;stroke-width:1.875;" x1="89.375" x2="269.375" y1="48.75" y2="48.75"/><line style="stroke:#A80036;stroke-width:1.875;" x1="89.375" x2="269.375" y1="58.75" y2="58.75"/><!--MD5=[6a4e699b59c2ecf8286aba2faa72e4bd]
class RegisterEmployeeController--><rect codeLine="7" fill="#FEFECE" filter="url(#fdas5h1ohucqv)" height="94.5898" id="RegisterEmployeeController" style="stroke:#A80036;stroke-width:1.875;" width="341.25" x="8.75" y="143.75"/><ellipse cx="76.5625" cy="163.75" fill="#ADD1B2" rx="13.75" ry="13.75" style="stroke:#A80036;stroke-width:1.25;"/><path d="M79.0625,159.375 Q79.3164,158.75 79.6094,158.4375 Q79.9023,158.125 80.2344,158.125 Q80.8203,158.125 81.1914,158.4766 Q81.5625,158.8281 81.5625,159.6484 L81.5625,161.6016 Q81.5625,162.4219 81.2109,162.7734 Q80.8594,163.125 80.3125,163.125 Q79.8242,163.125 79.5117,162.9102 Q79.1992,162.6953 79.0625,162.1289 Q79.0039,161.7383 78.7891,161.5234 Q78.3984,161.1133 77.6953,160.8789 Q76.9922,160.625 76.2891,160.625 Q75.4102,160.625 74.668,160.9766 Q73.9453,161.3281 73.3789,162.1094 Q72.8125,162.8906 72.8125,163.9648 L72.8125,165.1172 Q72.8125,166.4063 73.8672,167.2656 Q74.9219,168.125 76.7969,168.125 Q77.9102,168.125 78.6914,167.8711 Q79.1406,167.7344 79.6484,167.2852 Q79.9805,167.0313 80.1563,166.9531 Q80.332,166.875 80.5469,166.875 Q80.957,166.875 81.25,167.207 Q81.5625,167.5195 81.5625,167.9688 Q81.5625,168.3984 81.1328,168.9063 Q80.5078,169.6484 79.5117,170.0586 Q78.2031,170.625 76.6016,170.625 Q74.7266,170.625 73.2227,169.8828 Q72.0117,169.2969 71.1523,168.0273 Q70.3125,166.7578 70.3125,165.2539 L70.3125,163.8867 Q70.3125,162.3242 71.0547,160.957 Q71.8164,159.5898 73.125,158.8672 Q74.4531,158.125 75.9375,158.125 Q76.8359,158.125 77.6172,158.4375 Q78.3984,158.75 79.0625,159.375 Z " fill="#000000"/><text fill="#000000" font-family="sans-serif" font-size="15" lengthAdjust="spacing" textLength="195" x="102.1875" y="169.8877">RegisterEmployeeController</text><line style="stroke:#A80036;stroke-width:1.875;" x1="10" x2="348.75" y1="183.75" y2="183.75"/><line style="stroke:#A80036;stroke-width:1.875;" x1="10" x2="348.75" y1="193.75" y2="193.75"/><text fill="#000000" font-family="sans-serif" font-size="13.75" lengthAdjust="spacing" textLength="326.25" x="16.25" y="213.0237">+Employee newEmployee(nif, name, email, password)</text><text fill="#000000" font-family="sans-serif" font-size="13.75" lengthAdjust="spacing" textLength="240" x="16.25" y="230.3186">+validateEmployee(Employee employee)</text><!--MD5=[7421f545a0d8420c5bec41e74b387d9c]
class Employee--><rect codeLine="13" fill="#FEFECE" filter="url(#fdas5h1ohucqv)" height="146.4746" id="Employee" style="stroke:#A80036;stroke-width:1.875;" width="255" x="51.875" y="313.75"/><ellipse cx="139.6875" cy="333.75" fill="#ADD1B2" rx="13.75" ry="13.75" style="stroke:#A80036;stroke-width:1.25;"/><path d="M142.1875,329.375 Q142.4414,328.75 142.7344,328.4375 Q143.0273,328.125 143.3594,328.125 Q143.9453,328.125 144.3164,328.4766 Q144.6875,328.8281 144.6875,329.6484 L144.6875,331.6016 Q144.6875,332.4219 144.3359,332.7734 Q143.9844,333.125 143.4375,333.125 Q142.9492,333.125 142.6367,332.9102 Q142.3242,332.6953 142.1875,332.1289 Q142.1289,331.7383 141.9141,331.5234 Q141.5234,331.1133 140.8203,330.8789 Q140.1172,330.625 139.4141,330.625 Q138.5352,330.625 137.793,330.9766 Q137.0703,331.3281 136.5039,332.1094 Q135.9375,332.8906 135.9375,333.9648 L135.9375,335.1172 Q135.9375,336.4063 136.9922,337.2656 Q138.0469,338.125 139.9219,338.125 Q141.0352,338.125 141.8164,337.8711 Q142.2656,337.7344 142.7734,337.2852 Q143.1055,337.0313 143.2813,336.9531 Q143.457,336.875 143.6719,336.875 Q144.082,336.875 144.375,337.207 Q144.6875,337.5195 144.6875,337.9688 Q144.6875,338.3984 144.2578,338.9063 Q143.6328,339.6484 142.6367,340.0586 Q141.3281,340.625 139.7266,340.625 Q137.8516,340.625 136.3477,339.8828 Q135.1367,339.2969 134.2773,338.0273 Q133.4375,336.7578 133.4375,335.2539 L133.4375,333.8867 Q133.4375,332.3242 134.1797,330.957 Q134.9414,329.5898 136.25,328.8672 Q137.5781,328.125 139.0625,328.125 Q139.9609,328.125 140.7422,328.4375 Q141.5234,328.75 142.1875,329.375 Z " fill="#000000"/><text fill="#000000" font-family="sans-serif" font-size="15" lengthAdjust="spacing" textLength="68.75" x="165.3125" y="339.8877">Employee</text><line style="stroke:#A80036;stroke-width:1.875;" x1="53.125" x2="305.625" y1="353.75" y2="353.75"/><text fill="#000000" font-family="sans-serif" font-size="13.75" lengthAdjust="spacing" textLength="63.75" x="59.375" y="373.0237">Integer nif;</text><text fill="#000000" font-family="sans-serif" font-size="13.75" lengthAdjust="spacing" textLength="75" x="59.375" y="390.3186">String name;</text><text fill="#000000" font-family="sans-serif" font-size="13.75" lengthAdjust="spacing" textLength="72.5" x="59.375" y="407.6135">String email;</text><text fill="#000000" font-family="sans-serif" font-size="13.75" lengthAdjust="spacing" textLength="105" x="59.375" y="424.9084">String password;</text><line style="stroke:#A80036;stroke-width:1.875;" x1="53.125" x2="305.625" y1="432.9297" y2="432.9297"/><text fill="#000000" font-family="sans-serif" font-size="13.75" lengthAdjust="spacing" textLength="240" x="59.375" y="452.2034">+validateEmployee(Employee employee)</text><!--MD5=[3fd241ca11f270f6bde54c00b8a8581a]
link RegisterEmployeeUI to RegisterEmployeeController--><path codeLine="22" d="M179.375,68.925 C179.375,88.225 179.375,114.1625 179.375,137.0875 " fill="none" id="RegisterEmployeeUI-to-RegisterEmployeeController" style="stroke:#A80036;stroke-width:1.25;stroke-dasharray:7.0,7.0;"/><polygon fill="#A80036" points="179.375,143.4625,184.375,132.2125,179.375,137.2125,174.375,132.2125,179.375,143.4625" style="stroke:#A80036;stroke-width:1.25;"/><!--MD5=[7c63a46d16d075ca7ac66937a2a499f7]
link RegisterEmployeeController to Employee--><path codeLine="23" d="M179.375,238.7625 C179.375,259.2625 179.375,283.9625 179.375,307.2 " fill="none" id="RegisterEmployeeController-to-Employee" style="stroke:#A80036;stroke-width:1.25;stroke-dasharray:7.0,7.0;"/><polygon fill="#A80036" points="179.375,313.7125,184.375,302.4625,179.375,307.4625,174.375,302.4625,179.375,313.7125" style="stroke:#A80036;stroke-width:1.25;"/><!--MD5=[4463735cea7ea817972c3fd604088210]
@startuml
skinparam classAttributeIconSize 0

class RegisterEmployeeUI
{
}

class RegisterEmployeeController
{
    +Employee newEmployee(nif, name, email, password)
    +validateEmployee(Employee employee)
}

class Employee
{
    Integer nif;
    String name;
    String email;
    String password;
    +validateEmployee(Employee employee)
}

RegisterEmployeeUI ..> RegisterEmployeeController
RegisterEmployeeController ..> Employee
@enduml

PlantUML version 1.2021.4(Sun Apr 04 09:49:39 BST 2021)
(GPL source distribution)
Java Runtime: OpenJDK Runtime Environment
JVM: Dynamic Code Evolution 64-Bit Server VM
Default Encoding: Cp1252
Language: pt
Country: PT
--></g></svg>