<?xml version="1.0" encoding="UTF-8" standalone="no"?><svg xmlns="http://www.w3.org/2000/svg" xmlns:xlink="http://www.w3.org/1999/xlink" contentScriptType="application/ecmascript" contentStyleType="text/css" height="515px" preserveAspectRatio="none" style="width:466px;height:515px;background:#FFFFFF;" version="1.1" viewBox="0 0 466 515" width="466px" zoomAndPan="magnify"><defs><filter height="300%" id="f15h9n17qsmjgc" width="300%" x="-1" y="-1"><feGaussianBlur result="blurOut" stdDeviation="2.0"/><feColorMatrix in="blurOut" result="blurOut2" type="matrix" values="0 0 0 0 0 0 0 0 0 0 0 0 0 0 0 0 0 0 .4 0"/><feOffset dx="4.0" dy="4.0" in="blurOut2" result="blurOut3"/><feBlend in="SourceGraphic" in2="blurOut3" mode="normal"/></filter></defs><g><!--MD5=[02e4b9b7573f1156f41e60aa5b4e25a4]
class Company--><rect codeLine="3" fill="#FEFECE" filter="url(#f15h9n17qsmjgc)" height="61.8359" id="Company" style="stroke:#A80036;stroke-width:1.5;" width="85" x="367.5" y="55.5"/><ellipse cx="382.5" cy="71.5" fill="#ADD1B2" rx="11" ry="11" style="stroke:#A80036;stroke-width:1.0;"/><path d="M384.5,68 Q384.7031,67.5 384.9375,67.25 Q385.1719,67 385.4375,67 Q385.9063,67 386.2031,67.2813 Q386.5,67.5625 386.5,68.2188 L386.5,69.7813 Q386.5,70.4375 386.2188,70.7188 Q385.9375,71 385.5,71 Q385.1094,71 384.8594,70.8281 Q384.6094,70.6563 384.5,70.2031 Q384.4531,69.8906 384.2813,69.7188 Q383.9688,69.3906 383.4063,69.2031 Q382.8438,69 382.2813,69 Q381.5781,69 380.9844,69.2813 Q380.4063,69.5625 379.9531,70.1875 Q379.5,70.8125 379.5,71.6719 L379.5,72.5938 Q379.5,73.625 380.3438,74.3125 Q381.1875,75 382.6875,75 Q383.5781,75 384.2031,74.7969 Q384.5625,74.6875 384.9688,74.3281 Q385.2344,74.125 385.375,74.0625 Q385.5156,74 385.6875,74 Q386.0156,74 386.25,74.2656 Q386.5,74.5156 386.5,74.875 Q386.5,75.2188 386.1563,75.625 Q385.6563,76.2188 384.8594,76.5469 Q383.8125,77 382.5313,77 Q381.0313,77 379.8281,76.4063 Q378.8594,75.9375 378.1719,74.9219 Q377.5,73.9063 377.5,72.7031 L377.5,71.6094 Q377.5,70.3594 378.0938,69.2656 Q378.7031,68.1719 379.75,67.5938 Q380.8125,67 382,67 Q382.7188,67 383.3438,67.25 Q383.9688,67.5 384.5,68 Z " fill="#000000"/><text fill="#000000" font-family="sans-serif" font-size="12" lengthAdjust="spacing" textLength="53" x="396.5" y="76.4102">Company</text><line style="stroke:#A80036;stroke-width:1.5;" x1="368.5" x2="451.5" y1="87.5" y2="87.5"/><rect fill="none" height="6" style="stroke:#C82930;stroke-width:1.0;" width="6" x="375.5" y="95.5"/><text fill="#000000" font-family="sans-serif" font-size="11" lengthAdjust="spacing" textLength="53" x="387.5" y="102.9189">description</text><line style="stroke:#A80036;stroke-width:1.5;" x1="368.5" x2="451.5" y1="109.3359" y2="109.3359"/><!--MD5=[df38be88ccee13e832d6fafd6288a4ca]
class Test--><rect codeLine="7" fill="#FEFECE" filter="url(#f15h9n17qsmjgc)" height="89.5078" id="Test" style="stroke:#A80036;stroke-width:1.5;" width="86" x="272" y="244"/><ellipse cx="300.5" cy="260" fill="#ADD1B2" rx="11" ry="11" style="stroke:#A80036;stroke-width:1.0;"/><path d="M302.5,256.5 Q302.7031,256 302.9375,255.75 Q303.1719,255.5 303.4375,255.5 Q303.9063,255.5 304.2031,255.7813 Q304.5,256.0625 304.5,256.7188 L304.5,258.2813 Q304.5,258.9375 304.2188,259.2188 Q303.9375,259.5 303.5,259.5 Q303.1094,259.5 302.8594,259.3281 Q302.6094,259.1563 302.5,258.7031 Q302.4531,258.3906 302.2813,258.2188 Q301.9688,257.8906 301.4063,257.7031 Q300.8438,257.5 300.2813,257.5 Q299.5781,257.5 298.9844,257.7813 Q298.4063,258.0625 297.9531,258.6875 Q297.5,259.3125 297.5,260.1719 L297.5,261.0938 Q297.5,262.125 298.3438,262.8125 Q299.1875,263.5 300.6875,263.5 Q301.5781,263.5 302.2031,263.2969 Q302.5625,263.1875 302.9688,262.8281 Q303.2344,262.625 303.375,262.5625 Q303.5156,262.5 303.6875,262.5 Q304.0156,262.5 304.25,262.7656 Q304.5,263.0156 304.5,263.375 Q304.5,263.7188 304.1563,264.125 Q303.6563,264.7188 302.8594,265.0469 Q301.8125,265.5 300.5313,265.5 Q299.0313,265.5 297.8281,264.9063 Q296.8594,264.4375 296.1719,263.4219 Q295.5,262.4063 295.5,261.2031 L295.5,260.1094 Q295.5,258.8594 296.0938,257.7656 Q296.7031,256.6719 297.75,256.0938 Q298.8125,255.5 300,255.5 Q300.7188,255.5 301.3438,255.75 Q301.9688,256 302.5,256.5 Z " fill="#000000"/><text fill="#000000" font-family="sans-serif" font-size="12" lengthAdjust="spacing" textLength="24" x="317.5" y="264.9102">Test</text><line style="stroke:#A80036;stroke-width:1.5;" x1="273" x2="357" y1="276" y2="276"/><rect fill="none" height="6" style="stroke:#C82930;stroke-width:1.0;" width="6" x="280" y="284"/><text fill="#000000" font-family="sans-serif" font-size="11" lengthAdjust="spacing" textLength="48" x="292" y="291.4189">createdAt</text><rect fill="none" height="6" style="stroke:#C82930;stroke-width:1.0;" width="6" x="280" y="297.8359"/><text fill="#000000" font-family="sans-serif" font-size="11" lengthAdjust="spacing" textLength="43" x="292" y="305.2549">nhsCode</text><rect fill="none" height="6" style="stroke:#C82930;stroke-width:1.0;" width="6" x="280" y="311.6719"/><text fill="#000000" font-family="sans-serif" font-size="11" lengthAdjust="spacing" textLength="60" x="292" y="319.0908">internalCode</text><line style="stroke:#A80036;stroke-width:1.5;" x1="273" x2="357" y1="325.5078" y2="325.5078"/><!--MD5=[0f07739f46effee96e095e9c408da841]
class TestParameter--><rect codeLine="13" fill="#FEFECE" filter="url(#f15h9n17qsmjgc)" height="75.6719" id="TestParameter" style="stroke:#A80036;stroke-width:1.5;" width="123" x="253.5" y="419"/><ellipse cx="272.55" cy="435" fill="#ADD1B2" rx="11" ry="11" style="stroke:#A80036;stroke-width:1.0;"/><path d="M274.55,431.5 Q274.7531,431 274.9875,430.75 Q275.2219,430.5 275.4875,430.5 Q275.9563,430.5 276.2531,430.7813 Q276.55,431.0625 276.55,431.7188 L276.55,433.2813 Q276.55,433.9375 276.2688,434.2188 Q275.9875,434.5 275.55,434.5 Q275.1594,434.5 274.9094,434.3281 Q274.6594,434.1563 274.55,433.7031 Q274.5031,433.3906 274.3313,433.2188 Q274.0188,432.8906 273.4563,432.7031 Q272.8938,432.5 272.3313,432.5 Q271.6281,432.5 271.0344,432.7813 Q270.4563,433.0625 270.0031,433.6875 Q269.55,434.3125 269.55,435.1719 L269.55,436.0938 Q269.55,437.125 270.3938,437.8125 Q271.2375,438.5 272.7375,438.5 Q273.6281,438.5 274.2531,438.2969 Q274.6125,438.1875 275.0188,437.8281 Q275.2844,437.625 275.425,437.5625 Q275.5656,437.5 275.7375,437.5 Q276.0656,437.5 276.3,437.7656 Q276.55,438.0156 276.55,438.375 Q276.55,438.7188 276.2063,439.125 Q275.7063,439.7188 274.9094,440.0469 Q273.8625,440.5 272.5813,440.5 Q271.0813,440.5 269.8781,439.9063 Q268.9094,439.4375 268.2219,438.4219 Q267.55,437.4063 267.55,436.2031 L267.55,435.1094 Q267.55,433.8594 268.1438,432.7656 Q268.7531,431.6719 269.8,431.0938 Q270.8625,430.5 272.05,430.5 Q272.7688,430.5 273.3938,430.75 Q274.0188,431 274.55,431.5 Z " fill="#000000"/><text fill="#000000" font-family="sans-serif" font-size="12" lengthAdjust="spacing" textLength="82" x="287.45" y="439.9102">TestParameter</text><line style="stroke:#A80036;stroke-width:1.5;" x1="254.5" x2="375.5" y1="451" y2="451"/><rect fill="none" height="6" style="stroke:#C82930;stroke-width:1.0;" width="6" x="261.5" y="459"/><text fill="#000000" font-family="sans-serif" font-size="11" lengthAdjust="spacing" textLength="49" x="273.5" y="466.4189">parameter</text><rect fill="none" height="6" style="stroke:#C82930;stroke-width:1.0;" width="6" x="261.5" y="472.8359"/><text fill="#000000" font-family="sans-serif" font-size="11" lengthAdjust="spacing" textLength="97" x="273.5" y="480.2549">testParameterResult</text><line style="stroke:#A80036;stroke-width:1.5;" x1="254.5" x2="375.5" y1="486.6719" y2="486.6719"/><!--MD5=[4e608140b854dae633589343bce77383]
class TestParameterResult--><rect codeLine="18" fill="#FEFECE" filter="url(#f15h9n17qsmjgc)" height="89.5078" id="TestParameterResult" style="stroke:#A80036;stroke-width:1.5;" width="150" x="7" y="412"/><ellipse cx="22" cy="428" fill="#ADD1B2" rx="11" ry="11" style="stroke:#A80036;stroke-width:1.0;"/><path d="M24,424.5 Q24.2031,424 24.4375,423.75 Q24.6719,423.5 24.9375,423.5 Q25.4063,423.5 25.7031,423.7813 Q26,424.0625 26,424.7188 L26,426.2813 Q26,426.9375 25.7188,427.2188 Q25.4375,427.5 25,427.5 Q24.6094,427.5 24.3594,427.3281 Q24.1094,427.1563 24,426.7031 Q23.9531,426.3906 23.7813,426.2188 Q23.4688,425.8906 22.9063,425.7031 Q22.3438,425.5 21.7813,425.5 Q21.0781,425.5 20.4844,425.7813 Q19.9063,426.0625 19.4531,426.6875 Q19,427.3125 19,428.1719 L19,429.0938 Q19,430.125 19.8438,430.8125 Q20.6875,431.5 22.1875,431.5 Q23.0781,431.5 23.7031,431.2969 Q24.0625,431.1875 24.4688,430.8281 Q24.7344,430.625 24.875,430.5625 Q25.0156,430.5 25.1875,430.5 Q25.5156,430.5 25.75,430.7656 Q26,431.0156 26,431.375 Q26,431.7188 25.6563,432.125 Q25.1563,432.7188 24.3594,433.0469 Q23.3125,433.5 22.0313,433.5 Q20.5313,433.5 19.3281,432.9063 Q18.3594,432.4375 17.6719,431.4219 Q17,430.4063 17,429.2031 L17,428.1094 Q17,426.8594 17.5938,425.7656 Q18.2031,424.6719 19.25,424.0938 Q20.3125,423.5 21.5,423.5 Q22.2188,423.5 22.8438,423.75 Q23.4688,424 24,424.5 Z " fill="#000000"/><text fill="#000000" font-family="sans-serif" font-size="12" lengthAdjust="spacing" textLength="118" x="36" y="432.9102">TestParameterResult</text><line style="stroke:#A80036;stroke-width:1.5;" x1="8" x2="156" y1="444" y2="444"/><rect fill="none" height="6" style="stroke:#C82930;stroke-width:1.0;" width="6" x="15" y="452"/><text fill="#000000" font-family="sans-serif" font-size="11" lengthAdjust="spacing" textLength="26" x="27" y="459.4189">value</text><rect fill="none" height="6" style="stroke:#C82930;stroke-width:1.0;" width="6" x="15" y="465.8359"/><text fill="#000000" font-family="sans-serif" font-size="11" lengthAdjust="spacing" textLength="29" x="27" y="473.2549">metric</text><rect fill="none" height="6" style="stroke:#C82930;stroke-width:1.0;" width="6" x="15" y="479.6719"/><text fill="#000000" font-family="sans-serif" font-size="11" lengthAdjust="spacing" textLength="42" x="27" y="487.0908">refValue</text><line style="stroke:#A80036;stroke-width:1.5;" x1="8" x2="156" y1="493.5078" y2="493.5078"/><!--MD5=[ed6624c6556d5e7b1bd23032162d20b7]
class Client--><rect codeLine="24" fill="#FEFECE" filter="url(#f15h9n17qsmjgc)" height="158.6875" id="Client" style="stroke:#A80036;stroke-width:1.5;" width="117" x="163.5" y="7"/><ellipse cx="202.35" cy="23" fill="#ADD1B2" rx="11" ry="11" style="stroke:#A80036;stroke-width:1.0;"/><path d="M204.35,19.5 Q204.5531,19 204.7875,18.75 Q205.0219,18.5 205.2875,18.5 Q205.7563,18.5 206.0531,18.7813 Q206.35,19.0625 206.35,19.7188 L206.35,21.2813 Q206.35,21.9375 206.0688,22.2188 Q205.7875,22.5 205.35,22.5 Q204.9594,22.5 204.7094,22.3281 Q204.4594,22.1563 204.35,21.7031 Q204.3031,21.3906 204.1313,21.2188 Q203.8188,20.8906 203.2563,20.7031 Q202.6938,20.5 202.1313,20.5 Q201.4281,20.5 200.8344,20.7813 Q200.2563,21.0625 199.8031,21.6875 Q199.35,22.3125 199.35,23.1719 L199.35,24.0938 Q199.35,25.125 200.1938,25.8125 Q201.0375,26.5 202.5375,26.5 Q203.4281,26.5 204.0531,26.2969 Q204.4125,26.1875 204.8188,25.8281 Q205.0844,25.625 205.225,25.5625 Q205.3656,25.5 205.5375,25.5 Q205.8656,25.5 206.1,25.7656 Q206.35,26.0156 206.35,26.375 Q206.35,26.7188 206.0063,27.125 Q205.5063,27.7188 204.7094,28.0469 Q203.6625,28.5 202.3813,28.5 Q200.8813,28.5 199.6781,27.9063 Q198.7094,27.4375 198.0219,26.4219 Q197.35,25.4063 197.35,24.2031 L197.35,23.1094 Q197.35,21.8594 197.9438,20.7656 Q198.5531,19.6719 199.6,19.0938 Q200.6625,18.5 201.85,18.5 Q202.5688,18.5 203.1938,18.75 Q203.8188,19 204.35,19.5 Z " fill="#000000"/><text fill="#000000" font-family="sans-serif" font-size="12" lengthAdjust="spacing" textLength="32" x="221.65" y="27.9102">Client</text><line style="stroke:#A80036;stroke-width:1.5;" x1="164.5" x2="279.5" y1="39" y2="39"/><rect fill="none" height="6" style="stroke:#C82930;stroke-width:1.0;" width="6" x="171.5" y="47"/><text fill="#000000" font-family="sans-serif" font-size="11" lengthAdjust="spacing" textLength="26" x="183.5" y="54.4189">name</text><rect fill="none" height="6" style="stroke:#C82930;stroke-width:1.0;" width="6" x="171.5" y="60.8359"/><text fill="#000000" font-family="sans-serif" font-size="11" lengthAdjust="spacing" textLength="48" x="183.5" y="68.2549">tinNumber</text><rect fill="none" height="6" style="stroke:#C82930;stroke-width:1.0;" width="6" x="171.5" y="74.6719"/><text fill="#000000" font-family="sans-serif" font-size="11" lengthAdjust="spacing" textLength="91" x="183.5" y="82.0908">citizenCardNumber</text><rect fill="none" height="6" style="stroke:#C82930;stroke-width:1.0;" width="6" x="171.5" y="88.5078"/><text fill="#000000" font-family="sans-serif" font-size="11" lengthAdjust="spacing" textLength="55" x="183.5" y="95.9268">nhsNumber</text><rect fill="none" height="6" style="stroke:#C82930;stroke-width:1.0;" width="6" x="171.5" y="102.3438"/><text fill="#000000" font-family="sans-serif" font-size="11" lengthAdjust="spacing" textLength="43" x="183.5" y="109.7627">birthDate</text><rect fill="none" height="6" style="stroke:#C82930;stroke-width:1.0;" width="6" x="171.5" y="116.1797"/><text fill="#000000" font-family="sans-serif" font-size="11" lengthAdjust="spacing" textLength="18" x="183.5" y="123.5986">sex</text><rect fill="none" height="6" style="stroke:#C82930;stroke-width:1.0;" width="6" x="171.5" y="130.0156"/><text fill="#000000" font-family="sans-serif" font-size="11" lengthAdjust="spacing" textLength="67" x="183.5" y="137.4346">phoneNumber</text><rect fill="none" height="6" style="stroke:#C82930;stroke-width:1.0;" width="6" x="171.5" y="143.8516"/><text fill="#000000" font-family="sans-serif" font-size="11" lengthAdjust="spacing" textLength="24" x="183.5" y="151.2705">email</text><line style="stroke:#A80036;stroke-width:1.5;" x1="164.5" x2="279.5" y1="157.6875" y2="157.6875"/><!--MD5=[e81fca0f34dd6b0a10f4f75277b45ff4]
link Client to Company--><path codeLine="35" d="M280.71,86.5 C308.72,86.5 341.63,86.5 367.23,86.5 " fill="none" id="Client-Company" style="stroke:#A80036;stroke-width:1.0;"/><polygon fill="#000000" points="298,74.6758,307.0451,77.6147,307.0451,71.7369,298,74.6758" style="stroke:#000000;stroke-width:1.0;"/><text fill="#000000" font-family="sans-serif" font-size="13" lengthAdjust="spacing" textLength="37" x="312" y="79.9951">knows</text><text fill="#000000" font-family="sans-serif" font-size="13" lengthAdjust="spacing" textLength="5" x="288.5525" y="83.0127">*</text><text fill="#000000" font-family="sans-serif" font-size="13" lengthAdjust="spacing" textLength="7" x="352.5665" y="82.7128">1</text><!--MD5=[7e4bc624457760b649895ff2ead938fa]
link Company to Test--><path codeLine="36" d="M395.78,117.52 C379.94,150.95 354.18,205.31 336.01,243.65 " fill="none" id="Company-Test" style="stroke:#A80036;stroke-width:1.0;"/><polygon fill="#000000" points="359.8589,209.6941,366.388,202.7789,361.0764,200.2618,359.8589,209.6941" style="stroke:#000000;stroke-width:1.0;"/><text fill="#000000" font-family="sans-serif" font-size="13" lengthAdjust="spacing" textLength="50" x="371" y="210.4951">performs</text><text fill="#000000" font-family="sans-serif" font-size="13" lengthAdjust="spacing" textLength="7" x="385.2914" y="138.7479">1</text><text fill="#000000" font-family="sans-serif" font-size="13" lengthAdjust="spacing" textLength="5" x="333.8443" y="233.0405">*</text><!--MD5=[f24c888dadeb846430474fe80a58922b]
link Test to TestParameter--><path codeLine="37" d="M315,334.05 C315,360.46 315,393.68 315,418.78 " fill="none" id="Test-TestParameter" style="stroke:#A80036;stroke-width:1.0;"/><polygon fill="#000000" points="320,378.1758,322.9389,369.1307,317.0611,369.1307,320,378.1758" style="stroke:#000000;stroke-width:1.0;"/><text fill="#000000" font-family="sans-serif" font-size="13" lengthAdjust="spacing" textLength="54" x="329" y="378.4951">evaluates</text><text fill="#000000" font-family="sans-serif" font-size="13" lengthAdjust="spacing" textLength="5" x="309.6484" y="355.0646">*</text><text fill="#000000" font-family="sans-serif" font-size="13" lengthAdjust="spacing" textLength="20" x="293.2188" y="408.1027">1..*</text><!--MD5=[166b32c017035243ed8780a05e3f542e]
link TestParameterResult to TestParameter--><path codeLine="38" d="M157.01,457 C188.14,457 223.81,457 253.38,457 " fill="none" id="TestParameterResult-TestParameter" style="stroke:#A80036;stroke-width:1.0;"/><polygon fill="#000000" points="174.25,445.1758,183.2951,448.1147,183.2951,442.2369,174.25,445.1758" style="stroke:#000000;stroke-width:1.0;"/><text fill="#000000" font-family="sans-serif" font-size="13" lengthAdjust="spacing" textLength="47" x="188.25" y="450.4951">receives</text><text fill="#000000" font-family="sans-serif" font-size="13" lengthAdjust="spacing" textLength="7" x="165.1063" y="453.7136">1</text><text fill="#000000" font-family="sans-serif" font-size="13" lengthAdjust="spacing" textLength="5" x="240.5654" y="453.5615">*</text><!--MD5=[502b51bc079239060389dab43b7d3470]
link Client to Test--><path codeLine="39" d="M258.49,166.17 C270.75,192.61 283.99,221.15 294.57,243.96 " fill="none" id="Client-Test" style="stroke:#A80036;stroke-width:1.0;"/><polygon fill="#000000" points="287.1038,209.7116,285.9641,200.2696,280.6319,202.7428,287.1038,209.7116" style="stroke:#000000;stroke-width:1.0;"/><text fill="#000000" font-family="sans-serif" font-size="13" lengthAdjust="spacing" textLength="46" x="294" y="210.4951">asks for</text><text fill="#000000" font-family="sans-serif" font-size="13" lengthAdjust="spacing" textLength="5" x="256.411" y="187.2278">*</text><text fill="#000000" font-family="sans-serif" font-size="13" lengthAdjust="spacing" textLength="5" x="285.9155" y="233.0691">*</text><!--MD5=[4398288ff56ce9bea8483d689d030ec5]
@startuml
'https://plantuml.com/class-diagram

class Company {
    -description
}

class Test {
 -createdAt
 -nhsCode
 -internalCode
}

class TestParameter {
    -parameter
    -testParameterResult
}

class TestParameterResult{
 -value
 -metric
 -refValue
}

class Client{
 -name
 -tinNumber
 -citizenCardNumber
 -nhsNumber
 -birthDate
 -sex
 -phoneNumber
 -email
}

Company"1" -left- "*"Client : "> knows"
Company"1" -down- "*"Test : "> performs"
Test"*" - - "1..*"TestParameter : "> evaluates"
TestParameter"*" -left- "1"TestParameterResult : "> receives"
Client"*" - - "*"Test : "> asks for"
@enduml

@startuml

class Company {
    -description
}

class Test {
 -createdAt
 -nhsCode
 -internalCode
}

class TestParameter {
    -parameter
    -testParameterResult
}

class TestParameterResult{
 -value
 -metric
 -refValue
}

class Client{
 -name
 -tinNumber
 -citizenCardNumber
 -nhsNumber
 -birthDate
 -sex
 -phoneNumber
 -email
}

Company"1" -left- "*"Client : "> knows"
Company"1" -down- "*"Test : "> performs"
Test"*" - - "1..*"TestParameter : "> evaluates"
TestParameter"*" -left- "1"TestParameterResult : "> receives"
Client"*" - - "*"Test : "> asks for"
@enduml

PlantUML version 1.2021.7(Sun May 23 13:40:07 BST 2021)
(GPL source distribution)
Java Runtime: OpenJDK Runtime Environment
JVM: Dynamic Code Evolution 64-Bit Server VM
Default Encoding: Cp1252
Language: en
Country: US
--></g></svg>