<?xml version="1.0" encoding="UTF-8" standalone="no"?><svg xmlns="http://www.w3.org/2000/svg" xmlns:xlink="http://www.w3.org/1999/xlink" contentScriptType="application/ecmascript" contentStyleType="text/css" height="348px" preserveAspectRatio="none" style="width:392px;height:348px;background:#FFFFFF;" version="1.1" viewBox="0 0 392 348" width="392px" zoomAndPan="magnify"><defs><filter height="300%" id="fzvs7pkmnkbd5" width="300%" x="-1" y="-1"><feGaussianBlur result="blurOut" stdDeviation="2.0"/><feColorMatrix in="blurOut" result="blurOut2" type="matrix" values="0 0 0 0 0 0 0 0 0 0 0 0 0 0 0 0 0 0 .4 0"/><feOffset dx="4.0" dy="4.0" in="blurOut2" result="blurOut3"/><feBlend in="SourceGraphic" in2="blurOut3" mode="normal"/></filter></defs><g><rect fill="#FFFFFF" filter="url(#fzvs7pkmnkbd5)" height="30.3516" style="stroke:#A80036;stroke-width:1.0;" width="10" x="329" y="121.9609"/><rect fill="#FFFFFF" filter="url(#fzvs7pkmnkbd5)" height="30" style="stroke:#A80036;stroke-width:1.0;" width="10" x="329" y="208.0156"/><rect fill="#FFFFFF" filter="url(#fzvs7pkmnkbd5)" height="78.7031" style="stroke:#000000;stroke-width:2.0;" width="368" x="10" y="167.3125"/><line style="stroke:#A80036;stroke-width:1.0;stroke-dasharray:5.0,5.0;" x1="57" x2="57" y1="89.6094" y2="263.0156"/><line style="stroke:#A80036;stroke-width:1.0;stroke-dasharray:5.0,5.0;" x1="334" x2="334" y1="89.6094" y2="263.0156"/><text fill="#000000" font-family="sans-serif" font-size="14" lengthAdjust="spacing" textLength="68" x="20" y="86.5332">:Scheduler</text><ellipse cx="57" cy="15" fill="#FEFECE" filter="url(#fzvs7pkmnkbd5)" rx="8" ry="8" style="stroke:#A80036;stroke-width:2.0;"/><path d="M57,23 L57,50 M44,31 L70,31 M57,50 L44,65 M57,50 L70,65 " fill="none" filter="url(#fzvs7pkmnkbd5)" style="stroke:#A80036;stroke-width:2.0;"/><text fill="#000000" font-family="sans-serif" font-size="14" lengthAdjust="spacing" textLength="68" x="20" y="276.5488">:Scheduler</text><ellipse cx="57" cy="289.625" fill="#FEFECE" filter="url(#fzvs7pkmnkbd5)" rx="8" ry="8" style="stroke:#A80036;stroke-width:2.0;"/><path d="M57,297.625 L57,324.625 M44,305.625 L70,305.625 M57,324.625 L44,339.625 M57,324.625 L70,339.625 " fill="none" filter="url(#fzvs7pkmnkbd5)" style="stroke:#A80036;stroke-width:2.0;"/><rect fill="#FEFECE" filter="url(#fzvs7pkmnkbd5)" height="31.6094" style="stroke:#A80036;stroke-width:1.5;" width="64" x="300" y="53"/><text fill="#000000" font-family="sans-serif" font-size="14" lengthAdjust="spacing" textLength="50" x="307" y="74.5332">:System</text><rect fill="#FEFECE" filter="url(#fzvs7pkmnkbd5)" height="31.6094" style="stroke:#A80036;stroke-width:1.5;" width="64" x="300" y="262.0156"/><text fill="#000000" font-family="sans-serif" font-size="14" lengthAdjust="spacing" textLength="50" x="307" y="283.5488">:System</text><rect fill="#FFFFFF" filter="url(#fzvs7pkmnkbd5)" height="30.3516" style="stroke:#A80036;stroke-width:1.0;" width="10" x="329" y="121.9609"/><rect fill="#FFFFFF" filter="url(#fzvs7pkmnkbd5)" height="30" style="stroke:#A80036;stroke-width:1.0;" width="10" x="329" y="208.0156"/><polygon fill="#A80036" points="317,117.9609,327,121.9609,317,125.9609,321,121.9609" style="stroke:#A80036;stroke-width:1.0;"/><line style="stroke:#A80036;stroke-width:1.0;" x1="57" x2="323" y1="121.9609" y2="121.9609"/><text fill="#000000" font-family="sans-serif" font-size="13" font-weight="bold" lengthAdjust="spacing" textLength="7" x="64" y="117.1045">1</text><text fill="#000000" font-family="sans-serif" font-size="13" lengthAdjust="spacing" textLength="242" x="75" y="117.1045">asks for the time of day to send the report</text><polygon fill="#A80036" points="68,148.3125,58,152.3125,68,156.3125,64,152.3125" style="stroke:#A80036;stroke-width:1.0;"/><line style="stroke:#A80036;stroke-width:1.0;stroke-dasharray:2.0,2.0;" x1="62" x2="333" y1="152.3125" y2="152.3125"/><text fill="#000000" font-family="sans-serif" font-size="13" font-weight="bold" lengthAdjust="spacing" textLength="7" x="74" y="147.4561">2</text><text fill="#000000" font-family="sans-serif" font-size="13" lengthAdjust="spacing" textLength="114" x="85" y="147.4561">tells the time of day</text><path d="M10,167.3125 L83,167.3125 L83,175.3125 L73,185.3125 L10,185.3125 L10,167.3125 " fill="#EEEEEE" style="stroke:#000000;stroke-width:1.0;"/><rect fill="none" height="78.7031" style="stroke:#000000;stroke-width:2.0;" width="368" x="10" y="167.3125"/><text fill="#000000" font-family="sans-serif" font-size="13" font-weight="bold" lengthAdjust="spacing" textLength="28" x="25" y="181.8076">loop</text><text fill="#000000" font-family="sans-serif" font-size="11" font-weight="bold" lengthAdjust="spacing" textLength="126" x="98" y="180.7314">[every day at X o'clock]</text><polygon fill="#A80036" points="317,204.0156,327,208.0156,317,212.0156,321,208.0156" style="stroke:#A80036;stroke-width:1.0;"/><line style="stroke:#A80036;stroke-width:1.0;" x1="57" x2="323" y1="208.0156" y2="208.0156"/><text fill="#000000" font-family="sans-serif" font-size="13" font-weight="bold" lengthAdjust="spacing" textLength="7" x="64" y="203.1592">3</text><text fill="#000000" font-family="sans-serif" font-size="13" lengthAdjust="spacing" textLength="149" x="75" y="203.1592">needs to create the report</text><!--MD5=[e9d7275db46b3c32efaf0d1219f77f8d]
@startuml
'https://plantuml.com/sequence-diagram

autonumber

actor ":Scheduler" as S
participant ":System" as SYS

S -> SYS : asks for the time of day to send the report
activate SYS
SYS - -> S : tells the time of day
deactivate SYS
loop every day at X o'clock
S -> SYS : needs to create the report
activate SYS
deactivate SYS
end loop

@enduml

@startuml

autonumber

actor ":Scheduler" as S
participant ":System" as SYS

S -> SYS : asks for the time of day to send the report
activate SYS
SYS - -> S : tells the time of day
deactivate SYS
loop every day at X o'clock
S -> SYS : needs to create the report
activate SYS
deactivate SYS
end loop

@enduml

PlantUML version 1.2021.7(Sun May 23 13:40:07 BST 2021)
(GPL source distribution)
Java Runtime: OpenJDK Runtime Environment
JVM: Dynamic Code Evolution 64-Bit Server VM
Default Encoding: Cp1252
Language: en
Country: US
--></g></svg>