<?xml version="1.0" encoding="UTF-8" standalone="no"?><svg xmlns="http://www.w3.org/2000/svg" xmlns:xlink="http://www.w3.org/1999/xlink" contentScriptType="application/ecmascript" contentStyleType="text/css" height="1522px" preserveAspectRatio="none" style="width:1209px;height:1522px;" version="1.1" viewBox="0 0 1209 1522" width="1209px" zoomAndPan="magnify"><defs><filter height="300%" id="f4yxeqw32jkga" width="300%" x="-1" y="-1"><feGaussianBlur result="blurOut" stdDeviation="2.0"/><feColorMatrix in="blurOut" result="blurOut2" type="matrix" values="0 0 0 0 0 0 0 0 0 0 0 0 0 0 0 0 0 0 .4 0"/><feOffset dx="4.0" dy="4.0" in="blurOut2" result="blurOut3"/><feBlend in="SourceGraphic" in2="blurOut3" mode="normal"/></filter></defs><g><!--MD5=[02e4b9b7573f1156f41e60aa5b4e25a4]
class Company--><rect codeLine="5" fill="#FEFECE" filter="url(#f4yxeqw32jkga)" height="53.8359" id="Company" style="stroke:#A80036;stroke-width:1.5;" width="85" x="488.5564" y="1121"/><ellipse cx="503.5564" cy="1137" fill="#ADD1B2" rx="11" ry="11" style="stroke:#A80036;stroke-width:1.0;"/><path d="M505.5564,1133.5 Q505.7595,1133 505.9939,1132.75 Q506.2283,1132.5 506.4939,1132.5 Q506.9627,1132.5 507.2595,1132.7813 Q507.5564,1133.0625 507.5564,1133.7188 L507.5564,1135.2813 Q507.5564,1135.9375 507.2752,1136.2188 Q506.9939,1136.5 506.5564,1136.5 Q506.1658,1136.5 505.9158,1136.3281 Q505.6658,1136.1563 505.5564,1135.7031 Q505.5095,1135.3906 505.3377,1135.2188 Q505.0252,1134.8906 504.4627,1134.7031 Q503.9002,1134.5 503.3377,1134.5 Q502.6345,1134.5 502.0408,1134.7813 Q501.4627,1135.0625 501.0095,1135.6875 Q500.5564,1136.3125 500.5564,1137.1719 L500.5564,1138.0938 Q500.5564,1139.125 501.4002,1139.8125 Q502.2439,1140.5 503.7439,1140.5 Q504.6345,1140.5 505.2595,1140.2969 Q505.6189,1140.1875 506.0252,1139.8281 Q506.2908,1139.625 506.4314,1139.5625 Q506.572,1139.5 506.7439,1139.5 Q507.072,1139.5 507.3064,1139.7656 Q507.5564,1140.0156 507.5564,1140.375 Q507.5564,1140.7188 507.2127,1141.125 Q506.7127,1141.7188 505.9158,1142.0469 Q504.8689,1142.5 503.5877,1142.5 Q502.0877,1142.5 500.8845,1141.9063 Q499.9158,1141.4375 499.2283,1140.4219 Q498.5564,1139.4063 498.5564,1138.2031 L498.5564,1137.1094 Q498.5564,1135.8594 499.1502,1134.7656 Q499.7595,1133.6719 500.8064,1133.0938 Q501.8689,1132.5 503.0564,1132.5 Q503.7752,1132.5 504.4002,1132.75 Q505.0252,1133 505.5564,1133.5 Z " fill="#000000"/><text fill="#000000" font-family="sans-serif" font-size="12" lengthAdjust="spacing" textLength="53" x="517.5564" y="1141.9102">Company</text><line style="stroke:#A80036;stroke-width:1.5;" x1="489.5564" x2="572.5564" y1="1153" y2="1153"/><rect fill="none" height="6" style="stroke:#C82930;stroke-width:1.0;" width="6" x="496.5564" y="1161"/><text fill="#000000" font-family="sans-serif" font-size="11" lengthAdjust="spacing" textLength="55" x="508.5564" y="1168.4189">designation</text><!--MD5=[ed6624c6556d5e7b1bd23032162d20b7]
class Client--><rect codeLine="9" fill="#FEFECE" filter="url(#f4yxeqw32jkga)" height="150.6875" id="Client" style="stroke:#A80036;stroke-width:1.5;" width="117" x="472.5564" y="892"/><ellipse cx="511.4064" cy="908" fill="#ADD1B2" rx="11" ry="11" style="stroke:#A80036;stroke-width:1.0;"/><path d="M513.4064,904.5 Q513.6095,904 513.8439,903.75 Q514.0783,903.5 514.3439,903.5 Q514.8127,903.5 515.1095,903.7813 Q515.4064,904.0625 515.4064,904.7188 L515.4064,906.2813 Q515.4064,906.9375 515.1252,907.2188 Q514.8439,907.5 514.4064,907.5 Q514.0158,907.5 513.7658,907.3281 Q513.5158,907.1563 513.4064,906.7031 Q513.3595,906.3906 513.1877,906.2188 Q512.8752,905.8906 512.3127,905.7031 Q511.7502,905.5 511.1877,905.5 Q510.4845,905.5 509.8908,905.7813 Q509.3127,906.0625 508.8595,906.6875 Q508.4064,907.3125 508.4064,908.1719 L508.4064,909.0938 Q508.4064,910.125 509.2502,910.8125 Q510.0939,911.5 511.5939,911.5 Q512.4845,911.5 513.1095,911.2969 Q513.4689,911.1875 513.8752,910.8281 Q514.1408,910.625 514.2814,910.5625 Q514.422,910.5 514.5939,910.5 Q514.922,910.5 515.1564,910.7656 Q515.4064,911.0156 515.4064,911.375 Q515.4064,911.7188 515.0627,912.125 Q514.5627,912.7188 513.7658,913.0469 Q512.7189,913.5 511.4377,913.5 Q509.9377,913.5 508.7345,912.9063 Q507.7658,912.4375 507.0783,911.4219 Q506.4064,910.4063 506.4064,909.2031 L506.4064,908.1094 Q506.4064,906.8594 507.0002,905.7656 Q507.6095,904.6719 508.6564,904.0938 Q509.7189,903.5 510.9064,903.5 Q511.6252,903.5 512.2502,903.75 Q512.8752,904 513.4064,904.5 Z " fill="#000000"/><text fill="#000000" font-family="sans-serif" font-size="12" lengthAdjust="spacing" textLength="32" x="530.7064" y="912.9102">Client</text><line style="stroke:#A80036;stroke-width:1.5;" x1="473.5564" x2="588.5564" y1="924" y2="924"/><rect fill="none" height="6" style="stroke:#C82930;stroke-width:1.0;" width="6" x="480.5564" y="932"/><text fill="#000000" font-family="sans-serif" font-size="11" lengthAdjust="spacing" textLength="26" x="492.5564" y="939.4189">name</text><rect fill="none" height="6" style="stroke:#C82930;stroke-width:1.0;" width="6" x="480.5564" y="945.8359"/><text fill="#000000" font-family="sans-serif" font-size="11" lengthAdjust="spacing" textLength="48" x="492.5564" y="953.2549">tinNumber</text><rect fill="none" height="6" style="stroke:#C82930;stroke-width:1.0;" width="6" x="480.5564" y="959.6719"/><text fill="#000000" font-family="sans-serif" font-size="11" lengthAdjust="spacing" textLength="91" x="492.5564" y="967.0908">citizenCardNumber</text><rect fill="none" height="6" style="stroke:#C82930;stroke-width:1.0;" width="6" x="480.5564" y="973.5078"/><text fill="#000000" font-family="sans-serif" font-size="11" lengthAdjust="spacing" textLength="55" x="492.5564" y="980.9268">nhsNumber</text><rect fill="none" height="6" style="stroke:#C82930;stroke-width:1.0;" width="6" x="480.5564" y="987.3438"/><text fill="#000000" font-family="sans-serif" font-size="11" lengthAdjust="spacing" textLength="43" x="492.5564" y="994.7627">birthDate</text><rect fill="none" height="6" style="stroke:#C82930;stroke-width:1.0;" width="6" x="480.5564" y="1001.1797"/><text fill="#000000" font-family="sans-serif" font-size="11" lengthAdjust="spacing" textLength="18" x="492.5564" y="1008.5986">sex</text><rect fill="none" height="6" style="stroke:#C82930;stroke-width:1.0;" width="6" x="480.5564" y="1015.0156"/><text fill="#000000" font-family="sans-serif" font-size="11" lengthAdjust="spacing" textLength="67" x="492.5564" y="1022.4346">phoneNumber</text><rect fill="none" height="6" style="stroke:#C82930;stroke-width:1.0;" width="6" x="480.5564" y="1028.8516"/><text fill="#000000" font-family="sans-serif" font-size="11" lengthAdjust="spacing" textLength="24" x="492.5564" y="1036.2705">email</text><!--MD5=[c18fe2235af84d27f50ab7ae87a88372]
class TestValidation--><rect codeLine="20" fill="#FEFECE" filter="url(#f4yxeqw32jkga)" height="53.8359" id="TestValidation" style="stroke:#A80036;stroke-width:1.5;" width="110" x="907.0564" y="593"/><ellipse cx="922.0564" cy="609" fill="#ADD1B2" rx="11" ry="11" style="stroke:#A80036;stroke-width:1.0;"/><path d="M924.0564,605.5 Q924.2595,605 924.4939,604.75 Q924.7283,604.5 924.9939,604.5 Q925.4627,604.5 925.7595,604.7813 Q926.0564,605.0625 926.0564,605.7188 L926.0564,607.2813 Q926.0564,607.9375 925.7752,608.2188 Q925.4939,608.5 925.0564,608.5 Q924.6658,608.5 924.4158,608.3281 Q924.1658,608.1563 924.0564,607.7031 Q924.0095,607.3906 923.8377,607.2188 Q923.5252,606.8906 922.9627,606.7031 Q922.4002,606.5 921.8377,606.5 Q921.1345,606.5 920.5408,606.7813 Q919.9627,607.0625 919.5095,607.6875 Q919.0564,608.3125 919.0564,609.1719 L919.0564,610.0938 Q919.0564,611.125 919.9002,611.8125 Q920.7439,612.5 922.2439,612.5 Q923.1345,612.5 923.7595,612.2969 Q924.1189,612.1875 924.5252,611.8281 Q924.7908,611.625 924.9314,611.5625 Q925.072,611.5 925.2439,611.5 Q925.572,611.5 925.8064,611.7656 Q926.0564,612.0156 926.0564,612.375 Q926.0564,612.7188 925.7127,613.125 Q925.2127,613.7188 924.4158,614.0469 Q923.3689,614.5 922.0877,614.5 Q920.5877,614.5 919.3845,613.9063 Q918.4158,613.4375 917.7283,612.4219 Q917.0564,611.4063 917.0564,610.2031 L917.0564,609.1094 Q917.0564,607.8594 917.6502,606.7656 Q918.2595,605.6719 919.3064,605.0938 Q920.3689,604.5 921.5564,604.5 Q922.2752,604.5 922.9002,604.75 Q923.5252,605 924.0564,605.5 Z " fill="#000000"/><text fill="#000000" font-family="sans-serif" font-size="12" lengthAdjust="spacing" textLength="78" x="936.0564" y="613.9102">TestValidation</text><line style="stroke:#A80036;stroke-width:1.5;" x1="908.0564" x2="1016.0564" y1="625" y2="625"/><rect fill="none" height="6" style="stroke:#C82930;stroke-width:1.0;" width="6" x="915.0564" y="633"/><text fill="#000000" font-family="sans-serif" font-size="11" lengthAdjust="spacing" textLength="48" x="927.0564" y="640.4189">createdAt</text><!--MD5=[9681492165142af2a4a3a169d90ee8d4]
class Sample--><rect codeLine="88" fill="#FEFECE" filter="url(#f4yxeqw32jkga)" height="67.6719" id="Sample" style="stroke:#A80036;stroke-width:1.5;" width="103" x="171.5564" y="586"/><ellipse cx="199.1564" cy="602" fill="#ADD1B2" rx="11" ry="11" style="stroke:#A80036;stroke-width:1.0;"/><path d="M201.1564,598.5 Q201.3595,598 201.5939,597.75 Q201.8283,597.5 202.0939,597.5 Q202.5627,597.5 202.8595,597.7813 Q203.1564,598.0625 203.1564,598.7188 L203.1564,600.2813 Q203.1564,600.9375 202.8752,601.2188 Q202.5939,601.5 202.1564,601.5 Q201.7658,601.5 201.5158,601.3281 Q201.2658,601.1563 201.1564,600.7031 Q201.1095,600.3906 200.9377,600.2188 Q200.6252,599.8906 200.0627,599.7031 Q199.5002,599.5 198.9377,599.5 Q198.2345,599.5 197.6408,599.7813 Q197.0627,600.0625 196.6095,600.6875 Q196.1564,601.3125 196.1564,602.1719 L196.1564,603.0938 Q196.1564,604.125 197.0002,604.8125 Q197.8439,605.5 199.3439,605.5 Q200.2345,605.5 200.8595,605.2969 Q201.2189,605.1875 201.6252,604.8281 Q201.8908,604.625 202.0314,604.5625 Q202.172,604.5 202.3439,604.5 Q202.672,604.5 202.9064,604.7656 Q203.1564,605.0156 203.1564,605.375 Q203.1564,605.7188 202.8127,606.125 Q202.3127,606.7188 201.5158,607.0469 Q200.4689,607.5 199.1877,607.5 Q197.6877,607.5 196.4845,606.9063 Q195.5158,606.4375 194.8283,605.4219 Q194.1564,604.4063 194.1564,603.2031 L194.1564,602.1094 Q194.1564,600.8594 194.7502,599.7656 Q195.3595,598.6719 196.4064,598.0938 Q197.4689,597.5 198.6564,597.5 Q199.3752,597.5 200.0002,597.75 Q200.6252,598 201.1564,598.5 Z " fill="#000000"/><text fill="#000000" font-family="sans-serif" font-size="12" lengthAdjust="spacing" textLength="43" x="215.9564" y="606.9102">Sample</text><line style="stroke:#A80036;stroke-width:1.5;" x1="172.5564" x2="273.5564" y1="618" y2="618"/><rect fill="none" height="6" style="stroke:#C82930;stroke-width:1.0;" width="6" x="179.5564" y="626"/><text fill="#000000" font-family="sans-serif" font-size="11" lengthAdjust="spacing" textLength="48" x="191.5564" y="633.4189">createdAt</text><rect fill="none" height="6" style="stroke:#C82930;stroke-width:1.0;" width="6" x="179.5564" y="639.8359"/><text fill="#000000" font-family="sans-serif" font-size="11" lengthAdjust="spacing" textLength="77" x="191.5564" y="647.2549">barcodeNumber</text><!--MD5=[76b5e19c9337179d2d7ae334371d68c8]
class Notification--><rect codeLine="28" fill="#FEFECE" filter="url(#f4yxeqw32jkga)" height="53.8359" id="Notification" style="stroke:#A80036;stroke-width:1.5;" width="93" x="915.5564" y="746"/><ellipse cx="930.5564" cy="762" fill="#ADD1B2" rx="11" ry="11" style="stroke:#A80036;stroke-width:1.0;"/><path d="M932.5564,758.5 Q932.7595,758 932.9939,757.75 Q933.2283,757.5 933.4939,757.5 Q933.9627,757.5 934.2595,757.7813 Q934.5564,758.0625 934.5564,758.7188 L934.5564,760.2813 Q934.5564,760.9375 934.2752,761.2188 Q933.9939,761.5 933.5564,761.5 Q933.1658,761.5 932.9158,761.3281 Q932.6658,761.1563 932.5564,760.7031 Q932.5095,760.3906 932.3377,760.2188 Q932.0252,759.8906 931.4627,759.7031 Q930.9002,759.5 930.3377,759.5 Q929.6345,759.5 929.0408,759.7813 Q928.4627,760.0625 928.0095,760.6875 Q927.5564,761.3125 927.5564,762.1719 L927.5564,763.0938 Q927.5564,764.125 928.4002,764.8125 Q929.2439,765.5 930.7439,765.5 Q931.6345,765.5 932.2595,765.2969 Q932.6189,765.1875 933.0252,764.8281 Q933.2908,764.625 933.4314,764.5625 Q933.572,764.5 933.7439,764.5 Q934.072,764.5 934.3064,764.7656 Q934.5564,765.0156 934.5564,765.375 Q934.5564,765.7188 934.2127,766.125 Q933.7127,766.7188 932.9158,767.0469 Q931.8689,767.5 930.5877,767.5 Q929.0877,767.5 927.8845,766.9063 Q926.9158,766.4375 926.2283,765.4219 Q925.5564,764.4063 925.5564,763.2031 L925.5564,762.1094 Q925.5564,760.8594 926.1502,759.7656 Q926.7595,758.6719 927.8064,758.0938 Q928.8689,757.5 930.0564,757.5 Q930.7752,757.5 931.4002,757.75 Q932.0252,758 932.5564,758.5 Z " fill="#000000"/><text fill="#000000" font-family="sans-serif" font-size="12" lengthAdjust="spacing" textLength="61" x="944.5564" y="766.9102">Notification</text><line style="stroke:#A80036;stroke-width:1.5;" x1="916.5564" x2="1007.5564" y1="778" y2="778"/><rect fill="none" height="6" style="stroke:#C82930;stroke-width:1.0;" width="6" x="923.5564" y="786"/><text fill="#000000" font-family="sans-serif" font-size="11" lengthAdjust="spacing" textLength="44" x="935.5564" y="793.4189">message</text><!--MD5=[7421f545a0d8420c5bec41e74b387d9c]
class Employee--><rect codeLine="32" fill="#FEFECE" filter="url(#f4yxeqw32jkga)" height="123.0156" id="Employee" style="stroke:#A80036;stroke-width:1.5;" width="93" x="515.5564" y="139"/><ellipse cx="533.2564" cy="155" fill="#ADD1B2" rx="11" ry="11" style="stroke:#A80036;stroke-width:1.0;"/><path d="M535.2564,151.5 Q535.4595,151 535.6939,150.75 Q535.9283,150.5 536.1939,150.5 Q536.6627,150.5 536.9595,150.7813 Q537.2564,151.0625 537.2564,151.7188 L537.2564,153.2813 Q537.2564,153.9375 536.9752,154.2188 Q536.6939,154.5 536.2564,154.5 Q535.8658,154.5 535.6158,154.3281 Q535.3658,154.1563 535.2564,153.7031 Q535.2095,153.3906 535.0377,153.2188 Q534.7252,152.8906 534.1627,152.7031 Q533.6002,152.5 533.0377,152.5 Q532.3345,152.5 531.7408,152.7813 Q531.1627,153.0625 530.7095,153.6875 Q530.2564,154.3125 530.2564,155.1719 L530.2564,156.0938 Q530.2564,157.125 531.1002,157.8125 Q531.9439,158.5 533.4439,158.5 Q534.3345,158.5 534.9595,158.2969 Q535.3189,158.1875 535.7252,157.8281 Q535.9908,157.625 536.1314,157.5625 Q536.272,157.5 536.4439,157.5 Q536.772,157.5 537.0064,157.7656 Q537.2564,158.0156 537.2564,158.375 Q537.2564,158.7188 536.9127,159.125 Q536.4127,159.7188 535.6158,160.0469 Q534.5689,160.5 533.2877,160.5 Q531.7877,160.5 530.5845,159.9063 Q529.6158,159.4375 528.9283,158.4219 Q528.2564,157.4063 528.2564,156.2031 L528.2564,155.1094 Q528.2564,153.8594 528.8502,152.7656 Q529.4595,151.6719 530.5064,151.0938 Q531.5689,150.5 532.7564,150.5 Q533.4752,150.5 534.1002,150.75 Q534.7252,151 535.2564,151.5 Z " fill="#000000"/><text fill="#000000" font-family="sans-serif" font-size="12" lengthAdjust="spacing" textLength="55" x="547.8564" y="159.9102">Employee</text><line style="stroke:#A80036;stroke-width:1.5;" x1="516.5564" x2="607.5564" y1="171" y2="171"/><rect fill="none" height="6" style="stroke:#C82930;stroke-width:1.0;" width="6" x="523.5564" y="179"/><text fill="#000000" font-family="sans-serif" font-size="11" lengthAdjust="spacing" textLength="55" x="535.5564" y="186.4189">employeeID</text><rect fill="none" height="6" style="stroke:#C82930;stroke-width:1.0;" width="6" x="523.5564" y="192.8359"/><text fill="#000000" font-family="sans-serif" font-size="11" lengthAdjust="spacing" textLength="26" x="535.5564" y="200.2549">name</text><rect fill="none" height="6" style="stroke:#C82930;stroke-width:1.0;" width="6" x="523.5564" y="206.6719"/><text fill="#000000" font-family="sans-serif" font-size="11" lengthAdjust="spacing" textLength="40" x="535.5564" y="214.0908">address</text><rect fill="none" height="6" style="stroke:#C82930;stroke-width:1.0;" width="6" x="523.5564" y="220.5078"/><text fill="#000000" font-family="sans-serif" font-size="11" lengthAdjust="spacing" textLength="43" x="535.5564" y="227.9268">socCode</text><rect fill="none" height="6" style="stroke:#C82930;stroke-width:1.0;" width="6" x="523.5564" y="234.3438"/><text fill="#000000" font-family="sans-serif" font-size="11" lengthAdjust="spacing" textLength="67" x="535.5564" y="241.7627">phoneNumber</text><rect fill="none" height="6" style="stroke:#C82930;stroke-width:1.0;" width="6" x="523.5564" y="248.1797"/><text fill="#000000" font-family="sans-serif" font-size="11" lengthAdjust="spacing" textLength="24" x="535.5564" y="255.5986">email</text><!--MD5=[f00dbe8c0302c6aec2cb26b3c659c8fc]
class Report--><rect codeLine="41" fill="#FEFECE" filter="url(#f4yxeqw32jkga)" height="67.6719" id="Report" style="stroke:#A80036;stroke-width:1.5;" width="74" x="319.0564" y="739"/><ellipse cx="336.3064" cy="755" fill="#ADD1B2" rx="11" ry="11" style="stroke:#A80036;stroke-width:1.0;"/><path d="M338.3064,751.5 Q338.5095,751 338.7439,750.75 Q338.9783,750.5 339.2439,750.5 Q339.7127,750.5 340.0095,750.7813 Q340.3064,751.0625 340.3064,751.7188 L340.3064,753.2813 Q340.3064,753.9375 340.0252,754.2188 Q339.7439,754.5 339.3064,754.5 Q338.9158,754.5 338.6658,754.3281 Q338.4158,754.1563 338.3064,753.7031 Q338.2595,753.3906 338.0877,753.2188 Q337.7752,752.8906 337.2127,752.7031 Q336.6502,752.5 336.0877,752.5 Q335.3845,752.5 334.7908,752.7813 Q334.2127,753.0625 333.7595,753.6875 Q333.3064,754.3125 333.3064,755.1719 L333.3064,756.0938 Q333.3064,757.125 334.1502,757.8125 Q334.9939,758.5 336.4939,758.5 Q337.3845,758.5 338.0095,758.2969 Q338.3689,758.1875 338.7752,757.8281 Q339.0408,757.625 339.1814,757.5625 Q339.322,757.5 339.4939,757.5 Q339.822,757.5 340.0564,757.7656 Q340.3064,758.0156 340.3064,758.375 Q340.3064,758.7188 339.9627,759.125 Q339.4627,759.7188 338.6658,760.0469 Q337.6189,760.5 336.3377,760.5 Q334.8377,760.5 333.6345,759.9063 Q332.6658,759.4375 331.9783,758.4219 Q331.3064,757.4063 331.3064,756.2031 L331.3064,755.1094 Q331.3064,753.8594 331.9002,752.7656 Q332.5095,751.6719 333.5564,751.0938 Q334.6189,750.5 335.8064,750.5 Q336.5252,750.5 337.1502,750.75 Q337.7752,751 338.3064,751.5 Z " fill="#000000"/><text fill="#000000" font-family="sans-serif" font-size="12" lengthAdjust="spacing" textLength="37" x="350.8064" y="759.9102">Report</text><line style="stroke:#A80036;stroke-width:1.5;" x1="320.0564" x2="392.0564" y1="771" y2="771"/><rect fill="none" height="6" style="stroke:#C82930;stroke-width:1.0;" width="6" x="327.0564" y="779"/><text fill="#000000" font-family="sans-serif" font-size="11" lengthAdjust="spacing" textLength="48" x="339.0564" y="786.4189">createdAt</text><rect fill="none" height="6" style="stroke:#C82930;stroke-width:1.0;" width="6" x="327.0564" y="792.8359"/><text fill="#000000" font-family="sans-serif" font-size="11" lengthAdjust="spacing" textLength="46" x="339.0564" y="800.2549">diagnosis</text><!--MD5=[0f07739f46effee96e095e9c408da841]
class TestParameter--><rect codeLine="46" fill="#FEFECE" filter="url(#f4yxeqw32jkga)" height="67.6719" id="TestParameter" style="stroke:#A80036;stroke-width:1.5;" width="123" x="543.5564" y="586"/><ellipse cx="562.6064" cy="602" fill="#ADD1B2" rx="11" ry="11" style="stroke:#A80036;stroke-width:1.0;"/><path d="M564.6064,598.5 Q564.8095,598 565.0439,597.75 Q565.2783,597.5 565.5439,597.5 Q566.0127,597.5 566.3095,597.7813 Q566.6064,598.0625 566.6064,598.7188 L566.6064,600.2813 Q566.6064,600.9375 566.3252,601.2188 Q566.0439,601.5 565.6064,601.5 Q565.2158,601.5 564.9658,601.3281 Q564.7158,601.1563 564.6064,600.7031 Q564.5595,600.3906 564.3877,600.2188 Q564.0752,599.8906 563.5127,599.7031 Q562.9502,599.5 562.3877,599.5 Q561.6845,599.5 561.0908,599.7813 Q560.5127,600.0625 560.0595,600.6875 Q559.6064,601.3125 559.6064,602.1719 L559.6064,603.0938 Q559.6064,604.125 560.4502,604.8125 Q561.2939,605.5 562.7939,605.5 Q563.6845,605.5 564.3095,605.2969 Q564.6689,605.1875 565.0752,604.8281 Q565.3408,604.625 565.4814,604.5625 Q565.622,604.5 565.7939,604.5 Q566.122,604.5 566.3564,604.7656 Q566.6064,605.0156 566.6064,605.375 Q566.6064,605.7188 566.2627,606.125 Q565.7627,606.7188 564.9658,607.0469 Q563.9189,607.5 562.6377,607.5 Q561.1377,607.5 559.9345,606.9063 Q558.9658,606.4375 558.2783,605.4219 Q557.6064,604.4063 557.6064,603.2031 L557.6064,602.1094 Q557.6064,600.8594 558.2002,599.7656 Q558.8095,598.6719 559.8564,598.0938 Q560.9189,597.5 562.1064,597.5 Q562.8252,597.5 563.4502,597.75 Q564.0752,598 564.6064,598.5 Z " fill="#000000"/><text fill="#000000" font-family="sans-serif" font-size="12" lengthAdjust="spacing" textLength="82" x="577.5064" y="606.9102">TestParameter</text><line style="stroke:#A80036;stroke-width:1.5;" x1="544.5564" x2="665.5564" y1="618" y2="618"/><rect fill="none" height="6" style="stroke:#C82930;stroke-width:1.0;" width="6" x="551.5564" y="626"/><text fill="#000000" font-family="sans-serif" font-size="11" lengthAdjust="spacing" textLength="49" x="563.5564" y="633.4189">parameter</text><rect fill="none" height="6" style="stroke:#C82930;stroke-width:1.0;" width="6" x="551.5564" y="639.8359"/><text fill="#000000" font-family="sans-serif" font-size="11" lengthAdjust="spacing" textLength="97" x="563.5564" y="647.2549">testParameterResult</text><!--MD5=[4e608140b854dae633589343bce77383]
class TestParameterResult--><rect codeLine="50" fill="#FEFECE" filter="url(#f4yxeqw32jkga)" height="81.5078" id="TestParameterResult" style="stroke:#A80036;stroke-width:1.5;" width="150" x="499.0564" y="732"/><ellipse cx="514.0564" cy="748" fill="#ADD1B2" rx="11" ry="11" style="stroke:#A80036;stroke-width:1.0;"/><path d="M516.0564,744.5 Q516.2595,744 516.4939,743.75 Q516.7283,743.5 516.9939,743.5 Q517.4627,743.5 517.7595,743.7813 Q518.0564,744.0625 518.0564,744.7188 L518.0564,746.2813 Q518.0564,746.9375 517.7752,747.2188 Q517.4939,747.5 517.0564,747.5 Q516.6658,747.5 516.4158,747.3281 Q516.1658,747.1563 516.0564,746.7031 Q516.0095,746.3906 515.8377,746.2188 Q515.5252,745.8906 514.9627,745.7031 Q514.4002,745.5 513.8377,745.5 Q513.1345,745.5 512.5408,745.7813 Q511.9627,746.0625 511.5095,746.6875 Q511.0564,747.3125 511.0564,748.1719 L511.0564,749.0938 Q511.0564,750.125 511.9002,750.8125 Q512.7439,751.5 514.2439,751.5 Q515.1345,751.5 515.7595,751.2969 Q516.1189,751.1875 516.5252,750.8281 Q516.7908,750.625 516.9314,750.5625 Q517.072,750.5 517.2439,750.5 Q517.572,750.5 517.8064,750.7656 Q518.0564,751.0156 518.0564,751.375 Q518.0564,751.7188 517.7127,752.125 Q517.2127,752.7188 516.4158,753.0469 Q515.3689,753.5 514.0877,753.5 Q512.5877,753.5 511.3845,752.9063 Q510.4158,752.4375 509.7283,751.4219 Q509.0564,750.4063 509.0564,749.2031 L509.0564,748.1094 Q509.0564,746.8594 509.6502,745.7656 Q510.2595,744.6719 511.3064,744.0938 Q512.3689,743.5 513.5564,743.5 Q514.2752,743.5 514.9002,743.75 Q515.5252,744 516.0564,744.5 Z " fill="#000000"/><text fill="#000000" font-family="sans-serif" font-size="12" lengthAdjust="spacing" textLength="118" x="528.0564" y="752.9102">TestParameterResult</text><line style="stroke:#A80036;stroke-width:1.5;" x1="500.0564" x2="648.0564" y1="764" y2="764"/><rect fill="none" height="6" style="stroke:#C82930;stroke-width:1.0;" width="6" x="507.0564" y="772"/><text fill="#000000" font-family="sans-serif" font-size="11" lengthAdjust="spacing" textLength="26" x="519.0564" y="779.4189">value</text><rect fill="none" height="6" style="stroke:#C82930;stroke-width:1.0;" width="6" x="507.0564" y="785.8359"/><text fill="#000000" font-family="sans-serif" font-size="11" lengthAdjust="spacing" textLength="29" x="519.0564" y="793.2549">metric</text><rect fill="none" height="6" style="stroke:#C82930;stroke-width:1.0;" width="6" x="507.0564" y="799.6719"/><text fill="#000000" font-family="sans-serif" font-size="11" lengthAdjust="spacing" textLength="42" x="519.0564" y="807.0908">refValue</text><!--MD5=[1f6362a5c8f21d8d6a0fce68f3a92a4e]
class Parameter--><rect codeLine="56" fill="#FEFECE" filter="url(#f4yxeqw32jkga)" height="81.5078" id="Parameter" style="stroke:#A80036;stroke-width:1.5;" width="90" x="973.0564" y="1253"/><ellipse cx="988.0564" cy="1269" fill="#ADD1B2" rx="11" ry="11" style="stroke:#A80036;stroke-width:1.0;"/><path d="M990.0564,1265.5 Q990.2595,1265 990.4939,1264.75 Q990.7283,1264.5 990.9939,1264.5 Q991.4627,1264.5 991.7595,1264.7813 Q992.0564,1265.0625 992.0564,1265.7188 L992.0564,1267.2813 Q992.0564,1267.9375 991.7752,1268.2188 Q991.4939,1268.5 991.0564,1268.5 Q990.6658,1268.5 990.4158,1268.3281 Q990.1658,1268.1563 990.0564,1267.7031 Q990.0095,1267.3906 989.8377,1267.2188 Q989.5252,1266.8906 988.9627,1266.7031 Q988.4002,1266.5 987.8377,1266.5 Q987.1345,1266.5 986.5408,1266.7813 Q985.9627,1267.0625 985.5095,1267.6875 Q985.0564,1268.3125 985.0564,1269.1719 L985.0564,1270.0938 Q985.0564,1271.125 985.9002,1271.8125 Q986.7439,1272.5 988.2439,1272.5 Q989.1345,1272.5 989.7595,1272.2969 Q990.1189,1272.1875 990.5252,1271.8281 Q990.7908,1271.625 990.9314,1271.5625 Q991.072,1271.5 991.2439,1271.5 Q991.572,1271.5 991.8064,1271.7656 Q992.0564,1272.0156 992.0564,1272.375 Q992.0564,1272.7188 991.7127,1273.125 Q991.2127,1273.7188 990.4158,1274.0469 Q989.3689,1274.5 988.0877,1274.5 Q986.5877,1274.5 985.3845,1273.9063 Q984.4158,1273.4375 983.7283,1272.4219 Q983.0564,1271.4063 983.0564,1270.2031 L983.0564,1269.1094 Q983.0564,1267.8594 983.6502,1266.7656 Q984.2595,1265.6719 985.3064,1265.0938 Q986.3689,1264.5 987.5564,1264.5 Q988.2752,1264.5 988.9002,1264.75 Q989.5252,1265 990.0564,1265.5 Z " fill="#000000"/><text fill="#000000" font-family="sans-serif" font-size="12" lengthAdjust="spacing" textLength="58" x="1002.0564" y="1273.9102">Parameter</text><line style="stroke:#A80036;stroke-width:1.5;" x1="974.0564" x2="1062.0564" y1="1285" y2="1285"/><rect fill="none" height="6" style="stroke:#C82930;stroke-width:1.0;" width="6" x="981.0564" y="1293"/><text fill="#000000" font-family="sans-serif" font-size="11" lengthAdjust="spacing" textLength="26" x="993.0564" y="1300.4189">name</text><rect fill="none" height="6" style="stroke:#C82930;stroke-width:1.0;" width="6" x="981.0564" y="1306.8359"/><text fill="#000000" font-family="sans-serif" font-size="11" lengthAdjust="spacing" textLength="24" x="993.0564" y="1314.2549">code</text><rect fill="none" height="6" style="stroke:#C82930;stroke-width:1.0;" width="6" x="981.0564" y="1320.6719"/><text fill="#000000" font-family="sans-serif" font-size="11" lengthAdjust="spacing" textLength="53" x="993.0564" y="1328.0908">description</text><!--MD5=[36afb6bbd95a8ac778c4537c55a683d5]
class ParameterCategory--><rect codeLine="62" fill="#FEFECE" filter="url(#f4yxeqw32jkga)" height="67.6719" id="ParameterCategory" style="stroke:#A80036;stroke-width:1.5;" width="139" x="853.5564" y="1426.5"/><ellipse cx="868.5564" cy="1442.5" fill="#ADD1B2" rx="11" ry="11" style="stroke:#A80036;stroke-width:1.0;"/><path d="M870.5564,1439 Q870.7595,1438.5 870.9939,1438.25 Q871.2283,1438 871.4939,1438 Q871.9627,1438 872.2595,1438.2813 Q872.5564,1438.5625 872.5564,1439.2188 L872.5564,1440.7813 Q872.5564,1441.4375 872.2752,1441.7188 Q871.9939,1442 871.5564,1442 Q871.1658,1442 870.9158,1441.8281 Q870.6658,1441.6563 870.5564,1441.2031 Q870.5095,1440.8906 870.3377,1440.7188 Q870.0252,1440.3906 869.4627,1440.2031 Q868.9002,1440 868.3377,1440 Q867.6345,1440 867.0408,1440.2813 Q866.4627,1440.5625 866.0095,1441.1875 Q865.5564,1441.8125 865.5564,1442.6719 L865.5564,1443.5938 Q865.5564,1444.625 866.4002,1445.3125 Q867.2439,1446 868.7439,1446 Q869.6345,1446 870.2595,1445.7969 Q870.6189,1445.6875 871.0252,1445.3281 Q871.2908,1445.125 871.4314,1445.0625 Q871.572,1445 871.7439,1445 Q872.072,1445 872.3064,1445.2656 Q872.5564,1445.5156 872.5564,1445.875 Q872.5564,1446.2188 872.2127,1446.625 Q871.7127,1447.2188 870.9158,1447.5469 Q869.8689,1448 868.5877,1448 Q867.0877,1448 865.8845,1447.4063 Q864.9158,1446.9375 864.2283,1445.9219 Q863.5564,1444.9063 863.5564,1443.7031 L863.5564,1442.6094 Q863.5564,1441.3594 864.1502,1440.2656 Q864.7595,1439.1719 865.8064,1438.5938 Q866.8689,1438 868.0564,1438 Q868.7752,1438 869.4002,1438.25 Q870.0252,1438.5 870.5564,1439 Z " fill="#000000"/><text fill="#000000" font-family="sans-serif" font-size="12" lengthAdjust="spacing" textLength="107" x="882.5564" y="1447.4102">ParameterCategory</text><line style="stroke:#A80036;stroke-width:1.5;" x1="854.5564" x2="991.5564" y1="1458.5" y2="1458.5"/><rect fill="none" height="6" style="stroke:#C82930;stroke-width:1.0;" width="6" x="861.5564" y="1466.5"/><text fill="#000000" font-family="sans-serif" font-size="11" lengthAdjust="spacing" textLength="24" x="873.5564" y="1473.9189">code</text><rect fill="none" height="6" style="stroke:#C82930;stroke-width:1.0;" width="6" x="861.5564" y="1480.3359"/><text fill="#000000" font-family="sans-serif" font-size="11" lengthAdjust="spacing" textLength="26" x="873.5564" y="1487.7549">name</text><!--MD5=[f69a48f7b38bde3533dca6607cc4e94a]
class TypeOfTest--><rect codeLine="67" fill="#FEFECE" filter="url(#f4yxeqw32jkga)" height="81.5078" id="TypeOfTest" style="stroke:#A80036;stroke-width:1.5;" width="112" x="577.0564" y="1419.5"/><ellipse cx="600.1564" cy="1435.5" fill="#ADD1B2" rx="11" ry="11" style="stroke:#A80036;stroke-width:1.0;"/><path d="M602.1564,1432 Q602.3595,1431.5 602.5939,1431.25 Q602.8283,1431 603.0939,1431 Q603.5627,1431 603.8595,1431.2813 Q604.1564,1431.5625 604.1564,1432.2188 L604.1564,1433.7813 Q604.1564,1434.4375 603.8752,1434.7188 Q603.5939,1435 603.1564,1435 Q602.7658,1435 602.5158,1434.8281 Q602.2658,1434.6563 602.1564,1434.2031 Q602.1095,1433.8906 601.9377,1433.7188 Q601.6252,1433.3906 601.0627,1433.2031 Q600.5002,1433 599.9377,1433 Q599.2345,1433 598.6408,1433.2813 Q598.0627,1433.5625 597.6095,1434.1875 Q597.1564,1434.8125 597.1564,1435.6719 L597.1564,1436.5938 Q597.1564,1437.625 598.0002,1438.3125 Q598.8439,1439 600.3439,1439 Q601.2345,1439 601.8595,1438.7969 Q602.2189,1438.6875 602.6252,1438.3281 Q602.8908,1438.125 603.0314,1438.0625 Q603.172,1438 603.3439,1438 Q603.672,1438 603.9064,1438.2656 Q604.1564,1438.5156 604.1564,1438.875 Q604.1564,1439.2188 603.8127,1439.625 Q603.3127,1440.2188 602.5158,1440.5469 Q601.4689,1441 600.1877,1441 Q598.6877,1441 597.4845,1440.4063 Q596.5158,1439.9375 595.8283,1438.9219 Q595.1564,1437.9063 595.1564,1436.7031 L595.1564,1435.6094 Q595.1564,1434.3594 595.7502,1433.2656 Q596.3595,1432.1719 597.4064,1431.5938 Q598.4689,1431 599.6564,1431 Q600.3752,1431 601.0002,1431.25 Q601.6252,1431.5 602.1564,1432 Z " fill="#000000"/><text fill="#000000" font-family="sans-serif" font-size="12" lengthAdjust="spacing" textLength="62" x="615.9564" y="1440.4102">TypeOfTest</text><line style="stroke:#A80036;stroke-width:1.5;" x1="578.0564" x2="688.0564" y1="1451.5" y2="1451.5"/><rect fill="none" height="6" style="stroke:#C82930;stroke-width:1.0;" width="6" x="585.0564" y="1459.5"/><text fill="#000000" font-family="sans-serif" font-size="11" lengthAdjust="spacing" textLength="53" x="597.0564" y="1466.9189">description</text><rect fill="none" height="6" style="stroke:#C82930;stroke-width:1.0;" width="6" x="585.0564" y="1473.3359"/><text fill="#000000" font-family="sans-serif" font-size="11" lengthAdjust="spacing" textLength="24" x="597.0564" y="1480.7549">code</text><rect fill="none" height="6" style="stroke:#C82930;stroke-width:1.0;" width="6" x="585.0564" y="1487.1719"/><text fill="#000000" font-family="sans-serif" font-size="11" lengthAdjust="spacing" textLength="86" x="597.0564" y="1494.5908">collectingMethods</text><!--MD5=[0caf3a413731a0de34fc6162fe213ed9]
class Laboratory--><rect codeLine="73" fill="#FEFECE" filter="url(#f4yxeqw32jkga)" height="95.3438" id="Laboratory" style="stroke:#A80036;stroke-width:1.5;" width="93" x="322.5564" y="1413"/><ellipse cx="338.9064" cy="1429" fill="#ADD1B2" rx="11" ry="11" style="stroke:#A80036;stroke-width:1.0;"/><path d="M340.9064,1425.5 Q341.1095,1425 341.3439,1424.75 Q341.5783,1424.5 341.8439,1424.5 Q342.3127,1424.5 342.6095,1424.7813 Q342.9064,1425.0625 342.9064,1425.7188 L342.9064,1427.2813 Q342.9064,1427.9375 342.6252,1428.2188 Q342.3439,1428.5 341.9064,1428.5 Q341.5158,1428.5 341.2658,1428.3281 Q341.0158,1428.1563 340.9064,1427.7031 Q340.8595,1427.3906 340.6877,1427.2188 Q340.3752,1426.8906 339.8127,1426.7031 Q339.2502,1426.5 338.6877,1426.5 Q337.9845,1426.5 337.3908,1426.7813 Q336.8127,1427.0625 336.3595,1427.6875 Q335.9064,1428.3125 335.9064,1429.1719 L335.9064,1430.0938 Q335.9064,1431.125 336.7502,1431.8125 Q337.5939,1432.5 339.0939,1432.5 Q339.9845,1432.5 340.6095,1432.2969 Q340.9689,1432.1875 341.3752,1431.8281 Q341.6408,1431.625 341.7814,1431.5625 Q341.922,1431.5 342.0939,1431.5 Q342.422,1431.5 342.6564,1431.7656 Q342.9064,1432.0156 342.9064,1432.375 Q342.9064,1432.7188 342.5627,1433.125 Q342.0627,1433.7188 341.2658,1434.0469 Q340.2189,1434.5 338.9377,1434.5 Q337.4377,1434.5 336.2345,1433.9063 Q335.2658,1433.4375 334.5783,1432.4219 Q333.9064,1431.4063 333.9064,1430.2031 L333.9064,1429.1094 Q333.9064,1427.8594 334.5002,1426.7656 Q335.1095,1425.6719 336.1564,1425.0938 Q337.2189,1424.5 338.4064,1424.5 Q339.1252,1424.5 339.7502,1424.75 Q340.3752,1425 340.9064,1425.5 Z " fill="#000000"/><text fill="#000000" font-family="sans-serif" font-size="12" lengthAdjust="spacing" textLength="58" x="353.2064" y="1433.9102">Laboratory</text><line style="stroke:#A80036;stroke-width:1.5;" x1="323.5564" x2="414.5564" y1="1445" y2="1445"/><rect fill="none" height="6" style="stroke:#C82930;stroke-width:1.0;" width="6" x="330.5564" y="1453"/><text fill="#000000" font-family="sans-serif" font-size="11" lengthAdjust="spacing" textLength="26" x="342.5564" y="1460.4189">name</text><rect fill="none" height="6" style="stroke:#C82930;stroke-width:1.0;" width="6" x="330.5564" y="1466.8359"/><text fill="#000000" font-family="sans-serif" font-size="11" lengthAdjust="spacing" textLength="67" x="342.5564" y="1474.2549">phoneNumber</text><rect fill="none" height="6" style="stroke:#C82930;stroke-width:1.0;" width="6" x="330.5564" y="1480.6719"/><text fill="#000000" font-family="sans-serif" font-size="11" lengthAdjust="spacing" textLength="48" x="342.5564" y="1488.0908">tinNumber</text><rect fill="none" height="6" style="stroke:#C82930;stroke-width:1.0;" width="6" x="330.5564" y="1494.5078"/><text fill="#000000" font-family="sans-serif" font-size="11" lengthAdjust="spacing" textLength="40" x="342.5564" y="1501.9268">address</text><!--MD5=[1934a092c0e7d4da7dc7075b6f4b6b03]
class ClinicalAnalysisLaboratory--><rect codeLine="80" fill="#FEFECE" filter="url(#f4yxeqw32jkga)" height="53.8359" id="ClinicalAnalysisLaboratory" style="stroke:#A80036;stroke-width:1.5;" width="177" x="362.5564" y="1267"/><ellipse cx="377.5564" cy="1283" fill="#ADD1B2" rx="11" ry="11" style="stroke:#A80036;stroke-width:1.0;"/><path d="M379.5564,1279.5 Q379.7595,1279 379.9939,1278.75 Q380.2283,1278.5 380.4939,1278.5 Q380.9627,1278.5 381.2595,1278.7813 Q381.5564,1279.0625 381.5564,1279.7188 L381.5564,1281.2813 Q381.5564,1281.9375 381.2752,1282.2188 Q380.9939,1282.5 380.5564,1282.5 Q380.1658,1282.5 379.9158,1282.3281 Q379.6658,1282.1563 379.5564,1281.7031 Q379.5095,1281.3906 379.3377,1281.2188 Q379.0252,1280.8906 378.4627,1280.7031 Q377.9002,1280.5 377.3377,1280.5 Q376.6345,1280.5 376.0408,1280.7813 Q375.4627,1281.0625 375.0095,1281.6875 Q374.5564,1282.3125 374.5564,1283.1719 L374.5564,1284.0938 Q374.5564,1285.125 375.4002,1285.8125 Q376.2439,1286.5 377.7439,1286.5 Q378.6345,1286.5 379.2595,1286.2969 Q379.6189,1286.1875 380.0252,1285.8281 Q380.2908,1285.625 380.4314,1285.5625 Q380.572,1285.5 380.7439,1285.5 Q381.072,1285.5 381.3064,1285.7656 Q381.5564,1286.0156 381.5564,1286.375 Q381.5564,1286.7188 381.2127,1287.125 Q380.7127,1287.7188 379.9158,1288.0469 Q378.8689,1288.5 377.5877,1288.5 Q376.0877,1288.5 374.8845,1287.9063 Q373.9158,1287.4375 373.2283,1286.4219 Q372.5564,1285.4063 372.5564,1284.2031 L372.5564,1283.1094 Q372.5564,1281.8594 373.1502,1280.7656 Q373.7595,1279.6719 374.8064,1279.0938 Q375.8689,1278.5 377.0564,1278.5 Q377.7752,1278.5 378.4002,1278.75 Q379.0252,1279 379.5564,1279.5 Z " fill="#000000"/><text fill="#000000" font-family="sans-serif" font-size="12" lengthAdjust="spacing" textLength="145" x="391.5564" y="1287.9102">ClinicalAnalysisLaboratory</text><line style="stroke:#A80036;stroke-width:1.5;" x1="363.5564" x2="538.5564" y1="1299" y2="1299"/><rect fill="none" height="6" style="stroke:#C82930;stroke-width:1.0;" width="6" x="370.5564" y="1307"/><text fill="#000000" font-family="sans-serif" font-size="11" lengthAdjust="spacing" textLength="57" x="382.5564" y="1314.4189">laboratoryId</text><!--MD5=[7d96fd15f3014691d2fcaf89c5791e2a]
class SpecialistDoctor--><rect codeLine="84" fill="#FEFECE" filter="url(#f4yxeqw32jkga)" height="53.8359" id="SpecialistDoctor" style="stroke:#A80036;stroke-width:1.5;" width="122" x="387.0564" y="376"/><ellipse cx="402.0564" cy="392" fill="#ADD1B2" rx="11" ry="11" style="stroke:#A80036;stroke-width:1.0;"/><path d="M404.0564,388.5 Q404.2595,388 404.4939,387.75 Q404.7283,387.5 404.9939,387.5 Q405.4627,387.5 405.7595,387.7813 Q406.0564,388.0625 406.0564,388.7188 L406.0564,390.2813 Q406.0564,390.9375 405.7752,391.2188 Q405.4939,391.5 405.0564,391.5 Q404.6658,391.5 404.4158,391.3281 Q404.1658,391.1563 404.0564,390.7031 Q404.0095,390.3906 403.8377,390.2188 Q403.5252,389.8906 402.9627,389.7031 Q402.4002,389.5 401.8377,389.5 Q401.1345,389.5 400.5408,389.7813 Q399.9627,390.0625 399.5095,390.6875 Q399.0564,391.3125 399.0564,392.1719 L399.0564,393.0938 Q399.0564,394.125 399.9002,394.8125 Q400.7439,395.5 402.2439,395.5 Q403.1345,395.5 403.7595,395.2969 Q404.1189,395.1875 404.5252,394.8281 Q404.7908,394.625 404.9314,394.5625 Q405.072,394.5 405.2439,394.5 Q405.572,394.5 405.8064,394.7656 Q406.0564,395.0156 406.0564,395.375 Q406.0564,395.7188 405.7127,396.125 Q405.2127,396.7188 404.4158,397.0469 Q403.3689,397.5 402.0877,397.5 Q400.5877,397.5 399.3845,396.9063 Q398.4158,396.4375 397.7283,395.4219 Q397.0564,394.4063 397.0564,393.2031 L397.0564,392.1094 Q397.0564,390.8594 397.6502,389.7656 Q398.2595,388.6719 399.3064,388.0938 Q400.3689,387.5 401.5564,387.5 Q402.2752,387.5 402.9002,387.75 Q403.5252,388 404.0564,388.5 Z " fill="#000000"/><text fill="#000000" font-family="sans-serif" font-size="12" lengthAdjust="spacing" textLength="90" x="416.0564" y="396.9102">SpecialistDoctor</text><line style="stroke:#A80036;stroke-width:1.5;" x1="388.0564" x2="508.0564" y1="408" y2="408"/><rect fill="none" height="6" style="stroke:#C82930;stroke-width:1.0;" width="6" x="395.0564" y="416"/><text fill="#000000" font-family="sans-serif" font-size="11" lengthAdjust="spacing" textLength="94" x="407.0564" y="423.4189">doctorIndexNumber</text><!--MD5=[df38be88ccee13e832d6fafd6288a4ca]
class Test--><rect codeLine="92" fill="#FEFECE" filter="url(#f4yxeqw32jkga)" height="81.5078" id="Test" style="stroke:#A80036;stroke-width:1.5;" width="86" x="790.0564" y="362"/><ellipse cx="818.5564" cy="378" fill="#ADD1B2" rx="11" ry="11" style="stroke:#A80036;stroke-width:1.0;"/><path d="M820.5564,374.5 Q820.7595,374 820.9939,373.75 Q821.2283,373.5 821.4939,373.5 Q821.9627,373.5 822.2595,373.7813 Q822.5564,374.0625 822.5564,374.7188 L822.5564,376.2813 Q822.5564,376.9375 822.2752,377.2188 Q821.9939,377.5 821.5564,377.5 Q821.1658,377.5 820.9158,377.3281 Q820.6658,377.1563 820.5564,376.7031 Q820.5095,376.3906 820.3377,376.2188 Q820.0252,375.8906 819.4627,375.7031 Q818.9002,375.5 818.3377,375.5 Q817.6345,375.5 817.0408,375.7813 Q816.4627,376.0625 816.0095,376.6875 Q815.5564,377.3125 815.5564,378.1719 L815.5564,379.0938 Q815.5564,380.125 816.4002,380.8125 Q817.2439,381.5 818.7439,381.5 Q819.6345,381.5 820.2595,381.2969 Q820.6189,381.1875 821.0252,380.8281 Q821.2908,380.625 821.4314,380.5625 Q821.572,380.5 821.7439,380.5 Q822.072,380.5 822.3064,380.7656 Q822.5564,381.0156 822.5564,381.375 Q822.5564,381.7188 822.2127,382.125 Q821.7127,382.7188 820.9158,383.0469 Q819.8689,383.5 818.5877,383.5 Q817.0877,383.5 815.8845,382.9063 Q814.9158,382.4375 814.2283,381.4219 Q813.5564,380.4063 813.5564,379.2031 L813.5564,378.1094 Q813.5564,376.8594 814.1502,375.7656 Q814.7595,374.6719 815.8064,374.0938 Q816.8689,373.5 818.0564,373.5 Q818.7752,373.5 819.4002,373.75 Q820.0252,374 820.5564,374.5 Z " fill="#000000"/><text fill="#000000" font-family="sans-serif" font-size="12" lengthAdjust="spacing" textLength="24" x="835.5564" y="382.9102">Test</text><line style="stroke:#A80036;stroke-width:1.5;" x1="791.0564" x2="875.0564" y1="394" y2="394"/><rect fill="none" height="6" style="stroke:#C82930;stroke-width:1.0;" width="6" x="798.0564" y="402"/><text fill="#000000" font-family="sans-serif" font-size="11" lengthAdjust="spacing" textLength="48" x="810.0564" y="409.4189">createdAt</text><rect fill="none" height="6" style="stroke:#C82930;stroke-width:1.0;" width="6" x="798.0564" y="415.8359"/><text fill="#000000" font-family="sans-serif" font-size="11" lengthAdjust="spacing" textLength="43" x="810.0564" y="423.2549">nhsCode</text><rect fill="none" height="6" style="stroke:#C82930;stroke-width:1.0;" width="6" x="798.0564" y="429.6719"/><text fill="#000000" font-family="sans-serif" font-size="11" lengthAdjust="spacing" textLength="60" x="810.0564" y="437.0908">internalCode</text><!--MD5=[a8cdb1e9a553f5119d5d6ee12fd8c3d3]
class ChemicalLab--><rect codeLine="98" fill="#FEFECE" filter="url(#f4yxeqw32jkga)" height="40" id="ChemicalLab" style="stroke:#A80036;stroke-width:1.5;" width="106" x="221.0564" y="1274"/><ellipse cx="236.0564" cy="1290" fill="#ADD1B2" rx="11" ry="11" style="stroke:#A80036;stroke-width:1.0;"/><path d="M238.0564,1286.5 Q238.2595,1286 238.4939,1285.75 Q238.7283,1285.5 238.9939,1285.5 Q239.4627,1285.5 239.7595,1285.7813 Q240.0564,1286.0625 240.0564,1286.7188 L240.0564,1288.2813 Q240.0564,1288.9375 239.7752,1289.2188 Q239.4939,1289.5 239.0564,1289.5 Q238.6658,1289.5 238.4158,1289.3281 Q238.1658,1289.1563 238.0564,1288.7031 Q238.0095,1288.3906 237.8377,1288.2188 Q237.5252,1287.8906 236.9627,1287.7031 Q236.4002,1287.5 235.8377,1287.5 Q235.1345,1287.5 234.5408,1287.7813 Q233.9627,1288.0625 233.5095,1288.6875 Q233.0564,1289.3125 233.0564,1290.1719 L233.0564,1291.0938 Q233.0564,1292.125 233.9002,1292.8125 Q234.7439,1293.5 236.2439,1293.5 Q237.1345,1293.5 237.7595,1293.2969 Q238.1189,1293.1875 238.5252,1292.8281 Q238.7908,1292.625 238.9314,1292.5625 Q239.072,1292.5 239.2439,1292.5 Q239.572,1292.5 239.8064,1292.7656 Q240.0564,1293.0156 240.0564,1293.375 Q240.0564,1293.7188 239.7127,1294.125 Q239.2127,1294.7188 238.4158,1295.0469 Q237.3689,1295.5 236.0877,1295.5 Q234.5877,1295.5 233.3845,1294.9063 Q232.4158,1294.4375 231.7283,1293.4219 Q231.0564,1292.4063 231.0564,1291.2031 L231.0564,1290.1094 Q231.0564,1288.8594 231.6502,1287.7656 Q232.2595,1286.6719 233.3064,1286.0938 Q234.3689,1285.5 235.5564,1285.5 Q236.2752,1285.5 236.9002,1285.75 Q237.5252,1286 238.0564,1286.5 Z " fill="#000000"/><text fill="#000000" font-family="sans-serif" font-size="12" lengthAdjust="spacing" textLength="74" x="250.0564" y="1294.9102">ChemicalLab</text><line style="stroke:#A80036;stroke-width:1.5;" x1="222.0564" x2="326.0564" y1="1306" y2="1306"/><!--MD5=[3fd616f346a44cd59a91eb10b19e157c]
class User--><rect codeLine="101" fill="#FEFECE" filter="url(#f4yxeqw32jkga)" height="81.5078" id="User" style="stroke:#A80036;stroke-width:1.5;" width="76" x="102.0564" y="474"/><ellipse cx="124.7064" cy="490" fill="#ADD1B2" rx="11" ry="11" style="stroke:#A80036;stroke-width:1.0;"/><path d="M126.7064,486.5 Q126.9095,486 127.1439,485.75 Q127.3783,485.5 127.6439,485.5 Q128.1127,485.5 128.4095,485.7813 Q128.7064,486.0625 128.7064,486.7188 L128.7064,488.2813 Q128.7064,488.9375 128.4252,489.2188 Q128.1439,489.5 127.7064,489.5 Q127.3158,489.5 127.0658,489.3281 Q126.8158,489.1563 126.7064,488.7031 Q126.6595,488.3906 126.4877,488.2188 Q126.1752,487.8906 125.6127,487.7031 Q125.0502,487.5 124.4877,487.5 Q123.7845,487.5 123.1908,487.7813 Q122.6127,488.0625 122.1595,488.6875 Q121.7064,489.3125 121.7064,490.1719 L121.7064,491.0938 Q121.7064,492.125 122.5502,492.8125 Q123.3939,493.5 124.8939,493.5 Q125.7845,493.5 126.4095,493.2969 Q126.7689,493.1875 127.1752,492.8281 Q127.4408,492.625 127.5814,492.5625 Q127.722,492.5 127.8939,492.5 Q128.222,492.5 128.4564,492.7656 Q128.7064,493.0156 128.7064,493.375 Q128.7064,493.7188 128.3627,494.125 Q127.8627,494.7188 127.0658,495.0469 Q126.0189,495.5 124.7377,495.5 Q123.2377,495.5 122.0345,494.9063 Q121.0658,494.4375 120.3783,493.4219 Q119.7064,492.4063 119.7064,491.2031 L119.7064,490.1094 Q119.7064,488.8594 120.3002,487.7656 Q120.9095,486.6719 121.9564,486.0938 Q123.0189,485.5 124.2064,485.5 Q124.9252,485.5 125.5502,485.75 Q126.1752,486 126.7064,486.5 Z " fill="#000000"/><text fill="#000000" font-family="sans-serif" font-size="12" lengthAdjust="spacing" textLength="27" x="140.4064" y="494.9102">User</text><line style="stroke:#A80036;stroke-width:1.5;" x1="103.0564" x2="177.0564" y1="506" y2="506"/><rect fill="none" height="6" style="stroke:#C82930;stroke-width:1.0;" width="6" x="110.0564" y="514"/><text fill="#000000" font-family="sans-serif" font-size="11" lengthAdjust="spacing" textLength="24" x="122.0564" y="521.4189">email</text><rect fill="none" height="6" style="stroke:#C82930;stroke-width:1.0;" width="6" x="110.0564" y="527.8359"/><text fill="#000000" font-family="sans-serif" font-size="11" lengthAdjust="spacing" textLength="26" x="122.0564" y="535.2549">name</text><rect fill="none" height="6" style="stroke:#C82930;stroke-width:1.0;" width="6" x="110.0564" y="541.6719"/><text fill="#000000" font-family="sans-serif" font-size="11" lengthAdjust="spacing" textLength="50" x="122.0564" y="549.0908">password</text><!--MD5=[12e90e92236ca84f203192a07d84ec5e]
class OrganizationRole--><rect codeLine="107" fill="#FEFECE" filter="url(#f4yxeqw32jkga)" height="53.8359" id="OrganizationRole" style="stroke:#A80036;stroke-width:1.5;" width="127" x="498.5564" y="7"/><ellipse cx="513.5564" cy="23" fill="#ADD1B2" rx="11" ry="11" style="stroke:#A80036;stroke-width:1.0;"/><path d="M515.5564,19.5 Q515.7595,19 515.9939,18.75 Q516.2283,18.5 516.4939,18.5 Q516.9627,18.5 517.2595,18.7813 Q517.5564,19.0625 517.5564,19.7188 L517.5564,21.2813 Q517.5564,21.9375 517.2752,22.2188 Q516.9939,22.5 516.5564,22.5 Q516.1658,22.5 515.9158,22.3281 Q515.6658,22.1563 515.5564,21.7031 Q515.5095,21.3906 515.3377,21.2188 Q515.0252,20.8906 514.4627,20.7031 Q513.9002,20.5 513.3377,20.5 Q512.6345,20.5 512.0408,20.7813 Q511.4627,21.0625 511.0095,21.6875 Q510.5564,22.3125 510.5564,23.1719 L510.5564,24.0938 Q510.5564,25.125 511.4002,25.8125 Q512.2439,26.5 513.7439,26.5 Q514.6345,26.5 515.2595,26.2969 Q515.6189,26.1875 516.0252,25.8281 Q516.2908,25.625 516.4314,25.5625 Q516.572,25.5 516.7439,25.5 Q517.072,25.5 517.3064,25.7656 Q517.5564,26.0156 517.5564,26.375 Q517.5564,26.7188 517.2127,27.125 Q516.7127,27.7188 515.9158,28.0469 Q514.8689,28.5 513.5877,28.5 Q512.0877,28.5 510.8845,27.9063 Q509.9158,27.4375 509.2283,26.4219 Q508.5564,25.4063 508.5564,24.2031 L508.5564,23.1094 Q508.5564,21.8594 509.1502,20.7656 Q509.7595,19.6719 510.8064,19.0938 Q511.8689,18.5 513.0564,18.5 Q513.7752,18.5 514.4002,18.75 Q515.0252,19 515.5564,19.5 Z " fill="#000000"/><text fill="#000000" font-family="sans-serif" font-size="12" lengthAdjust="spacing" textLength="95" x="527.5564" y="27.9102">OrganizationRole</text><line style="stroke:#A80036;stroke-width:1.5;" x1="499.5564" x2="624.5564" y1="39" y2="39"/><rect fill="none" height="6" style="stroke:#C82930;stroke-width:1.0;" width="6" x="506.5564" y="47"/><text fill="#000000" font-family="sans-serif" font-size="11" lengthAdjust="spacing" textLength="53" x="518.5564" y="54.4189">description</text><!--MD5=[db6d18d8099558415abc41d00477ab92]
class Admin--><rect fill="#FEFECE" filter="url(#f4yxeqw32jkga)" height="40" id="Admin" style="stroke:#A80036;stroke-width:1.5;" width="67" x="1039.5564" y="1128"/><ellipse cx="1054.5564" cy="1144" fill="#ADD1B2" rx="11" ry="11" style="stroke:#A80036;stroke-width:1.0;"/><path d="M1056.5564,1140.5 Q1056.7595,1140 1056.9939,1139.75 Q1057.2283,1139.5 1057.4939,1139.5 Q1057.9627,1139.5 1058.2595,1139.7813 Q1058.5564,1140.0625 1058.5564,1140.7188 L1058.5564,1142.2813 Q1058.5564,1142.9375 1058.2752,1143.2188 Q1057.9939,1143.5 1057.5564,1143.5 Q1057.1658,1143.5 1056.9158,1143.3281 Q1056.6658,1143.1563 1056.5564,1142.7031 Q1056.5095,1142.3906 1056.3377,1142.2188 Q1056.0252,1141.8906 1055.4627,1141.7031 Q1054.9002,1141.5 1054.3377,1141.5 Q1053.6345,1141.5 1053.0408,1141.7813 Q1052.4627,1142.0625 1052.0095,1142.6875 Q1051.5564,1143.3125 1051.5564,1144.1719 L1051.5564,1145.0938 Q1051.5564,1146.125 1052.4002,1146.8125 Q1053.2439,1147.5 1054.7439,1147.5 Q1055.6345,1147.5 1056.2595,1147.2969 Q1056.6189,1147.1875 1057.0252,1146.8281 Q1057.2908,1146.625 1057.4314,1146.5625 Q1057.572,1146.5 1057.7439,1146.5 Q1058.072,1146.5 1058.3064,1146.7656 Q1058.5564,1147.0156 1058.5564,1147.375 Q1058.5564,1147.7188 1058.2127,1148.125 Q1057.7127,1148.7188 1056.9158,1149.0469 Q1055.8689,1149.5 1054.5877,1149.5 Q1053.0877,1149.5 1051.8845,1148.9063 Q1050.9158,1148.4375 1050.2283,1147.4219 Q1049.5564,1146.4063 1049.5564,1145.2031 L1049.5564,1144.1094 Q1049.5564,1142.8594 1050.1502,1141.7656 Q1050.7595,1140.6719 1051.8064,1140.0938 Q1052.8689,1139.5 1054.0564,1139.5 Q1054.7752,1139.5 1055.4002,1139.75 Q1056.0252,1140 1056.5564,1140.5 Z " fill="#000000"/><text fill="#000000" font-family="sans-serif" font-size="12" lengthAdjust="spacing" textLength="35" x="1068.5564" y="1148.9102">Admin</text><line style="stroke:#A80036;stroke-width:1.5;" x1="1040.5564" x2="1105.5564" y1="1160" y2="1160"/><!--MD5=[03960189e81aa2c066c762ffabbee709]
class Receptionist--><rect fill="#FEFECE" filter="url(#f4yxeqw32jkga)" height="40" id="Receptionist" style="stroke:#A80036;stroke-width:1.5;" width="101" x="686.5564" y="180.5"/><ellipse cx="701.5564" cy="196.5" fill="#ADD1B2" rx="11" ry="11" style="stroke:#A80036;stroke-width:1.0;"/><path d="M703.5564,193 Q703.7595,192.5 703.9939,192.25 Q704.2283,192 704.4939,192 Q704.9627,192 705.2595,192.2813 Q705.5564,192.5625 705.5564,193.2188 L705.5564,194.7813 Q705.5564,195.4375 705.2752,195.7188 Q704.9939,196 704.5564,196 Q704.1658,196 703.9158,195.8281 Q703.6658,195.6563 703.5564,195.2031 Q703.5095,194.8906 703.3377,194.7188 Q703.0252,194.3906 702.4627,194.2031 Q701.9002,194 701.3377,194 Q700.6345,194 700.0408,194.2813 Q699.4627,194.5625 699.0095,195.1875 Q698.5564,195.8125 698.5564,196.6719 L698.5564,197.5938 Q698.5564,198.625 699.4002,199.3125 Q700.2439,200 701.7439,200 Q702.6345,200 703.2595,199.7969 Q703.6189,199.6875 704.0252,199.3281 Q704.2908,199.125 704.4314,199.0625 Q704.572,199 704.7439,199 Q705.072,199 705.3064,199.2656 Q705.5564,199.5156 705.5564,199.875 Q705.5564,200.2188 705.2127,200.625 Q704.7127,201.2188 703.9158,201.5469 Q702.8689,202 701.5877,202 Q700.0877,202 698.8845,201.4063 Q697.9158,200.9375 697.2283,199.9219 Q696.5564,198.9063 696.5564,197.7031 L696.5564,196.6094 Q696.5564,195.3594 697.1502,194.2656 Q697.7595,193.1719 698.8064,192.5938 Q699.8689,192 701.0564,192 Q701.7752,192 702.4002,192.25 Q703.0252,192.5 703.5564,193 Z " fill="#000000"/><text fill="#000000" font-family="sans-serif" font-size="12" lengthAdjust="spacing" textLength="69" x="715.5564" y="201.4102">Receptionist</text><line style="stroke:#A80036;stroke-width:1.5;" x1="687.5564" x2="786.5564" y1="212.5" y2="212.5"/><!--MD5=[01931d41e78f8996acd44f6f0fd8de28]
class MedicalLabTechnician--><rect fill="#FEFECE" filter="url(#f4yxeqw32jkga)" height="40" id="MedicalLabTechnician" style="stroke:#A80036;stroke-width:1.5;" width="155" x="235.5564" y="180.5"/><ellipse cx="250.5564" cy="196.5" fill="#ADD1B2" rx="11" ry="11" style="stroke:#A80036;stroke-width:1.0;"/><path d="M252.5564,193 Q252.7595,192.5 252.9939,192.25 Q253.2283,192 253.4939,192 Q253.9627,192 254.2595,192.2813 Q254.5564,192.5625 254.5564,193.2188 L254.5564,194.7813 Q254.5564,195.4375 254.2752,195.7188 Q253.9939,196 253.5564,196 Q253.1658,196 252.9158,195.8281 Q252.6658,195.6563 252.5564,195.2031 Q252.5095,194.8906 252.3377,194.7188 Q252.0252,194.3906 251.4627,194.2031 Q250.9002,194 250.3377,194 Q249.6345,194 249.0408,194.2813 Q248.4627,194.5625 248.0095,195.1875 Q247.5564,195.8125 247.5564,196.6719 L247.5564,197.5938 Q247.5564,198.625 248.4002,199.3125 Q249.2439,200 250.7439,200 Q251.6345,200 252.2595,199.7969 Q252.6189,199.6875 253.0252,199.3281 Q253.2908,199.125 253.4314,199.0625 Q253.572,199 253.7439,199 Q254.072,199 254.3064,199.2656 Q254.5564,199.5156 254.5564,199.875 Q254.5564,200.2188 254.2127,200.625 Q253.7127,201.2188 252.9158,201.5469 Q251.8689,202 250.5877,202 Q249.0877,202 247.8845,201.4063 Q246.9158,200.9375 246.2283,199.9219 Q245.5564,198.9063 245.5564,197.7031 L245.5564,196.6094 Q245.5564,195.3594 246.1502,194.2656 Q246.7595,193.1719 247.8064,192.5938 Q248.8689,192 250.0564,192 Q250.7752,192 251.4002,192.25 Q252.0252,192.5 252.5564,193 Z " fill="#000000"/><text fill="#000000" font-family="sans-serif" font-size="12" lengthAdjust="spacing" textLength="123" x="264.5564" y="201.4102">MedicalLabTechnician</text><line style="stroke:#A80036;stroke-width:1.5;" x1="236.5564" x2="389.5564" y1="212.5" y2="212.5"/><!--MD5=[012ee2a8bf3ae2b319009b06f951c2e5]
class ClinicalChemistryTechnologist--><rect fill="#FEFECE" filter="url(#f4yxeqw32jkga)" height="40" id="ClinicalChemistryTechnologist" style="stroke:#A80036;stroke-width:1.5;" width="200" x="443.0564" y="495"/><ellipse cx="458.0564" cy="511" fill="#ADD1B2" rx="11" ry="11" style="stroke:#A80036;stroke-width:1.0;"/><path d="M460.0564,507.5 Q460.2595,507 460.4939,506.75 Q460.7283,506.5 460.9939,506.5 Q461.4627,506.5 461.7595,506.7813 Q462.0564,507.0625 462.0564,507.7188 L462.0564,509.2813 Q462.0564,509.9375 461.7752,510.2188 Q461.4939,510.5 461.0564,510.5 Q460.6658,510.5 460.4158,510.3281 Q460.1658,510.1563 460.0564,509.7031 Q460.0095,509.3906 459.8377,509.2188 Q459.5252,508.8906 458.9627,508.7031 Q458.4002,508.5 457.8377,508.5 Q457.1345,508.5 456.5408,508.7813 Q455.9627,509.0625 455.5095,509.6875 Q455.0564,510.3125 455.0564,511.1719 L455.0564,512.0938 Q455.0564,513.125 455.9002,513.8125 Q456.7439,514.5 458.2439,514.5 Q459.1345,514.5 459.7595,514.2969 Q460.1189,514.1875 460.5252,513.8281 Q460.7908,513.625 460.9314,513.5625 Q461.072,513.5 461.2439,513.5 Q461.572,513.5 461.8064,513.7656 Q462.0564,514.0156 462.0564,514.375 Q462.0564,514.7188 461.7127,515.125 Q461.2127,515.7188 460.4158,516.0469 Q459.3689,516.5 458.0877,516.5 Q456.5877,516.5 455.3845,515.9063 Q454.4158,515.4375 453.7283,514.4219 Q453.0564,513.4063 453.0564,512.2031 L453.0564,511.1094 Q453.0564,509.8594 453.6502,508.7656 Q454.2595,507.6719 455.3064,507.0938 Q456.3689,506.5 457.5564,506.5 Q458.2752,506.5 458.9002,506.75 Q459.5252,507 460.0564,507.5 Z " fill="#000000"/><text fill="#000000" font-family="sans-serif" font-size="12" lengthAdjust="spacing" textLength="168" x="472.0564" y="515.9102">ClinicalChemistryTechnologist</text><line style="stroke:#A80036;stroke-width:1.5;" x1="444.0564" x2="642.0564" y1="527" y2="527"/><!--MD5=[052425de1c0eb6cc1c1b48342b0bb88f]
class LaboratoryCoordinator--><rect fill="#FEFECE" filter="url(#f4yxeqw32jkga)" height="40" id="LaboratoryCoordinator" style="stroke:#A80036;stroke-width:1.5;" width="155" x="887.5564" y="292"/><ellipse cx="902.5564" cy="308" fill="#ADD1B2" rx="11" ry="11" style="stroke:#A80036;stroke-width:1.0;"/><path d="M904.5564,304.5 Q904.7595,304 904.9939,303.75 Q905.2283,303.5 905.4939,303.5 Q905.9627,303.5 906.2595,303.7813 Q906.5564,304.0625 906.5564,304.7188 L906.5564,306.2813 Q906.5564,306.9375 906.2752,307.2188 Q905.9939,307.5 905.5564,307.5 Q905.1658,307.5 904.9158,307.3281 Q904.6658,307.1563 904.5564,306.7031 Q904.5095,306.3906 904.3377,306.2188 Q904.0252,305.8906 903.4627,305.7031 Q902.9002,305.5 902.3377,305.5 Q901.6345,305.5 901.0408,305.7813 Q900.4627,306.0625 900.0095,306.6875 Q899.5564,307.3125 899.5564,308.1719 L899.5564,309.0938 Q899.5564,310.125 900.4002,310.8125 Q901.2439,311.5 902.7439,311.5 Q903.6345,311.5 904.2595,311.2969 Q904.6189,311.1875 905.0252,310.8281 Q905.2908,310.625 905.4314,310.5625 Q905.572,310.5 905.7439,310.5 Q906.072,310.5 906.3064,310.7656 Q906.5564,311.0156 906.5564,311.375 Q906.5564,311.7188 906.2127,312.125 Q905.7127,312.7188 904.9158,313.0469 Q903.8689,313.5 902.5877,313.5 Q901.0877,313.5 899.8845,312.9063 Q898.9158,312.4375 898.2283,311.4219 Q897.5564,310.4063 897.5564,309.2031 L897.5564,308.1094 Q897.5564,306.8594 898.1502,305.7656 Q898.7595,304.6719 899.8064,304.0938 Q900.8689,303.5 902.0564,303.5 Q902.7752,303.5 903.4002,303.75 Q904.0252,304 904.5564,304.5 Z " fill="#000000"/><text fill="#000000" font-family="sans-serif" font-size="12" lengthAdjust="spacing" textLength="123" x="916.5564" y="312.9102">LaboratoryCoordinator</text><line style="stroke:#A80036;stroke-width:1.5;" x1="888.5564" x2="1041.5564" y1="324" y2="324"/><!--MD5=[e81fca0f34dd6b0a10f4f75277b45ff4]
link Client to Company--><path codeLine="111" d="M531.0564,1043.17 C531.0564,1070.87 531.0564,1100.5 531.0564,1120.99 " fill="none" id="Client-Company" style="stroke:#A80036;stroke-width:1.0;"/><polygon fill="#000000" points="536.0564,1077.1758,533.1175,1086.2209,538.9953,1086.2209,536.0564,1077.1758" style="stroke:#000000;stroke-width:1.0;"/><text fill="#000000" font-family="sans-serif" font-size="13" lengthAdjust="spacing" textLength="37" x="545.0564" y="1087.4951">knows</text><text fill="#000000" font-family="sans-serif" font-size="13" lengthAdjust="spacing" textLength="5" x="525.8338" y="1064.1465">*</text><text fill="#000000" font-family="sans-serif" font-size="13" lengthAdjust="spacing" textLength="7" x="523.2033" y="1110.0143">1</text><!--MD5=[d7ace9ce94145b54e26b24a174e1b7b9]
link Employee to Company--><path codeLine="112" d="M515.3664,220.3 C484.9164,232.45 444.2464,248.47 408.0564,262 C233.9964,327.1 14.0564,216.16 14.0564,402 C14.0564,402 14.0564,402 14.0564,968.5 C14.0564,1068.56 364.4464,1124.85 488.3064,1141.62 " fill="none" id="Employee-Company" style="stroke:#A80036;stroke-width:1.0;"/><polygon fill="#000000" points="19.2032,688.1779,16,697.1328,21.8753,697.3054,19.2032,688.1779" style="stroke:#000000;stroke-width:1.0;"/><text fill="#000000" font-family="sans-serif" font-size="13" lengthAdjust="spacing" textLength="49" x="28.0564" y="698.4951">employs</text><text fill="#000000" font-family="sans-serif" font-size="13" lengthAdjust="spacing" textLength="5" x="502.5268" y="238.2525">*</text><text fill="#000000" font-family="sans-serif" font-size="13" lengthAdjust="spacing" textLength="7" x="473.6463" y="1136.7761">1</text><!--MD5=[6074d13d675c7f36203c2f4fa4699d0f]
link Company to ChemicalLab--><path codeLine="113" d="M488.1864,1172.92 C450.4764,1193.97 394.0964,1225.48 345.0564,1253 C332.9664,1259.79 319.7264,1267.24 307.9964,1273.85 " fill="none" id="Company-ChemicalLab" style="stroke:#A80036;stroke-width:1.0;"/><polygon fill="#000000" points="427.6941,1216.6192,437.0218,1214.7631,434.1494,1209.6349,427.6941,1216.6192" style="stroke:#000000;stroke-width:1.0;"/><text fill="#000000" font-family="sans-serif" font-size="13" lengthAdjust="spacing" textLength="30" x="441.0564" y="1219.4951">owns</text><text fill="#000000" font-family="sans-serif" font-size="13" lengthAdjust="spacing" textLength="7" x="473.5064" y="1173.2602">1</text><text fill="#000000" font-family="sans-serif" font-size="13" lengthAdjust="spacing" textLength="7" x="309.9382" y="1263.1277">1</text><!--MD5=[372bd27a178b4208a6d241b4516ac7e6]
reverse link Employee to SpecialistDoctor--><path codeLine="114" d="M517.6264,279.65 C498.1964,313.81 476.7264,351.57 462.8464,375.98 " fill="none" id="Employee-backto-SpecialistDoctor" style="stroke:#A80036;stroke-width:1.0;"/><polygon fill="none" points="511.5764,276.13,527.5464,262.2,523.7464,283.05,511.5764,276.13" style="stroke:#A80036;stroke-width:1.0;"/><!--MD5=[6163865c9babf4f9d5130bf165763c3c]
link ChemicalLab to Laboratory--><path codeLine="115" d="M285.1364,1314.19 C296.6064,1334.05 315.1664,1366.18 331.9064,1395.18 " fill="none" id="ChemicalLab-to-Laboratory" style="stroke:#A80036;stroke-width:1.0;"/><polygon fill="none" points="338.0864,1391.87,342.0264,1412.69,325.9564,1398.87,338.0864,1391.87" style="stroke:#A80036;stroke-width:1.0;"/><!--MD5=[6d0dfcacb99e5b6ea3de933623cb0bd1]
link ClinicalAnalysisLaboratory to Laboratory--><path codeLine="116" d="M438.0664,1321.07 C428.2164,1340.82 414.2364,1368.86 401.4364,1394.55 " fill="none" id="ClinicalAnalysisLaboratory-to-Laboratory" style="stroke:#A80036;stroke-width:1.0;"/><polygon fill="none" points="407.5864,1397.9,392.3964,1412.68,395.0564,1391.66,407.5864,1397.9" style="stroke:#A80036;stroke-width:1.0;"/><!--MD5=[22fb9506fac029fc1d2ae00f0eb8d606]
link Employee to User--><path codeLine="117" d="M515.4064,218.78 C478.6764,234.02 427.7464,258.95 391.0564,292 C330.6064,346.45 350.7864,391 289.0564,444 C256.3164,472.11 210.3564,491.42 178.1664,502.52 " fill="none" id="Employee-User" style="stroke:#A80036;stroke-width:1.0;"/><polygon fill="#000000" points="392.2305,315.3948,401.0438,311.8204,397.2596,307.3227,392.2305,315.3948" style="stroke:#000000;stroke-width:1.0;"/><text fill="#000000" font-family="sans-serif" font-size="13" lengthAdjust="spacing" textLength="75" x="405.0564" y="317.4951">registered as</text><text fill="#000000" font-family="sans-serif" font-size="13" lengthAdjust="spacing" textLength="22" x="485.6597" y="217.6791">0..1</text><text fill="#000000" font-family="sans-serif" font-size="13" lengthAdjust="spacing" textLength="7" x="186.0983" y="496.1915">1</text><!--MD5=[334b578e13447cb92b44420585535b5d]
link TypeOfTest to ParameterCategory--><path codeLine="118" d="M689.3164,1460.5 C736.1764,1460.5 803.1264,1460.5 853.3764,1460.5 " fill="none" id="TypeOfTest-ParameterCategory" style="stroke:#A80036;stroke-width:1.0;"/><polygon fill="#000000" points="737.3064,1432.6758,728.2613,1429.7369,728.2613,1435.6147,737.3064,1432.6758" style="stroke:#000000;stroke-width:1.0;"/><text fill="#000000" font-family="sans-serif" font-size="13" lengthAdjust="spacing" textLength="75" x="740.3064" y="1437.9951">can measure</text><text fill="#000000" font-family="sans-serif" font-size="13" lengthAdjust="spacing" textLength="112" x="717.3064" y="1454.3467">parameters under a</text><text fill="#000000" font-family="sans-serif" font-size="13" lengthAdjust="spacing" textLength="5" x="697.2123" y="1456.9768">*</text><text fill="#000000" font-family="sans-serif" font-size="13" lengthAdjust="spacing" textLength="20" x="825.5329" y="1457.2411">1..*</text><!--MD5=[6df8849671cb880f6936e94aa30db6f9]
link Parameter to ParameterCategory--><path codeLine="119" d="M994.8164,1335.24 C978.6664,1363.21 957.4064,1400.03 942.2264,1426.31 " fill="none" id="Parameter-ParameterCategory" style="stroke:#A80036;stroke-width:1.0;"/><polygon fill="#000000" points="978.556,1378.5057,985.6243,1372.1425,980.5342,1369.2031,978.556,1378.5057" style="stroke:#000000;stroke-width:1.0;"/><text fill="#000000" font-family="sans-serif" font-size="13" lengthAdjust="spacing" textLength="114" x="990.0564" y="1379.4951">categorized under a</text><text fill="#000000" font-family="sans-serif" font-size="13" lengthAdjust="spacing" textLength="5" x="986.0359" y="1356.0292">*</text><text fill="#000000" font-family="sans-serif" font-size="13" lengthAdjust="spacing" textLength="7" x="938.3114" y="1415.5659">1</text><!--MD5=[9ebc047b0a6ee45af99af6abddb47db1]
link OrganizationRole to Employee--><path codeLine="120" d="M562.0564,61.07 C562.0564,81.9 562.0564,111.95 562.0564,138.74 " fill="none" id="OrganizationRole-Employee" style="stroke:#A80036;stroke-width:1.0;"/><polygon fill="#000000" points="567.0564,95.1758,564.1175,104.2209,569.9953,104.2209,567.0564,95.1758" style="stroke:#000000;stroke-width:1.0;"/><text fill="#000000" font-family="sans-serif" font-size="13" lengthAdjust="spacing" textLength="39" x="576.0564" y="105.4951">has an</text><text fill="#000000" font-family="sans-serif" font-size="13" lengthAdjust="spacing" textLength="7" x="554.2908" y="82.2931">1</text><text fill="#000000" font-family="sans-serif" font-size="13" lengthAdjust="spacing" textLength="5" x="556.7674" y="128.1885">*</text><!--MD5=[aafc5d8a5829a6a8d6dc892cb1ff5d24]
link Company to ClinicalAnalysisLaboratory--><path codeLine="121" d="M516.5664,1175.08 C502.1564,1201.01 480.1764,1240.59 465.7064,1266.63 " fill="none" id="Company-ClinicalAnalysisLaboratory" style="stroke:#A80036;stroke-width:1.0;"/><polygon fill="#000000" points="501.6282,1218.5466,508.5899,1212.067,503.4518,1209.2125,501.6282,1218.5466" style="stroke:#000000;stroke-width:1.0;"/><text fill="#000000" font-family="sans-serif" font-size="13" lengthAdjust="spacing" textLength="30" x="513.0564" y="1219.4951">owns</text><text fill="#000000" font-family="sans-serif" font-size="13" lengthAdjust="spacing" textLength="7" x="505.6311" y="1196.3053">1</text><text fill="#000000" font-family="sans-serif" font-size="13" lengthAdjust="spacing" textLength="5" x="463.5161" y="1256.0054">*</text><!--MD5=[6f6005759a62ca45f59bf4f95a5337fd]
link ClinicalAnalysisLaboratory to TypeOfTest--><path codeLine="122" d="M467.8564,1321.06 C480.5664,1339.6 499.1764,1364.4 519.0564,1383 C536.4664,1399.28 557.6664,1414.52 577.0464,1427.04 " fill="none" id="ClinicalAnalysisLaboratory-TypeOfTest" style="stroke:#A80036;stroke-width:1.0;"/><polygon fill="#000000" points="527.6443,1377.6582,523.2007,1369.2496,519.1069,1373.4674,527.6443,1377.6582" style="stroke:#000000;stroke-width:1.0;"/><text fill="#000000" font-family="sans-serif" font-size="13" lengthAdjust="spacing" textLength="50" x="533.0564" y="1379.4951">performs</text><text fill="#000000" font-family="sans-serif" font-size="13" lengthAdjust="spacing" textLength="5" x="465.9845" y="1342.2809">*</text><text fill="#000000" font-family="sans-serif" font-size="13" lengthAdjust="spacing" textLength="20" x="549.0014" y="1419.5336">1..*</text><!--MD5=[147acf42fe9475025d9b6f56a55be7cf]
link Company to TypeOfTest--><path codeLine="123" d="M541.1564,1175.11 C544.7064,1184.5 548.6564,1195.19 552.0564,1205 C578.0864,1280.14 605.5864,1368.82 620.9164,1419.18 " fill="none" id="Company-TypeOfTest" style="stroke:#A80036;stroke-width:1.0;"/><polygon fill="#000000" points="600.6095,1298.9284,600.5935,1289.4179,595.0064,1291.2437,600.6095,1298.9284" style="stroke:#000000;stroke-width:1.0;"/><text fill="#000000" font-family="sans-serif" font-size="13" lengthAdjust="spacing" textLength="53" x="608.0564" y="1299.4951">conducts</text><text fill="#000000" font-family="sans-serif" font-size="13" lengthAdjust="spacing" textLength="7" x="535.6002" y="1196.3418">1</text><text fill="#000000" font-family="sans-serif" font-size="13" lengthAdjust="spacing" textLength="5" x="613.4917" y="1408.5764">*</text><!--MD5=[631065daa0134e8a799c431ad1bf528b]
link TestParameterResult to Report--><path codeLine="124" d="M498.7364,773 C463.2064,773 422.3864,773 393.5364,773 " fill="none" id="TestParameterResult-Report" style="stroke:#A80036;stroke-width:1.0;"/><polygon fill="#000000" points="410.5564,761.1758,419.6015,764.1147,419.6015,758.2369,410.5564,761.1758" style="stroke:#000000;stroke-width:1.0;"/><text fill="#000000" font-family="sans-serif" font-size="13" lengthAdjust="spacing" textLength="56" x="424.5564" y="766.4951">originates</text><text fill="#000000" font-family="sans-serif" font-size="13" lengthAdjust="spacing" textLength="5" x="486.076" y="769.7491">*</text><text fill="#000000" font-family="sans-serif" font-size="13" lengthAdjust="spacing" textLength="7" x="401.0921" y="769.0828">1</text><!--MD5=[1dbb730aa792675a530b390feeeb5270]
link Report to Client--><path codeLine="125" d="M386.1364,807.09 C409.7864,833.11 443.4564,870.14 472.3864,901.97 " fill="none" id="Report-Client" style="stroke:#A80036;stroke-width:1.0;"/><polygon fill="#000000" points="442.4197,856.8756,438.5102,848.2057,434.1608,852.1595,442.4197,856.8756" style="stroke:#000000;stroke-width:1.0;"/><text fill="#000000" font-family="sans-serif" font-size="13" lengthAdjust="spacing" textLength="40" x="448.0564" y="858.4951">sent to</text><text fill="#000000" font-family="sans-serif" font-size="13" lengthAdjust="spacing" textLength="5" x="386.0491" y="828.1429">*</text><text fill="#000000" font-family="sans-serif" font-size="13" lengthAdjust="spacing" textLength="5" x="459.549" y="890.0866">*</text><!--MD5=[b9014cebc313a16442615e671f7ea802]
link User to Client--><path codeLine="126" d="M137.5664,556.08 C137.3364,584.58 140.1964,623.14 154.0564,654 C217.8764,796.11 383.5064,894.9 472.4864,939.56 " fill="none" id="User-Client" style="stroke:#A80036;stroke-width:1.0;"/><polygon fill="#000000" points="181.7674,689.4099,185.5038,698.1557,189.9309,694.2892,181.7674,689.4099" style="stroke:#000000;stroke-width:1.0;"/><text fill="#000000" font-family="sans-serif" font-size="13" lengthAdjust="spacing" textLength="53" x="194.0564" y="698.4951">becomes</text><text fill="#000000" font-family="sans-serif" font-size="13" lengthAdjust="spacing" textLength="7" x="129.6492" y="577.1551">1</text><text fill="#000000" font-family="sans-serif" font-size="13" lengthAdjust="spacing" textLength="22" x="442.4424" y="932.9379">0..1</text><!--MD5=[6e3b9fc76a32d9309eb453fa3b67d6a7]
reverse link Employee to Admin--><path codeLine="127" d="M626.5364,243.85 C640.1064,251.05 654.6764,257.61 669.0564,262 C750.4864,286.88 987.3764,235.48 1051.0564,292 C1088.3464,325.1 1073.0564,352.14 1073.0564,402 C1073.0564,402 1073.0564,402 1073.0564,968.5 C1073.0564,1026.61 1073.0564,1095.35 1073.0564,1127.98 " fill="none" id="Employee-backto-Admin" style="stroke:#A80036;stroke-width:1.0;"/><polygon fill="none" points="622.7164,249.73,608.7664,233.78,629.6164,237.55,622.7164,249.73" style="stroke:#A80036;stroke-width:1.0;"/><!--MD5=[e6b253b588892f992f90e4845b74fe0b]
link Admin to Employee--><path codeLine="132" d="M1086.2464,1127.92 C1106.7764,1096.3 1144.0564,1030.37 1144.0564,968.5 C1144.0564,402 1144.0564,402 1144.0564,402 C1144.0564,181.91 879.7664,325.58 669.0564,262 C648.1164,255.68 626.7864,244.72 608.7464,233.85 " fill="none" id="Admin-Employee" style="stroke:#A80036;stroke-width:1.0;"/><polygon fill="#000000" points="1146.7009,688.7654,1148.3697,698.1284,1153.5544,695.3594,1146.7009,688.7654" style="stroke:#000000;stroke-width:1.0;"/><text fill="#000000" font-family="sans-serif" font-size="13" lengthAdjust="spacing" textLength="43" x="1158.0564" y="698.4951">register</text><text fill="#000000" font-family="sans-serif" font-size="13" lengthAdjust="spacing" textLength="20" x="1067.1835" y="1117.2183">1..*</text><text fill="#000000" font-family="sans-serif" font-size="13" lengthAdjust="spacing" textLength="5" x="616.5861" y="235.412">*</text><!--MD5=[e6c6dc67a59b2936f5b2a641a4a0f477]
link Admin to ParameterCategory--><path codeLine="128" d="M1090.3264,1168.21 C1098.3064,1178.38 1106.9164,1191.52 1111.0564,1205 C1134.2964,1280.62 1155.2164,1317.36 1111.0564,1383 C1084.7964,1422.03 1034.8064,1441.16 992.9664,1450.53 " fill="none" id="Admin-ParameterCategory" style="stroke:#A80036;stroke-width:1.0;"/><polygon fill="#000000" points="1139.4263,1298.9026,1145.1535,1291.3098,1139.5968,1289.3936,1139.4263,1298.9026" style="stroke:#000000;stroke-width:1.0;"/><text fill="#000000" font-family="sans-serif" font-size="13" lengthAdjust="spacing" textLength="51" x="1150.0564" y="1299.4951">specifies</text><text fill="#000000" font-family="sans-serif" font-size="13" lengthAdjust="spacing" textLength="20" x="1072.2802" y="1189.3338">1..*</text><text fill="#000000" font-family="sans-serif" font-size="13" lengthAdjust="spacing" textLength="5" x="1000.4337" y="1446.207">*</text><!--MD5=[93b4f25fb503a8e0e9a46b1d30ff3f44]
link Company to ParameterCategory--><path codeLine="129" d="M566.7864,1175.09 C595.0564,1195.89 635.3864,1225.9 670.0564,1253 C746.6664,1312.88 834.1764,1385.21 883.5964,1426.43 " fill="none" id="Company-ParameterCategory" style="stroke:#A80036;stroke-width:1.0;"/><polygon fill="#000000" points="779.9734,1297.2833,774.7141,1289.3593,771.0609,1293.9641,779.9734,1297.2833" style="stroke:#000000;stroke-width:1.0;"/><text fill="#000000" font-family="sans-serif" font-size="13" lengthAdjust="spacing" textLength="39" x="785.0564" y="1299.4951">adopts</text><text fill="#000000" font-family="sans-serif" font-size="13" lengthAdjust="spacing" textLength="7" x="566.8367" y="1196.3175">1</text><text fill="#000000" font-family="sans-serif" font-size="13" lengthAdjust="spacing" textLength="5" x="870.3355" y="1415.7095">*</text><!--MD5=[00132b83b0561ffb36085aadf1cf93dd]
link Admin to TypeOfTest--><path codeLine="130" d="M1039.5164,1165.78 C993.6064,1189.12 914.1364,1231.01 890.0564,1253 C857.2864,1282.93 865.2264,1304.42 833.0564,1335 C790.2164,1375.72 732.0264,1410.14 689.4464,1432.39 " fill="none" id="Admin-TypeOfTest" style="stroke:#A80036;stroke-width:1.0;"/><polygon fill="#000000" points="891.0787,1297.2052,900.0551,1294.063,896.4938,1289.3869,891.0787,1297.2052" style="stroke:#000000;stroke-width:1.0;"/><text fill="#000000" font-family="sans-serif" font-size="13" lengthAdjust="spacing" textLength="51" x="904.0564" y="1299.4951">specifies</text><text fill="#000000" font-family="sans-serif" font-size="13" lengthAdjust="spacing" textLength="20" x="1011.4887" y="1165.1107">1..*</text><text fill="#000000" font-family="sans-serif" font-size="13" lengthAdjust="spacing" textLength="5" x="696.9917" y="1425.3126">*</text><!--MD5=[e1afea9e4efa714420cae843e9ccbf3c]
link Admin to Parameter--><path codeLine="131" d="M1060.4864,1168.06 C1053.9764,1178.6 1046.3064,1192.14 1041.0564,1205 C1034.8564,1220.21 1029.8964,1237.58 1026.1864,1252.85 " fill="none" id="Admin-Parameter" style="stroke:#A80036;stroke-width:1.0;"/><polygon fill="#000000" points="1044.1814,1218.8109,1050.2978,1211.528,1044.8489,1209.3238,1044.1814,1218.8109" style="stroke:#000000;stroke-width:1.0;"/><text fill="#000000" font-family="sans-serif" font-size="13" lengthAdjust="spacing" textLength="51" x="1055.0564" y="1219.4951">specifies</text><text fill="#000000" font-family="sans-serif" font-size="13" lengthAdjust="spacing" textLength="20" x="1034.1386" y="1189.4964">1..*</text><text fill="#000000" font-family="sans-serif" font-size="13" lengthAdjust="spacing" textLength="5" x="1022.1189" y="1242.2745">*</text><!--MD5=[bfff716514ca687b645fe473c6e098a4]
reverse link Employee to Receptionist--><path codeLine="133" d="M628.8864,200.5 C648.0864,200.5 667.2864,200.5 686.4864,200.5 " fill="none" id="Employee-backto-Receptionist" style="stroke:#A80036;stroke-width:1.0;"/><polygon fill="none" points="628.8864,207.5,608.8864,200.5,628.8864,193.5,628.8864,207.5" style="stroke:#A80036;stroke-width:1.0;"/><!--MD5=[e8b34c2e6517a986175307f5599f058a]
link Receptionist to Test--><path codeLine="134" d="M746.2564,220.72 C761.7464,253.07 793.3264,319.03 813.8264,361.83 " fill="none" id="Receptionist-Test" style="stroke:#A80036;stroke-width:1.0;"/><polygon fill="#000000" points="806.2158,316.6854,804.9601,307.2581,799.6587,309.7967,806.2158,316.6854" style="stroke:#000000;stroke-width:1.0;"/><text fill="#000000" font-family="sans-serif" font-size="13" lengthAdjust="spacing" textLength="43" x="813.0564" y="317.4951">register</text><text fill="#000000" font-family="sans-serif" font-size="13" lengthAdjust="spacing" textLength="20" x="726.0414" y="241.8465">1..*</text><text fill="#000000" font-family="sans-serif" font-size="13" lengthAdjust="spacing" textLength="5" x="805.2274" y="351.2512">*</text><!--MD5=[6a35157f4c730bda767e7c9f1b8b7f73]
link Receptionist to Client--><path codeLine="135" d="M737.0564,220.58 C737.0564,256.22 737.0564,335.34 737.0564,402 C737.0564,402 737.0564,402 737.0564,774 C737.0564,855.13 650.6964,911.9 589.8164,941.85 " fill="none" id="Receptionist-Client" style="stroke:#A80036;stroke-width:1.0;"/><polygon fill="#000000" points="741.0563,625.0747,745.745,616.8003,739.986,615.6246,741.0563,625.0747" style="stroke:#000000;stroke-width:1.0;"/><text fill="#000000" font-family="sans-serif" font-size="13" lengthAdjust="spacing" textLength="43" x="751.0564" y="625.4951">register</text><text fill="#000000" font-family="sans-serif" font-size="13" lengthAdjust="spacing" textLength="20" x="739.8689" y="242.0221">1..*</text><text fill="#000000" font-family="sans-serif" font-size="13" lengthAdjust="spacing" textLength="5" x="597.6654" y="935.0763">*</text><!--MD5=[f24c888dadeb846430474fe80a58922b]
link Test to TestParameter--><path codeLine="136" d="M790.4364,444.19 C747.1364,485.03 680.8264,547.55 640.3564,585.71 " fill="none" id="Test-TestParameter" style="stroke:#A80036;stroke-width:1.0;"/><text fill="#000000" font-family="sans-serif" font-size="13" lengthAdjust="spacing" textLength="29" x="753.0564" y="520.4951">&gt;has</text><text fill="#000000" font-family="sans-serif" font-size="13" lengthAdjust="spacing" textLength="7" x="774.933" y="447.8823">1</text><text fill="#000000" font-family="sans-serif" font-size="13" lengthAdjust="spacing" textLength="20" x="625.1792" y="575.2084">1..*</text><!--MD5=[0e00e25ac6b8c14659aaff2cf7e5df08]
link TestParameter to TestParameterResult--><path codeLine="137" d="M598.2564,654.14 C593.5464,677.06 587.2664,707.68 582.2764,731.96 " fill="none" id="TestParameter-TestParameterResult" style="stroke:#A80036;stroke-width:1.0;"/><polygon fill="#000000" points="596.0507,698.0736,600.7489,689.8045,594.9912,688.6222,596.0507,698.0736" style="stroke:#000000;stroke-width:1.0;"/><text fill="#000000" font-family="sans-serif" font-size="13" lengthAdjust="spacing" textLength="47" x="606.0564" y="698.4951">receives</text><text fill="#000000" font-family="sans-serif" font-size="13" lengthAdjust="spacing" textLength="7" x="589.4217" y="675.2018">1</text><text fill="#000000" font-family="sans-serif" font-size="13" lengthAdjust="spacing" textLength="7" x="576.0877" y="721.0989">1</text><!--MD5=[b72ac8ab7fb5921fceb5036a3902baea]
link Test to Sample--><path codeLine="138" d="M790.0064,409.41 C685.6464,422.7 425.1164,457.15 389.0564,474 C332.5464,500.41 280.7064,551.97 250.4864,585.95 " fill="none" id="Test-Sample" style="stroke:#A80036;stroke-width:1.0;"/><polygon fill="#000000" points="389.3044,516.7307,398.8149,516.711,396.9869,511.1246,389.3044,516.7307" style="stroke:#000000;stroke-width:1.0;"/><text fill="#000000" font-family="sans-serif" font-size="13" lengthAdjust="spacing" textLength="21" x="403.0564" y="520.4951">has</text><text fill="#000000" font-family="sans-serif" font-size="13" lengthAdjust="spacing" textLength="5" x="777.1775" y="406.7043">*</text><text fill="#000000" font-family="sans-serif" font-size="13" lengthAdjust="spacing" textLength="5" x="250.3945" y="575.2334">*</text><!--MD5=[3994f36c72829dbcddd1cf7021dddf61]
link Test to Client--><path codeLine="140" d="M839.0764,444.31 C849.6464,530.88 861.9264,736.89 763.0564,862 C720.2564,916.15 643.2764,943.13 589.7864,955.93 " fill="none" id="Test-Client" style="stroke:#A80036;stroke-width:1.0;"/><polygon fill="#000000" points="842.2465,688.681,835.6426,695.5248,840.9266,698.0995,842.2465,688.681" style="stroke:#000000;stroke-width:1.0;"/><text fill="#000000" font-family="sans-serif" font-size="13" lengthAdjust="spacing" textLength="46" x="849.0564" y="698.4951">asks for</text><text fill="#000000" font-family="sans-serif" font-size="13" lengthAdjust="spacing" textLength="20" x="818.4919" y="465.1095">1..*</text><text fill="#000000" font-family="sans-serif" font-size="13" lengthAdjust="spacing" textLength="5" x="597.6315" y="969.0103">*</text><!--MD5=[2d3d1e6d66ae86ad5e3a19e2e565ce0b]
link MedicalLabTechnician to Employee--><path codeLine="142" d="M390.8664,200.5 C425.5264,200.5 460.1864,200.5 494.8464,200.5 " fill="none" id="MedicalLabTechnician-to-Employee" style="stroke:#A80036;stroke-width:1.0;"/><polygon fill="none" points="495.2464,193.5,515.2464,200.5,495.2464,207.5,495.2464,193.5" style="stroke:#A80036;stroke-width:1.0;"/><!--MD5=[0a29b4543c1af9e8341b856b8b8ec05c]
link MedicalLabTechnician to Sample--><path codeLine="143" d="M308.9564,220.52 C294.8364,286.01 248.1364,502.63 230.1764,585.95 " fill="none" id="MedicalLabTechnician-Sample" style="stroke:#A80036;stroke-width:1.0;"/><polygon fill="#000000" points="281.0027,408.0635,285.7818,399.8409,280.036,398.6022,281.0027,408.0635" style="stroke:#000000;stroke-width:1.0;"/><text fill="#000000" font-family="sans-serif" font-size="13" lengthAdjust="spacing" textLength="43" x="291.0564" y="408.4951">register</text><text fill="#000000" font-family="sans-serif" font-size="13" lengthAdjust="spacing" textLength="20" x="284.9908" y="241.9452">1..*</text><text fill="#000000" font-family="sans-serif" font-size="13" lengthAdjust="spacing" textLength="5" x="226.086" y="575.2334">*</text><!--MD5=[4c7c52c4bf7e982cdae6fb6daeda4b43]
reverse link Employee to ClinicalChemistryTechnologist--><path codeLine="145" d="M557.1364,282.43 C552.7864,354 546.7464,453.28 544.2264,494.68 " fill="none" id="Employee-backto-ClinicalChemistryTechnologist" style="stroke:#A80036;stroke-width:1.0;"/><polygon fill="none" points="550.1664,281.66,558.3664,262.12,564.1464,282.51,550.1664,281.66" style="stroke:#A80036;stroke-width:1.0;"/><!--MD5=[d4e1490c6ed53c192f3b97305bdab655]
link ClinicalChemistryTechnologist to TestParameterResult--><path codeLine="146" d="M516.2164,535.06 C501.0164,547.59 483.3964,565.43 475.0564,586 C463.6964,614 464.7164,625.6 475.0564,654 C485.8464,683.65 507.7264,711.04 528.1764,731.95 " fill="none" id="ClinicalChemistryTechnologist-TestParameterResult" style="stroke:#A80036;stroke-width:1.0;"/><polygon fill="#000000" points="480.3596,625.1666,482.7447,615.9599,476.8776,616.3163,480.3596,625.1666" style="stroke:#000000;stroke-width:1.0;"/><text fill="#000000" font-family="sans-serif" font-size="13" lengthAdjust="spacing" textLength="36" x="489.0564" y="625.4951">record</text><text fill="#000000" font-family="sans-serif" font-size="13" lengthAdjust="spacing" textLength="20" x="485.8552" y="556.4964">1..*</text><text fill="#000000" font-family="sans-serif" font-size="13" lengthAdjust="spacing" textLength="5" x="514.8611" y="721.0872">*</text><!--MD5=[35c5d5b78cc27fdb07caaeeaa436e174]
link SpecialistDoctor to Report--><path codeLine="148" d="M404.5964,430.18 C389.6164,441.62 374.5064,456.46 366.0564,474 C323.8264,561.68 338.2264,681.29 348.8564,738.65 " fill="none" id="SpecialistDoctor-Report" style="stroke:#A80036;stroke-width:1.0;"/><polygon fill="#000000" points="343.1673,625.0961,347.6678,616.7178,341.8836,615.6726,343.1673,625.0961" style="stroke:#000000;stroke-width:1.0;"/><text fill="#000000" font-family="sans-serif" font-size="13" lengthAdjust="spacing" textLength="27" x="353.0564" y="625.4951">write</text><text fill="#000000" font-family="sans-serif" font-size="13" lengthAdjust="spacing" textLength="20" x="372.902" y="451.4271">1..*</text><text fill="#000000" font-family="sans-serif" font-size="13" lengthAdjust="spacing" textLength="5" x="342.0074" y="728.1369">*</text><!--MD5=[12d76240d3c3c66074d4ec2ea8bf469c]
link Company to Parameter--><path codeLine="149" d="M573.7564,1155.79 C650.3064,1168.82 815.1664,1200.75 946.0564,1253 C954.9564,1256.55 964.1264,1260.98 972.8164,1265.59 " fill="none" id="Company-Parameter" style="stroke:#A80036;stroke-width:1.0;"/><polygon fill="#000000" points="866.8773,1215.5022,858.9359,1210.269,857.3766,1215.9363,866.8773,1215.5022" style="stroke:#000000;stroke-width:1.0;"/><text fill="#000000" font-family="sans-serif" font-size="13" lengthAdjust="spacing" textLength="118" x="871.0564" y="1219.4951">capable of analysing</text><text fill="#000000" font-family="sans-serif" font-size="13" lengthAdjust="spacing" textLength="7" x="581.697" y="1153.2933">1</text><text fill="#000000" font-family="sans-serif" font-size="13" lengthAdjust="spacing" textLength="5" x="959.9095" y="1257.1246">*</text><!--MD5=[7dae17bb55c59b06af656d7c83a51371]
reverse link Employee to LaboratoryCoordinator--><path codeLine="150" d="M626.5764,243.01 C640.1764,250.31 654.7564,257.12 669.0564,262 C757.4464,292.17 785.1264,275.47 877.0564,292 C880.4364,292.61 883.8964,293.25 887.3764,293.92 " fill="none" id="Employee-backto-LaboratoryCoordinator" style="stroke:#A80036;stroke-width:1.0;"/><polygon fill="none" points="622.6764,248.85,608.7364,232.89,629.5864,236.67,622.6764,248.85" style="stroke:#A80036;stroke-width:1.0;"/><!--MD5=[da9610dcfcc5c6c9ebaa2371f73724f5]
link LaboratoryCoordinator to TestValidation--><path codeLine="152" d="M965.8364,332.23 C967.3764,373.32 970.3564,472.74 967.0564,556 C966.5764,568.17 965.5664,581.63 964.5864,592.97 " fill="none" id="LaboratoryCoordinator-TestValidation" style="stroke:#A80036;stroke-width:1.0;"/><polygon fill="#000000" points="973.0324,408.1757,976.0147,399.1448,970.1369,399.1167,973.0324,408.1757" style="stroke:#000000;stroke-width:1.0;"/><text fill="#000000" font-family="sans-serif" font-size="13" lengthAdjust="spacing" textLength="28" x="982.0564" y="408.4951">does</text><text fill="#000000" font-family="sans-serif" font-size="13" lengthAdjust="spacing" textLength="20" x="943.3585" y="353.3592">1..*</text><text fill="#000000" font-family="sans-serif" font-size="13" lengthAdjust="spacing" textLength="5" x="959.5937" y="581.9894">*</text><!--MD5=[905c082e5fce4eb785bce914d71adcec]
link Test to TestValidation--><path codeLine="153" d="M843.7264,444.02 C854.4964,482.57 871.3064,537.66 884.0564,556 C893.8964,570.15 907.7864,582.78 921.1264,592.94 " fill="none" id="Test-TestValidation" style="stroke:#A80036;stroke-width:1.0;"/><polygon fill="#000000" points="891.3623,519.6123,889.7987,510.2312,884.5832,512.9419,891.3623,519.6123" style="stroke:#000000;stroke-width:1.0;"/><text fill="#000000" font-family="sans-serif" font-size="13" lengthAdjust="spacing" textLength="64" x="898.0564" y="520.4951">is validated</text><text fill="#000000" font-family="sans-serif" font-size="13" lengthAdjust="spacing" textLength="7" x="845.8962" y="465.0859">1</text><text fill="#000000" font-family="sans-serif" font-size="13" lengthAdjust="spacing" textLength="7" x="903.2966" y="581.9521">1</text><!--MD5=[036c9872ad7515ab1af27a534778c04f]
link TestValidation to Notification--><path codeLine="154" d="M962.0564,647.3 C962.0564,675.02 962.0564,718.4 962.0564,746 " fill="none" id="TestValidation-Notification" style="stroke:#A80036;stroke-width:1.0;"/><polygon fill="#000000" points="967.0564,698.1758,969.9953,689.1307,964.1175,689.1307,967.0564,698.1758" style="stroke:#000000;stroke-width:1.0;"/><text fill="#000000" font-family="sans-serif" font-size="13" lengthAdjust="spacing" textLength="35" x="976.0564" y="698.4951">sends</text><text fill="#000000" font-family="sans-serif" font-size="13" lengthAdjust="spacing" textLength="7" x="954.3345" y="668.1289">1</text><text fill="#000000" font-family="sans-serif" font-size="13" lengthAdjust="spacing" textLength="7" x="954.2033" y="735.0267">1</text><!--MD5=[1d2b486772af8b800ea2305cd78ec322]
@startuml

hide methods


class Company{
 -designation
}

class Client{
 -name
 -tinNumber
 -citizenCardNumber
 -nhsNumber
 -birthDate
 -sex
 -phoneNumber
 -email
}

class TestValidation{
-createdAt
}

class Sample{
-createdAt
}

class Notification{
-message
}

class Employee{
 -employeeID
 -name
 -address
 -socCode
 -phoneNumber
 -email
}

class Report{
-createdAt
 -diagnosis
}

class TestParameter {
    -parameter
    -testParameterResult
}
class TestParameterResult{
 -value
 -metric
 -refValue
}

class Parameter{
 -name
 -code
 -description
}

class ParameterCategory{
 -code
 -name
}

class TypeOfTest{
 -description
 -code
 -collectingMethods
}

class Laboratory{
 -name
 -phoneNumber
 -tinNumber
 -address
}

class ClinicalAnalysisLaboratory {
 -laboratoryId
}

class SpecialistDoctor {
 -doctorIndexNumber
}

class Sample {
 -barcodeNumber
}

class Test {
 -createdAt
 -nhsCode
 -internalCode
}

class ChemicalLab {
}

class User {
 -email
 -name
 -password
}

class OrganizationRole {
 -description
}

Company"1" -up- "*"Client : "> knows"
Company"1" -left- "*"Employee : "> employs"
Company"1" - - "1"ChemicalLab : "> owns"
Employee <|- - SpecialistDoctor
ChemicalLab - -|> Laboratory
ClinicalAnalysisLaboratory -|> Laboratory
Employee"0..1" - - "1"User : "> registered as"
TypeOfTest"*" -right- "1..*"ParameterCategory : "> can measure \n parameters under a"
Parameter"*" - - "1"ParameterCategory : "> categorized under a"
Employee"*" -up- "1"OrganizationRole : "> has an"
Company"1" - - "*"ClinicalAnalysisLaboratory : "> owns"
ClinicalAnalysisLaboratory"*" - - "1..*"TypeOfTest : "> performs"
Company"1" - "*"TypeOfTest : "> conducts"
TestParameterResult"*" - "1"Report : "> originates"
Report"*" - - "*"Client : "> sent to"
Client"0..1" -up- "1"User : "> becomes"
Employee <|- - Admin
Admin"1..*" - - "*"ParameterCategory : "> specifies"
Company"1" - - "*"ParameterCategory : "> adopts"
Admin"1..*" - - "*"TypeOfTest : "> specifies"
Admin"1..*" - - "*"Parameter : "> specifies"
Admin"1..*" - - "*"Employee : "> register"
Employee <|- Receptionist
Receptionist"1..*" - - "*"Test : "> register"
Receptionist"1..*" - - "*"Client : "> register"
Test"1" - - "1..*"TestParameter : ">has"
TestParameter"1" - - "1"TestParameterResult : "> receives"
Test"*" - - "*"Sample : "> has"

Client"*" -left- "1..*"Test : "> asks for"

Employee <|-left- MedicalLabTechnician
MedicalLabTechnician"1..*" - - "*"Sample : "> register"

Employee <|- - ClinicalChemistryTechnologist
ClinicalChemistryTechnologist"1..*" - - "*"TestParameterResult : "> record"

SpecialistDoctor"1..*" - - "*"Report : "> write"
Company"1" - - "*"Parameter : "> capable of analysing"
Employee <|- LaboratoryCoordinator

LaboratoryCoordinator"1..*" - - "*"TestValidation :> does
Test"1" - - "1"TestValidation : > is validated
TestValidation"1" - - "1"Notification : > sends
@enduml

PlantUML version 1.2021.5(Sun Apr 25 12:20:28 BST 2021)
(GPL source distribution)
Java Runtime: OpenJDK Runtime Environment
JVM: Dynamic Code Evolution 64-Bit Server VM
Default Encoding: Cp1252
Language: en
Country: US
--></g></svg>